<?xml version="1.0" encoding="UTF-8" standalone="no"?>
<!-- Created with Inkscape (http://www.inkscape.org/) -->

<svg
   version="1.1"
   id="svg10"
   xml:space="preserve"
   width="863.83331"
   height="653.4209"
   viewBox="0 0 863.83331 653.42089"
   sodipodi:docname="HeartbleedStates.svg"
   inkscape:version="1.4.4 (dcaf3e7, 2026-05-05)"
   xmlns:inkscape="http://www.inkscape.org/namespaces/inkscape"
   xmlns:sodipodi="http://sodipodi.sourceforge.net/DTD/sodipodi-0.dtd"
   xmlns="http://www.w3.org/2000/svg"
   xmlns:svg="http://www.w3.org/2000/svg"
   xmlns:rdf="http://www.w3.org/1999/02/22-rdf-syntax-ns#"
   xmlns:cc="http://creativecommons.org/ns#"
   xmlns:dc="http://purl.org/dc/elements/1.1/"><metadata
     id="metadata16"><rdf:RDF><cc:Work
         rdf:about=""><dc:format>image/svg+xml</dc:format><dc:type
           rdf:resource="http://purl.org/dc/dcmitype/StillImage" /></cc:Work></rdf:RDF></metadata><defs
     id="defs14" /><sodipodi:namedview
     pagecolor="#ffffff"
     bordercolor="#000000"
     borderopacity="0.25"
     objecttolerance="10"
     gridtolerance="10"
     guidetolerance="10"
     inkscape:pageopacity="0"
     inkscape:pageshadow="2"
     inkscape:window-width="2560"
     inkscape:window-height="1369"
     id="namedview12"
     showgrid="false"
     fit-margin-top="0"
     fit-margin-left="0"
     fit-margin-right="0"
     fit-margin-bottom="0"
     inkscape:zoom="1.7929277"
     inkscape:cx="431.97503"
     inkscape:cy="349.42848"
     inkscape:window-x="-8"
     inkscape:window-y="985"
     inkscape:window-maximized="1"
     inkscape:current-layer="g20"
     inkscape:showpageshadow="2"
     inkscape:pagecheckerboard="0"
     inkscape:deskcolor="#d1d1d1"
     inkscape:export-bgcolor="#fffffff0"
     showguides="true" /><g
     id="g18"
     inkscape:groupmode="layer"
     inkscape:label="HeartbleedStates"
     transform="matrix(1.3333333,0,0,1.3333333,0,2.4999999e-5)"><g
       id="g20"><rect
   style="fill:#ffffff;stroke-width:0.750728"
   id="rect1"
   width="647.54425"
   height="476.87366"
   x="0.41831025"
   y="13.80422" /><text
   transform="translate(557.86124,357.66795)"
   style="font-variant:normal;font-weight:300;font-size:9.75px;font-family:'Calibri Light';-inkscape-font-specification:Calibri-Light;writing-mode:lr-tb;fill:#7f7f7f;fill-opacity:1;fill-rule:nonzero;stroke:none"
   id="text24"
   y="0"><tspan
     x="0 5.2177734 8.6591425 11.044274 13.248498 15.628869 18.014002 20.218225 25.435999 30.520472 32.762779 37.352135 42.417564 47.453289 51.596466"
     y="0"
     sodipodi:role="line"
     id="tspan22">BF, I. Bojanova</tspan></text>
<path
   d="m 48.75,123.293 c 0,-30.859 24.848,-55.875 55.5,-55.875 30.652,0 55.5,25.016 55.5,55.875 0,30.859 -24.848,55.875 -55.5,55.875 -30.652,0 -55.5,-25.016 -55.5,-55.875 z"
   style="fill:#e8effc;fill-opacity:1;fill-rule:evenodd;stroke:none"
   id="path26"
   inkscape:connector-curvature="0" /><text
   transform="translate(94.172998,112.41795)"
   style="font-variant:normal;font-weight:300;font-size:12px;font-family:'Calibri Light';-inkscape-font-specification:Calibri-Light;writing-mode:lr-tb;fill:#000000;fill-opacity:1;fill-rule:nonzero;stroke:none"
   id="text32"
   y="0"><tspan
     x="0 7.1632032 13.813594"
     y="0"
     sodipodi:role="line"
     id="tspan28">DVR</tspan><tspan
     x="-43.294498"
     y="14.25"
     id="tspan30">(</tspan></text>
<text
   transform="translate(54.503248,126.66795)"
   style="font-variant:normal;font-weight:300;font-size:12px;font-family:'Calibri Light';-inkscape-font-specification:Calibri-Light;writing-mode:lr-tb;fill:#660066;fill-opacity:1;fill-rule:nonzero;stroke:none"
   id="text36"
   y="0"><tspan
     x="0 6.0623908 11.992078 16.128798 18.777235 22.423172 27.714188 30.866531 33.579422 43.716141 46.364578 51.005203 55.645828 58.294266 64.528641 70.153641 72.866531 79.288406 85.546219 91.780594"
     y="0"
     sodipodi:role="line"
     id="tspan34">Verify: Missing Code</tspan></text>
<text
   transform="translate(151.9785,126.66795)"
   style="font-variant:normal;font-weight:300;font-size:12px;font-family:'Calibri Light';-inkscape-font-specification:Calibri-Light;writing-mode:lr-tb;fill:#000000;fill-opacity:1;fill-rule:nonzero;stroke:none"
   id="text42"
   y="14.25"><tspan
     x="0"
     y="0"
     id="tspan38">,</tspan><tspan
     x="-60.655499 -53.372295 -47.843861 -44.068501 -38.420063"
     y="14.25"
     sodipodi:role="line"
     id="tspan40">Data)</tspan></text>
<path
   d="m 193.5,123.293 c 0,-30.859 25.016,-55.875 55.875,-55.875 30.859,0 55.875,25.016 55.875,55.875 0,30.859 -25.016,55.875 -55.875,55.875 -30.859,0 -55.875,-25.016 -55.875,-55.875 z"
   style="fill:#f4f2f8;fill-opacity:1;fill-rule:evenodd;stroke:none"
   id="path44"
   inkscape:connector-curvature="0" /><text
   transform="translate(237.033,105.66795)"
   style="font-variant:normal;font-weight:300;font-size:12px;font-family:'Calibri Light';-inkscape-font-specification:Calibri-Light;writing-mode:lr-tb;fill:#000000;fill-opacity:1;fill-rule:nonzero;stroke:none"
   id="text50"
   y="0"><tspan
     x="0 10.136719 16.898438"
     y="0"
     sodipodi:role="line"
     id="tspan46">MAD</tspan><tspan
     x="-18.009745 -14.423806 -8.2770882 -2.3474002 3.8869748 10.144787 14.785412"
     y="14.25"
     sodipodi:role="line"
     id="tspan48">(Repositi</tspan></text>
<text
   transform="translate(260.96489,119.91795)"
   style="font-variant:normal;font-weight:300;font-size:12px;font-family:'Calibri Light';-inkscape-font-specification:Calibri-Light;writing-mode:lr-tb;fill:#000000;fill-opacity:1;fill-rule:nonzero;stroke:none"
   id="text58"
   y="0"><tspan
     x="0 6.2578125 12.492188"
     y="0"
     sodipodi:role="line"
     id="tspan56">on,</tspan></text>
<text
   transform="translate(205.55775,134.16795)"
   style="font-variant:normal;font-weight:300;font-size:12px;font-family:'Calibri Light';-inkscape-font-specification:Calibri-Light;writing-mode:lr-tb;fill:#660066;fill-opacity:1;fill-rule:nonzero;stroke:none"
   id="text62"
   y="0"><tspan
     x="0 7.2832031 12.811641 16.587 22.235437 25.387781 28.100672 38.310986 42.219704 48.477516 54.711891 60.336891 63.049782 68.481422 71.12986 75.552513"
     y="0"
     sodipodi:role="line"
     id="tspan60">Data: Wrong Size</tspan></text>
<text
   transform="translate(287.01299,134.16795)"
   style="font-variant:normal;font-weight:300;font-size:12px;font-family:'Calibri Light';-inkscape-font-specification:Calibri-Light;writing-mode:lr-tb;fill:#000000;fill-opacity:1;fill-rule:nonzero;stroke:none"
   id="text68"
   y="15"><tspan
     x="0"
     y="0"
     id="tspan64">,</tspan><tspan
     x="-84.920242 -79.767464 -74.476448 -68.242073 -62.312386 -56.808838 -50.047119 -43.812744 -37.578369 -33.621651 -27.691963 -23.051338 -18.410713 -15.475166 -12.762276 -7.3306346 -4.6821971 -0.25954086 5.6701465"
     y="15"
     sodipodi:role="line"
     id="tspan66">Type,Address, Size)</tspan></text>
<path
   d="m 339,123.293 c 0,-30.859 24.848,-55.875 55.5,-55.875 30.652,0 55.5,25.016 55.5,55.875 0,30.859 -24.848,55.875 -55.5,55.875 -30.652,0 -55.5,-25.016 -55.5,-55.875 z"
   style="fill:#dfdaea;fill-opacity:1;fill-rule:evenodd;stroke:none"
   id="path70"
   inkscape:connector-curvature="0" /><text
   transform="translate(382.87799,98.167954)"
   style="font-variant:normal;font-weight:300;font-size:12px;font-family:'Calibri Light';-inkscape-font-specification:Calibri-Light;writing-mode:lr-tb;fill:#000000;fill-opacity:1;fill-rule:nonzero;stroke:none"
   id="text76"
   y="0"><tspan
     x="0 10.136719 17.765625"
     y="0"
     sodipodi:role="line"
     id="tspan72">MUS</tspan><tspan
     x="-32.975243 -29.389307 -23.242588 -17.312901 -11.664463 -5.4300876 -2.4945409 0.21834974 7.5015531 13.04199 16.805349 22.453787 25.389334 28.102224 33.255005 38.546021 44.780396 50.710083"
     y="14.25"
     sodipodi:role="line"
     id="tspan74">(Read, Data, Type,</tspan></text>
<text
   transform="translate(359.45774,126.66795)"
   style="font-variant:normal;font-weight:300;font-size:12px;font-family:'Calibri Light';-inkscape-font-specification:Calibri-Light;writing-mode:lr-tb;fill:#660066;fill-opacity:1;fill-rule:nonzero;stroke:none"
   id="text82"
   y="0"><tspan
     x="0 6.7617188 12.996094 19.230469 23.187187 29.116875 33.7575 38.398125 41.550468 44.263359 52.114922 57.286221 63.215908"
     y="0"
     sodipodi:role="line"
     id="tspan78">Address: Over</tspan><tspan
     x="-1.7145 4.707375 10.965187 17.199562 23.433937 29.668312 32.381203 38.210953 44.468765 47.117203 53.231579 57.054939 62.984627"
     y="15"
     sodipodi:role="line"
     id="tspan80">Bound Pointer</tspan></text>
<text
   transform="translate(425.50799,141.66795)"
   style="font-variant:normal;font-weight:300;font-size:12px;font-family:'Calibri Light';-inkscape-font-specification:Calibri-Light;writing-mode:lr-tb;fill:#000000;fill-opacity:1;fill-rule:nonzero;stroke:none"
   id="text88"
   y="14.25"><tspan
     x="0"
     y="0"
     id="tspan84">,</tspan><tspan
     x="-43.419758 -37.988117 -35.33968 -30.905022 -24.975334"
     y="14.25"
     sodipodi:role="line"
     id="tspan86">Size)</tspan></text>
<path
   d="m 526.898,149.293 5.219,0.449 5.195,1.305 5.114,2.109 4.98,2.848 4.817,3.527 4.609,4.16 4.359,4.723 4.075,5.234 3.746,5.692 3.379,6.09 2.972,6.429 2.52,6.715 2.035,6.946 1.5,7.113 0.934,7.23 0.097,2.282 -0.496,0.023 -0.101,-2.27 0.003,0.02 -0.929,-7.211 0.004,0.02 -1.5,-7.094 0.004,0.019 -2.028,-6.925 0.008,0.015 -2.516,-6.699 0.004,0.019 -2.961,-6.414 0.008,0.016 -3.371,-6.074 0.012,0.019 -3.738,-5.675 0.011,0.015 -4.058,-5.219 0.011,0.016 -4.343,-4.711 0.015,0.02 -4.59,-4.141 0.02,0.016 -4.797,-3.516 0.027,0.016 -4.957,-2.832 0.028,0.011 -5.078,-2.093 0.035,0.011 -5.16,-1.297 0.039,0.008 -5.2,-0.445 z m 58.258,71.734 -2.734,6.125 -3.262,-5.863 z"
   style="fill:#000000;fill-opacity:1;fill-rule:nonzero;stroke:none"
   id="path90"
   inkscape:connector-curvature="0" /><g
   id="g92"><path
     d="m 521.625,343.043 60.273,-111.75 65.727,111.75 z"
     style="fill:#dfdaea;fill-opacity:1;fill-rule:evenodd;stroke:#7d3368;stroke-width:0.5;stroke-linecap:butt;stroke-linejoin:round;stroke-miterlimit:10;stroke-dasharray:none;stroke-opacity:1"
     id="path94"
     inkscape:connector-curvature="0" /></g><text
   transform="translate(575.41949,304.41795)"
   style="font-variant:normal;font-weight:300;font-size:12px;font-family:'Calibri Light';-inkscape-font-specification:Calibri-Light;writing-mode:lr-tb;fill:#000000;fill-opacity:1;fill-rule:nonzero;stroke:none"
   id="text100"
   y="0"><tspan
     x="0 2.9296875 8.7949219"
     y="0"
     sodipodi:role="line"
     id="tspan96">IEX</tspan><tspan
     x="-321.78375 -315.36188 -309.84235 -307.12946 -300.70758 -294.05719 -288.28793 -284.66211 -278.58008 -272.49805 -266.41602 -260.15399 -256.52817 -250.44614 -244.36411 -238.28207 -229.28404 -220.53548 -213.10579 -207.1761 -201.52766 -197.39095 -193.44759 -187.21321 -184.56477 -178.63509 -172.7054"
     y="-296.25"
     sodipodi:role="line"
     id="tspan98">BF CVE-2014-0160–Heartbleed</tspan></text>
<path
   d="m 281.25,314.543 c 0,-30.859 25.016,-55.875 55.875,-55.875 30.859,0 55.875,25.016 55.875,55.875 0,30.859 -25.016,55.875 -55.875,55.875 -30.859,0 -55.875,-25.016 -55.875,-55.875 z"
   style="fill:#dfdaea;fill-opacity:1;fill-rule:evenodd;stroke:none"
   id="path102"
   inkscape:connector-curvature="0" /><path
   d="m 271.5,314.543 c 0,-30.859 25.016,-55.875 55.875,-55.875 30.859,0 55.875,25.016 55.875,55.875 0,30.859 -25.016,55.875 -55.875,55.875 -30.859,0 -55.875,-25.016 -55.875,-55.875 z"
   style="fill:#e8effc;fill-opacity:1;fill-rule:evenodd;stroke:none"
   id="path104"
   inkscape:connector-curvature="0" /><text
   transform="translate(315.92999,296.91795)"
   style="font-variant:normal;font-weight:300;font-size:12px;font-family:'Calibri Light';-inkscape-font-specification:Calibri-Light;writing-mode:lr-tb;fill:#000000;fill-opacity:1;fill-rule:nonzero;stroke:none"
   id="text110"
   y="0"><tspan
     x="0 10.136719 17.765625"
     y="0"
     sodipodi:role="line"
     id="tspan106">MUS</tspan><tspan
     x="-40.310257"
     y="14.25"
     id="tspan108">(</tspan></text>
<text
   transform="translate(279.24524,311.16795)"
   style="font-variant:normal;font-weight:300;font-size:12px;font-family:'Calibri Light';-inkscape-font-specification:Calibri-Light;writing-mode:lr-tb;fill:#660066;fill-opacity:1;fill-rule:nonzero;stroke:none"
   id="text114"
   y="0"><tspan
     x="0 6.421875 9.0703125 15 20.648438 24.785156 27.9375 30.650391 40.787109 43.435547 48.076172 52.716797 55.365234 61.599609 67.224609 69.9375 76.359375 82.617188 88.851562"
     y="0"
     sodipodi:role="line"
     id="tspan112">Clear: Missing Code</tspan></text>
<text
   transform="translate(373.74524,311.16795)"
   style="font-variant:normal;font-weight:300;font-size:12px;font-family:'Calibri Light';-inkscape-font-specification:Calibri-Light;writing-mode:lr-tb;fill:#000000;fill-opacity:1;fill-rule:nonzero;stroke:none"
   id="text122"
   y="14.25"><tspan
     x="0"
     y="0"
     id="tspan116">,</tspan><tspan
     x="-74.225243 -66.942039 -61.413605 -57.638245 -51.989807 -49.05426 -46.34137 -41.188587 -35.897572 -29.663197 -23.733509"
     y="14.25"
     sodipodi:role="line"
     id="tspan118">Data, Type,</tspan><tspan
     x="-79.205246 -72.443527 -66.209152 -59.974773 -56.018055 -50.088367 -45.447742 -40.807117 -35.255573 -29.823931 -27.175493 -22.740837 -16.93115"
     y="29.25"
     sodipodi:role="line"
     id="tspan120">Address,Size)</tspan></text>
<path
   d="m 376.625,275.285 0.406,-5.484 1.188,-5.457 1.918,-5.367 2.586,-5.235 3.215,-5.058 3.781,-4.844 4.297,-4.586 4.765,-4.281 5.18,-3.938 5.539,-3.555 5.855,-3.121 6.11,-2.652 6.32,-2.141 6.481,-1.578 6.582,-0.98 6.621,-0.336 6.609,-0.332 h -0.023 l 6.558,-0.977 -0.019,0.004 6.453,-1.574 -0.02,0.008 6.301,-2.133 -0.019,0.008 6.093,-2.645 -0.019,0.012 5.836,-3.117 -0.016,0.012 5.524,-3.543 -0.016,0.011 5.16,-3.926 -0.016,0.012 4.75,-4.269 -0.015,0.015 4.285,-4.566 -0.016,0.016 3.766,-4.825 -0.012,0.02 3.196,-5.039 -0.012,0.023 2.578,-5.207 -0.012,0.028 1.907,-5.34 -0.012,0.035 1.156,-5.906 0.488,0.097 -1.156,5.926 -1.918,5.367 -2.59,5.235 -3.211,5.058 -3.781,4.844 -4.297,4.586 -4.765,4.281 -5.18,3.938 -5.539,3.554 -5.856,3.125 -6.109,2.653 -6.324,2.136 -6.477,1.578 -6.582,0.981 -6.621,0.336 -6.613,0.336 0.023,-0.004 -6.558,0.976 0.023,-0.003 -6.457,1.574 0.024,-0.004 -6.301,2.129 0.019,-0.008 -6.094,2.644 0.02,-0.007 -5.836,3.113 0.016,-0.012 -5.524,3.543 0.016,-0.011 -5.164,3.925 0.015,-0.011 -4.746,4.269 0.016,-0.016 -4.285,4.567 0.015,-0.016 -3.769,4.824 0.016,-0.019 -3.2,5.039 0.016,-0.023 -2.578,5.207 0.012,-0.024 -1.907,5.336 0.008,-0.031 -1.18,5.426 0.008,-0.036 -0.406,5.465 z m 137.957,-111.023 3.508,-5.719 2.472,6.234 z"
   style="fill:#000000;fill-opacity:1;fill-rule:nonzero;stroke:none"
   id="path124"
   inkscape:connector-curvature="0" /><text
   transform="translate(394.99349,260.91795)"
   style="font-variant:normal;font-weight:300;font-size:12px;font-family:'Calibri Light';-inkscape-font-specification:Calibri-Light;writing-mode:lr-tb;fill:#660066;fill-opacity:1;fill-rule:nonzero;stroke:none"
   id="text130"
   y="0"><tspan
     x="0 7.6582031 13.916016 17.859375 20.572266 26.994141 29.642578 35.572266 41.220703 45.177422 51.107109"
     y="0"
     sodipodi:role="line"
     id="tspan126">Not Cleared</tspan><tspan
     x="0 7.8515625 14.085938 16.845703 22.775391 27.878906"
     y="14.25"
     sodipodi:role="line"
     id="tspan128">Object</tspan></text>
<g
   id="g132"><path
     d="m 518.25,140.543 v 18 m -8.625,-9 h 17.25"
     style="fill:none;stroke:#44546a;stroke-width:0.75;stroke-linecap:butt;stroke-linejoin:round;stroke-miterlimit:10;stroke-dasharray:none;stroke-opacity:1"
     id="path134"
     inkscape:connector-curvature="0" /></g><g
   id="g136"><path
     d="m 509.625,149.543 c 0,-4.969 3.863,-9 8.625,-9 4.762,0 8.625,4.031 8.625,9 0,4.969 -3.863,9 -8.625,9 -4.762,0 -8.625,-4.031 -8.625,-9 z"
     style="fill:none;stroke:#44546a;stroke-width:0.75;stroke-linecap:butt;stroke-linejoin:round;stroke-miterlimit:10;stroke-dasharray:none;stroke-opacity:1"
     id="path138"
     inkscape:connector-curvature="0" /></g><path
   d="m 434.867,84.348 0.242,-1.075 -0.035,0.082 0.699,-1.066 -0.039,0.047 1.133,-1.047 -0.031,0.023 1.531,-1.023 -0.023,0.012 1.894,-0.989 -0.015,0.008 2.234,-0.949 -0.016,0.008 2.543,-0.899 -0.011,0.004 2.82,-0.839 -0.016,0.003 6.344,-1.468 -0.016,0.004 7.079,-1.129 h -0.016 l 7.57,-0.727 h -0.015 l 7.816,-0.258 h -0.031 l 3.922,0.387 -0.043,-0.008 3.89,1.129 -0.035,-0.012 3.832,1.825 -0.031,-0.016 3.738,2.469 -0.023,-0.02 3.617,3.067 -0.02,-0.02 3.465,3.609 -0.015,-0.015 3.277,4.105 -0.012,-0.019 3.067,4.551 -0.012,-0.016 2.82,4.949 -0.007,-0.015 2.539,5.292 -0.004,-0.015 2.234,5.594 -0.004,-0.016 1.899,5.84 -0.008,-0.02 1.531,6.039 -0.004,-0.015 1.129,6.183 v -0.015 l 0.699,6.285 v -0.02 l 0.051,1.34 0.5,-0.019 -0.051,-1.348 -0.703,-6.301 -1.137,-6.203 -1.531,-6.055 -1.902,-5.855 -2.242,-5.606 -2.551,-5.312 -2.828,-4.961 -3.075,-4.566 -3.292,-4.121 -3.481,-3.629 -3.637,-3.082 -3.765,-2.489 -3.867,-1.84 -3.934,-1.144 -3.965,-0.391 -7.84,0.258 -7.586,0.731 -7.097,1.132 -6.36,1.473 -2.832,0.844 -2.554,0.902 -2.254,0.953 -1.918,1 -1.555,1.043 -1.168,1.086 -0.742,1.129 -0.25,1.117 z m 80.348,50.25 3.223,5.882 2.773,-6.109 z"
   style="fill:#000000;fill-opacity:1;fill-rule:nonzero;stroke:none"
   id="path140"
   inkscape:connector-curvature="0" /><text
   transform="translate(97.587747,43.417955)"
   style="font-variant:normal;font-weight:300;font-size:12px;font-family:'Calibri Light';-inkscape-font-specification:Calibri-Light;writing-mode:lr-tb;fill:#660066;fill-opacity:1;fill-rule:nonzero;stroke:none"
   id="text144"
   y="0"><tspan
     x="0 2.9296875 9.1640625 14.147578 20.40539 26.639765 31.28039 33.928829 38.425453 42.248814 48.178501 54.292873 58.236233 60.949123 66.927513 72.575951 75.224388 81.458763"
     y="0"
     sodipodi:role="line"
     id="tspan142">Inconsistent Value</tspan></text>
<text
   transform="translate(187.6725,43.417955)"
   style="font-variant:normal;font-weight:normal;font-size:12px;font-family:'Times New Roman';-inkscape-font-specification:TimesNewRomanPSMT;writing-mode:lr-tb;fill:#000000;fill-opacity:1;fill-rule:nonzero;stroke:none"
   id="text148"><tspan
     x="0"
     y="0"
     id="tspan146">→</tspan></text>
<text
   transform="translate(203.0475,43.417955)"
   style="font-variant:normal;font-weight:300;font-size:12px;font-family:'Calibri Light';-inkscape-font-specification:Calibri-Light;writing-mode:lr-tb;fill:#660066;fill-opacity:1;fill-rule:nonzero;stroke:none"
   id="text156"
   y="0"><tspan
     x="0 10.222313 14.119031 20.376844 26.611219 32.236217 34.949108 40.380749 43.029186 47.463844"
     y="0"
     sodipodi:role="line"
     id="tspan150">Wrong Size</tspan><tspan
     x="-64.685257 -57.402054 -51.873615 -48.098255 -42.449818 -39.736927 -33.871693 -29.734974 -25.838257 -19.580444 -15.443725 -11.096068 -5.9005375 -0.25209975 5.982275 8.6307125"
     y="14.25"
     sodipodi:role="line"
     id="tspan152">Data Error/Fault</tspan><tspan
     x="228.21899 234.64087"
     y="0"
     sodipodi:role="line"
     id="tspan154">Bu</tspan></text>
<text
   transform="translate(443.92275,43.417955)"
   style="font-variant:normal;font-weight:300;font-size:12px;font-family:'Calibri Light';-inkscape-font-specification:Calibri-Light;writing-mode:lr-tb;fill:#660066;fill-opacity:1;fill-rule:nonzero;stroke:none"
   id="text160"><tspan
     x="0"
     y="0"
     id="tspan158">ﬀ</tspan></text>
<text
   transform="translate(450.45951,43.417955)"
   style="font-variant:normal;font-weight:300;font-size:12px;font-family:'Calibri Light';-inkscape-font-specification:Calibri-Light;writing-mode:lr-tb;fill:#660066;fill-opacity:1;fill-rule:nonzero;stroke:none"
   id="text170"
   y="0"><tspan
     x="0 5.9296875 10.066406 12.779297 20.630859 25.790155 31.719843 35.916561 39.542389 45.68911 51.618797 57.267235"
     y="0"
     sodipodi:role="line"
     id="tspan162">er Over-Read</tspan><tspan
     x="-2.7027717 2.8167596 5.4651971 11.699573 17.348009 19.996447 22.709337 28.574572 32.711292 36.608009 42.865822"
     y="14.25"
     sodipodi:role="line"
     id="tspan164">Final Error</tspan><tspan
     x="-449.26178 -439.12506 -436.47662 -431.836 -427.19537 -424.54694 -418.31256 -412.68756 -409.97467 -403.5528 -397.29498 -391.06061"
     y="0"
     sodipodi:role="line"
     id="tspan166">Missing Code</tspan><tspan
     x="-426.38678 -419.9649 -413.73053"
     y="14.25"
     sodipodi:role="line"
     id="tspan168">Bug</tspan></text>
<path
   d="m 144.129,84.5 0.195,-1.141 0.582,-1.156 0.918,-1.113 1.231,-1.078 1.515,-1.032 1.782,-0.988 4.242,-1.797 5.015,-1.515 5.59,-1.168 5.977,-0.75 6.172,-0.266 6.168,0.242 5.976,0.688 5.59,1.07 5.012,1.387 4.242,1.64 1.801,0.918 1.144,1.086 -0.343,0.364 -1.118,-1.063 0.059,0.039 -1.758,-0.89 0.024,0.011 -4.219,-1.636 0.023,0.007 -4.992,-1.379 0.02,0.004 -5.571,-1.066 0.02,0.004 -5.957,-0.688 0.019,0.004 -6.152,-0.242 h 0.023 l -6.152,0.262 h 0.02 l -5.954,0.75 0.016,-0.004 -5.566,1.164 0.019,-0.008 -4.992,1.512 0.027,-0.008 -4.218,1.785 0.023,-0.011 -1.758,0.972 0.02,-0.012 -1.496,1.02 0.027,-0.02 -1.207,1.055 0.031,-0.031 -0.89,1.078 0.031,-0.047 -0.551,1.098 0.023,-0.071 -0.191,1.106 z m 64.641,-7.484 1.55,6.527 -6.152,-2.676 z"
   style="fill:#000000;fill-opacity:1;fill-rule:nonzero;stroke:none"
   id="path172"
   inkscape:connector-curvature="0" /><text
   transform="translate(274.21274,47.167955)"
   style="font-variant:normal;font-weight:300;font-size:12px;font-family:'Calibri Light';-inkscape-font-specification:Calibri-Light;writing-mode:lr-tb;fill:#660066;fill-opacity:1;fill-rule:nonzero;stroke:none"
   id="text178"
   y="0"><tspan
     x="0 7.8515625 13.010859 18.940546 25.765266 32.187141 38.444954 44.679329 50.913704 59.884079 65.713829 71.971642 74.620079 80.734451 84.569809 90.499496"
     y="0"
     sodipodi:role="line"
     id="tspan174">OverBoundPointer</tspan><tspan
     x="0.62024999 7.381969 13.616343 19.850719 23.807438 29.737125 34.37775 39.018375 41.731266 47.5965 51.733219 55.641937 61.89975 66.036469 70.384125 75.579659 81.228096 87.462471 90.110909"
     y="14.25"
     sodipodi:role="line"
     id="tspan176">Address Error/Fault</tspan></text>
<text
   transform="translate(0.225749,409.41795)"
   style="font-variant:normal;font-weight:300;font-size:11.25px;font-family:'Calibri Light';-inkscape-font-specification:Calibri-Light;writing-mode:lr-tb;fill:#000000;fill-opacity:1;fill-rule:nonzero;stroke:none"
   id="text182"
   y="0"><tspan
     x="0 2.746582 11.645508 17.490234 21.143408 27.010107 32.854836 38.413918 42.292091 44.835426 49.927589 53.466988 58.649899 62.234299 69.244629 77.255157 83.594269"
     y="0"
     sodipodi:role="line"
     id="tspan180">Improper State–An</tspan></text>
<text
   transform="translate(91.975498,409.41795)"
   style="font-variant:normal;font-weight:normal;font-size:9.75px;font-family:'Courier New';-inkscape-font-specification:CourierNewPSMT;writing-mode:lr-tb;fill:#000000;fill-opacity:1;fill-rule:nonzero;stroke:none"
   id="text186"
   y="0"><tspan
     x="0 5.8509521 11.701904 17.552856 23.403809 29.254761 35.105713 40.956665 46.807617 52.658569 58.509521 64.360474 70.211426 76.062378 81.91333 87.764282 93.615234 99.466187"
     y="0"
     sodipodi:role="line"
     id="tspan184">operation, operand</tspan></text>
<text
   transform="translate(199.9755,410.91795)"
   style="font-variant:normal;font-weight:normal;font-size:6.75px;font-family:'Courier New';-inkscape-font-specification:CourierNewPSMT;writing-mode:lr-tb;fill:#000000;fill-opacity:1;fill-rule:nonzero;stroke:none"
   id="text190"><tspan
     x="0"
     y="0"
     id="tspan188">1</tspan></text>
<text
   transform="translate(203.97525,409.41795)"
   style="font-variant:normal;font-weight:normal;font-size:9.75px;font-family:'Courier New';-inkscape-font-specification:CourierNewPSMT;writing-mode:lr-tb;fill:#000000;fill-opacity:1;fill-rule:nonzero;stroke:none"
   id="text194"
   y="0"><tspan
     x="0 5.8509521 11.701904 17.552856 30.004559 35.855511 41.706463 47.557415 53.408367 59.259319 65.110275"
     y="0"
     sodipodi:role="line"
     id="tspan192">, …,operand</tspan></text>
<text
   transform="translate(275.97524,410.91795)"
   style="font-variant:normal;font-weight:normal;font-size:6.75px;font-family:'Courier New';-inkscape-font-specification:CourierNewPSMT;writing-mode:lr-tb;fill:#000000;fill-opacity:1;fill-rule:nonzero;stroke:none"
   id="text198"><tspan
     x="0"
     y="0"
     id="tspan196">n</tspan></text>
<text
   transform="translate(279.97574,409.41795)"
   style="font-variant:normal;font-weight:normal;font-size:9.75px;font-family:'Courier New';-inkscape-font-specification:CourierNewPSMT;writing-mode:lr-tb;fill:#000000;fill-opacity:1;fill-rule:nonzero;stroke:none"
   id="text202"><tspan
     x="0"
     y="0"
     id="tspan200">)</tspan></text>
<text
   transform="translate(288.47549,409.41795)"
   style="font-variant:normal;font-weight:300;font-size:11.25px;font-family:'Calibri Light';-inkscape-font-specification:Calibri-Light;writing-mode:lr-tb;fill:#000000;fill-opacity:1;fill-rule:nonzero;stroke:none"
   id="text206"
   y="0"><tspan
     x="0 3.6968994 9.541626 15.386353 17.869263 23.428345 25.97168 33.832397 36.315308 40.012207"
     y="0"
     sodipodi:role="line"
     id="tspan204">tuple with</tspan></text>
<text
   transform="translate(335.72549,409.41795)"
   style="font-variant:normal;font-weight:300;font-size:11.25px;font-family:'Calibri Light';-inkscape-font-specification:Calibri-Light;writing-mode:lr-tb;fill:#202124;fill-opacity:1;fill-rule:nonzero;stroke:none"
   id="text210"
   y="0"><tspan
     x="0 5.18291 8.8798094 11.423144 13.906054 19.465137 24.760548 28.976133 32.673031 35.216366 41.083065 46.927792"
     y="0"
     sodipodi:role="line"
     id="tspan208">at least one</tspan></text>
<text
   transform="translate(389.60024,409.41795)"
   style="font-variant:normal;font-weight:300;font-size:11.25px;font-family:'Calibri Light';-inkscape-font-specification:Calibri-Light;writing-mode:lr-tb;fill:#000000;fill-opacity:1;fill-rule:nonzero;stroke:none"
   id="text214"
   y="0"><tspan
     x="0 2.4829102 11.381836 17.226562 20.879736 26.746435 32.591164 38.150246 42.028419 44.571754 50.130836 52.613747 58.172829 67.071754 72.630836 78.374313 82.071213 84.614548 87.976364 93.821091 99.380173 105.2249 107.70781 112.49236 116.07675 121.63583 127.48056 130.0239 132.50681 138.35153 140.89487 146.73959 152.58432 156.46249 162.30722 164.79013 170.34921"
     y="0"
     sodipodi:role="line"
     id="tspan212">improper element (depicted in purple)</tspan></text>
<text
   transform="translate(0.225749,484.41795)"
   style="font-variant:normal;font-weight:normal;font-size:14.25px;font-family:'Cambria Math';-inkscape-font-specification:CambriaMath;writing-mode:lr-tb;fill:#000000;fill-opacity:1;fill-rule:nonzero;stroke:none"
   id="text218"><tspan
     x="0"
     y="0"
     id="tspan216">↷</tspan></text>
<text
   transform="translate(22.725748,484.41795)"
   style="font-variant:normal;font-weight:300;font-size:11.25px;font-family:'Calibri Light';-inkscape-font-specification:Calibri-Light;writing-mode:lr-tb;fill:#000000;fill-opacity:1;fill-rule:nonzero;stroke:none"
   id="text222"
   y="0"><tspan
     x="0 6.0205078 11.865234 17.160645 19.643555 25.488281 27.971191 33.815918 39.089355 41.63269 49.380909 54.939991 60.235401 65.195724 71.040451 76.599533 80.950119 85.300705 90.859787 95.210373 97.753708 103.59843 109.44316 115.28789 120.84697 124.72514 127.20805 132.16838 134.65129 140.49602 145.76945 148.31279 153.6082 156.15154 161.10088 166.9456 169.42851 175.27324 180.83232 184.49675 189.79216 195.63689 198.1198 200.60271 203.08562 206.78252"
     y="0"
     sodipodi:role="line"
     id="tspan220">Chaining weaknesses underlying a vulnerability</tspan></text>
<path
   d="m 288.879,84.5 0.195,-1.164 0.586,-1.176 0.926,-1.137 1.238,-1.097 1.528,-1.055 1.793,-1.008 4.273,-1.836 5.051,-1.547 5.633,-1.191 6.023,-0.766 6.215,-0.273 6.215,0.25 6.019,0.703 5.633,1.094 5.051,1.418 4.269,1.68 1.817,0.933 1.222,1.16 -0.339,0.364 -1.2,-1.137 0.059,0.043 -1.774,-0.914 0.024,0.011 -4.25,-1.671 0.023,0.007 -5.027,-1.414 0.02,0.008 -5.614,-1.09 0.02,0.004 -6,-0.703 h 0.019 l -6.195,-0.246 h 0.02 l -6.196,0.27 h 0.02 l -6,0.765 0.019,-0.004 -5.609,1.188 0.019,-0.008 -5.027,1.543 0.024,-0.012 -4.247,1.824 0.024,-0.011 -1.774,0.996 0.02,-0.012 -1.504,1.039 0.024,-0.019 -1.211,1.074 0.027,-0.028 -0.895,1.098 0.028,-0.043 -0.555,1.117 0.023,-0.07 -0.191,1.129 z m 65.211,-7.504 1.469,6.547 -6.121,-2.754 z"
   style="fill:#000000;fill-opacity:1;fill-rule:nonzero;stroke:none"
   id="path224"
   inkscape:connector-curvature="0" /><path
   d="M 0.129,84.5 0.324,83.359 0.906,82.203 1.824,81.09 3.055,80.012 4.57,78.98 l 1.782,-0.988 4.242,-1.797 5.015,-1.515 5.59,-1.168 5.977,-0.75 6.172,-0.266 6.168,0.242 5.976,0.688 5.59,1.07 5.012,1.387 4.242,1.64 1.801,0.918 1.144,1.086 -0.343,0.364 -1.118,-1.063 0.059,0.039 -1.758,-0.89 0.024,0.011 -4.219,-1.636 0.023,0.007 -4.992,-1.379 0.02,0.004 -5.571,-1.066 0.02,0.004 -5.957,-0.688 0.019,0.004 -6.152,-0.242 h 0.023 l -6.152,0.262 h 0.02 l -5.954,0.75 0.016,-0.004 -5.566,1.164 0.019,-0.008 -4.992,1.512 0.027,-0.008 -4.218,1.785 0.023,-0.011 -1.758,0.972 0.02,-0.012 -1.496,1.02 0.027,-0.02 L 2.168,81.453 2.199,81.422 1.309,82.5 1.34,82.453 0.789,83.551 0.812,83.48 0.621,84.586 Z m 64.641,-7.484 1.55,6.527 -6.152,-2.676 z"
   style="fill:#000000;fill-opacity:1;fill-rule:nonzero;stroke:none"
   id="path226"
   inkscape:connector-curvature="0" /><text
   transform="translate(175.1445,446.16795)"
   style="font-variant:normal;font-weight:300;font-size:11.25px;font-family:'Calibri Light';-inkscape-font-specification:Calibri-Light;writing-mode:lr-tb;fill:#000000;fill-opacity:1;fill-rule:nonzero;stroke:none"
   id="text230"
   y="0"><tspan
     x="0 2.746582 8.4788084 12.063208 17.62229 21.500463 30.399389 35.958473 41.8032 44.28611 49.48027 53.064667 58.623749 61.167084 66.259247 69.787399 74.98156 78.565956 -138.73125 -135.98466 -130.13994"
     y="0"
     sodipodi:role="line"
     id="tspan228">Intermediate StateIniti</tspan></text>
<text
   transform="translate(53.57938,446.16795)"
   style="font-variant:normal;font-weight:300;font-size:11.25px;font-family:'Calibri Light';-inkscape-font-specification:Calibri-Light;writing-mode:lr-tb;fill:#000000;fill-opacity:1;fill-rule:nonzero;stroke:none"
   id="text238"
   y="0"><tspan
     x="0 5.2954102 7.7783203 10.321655 15.413818 18.941967 24.136127 27.720528 432.52786 437.39868 442.69409 445.177 447.65991 453.50464 457.21405"
     y="0"
     sodipodi:role="line"
     id="tspan236">al StateFailure</tspan></text>
<path
   d="m 138.75,442.043 c 0,-7.664 6.211,-13.875 13.875,-13.875 7.664,0 13.875,6.211 13.875,13.875 0,7.664 -6.211,13.875 -13.875,13.875 -7.664,0 -13.875,-6.211 -13.875,-13.875 z"
   style="fill:#f4f2f8;fill-opacity:1;fill-rule:evenodd;stroke:none"
   id="path240"
   inkscape:connector-curvature="0" /><path
   d="m 0,442.418 c 0,-7.457 6.211,-13.5 13.875,-13.5 7.664,0 13.875,6.043 13.875,13.5 0,7.457 -6.211,13.5 -13.875,13.5 C 6.211,455.918 0,449.875 0,442.418 Z"
   style="fill:#e8effc;fill-opacity:1;fill-rule:evenodd;stroke:none"
   id="path242"
   inkscape:connector-curvature="0" /><text
   transform="translate(349.65824,446.16795)"
   style="font-variant:normal;font-weight:300;font-size:11.25px;font-family:'Calibri Light';-inkscape-font-specification:Calibri-Light;writing-mode:lr-tb;fill:#000000;fill-opacity:1;fill-rule:nonzero;stroke:none"
   id="text246"
   y="0"><tspan
     x="0 5.1745605 7.6574707 13.502197 18.797607 21.280518 23.823853 28.916016 32.444164 37.638325 41.222725"
     y="0"
     sodipodi:role="line"
     id="tspan244">Final State</tspan></text>
<path
   d="m 311.25,442.043 c 0,-7.664 6.043,-13.875 13.5,-13.875 7.457,0 13.5,6.211 13.5,13.875 0,7.664 -6.043,13.875 -13.5,13.875 -7.457,0 -13.5,-6.211 -13.5,-13.875 z"
   style="fill:#dfdaea;fill-opacity:1;fill-rule:evenodd;stroke:none"
   id="path248"
   inkscape:connector-curvature="0" /><g
   id="g250"><path
     d="m 447.375,455.543 16.5,-26.25 16.5,26.25 z"
     style="fill:#dfdaea;fill-opacity:1;fill-rule:evenodd;stroke:#7d3368;stroke-width:0.5;stroke-linecap:butt;stroke-linejoin:round;stroke-miterlimit:10;stroke-dasharray:none;stroke-opacity:1"
     id="path252"
     inkscape:connector-curvature="0" /></g><text
   transform="translate(310.97024,487.41795)"
   style="font-variant:normal;font-weight:normal;font-size:14.25px;font-family:'Cambria Math';-inkscape-font-specification:CambriaMath;writing-mode:lr-tb;fill:#000000;fill-opacity:1;fill-rule:nonzero;stroke:none"
   id="text256"><tspan
     x="0"
     y="0"
     id="tspan254">⊕</tspan></text>
<text
   transform="translate(333.47024,487.41795)"
   style="font-variant:normal;font-weight:300;font-size:11.25px;font-family:'Calibri Light';-inkscape-font-specification:Calibri-Light;writing-mode:lr-tb;fill:#000000;fill-opacity:1;fill-rule:nonzero;stroke:none"
   id="text260"
   y="0"><tspan
     x="0 6.0205078 11.887207 17.540684 22.377525 27.936607 31.64603 36.919468 39.402378 45.247105 52.25304 57.202381 63.047108 65.530022 71.374748 76.93383 80.587006 85.882416 91.727142 94.210052 96.692963"
     y="0"
     sodipodi:role="line"
     id="tspan258">Convergingvulnerabiliti</tspan></text>
<text
   transform="translate(438.73803,487.41795)"
   style="font-variant:normal;font-weight:300;font-size:11.25px;font-family:'Calibri Light';-inkscape-font-specification:Calibri-Light;writing-mode:lr-tb;fill:#000000;fill-opacity:1;fill-rule:nonzero;stroke:none"
   id="text268"
   y="0"><tspan
     x="0 5.559082"
     y="0"
     sodipodi:role="line"
     id="tspan266">es</tspan></text>
</g></g></svg>
