<?xml version="1.0" encoding="UTF-8" standalone="no"?>
<!-- Created with Inkscape (http://www.inkscape.org/) -->

<svg
   width="250.03125mm"
   height="148.06082mm"
   viewBox="0 0 250.03124 148.06081"
   version="1.1"
   id="svg5"
   inkscape:export-filename="..\BF Classes\_INP\DVL.png"
   inkscape:export-xdpi="96"
   inkscape:export-ydpi="96"
   xml:space="preserve"
   inkscape:version="1.2.2 (b0a8486541, 2022-12-01)"
   sodipodi:docname="DVL.svg"
   xmlns:inkscape="http://www.inkscape.org/namespaces/inkscape"
   xmlns:sodipodi="http://sodipodi.sourceforge.net/DTD/sodipodi-0.dtd"
   xmlns="http://www.w3.org/2000/svg"
   xmlns:svg="http://www.w3.org/2000/svg"><sodipodi:namedview
     id="namedview7"
     pagecolor="#ffffff"
     bordercolor="#000000"
     borderopacity="0.25"
     inkscape:showpageshadow="2"
     inkscape:pageopacity="0.0"
     inkscape:pagecheckerboard="0"
     inkscape:deskcolor="#d1d1d1"
     inkscape:document-units="mm"
     showgrid="false"
     inkscape:zoom="0.914906"
     inkscape:cx="441.57542"
     inkscape:cy="-172.14883"
     inkscape:window-width="1350"
     inkscape:window-height="1230"
     inkscape:window-x="2595"
     inkscape:window-y="1029"
     inkscape:window-maximized="0"
     inkscape:current-layer="layer1" /><defs
     id="defs2"><clipPath
       id="clip0"><rect
         x="-25"
         y="0"
         width="785"
         height="1091"
         id="rect9" /></clipPath><clipPath
       id="clip0-8"><rect
         x="-25"
         y="0"
         width="785"
         height="524"
         id="rect520" /></clipPath><clipPath
       id="clip0-3"><rect
         x="-25"
         y="0"
         width="785"
         height="1091"
         id="rect699" /></clipPath><clipPath
       id="clip0-0"><rect
         x="-25"
         y="0"
         width="785"
         height="1091"
         id="rect1109" /></clipPath><clipPath
       id="clip0-4"><rect
         x="-25"
         y="0"
         width="934"
         height="905"
         id="rect1519" /></clipPath><clipPath
       id="clip0-42"><rect
         x="-7"
         y="0"
         width="952"
         height="590"
         id="rect1929" /></clipPath><clipPath
       id="clip0-1"><rect
         x="-25"
         y="0"
         width="785"
         height="1091"
         id="rect2197" /></clipPath><clipPath
       id="clip0-6"><rect
         x="-25"
         y="0"
         width="785"
         height="1091"
         id="rect2806" /></clipPath><clipPath
       id="clip0-66"><rect
         x="11"
         y="-21"
         width="934"
         height="904"
         id="rect3369" /></clipPath><clipPath
       id="clip0-41"><rect
         x="-7"
         y="0"
         width="743"
         height="335"
         id="rect3934" /></clipPath><clipPath
       id="clip0-7"><rect
         x="-7"
         y="0"
         width="743"
         height="335"
         id="rect4109" /></clipPath><clipPath
       id="clip0-9"><rect
         x="-25"
         y="0"
         width="785"
         height="524"
         id="rect4320" /></clipPath><clipPath
       id="clip0-96"><rect
         x="-25"
         y="0"
         width="785"
         height="713"
         id="rect4583" /></clipPath><clipPath
       id="clip0-08"><rect
         x="144"
         y="424"
         width="837"
         height="501"
         id="rect4932" /></clipPath><clipPath
       id="clip0-87"><rect
         x="144"
         y="424"
         width="837"
         height="501"
         id="rect5261" /></clipPath><clipPath
       id="clip0-68"><rect
         x="201"
         y="68"
         width="837"
         height="501"
         id="rect5590" /></clipPath><clipPath
       id="clip0-69"><rect
         x="212"
         y="141"
         width="635"
         height="281"
         id="rect6057" /></clipPath><clipPath
       id="clip0-44"><rect
         x="75"
         y="7"
         width="780"
         height="757"
         id="rect6214" /></clipPath><clipPath
       id="clip0-38"><rect
         x="75"
         y="8"
         width="780"
         height="752"
         id="rect6713" /></clipPath><clipPath
       id="clip0-080"><rect
         x="62"
         y="92"
         width="671"
         height="543"
         id="rect7166" /></clipPath><clipPath
       id="clip0-48"><rect
         x="678"
         y="67"
         width="591"
         height="294"
         id="rect7433" /></clipPath><clipPath
       id="clip0-00"><rect
         x="-7"
         y="0"
         width="952"
         height="574"
         id="rect7818" /></clipPath></defs><g
     inkscape:label="Layer 1"
     inkscape:groupmode="layer"
     id="layer1"
     transform="translate(12.758166,-285.90214)"><g
       clip-path="url(#clip0-00)"
       transform="matrix(0.26458333,0,0,0.26458333,-12.758166,283.72372)"
       id="g7969"><text
         fill="#7d3368"
         font-family="Calibri, Calibri_MSFontService, sans-serif"
         font-weight="400"
         font-size="15px"
         transform="translate(357.68,19)"
         id="text7827">Input/Output Check (_INP) BF Cluster<tspan
   fill="#000000"
   font-size="15px"
   x="22"
   y="35"
   id="tspan7823">Data Validation (DVL) BF Class</tspan><tspan
   fill="#000000"
   font-size="15px"
   x="-224.533"
   y="63"
   id="tspan7825">Causes</tspan></text><path
         d="M 0,108.5 C 0,102.701 4.70116,98 10.5003,98 H 304.5 c 5.799,0 10.5,4.701 10.5,10.5 v 42 c 0,5.799 -4.701,10.5 -10.5,10.5 H 10.5003 C 4.70116,161 0,156.299 0,150.5 Z"
         fill="#e8effc"
         fill-rule="evenodd"
         id="path7829" /><text
         fill="#7d3368"
         font-family="Calibri, Calibri_MSFontService, sans-serif"
         font-weight="400"
         font-size="15px"
         transform="translate(5.1748,116)"
         id="text7835">Code Defect Bug<tspan
   fill="#000000"
   font-size="15px"
   x="218.16701"
   y="17"
   id="tspan7831">Missing Code</tspan><tspan
   fill="#000000"
   font-size="15px"
   x="202"
   y="35"
   id="tspan7833">Erroneous Code</tspan></text><path
         d="m 0.0151359,-0.332989 9.6250041,0.4375 4.45506,0.438764 4.0188,0.627385 3.3287,0.69046 2.6559,0.82045 c 0.0189,0.00586 0.0373,0.01339 0.0548,0.02251 l 1.6875,0.875 c 0.0517,0.02681 0.0955,0.06669 0.127,0.11567 l 0.5625,0.875 0.5625,0.875 -0.127,-0.11567 1.6875,0.875 -0.0548,-0.02251 2.625,0.8125 3.2816,0.67955 3.9838,0.62204 4.4187,0.43511 2.9378,0.11744 L 45.8188,9.51434 42.8423,9.39422 38.386,8.95434 34.3698,8.32638 31.0264,7.63093 28.4014,6.81843 C 28.3825,6.81257 28.3641,6.80504 28.3466,6.79592 l -1.6875,-0.875 C 26.6074,5.89411 26.5636,5.85423 26.5321,5.80525 l -0.5625,-0.875 -0.5625,-0.875 0.127,0.11567 -1.6875,-0.875 0.0548,0.02251 L 21.3073,2.51388 18.011,1.82934 14.0298,1.20673 9.60986,0.770489 -0.0151359,0.332989 Z M 44.6604,5.13098 l 7.833,4.31784 -8.154,3.67568 z"
         transform="matrix(1,0,0,-1,315.5,129.949)"
         id="path7837" /><path
         d="M 0,186.5 C 0,180.701 4.70116,176 10.5003,176 H 304.5 c 5.799,0 10.5,4.701 10.5,10.5 v 42 c 0,5.799 -4.701,10.5 -10.5,10.5 H 10.5003 C 4.70116,239 0,234.299 0,228.5 Z"
         fill="#e8effc"
         fill-rule="evenodd"
         id="path7839" /><text
         fill="#7d3368"
         font-family="Calibri, Calibri_MSFontService, sans-serif"
         font-weight="400"
         font-size="15px"
         transform="translate(5.1748,195)"
         id="text7853">Specification Defect Bug<tspan
   fill="#000000"
   font-size="15px"
   x="154.66701"
   y="17"
   id="tspan7841">Under</tspan><tspan
   fill="#000000"
   font-size="15px"
   x="191.83299"
   y="17"
   id="tspan7843">-</tspan><tspan
   fill="#000000"
   font-size="15px"
   x="196.33299"
   y="17"
   id="tspan7845">Restrictive Policy</tspan><tspan
   fill="#000000"
   font-size="15px"
   x="163"
   y="35"
   id="tspan7847">Over</tspan><tspan
   fill="#000000"
   font-size="15px"
   x="191.83299"
   y="35"
   id="tspan7849">-</tspan><tspan
   fill="#000000"
   font-size="15px"
   x="196.33299"
   y="35"
   id="tspan7851">Restrictive Policy</tspan></text><path
         d="M 0.0340096,-0.331594 2.47151,-0.0815938 c 0.02173,0.0022287 0.04314,0.006577 0.06402,0.0130008 l 2.4375,0.75 c 0.01647,0.005069 0.03246,0.01138 0.04796,0.01893 l 2.4375,1.187503 c 0.01589,0.00774 0.0312,0.01677 0.04566,0.02693 l 2.3125,1.625 2.27985,2.02359 2.2082,2.33257 c 0.011,0.01169 0.0212,0.02415 0.0305,0.03731 l 4,5.68746 c 0.0095,0.0136 0.018,0.0279 0.0254,0.0427 l 3.3125,6.625 2.6415,7.539 1.6989,7.9783 0.5691,8.2966 0.5625,8.25 1.6809,7.8909 2.6133,7.3959 3.2969,6.6504 -0.0271,-0.0452 4,5.625 2.1611,2.3424 2.2223,1.9107 -0.0564,-0.0392 3.2627,1.8019 -0.3223,0.5836 -3.2626,-1.8019 c -0.0201,-0.0111 -0.039,-0.0242 -0.0564,-0.0392 l -2.2777,-1.9643 -2.214,-2.4076 -4,-5.625 c -0.0101,-0.0144 -0.0192,-0.0295 -0.027,-0.0453 l -3.3281,-6.7245 -2.6367,-7.4791 -1.6941,-7.9841 -0.5625,-8.25 -0.5559,-8.2034 -1.6761,-7.8967 -2.6085,-7.461 -3.3125,-6.625 0.0254,0.0427 -4,-5.68754 0.0305,0.03731 -2.1668,-2.29243 -2.22015,-1.97641 -2.3125,-1.625 0.04566,0.02693 -2.4375,-1.1875 0.04796,0.01893 -2.4375,-0.749997 0.06402,0.013001 -2.4374996,-0.25 z M 46.0738,81.961 l 6.4196,6.228 -8.8342,1.3989 z"
         transform="matrix(1,0,0,-1,315.5,208.689)"
         id="path7855" /><path
         d="M 0,271.834 C 0,262.537 7.53673,255 16.8338,255 H 298.166 c 9.297,0 16.834,7.537 16.834,16.834 v 67.332 C 315,348.463 307.463,356 298.166,356 H 16.8338 C 7.53673,356 0,348.463 0,339.166 Z"
         fill="#f4f2f8"
         fill-rule="evenodd"
         id="path7857" /><text
         fill="#7d3368"
         font-family="Calibri, Calibri_MSFontService, sans-serif"
         font-weight="400"
         font-size="15px"
         transform="translate(7.01974,275)"
         id="text7867">Data Fault<tspan
   fill="#000000"
   font-size="15px"
   x="201.16701"
   y="17"
   id="tspan7859">Corrupted Data</tspan><tspan
   fill="#000000"
   font-size="15px"
   x="201.16701"
   y="35"
   id="tspan7861">Tampered Data</tspan><tspan
   fill="#000000"
   font-size="15px"
   x="163.16701"
   y="53"
   id="tspan7863">Corrupted Policy Data</tspan><tspan
   fill="#000000"
   font-size="15px"
   x="163.16701"
   y="70"
   id="tspan7865">Tampered Policy Data</tspan></text><path
         d="M 0.0749532,-0.324797 2.51245,0.237703 C 2.5477,0.245838 2.58139,0.259653 2.6122,0.278614 L 5.0497,1.77861 C 5.07422,1.7937 5.09667,1.8119 5.11652,1.83276 l 2.4375,2.5625 c 0.01224,0.01287 0.02342,0.02668 0.03346,0.04133 l 2.3125,3.375 2.26862,4.21811 2.1993,5.0242 2.0701,5.6438 1.9429,6.2661 1.7545,6.8283 1.5655,7.2627 1.4393,7.6964 1.1895,8.0124 1.6895,16.8281 0.564,17.335 0.5625,17.3123 1.686,16.79 1.1855,7.985 1.4355,7.675 1.5607,7.241 1.7469,6.8 1.9331,6.234 2.0571,5.609 2.1799,4.981 2.2382,4.163 2.2939,3.345 -0.0793,-0.082 1.5869,1.151 -0.3915,0.54 -1.5868,-1.151 c -0.0309,-0.023 -0.0577,-0.05 -0.0793,-0.082 l -2.3311,-3.405 -2.2618,-4.212 -2.1951,-5.019 -2.0679,-5.641 -1.942,-6.266 -1.753,-6.825 -1.5643,-7.259 -1.4395,-7.7 -1.1895,-8.015 -1.689,-16.835 -0.5625,-17.3127 -0.561,-17.29 L 23.6703,58.8614 22.4848,50.8738 21.0491,43.1952 19.4896,35.9579 17.7441,29.1612 15.812,22.9273 13.7571,17.3211 11.5814,12.3453 9.35002,8.18841 7.03752,4.81341 7.07098,4.85474 4.63348,2.29224 4.7003,2.34639 2.2628,0.846386 2.36255,0.887297 -0.0749532,0.324797 Z M 47.686,178.284 l 4.8074,7.543 -8.9184,-0.68 z"
         transform="matrix(1,0,0,-1,315.5,306.327)"
         id="path7869" /><text
         font-family="Calibri, Calibri_MSFontService, sans-serif"
         font-weight="400"
         font-size="15px"
         transform="translate(740.818,82)"
         id="text7871">Consequences</text><path
         d="M 630,105.334 C 630,101.283 633.283,98 637.333,98 h 300.334 c 4.05,0 7.333,3.283 7.333,7.334 v 29.332 c 0,4.051 -3.283,7.334 -7.333,7.334 H 637.333 c -4.05,0 -7.333,-3.283 -7.333,-7.334 z"
         fill="#f4f2f8"
         fill-rule="evenodd"
         id="path7873" /><text
         fill="#7d3368"
         font-family="Calibri, Calibri_MSFontService, sans-serif"
         font-weight="400"
         font-size="15px"
         transform="translate(634.174,115)"
         id="text7877">Data Error<tspan
   fill="#000000"
   font-size="15px"
   x="228.33299"
   y="17"
   id="tspan7875">Invalid Data</tspan></text><path
         d="m 577.5,120.167 h 9.625 4.438 4 3.312 2.625 1.688 0.562 0.563 1.687 2.625 3.313 4 4.437 2.952 v 0.666 h -2.952 -4.437 -4 -3.313 -2.625 -1.687 -0.563 -0.562 -1.688 -2.625 -3.312 -4 -4.438 -9.625 z m 44.494,-3.667 7.999,4 -8,4 z"
         id="path7879" /><path
         d="m 630,177 c 0,-11.046 8.954,-20 20,-20 h 275 c 11.046,0 20,8.954 20,20 v 80 c 0,11.046 -8.954,20 -20,20 H 650 c -11.046,0 -20,-8.954 -20,-20 z"
         fill="#dfdaea"
         fill-rule="evenodd"
         id="path7881" /><text
         fill="#7d3368"
         font-family="Calibri, Calibri_MSFontService, sans-serif"
         font-weight="400"
         font-size="15px"
         transform="translate(637.864,178)"
         id="text7893">Injection Final Error<tspan
   fill="#000000"
   font-size="15px"
   x="199.66701"
   y="17"
   id="tspan7883">Query Injection</tspan><tspan
   fill="#000000"
   font-size="15px"
   x="175.16701"
   y="35"
   id="tspan7885">Command Injection</tspan><tspan
   fill="#000000"
   font-size="15px"
   x="161.83299"
   y="53"
   id="tspan7887">Source Code Injection</tspan><tspan
   fill="#000000"
   font-size="15px"
   x="173.33299"
   y="70"
   id="tspan7889">Parameter Injection</tspan><tspan
   fill="#000000"
   font-size="15px"
   x="215.66701"
   y="88"
   id="tspan7891">File Injection</tspan></text><path
         d="m 577.534,120.168 2.438,0.25 c 0.026,0.003 0.053,0.009 0.078,0.018 l 2.438,0.875 c 0.015,0.006 0.03,0.013 0.045,0.021 l 2.438,1.312 c 0.015,0.008 0.029,0.017 0.043,0.028 l 2.312,1.75 2.285,2.28 2.205,2.582 4.027,6.286 c 0.009,0.014 0.017,0.029 0.024,0.044 l 3.313,7.438 2.638,8.284 1.697,8.851 0.568,9.168 0.562,9.125 1.682,8.77 2.616,8.211 3.299,7.34 -0.024,-0.043 4,6.25 2.161,2.526 2.232,2.23 -0.065,-0.05 3.31,1.982 -0.342,0.572 -3.31,-1.982 c -0.024,-0.014 -0.045,-0.031 -0.065,-0.05 l -2.267,-2.27 -2.215,-2.599 -4,-6.25 c -0.009,-0.014 -0.017,-0.028 -0.024,-0.043 l -3.326,-7.41 -2.634,-8.289 -1.693,-8.854 -0.563,-9.125 -0.557,-9.083 -1.678,-8.774 -2.611,-8.216 -3.313,-7.437 0.024,0.044 -3.973,-6.214 -2.17,-2.543 -2.215,-2.22 -2.313,-1.75 0.044,0.028 -2.438,-1.312 0.045,0.02 -2.437,-0.875 0.079,0.018 -2.438,-0.25 z m 46.183,91.597 6.276,6.373 -8.863,1.197 z"
         id="path7895" /><text
         font-family="Calibri, Calibri_MSFontService, sans-serif"
         font-weight="400"
         font-size="15px"
         transform="translate(435.691,82)"
         id="text7897">Operations</text><rect
         x="367.5"
         y="98.500099"
         width="210"
         height="44"
         stroke="#000000"
         stroke-width="0.666667"
         stroke-linejoin="round"
         stroke-miterlimit="10"
         fill="none"
         id="rect7899" /><text
         font-family="Calibri, Calibri_MSFontService, sans-serif"
         font-weight="400"
         font-size="15px"
         transform="translate(444.274,116)"
         id="text7905">Validate<tspan
   font-size="15px"
   x="1.41336"
   y="17"
   id="tspan7901">Sanitize</tspan><tspan
   font-size="15px"
   x="-4.5"
   y="60"
   id="tspan7903">Operands</tspan></text><rect
         x="367.5"
         y="192.5"
         width="210"
         height="25"
         stroke="#000000"
         stroke-width="0.666667"
         stroke-linejoin="round"
         stroke-miterlimit="10"
         fill="none"
         id="rect7907" /><text
         font-family="Calibri, Calibri_MSFontService, sans-serif"
         font-weight="400"
         font-size="15px"
         transform="translate(454.774,211)"
         id="text7951">Data<tspan
   font-size="15px"
   x="-16"
   y="179"
   id="tspan7909">Attributes</tspan><tspan
   fill="#7d3368"
   font-size="15px"
   x="-452.67401"
   y="214"
   id="tspan7911">Mechanism</tspan><tspan
   font-size="15px"
   x="-431.67401"
   y="231"
   id="tspan7913">Safelist</tspan><tspan
   font-size="15px"
   x="-431.67401"
   y="249"
   id="tspan7915">Denylist</tspan><tspan
   font-size="15px"
   x="-431.67401"
   y="267"
   id="tspan7917">Format</tspan><tspan
   font-size="15px"
   x="-431.67401"
   y="284"
   id="tspan7919">Length</tspan><tspan
   fill="#7d3368"
   font-size="15px"
   x="-208.58"
   y="214"
   id="tspan7921">Source Code</tspan><tspan
   font-size="15px"
   x="-187.58"
   y="231"
   id="tspan7923">Codebase</tspan><tspan
   font-size="15px"
   x="-187.58"
   y="249"
   id="tspan7925">Third</tspan>-Party<tspan
   font-size="15px"
   x="-187.58"
   y="267"
   id="tspan7927">Standard Library</tspan><tspan
   font-size="15px"
   x="-187.58"
   y="284"
   id="tspan7929">Compiler/Interpreter</tspan><tspan
   fill="#7d3368"
   font-size="15px"
   x="35.514599"
   y="214"
   id="tspan7931">Execution Space</tspan><tspan
   font-size="15px"
   x="56.514599"
   y="231"
   id="tspan7933">Local</tspan><tspan
   font-size="15px"
   x="56.514599"
   y="249"
   id="tspan7935">Admin</tspan><tspan
   font-size="15px"
   x="56.514599"
   y="267"
   id="tspan7937">Bare</tspan><tspan
   font-size="15px"
   x="84.014603"
   y="267"
   id="tspan7939">-</tspan>Metal<tspan
   fill="#7d3368"
   font-size="15px"
   x="279.60901"
   y="214"
   id="tspan7941">Data State</tspan><tspan
   font-size="15px"
   x="300.60901"
   y="231"
   id="tspan7943">Entered</tspan><tspan
   font-size="15px"
   x="300.60901"
   y="249"
   id="tspan7945">Stored</tspan><tspan
   font-size="15px"
   x="300.60901"
   y="267"
   id="tspan7947">In Use</tspan><tspan
   font-size="15px"
   x="300.60901"
   y="284"
   id="tspan7949">Transferred</tspan></text><path
         d="M 0,546.167 C 0,543.866 1.86552,542 4.16675,542 H 37.8333 C 40.1345,542 42,543.866 42,546.167 v 16.666 C 42,565.134 40.1345,567 37.8333,567 H 4.16675 C 1.86552,567 0,565.134 0,562.833 Z"
         fill="#e8effc"
         fill-rule="evenodd"
         id="path7953" /><text
         font-family="Calibri, Calibri_MSFontService, sans-serif"
         font-weight="400"
         font-size="15px"
         transform="translate(44.0945,561)"
         id="text7955">Bug</text><path
         d="m 236,546.167 c 0,-2.301 1.866,-4.167 4.167,-4.167 h 33.666 c 2.301,0 4.167,1.866 4.167,4.167 v 16.666 c 0,2.301 -1.866,4.167 -4.167,4.167 H 240.167 C 237.866,567 236,565.134 236,562.833 Z"
         fill="#f4f2f8"
         fill-rule="evenodd"
         id="path7957" /><text
         font-family="Calibri, Calibri_MSFontService, sans-serif"
         font-weight="400"
         font-size="15px"
         transform="translate(280.315,561)"
         id="text7959">Fault/Error</text><path
         d="m 472,546.167 c 0,-2.301 1.866,-4.167 4.167,-4.167 h 33.666 c 2.301,0 4.167,1.866 4.167,4.167 v 16.666 c 0,2.301 -1.866,4.167 -4.167,4.167 H 476.167 C 473.866,567 472,565.134 472,562.833 Z"
         fill="#dfdaea"
         fill-rule="evenodd"
         id="path7961" /><text
         font-family="Calibri, Calibri_MSFontService, sans-serif"
         font-weight="400"
         font-size="15px"
         transform="translate(516.535,561)"
         id="text7963">Final Error</text><rect
         x="709.5"
         y="542.5"
         width="42"
         height="25"
         stroke="#000000"
         stroke-width="0.666667"
         stroke-linejoin="round"
         stroke-miterlimit="10"
         fill="none"
         id="rect7965" /><text
         font-family="Calibri, Calibri_MSFontService, sans-serif"
         font-weight="400"
         font-size="15px"
         transform="translate(752.756,561)"
         id="text7967">Operation/Operand</text></g></g></svg>
