<?xml version="1.0" encoding="UTF-8" standalone="no"?>
<!-- Created with Inkscape (http://www.inkscape.org/) -->

<svg
   width="250.03125mm"
   height="139.59415mm"
   viewBox="0 0 250.03124 139.59414"
   version="1.1"
   id="svg5"
   inkscape:export-filename="..\BF Classes\_INP\DVL.png"
   inkscape:export-xdpi="96"
   inkscape:export-ydpi="96"
   xml:space="preserve"
   inkscape:version="1.2.2 (b0a8486541, 2022-12-01)"
   sodipodi:docname="DVR.svg"
   xmlns:inkscape="http://www.inkscape.org/namespaces/inkscape"
   xmlns:sodipodi="http://sodipodi.sourceforge.net/DTD/sodipodi-0.dtd"
   xmlns="http://www.w3.org/2000/svg"
   xmlns:svg="http://www.w3.org/2000/svg"><sodipodi:namedview
     id="namedview7"
     pagecolor="#ffffff"
     bordercolor="#000000"
     borderopacity="0.25"
     inkscape:showpageshadow="2"
     inkscape:pageopacity="0.0"
     inkscape:pagecheckerboard="0"
     inkscape:deskcolor="#d1d1d1"
     inkscape:document-units="mm"
     showgrid="false"
     inkscape:zoom="0.914906"
     inkscape:cx="570.55041"
     inkscape:cy="-114.21938"
     inkscape:window-width="1350"
     inkscape:window-height="1230"
     inkscape:window-x="266"
     inkscape:window-y="1127"
     inkscape:window-maximized="0"
     inkscape:current-layer="layer1" /><defs
     id="defs2"><clipPath
       id="clip0"><rect
         x="-25"
         y="0"
         width="785"
         height="1091"
         id="rect9" /></clipPath><clipPath
       id="clip0-8"><rect
         x="-25"
         y="0"
         width="785"
         height="524"
         id="rect520" /></clipPath><clipPath
       id="clip0-3"><rect
         x="-25"
         y="0"
         width="785"
         height="1091"
         id="rect699" /></clipPath><clipPath
       id="clip0-0"><rect
         x="-25"
         y="0"
         width="785"
         height="1091"
         id="rect1109" /></clipPath><clipPath
       id="clip0-4"><rect
         x="-25"
         y="0"
         width="934"
         height="905"
         id="rect1519" /></clipPath><clipPath
       id="clip0-42"><rect
         x="-7"
         y="0"
         width="952"
         height="590"
         id="rect1929" /></clipPath><clipPath
       id="clip0-1"><rect
         x="-25"
         y="0"
         width="785"
         height="1091"
         id="rect2197" /></clipPath><clipPath
       id="clip0-6"><rect
         x="-25"
         y="0"
         width="785"
         height="1091"
         id="rect2806" /></clipPath><clipPath
       id="clip0-66"><rect
         x="11"
         y="-21"
         width="934"
         height="904"
         id="rect3369" /></clipPath><clipPath
       id="clip0-41"><rect
         x="-7"
         y="0"
         width="743"
         height="335"
         id="rect3934" /></clipPath><clipPath
       id="clip0-7"><rect
         x="-7"
         y="0"
         width="743"
         height="335"
         id="rect4109" /></clipPath><clipPath
       id="clip0-9"><rect
         x="-25"
         y="0"
         width="785"
         height="524"
         id="rect4320" /></clipPath><clipPath
       id="clip0-96"><rect
         x="-25"
         y="0"
         width="785"
         height="713"
         id="rect4583" /></clipPath><clipPath
       id="clip0-08"><rect
         x="144"
         y="424"
         width="837"
         height="501"
         id="rect4932" /></clipPath><clipPath
       id="clip0-87"><rect
         x="144"
         y="424"
         width="837"
         height="501"
         id="rect5261" /></clipPath><clipPath
       id="clip0-68"><rect
         x="201"
         y="68"
         width="837"
         height="501"
         id="rect5590" /></clipPath><clipPath
       id="clip0-69"><rect
         x="212"
         y="141"
         width="635"
         height="281"
         id="rect6057" /></clipPath><clipPath
       id="clip0-44"><rect
         x="75"
         y="7"
         width="780"
         height="757"
         id="rect6214" /></clipPath><clipPath
       id="clip0-38"><rect
         x="75"
         y="8"
         width="780"
         height="752"
         id="rect6713" /></clipPath><clipPath
       id="clip0-080"><rect
         x="62"
         y="92"
         width="671"
         height="543"
         id="rect7166" /></clipPath><clipPath
       id="clip0-48"><rect
         x="678"
         y="67"
         width="591"
         height="294"
         id="rect7433" /></clipPath><clipPath
       id="clip0-00"><rect
         x="-7"
         y="0"
         width="952"
         height="574"
         id="rect7818" /></clipPath><clipPath
       id="clip0-2"><rect
         x="-7"
         y="0"
         width="952"
         height="543"
         id="rect8173" /></clipPath></defs><g
     inkscape:label="Layer 1"
     inkscape:groupmode="layer"
     id="layer1"
     transform="translate(46.967558,-270.47313)"><g
       clip-path="url(#clip0-2)"
       transform="matrix(0.26458333,0,0,0.26458333,-46.967558,268.29471)"
       id="g8314"><text
         fill="#7d3368"
         font-family="Calibri, Calibri_MSFontService, sans-serif"
         font-weight="400"
         font-size="15px"
         transform="translate(357.68,19)"
         id="text8182">Input/Output Check (_INP) BF Cluster<tspan
   fill="#000000"
   font-size="15px"
   x="16.8333"
   y="35"
   id="tspan8178">Data Verification (DVR) BF Class</tspan><tspan
   fill="#000000"
   font-size="15px"
   x="-224.533"
   y="63"
   id="tspan8180">Causes</tspan></text><path
         d="M 0,108.5 C 0,102.701 4.70116,98 10.5003,98 H 304.5 c 5.799,0 10.5,4.701 10.5,10.5 v 42 c 0,5.799 -4.701,10.5 -10.5,10.5 H 10.5003 C 4.70116,161 0,156.299 0,150.5 Z"
         fill="#e8effc"
         fill-rule="evenodd"
         id="path8184" /><text
         fill="#7d3368"
         font-family="Calibri, Calibri_MSFontService, sans-serif"
         font-weight="400"
         font-size="15px"
         transform="translate(5.1748,116)"
         id="text8190">Code Defect Bug<tspan
   fill="#000000"
   font-size="15px"
   x="218.16701"
   y="17"
   id="tspan8186">Missing Code</tspan><tspan
   fill="#000000"
   font-size="15px"
   x="202"
   y="35"
   id="tspan8188">Erroneous Code</tspan></text><path
         d="m 0.0151359,-0.332989 9.6250041,0.4375 4.45506,0.438764 4.0188,0.627385 3.3287,0.69046 2.6559,0.82045 c 0.0189,0.00586 0.0373,0.01339 0.0548,0.02251 l 1.6875,0.875 c 0.0517,0.02681 0.0955,0.06669 0.127,0.11567 l 0.5625,0.875 0.5625,0.875 -0.127,-0.11567 1.6875,0.875 -0.0548,-0.02251 2.625,0.8125 3.2816,0.67955 3.9838,0.62204 4.4187,0.43511 2.9378,0.11744 L 45.8188,9.51434 42.8423,9.39422 38.386,8.95434 34.3698,8.32638 31.0264,7.63093 28.4014,6.81843 C 28.3825,6.81257 28.3641,6.80504 28.3466,6.79592 l -1.6875,-0.875 C 26.6074,5.89411 26.5636,5.85423 26.5321,5.80525 l -0.5625,-0.875 -0.5625,-0.875 0.127,0.11567 -1.6875,-0.875 0.0548,0.02251 L 21.3073,2.51388 18.011,1.82934 14.0298,1.20673 9.60986,0.770489 -0.0151359,0.332989 Z M 44.6604,5.13098 l 7.833,4.31784 -8.154,3.67568 z"
         transform="matrix(1,0,0,-1,315.5,129.949)"
         id="path8192" /><path
         d="M 0,186.5 C 0,180.701 4.70116,176 10.5003,176 H 304.5 c 5.799,0 10.5,4.701 10.5,10.5 v 42 c 0,5.799 -4.701,10.5 -10.5,10.5 H 10.5003 C 4.70116,239 0,234.299 0,228.5 Z"
         fill="#e8effc"
         fill-rule="evenodd"
         id="path8194" /><text
         fill="#7d3368"
         font-family="Calibri, Calibri_MSFontService, sans-serif"
         font-weight="400"
         font-size="15px"
         transform="translate(5.1748,195)"
         id="text8208">Specification Defect Bug<tspan
   fill="#000000"
   font-size="15px"
   x="154.66701"
   y="17"
   id="tspan8196">Under</tspan><tspan
   fill="#000000"
   font-size="15px"
   x="191.83299"
   y="17"
   id="tspan8198">-</tspan><tspan
   fill="#000000"
   font-size="15px"
   x="196.33299"
   y="17"
   id="tspan8200">Restrictive Policy</tspan><tspan
   fill="#000000"
   font-size="15px"
   x="163"
   y="35"
   id="tspan8202">Over</tspan><tspan
   fill="#000000"
   font-size="15px"
   x="191.83299"
   y="35"
   id="tspan8204">-</tspan><tspan
   fill="#000000"
   font-size="15px"
   x="196.33299"
   y="35"
   id="tspan8206">Restrictive Policy</tspan></text><path
         d="M 0.0340096,-0.331594 2.47151,-0.0815938 c 0.02173,0.0022287 0.04314,0.006577 0.06402,0.0130008 l 2.4375,0.75 c 0.01647,0.005069 0.03246,0.01138 0.04796,0.01893 l 2.4375,1.187503 c 0.01589,0.00774 0.0312,0.01677 0.04566,0.02693 l 2.3125,1.625 2.27985,2.02359 2.2082,2.33257 c 0.011,0.01169 0.0212,0.02415 0.0305,0.03731 l 4,5.68746 c 0.0095,0.0136 0.018,0.0279 0.0254,0.0427 l 3.3125,6.625 2.6415,7.539 1.6989,7.9783 0.5691,8.2966 0.5625,8.25 1.6809,7.8909 2.6133,7.3959 3.2969,6.6504 -0.0271,-0.0452 4,5.625 2.1611,2.3424 2.2223,1.9107 -0.0564,-0.0392 3.2627,1.8019 -0.3223,0.5836 -3.2626,-1.8019 c -0.0201,-0.0111 -0.039,-0.0242 -0.0564,-0.0392 l -2.2777,-1.9643 -2.214,-2.4076 -4,-5.625 c -0.0101,-0.0144 -0.0192,-0.0295 -0.027,-0.0453 l -3.3281,-6.7245 -2.6367,-7.4791 -1.6941,-7.9841 -0.5625,-8.25 -0.5559,-8.2034 -1.6761,-7.8967 -2.6085,-7.461 -3.3125,-6.625 0.0254,0.0427 -4,-5.68754 0.0305,0.03731 -2.1668,-2.29243 -2.22015,-1.97641 -2.3125,-1.625 0.04566,0.02693 -2.4375,-1.1875 0.04796,0.01893 -2.4375,-0.749997 0.06402,0.013001 -2.4374996,-0.25 z M 46.0738,81.961 l 6.4196,6.228 -8.8342,1.3989 z"
         transform="matrix(1,0,0,-1,315.5,208.689)"
         id="path8210" /><path
         d="M 0,262.333 C 0,258.283 3.2833,255 7.33346,255 H 307.667 c 4.05,0 7.333,3.283 7.333,7.333 v 29.334 c 0,4.05 -3.283,7.333 -7.333,7.333 H 7.33346 C 3.2833,299 0,295.717 0,291.667 Z"
         fill="#f4f2f8"
         fill-rule="evenodd"
         id="path8212" /><text
         fill="#7d3368"
         font-family="Calibri, Calibri_MSFontService, sans-serif"
         font-weight="400"
         font-size="15px"
         transform="translate(4.25228,272)"
         id="text8216">Data Fault<tspan
   fill="#000000"
   font-size="15px"
   x="228.33299"
   y="17"
   id="tspan8214">Invalid Data</tspan></text><path
         d="m 0.058888,-0.32809 2.437502,0.4375 c 0.03467,0.006222 0.06813,0.0179 0.09914,0.0346 l 2.4375,1.3125 c 0.02185,0.01177 0.04231,0.02592 0.06102,0.04223 l 2.4375,2.125 c 0.01477,0.01288 0.0284,0.02707 0.04069,0.04234 l 2.3125,2.875 2.27206,3.59342 2.2021,4.2755 2.0719,4.7697 1.9449,5.3311 1.7557,5.7671 1.5666,6.1397 2.629,13.3304 1.6915,14.2753 0.5646,14.7139 0.5625,14.6875 1.6854,14.2233 2.621,13.288 1.5585,6.107 1.7459,5.735 1.9318,5.295 2.0551,4.732 2.1781,4.23 2.2354,3.537 2.2904,2.844 -0.0947,-0.081 1.3861,0.79 -0.33,0.579 -1.3861,-0.789 c -0.0363,-0.021 -0.0685,-0.048 -0.0947,-0.081 l -2.3346,-2.906 -2.2646,-3.588 -2.1969,-4.27 -2.0699,-4.768 -1.9432,-5.33 -1.7541,-5.765 L 30.798,121.064 28.169,107.727 26.4794,93.4503 25.9169,78.7628 25.3565,64.1017 23.673,49.877 21.052,36.5824 19.4936,30.4721 17.7493,24.7392 15.8192,19.4453 13.7661,14.715 11.5932,10.4905 9.36526,6.95892 l -2.3125,-2.875 0.04069,0.04234 -2.4375,-2.125 0.06102,0.04223 -2.4375,-1.3125 0.09914,0.0346 -2.437498,-0.4375 z M 47.2292,150.249 l 5.2642,7.231 -8.9433,-0.127 z"
         transform="matrix(1,0,0,-1,315.5,277.98)"
         id="path8218" /><text
         font-family="Calibri, Calibri_MSFontService, sans-serif"
         font-weight="400"
         font-size="15px"
         transform="translate(740.818,82)"
         id="text8220">Consequences</text><path
         d="m 630,108.5 c 0,-5.799 4.701,-10.5 10.5,-10.5 h 294 c 5.799,0 10.5,4.701 10.5,10.5 v 42 c 0,5.799 -4.701,10.5 -10.5,10.5 h -294 c -5.799,0 -10.5,-4.701 -10.5,-10.5 z"
         fill="#f4f2f8"
         fill-rule="evenodd"
         id="path8222" /><text
         fill="#7d3368"
         font-family="Calibri, Calibri_MSFontService, sans-serif"
         font-weight="400"
         font-size="15px"
         transform="translate(635.096,116)"
         id="text8228">Data Error<tspan
   fill="#000000"
   font-size="15px"
   x="219.66701"
   y="17"
   id="tspan8224">Wrong Value</tspan><tspan
   fill="#000000"
   font-size="15px"
   x="187.83299"
   y="35"
   id="tspan8226">Inconsistent Value</tspan></text><path
         d="m 577.515,120.167 9.625,0.438 4.455,0.438 4.019,0.628 3.329,0.69 2.656,0.821 c 0.019,0.005 0.037,0.013 0.055,0.022 l 1.687,0.875 c 0.052,0.027 0.095,0.067 0.127,0.116 l 0.562,0.875 0.563,0.875 -0.127,-0.116 1.688,0.875 -0.055,-0.022 2.625,0.812 3.281,0.68 3.984,0.622 4.419,0.435 2.938,0.117 -0.027,0.666 -2.977,-0.12 -4.456,-0.44 -4.016,-0.628 -3.344,-0.695 -2.625,-0.813 c -0.018,-0.005 -0.037,-0.013 -0.054,-0.022 l -1.688,-0.875 c -0.052,-0.027 -0.095,-0.067 -0.127,-0.116 l -0.562,-0.875 -0.563,-0.875 0.127,0.116 -1.687,-0.875 0.054,0.022 -2.594,-0.804 -3.296,-0.685 -3.981,-0.622 -4.42,-0.436 -9.625,-0.438 z m 44.645,5.464 7.833,4.318 -8.154,3.676 z"
         id="path8230" /><path
         d="m 630,183.334 c 0,-4.051 3.283,-7.334 7.333,-7.334 h 300.334 c 4.05,0 7.333,3.283 7.333,7.334 v 29.332 c 0,4.051 -3.283,7.334 -7.333,7.334 H 637.333 c -4.05,0 -7.333,-3.283 -7.333,-7.334 z"
         fill="#f4f2f8"
         fill-rule="evenodd"
         id="path8232" /><text
         fill="#7d3368"
         font-family="Calibri, Calibri_MSFontService, sans-serif"
         font-weight="400"
         font-size="15px"
         transform="translate(634.174,194)"
         id="text8236">Type Error<tspan
   fill="#000000"
   font-size="15px"
   x="226.33299"
   y="17"
   id="tspan8234">Wrong Type</tspan></text><path
         d="m 577.534,120.168 2.438,0.25 c 0.016,0.002 0.032,0.005 0.048,0.009 l 2.438,0.625 c 0.017,0.005 0.034,0.01 0.05,0.017 l 2.438,1.063 c 0.015,0.006 0.029,0.014 0.043,0.022 l 2.312,1.438 c 0.015,0.009 0.03,0.02 0.043,0.032 l 4.438,3.875 c 0.015,0.013 0.029,0.028 0.042,0.044 l 4,5.063 c 0.011,0.014 0.021,0.029 0.03,0.044 l 3.312,5.938 2.644,6.728 1.702,7.107 c 0.004,0.017 0.007,0.034 0.008,0.052 l 0.562,7.375 0.563,7.375 -0.008,-0.052 1.687,7.062 2.611,6.643 3.294,5.897 -0.03,-0.044 4,5.062 -0.042,-0.044 4.437,3.875 -0.073,-0.049 3.202,1.555 -0.291,0.6 -3.203,-1.555 c -0.026,-0.013 -0.051,-0.029 -0.073,-0.049 l -4.438,-3.875 c -0.015,-0.013 -0.029,-0.028 -0.042,-0.044 l -4,-5.063 c -0.011,-0.014 -0.021,-0.029 -0.03,-0.044 l -3.331,-5.978 -2.639,-6.732 -1.688,-7.062 c -0.004,-0.018 -0.006,-0.035 -0.008,-0.053 l -0.562,-7.375 -0.563,-7.375 0.008,0.053 -1.673,-7.019 -2.606,-6.647 -3.313,-5.937 0.03,0.044 -4,-5.062 0.042,0.044 -4.437,-3.875 0.043,0.032 -2.312,-1.437 0.042,0.022 -2.437,-1.062 0.05,0.017 -2.437,-0.625 0.049,0.009 -2.438,-0.25 z m 45.846,73.05 6.613,6.022 -8.785,1.678 z"
         id="path8238" /><text
         font-family="Calibri, Calibri_MSFontService, sans-serif"
         font-weight="400"
         font-size="15px"
         transform="translate(435.691,82)"
         id="text8240">Operations</text><rect
         x="367.5"
         y="98.500099"
         width="210"
         height="44"
         stroke="#000000"
         stroke-width="0.666667"
         stroke-linejoin="round"
         stroke-miterlimit="10"
         fill="none"
         id="rect8242" /><text
         font-family="Calibri, Calibri_MSFontService, sans-serif"
         font-weight="400"
         font-size="15px"
         transform="translate(451.021,116)"
         id="text8248">Verify<tspan
   font-size="15px"
   x="-4.4133301"
   y="17"
   id="tspan8244">Correct</tspan><tspan
   font-size="15px"
   x="-11.2467"
   y="60"
   id="tspan8246">Operands</tspan></text><rect
         x="367.5"
         y="192.5"
         width="210"
         height="25"
         stroke="#000000"
         stroke-width="0.666667"
         stroke-linejoin="round"
         stroke-miterlimit="10"
         fill="none"
         id="rect8250" /><text
         font-family="Calibri, Calibri_MSFontService, sans-serif"
         font-weight="400"
         font-size="15px"
         transform="translate(454.774,211)"
         id="text8296">Data<tspan
   font-size="15px"
   x="-16"
   y="123"
   id="tspan8252">Attributes</tspan><tspan
   fill="#7d3368"
   font-size="15px"
   x="-452.67401"
   y="157"
   id="tspan8254">Mechanism</tspan><tspan
   font-size="15px"
   x="-431.67401"
   y="174"
   id="tspan8256">Value</tspan><tspan
   font-size="15px"
   x="-431.67401"
   y="192"
   id="tspan8258">Quantity</tspan><tspan
   font-size="15px"
   x="-431.67401"
   y="210"
   id="tspan8260">Range</tspan><tspan
   font-size="15px"
   x="-431.67401"
   y="227"
   id="tspan8262">Data Type</tspan><tspan
   font-size="15px"
   x="-431.67401"
   y="245"
   id="tspan8264">Other Rules</tspan><tspan
   fill="#7d3368"
   font-size="15px"
   x="-208.58"
   y="157"
   id="tspan8266">Source Code</tspan><tspan
   font-size="15px"
   x="-187.58"
   y="174"
   id="tspan8268">Codebase</tspan><tspan
   font-size="15px"
   x="-187.58"
   y="192"
   id="tspan8270">Third</tspan>-Party<tspan
   font-size="15px"
   x="-187.58"
   y="210"
   id="tspan8272">Standard Library</tspan><tspan
   font-size="15px"
   x="-187.58"
   y="227"
   id="tspan8274">Compiler/Interpreter</tspan><tspan
   fill="#7d3368"
   font-size="15px"
   x="35.514599"
   y="157"
   id="tspan8276">Execution Space</tspan><tspan
   font-size="15px"
   x="56.514599"
   y="174"
   id="tspan8278">Local</tspan><tspan
   font-size="15px"
   x="56.514599"
   y="192"
   id="tspan8280">Admin</tspan><tspan
   font-size="15px"
   x="56.514599"
   y="210"
   id="tspan8282">Bare</tspan><tspan
   font-size="15px"
   x="84.014603"
   y="210"
   id="tspan8284">-</tspan>Metal<tspan
   fill="#7d3368"
   font-size="15px"
   x="279.60901"
   y="157"
   id="tspan8286">Data State</tspan><tspan
   font-size="15px"
   x="300.60901"
   y="174"
   id="tspan8288">Entered</tspan><tspan
   font-size="15px"
   x="300.60901"
   y="192"
   id="tspan8290">Stored</tspan><tspan
   font-size="15px"
   x="300.60901"
   y="210"
   id="tspan8292">In Use</tspan><tspan
   font-size="15px"
   x="300.60901"
   y="227"
   id="tspan8294">Transferred</tspan></text><path
         d="M 0,514.167 C 0,511.866 1.86552,510 4.16675,510 H 37.8333 C 40.1345,510 42,511.866 42,514.167 v 16.666 C 42,533.134 40.1345,535 37.8333,535 H 4.16675 C 1.86552,535 0,533.134 0,530.833 Z"
         fill="#e8effc"
         fill-rule="evenodd"
         id="path8298" /><text
         font-family="Calibri, Calibri_MSFontService, sans-serif"
         font-weight="400"
         font-size="15px"
         transform="translate(44.0945,529)"
         id="text8300">Bug</text><path
         d="m 236,514.167 c 0,-2.301 1.866,-4.167 4.167,-4.167 h 33.666 c 2.301,0 4.167,1.866 4.167,4.167 v 16.666 c 0,2.301 -1.866,4.167 -4.167,4.167 H 240.167 C 237.866,535 236,533.134 236,530.833 Z"
         fill="#f4f2f8"
         fill-rule="evenodd"
         id="path8302" /><text
         font-family="Calibri, Calibri_MSFontService, sans-serif"
         font-weight="400"
         font-size="15px"
         transform="translate(280.315,529)"
         id="text8304">Fault/Error</text><path
         d="m 472,514.167 c 0,-2.301 1.866,-4.167 4.167,-4.167 h 33.666 c 2.301,0 4.167,1.866 4.167,4.167 v 16.666 c 0,2.301 -1.866,4.167 -4.167,4.167 H 476.167 C 473.866,535 472,533.134 472,530.833 Z"
         fill="#dfdaea"
         fill-rule="evenodd"
         id="path8306" /><text
         font-family="Calibri, Calibri_MSFontService, sans-serif"
         font-weight="400"
         font-size="15px"
         transform="translate(516.535,529)"
         id="text8308">Final Error</text><rect
         x="709.5"
         y="510.5"
         width="42"
         height="25"
         stroke="#000000"
         stroke-width="0.666667"
         stroke-linejoin="round"
         stroke-miterlimit="10"
         fill="none"
         id="rect8310" /><text
         font-family="Calibri, Calibri_MSFontService, sans-serif"
         font-weight="400"
         font-size="15px"
         transform="translate(752.756,529)"
         id="text8312">Operation/Operand</text></g></g></svg>
