<?xml version="1.0" encoding="UTF-8" standalone="no"?>
<!-- Created with Inkscape (http://www.inkscape.org/) -->

<svg
   width="277.8125mm"
   height="157.6911mm"
   viewBox="0 0 277.8125 157.6911"
   version="1.1"
   id="svg1"
   inkscape:version="1.3.2 (091e20e, 2023-11-25, custom)"
   sodipodi:docname="DVR.svg"
   xmlns:inkscape="http://www.inkscape.org/namespaces/inkscape"
   xmlns:sodipodi="http://sodipodi.sourceforge.net/DTD/sodipodi-0.dtd"
   xmlns="http://www.w3.org/2000/svg"
   xmlns:svg="http://www.w3.org/2000/svg">
  <sodipodi:namedview
     id="namedview1"
     pagecolor="#ffffff"
     bordercolor="#000000"
     borderopacity="0.25"
     inkscape:showpageshadow="2"
     inkscape:pageopacity="0.0"
     inkscape:pagecheckerboard="0"
     inkscape:deskcolor="#d1d1d1"
     inkscape:document-units="mm"
     inkscape:zoom="1.0146815"
     inkscape:cx="524.7952"
     inkscape:cy="298.12309"
     inkscape:window-width="2560"
     inkscape:window-height="1377"
     inkscape:window-x="-8"
     inkscape:window-y="859"
     inkscape:window-maximized="1"
     inkscape:current-layer="layer1" />
  <defs
     id="defs1" />
  <g
     inkscape:label="Layer 1"
     inkscape:groupmode="layer"
     id="layer1"
     transform="translate(33.866667,-69.54188)">
    <g
       transform="matrix(0.26458333,0,0,0.26458333,-33.866667,67.204167)"
       id="g57">
      <text
         font-family="Calibri, Calibri_MSFontService, sans-serif"
         font-weight="400"
         font-size="19px"
         transform="translate(441.086,22)"
         id="text1">Bugs Framework (BF)</text>
      <text
         font-family="Calibri, Calibri_MSFontService, sans-serif"
         font-weight="400"
         font-size="16px"
         transform="translate(399.213,65)"
         id="text2">Input/Output Check (_INP) Class Type</text>
      <text
         fill="#660066"
         font-family="Calibri, Calibri_MSFontService, sans-serif"
         font-weight="400"
         font-size="16px"
         transform="translate(428.9,84)"
         id="text3">Data Verification (DVR) Class</text>
      <text
         font-family="Calibri, Calibri_MSFontService, sans-serif"
         font-weight="400"
         font-size="16px"
         transform="translate(148.645,115)"
         id="text4">Causes</text>
      <path
         d="M 0,143.667 C 0,137.224 5.22352,132 11.667,132 h 326.666 c 6.443,0 11.667,5.224 11.667,11.667 v 46.666 C 350,196.776 344.776,202 338.333,202 H 11.667 C 5.22352,202 0,196.776 0,190.333 Z"
         fill="#e8effc"
         fill-rule="evenodd"
         id="path4" />
      <text
         font-family="Calibri, Calibri_MSFontService, sans-serif"
         font-weight="400"
         font-size="16px"
         transform="translate(5.48231,152)"
         id="text5">Code Bug</text>
      <text
         fill="#660066"
         font-family="Calibri, Calibri_MSFontService, sans-serif"
         font-weight="400"
         font-size="16px"
         transform="translate(250.316,171)"
         id="text6">Missing Code</text>
      <text
         fill="#660066"
         font-family="Calibri, Calibri_MSFontService, sans-serif"
         font-weight="400"
         font-size="16px"
         transform="translate(233.242,190)"
         id="text7">Erroneous Code</text>
      <path
         d="M 0.0140301,-0.333038 10.7223,0.118078 l 4.9478,0.519287 4.4296,0.673515 3.7501,0.7981 2.9052,0.89433 c 0.0185,0.00572 0.0365,0.01303 0.0538,0.02187 l 1.8511,0.94837 c 0.0505,0.02586 0.0936,0.06418 0.1251,0.11132 L 29.44,5.064 30.0951,6.04312 29.97,5.9318 31.8212,6.88017 31.7674,6.8583 l 2.8764,0.88685 3.7021,0.7871 4.395,0.66802 4.9116,0.51579 4.0268,0.16899 -0.0281,0.66605 -4.0683,-0.172 L 42.6406,9.85936 38.207,9.18429 34.4474,8.38223 31.571,7.49537 C 31.5525,7.48966 31.5345,7.48234 31.5172,7.4735 L 29.666,6.52514 C 29.6156,6.49927 29.5725,6.46096 29.541,6.41382 L 28.8859,5.43469 28.2309,4.45556 28.356,4.56689 26.5048,3.61852 26.5586,3.64039 23.7109,2.76102 19.9994,1.96996 15.6004,1.30038 10.6943,0.784153 -0.0140301,0.333038 Z M 50.5014,6.16551 58.326,10.4987 50.1647,14.1584 Z"
         transform="matrix(1,0,0,-1,350.5,166.999)"
         id="path7" />
      <path
         d="M 0,228.667 C 0,222.224 5.22352,217 11.667,217 h 326.666 c 6.443,0 11.667,5.224 11.667,11.667 v 46.666 C 350,281.776 344.776,287 338.333,287 H 11.667 C 5.22352,287 0,281.776 0,275.333 Z"
         fill="#e8effc"
         fill-rule="evenodd"
         id="path8" />
      <text
         font-family="Calibri, Calibri_MSFontService, sans-serif"
         font-weight="400"
         font-size="16px"
         transform="translate(5.48231,237)"
         id="text8">Specification Bug</text>
      <text
         fill="#660066"
         font-family="Calibri, Calibri_MSFontService, sans-serif"
         font-weight="400"
         font-size="16px"
         transform="translate(182.082,256)"
         id="text9">Under</text>
      <text
         fill="#660066"
         font-family="Calibri, Calibri_MSFontService, sans-serif"
         font-weight="400"
         font-size="16px"
         transform="translate(222.582,256)"
         id="text10">-</text>
      <text
         fill="#660066"
         font-family="Calibri, Calibri_MSFontService, sans-serif"
         font-weight="400"
         font-size="16px"
         transform="translate(227.416,256)"
         id="text11">Restrictive Policy</text>
      <text
         fill="#660066"
         font-family="Calibri, Calibri_MSFontService, sans-serif"
         font-weight="400"
         font-size="16px"
         transform="translate(191.402,275)"
         id="text12">Over</text>
      <text
         fill="#660066"
         font-family="Calibri, Calibri_MSFontService, sans-serif"
         font-weight="400"
         font-size="16px"
         transform="translate(222.582,275)"
         id="text13">-</text>
      <text
         fill="#660066"
         font-family="Calibri, Calibri_MSFontService, sans-serif"
         font-weight="400"
         font-size="16px"
         transform="translate(227.416,275)"
         id="text14">Restrictive Policy</text>
      <path
         d="M 0.0332904,-0.331667 2.76376,-0.0576013 c 0.02067,0.0020753 0.04106,0.0060674 0.06099,0.0119446 L 5.53386,0.753215 c 0.01743,0.005141 0.0344,0.011693 0.05077,0.019603 l 2.66639,1.288692 2.64278,1.76672 2.5486,2.1875 2.435,2.57197 4.4424,6.1449 c 0.0097,0.0135 0.0184,0.0276 0.026,0.0424 l 3.7308,7.2306 2.8942,8.1113 1.8631,8.6722 0.6616,8.9555 0.655,8.91 1.8446,8.5847 2.8645,8.0284 3.7131,7.1897 -0.026,-0.0424 4.4143,6.1111 2.382,2.5144 2.492,2.1396 2.5706,1.7194 -0.0812,-0.0396 1.6883,0.5566 -0.2088,0.6331 -1.6882,-0.5566 C 50.0869,93.4835 50.0596,93.4702 50.0345,93.4534 L 47.4004,91.6857 44.8587,89.4986 42.4206,86.9165 38.0063,80.8054 C 37.9965,80.792 37.9878,80.7778 37.9802,80.7631 l -3.7485,-7.2716 -2.8884,-8.1124 -1.8577,-8.6756 -0.655,-8.91 -0.6485,-8.8646 -1.8392,-8.5882 -2.8587,-8.0294 -3.7309,-7.2306 0.0261,0.0423 L 15.3931,9.04579 13.0079,6.5213 10.5227,4.38208 7.96092,2.66175 5.29453,1.37306 5.3453,1.39266 2.63619,0.593788 2.69718,0.605732 -0.0332904,0.331667 Z M 51.7078,89.5215 l 6.6182,6.0166 -8.7842,1.6845 z"
         transform="matrix(1,0,0,-1,350.5,252.038)"
         id="path14" />
      <path
         d="M 0,310.167 C 0,305.656 3.65634,302 8.16667,302 H 341.833 c 4.511,0 8.167,3.656 8.167,8.167 v 32.666 c 0,4.511 -3.656,8.167 -8.167,8.167 H 8.16667 C 3.65634,351 0,347.344 0,342.833 Z"
         fill="#f4f2f8"
         fill-rule="evenodd"
         id="path15" />
      <text
         font-family="Calibri, Calibri_MSFontService, sans-serif"
         font-weight="400"
         font-size="16px"
         transform="translate(4.45722,321)"
         id="text15">Data Fault</text>
      <text
         fill="#660066"
         font-family="Calibri, Calibri_MSFontService, sans-serif"
         font-weight="400"
         font-size="16px"
         transform="translate(261.797,340)"
         id="text16">Invalid Data</text>
      <path
         d="M 0.0586331,-0.328136 2.78911,0.159761 c 0.0336,0.006004 0.06608,0.017132 0.0963,0.032998 L 5.59453,1.61493 C 5.6169,1.62667 5.63785,1.64091 5.657,1.65738 l 2.6664,2.29416 c 0.0137,0.01178 0.02642,0.02467 0.03803,0.03852 l 2.60237,3.10385 2.5404,3.88309 2.4255,4.5624 2.2924,5.1808 2.1399,5.7382 1.967,6.2342 1.7736,6.6687 2.8811,14.3872 1.8553,15.3892 0.6571,15.8879 0.6551,15.8614 1.849,15.338 2.8723,14.341 1.7646,6.634 1.9572,6.204 2.1269,5.703 2.2744,5.141 2.3996,4.515 2.5015,3.825 2.5787,3.072 -0.0758,-0.066 2.0882,1.335 -0.3591,0.561 -2.0882,-1.335 c -0.0286,-0.018 -0.0542,-0.04 -0.0759,-0.066 l -2.6259,-3.136 -2.5322,-3.877 -2.4206,-4.558 -2.2894,-5.178 -2.1379,-5.736 -1.9658,-6.232 -1.774,-6.675 -2.8805,-14.392 -1.8532,-15.39 L 28.83,85.0531 28.1771,69.2174 26.33,53.8794 23.4583,39.5326 21.6933,32.8932 19.7373,26.6912 17.6124,20.9898 15.3409,15.8521 12.9462,11.3417 10.4529,7.52223 7.85056,4.41838 7.88859,4.4569 5.22219,2.16274 5.28466,2.2052 2.57554,0.783035 2.67185,0.816033 -0.0586331,0.328136 Z M 52.8262,163.025 l 5.4998,7.054 -8.9427,0.167 z"
         transform="matrix(1,0,0,-1,350.5,326.579)"
         id="path16" />
      <text
         font-family="Calibri, Calibri_MSFontService, sans-serif"
         font-weight="400"
         font-size="16px"
         transform="translate(824.224,115)"
         id="text17">Consequences</text>
      <path
         d="M 700,143.667 C 700,137.224 705.224,132 711.667,132 h 326.663 c 6.45,0 11.67,5.224 11.67,11.667 v 46.666 c 0,6.443 -5.22,11.667 -11.67,11.667 H 711.667 C 705.224,202 700,196.776 700,190.333 Z"
         fill="#f4f2f8"
         fill-rule="evenodd"
         id="path17" />
      <text
         font-family="Calibri, Calibri_MSFontService, sans-serif"
         font-weight="400"
         font-size="16px"
         transform="translate(705.395,152)"
         id="text18">Data Error</text>
      <text
         fill="#660066"
         font-family="Calibri, Calibri_MSFontService, sans-serif"
         font-weight="400"
         font-size="16px"
         transform="translate(954.015,171)"
         id="text19">Wrong Value</text>
      <text
         fill="#660066"
         font-family="Calibri, Calibri_MSFontService, sans-serif"
         font-weight="400"
         font-size="16px"
         transform="translate(918.588,190)"
         id="text20">Inconsistent Value</text>
      <path
         d="m 642.514,156.167 10.708,0.451 4.948,0.519 4.43,0.674 3.75,0.798 2.905,0.894 c 0.019,0.006 0.037,0.013 0.054,0.022 l 1.851,0.949 c 0.051,0.025 0.094,0.064 0.125,0.111 l 0.655,0.979 0.655,0.979 -0.125,-0.111 1.851,0.948 -0.053,-0.022 2.876,0.887 3.702,0.787 4.395,0.668 4.912,0.516 4.026,0.169 -0.028,0.666 -4.068,-0.172 -4.942,-0.52 -4.434,-0.675 -3.759,-0.802 -2.877,-0.887 c -0.018,-0.005 -0.036,-0.013 -0.054,-0.021 l -1.851,-0.949 c -0.05,-0.026 -0.093,-0.064 -0.125,-0.111 l -0.655,-0.979 -0.655,-0.979 0.125,0.111 -1.851,-0.948 0.054,0.021 -2.848,-0.879 -3.711,-0.791 -4.4,-0.67 -4.906,-0.516 -10.708,-0.451 z m 50.488,6.499 7.824,4.333 -8.161,3.66 z"
         id="path20" />
      <path
         d="m 700,225.167 c 0,-4.511 3.656,-8.167 8.167,-8.167 h 333.663 c 4.51,0 8.17,3.656 8.17,8.167 v 32.666 c 0,4.511 -3.66,8.167 -8.17,8.167 H 708.167 C 703.656,266 700,262.344 700,257.833 Z"
         fill="#f4f2f8"
         fill-rule="evenodd"
         id="path21" />
      <text
         font-family="Calibri, Calibri_MSFontService, sans-serif"
         font-weight="400"
         font-size="16px"
         transform="translate(704.37,236)"
         id="text21">Type Error</text>
      <text
         fill="#660066"
         font-family="Calibri, Calibri_MSFontService, sans-serif"
         font-weight="400"
         font-size="16px"
         transform="translate(960.323,255)"
         id="text22">Wrong Type</text>
      <path
         d="m 642.53,156.168 2.73,0.244 c 0.019,0.002 0.037,0.005 0.055,0.01 l 2.709,0.711 c 0.016,0.004 0.032,0.009 0.047,0.016 l 2.667,1.147 2.641,1.572 c 0.016,0.009 0.031,0.02 0.045,0.032 l 4.927,4.194 c 0.016,0.013 0.03,0.028 0.043,0.044 l 4.414,5.439 c 0.011,0.014 0.021,0.028 0.03,0.043 l 3.731,6.436 c 0.008,0.014 0.015,0.029 0.021,0.044 l 2.876,7.183 c 0.006,0.015 0.011,0.03 0.015,0.046 l 1.851,7.682 c 0.004,0.016 0.007,0.033 0.008,0.05 l 0.655,7.931 0.655,7.931 -0.008,-0.05 1.851,7.681 -0.014,-0.045 2.876,7.183 -0.021,-0.043 3.731,6.436 -0.03,-0.043 4.415,5.439 -0.043,-0.043 4.927,4.194 -0.045,-0.033 2.602,1.552 -0.078,-0.034 1.641,0.475 -0.186,0.641 -1.64,-0.476 c -0.028,-0.007 -0.054,-0.019 -0.079,-0.033 l -2.602,-1.552 c -0.016,-0.01 -0.031,-0.021 -0.045,-0.033 l -4.927,-4.194 c -0.016,-0.013 -0.03,-0.028 -0.043,-0.043 l -4.414,-5.44 c -0.011,-0.013 -0.021,-0.028 -0.03,-0.043 l -3.731,-6.436 c -0.008,-0.014 -0.015,-0.028 -0.021,-0.043 l -2.876,-7.184 c -0.006,-0.015 -0.011,-0.03 -0.015,-0.045 l -1.851,-7.682 c -0.004,-0.017 -0.007,-0.034 -0.008,-0.051 l -0.655,-7.931 -0.655,-7.931 0.008,0.051 -1.851,-7.682 0.014,0.046 -2.876,-7.184 0.021,0.044 -3.731,-6.436 0.03,0.042 -4.414,-5.439 0.042,0.044 -4.927,-4.194 0.046,0.032 -2.564,-1.532 -2.666,-1.147 0.047,0.016 -2.709,-0.711 0.055,0.01 -2.731,-0.244 z m 51.514,79.54 6.782,5.831 -8.734,1.927 z"
         id="path22" />
      <text
         font-family="Calibri, Calibri_MSFontService, sans-serif"
         font-weight="400"
         font-size="16px"
         transform="translate(485.254,115)"
         id="text23">Operations</text>
      <rect
         x="408.5"
         y="132.5"
         width="234"
         height="49"
         stroke="#000000"
         stroke-width="0.666667"
         stroke-linejoin="round"
         stroke-miterlimit="10"
         fill="none"
         id="rect23" />
      <text
         fill="#660066"
         font-family="Calibri, Calibri_MSFontService, sans-serif"
         font-weight="400"
         font-size="16px"
         transform="translate(502.461,152)"
         id="text24">Verify</text>
      <text
         fill="#660066"
         font-family="Calibri, Calibri_MSFontService, sans-serif"
         font-weight="400"
         font-size="16px"
         transform="translate(497.207,171)"
         id="text25">Correct</text>
      <text
         font-family="Calibri, Calibri_MSFontService, sans-serif"
         font-weight="400"
         font-size="16px"
         transform="translate(489.764,216)"
         id="text26">Operands</text>
      <rect
         x="408.5"
         y="233.5"
         width="234"
         height="27"
         stroke="#000000"
         stroke-width="0.666667"
         stroke-linejoin="round"
         stroke-miterlimit="10"
         fill="none"
         id="rect26" />
      <text
         fill="#660066"
         font-family="Calibri, Calibri_MSFontService, sans-serif"
         font-weight="400"
         font-size="16px"
         transform="translate(506.104,253)"
         id="text27">Data</text>
      <text
         fill="#7f7f7f"
         font-family="Calibri, Calibri_MSFontService, sans-serif"
         font-weight="400"
         font-size="13px"
         transform="translate(960.6,292)"
         id="text28">BF, I. Bojanova</text>
      <text
         font-family="Calibri, Calibri_MSFontService, sans-serif"
         font-weight="400"
         font-size="16px"
         transform="translate(488.838,386)"
         id="text29">Attributes</text>
      <text
         font-family="Calibri, Calibri_MSFontService, sans-serif"
         font-weight="400"
         font-size="16px"
         transform="translate(2.09974,423)"
         id="text30">Mechanism</text>
      <text
         fill="#660066"
         font-family="Calibri, Calibri_MSFontService, sans-serif"
         font-weight="400"
         font-size="16px"
         transform="translate(2.09974,442)"
         id="text31">Value</text>
      <text
         fill="#660066"
         font-family="Calibri, Calibri_MSFontService, sans-serif"
         font-weight="400"
         font-size="16px"
         transform="translate(2.09974,461)"
         id="text32">Quantity</text>
      <text
         fill="#660066"
         font-family="Calibri, Calibri_MSFontService, sans-serif"
         font-weight="400"
         font-size="16px"
         transform="translate(2.09974,481)"
         id="text33">Range</text>
      <text
         fill="#660066"
         font-family="Calibri, Calibri_MSFontService, sans-serif"
         font-weight="400"
         font-size="16px"
         transform="translate(2.09974,500)"
         id="text34">Data Type</text>
      <text
         fill="#660066"
         font-family="Calibri, Calibri_MSFontService, sans-serif"
         font-weight="400"
         font-size="16px"
         transform="translate(2.09974,519)"
         id="text35">Other Rules</text>
      <text
         font-family="Calibri, Calibri_MSFontService, sans-serif"
         font-weight="400"
         font-size="16px"
         transform="translate(269.816,423)"
         id="text36">Source Code</text>
      <text
         fill="#660066"
         font-family="Calibri, Calibri_MSFontService, sans-serif"
         font-weight="400"
         font-size="16px"
         transform="translate(269.816,442)"
         id="text37">Codebase</text>
      <text
         fill="#660066"
         font-family="Calibri, Calibri_MSFontService, sans-serif"
         font-weight="400"
         font-size="16px"
         transform="translate(269.816,461)"
         id="text38">Third</text>
      <text
         fill="#660066"
         font-family="Calibri, Calibri_MSFontService, sans-serif"
         font-weight="400"
         font-size="16px"
         transform="translate(303.263,461)"
         id="text39">-</text>
      <text
         fill="#660066"
         font-family="Calibri, Calibri_MSFontService, sans-serif"
         font-weight="400"
         font-size="16px"
         transform="translate(308.096,461)"
         id="text40">Party</text>
      <text
         fill="#660066"
         font-family="Calibri, Calibri_MSFontService, sans-serif"
         font-weight="400"
         font-size="16px"
         transform="translate(269.816,481)"
         id="text41">Standard Library</text>
      <text
         fill="#660066"
         font-family="Calibri, Calibri_MSFontService, sans-serif"
         font-weight="400"
         font-size="16px"
         transform="translate(269.816,500)"
         id="text42">Compiler/Interpreter</text>
      <text
         font-family="Calibri, Calibri_MSFontService, sans-serif"
         font-weight="400"
         font-size="16px"
         transform="translate(537.533,423)"
         id="text43">Execution Space</text>
      <text
         fill="#660066"
         font-family="Calibri, Calibri_MSFontService, sans-serif"
         font-weight="400"
         font-size="16px"
         transform="translate(537.533,442)"
         id="text44">Local</text>
      <text
         fill="#660066"
         font-family="Calibri, Calibri_MSFontService, sans-serif"
         font-weight="400"
         font-size="16px"
         transform="translate(537.533,461)"
         id="text45">Admin</text>
      <text
         fill="#660066"
         font-family="Calibri, Calibri_MSFontService, sans-serif"
         font-weight="400"
         font-size="16px"
         transform="translate(537.533,481)"
         id="text46">Bare</text>
      <text
         fill="#660066"
         font-family="Calibri, Calibri_MSFontService, sans-serif"
         font-weight="400"
         font-size="16px"
         transform="translate(567.153,481)"
         id="text47">-</text>
      <text
         fill="#660066"
         font-family="Calibri, Calibri_MSFontService, sans-serif"
         font-weight="400"
         font-size="16px"
         transform="translate(571.986,481)"
         id="text48">Metal</text>
      <text
         font-family="Calibri, Calibri_MSFontService, sans-serif"
         font-weight="400"
         font-size="16px"
         transform="translate(805.249,423)"
         id="text49">Data State</text>
      <text
         fill="#660066"
         font-family="Calibri, Calibri_MSFontService, sans-serif"
         font-weight="400"
         font-size="16px"
         transform="translate(805.249,442)"
         id="text50">Entered</text>
      <text
         fill="#660066"
         font-family="Calibri, Calibri_MSFontService, sans-serif"
         font-weight="400"
         font-size="16px"
         transform="translate(805.249,461)"
         id="text51">Stored</text>
      <text
         fill="#660066"
         font-family="Calibri, Calibri_MSFontService, sans-serif"
         font-weight="400"
         font-size="16px"
         transform="translate(805.249,481)"
         id="text52">In Use</text>
      <text
         fill="#660066"
         font-family="Calibri, Calibri_MSFontService, sans-serif"
         font-weight="400"
         font-size="16px"
         transform="translate(805.249,500)"
         id="text53">Transferred</text>
      <path
         d="M 0,580.667 C 0,578.089 2.08938,576 4.66676,576 H 37.3332 C 39.9106,576 42,578.089 42,580.667 v 18.666 C 42,601.911 39.9106,604 37.3332,604 H 4.66676 C 2.08938,604 0,601.911 0,599.333 Z"
         fill="#e8effc"
         fill-rule="evenodd"
         id="path53" />
      <text
         font-family="Calibri, Calibri_MSFontService, sans-serif"
         font-weight="400"
         font-size="16px"
         transform="translate(44.0945,596)"
         id="text54">Bug</text>
      <path
         d="m 262,580.667 c 0,-2.578 2.089,-4.667 4.667,-4.667 h 32.666 c 2.578,0 4.667,2.089 4.667,4.667 v 18.666 c 0,2.578 -2.089,4.667 -4.667,4.667 H 266.667 C 264.089,604 262,601.911 262,599.333 Z"
         fill="#f4f2f8"
         fill-rule="evenodd"
         id="path54" />
      <text
         font-family="Calibri, Calibri_MSFontService, sans-serif"
         font-weight="400"
         font-size="16px"
         transform="translate(306.562,596)"
         id="text55">Fault/Error</text>
      <path
         d="m 525,580.667 c 0,-2.578 2.089,-4.667 4.667,-4.667 h 32.666 c 2.578,0 4.667,2.089 4.667,4.667 v 18.666 c 0,2.578 -2.089,4.667 -4.667,4.667 H 529.667 C 527.089,604 525,601.911 525,599.333 Z"
         fill="#dfdaea"
         fill-rule="evenodd"
         id="path55" />
      <text
         font-family="Calibri, Calibri_MSFontService, sans-serif"
         font-weight="400"
         font-size="16px"
         transform="translate(569.029,596)"
         id="text56">Final Error</text>
      <rect
         x="787.5"
         y="576.5"
         width="42"
         height="28"
         stroke="#000000"
         stroke-width="0.666667"
         stroke-linejoin="round"
         stroke-miterlimit="10"
         fill="none"
         id="rect56" />
      <text
         font-family="Calibri, Calibri_MSFontService, sans-serif"
         font-weight="400"
         font-size="16px"
         transform="translate(831.496,596)"
         id="text57">Operation/Operand</text>
    </g>
  </g>
</svg>
