<?xml version="1.0" encoding="UTF-8" standalone="no"?>
<!-- Created with Inkscape (http://www.inkscape.org/) -->

<svg
   width="194.46875mm"
   height="168.86406mm"
   viewBox="0 0 194.46875 168.86407"
   version="1.1"
   id="svg5"
   inkscape:export-filename="_DAT-NRS.png"
   inkscape:export-xdpi="96"
   inkscape:export-ydpi="96"
   inkscape:version="1.2.2 (b0a8486541, 2022-12-01)"
   sodipodi:docname="_DAT-TCV.svg"
   xmlns:inkscape="http://www.inkscape.org/namespaces/inkscape"
   xmlns:sodipodi="http://sodipodi.sourceforge.net/DTD/sodipodi-0.dtd"
   xmlns="http://www.w3.org/2000/svg"
   xmlns:svg="http://www.w3.org/2000/svg">
  <sodipodi:namedview
     id="namedview7"
     pagecolor="#ffffff"
     bordercolor="#000000"
     borderopacity="0.25"
     inkscape:showpageshadow="2"
     inkscape:pageopacity="0.0"
     inkscape:pagecheckerboard="0"
     inkscape:deskcolor="#d1d1d1"
     inkscape:document-units="mm"
     showgrid="false"
     inkscape:zoom="0.914906"
     inkscape:cx="15.302118"
     inkscape:cy="-57.929448"
     inkscape:window-width="2560"
     inkscape:window-height="1377"
     inkscape:window-x="-8"
     inkscape:window-y="797"
     inkscape:window-maximized="1"
     inkscape:current-layer="layer1" />
  <defs
     id="defs2">
    <clipPath
       id="clip0">
      <rect
         x="-7"
         y="0"
         width="742"
         height="574"
         id="rect9" />
    </clipPath>
    <clipPath
       id="clip0-5">
      <rect
         x="-7"
         y="0"
         width="742"
         height="543"
         id="rect555" />
    </clipPath>
    <clipPath
       id="clip0-8">
      <rect
         x="-7"
         y="0"
         width="742"
         height="612"
         id="rect846" />
    </clipPath>
    <clipPath
       id="clip0-4">
      <rect
         x="-7"
         y="0"
         width="742"
         height="659"
         id="rect1187" />
    </clipPath>
    <clipPath
       id="clip0-9">
      <rect
         x="-7"
         y="0"
         width="742"
         height="653"
         id="rect1522" />
    </clipPath>
  </defs>
  <g
     inkscape:label="Layer 1"
     inkscape:groupmode="layer"
     id="layer1"
     transform="translate(-100.59834,-163.62249)">
    <g
       clip-path="url(#clip0-9)"
       transform="matrix(0.26458333,0,0,0.26458333,100.59834,161.34524)"
       id="g1677">
      <text
         font-family="Calibri, Calibri_MSFontService, sans-serif"
         font-weight="400"
         font-size="15px"
         transform="translate(264.204,19)"
         id="text1531">BF Data Type Bugs (_DAT) Cluster<tspan
   fill="#7d3368"
   font-size="15px"
   x="0.083313003"
   y="25"
   id="tspan1527">Type Conversion Bugs (TCV) Class</tspan><tspan
   font-size="15px"
   x="-166.05299"
   y="63"
   id="tspan1529">Causes</tspan></text>
      <path
         d="M 0,108.5 C 0,102.701 4.70106,98 10.5001,98 H 234.5 c 5.799,0 10.5,4.701 10.5,10.5 v 42 c 0,5.799 -4.701,10.5 -10.5,10.5 H 10.5001 C 4.70106,161 0,156.299 0,150.5 Z"
         fill="#e8effc"
         fill-rule="evenodd"
         id="path1533" />
      <text
         fill="#7d3368"
         font-family="Calibri, Calibri_MSFontService, sans-serif"
         font-weight="400"
         font-size="15px"
         transform="translate(5.1748,116)"
         id="text1539">Code Defect Bug<tspan
   fill="#000000"
   font-size="15px"
   x="152.83299"
   y="17"
   id="tspan1535">Wrong Code</tspan><tspan
   fill="#000000"
   font-size="15px"
   x="148.16701"
   y="35"
   id="tspan1537">Missing Code</tspan></text>
      <path
         d="m 0.0194114,-0.332768 7.4999986,0.4375 3.52189,0.439509 3.0879,0.629159 2.6428,0.69164 2.041,0.82614 c 0.0208,0.00846 0.0407,0.019 0.0594,0.03147 l 1.3125,0.875 c 0.0483,0.03218 0.0873,0.07639 0.1132,0.12828 l 0.4375,0.875 0.4375,0.875 -0.1132,-0.12828 1.3125,0.875 -0.0594,-0.03147 2,0.8125 2.584,0.67386 3.0447,0.62086 4.2649,0.44131 -0.0689,0.6631 L 29.8083,8.9516 26.728,8.32246 24.062,7.62132 l -2,-0.8125 C 22.0412,6.80036 22.0213,6.78982 22.0026,6.77735 l -1.3125,-0.875 C 20.6418,5.87017 20.6028,5.82596 20.5769,5.77407 l -0.4375,-0.875 -0.4375,-0.875 0.1132,0.12828 -1.3125,-0.875 L 18.562,3.30882 16.603,2.50996 13.9958,1.8266 10.9587,1.20576 7.48059,0.770268 -0.0194114,0.332768 Z M 33.0675,5.00217 40.8281,9.44882 32.6144,12.9893 Z"
         transform="matrix(1,0,0,-1,245.5,129.949)"
         id="path1541" />
      <path
         d="M 0,189.667 C 0,182.119 6.11885,176 13.6668,176 H 231.333 c 7.548,0 13.667,6.119 13.667,13.667 v 54.666 C 245,251.881 238.881,258 231.333,258 H 13.6668 C 6.11885,258 0,251.881 0,244.333 Z"
         fill="#f4f2f8"
         fill-rule="evenodd"
         id="path1543" />
      <text
         fill="#7d3368"
         font-family="Calibri, Calibri_MSFontService, sans-serif"
         font-weight="400"
         font-size="15px"
         transform="translate(6.09722,195)"
         id="text1551">Data Fault<tspan
   fill="#000000"
   font-size="15px"
   x="147.83299"
   y="17"
   id="tspan1545">Under Range</tspan><tspan
   fill="#000000"
   font-size="15px"
   x="156.16701"
   y="35"
   id="tspan1547">Over Range</tspan><tspan
   fill="#000000"
   font-size="15px"
   x="153.66701"
   y="53"
   id="tspan1549">Flipped Sign</tspan></text>
      <path
         d="M 0.0426571,-0.330593 1.98016,-0.0805926 c 0.03404,0.0043923 0.0672,0.0140169 0.0983,0.0285315 l 1.875,0.8750001 C 3.971,0.831122 3.9878,0.840825 4.00365,0.851923 l 1.875,1.312497 c 0.0143,0.01001 0.02782,0.02116 0.04038,0.03328 l 1.8125,1.75 1.84055,2.28069 1.70632,2.58828 3.0834,6.28663 2.64,7.4733 2.0096,8.2824 1.3183,8.8419 0.4408,9.1581 0.4375,9.125 1.3092,8.7794 1.9942,8.2206 2.6151,7.3417 3.0478,6.2151 1.6666,2.5259 1.7937,2.2242 -0.0798,-0.0716 1.5685,1.0047 -0.3595,0.5614 -1.5686,-1.0047 C 33.1649,93.7613 33.138,93.7371 33.1154,93.7091 L 31.2841,91.4333 29.5757,88.8342 26.4985,82.5493 23.8635,75.141 21.8578,66.8616 20.542,58.016 20.1045,48.891 19.6703,39.7991 18.3636,31.016 16.3732,22.7984 13.7632,15.3967 10.7216,9.18333 9.05291,6.64661 7.26847,4.4273 l -1.8125,-1.75 0.04038,0.03328 -1.875,-1.3125 0.05019,0.02898 -1.875,-0.874999 0.0983,0.028532 -1.9374971,-0.25 z M 35.6465,90.3474 l 5.1816,7.2904 -8.9413,-0.2289 z"
         transform="matrix(1,0,0,-1,245.5,218.138)"
         id="path1553" />
      <path
         d="M 0,287.667 C 0,280.119 6.11885,274 13.6668,274 H 231.333 c 7.548,0 13.667,6.119 13.667,13.667 v 54.666 C 245,349.881 238.881,356 231.333,356 H 13.6668 C 6.11885,356 0,349.881 0,342.333 Z"
         fill="#f4f2f8"
         fill-rule="evenodd"
         id="path1555" />
      <text
         fill="#7d3368"
         font-family="Calibri, Calibri_MSFontService, sans-serif"
         font-weight="400"
         font-size="15px"
         transform="translate(6.09722,293)"
         id="text1563">Name Fault<tspan
   fill="#000000"
   font-size="15px"
   x="85.333298"
   y="17"
   id="tspan1557">Wrong Object Resolved</tspan><tspan
   fill="#000000"
   font-size="15px"
   x="53.166698"
   y="35"
   id="tspan1559">Wrong Object Type Resolved</tspan><tspan
   fill="#000000"
   font-size="15px"
   x="52.333302"
   y="53"
   id="tspan1561">Missing Overloaded Function</tspan></text>
      <path
         d="m 0.0929367,-0.320115 1.9375033,0.5625 c 0.04622,0.01342 0.089,0.036693 0.12537,0.068219 l 1.875,1.624996 c 0.01988,0.01723 0.03764,0.03675 0.05293,0.05815 l 1.875,2.625 c 0.00967,0.01354 0.01831,0.02777 0.02585,0.0426 l 1.8125,3.5625 1.824,4.46265 1.69621,5.274 1.5673,5.8913 1.503,6.6371 1.3772,7.1354 1.2516,7.6343 1.0641,8.0728 0.9383,8.4443 1.3136,17.6996 0.4383,18.2042 0.4375,18.1875 1.3117,17.671 0.9364,8.362 1.0617,8.056 1.2485,7.678 1.3733,7.115 1.4977,6.552 1.5599,5.927 1.6821,5.169 1.8041,4.414 -0.0287,-0.055 2.5045,3.871 -0.5597,0.362 -2.5046,-3.87 c -0.0112,-0.018 -0.0208,-0.036 -0.0287,-0.055 l -1.8209,-4.461 -1.6929,-5.206 -1.5651,-5.948 -1.5023,-6.573 -1.3767,-7.135 -1.2515,-7.697 -1.0633,-8.069 -0.9386,-8.388 -1.3133,-17.704 -0.4375,-18.1875 -0.4367,-18.1708 -1.3114,-17.6754 -0.9367,-8.4308 -1.0609,-8.0521 -1.2484,-7.6157 -1.3728,-7.1146 -1.497,-6.6129 -1.5577,-5.8587 -1.67879,-5.226 -1.801,-4.41235 -1.8125,-3.5625 0.02584,0.0426 -1.87499,-2.625 0.05293,0.05815 -1.875,-1.625004 0.12537,0.068219 -1.9374967,-0.5625 z M 37.5702,186.946 l 3.2579,8.33 -8.6186,-2.392 z"
         transform="matrix(1,0,0,-1,245.5,315.776)"
         id="path1565" />
      <path
         d="M 0,382.5 C 0,376.701 4.70106,372 10.5001,372 H 234.5 c 5.799,0 10.5,4.701 10.5,10.5 v 42 c 0,5.799 -4.701,10.5 -10.5,10.5 H 10.5001 C 4.70106,435 0,430.299 0,424.5 Z"
         fill="#f4f2f8"
         fill-rule="evenodd"
         id="path1567" />
      <text
         fill="#7d3368"
         font-family="Calibri, Calibri_MSFontService, sans-serif"
         font-weight="400"
         font-size="15px"
         transform="translate(5.1748,390)"
         id="text1573">Type Fault<tspan
   fill="#000000"
   font-size="15px"
   x="154.5"
   y="17"
   id="tspan1569">Wrong Type</tspan><tspan
   fill="#000000"
   font-size="15px"
   x="90.166702"
   y="35"
   id="tspan1571">Mismatched Argument</tspan></text>
      <path
         d="m 0.065372,-0.32686 0.937498,0.1875 c 0.03947,0.007892 0.07717,0.022864 0.1113,0.0441939 l 1,0.6250001 C 2.13861,0.54511 2.16097,0.563492 2.18068,0.58452 l 0.9375,1 c 0.01176,0.01254 0.02254,0.026 0.03223,0.0402 l 0.9375,1.375 1.89871,3.85317 1.82806,5.22471 1.81868,6.4571 1.69194,7.5802 1.5651,8.5753 1.5014,9.5706 1.3761,10.3829 1.2508,11.0689 1.0633,11.6947 0.9379,12.2548 0.7504,12.6929 0.5627,12.943 0.4378,26.446 0.4375,26.438 0.5622,12.929 0.7498,12.682 0.9371,12.244 1.0621,11.683 1.2492,11.055 1.3742,10.369 1.4989,9.554 1.5611,8.555 1.6849,7.549 1.8081,6.42 1.8063,5.168 -0.0398,-0.079 1.3041,1.901 -0.5497,0.378 -1.3042,-1.901 c -0.0167,-0.025 -0.03,-0.051 -0.0398,-0.079 l -1.8187,-5.207 -1.8169,-6.455 -1.6901,-7.576 -1.5639,-8.57 -1.5011,-9.571 L 25.1063,228.85 23.8555,217.78 22.7926,206.088 21.8547,193.832 21.1045,181.139 20.5417,168.193 20.1042,141.756 19.667,115.327 19.1047,102.395 18.3551,89.7129 17.418,77.4677 16.3563,65.7874 15.1071,54.7313 13.7332,44.3642 12.2346,34.8098 10.6747,26.2601 8.99164,18.7153 7.18532,12.2974 5.38838,7.14711 3.53709,3.37528 l -0.9375,-1.375 0.03223,0.0402 -0.9375,-1 0.06651,0.05469 -0.999996,-0.625004 0.111294,0.044194 -0.9375,-0.1875 z M 38.6625,274.786 l 2.1656,8.679 -8.2419,-3.475 z"
         transform="matrix(1,0,0,-1,245.5,403.965)"
         id="path1575" />
      <text
         font-family="Calibri, Calibri_MSFontService, sans-serif"
         font-weight="400"
         font-size="15px"
         transform="translate(565.84,82)"
         id="text1577">Consequences</text>
      <path
         d="M 490,114.667 C 490,105.462 497.462,98 506.667,98 h 211.666 c 9.205,0 16.667,7.462 16.667,16.667 v 66.666 C 735,190.538 727.538,198 718.333,198 H 506.667 C 497.462,198 490,190.538 490,181.333 Z"
         fill="#f4f2f8"
         fill-rule="evenodd"
         id="path1579" />
      <text
         fill="#7d3368"
         font-family="Calibri, Calibri_MSFontService, sans-serif"
         font-weight="400"
         font-size="15px"
         transform="translate(496.958,118)"
         id="text1589">Data Error<tspan
   fill="#000000"
   font-size="15px"
   x="146"
   y="17"
   id="tspan1581">Wrong Value</tspan><tspan
   fill="#000000"
   font-size="15px"
   x="125.667"
   y="35"
   id="tspan1583">Truncated Value</tspan><tspan
   fill="#000000"
   font-size="15px"
   x="130.83299"
   y="53"
   id="tspan1585">Distorted Value</tspan><tspan
   fill="#000000"
   font-size="15px"
   x="132.66701"
   y="70"
   id="tspan1587">Rounded Value</tspan></text>
      <path
         d="m 456.168,121.348 4.436,1.46 c 0.023,0.008 0.045,0.018 0.066,0.03 l 3.062,1.813 c 0.016,0.009 0.03,0.019 0.044,0.03 l 2.625,2.188 c 0.015,0.013 0.029,0.026 0.042,0.041 l 2,2.375 c 0.016,0.02 0.03,0.041 0.041,0.063 l 1.313,2.563 c 0.015,0.03 0.026,0.063 0.032,0.097 l 0.437,2.625 0.438,2.625 -0.031,-0.095 1.313,2.625 -0.043,-0.065 2,2.375 -0.046,-0.045 2.625,2.125 -0.04,-0.027 3.063,1.812 -0.043,-0.021 3.5,1.437 -0.05,-0.016 3.688,0.875 -0.052,-0.008 3.765,0.284 -0.05,0.665 -3.765,-0.284 c -0.018,-0.001 -0.035,-0.004 -0.052,-0.008 l -3.688,-0.875 c -0.017,-0.004 -0.033,-0.009 -0.05,-0.016 l -3.5,-1.438 c -0.014,-0.006 -0.029,-0.013 -0.043,-0.021 l -3.062,-1.813 c -0.014,-0.008 -0.028,-0.017 -0.04,-0.027 l -2.625,-2.125 c -0.017,-0.014 -0.032,-0.029 -0.045,-0.045 l -2,-2.375 c -0.017,-0.02 -0.032,-0.042 -0.044,-0.065 l -1.312,-2.625 c -0.015,-0.03 -0.025,-0.062 -0.031,-0.095 l -0.437,-2.625 -0.438,-2.625 0.032,0.098 -1.312,-2.563 0.042,0.063 -2,-2.375 0.041,0.041 -2.625,-2.187 0.044,0.03 -3.063,-1.812 0.066,0.03 -4.436,-1.46 z m 0.51,4.489 -7.178,-5.337 8.576,-2.54 z"
         id="path1591" />
      <path
         d="m 490,221.333 c 0,-4.05 3.283,-7.333 7.333,-7.333 h 230.334 c 4.05,0 7.333,3.283 7.333,7.333 v 29.334 c 0,4.05 -3.283,7.333 -7.333,7.333 H 497.333 c -4.05,0 -7.333,-3.283 -7.333,-7.333 z"
         fill="#f4f2f8"
         fill-rule="evenodd"
         id="path1593" />
      <text
         fill="#7d3368"
         font-family="Calibri, Calibri_MSFontService, sans-serif"
         font-weight="400"
         font-size="15px"
         transform="translate(494.191,231)"
         id="text1597">Type Error<tspan
   fill="#000000"
   font-size="15px"
   x="156.33299"
   y="17"
   id="tspan1595">Wrong Type</tspan></text>
      <path
         d="m 455.389,123.738 1.823,1.505 c 0.025,0.02 0.047,0.044 0.064,0.071 l 1.813,2.687 1.703,3.088 1.576,3.59 1.506,3.952 2.633,8.836 2.007,9.904 1.317,10.525 0.44,10.903 0.437,10.875 1.31,10.472 1.996,9.85 2.618,8.784 1.491,3.85 1.557,3.549 1.676,3.1 1.793,2.594 1.792,2.098 -0.04,-0.04 1.875,1.563 -0.057,-0.038 1.875,1 -0.107,-0.036 1.891,0.286 -0.099,0.659 -1.891,-0.285 c -0.038,-0.006 -0.074,-0.018 -0.107,-0.036 l -1.875,-1 c -0.02,-0.011 -0.039,-0.023 -0.057,-0.038 l -1.875,-1.562 c -0.014,-0.012 -0.028,-0.026 -0.04,-0.04 l -1.833,-2.152 -1.832,-2.656 -1.699,-3.15 -1.568,-3.576 -1.509,-3.9 -2.632,-8.841 -2.004,-9.9 -1.315,-10.528 -0.438,-10.875 -0.435,-10.847 -1.308,-10.475 -1.993,-9.846 -2.617,-8.789 -1.494,-3.923 -1.549,-3.535 -1.672,-3.037 -1.812,-2.688 0.064,0.071 -1.823,-1.505 z m -1.173,4.362 -4.716,-7.6 8.91,0.788 z"
         id="path1599" />
      <text
         font-family="Calibri, Calibri_MSFontService, sans-serif"
         font-weight="400"
         font-size="15px"
         transform="translate(330.704,82)"
         id="text1601">Operations</text>
      <rect
         x="286.5"
         y="98.500099"
         width="163"
         height="44"
         stroke="#000000"
         stroke-width="0.666667"
         stroke-linejoin="round"
         stroke-miterlimit="10"
         fill="none"
         id="rect1603" />
      <text
         font-family="Calibri, Calibri_MSFontService, sans-serif"
         font-weight="400"
         font-size="15px"
         transform="translate(351.034,116)"
         id="text1609">Cast<tspan
   font-size="15px"
   x="-8.0799904"
   y="17"
   id="tspan1605">Coerce</tspan><tspan
   font-size="15px"
   x="-16.2467"
   y="60"
   id="tspan1607">Operands</tspan></text>
      <rect
         x="286.5"
         y="192.5"
         width="163"
         height="63"
         stroke="#000000"
         stroke-width="0.666667"
         stroke-linejoin="round"
         stroke-miterlimit="10"
         fill="none"
         id="rect1611" />
      <text
         font-family="Calibri, Calibri_MSFontService, sans-serif"
         font-weight="400"
         font-size="15px"
         transform="translate(349.787,211)"
         id="text1659">Data<tspan
   font-size="15px"
   x="-0.5"
   y="17"
   id="tspan1613">Type</tspan><tspan
   font-size="15px"
   x="-3.8333099"
   y="35"
   id="tspan1615">Name</tspan><tspan
   font-size="15px"
   x="-15.9998"
   y="258"
   id="tspan1617">Attributes</tspan><tspan
   fill="#7d3368"
   font-size="15px"
   x="-347.68701"
   y="293"
   id="tspan1619">Execution Space</tspan><tspan
   font-size="15px"
   x="-268.021"
   y="310"
   id="tspan1621">Local</tspan><tspan
   font-size="15px"
   x="-276.521"
   y="328"
   id="tspan1623">Admin</tspan><tspan
   font-size="15px"
   x="-304.68701"
   y="346"
   id="tspan1625">Bare</tspan>-Metal<tspan
   fill="#7d3368"
   font-size="15px"
   x="-194.40601"
   y="293"
   id="tspan1627">Mechanism</tspan><tspan
   font-size="15px"
   x="-124.906"
   y="310"
   id="tspan1629">Pass In</tspan><tspan
   font-size="15px"
   x="-135.74001"
   y="328"
   id="tspan1631">Pass Out</tspan><tspan
   fill="#7d3368"
   font-size="15px"
   x="-41.125702"
   y="293"
   id="tspan1633">Source Code</tspan><tspan
   font-size="15px"
   x="10.7077"
   y="310"
   id="tspan1635">Codebase</tspan><tspan
   font-size="15px"
   x="3.37433"
   y="328"
   id="tspan1637">Third Party</tspan><tspan
   font-size="15px"
   x="15.2077"
   y="346"
   id="tspan1639">Standard</tspan><tspan
   font-size="15px"
   x="14.8743"
   y="363"
   id="tspan1641">Compiler</tspan><tspan
   fill="#7d3368"
   font-size="15px"
   x="112.155"
   y="293"
   id="tspan1643">Data Kind</tspan><tspan
   font-size="15px"
   x="171.32201"
   y="310"
   id="tspan1645">Numeric</tspan><tspan
   font-size="15px"
   x="196.48801"
   y="328"
   id="tspan1647">Text</tspan><tspan
   font-size="15px"
   x="178.655"
   y="346"
   id="tspan1649">Pointer</tspan><tspan
   font-size="15px"
   x="173.48801"
   y="363"
   id="tspan1651">Boolean</tspan><tspan
   fill="#7d3368"
   font-size="15px"
   x="265.436"
   y="293"
   id="tspan1653">Type Kind</tspan><tspan
   font-size="15px"
   x="322.26901"
   y="310"
   id="tspan1655">Primitive</tspan><tspan
   font-size="15px"
   x="319.936"
   y="328"
   id="tspan1657">Structure</tspan></text>
      <path
         d="M 0,624.333 C 0,621.94 1.94014,620 4.33343,620 H 37.6666 C 40.0599,620 42,621.94 42,624.333 v 17.334 C 42,644.06 40.0599,646 37.6666,646 H 4.33343 C 1.94014,646 0,644.06 0,641.667 Z"
         fill="#e8effc"
         fill-rule="evenodd"
         id="path1661" />
      <text
         font-family="Calibri, Calibri_MSFontService, sans-serif"
         font-weight="400"
         font-size="15px"
         transform="translate(44.0945,639)"
         id="text1663">Bug</text>
      <path
         d="m 184,624.333 c 0,-2.393 1.94,-4.333 4.333,-4.333 h 33.334 c 2.393,0 4.333,1.94 4.333,4.333 v 17.334 c 0,2.393 -1.94,4.333 -4.333,4.333 H 188.333 C 185.94,646 184,644.06 184,641.667 Z"
         fill="#f4f2f8"
         fill-rule="evenodd"
         id="path1665" />
      <text
         font-family="Calibri, Calibri_MSFontService, sans-serif"
         font-weight="400"
         font-size="15px"
         transform="translate(227.822,639)"
         id="text1667">Fault/Error</text>
      <path
         d="m 367,624.333 c 0,-2.393 1.94,-4.333 4.333,-4.333 h 33.334 c 2.393,0 4.333,1.94 4.333,4.333 v 17.334 c 0,2.393 -1.94,4.333 -4.333,4.333 H 371.333 C 368.94,646 367,644.06 367,641.667 Z"
         fill="#dfdaea"
         fill-rule="evenodd"
         id="path1669" />
      <text
         font-family="Calibri, Calibri_MSFontService, sans-serif"
         font-weight="400"
         font-size="15px"
         transform="translate(411.549,639)"
         id="text1671">Final Error</text>
      <rect
         x="551.5"
         y="620.5"
         width="42"
         height="26"
         stroke="#000000"
         stroke-width="0.666667"
         stroke-linejoin="round"
         stroke-miterlimit="10"
         fill="none"
         id="rect1673" />
      <text
         font-family="Calibri, Calibri_MSFontService, sans-serif"
         font-weight="400"
         font-size="15px"
         transform="translate(595.276,639)"
         id="text1675">Operation/Operand</text>
    </g>
  </g>
</svg>
