<?xml version="1.0" encoding="UTF-8" standalone="no"?>
<!-- Created with Inkscape (http://www.inkscape.org/) -->

<svg
   width="194.46875mm"
   height="180.50574mm"
   viewBox="0 0 194.46875 180.50575"
   version="1.1"
   id="svg5"
   inkscape:export-filename="_DAT-TCV.png"
   inkscape:export-xdpi="96"
   inkscape:export-ydpi="96"
   inkscape:version="1.2.2 (b0a8486541, 2022-12-01)"
   sodipodi:docname="_DAT-TCM.svg"
   xmlns:inkscape="http://www.inkscape.org/namespaces/inkscape"
   xmlns:sodipodi="http://sodipodi.sourceforge.net/DTD/sodipodi-0.dtd"
   xmlns="http://www.w3.org/2000/svg"
   xmlns:svg="http://www.w3.org/2000/svg">
  <sodipodi:namedview
     id="namedview7"
     pagecolor="#ffffff"
     bordercolor="#000000"
     borderopacity="0.25"
     inkscape:showpageshadow="2"
     inkscape:pageopacity="0.0"
     inkscape:pagecheckerboard="0"
     inkscape:deskcolor="#d1d1d1"
     inkscape:document-units="mm"
     showgrid="false"
     inkscape:zoom="0.914906"
     inkscape:cx="277.62415"
     inkscape:cy="25.139195"
     inkscape:window-width="2560"
     inkscape:window-height="1377"
     inkscape:window-x="-8"
     inkscape:window-y="797"
     inkscape:window-maximized="1"
     inkscape:current-layer="layer1" />
  <defs
     id="defs2">
    <clipPath
       id="clip0">
      <rect
         x="-7"
         y="0"
         width="742"
         height="574"
         id="rect9" />
    </clipPath>
    <clipPath
       id="clip0-5">
      <rect
         x="-7"
         y="0"
         width="742"
         height="543"
         id="rect555" />
    </clipPath>
    <clipPath
       id="clip0-8">
      <rect
         x="-7"
         y="0"
         width="742"
         height="612"
         id="rect846" />
    </clipPath>
    <clipPath
       id="clip0-4">
      <rect
         x="-7"
         y="0"
         width="742"
         height="659"
         id="rect1187" />
    </clipPath>
    <clipPath
       id="clip0-9">
      <rect
         x="-7"
         y="0"
         width="742"
         height="653"
         id="rect1522" />
    </clipPath>
    <clipPath
       id="clip0-0">
      <rect
         x="-7"
         y="0"
         width="742"
         height="697"
         id="rect1851" />
    </clipPath>
  </defs>
  <g
     inkscape:label="Layer 1"
     inkscape:groupmode="layer"
     id="layer1"
     transform="translate(-31.126381,-141.61889)">
    <g
       clip-path="url(#clip0-0)"
       transform="matrix(0.26458333,0,0,0.26458333,31.126381,139.34164)"
       id="g2018">
      <text
         font-family="Calibri, Calibri_MSFontService, sans-serif"
         font-weight="400"
         font-size="15px"
         transform="translate(264.204,19)"
         id="text1860">BF Data Type Bugs (_DAT) Cluster<tspan
   fill="#7d3368"
   font-size="15px"
   x="-7.5833702"
   y="25"
   id="tspan1856">Type Computation Bugs (TCM) Class</tspan><tspan
   font-size="15px"
   x="-166.05299"
   y="63"
   id="tspan1858">Causes</tspan></text>
      <path
         d="M 0,108.5 C 0,102.701 4.70106,98 10.5001,98 H 234.5 c 5.799,0 10.5,4.701 10.5,10.5 v 42 c 0,5.799 -4.701,10.5 -10.5,10.5 H 10.5001 C 4.70106,161 0,156.299 0,150.5 Z"
         fill="#e8effc"
         fill-rule="evenodd"
         id="path1862" />
      <text
         fill="#7d3368"
         font-family="Calibri, Calibri_MSFontService, sans-serif"
         font-weight="400"
         font-size="15px"
         transform="translate(5.1748,116)"
         id="text1868">Code Defect Bug<tspan
   fill="#000000"
   font-size="15px"
   x="152.83299"
   y="17"
   id="tspan1864">Wrong Code</tspan><tspan
   fill="#000000"
   font-size="15px"
   x="132"
   y="35"
   id="tspan1866">Erroneous Code</tspan></text>
      <path
         d="m 0.0194114,-0.332768 7.4999986,0.4375 3.52189,0.439509 3.0879,0.629159 2.6428,0.69164 2.041,0.82614 c 0.0208,0.00846 0.0407,0.019 0.0594,0.03147 l 1.3125,0.875 c 0.0483,0.03218 0.0873,0.07639 0.1132,0.12828 l 0.4375,0.875 0.4375,0.875 -0.1132,-0.12828 1.3125,0.875 -0.0594,-0.03147 2,0.8125 2.584,0.67386 3.0447,0.62086 4.2649,0.44131 -0.0689,0.6631 L 29.8083,8.9516 26.728,8.32246 24.062,7.62132 l -2,-0.8125 C 22.0412,6.80036 22.0213,6.78982 22.0026,6.77735 l -1.3125,-0.875 C 20.6418,5.87017 20.6028,5.82596 20.5769,5.77407 l -0.4375,-0.875 -0.4375,-0.875 0.1132,0.12828 -1.3125,-0.875 L 18.562,3.30882 16.603,2.50996 13.9958,1.8266 10.9587,1.20576 7.48059,0.770268 -0.0194114,0.332768 Z M 33.0675,5.00217 40.8281,9.44882 32.6144,12.9893 Z"
         transform="matrix(1,0,0,-1,245.5,129.949)"
         id="path1870" />
      <path
         d="M 0,186.5 C 0,180.701 4.70106,176 10.5001,176 H 234.5 c 5.799,0 10.5,4.701 10.5,10.5 v 42 c 0,5.799 -4.701,10.5 -10.5,10.5 H 10.5001 C 4.70106,239 0,234.299 0,228.5 Z"
         fill="#f4f2f8"
         fill-rule="evenodd"
         id="path1872" />
      <text
         fill="#7d3368"
         font-family="Calibri, Calibri_MSFontService, sans-serif"
         font-weight="400"
         font-size="15px"
         transform="translate(5.1748,195)"
         id="text1878">Data Fault<tspan
   fill="#000000"
   font-size="15px"
   x="123.667"
   y="17"
   id="tspan1874">Wrong Argument</tspan><tspan
   fill="#000000"
   font-size="15px"
   x="104.333"
   y="35"
   id="tspan1876">Reference vs. Object</tspan></text>
      <path
         d="M 0.0426571,-0.330593 1.98016,-0.0805926 c 0.02782,0.0035899 0.05509,0.010682 0.08114,0.0211004 l 1.875,0.7500002 c 0.01899,0.007598 0.03727,0.01694 0.05455,0.027886 l 1.875,1.187496 c 0.01562,0.0099 0.0304,0.02108 0.04417,0.03342 l 1.81249,1.625 1.83698,2.02435 1.70981,2.33985 3.0867,5.72599 2.6414,6.6602 2.0122,7.5369 1.3193,7.969 0.4415,8.2867 0.4375,8.25 1.3085,7.9008 1.993,7.4053 2.6134,6.6523 3.045,5.5874 1.6664,2.3413 1.7842,1.9029 -0.0775,-0.0614 1.4815,0.8502 -0.3318,0.5782 -1.4815,-0.8502 c -0.0288,-0.0165 -0.0549,-0.0372 -0.0775,-0.0614 l -1.8408,-1.9721 -1.7086,-2.4087 -3.08,-5.6626 -2.6366,-6.7227 -2.007,-7.4697 -1.3165,-7.9742 -0.4375,-8.25 -0.4335,-8.2133 -1.3057,-7.906 L 16.3776,20.5603 13.769,13.9705 10.7307,8.32149 9.0655,6.03634 7.27748,4.06069 l -1.8125,-1.625 0.04417,0.03342 -1.875,-1.1875 0.05455,0.02788 -1.875,-0.749998 0.08114,0.021101 -1.9374971,-0.25 z M 35.4404,81.0495 l 5.3877,7.1395 -8.9442,0.0264 z"
         transform="matrix(1,0,0,-1,245.5,208.689)"
         id="path1880" />
      <path
         d="M 0,275 C 0,263.954 8.95444,255 20.0003,255 H 225 c 11.046,0 20,8.954 20,20 v 80 c 0,11.046 -8.954,20 -20,20 H 20.0003 C 8.95444,375 0,366.046 0,355 Z"
         fill="#f4f2f8"
         fill-rule="evenodd"
         id="path1882" />
      <text
         fill="#7d3368"
         font-family="Calibri, Calibri_MSFontService, sans-serif"
         font-weight="400"
         font-size="15px"
         transform="translate(7.94226,276)"
         id="text1894">Name Fault<tspan
   fill="#000000"
   font-size="15px"
   x="81.666702"
   y="17"
   id="tspan1884">Wrong Object Resolved</tspan><tspan
   fill="#000000"
   font-size="15px"
   x="69.166702"
   y="35"
   id="tspan1886">Wrong Function Resolved</tspan><tspan
   fill="#000000"
   font-size="15px"
   x="34.5"
   y="53"
   id="tspan1888">Wrong Generic Function Bound</tspan><tspan
   fill="#000000"
   font-size="15px"
   x="13.1667"
   y="70"
   id="tspan1890">Wrong Overridden Function Bound</tspan><tspan
   fill="#000000"
   font-size="15px"
   x="11.3333"
   y="88"
   id="tspan1892">Wrong Overloaded Function Bound</tspan></text>
      <path
         d="m 0.0929367,-0.320115 1.9375033,0.5625 c 0.04622,0.01342 0.089,0.036693 0.12537,0.068219 l 1.875,1.624996 c 0.01988,0.01723 0.03764,0.03675 0.05293,0.05815 l 1.875,2.625 c 0.00967,0.01354 0.01831,0.02777 0.02585,0.0426 l 1.8125,3.5625 1.824,4.46265 1.69621,5.274 1.5673,5.8913 1.503,6.6371 1.3772,7.1354 1.2516,7.6343 1.0641,8.0728 0.9383,8.4443 1.3136,17.6996 0.4383,18.2042 0.4375,18.1875 1.3117,17.671 0.9364,8.362 1.0617,8.056 1.2485,7.678 1.3733,7.115 1.4977,6.552 1.5599,5.927 1.6821,5.169 1.8041,4.414 -0.0287,-0.055 2.5045,3.871 -0.5597,0.362 -2.5046,-3.87 c -0.0112,-0.018 -0.0208,-0.036 -0.0287,-0.055 l -1.8209,-4.461 -1.6929,-5.206 -1.5651,-5.948 -1.5023,-6.573 -1.3767,-7.135 -1.2515,-7.697 -1.0633,-8.069 -0.9386,-8.388 -1.3133,-17.704 -0.4375,-18.1875 -0.4367,-18.1708 -1.3114,-17.6754 -0.9367,-8.4308 -1.0609,-8.0521 -1.2484,-7.6157 -1.3728,-7.1146 -1.497,-6.6129 -1.5577,-5.8587 -1.67879,-5.226 -1.801,-4.41235 -1.8125,-3.5625 0.02584,0.0426 -1.87499,-2.625 0.05293,0.05815 -1.875,-1.625004 0.12537,0.068219 -1.9374967,-0.5625 z M 37.5702,186.946 l 3.2579,8.33 -8.6186,-2.392 z"
         transform="matrix(1,0,0,-1,245.5,315.776)"
         id="path1896" />
      <path
         d="M 0,401.5 C 0,395.701 4.70106,391 10.5001,391 H 234.5 c 5.799,0 10.5,4.701 10.5,10.5 v 42 c 0,5.799 -4.701,10.5 -10.5,10.5 H 10.5001 C 4.70106,454 0,449.299 0,443.5 Z"
         fill="#f4f2f8"
         fill-rule="evenodd"
         id="path1898" />
      <text
         fill="#7d3368"
         font-family="Calibri, Calibri_MSFontService, sans-serif"
         font-weight="400"
         font-size="15px"
         transform="translate(5.1748,409)"
         id="text1904">Type Fault<tspan
   fill="#000000"
   font-size="15px"
   x="154.5"
   y="17"
   id="tspan1900">Wrong Type</tspan><tspan
   fill="#000000"
   font-size="15px"
   x="55"
   y="35"
   id="tspan1902">Wrong Object Type Resolved</tspan></text>
      <path
         d="M 0.0858876,-0.322078 1.02339,-0.0720783 c 0.03205,0.0085476 0.06265,0.0218303 0.09078,0.0394122 l 1,0.6250001 c 0.0273,0.017062 0.05198,0.037986 0.07328,0.062125 l 0.9375,1.062501 c 0.01067,0.0121 0.02044,0.02493 0.02925,0.03845 l 0.9375,1.4375 0.95644,1.90802 0.94705,2.27086 1.8214,5.52391 1.81823,6.8943 1.69148,8.0792 1.5648,9.137 1.5012,10.1952 1.376,11.07 1.2507,11.8185 1.0631,12.5069 0.9379,13.0668 0.7503,13.5054 0.5628,13.817 0.4377,28.196 0.4375,28.188 0.5623,13.866 0.7497,13.433 0.9372,13.057 1.0621,12.496 1.2494,11.805 1.3743,11.057 1.499,10.18 1.5613,9.18 1.6852,8.05 1.8083,6.795 1.807,5.482 -0.0302,-0.067 1.3973,2.346 -0.5727,0.341 -1.3974,-2.345 c -0.0124,-0.021 -0.0226,-0.044 -0.0302,-0.067 l -1.818,-5.518 -1.8167,-6.83 -1.6898,-8.075 -1.5637,-9.195 -1.501,-10.195 L 25.106,244.098 23.8554,232.278 22.7925,219.774 21.8547,206.706 21.1044,193.264 20.5417,179.38 20.1042,151.193 19.6669,123.014 19.1047,109.206 18.355,95.7114 17.4179,82.6532 16.356,70.1601 15.1067,58.3536 13.7327,47.2986 12.2339,37.1188 10.6737,28.0058 8.99018,19.96 7.18341,13.1043 5.37981,7.62821 4.45186,5.39907 3.5333,3.55709 2.5958,2.11959 2.62505,2.15804 1.68755,1.09554 1.76083,1.15767 0.760834,0.532666 l 0.090778,0.039412 -0.9374996,-0.25 z M 38.8214,293.646 l 2.0067,8.716 -8.177,-3.624 z"
         transform="matrix(1,0,0,-1,245.5,422.862)"
         id="path1906" />
      <text
         font-family="Calibri, Calibri_MSFontService, sans-serif"
         font-weight="400"
         font-size="15px"
         transform="translate(565.84,82)"
         id="text1908">Consequences</text>
      <path
         d="M 490,117.834 C 490,106.88 498.88,98 509.834,98 H 715.166 C 726.12,98 735,106.88 735,117.834 v 79.332 C 735,208.12 726.12,217 715.166,217 H 509.834 C 498.88,217 490,208.12 490,197.166 Z"
         fill="#f4f2f8"
         fill-rule="evenodd"
         id="path1910" />
      <text
         fill="#7d3368"
         font-family="Calibri, Calibri_MSFontService, sans-serif"
         font-weight="400"
         font-size="15px"
         transform="translate(497.881,119)"
         id="text1922">Data Error<tspan
   fill="#000000"
   font-size="15px"
   x="144.16701"
   y="17"
   id="tspan1912">Under Range</tspan><tspan
   fill="#000000"
   font-size="15px"
   x="152.5"
   y="35"
   id="tspan1914">Over Range</tspan><tspan
   fill="#000000"
   font-size="15px"
   x="150"
   y="53"
   id="tspan1916">Flipped Sign</tspan><tspan
   fill="#000000"
   font-size="15px"
   x="141"
   y="70"
   id="tspan1918">Wrong Result</tspan><tspan
   fill="#000000"
   font-size="15px"
   x="141"
   y="88"
   id="tspan1920">Wrap Around</tspan></text>
      <path
         d="m 456.135,121.683 4.501,2.013 c 0.026,0.011 0.05,0.026 0.072,0.043 l 3.062,2.438 c 0.014,0.011 0.027,0.023 0.039,0.036 l 2.625,2.875 c 0.013,0.015 0.025,0.03 0.036,0.047 l 2,3.188 c 0.011,0.018 0.021,0.038 0.029,0.058 l 1.312,3.438 c 0.01,0.025 0.017,0.051 0.02,0.077 l 0.437,3.5 0.438,3.5 -0.02,-0.077 1.313,3.437 -0.029,-0.058 2,3.187 -0.036,-0.047 2.625,2.875 -0.042,-0.039 3.062,2.375 -0.047,-0.03 3.5,1.875 -0.055,-0.024 3.688,1.188 -0.065,-0.014 3.765,0.42 -0.074,0.663 -3.765,-0.421 c -0.023,-0.002 -0.044,-0.007 -0.066,-0.014 l -3.687,-1.187 c -0.019,-0.006 -0.038,-0.014 -0.055,-0.024 l -3.5,-1.875 c -0.017,-0.008 -0.032,-0.019 -0.047,-0.03 l -3.063,-2.375 c -0.015,-0.012 -0.029,-0.025 -0.042,-0.039 l -2.625,-2.875 c -0.013,-0.014 -0.025,-0.03 -0.036,-0.047 l -2,-3.188 c -0.011,-0.018 -0.021,-0.038 -0.029,-0.058 l -1.312,-3.438 c -0.01,-0.025 -0.016,-0.051 -0.02,-0.077 l -0.437,-3.5 -0.438,-3.5 0.02,0.077 -1.313,-3.437 0.029,0.058 -2,-3.187 0.036,0.047 -2.625,-2.875 0.039,0.036 -3.063,-2.437 0.072,0.043 -4.501,-2.012 z m 0.271,4.501 -6.906,-5.684 8.691,-2.114 z"
         id="path1924" />
      <path
         d="m 490,240.333 c 0,-4.05 3.283,-7.333 7.333,-7.333 h 230.334 c 4.05,0 7.333,3.283 7.333,7.333 v 29.334 c 0,4.05 -3.283,7.333 -7.333,7.333 H 497.333 c -4.05,0 -7.333,-3.283 -7.333,-7.333 z"
         fill="#dfdaea"
         fill-rule="evenodd"
         id="path1926" />
      <text
         fill="#7d3368"
         font-family="Calibri, Calibri_MSFontService, sans-serif"
         font-weight="400"
         font-size="15px"
         transform="translate(494.191,250)"
         id="text1930">Type Compute Final Error<tspan
   fill="#000000"
   font-size="15px"
   x="166.33299"
   y="17"
   id="tspan1928">Undefined</tspan></text>
      <path
         d="m 455.211,124.066 2.024,2.01 c 0.02,0.02 0.037,0.042 0.052,0.067 l 1.812,3.062 1.703,3.654 1.572,4.148 1.505,4.576 1.38,4.953 1.253,5.325 2.004,11.457 1.315,12.272 0.44,12.649 0.437,12.625 1.311,12.226 1.997,11.415 1.246,5.294 1.372,4.924 1.495,4.548 1.557,4.047 1.679,3.604 1.797,3.033 1.795,2.474 -0.038,-0.044 1.875,1.813 -0.06,-0.046 1.875,1.125 -0.107,-0.042 1.891,0.371 -0.129,0.654 -1.891,-0.37 c -0.037,-0.008 -0.074,-0.022 -0.107,-0.042 l -1.875,-1.125 c -0.022,-0.013 -0.042,-0.028 -0.06,-0.046 l -1.875,-1.812 c -0.014,-0.014 -0.027,-0.029 -0.038,-0.044 l -1.83,-2.526 -1.828,-3.092 -1.696,-3.646 -1.568,-4.078 -1.505,-4.577 -1.378,-4.951 -1.254,-5.331 -2.003,-11.459 -1.314,-12.274 -0.438,-12.625 -0.435,-12.601 -1.31,-12.229 -1.996,-11.418 -1.247,-5.3 -1.37,-4.922 -1.495,-4.549 -1.553,-4.102 -1.672,-3.596 -1.813,-3.063 0.052,0.067 -2.024,-2.01 z m -1.422,4.283 -4.289,-7.849 8.853,1.278 z"
         id="path1932" />
      <text
         font-family="Calibri, Calibri_MSFontService, sans-serif"
         font-weight="400"
         font-size="15px"
         transform="translate(330.704,82)"
         id="text1934">Operations</text>
      <rect
         x="286.5"
         y="98.500099"
         width="163"
         height="44"
         stroke="#000000"
         stroke-width="0.666667"
         stroke-linejoin="round"
         stroke-miterlimit="10"
         fill="none"
         id="rect1936" />
      <text
         font-family="Calibri, Calibri_MSFontService, sans-serif"
         font-weight="400"
         font-size="15px"
         transform="translate(336.454,116)"
         id="text1942">Calculate<tspan
   font-size="15px"
   x="1.74664"
   y="17"
   id="tspan1938">Evaluate</tspan><tspan
   font-size="15px"
   x="-1.66669"
   y="60"
   id="tspan1940">Operands</tspan></text>
      <rect
         x="286.5"
         y="192.5"
         width="163"
         height="63"
         stroke="#000000"
         stroke-width="0.666667"
         stroke-linejoin="round"
         stroke-miterlimit="10"
         fill="none"
         id="rect1944" />
      <text
         font-family="Calibri, Calibri_MSFontService, sans-serif"
         font-weight="400"
         font-size="15px"
         transform="translate(349.787,211)"
         id="text2000">Data<tspan
   font-size="15px"
   x="-0.5"
   y="17"
   id="tspan1946">Type</tspan><tspan
   font-size="15px"
   x="-3.8333099"
   y="35"
   id="tspan1948">Name</tspan><tspan
   font-size="15px"
   x="-15.9998"
   y="277"
   id="tspan1950">Attributes</tspan><tspan
   fill="#7d3368"
   font-size="15px"
   x="-347.68701"
   y="312"
   id="tspan1952">Execution Space</tspan><tspan
   font-size="15px"
   x="-268.021"
   y="329"
   id="tspan1954">Local</tspan><tspan
   font-size="15px"
   x="-276.521"
   y="347"
   id="tspan1956">Admin</tspan><tspan
   font-size="15px"
   x="-304.68701"
   y="365"
   id="tspan1958">Bare</tspan>-Metal<tspan
   fill="#7d3368"
   font-size="15px"
   x="-194.40601"
   y="312"
   id="tspan1960">Mechanism</tspan><tspan
   font-size="15px"
   x="-136.073"
   y="329"
   id="tspan1962">Function</tspan><tspan
   font-size="15px"
   x="-138.90601"
   y="347"
   id="tspan1964">Operator</tspan><tspan
   font-size="15px"
   x="-132.073"
   y="365"
   id="tspan1966">Method</tspan><tspan
   font-size="15px"
   x="-131.573"
   y="382"
   id="tspan1968">Lambda</tspan><tspan
   font-size="15px"
   x="-148.073"
   y="400"
   id="tspan1970">Expression</tspan><tspan
   font-size="15px"
   x="-146.073"
   y="417"
   id="tspan1972">Procedure</tspan><tspan
   fill="#7d3368"
   font-size="15px"
   x="-41.125702"
   y="312"
   id="tspan1974">Source Code</tspan><tspan
   font-size="15px"
   x="10.7077"
   y="329"
   id="tspan1976">Codebase</tspan><tspan
   font-size="15px"
   x="3.37433"
   y="347"
   id="tspan1978">Third Party</tspan><tspan
   font-size="15px"
   x="15.2077"
   y="365"
   id="tspan1980">Standard</tspan><tspan
   font-size="15px"
   x="14.8743"
   y="382"
   id="tspan1982">Compiler</tspan><tspan
   fill="#7d3368"
   font-size="15px"
   x="112.155"
   y="312"
   id="tspan1984">Data Kind</tspan><tspan
   font-size="15px"
   x="171.32201"
   y="329"
   id="tspan1986">Numeric</tspan><tspan
   font-size="15px"
   x="196.48801"
   y="347"
   id="tspan1988">Text</tspan><tspan
   font-size="15px"
   x="178.655"
   y="365"
   id="tspan1990">Pointer</tspan><tspan
   font-size="15px"
   x="173.48801"
   y="382"
   id="tspan1992">Boolean</tspan><tspan
   fill="#7d3368"
   font-size="15px"
   x="265.436"
   y="312"
   id="tspan1994">Type Kind</tspan><tspan
   font-size="15px"
   x="322.26901"
   y="329"
   id="tspan1996">Primitive</tspan><tspan
   font-size="15px"
   x="319.936"
   y="347"
   id="tspan1998">Structure</tspan></text>
      <path
         d="M 0,669.167 C 0,666.866 1.86552,665 4.16675,665 H 37.8333 C 40.1345,665 42,666.866 42,669.167 v 16.666 C 42,688.134 40.1345,690 37.8333,690 H 4.16675 C 1.86552,690 0,688.134 0,685.833 Z"
         fill="#e8effc"
         fill-rule="evenodd"
         id="path2002" />
      <text
         font-family="Calibri, Calibri_MSFontService, sans-serif"
         font-weight="400"
         font-size="15px"
         transform="translate(44.0945,683)"
         id="text2004">Bug</text>
      <path
         d="m 184,669.167 c 0,-2.301 1.866,-4.167 4.167,-4.167 h 33.666 c 2.301,0 4.167,1.866 4.167,4.167 v 16.666 c 0,2.301 -1.866,4.167 -4.167,4.167 H 188.167 C 185.866,690 184,688.134 184,685.833 Z"
         fill="#f4f2f8"
         fill-rule="evenodd"
         id="path2006" />
      <text
         font-family="Calibri, Calibri_MSFontService, sans-serif"
         font-weight="400"
         font-size="15px"
         transform="translate(227.822,683)"
         id="text2008">Fault/Error</text>
      <path
         d="m 367,669.167 c 0,-2.301 1.866,-4.167 4.167,-4.167 h 33.666 c 2.301,0 4.167,1.866 4.167,4.167 v 16.666 c 0,2.301 -1.866,4.167 -4.167,4.167 H 371.167 C 368.866,690 367,688.134 367,685.833 Z"
         fill="#dfdaea"
         fill-rule="evenodd"
         id="path2010" />
      <text
         font-family="Calibri, Calibri_MSFontService, sans-serif"
         font-weight="400"
         font-size="15px"
         transform="translate(411.549,683)"
         id="text2012">Final Error</text>
      <rect
         x="551.5"
         y="665.5"
         width="42"
         height="25"
         stroke="#000000"
         stroke-width="0.666667"
         stroke-linejoin="round"
         stroke-miterlimit="10"
         fill="none"
         id="rect2014" />
      <text
         font-family="Calibri, Calibri_MSFontService, sans-serif"
         font-weight="400"
         font-size="15px"
         transform="translate(595.276,683)"
         id="text2016">Operation/Operand</text>
    </g>
  </g>
</svg>
