<?xml version="1.0" encoding="UTF-8" standalone="no"?>
<!-- Created with Inkscape (http://www.inkscape.org/) -->

<svg
   width="206.55801mm"
   height="165.65462mm"
   viewBox="0 0 206.55801 165.65462"
   version="1.1"
   id="svg1"
   inkscape:version="1.3.2 (091e20e, 2023-11-25, custom)"
   sodipodi:docname="_DAT Model.svg"
   xmlns:inkscape="http://www.inkscape.org/namespaces/inkscape"
   xmlns:sodipodi="http://sodipodi.sourceforge.net/DTD/sodipodi-0.dtd"
   xmlns="http://www.w3.org/2000/svg"
   xmlns:svg="http://www.w3.org/2000/svg">
  <sodipodi:namedview
     id="namedview1"
     pagecolor="#ffffff"
     bordercolor="#000000"
     borderopacity="0.25"
     inkscape:showpageshadow="2"
     inkscape:pageopacity="0.0"
     inkscape:pagecheckerboard="0"
     inkscape:deskcolor="#d1d1d1"
     inkscape:document-units="mm"
     inkscape:zoom="1.0957185"
     inkscape:cx="645.69502"
     inkscape:cy="504.23534"
     inkscape:window-width="2560"
     inkscape:window-height="1377"
     inkscape:window-x="-8"
     inkscape:window-y="859"
     inkscape:window-maximized="1"
     inkscape:current-layer="layer1" />
  <defs
     id="defs1" />
  <g
     inkscape:label="Layer 1"
     inkscape:groupmode="layer"
     id="layer1"
     transform="translate(-66.336251,-178.75897)">
    <g
       transform="matrix(0.26458333,0,0,0.26458333,148.93263,153.35587)"
       id="g41">
      <path
         d="m -181.5,248.728 c 0,-8.962 7.265,-16.228 16.228,-16.228 h 130.544 c 8.9624,0 16.2279,7.266 16.2279,16.228 v 86.544 c 0,8.963 -7.2655,16.228 -16.2279,16.228 h -130.544 c -8.963,0 -16.228,-7.265 -16.228,-16.228 z"
         stroke="#7b7b7b"
         stroke-width="0.666667"
         stroke-miterlimit="8"
         fill="#f2f2f2"
         fill-rule="evenodd"
         id="path1" />
      <text
         font-family="'Calibri Light', 'Calibri Light_MSFontService', sans-serif"
         font-weight="300"
         font-size="13px"
         transform="translate(-152.231,249)"
         id="text1">DCL (entity)</text>
      <path
         d="m -166.5,268.667 c 0,-2.301 1.865,-4.167 4.167,-4.167 h 58.666 c 2.301,0 4.167,1.866 4.167,4.167 v 16.666 c 0,2.302 -1.866,4.167 -4.167,4.167 h -58.666 c -2.302,0 -4.167,-1.865 -4.167,-4.167 z"
         stroke="#000000"
         stroke-width="0.666667"
         stroke-miterlimit="8"
         fill="#ffffff"
         fill-rule="evenodd"
         id="path2" />
      <text
         font-family="'Calibri Light', 'Calibri Light_MSFontService', sans-serif"
         font-weight="300"
         font-size="13px"
         id="text2"
         x="-152.418"
         y="280">Declare</text>
      <path
         d="m -98.5001,314.667 c 0,-2.301 1.8656,-4.167 4.1668,-4.167 h 58.6665 c 2.3012,0 4.1667,1.866 4.1667,4.167 v 16.666 c 0,2.302 -1.8655,4.167 -4.1667,4.167 h -58.6665 c -2.3012,0 -4.1668,-1.865 -4.1668,-4.167 z"
         stroke="#000000"
         stroke-width="0.666667"
         stroke-miterlimit="8"
         fill="#ffffff"
         fill-rule="evenodd"
         id="path3" />
      <text
         font-family="'Calibri Light', 'Calibri Light_MSFontService', sans-serif"
         font-weight="300"
         font-size="13px"
         id="text3"
         x="-81.619102"
         y="327">Define</text>
      <path
         d="M 0.0206026,-0.332696 3.20448,-0.135531 6.4025,0.44393 C 6.42013,0.447137 6.43749,0.451766 6.45437,0.457761 L 12.598,2.63916 c 0.0201,0.00714 0.0394,0.01619 0.0578,0.02703 l 5.7451,3.38956 c 0.0166,0.00982 0.0324,0.02108 0.0471,0.03363 l 5.1473,4.39632 c 0.0142,0.0121 0.0273,0.0254 0.0392,0.0397 l 4.3504,5.2018 c 0.0123,0.0147 0.0233,0.0305 0.0329,0.0471 l 3.354,5.8059 c 0.0106,0.0182 0.0193,0.0373 0.0263,0.0572 l 2.1585,6.2086 c 0.0058,0.0167 0.0102,0.0337 0.0133,0.051 l 0.1972,1.1068 -0.6563,0.117 -0.1972,-1.1068 0.0133,0.051 -2.1585,-6.2086 0.0262,0.0572 -3.3541,-5.8059 0.033,0.0472 -4.3504,-5.2019 0.0392,0.0397 L 18.015,6.59631 18.0621,6.62993 12.317,3.24037 12.3749,3.2674 6.23131,1.086 6.28318,1.09983 3.16327,0.529861 -0.0206026,0.332696 Z M 33.4389,29.0623 37.133,25.9858 34.0056,34.3655 29.1783,26.8357 Z"
         fill="#454545"
         transform="matrix(0,1,1,0,-133.5,289.5)"
         id="path4" />
      <path
         d="m -17.5001,367.592 c 0,-8.888 7.2045,-16.092 16.09163,-16.092 H 128.408 c 8.888,0 16.092,7.204 16.092,16.092 v 85.816 c 0,8.888 -7.204,16.092 -16.092,16.092 H -1.40847 c -8.88713,0 -16.09163,-7.204 -16.09163,-16.092 z"
         stroke="#7b7b7b"
         stroke-width="0.666667"
         stroke-miterlimit="8"
         fill="#f2f2f2"
         fill-rule="evenodd"
         id="path5" />
      <text
         font-family="'Calibri Light', 'Calibri Light_MSFontService', sans-serif"
         font-weight="300"
         font-size="13px"
         transform="translate(-4.09207,368)"
         id="text5">NRS</text>
      <path
         d="m -5.50005,387.667 c 0,-2.301 1.8655,-4.167 4.16671,-4.167 H 58.3333 c 2.3012,0 4.1667,1.866 4.1667,4.167 v 16.666 c 0,2.302 -1.8655,4.167 -4.1667,4.167 H -1.33334 c -2.30121,0 -4.16671,-1.865 -4.16671,-4.167 z"
         stroke="#cc00ff"
         stroke-width="0.666667"
         stroke-miterlimit="8"
         fill="#ffffff"
         fill-rule="evenodd"
         id="path6" />
      <text
         font-family="'Calibri Light', 'Calibri Light_MSFontService', sans-serif"
         font-weight="300"
         font-size="13px"
         id="text6"
         x="15.3232"
         y="399.80713">Refer</text>
      <path
         d="m 64.5001,433.667 c 0,-2.301 1.8655,-4.167 4.1667,-4.167 h 59.6662 c 2.302,0 4.167,1.866 4.167,4.167 v 16.666 c 0,2.301 -1.865,4.167 -4.167,4.167 H 68.6668 c -2.3012,0 -4.1667,-1.866 -4.1667,-4.167 z"
         stroke="#008080"
         stroke-width="0.666667"
         stroke-miterlimit="8"
         fill="#ffffff"
         fill-rule="evenodd"
         id="path7" />
      <text
         font-family="'Calibri Light', 'Calibri Light_MSFontService', sans-serif"
         font-weight="300"
         font-size="13px"
         transform="translate(88.2014,446)"
         id="text7">Call</text>
      <path
         d="M 0.0216447,-0.33263 3.23497,-0.123535 6.46409,0.491181 c 0.01837,0.003511 0.03641,0.008563 0.05394,0.0151 L 12.7184,2.81967 c 0.0206,0.00769 0.0405,0.01741 0.0592,0.029 l 5.7982,3.59466 c 0.0166,0.01034 0.0324,0.02212 0.047,0.03523 l 5.1949,4.66234 c 0.0138,0.0124 0.0266,0.026 0.0382,0.0405 l 4.3905,5.5166 c 0.0118,0.0147 0.0223,0.0305 0.0313,0.047 l 3.3851,6.1572 c 0.0098,0.0178 0.018,0.0365 0.0244,0.0558 l 2.1785,6.5843 c 0.0053,0.016 0.0094,0.0324 0.0122,0.049 l 0.2525,1.4897 -0.6572,0.1115 -0.2526,-1.4898 0.0122,0.049 -2.1785,-6.5843 0.0243,0.0559 -3.3851,-6.1571 0.0313,0.0469 -4.3905,-5.5165 0.0381,0.0405 -5.1949,-4.66239 0.047,0.03523 -5.7982,-3.59466 0.0591,0.029 L 6.28498,1.13089 6.33891,1.14599 3.19168,0.541725 -0.0216447,0.33263 Z M 33.8018,31.1367 37.5237,28.094 34.3201,36.4448 29.5616,28.8714 Z"
         fill="#454545"
         transform="matrix(0,1,1,0,28.5001,408.5)"
         id="path8" />
      <path
         d="m -23.0486,411.199 -2.3302,-0.104 -7.6268,-0.999 -7.5053,-1.613 -7.3239,-2.182 -7.083,-2.707 -6.7824,-3.19 -6.4223,-3.627 -6.0024,-4.022 -5.523,-4.374 -4.9836,-4.683 -4.3846,-4.947 -3.7252,-5.17 -3.0056,-5.351 -2.2249,-5.487 c -0.006,-0.015 -0.0109,-0.03 -0.0147,-0.046 l -1.3679,-5.536 c -0.0042,-0.018 -0.0071,-0.035 -0.0085,-0.052 l -0.0224,-0.266 0.6643,-0.056 0.0224,0.266 -0.0086,-0.052 1.3679,5.537 -0.0146,-0.046 2.1883,5.412 2.9653,5.287 3.6833,5.118 4.342,4.904 4.9411,4.645 5.4802,4.343 5.9592,3.995 6.378,3.605 6.7368,3.17 7.0353,2.691 7.2737,2.169 7.4518,1.604 7.5698,0.994 2.3302,0.104 z m 0.0149,-0.333 -2.4856,-4.115 7.8136,4.353 -8.1705,3.639 z m -76.0194,-54.051 -3.7629,2.992 3.316,-8.307 4.6562,7.637 z"
         fill="#454545"
         id="path9" />
      <path
         d="m 271.476,631.63 -3.025,-0.093 -8.36,-0.76 -8.326,-1.247 -8.276,-1.718 -8.21,-2.172 -8.128,-2.611 -8.029,-3.032 -7.914,-3.438 -7.782,-3.828 -7.635,-4.2 -14.756,-9.452 -13.976,-10.752 -13.06,-11.921 -12.013,-12.958 -10.837,-13.868 -9.529,-14.648 -4.237,-7.583 -3.857,-7.722 -3.465,-7.853 -3.056,-7.968 -2.632,-8.065 -2.19,-8.147 -1.732,-8.213 -1.2575,-8.262 -0.7669,-8.296 -0.2597,-8.313 0.6663,-0.02 0.2572,8.272 0.7622,8.256 1.2514,8.225 1.723,8.178 2.18,8.113 2.62,8.034 3.044,7.936 3.451,7.825 3.843,7.695 4.214,7.544 9.496,14.601 10.8,13.825 11.974,12.92 13.017,11.885 13.929,10.719 14.717,9.429 7.608,4.186 7.754,3.814 7.884,3.426 7.997,3.021 8.094,2.601 8.175,2.164 8.24,1.712 8.287,1.242 8.32,0.758 3.025,0.093 z m 0.01,-0.333 -2.543,-4.08 7.874,4.243 -8.119,3.753 z"
         fill="#454545"
         id="path10" />
      <path
         d="m -244.5,703.167 h 639.61 v 0.666 H -244.5 Z m 639.608,0.333 -2.666,-4 8,4 -8,4 z"
         id="path11" />
      <path
         d="m 144.5,483.592 c 0,-7.231 5.861,-13.092 13.092,-13.092 h 69.817 c 7.23,0 13.091,5.861 13.091,13.092 v 80.817 c 0,7.23 -5.861,13.091 -13.091,13.091 h -69.817 c -7.231,0 -13.092,-5.861 -13.092,-13.091 z"
         stroke="#7b7b7b"
         stroke-width="0.666667"
         stroke-miterlimit="8"
         fill="#f2f2f2"
         fill-rule="evenodd"
         id="path12" />
      <text
         font-family="'Calibri Light', 'Calibri Light_MSFontService', sans-serif"
         font-weight="300"
         font-size="13px"
         transform="translate(159.234,485)"
         id="text12">TCV (object)</text>
      <path
         d="m 159.5,504.667 c 0,-2.301 1.866,-4.167 4.167,-4.167 h 58.666 c 2.302,0 4.167,1.866 4.167,4.167 v 16.666 c 0,2.302 -1.865,4.167 -4.167,4.167 h -58.666 c -2.301,0 -4.167,-1.865 -4.167,-4.167 z"
         stroke="#000000"
         stroke-width="0.666667"
         stroke-miterlimit="8"
         fill="#ffffff"
         fill-rule="evenodd"
         id="path13" />
      <text
         font-family="'Calibri Light', 'Calibri Light_MSFontService', sans-serif"
         font-weight="300"
         font-size="13px"
         id="text13"
         x="182.17073"
         y="516.80713">Cast</text>
      <path
         d="m 159.5,540.667 c 0,-2.301 1.866,-4.167 4.167,-4.167 h 58.666 c 2.302,0 4.167,1.866 4.167,4.167 v 16.666 c 0,2.302 -1.865,4.167 -4.167,4.167 h -58.666 c -2.301,0 -4.167,-1.865 -4.167,-4.167 z"
         stroke="#000000"
         stroke-width="0.666667"
         stroke-miterlimit="8"
         fill="#ffffff"
         fill-rule="evenodd"
         id="path14" />
      <text
         font-family="'Calibri Light', 'Calibri Light_MSFontService', sans-serif"
         font-weight="300"
         font-size="13px"
         id="text14"
         x="175.23801"
         y="553">Coerce</text>
      <path
         d="m 276.5,591.319 c 0,-7.08 5.739,-12.819 12.819,-12.819 h 68.362 c 7.08,0 12.819,5.739 12.819,12.819 v 82.362 c 0,7.08 -5.739,12.819 -12.819,12.819 h -68.362 c -7.08,0 -12.819,-5.739 -12.819,-12.819 z"
         stroke="#7b7b7b"
         stroke-width="0.666667"
         stroke-miterlimit="8"
         fill="#f2f2f2"
         fill-rule="evenodd"
         id="path15" />
      <text
         font-family="'Calibri Light', 'Calibri Light_MSFontService', sans-serif"
         font-weight="300"
         font-size="13px"
         transform="translate(288.416,594)"
         id="text15">TCM (object)</text>
      <path
         d="m 290.5,613.667 c 0,-2.301 1.866,-4.167 4.167,-4.167 h 58.666 c 2.302,0 4.167,1.866 4.167,4.167 v 16.666 c 0,2.302 -1.865,4.167 -4.167,4.167 h -58.666 c -2.301,0 -4.167,-1.865 -4.167,-4.167 z"
         stroke="#000000"
         stroke-width="0.666667"
         stroke-miterlimit="8"
         fill="#ffffff"
         fill-rule="evenodd"
         id="path16" />
      <text
         font-family="'Calibri Light', 'Calibri Light_MSFontService', sans-serif"
         font-weight="300"
         font-size="13px"
         id="text16"
         x="299.91898"
         y="626.16144">Calculate</text>
      <path
         d="m 290.5,650.667 c 0,-2.301 1.866,-4.167 4.167,-4.167 h 58.666 c 2.302,0 4.167,1.866 4.167,4.167 v 16.666 c 0,2.302 -1.865,4.167 -4.167,4.167 h -58.666 c -2.301,0 -4.167,-1.865 -4.167,-4.167 z"
         stroke="#000000"
         stroke-width="0.666667"
         stroke-miterlimit="8"
         fill="#ffffff"
         fill-rule="evenodd"
         id="path17" />
      <text
         font-family="'Calibri Light', 'Calibri Light_MSFontService', sans-serif"
         font-weight="300"
         font-size="13px"
         id="text17"
         x="302.15323"
         y="663.12994">Evaluate</text>
      <path
         d="m 153.562,548.91 -2.666,-0.07 0.018,-0.667 2.665,0.07 z m -4.665,-0.123 -2.666,-0.07 0.018,-0.667 2.665,0.071 z m -4.68,-0.163 -2.659,-0.208 0.052,-0.664 2.658,0.207 z m -4.653,-0.363 -2.658,-0.208 0.051,-0.664 2.659,0.207 z m -4.652,-0.363 -2.659,-0.208 0.052,-0.664 2.658,0.207 z m -4.665,-0.408 -2.645,-0.34 0.085,-0.661 2.645,0.34 z m -4.629,-0.595 -2.645,-0.34 0.085,-0.661 2.645,0.34 z m -4.628,-0.595 -2.645,-0.339 0.085,-0.662 2.645,0.34 z m -4.638,-0.642 -2.625,-0.467 0.117,-0.657 2.625,0.468 z m -4.594,-0.818 -2.626,-0.467 0.117,-0.657 2.625,0.468 z m -4.595,-0.818 -2.625,-0.467 0.117,-0.657 2.625,0.468 z m -4.6,-0.867 -2.6007,-0.59 0.1477,-0.651 2.6,0.591 z m -4.5511,-1.033 -2.6006,-0.59 0.1476,-0.65 2.6005,0.59 z m -4.551,-1.033 -2.6005,-0.59 0.1475,-0.65 2.6005,0.59 z m -4.5541,-1.082 -2.571,-0.708 0.1771,-0.643 2.5709,0.708 z m -4.4991,-1.24 -2.5709,-0.708 0.177,-0.643 2.5709,0.709 z m -4.4991,-1.239 -2.5709,-0.708 0.177,-0.643 2.5709,0.708 z m -4.4999,-1.288 -2.5369,-0.822 0.2055,-0.634 2.5369,0.821 z m -4.4396,-1.438 -2.5369,-0.822 0.2055,-0.634 2.5369,0.821 z m -4.4395,-1.438 -2.5369,-0.822 0.2054,-0.634 2.5369,0.821 z m -4.4382,-1.486 -2.4989,-0.931 0.2327,-0.625 2.4989,0.931 z m -4.3731,-1.63 -2.4989,-0.931 0.2328,-0.624 2.4989,0.931 z m -4.373,-1.629 -2.4989,-0.931 0.2327,-0.625 2.4989,0.931 z m -4.3699,-1.675 -2.457,-1.037 0.259,-0.614 2.4571,1.036 z m -4.2999,-1.814 -2.4571,-1.036 0.2591,-0.614 2.4571,1.036 z m -4.2999,-1.813 -2.4571,-1.037 0.2591,-0.614 2.4571,1.036 z m -4.2951,-1.859 -2.4117,-1.138 0.2845,-0.602 2.4117,1.137 z m -4.2205,-1.991 -2.4117,-1.138 0.2844,-0.603 2.4118,1.138 z m -4.2205,-1.991 -2.4117,-1.138 0.2844,-0.603 2.4118,1.138 z m -4.2141,-2.035 -2.3629,-1.236 0.309,-0.591 2.3629,1.236 z m -4.1351,-2.163 -2.3629,-1.236 0.309,-0.591 2.3629,1.236 z m -4.1351,-2.163 -2.3629,-1.236 0.309,-0.591 2.3629,1.236 z M 11.0285,508.908 8.71782,507.577 9.0506,507 l 2.3107,1.331 z m -4.04367,-2.329 -2.31067,-1.331 0.33278,-0.578 2.31067,1.331 z m -4.04367,-2.33 -2.310667,-1.331 0.332779,-0.577 2.310668,1.331 z m -4.03283,-2.373 -2.25498,-1.424 0.35585,-0.563 2.254975,1.423 z m -3.94622,-2.491 -2.25497,-1.424 0.35585,-0.563 2.25497,1.423 z m -3.94621,-2.491 -2.255,-1.424 0.3559,-0.563 2.25495,1.423 z m -3.9319,-2.537 -2.1957,-1.514 0.3782,-0.548 2.1958,1.513 z m -3.8425,-2.648 -2.1958,-1.514 0.3783,-0.549 2.1958,1.514 z m -3.8426,-2.649 -2.1957,-1.513 0.3783,-0.549 2.1957,1.513 z m -3.8233,-2.698 -2.1328,-1.6 0.4002,-0.533 2.1328,1.6 z m -3.7324,-2.801 -2.1327,-1.601 0.4001,-0.533 2.1328,1.601 z m -3.7323,-2.801 -2.1328,-1.601 0.4002,-0.533 2.1327,1.601 z m -3.7061,-2.857 -2.0659,-1.686 0.4216,-0.517 2.0659,1.687 z m -3.6153,-2.951 -2.0659,-1.686 0.4215,-0.516 2.0659,1.686 z m -3.6154,-2.951 -2.0659,-1.686 0.4216,-0.516 2.0659,1.686 z m -3.5791,-3.014 -1.9948,-1.77 0.4424,-0.498 1.9948,1.769 z m -3.4909,-3.097 -1.9948,-1.77 0.4424,-0.498 1.9948,1.769 z m -3.4909,-3.097 -1.9076,-1.692 -0.0941,-0.091 0.4628,-0.48 0.0737,0.072 1.9076,1.692 z m -3.4411,-3.171 -1.9191,-1.852 0.4628,-0.48 1.9192,1.852 z m -3.3585,-3.24 -1.9191,-1.852 0.4629,-0.48 1.9191,1.852 z m -3.3585,-3.241 -1.4972,-1.444 -0.4142,-0.435 0.4829,-0.459 0.3942,0.414 1.4972,1.445 z m -3.2902,-3.327 -1.8385,-1.932 0.4829,-0.46 1.8385,1.932 z m -3.2174,-3.381 -1.8385,-1.931 0.4829,-0.46 1.8385,1.932 z m -3.2173,-3.38 -1.0313,-1.084 -0.7792,-0.893 0.5025,-0.438 0.7596,0.872 1.0313,1.083 z m -3.1248,-3.484 -1.7523,-2.011 0.5025,-0.438 1.7523,2.01 z m -3.0666,-3.518 -1.7524,-2.01 0.5025,-0.438 1.7524,2.01 z m -3.0666,-3.518 -0.5165,-0.592 -1.1805,-1.483 0.5216,-0.415 1.1614,1.46 0.5165,0.592 z m -2.9422,-3.64 -1.6603,-2.087 0.5217,-0.415 1.6602,2.086 z m -2.9055,-3.652 -1.6603,-2.087 0.5217,-0.415 1.6603,2.087 z m -2.9127,-3.666 -1.5616,-2.162 0.5404,-0.39 1.5616,2.161 z m -2.7328,-3.783 -1.5616,-2.162 0.5404,-0.39 1.5616,2.162 z m -2.7328,-3.783 -1.5616,-2.161 0.5404,-0.391 1.5616,2.162 z m -2.7004,-3.824 -1.4558,-2.234 0.559,-0.364 1.4554,2.234 z m -2.5478,-3.91 -1.456,-2.234 0.559,-0.364 1.456,2.234 z m -2.547,-3.91 -1.359,-2.084 -0.098,-0.169 0.576,-0.336 0.081,0.141 1.358,2.084 z m -2.464,-3.981 -1.342,-2.305 0.576,-0.335 1.342,2.304 z m -2.349,-4.033 -1.342,-2.304 0.576,-0.336 1.342,2.305 z m -2.348,-4.032 -0.606,-1.04 -0.678,-1.317 0.593,-0.305 0.661,1.286 0.606,1.04 z m -2.199,-4.135 -1.22,-2.371 0.593,-0.305 1.22,2.371 z m -2.135,-4.15 -1.22,-2.371 0.593,-0.305 1.22,2.371 z m -2.132,-4.171 -1.088,-2.434 0.608,-0.273 1.089,2.435 z m -1.905,-4.26 -1.089,-2.434 0.609,-0.273 1.088,2.435 z m -1.906,-4.26 -1.089,-2.434 0.609,-0.272 1.089,2.434 z m -1.817,-4.317 -0.948,-2.492 0.623,-0.237 0.948,2.492 z m -1.659,-4.362 -0.948,-2.492 0.623,-0.237 0.948,2.492 z m -1.659,-4.361 -0.4,-1.052 -0.468,-1.49 0.636,-0.199 0.455,1.452 0.4,1.051 z m -1.466,-4.45 -0.798,-2.545 0.637,-0.199 0.797,2.544 z m -1.396,-4.453 -0.797,-2.545 0.636,-0.199 0.797,2.544 z m -1.357,-4.486 -0.637,-2.589 0.648,-0.16 0.637,2.59 z m -1.114,-4.532 -0.637,-2.589 0.648,-0.159 0.636,2.589 z m -1.114,-4.531 -0.469,-1.907 -0.128,-0.714 0.657,-0.116 0.118,0.671 0.469,1.906 z m -0.946,-4.59 -0.466,-2.626 0.656,-0.116 0.466,2.626 z m -0.815,-4.595 -0.466,-2.626 0.656,-0.116 0.466,2.626 z m -0.812,-4.618 -0.286,-2.652 0.663,-0.071 0.286,2.651 z m -0.5,-4.64 -0.286,-2.651 0.663,-0.072 0.286,2.652 z m -0.5,-4.64 -0.26,-2.413 -0.01,-0.263 0.666,-0.024 0.007,0.215 0.26,2.414 z m -0.343,-4.675 -0.097,-2.665 0.666,-0.024 0.097,2.665 z m -0.169,-4.663 -0.097,-2.665 0.666,-0.024 0.097,2.664 z m -0.17,-4.664 -0.009,-0.254 0.666,-0.024 0.009,0.254 z m 291.395,251.811 -2.561,-4.069 7.892,4.209 -8.102,3.788 z"
         fill="#008080"
         id="path18" />
      <path
         d="m 271.304,632.582 -2.553,-0.132 -7.849,-1.191 -7.724,-1.922 -7.537,-2.601 -7.289,-3.226 -6.978,-3.801 -6.608,-4.323 -6.174,-4.793 -5.681,-5.211 -5.125,-5.578 -4.508,-5.892 -3.83,-6.157 -3.088,-6.368 -2.285,-6.529 -1.418,-6.639 -0.489,-6.695 0.665,-0.048 0.476,6.604 1.396,6.558 2.255,6.458 3.055,6.308 3.792,6.103 4.47,5.846 5.085,5.538 5.638,5.175 6.131,4.762 6.562,4.295 6.929,3.777 7.236,3.206 7.481,2.584 7.663,1.91 7.784,1.185 2.552,0.132 z m 0.017,-0.332 -2.456,-4.133 7.782,4.408 -8.196,3.581 z"
         fill="#454545"
         id="path19" />
      <path
         d="m 153.805,513.222 -5.327,-0.262 0.033,-0.666 5.327,0.262 z m -7.352,-0.402 -5.279,-0.761 0.095,-0.66 5.279,0.761 z m -7.258,-1.047 -4.463,-0.643 -0.832,-0.195 0.154,-0.649 0.773,0.184 4.463,0.643 z m -7.241,-1.298 -5.19,-1.227 0.153,-0.649 5.19,1.227 z m -7.137,-1.687 -2.06,-0.487 -3.083,-1.009 0.207,-0.634 3.03,0.994 2.06,0.487 z m -7.044,-2.119 -5.068,-1.66 0.207,-0.634 5.069,1.661 z m -6.986,-2.314 -4.917,-2.067 0.258,-0.614 4.917,2.066 z m -6.761,-2.842 -4.2548,-1.788 -0.6613,-0.341 0.3062,-0.592 0.6139,0.318 4.255,1.789 z m -6.6927,-3.047 -4.7375,-2.45 0.3062,-0.592 4.7375,2.449 z m -6.5141,-3.369 -1.8689,-0.966 -2.7661,-1.717 0.3517,-0.566 2.7206,1.691 1.8689,0.966 z m -6.334,-3.738 -4.5307,-2.814 0.3518,-0.566 4.5306,2.814 z m -6.228,-3.918 -4.2937,-3.164 0.3954,-0.537 4.2937,3.164 z m -5.9038,-4.35 -3.2235,-2.376 -1.0237,-0.889 0.4378,-0.503 0.9813,0.856 3.2235,2.375 z m -5.7555,-4.579 -4.0221,-3.502 0.4378,-0.503 4.0221,3.502 z m -5.5304,-4.816 -0.7463,-0.65 -3.0417,-3.14 0.479,-0.464 3.0005,3.102 0.7463,0.65 z m -5.179,-5.227 -3.5142,-3.631 -0.1961,-0.241 0.5191,-0.418 0.156,0.196 3.5142,3.63 z m -4.9653,-5.429 -3.3465,-4.153 0.5191,-0.418 3.3465,4.153 z m -4.6014,-5.71 -0.9369,-1.163 -2.1237,-3.239 0.5577,-0.365 2.0851,3.186 0.9369,1.162 z m -4.1566,-6.075 -2.7164,-4.146 -0.1892,-0.366 0.5938,-0.303 0.1531,0.304 2.7164,4.146 z m -3.8151,-6.293 -2.4255,-4.75 0.5937,-0.303 2.4255,4.749 z m -3.3351,-6.532 -0.3528,-0.69 -1.5912,-4.313 0.6255,-0.231 1.5595,4.24 0.3527,0.691 z m -2.6354,-6.88 -1.2578,-3.415 -0.384,-1.695 0.6505,-0.146 0.359,1.611 1.2579,3.414 z m -2.0803,-7.061 -1.1695,-5.204 0.6504,-0.146 1.1695,5.203 z m -1.5018,-7.209 -0.4392,-3.838 -0.0587,-1.495 0.6662,-0.025 0.0548,1.444 0.4393,3.838 z m -0.5751,-7.331 -0.0554,-1.436 0.6661,-0.026 0.0555,1.436 z m 125.5986,102.94 -2.467,-4.126 7.794,4.387 -8.186,3.603 z"
         fill="#0000ff"
         id="path20" />
      <path
         d="m -94.1622,276.249 2.6663,0.04 -0.0102,0.667 -2.6664,-0.041 z m 4.6661,0.071 0.6666,0.01 -0.0103,0.667 -0.6665,-0.01 z m 2.6663,0.041 2.6664,0.041 -0.0102,0.667 -2.6664,-0.041 z m 4.6662,0.072 0.6665,0.01 -0.0102,0.666 -0.6666,-0.01 z m 2.6663,0.041 2.2161,0.034 0.4598,0.02 -0.0301,0.666 -0.44,-0.02 -2.216,-0.034 z m 4.6738,0.144 0.666,0.03 -0.03,0.666 -0.666,-0.03 z m 2.664,0.12 2.6639,0.12 -0.03,0.666 -2.6639,-0.12 z m 4.6619,0.21 0.666,0.03 -0.03,0.666 -0.666,-0.03 z m 2.664,0.12 2.6639,0.121 -0.03,0.665 -2.6639,-0.12 z m 4.6619,0.211 0.666,0.03 -0.03,0.666 -0.666,-0.03 z m 2.664,0.12 2.2763,0.102 0.3965,0.029 -0.0491,0.665 -0.3775,-0.028 -2.2762,-0.102 z m 4.6674,0.279 0.6648,0.049 -0.0491,0.665 -0.6648,-0.049 z m 2.6594,0.196 2.6594,0.197 -0.0491,0.664 -2.6594,-0.196 z m 4.654,0.344 0.6649,0.049 -0.0492,0.665 -0.6648,-0.049 z m 2.6594,0.196 2.6594,0.197 -0.0491,0.665 -2.6594,-0.197 z m 4.654,0.344 0.6649,0.049 -0.0491,0.665 -0.6649,-0.049 z m 2.6594,0.197 2.0246,0.149 0.6427,0.066 -0.068,0.663 -0.6238,-0.064 -2.0246,-0.149 z m 4.6569,0.419 0.6632,0.068 -0.068,0.663 -0.6632,-0.068 z m 2.6527,0.271 2.6528,0.272 -0.0679,0.663 -2.6528,-0.272 z m 4.6424,0.476 0.6632,0.068 -0.0679,0.663 -0.6632,-0.068 z m 2.6528,0.271 2.6528,0.272 -0.0679,0.663 -2.6528,-0.271 z m 4.6424,0.476 0.6632,0.068 -0.0679,0.663 -0.6632,-0.068 z m 2.6528,0.271 1.305,0.134 1.3528,0.178 -0.0869,0.661 -1.3338,-0.176 -1.305,-0.133 z m 4.64073,0.572 0.66099,0.087 -0.08684,0.661 -0.66098,-0.087 z m 2.64395,0.347 2.64395,0.348 -0.08684,0.661 -2.64395,-0.348 z m 4.62691,0.608 0.66098,0.087 -0.08684,0.661 -0.66098,-0.087 z m 2.643946,0.348 2.643944,0.347 -0.08683,0.661 -2.643952,-0.347 z m 4.626914,0.608 0.66098,0.086 -0.08684,0.661 -0.66098,-0.086 z m 2.65355,0.349 2.6325,0.426 -0.1063,0.658 -2.63255,-0.425 z m 4.6069,0.745 0.6581,0.106 -0.1063,0.658 -0.6582,-0.106 z m 2.6325,0.425 2.6325,0.426 -0.1063,0.658 -2.6325,-0.426 z m 4.6069,0.745 0.6581,0.106 -0.1063,0.658 -0.6581,-0.106 z m 2.6325,0.425 2.6325,0.426 -0.1063,0.658 -2.6325,-0.426 z m 4.6069,0.745 0.4856,0.078 0.1819,0.035 -0.127,0.655 -0.1612,-0.032 -0.4856,-0.078 z m 2.6309,0.494 2.6178,0.509 -0.1271,0.654 -2.6178,-0.508 z m 4.5811,0.89 0.6545,0.127 -0.1271,0.654 -0.6544,-0.127 z m 2.6178,0.508 2.6178,0.508 -0.127,0.654 -2.6178,-0.508 z m 4.5812,0.889 0.6544,0.127 -0.127,0.655 -0.6544,-0.127 z m 2.6178,0.508 2.0317,0.395 0.5931,0.136 -0.1496,0.65 L 46.201,291.394 44.1693,291 Z m 4.5738,0.98 0.6496,0.15 -0.1496,0.649 -0.6496,-0.149 z m 2.5986,0.598 2.5987,0.599 -0.1496,0.649 -2.5987,-0.598 z m 4.5477,1.048 0.6496,0.149 -0.1496,0.65 -0.6497,-0.15 z m 2.5986,0.598 2.5987,0.599 -0.1497,0.649 -2.5986,-0.598 z m 4.5476,1.047 0.5247,0.121 0.1335,0.035 -0.1684,0.645 -0.1147,-0.03 -0.5247,-0.121 z m 2.5934,0.661 2.5802,0.674 -0.1684,0.645 -2.5802,-0.674 z m 4.5153,1.179 0.6451,0.168 -0.1684,0.645 -0.645,-0.168 z m 2.5814,0.696 2.5653,0.728 -0.182,0.641 -2.5654,-0.728 z m 4.4893,1.274 0.6413,0.182 -0.182,0.642 -0.6414,-0.182 z m 2.571,0.736 2.5478,0.788 -0.1969,0.637 -2.5477,-0.788 z m 4.4586,1.379 0.6369,0.196 -0.1969,0.637 -0.6369,-0.197 z m 2.5477,0.787 0.1529,0.047 2.3832,0.805 -0.2132,0.631 -2.3668,-0.799 -0.153,-0.047 z m 4.431,1.491 0.6317,0.213 -0.2132,0.632 -0.6316,-0.213 z m 2.5267,0.853 0.194,0.065 2.3181,0.857 -0.2312,0.626 -2.3,-0.851 -0.1941,-0.066 z m 4.388,1.616 0.6252,0.231 -0.2312,0.625 -0.6253,-0.231 z m 2.5099,0.933 2.469,1.006 -0.251,0.617 -2.47,-1.006 z m 4.322,1.76 0.617,0.252 -0.251,0.617 -0.618,-0.251 z m 2.468,1.041 2.43,1.098 -0.274,0.607 -2.431,-1.097 z m 4.253,1.921 0.562,0.254 0.058,0.028 -0.301,0.595 -0.031,-0.016 -0.562,-0.254 z m 2.405,1.184 2.38,1.202 -0.3,0.596 -2.381,-1.203 z m 4.157,2.157 0.578,0.331 -0.331,0.579 -0.578,-0.331 z m 2.314,1.324 1.438,0.822 0.862,0.566 -0.366,0.557 -0.827,-0.544 -1.437,-0.823 z m 3.971,2.487 0.557,0.366 -0.366,0.557 -0.557,-0.366 z m 2.212,1.531 2.11,1.632 -0.408,0.527 -2.109,-1.632 z m 3.65,2.953 0.486,0.457 -0.456,0.486 -0.486,-0.457 z m 1.944,1.826 0.183,0.171 1.577,1.883 -0.512,0.428 -1.521,-1.825 -0.183,-0.171 z m 2.968,3.704 0.345,0.571 -0.571,0.345 -0.345,-0.571 z m 1.359,2.363 0.917,2.505 -0.626,0.229 -0.917,-2.504 z m 1.186,4.562 0.081,0.661 -0.661,0.082 -0.082,-0.661 z m -0.04,2.721 -0.207,2.659 -0.664,-0.052 0.207,-2.658 z m -0.504,4.681 -0.149,0.65 -0.65,-0.149 0.149,-0.65 z m -0.595,2.599 -0.461,2.017 -0.223,0.603 -0.625,-0.235 0.198,-0.517 0.461,-2.016 z m -1.387,4.492 -0.234,0.624 -0.624,-0.234 0.234,-0.624 z m -0.936,2.497 -0.188,0.502 -1,1.927 -0.591,-0.308 0.966,-1.854 0.188,-0.501 z m -2.111,4.203 -0.307,0.592 -0.592,-0.308 0.308,-0.591 z m -1.325,2.352 -1.48,2.218 -0.555,-0.37 1.48,-2.218 z m -2.59,3.882 -0.37,0.555 -0.555,-0.37 0.37,-0.555 z m -1.658,2.127 -1.692,2.062 -0.515,-0.423 1.692,-2.062 z m -3.002,3.611 -0.468,0.475 -0.475,-0.468 0.468,-0.475 z m -1.872,1.9 -1.872,1.899 -0.475,-0.468 1.872,-1.899 z m -3.361,3.273 -0.507,0.433 -0.433,-0.507 0.506,-0.433 z m -2.027,1.733 -2.027,1.733 -0.433,-0.507 2.027,-1.733 z m -3.657,2.937 -0.54,0.391 -0.391,-0.541 0.54,-0.39 z m -2.16,1.563 -1.928,1.395 -0.267,0.164 -0.347,-0.569 0.223,-0.135 1.928,-1.395 z m -3.903,2.6 -0.569,0.347 -0.347,-0.569 0.569,-0.347 z m -2.276,1.389 -1.68,1.024 -0.646,0.329 -0.302,-0.594 0.601,-0.304 1.68,-1.024 z m -4.109,2.259 -0.5948,0.302 -0.3018,-0.595 0.5946,-0.302 z m -2.3781,1.207 -1.4561,0.739 -0.9791,0.406 -0.2544,-0.616 0.9317,-0.384 1.4561,-0.739 z m -4.2839,1.908 -0.6163,0.254 -0.2543,-0.616 0.6162,-0.254 z m -2.465,1.017 -1.248,0.515 -1.2783,0.413 -0.2042,-0.635 1.2281,-0.394 1.2481,-0.515 z m -4.4302,1.54 -0.6346,0.205 -0.2042,-0.635 0.6346,-0.204 z m -2.5385,0.817 -1.0428,0.336 -1.5573,0.362 -0.1507,-0.649 1.5038,-0.348 1.0428,-0.336 z m -4.5483,1.15 -0.6494,0.151 -0.1507,-0.649 0.6494,-0.151 z m -2.5976,0.603 -0.8279,0.192 -1.8275,0.26 -0.0935,-0.66 1.7703,-0.249 0.8278,-0.192 z m -4.6356,0.733 -0.6601,0.093 -0.0935,-0.66 0.6601,-0.093 z m -2.6404,0.374 -0.5954,0.084 -2.0936,0.102 -0.0321,-0.665 2.0322,-0.097 0.5955,-0.084 z m -4.6867,0.283 -0.6658,0.032 -0.0321,-0.666 0.6659,-0.032 z m -2.6635,0.128 -0.3461,0.017 -0.0321,-0.666 0.3461,-0.017 z m -156.7706,-119.031 2.605,4.04 -7.9377,-4.122 8.0605,-3.877 z"
         fill="#9900ff"
         id="path21" />
      <text
         font-family="'Calibri Light', 'Calibri Light_MSFontService', sans-serif"
         font-weight="300"
         font-size="13px"
         transform="rotate(36.673694,-704.53128,314.29028)"
         id="text21">Object</text>
      <text
         font-family="'Calibri Light', 'Calibri Light_MSFontService', sans-serif"
         font-weight="300"
         font-size="13px"
         transform="translate(35.4005,423)"
         id="text22">function</text>
      <text
         font-family="'Calibri Light', 'Calibri Light_MSFontService', sans-serif"
         font-weight="300"
         font-size="13px"
         transform="rotate(11.440783,-918.04661,-105.64349)"
         id="text23">Argument / Return / (.) Object</text>
      <text
         font-family="'Calibri Light', 'Calibri Light_MSFontService', sans-serif"
         font-weight="300"
         font-size="13px"
         transform="rotate(12.887237,-1655.04,1027.0938)"
         id="text24">Subtype Object</text>
      <path
         d="m 67.8379,395.248 18.6944,0.287 23.8487,1.073 23.473,1.731 22.909,2.341 22.157,2.906 21.217,3.423 20.091,3.893 9.566,2.109 9.212,2.208 8.837,2.303 8.437,2.391 8.015,2.473 7.57,2.55 7.1,2.621 6.608,2.687 6.093,2.746 5.554,2.8 4.992,2.85 4.407,2.893 3.8,2.932 3.168,2.967 2.514,3 c 0.011,0.013 0.021,0.027 0.03,0.041 l 1.805,2.988 c 0.011,0.019 0.021,0.038 0.028,0.058 l 1.1,3 c 0.009,0.024 0.015,0.048 0.018,0.073 l 0.372,3.006 c 0.003,0.022 0.003,0.044 0.002,0.066 l -0.45,6.005 c -10e-4,0.016 -0.003,0.031 -0.006,0.047 l -1.31,5.958 -2.125,5.906 -2.874,5.759 -3.565,5.566 -4.197,5.327 -4.771,5.042 -5.288,4.709 -5.748,4.332 -6.151,3.906 -6.495,3.435 -6.784,2.916 -7.014,2.351 -7.189,1.738 -7.305,1.079 -7.365,0.371 -0.033,-0.666 7.301,-0.365 7.246,-1.067 7.133,-1.722 6.963,-2.331 6.735,-2.894 6.45,-3.408 6.107,-3.876 5.705,-4.297 5.248,-4.67 4.732,-4.995 4.159,-5.274 3.529,-5.505 2.844,-5.687 2.101,-5.823 1.309,-5.958 -0.006,0.046 0.449,-6.005 10e-4,0.066 -0.371,-3.006 0.017,0.074 -1.1,-2.999 0.028,0.057 -1.805,-2.988 0.029,0.042 -2.459,-2.941 -3.12,-2.926 -3.758,-2.903 -4.372,-2.871 -4.961,-2.833 -5.528,-2.788 -6.07,-2.737 -6.588,-2.678 -7.082,-2.615 -7.553,-2.545 -8.001,-2.469 -8.423,-2.387 -8.824,-2.299 -9.2,-2.206 -9.55,-2.105 -20.07,-3.89 -21.198,-3.42 -22.138,-2.903 -22.89,-2.341 -23.454,-1.729 -23.8289,-1.073 -18.6944,-0.286 z m -0.0051,0.334 2.6051,4.04 -7.9378,-4.122 8.0603,-3.877 z"
         fill="#454545"
         id="path24" />
      <text
         font-family="'Calibri Light', 'Calibri Light_MSFontService', sans-serif"
         font-weight="300"
         font-size="13px"
         transform="rotate(13.033813,-1821.8303,1014.2414)"
         id="text25">Argument</text>
      <text
         font-family="'Calibri Light', 'Calibri Light_MSFontService', sans-serif"
         font-weight="300"
         font-size="13px"
         transform="translate(405.097,706)"
         id="text26">Type System</text>
      <text
         font-family="'Calibri Light', 'Calibri Light_MSFontService', sans-serif"
         font-weight="300"
         font-size="13px"
         transform="translate(405.097,722)"
         id="text27">Timeline</text>
      <path
         d="M -5.21299,1.05444 -5.68335,1.15597 -7.70123,1.87633 -7.92455,1.24818 -5.82402,0.504315 -5.35366,0.402782 Z m -4.28522,1.59947 -1.81689,0.89503 0.0429,-0.02526 -0.5267,0.36591 -0.3803,-0.54751 0.5267,-0.36591 c 0.0136,-0.00948 0.0279,-0.01792 0.0428,-0.02526 l 1.81687,-0.89503 z m -3.94319,2.37679 -2.19,1.52147 -0.3804,-0.54751 2.19,-1.52147 z m -3.7444,2.68636 -1.9207,1.84982 -0.4625,-0.48019 1.9207,-1.84982 z m -3.3613,3.23714 -1.7863,1.7204 -0.0896,0.1147 -0.5182,-0.4194 0.1453,-0.1755 1.7863,-1.7203 z m -3.1341,3.3897 -1.6777,2.0728 -0.5182,-0.4194 1.6777,-2.0728 z m -2.9359,3.6274 -0.992,1.2257 -0.5797,0.884 -0.5569,-0.3665 0.6184,-0.9369 0.992,-1.2257 z m -2.671,3.7804 -1.4658,2.2278 -0.5569,-0.3665 1.4658,-2.2277 z m -2.5651,3.8985 -0.8151,1.2389 -0.5548,1.0151 -0.5847,-0.3203 0.5825,-1.0612 0.8152,-1.2389 z m -2.3307,4.008 -1.2811,2.3388 -0.5847,-0.3203 1.2811,-2.3387 z m -2.242,4.0929 -1.037,1.8933 -0.2027,0.4408 -0.6052,-0.2795 0.2232,-0.4816 1.037,-1.8933 z m -2.078,4.1498 -1.1179,2.4211 -0.6053,-0.2794 1.1179,-2.4211 z m -1.9563,4.2369 -1.1178,2.4211 -0.6053,-0.2795 1.1179,-2.421 z m -1.8863,4.2449 -0.9704,2.4838 -0.6209,-0.2426 0.9704,-2.4838 z m -1.6982,4.3467 -0.9703,2.4838 -0.621,-0.2426 0.9704,-2.4838 z m -1.6981,4.3467 -0.3288,0.8415 -0.5454,1.6577 -0.6332,-0.2085 0.5577,-1.6918 0.3287,-0.8415 z m -1.4997,4.3989 -0.8341,2.5328 -0.6332,-0.2085 0.8341,-2.5328 z m -1.4596,4.4325 -0.8341,2.5329 -0.6332,-0.2086 0.834,-2.5328 z m -1.3979,4.4336 -0.705,2.5717 -0.643,-0.1762 0.7051,-2.5718 z m -1.2338,4.5006 -0.7051,2.5717 -0.6429,-0.1762 0.705,-2.5718 z m -1.2339,4.5006 -0.4993,1.8215 -0.1654,0.7437 -0.6507,-0.1451 0.1731,-0.7749 0.4994,-1.8215 z m -1.0997,4.5173 -0.5801,2.6028 -0.6507,-0.145 0.5801,-2.6029 z m -1.0152,4.5549 -0.5801,2.6028 -0.6507,-0.145 0.5801,-2.6028 z m -1.0151,4.5549 -0.1485,0.6663 -0.3365,1.9393 -0.6569,-0.1141 0.3427,-1.9702 0.1485,-0.6663 z m -0.8274,4.5761 -0.4564,2.6273 -0.6568,-0.1141 0.4564,-2.6273 z m -0.7987,4.5975 -0.4564,2.628 -0.6568,-0.115 0.4564,-2.627 z m -0.7864,4.584 -0.3316,2.646 -0.6615,-0.083 0.3316,-2.646 z m -0.5803,4.63 -0.3316,2.646 -0.6615,-0.083 0.3316,-2.645 z m -0.5803,4.631 -0.3315,2.646 -0.6615,-0.083 0.3315,-2.646 z m -0.5363,4.619 -0.2033,2.658 -0.6647,-0.05 0.2033,-2.659 z m -0.3558,4.653 -0.2033,2.659 -0.6647,-0.051 0.2033,-2.659 z m -0.3557,4.653 -0.2033,2.659 -0.6648,-0.051 0.2033,-2.659 z m -0.2847,4.64 -0.0694,2.665 -0.6664,-0.017 0.0694,-2.666 z m -0.1214,4.665 -0.0694,2.666 -0.6664,-0.018 0.0694,-2.666 z m -0.1214,4.665 -0.0694,2.666 -0.6664,-0.018 0.0694,-2.666 z m 0.0199,4.638 0.1351,2.663 -0.6658,0.034 -0.1351,-2.664 z m 0.2364,4.66 0.1351,2.664 -0.6658,0.033 -0.1351,-2.663 z m 0.2364,4.661 0.1208,2.381 0.0384,0.247 -0.6594,0.098 -0.0448,-0.311 -0.1208,-2.381 z m 0.454,4.606 0.393,2.638 -0.6594,0.098 -0.393,-2.637 z m 0.6878,4.616 0.393,2.638 -0.6594,0.098 -0.393,-2.638 z m 0.6878,4.616 0.2909,1.952 0.1585,0.643 -0.6476,0.158 -0.1703,-0.703 -0.2909,-1.952 z m 0.9239,4.538 0.6327,2.591 -0.6476,0.158 -0.6327,-2.591 z m 1.1072,4.534 0.6327,2.59 -0.6476,0.158 -0.6327,-2.59 z m 1.1072,4.533 0.3776,1.546 0.3367,0.991 -0.6315,0.213 -0.3528,-1.046 -0.3776,-1.546 z m 1.3556,4.431 0.8552,2.526 -0.6315,0.214 -0.8551,-2.526 z m 1.4965,4.42 0.8552,2.526 -0.6315,0.214 -0.8551,-2.526 z m 1.4966,4.42 0.3922,1.159 0.5651,1.298 -0.6115,0.266 -0.5851,-1.35 -0.3922,-1.159 z m 1.7541,4.291 1.0624,2.446 -0.6115,0.266 -1.0624,-2.446 z m 1.8591,4.281 1.0624,2.446 -0.6114,0.265 -1.0624,-2.446 z m 1.8592,4.28 0.3337,0.768 0.8502,1.589 -0.588,0.314 -0.8737,-1.637 -0.3337,-0.768 z m 2.1264,4.121 1.2566,2.352 -0.588,0.315 -1.2566,-2.353 z m 2.1991,4.116 1.2567,2.352 -0.588,0.315 -1.2567,-2.352 z m 2.1992,4.116 0.1861,0.349 1.2135,1.889 -0.561,0.36 -1.2405,-1.935 -0.1861,-0.348 z m 2.4799,3.921 1.4403,2.244 -0.5611,0.36 -1.4403,-2.244 z m 2.5205,3.927 1.4403,2.244 -0.5611,0.361 -1.4403,-2.245 z m 2.5152,3.899 1.6154,2.121 -0.5304,0.404 -1.6154,-2.121 z m 2.827,3.713 1.6154,2.121 -0.5304,0.404 -1.6154,-2.121 z m 2.827,3.713 1.6154,2.121 -0.5304,0.404 -1.6154,-2.122 z m 2.8635,3.647 1.7837,1.982 -0.4956,0.446 -1.7837,-1.982 z m 3.1215,3.469 1.7837,1.982 -0.4955,0.446 -1.7838,-1.982 z m 3.1215,3.469 1.7837,1.982 -0.4955,0.446 -1.7838,-1.982 z m 3.209,3.343 1.9462,1.823 -0.4558,0.487 -1.9462,-1.823 z m 3.4058,3.191 1.9462,1.823 -0.45576,0.486 -1.94614,-1.823 z m 3.40584,3.19 1.27317,1.193 0.70428,0.547 -0.40997,0.526 -0.75008,-0.587 -1.27317,-1.193 z m 3.55457,2.97 2.10284,1.64 -0.40997,0.526 -2.10283,-1.64 z m 3.679958,2.87 2.102832,1.64 -0.40997,0.525 -2.10283,-1.64 z m 3.679952,2.87 0.23334,0.181 1.97578,1.251 -0.35696,0.563 -2.02879,-1.288 -0.23334,-0.182 z m 3.89827,2.503 2.25221,1.428 -0.35697,0.563 -2.2522,-1.428 z m 3.94131,2.499 2.2522,1.428 -0.3569,0.563 -2.2522,-1.428 z m 3.9867,2.346 2.3907,1.181 -0.2953,0.598 -2.3907,-1.182 z m 4.1837,2.067 2.3907,1.182 -0.2953,0.597 -2.3907,-1.181 z m 4.1837,2.068 1.0055,0.496 1.4197,0.504 -0.2239,0.628 -1.4912,-0.534 -1.0054,-0.497 z m 4.3091,1.672 2.5118,0.895 -0.2238,0.628 -2.5119,-0.895 z m 4.3957,1.567 2.5118,0.895 -0.2238,0.628 -2.5119,-0.895 z m 4.4,1.444 2.5854,0.653 -0.1634,0.647 -2.5853,-0.654 z m 4.5054,1.126 2.6233,0.478 -0.1196,0.656 -2.6234,-0.479 z m 4.5909,0.837 0.7923,0.145 1.8268,0.201 -0.0734,0.663 -1.8731,-0.209 -0.7923,-0.144 z m 4.607,0.566 1.7633,0.196 0.8677,0.031 -0.0249,0.666 -0.9162,-0.035 -1.7633,-0.195 z m 4.6296,0.302 2.6648,0.099 -0.0249,0.667 -2.6648,-0.1 z m 4.6437,0.055 2.6659,-0.065 0.0161,0.667 -2.6659,0.064 z m 4.6653,-0.113 2.6659,-0.064 0.0161,0.666 -2.6659,0.065 z m 4.6653,-0.113 2.6659,-0.064 0.0161,0.667 -2.6659,0.064 z m 4.6653,-0.112 2.6659,-0.064 0.0161,0.666 -2.6659,0.064 z m 4.6653,-0.113 1.7352,-0.042 0.9133,-0.064 0.0468,0.665 -0.944,0.066 -1.7352,0.042 z m 4.6436,-0.247 2.6601,-0.187 0.0468,0.665 -2.6601,0.187 z m 4.6551,-0.327 2.6601,-0.188 0.0468,0.665 -2.6601,0.188 z m 4.6552,-0.328 2.6601,-0.187 0.0468,0.665 -2.6601,0.187 z m 4.6551,-0.328 2.6602,-0.187 0.047,0.665 -2.6604,0.187 z m 4.6552,-0.328 0.093,-0.006 2.548,-0.268 0.07,0.663 -2.571,0.27 -0.093,0.006 z m 4.63,-0.483 2.652,-0.279 0.07,0.663 -2.652,0.279 z m 4.641,-0.488 1.147,-0.121 1.493,-0.193 0.085,0.661 -1.509,0.195 -1.146,0.121 z m 4.623,-0.571 2.645,-0.342 0.086,0.661 -2.645,0.342 z m 4.628,-0.598 1.785,-0.231 0.849,-0.132 0.102,0.659 -0.865,0.134 -1.785,0.231 z m 4.61,-0.67 2.635,-0.41 0.102,0.659 -2.635,0.409 z m 4.611,-0.717 1.927,-0.299 0.696,-0.128 0.12,0.655 -0.714,0.132 -1.926,0.299 z m 4.59,-0.79 2.622,-0.483 0.121,0.655 -2.623,0.484 z m 4.589,-0.846 1.496,-0.276 1.109,-0.241 0.141,0.651 -1.129,0.246 -1.496,0.276 z m 4.559,-0.943 2.605,-0.568 0.142,0.652 -2.605,0.567 z m 4.559,-0.993 0.423,-0.092 2.151,-0.556 0.166,0.645 -2.175,0.562 -0.423,0.092 z m 4.51,-1.149 2.582,-0.667 0.167,0.645 -2.582,0.668 z m 4.484,-1.228 2.547,-0.79 0.198,0.636 -2.547,0.791 z m 4.457,-1.383 0.599,-0.186 1.886,-0.721 0.237,0.623 -1.925,0.735 -0.599,0.185 z m 4.353,-1.62 1.65,-0.63 0.781,-0.385 0.293,0.599 -0.837,0.408 -1.649,0.63 z m 4.227,-1.894 1.766,-0.866 0.538,-0.369 0.375,0.551 -0.619,0.417 -1.767,0.865 z m 3.959,-2.359 0.998,-0.677 -0.061,0.053 0.976,-1.087 0.496,0.445 -0.976,1.087 c -0.018,0.02 -0.039,0.038 -0.061,0.053 l -0.997,0.678 z m 3.005,-3.172 0.551,-1.804 0.638,0.195 -0.552,1.804 z M -5.28333,0.728611 -8.47145,-2.86958 0,0 -7.37854,5.05541 Z"
         fill="#008080"
         transform="matrix(0,1,1,0,-133.5,264.5)"
         id="path27" />
      <path
         d="m 137.839,442.267 5.332,0.101 -0.012,0.667 -5.333,-0.101 z m 7.344,0.15 5.325,0.295 -0.037,0.666 -5.325,-0.296 z m 7.322,0.406 4.683,0.259 0.652,0.059 -0.061,0.664 -0.628,-0.057 -4.683,-0.26 z m 7.327,0.499 5.311,0.483 -0.06,0.664 -5.312,-0.483 z m 7.303,0.664 2.157,0.196 3.154,0.397 -0.083,0.662 -3.132,-0.395 -2.156,-0.196 z m 7.295,0.843 5.292,0.667 -0.084,0.662 -5.291,-0.667 z m 7.285,0.94 5.265,0.851 -0.107,0.658 -5.265,-0.851 z m 7.239,1.17 3.577,0.578 1.689,0.336 -0.13,0.654 -1.666,-0.332 -3.576,-0.578 z m 7.227,1.304 5.231,1.04 -0.13,0.654 -5.231,-1.04 z m 7.193,1.43 0.098,0.019 5.103,1.219 -0.155,0.648 -5.078,-1.213 -0.098,-0.019 z m 7.146,1.702 3.314,0.792 1.867,0.528 -0.182,0.642 -1.84,-0.522 -3.314,-0.791 z m 7.105,1.866 5.131,1.453 -0.182,0.642 -5.131,-1.454 z m 7.054,2.058 5.057,1.693 -0.212,0.632 -5.057,-1.693 z m 6.953,2.328 0.796,0.267 4.194,1.665 -0.246,0.62 -4.159,-1.653 -0.796,-0.267 z m 6.849,2.671 1.988,0.79 2.903,1.384 -0.287,0.602 -2.862,-1.367 -1.988,-0.79 z m 6.696,3.035 2.368,1.13 2.362,1.385 -0.338,0.575 -2.311,-1.358 -2.368,-1.13 z m 6.455,3.528 1.928,1.132 2.506,1.884 -0.401,0.533 -2.443,-1.842 -1.928,-1.132 z m 6.032,4.219 0.755,0.569 c 0.014,0.011 0.028,0.023 0.04,0.036 l 3.035,3.168 -0.481,0.462 -3.035,-3.169 0.04,0.036 -0.755,-0.569 z m 5.031,5.454 1.591,2.722 c 0.013,0.023 0.024,0.048 0.032,0.074 l 0.567,1.905 c 0.006,0.02 0.01,0.041 0.012,0.062 l 0.019,0.191 -0.663,0.066 -0.019,-0.191 0.012,0.062 -0.567,-1.905 0.031,0.073 -1.591,-2.723 z m 2.375,7.001 -0.377,5.32 -0.665,-0.047 0.377,-5.32 z m -0.519,7.315 -10e-4,0.011 -1.084,5.256 -0.653,-0.135 1.072,-5.168 0.001,-0.011 z m -1.491,7.225 -0.039,0.19 -1.683,4.901 -0.63,-0.217 1.66,-4.819 0.039,-0.19 z m -2.372,6.982 -0.045,0.132 -2.332,4.69 -0.597,-0.297 2.298,-4.61 0.045,-0.131 z m -3.332,6.631 -3.05,4.376 -0.547,-0.382 3.05,-4.375 z m -4.411,5.913 -3.141,3.113 c -0.013,0.013 -0.028,0.026 -0.044,0.037 l -0.749,0.519 -0.38,-0.547 0.749,-0.52 -0.045,0.037 3.141,-3.113 z m -5.639,4.797 -1.923,0.963 c -0.016,0.008 -0.034,0.015 -0.052,0.02 l -2.229,0.682 c -0.021,0.006 -0.042,0.01 -0.063,0.013 l -0.848,0.088 -0.068,-0.663 0.847,-0.089 -0.063,0.013 2.23,-0.681 -0.052,0.021 1.922,-0.963 z m -109.474,-79.797 2.591,4.049 -7.923,-4.15 8.074,-3.848 z"
         fill="#0000ff"
         id="path28" />
      <path
         d="m -139.5,296.134 c 0,1.617 -5.995,3.233 -11.99,3.233 -5.995,0 -11.99,-10.015 -11.99,-20.029 0,-10.015 7.565,-20.03 15.131,-20.03 7.566,0 15.131,2.596 15.131,5.192"
         stroke="#008080"
         stroke-width="0.666667"
         stroke-linejoin="round"
         stroke-miterlimit="10"
         stroke-dasharray="2.66667, 2"
         fill="none"
         fill-rule="evenodd"
         id="path29" />
      <text
         font-family="'Calibri Light', 'Calibri Light_MSFontService', sans-serif"
         font-weight="300"
         font-size="13px"
         transform="rotate(41.166845,-628.70581,57.247797)"
         id="text29">Argument / Return / (.) Object</text>
      <text
         font-family="'Calibri Light', 'Calibri Light_MSFontService', sans-serif"
         font-weight="300"
         font-size="13px"
         transform="rotate(11.26657,-1399.5858,132.70276)"
         id="text30">Type/ Namespace</text>
      <path
         d="m 244.839,535.269 9.156,0.175 14.387,0.81 14.16,1.306 13.82,1.766 13.367,2.193 12.8,2.582 12.121,2.938 11.328,3.257 10.424,3.541 9.405,3.792 8.276,4.006 7.033,4.189 5.68,4.337 2.308,2.226 1.918,2.246 1.522,2.271 1.112,2.293 c 0.008,0.017 0.015,0.034 0.02,0.052 l 0.663,2.262 c 0.006,0.02 0.01,0.04 0.012,0.061 l 0.225,2.267 c 10e-4,0.017 0.002,0.035 10e-4,0.052 l -0.54,9.023 -1.527,8.776 -2.376,8.208 -3.083,7.358 -3.652,6.228 -2.007,2.614 -2.093,2.217 -2.172,1.793 c -0.013,0.011 -0.027,0.021 -0.041,0.03 l -2.195,1.305 c -0.018,0.01 -0.037,0.019 -0.056,0.026 l -2.23,0.809 c -0.023,0.009 -0.048,0.015 -0.073,0.018 l -2.247,0.277 -0.081,-0.661 2.247,-0.278 -0.073,0.018 2.229,-0.809 -0.057,0.027 2.195,-1.305 -0.042,0.029 2.112,-1.737 2.049,-2.165 1.96,-2.546 3.613,-6.148 3.057,-7.286 2.359,-8.137 1.519,-8.701 0.539,-9.023 10e-4,0.053 -0.224,-2.266 0.012,0.06 -0.664,-2.262 0.02,0.051 -1.066,-2.213 -1.476,-2.209 -1.873,-2.199 -2.25,-2.175 -5.616,-4.295 -6.983,-4.161 -8.234,-3.988 -9.371,-3.778 -10.393,-3.533 -11.301,-3.249 -12.096,-2.932 -12.776,-2.578 -13.343,-2.189 -13.797,-1.765 -14.136,-1.304 -14.363,-0.808 -9.156,-0.176 z m -0.007,0.333 2.59,4.051 -7.922,-4.153 8.075,-3.846 z"
         id="path30" />
      <text
         fill="#1d2d35"
         font-family="'Calibri Light', 'Calibri Light_MSFontService', sans-serif"
         font-weight="300"
         font-size="13px"
         transform="translate(-6.92561,105)"
         id="text31">BF Data Type (_DAT) Bugs Model</text>
      <text
         fill="#7f7f7f"
         font-family="'Calibri Light', 'Calibri Light_MSFontService', sans-serif"
         font-weight="300"
         font-size="12px"
         transform="translate(-232.12,694)"
         id="text32">BF, I. Bojanova</text>
      <path
         d="m -244.167,152.834 v 551.285 h -0.666 V 152.834 Z m -0.333,-0.001 -4,2.667 4,-8 4,8 z"
         id="path32" />
      <text
         font-family="'Calibri Light', 'Calibri Light_MSFontService', sans-serif"
         font-weight="300"
         font-size="13px"
         transform="translate(-260.963,119)"
         id="text33">S</text>
      <text
         font-family="'Calibri Light', 'Calibri Light_MSFontService', sans-serif"
         font-weight="300"
         font-size="13px"
         transform="translate(-254.963,119)"
         id="text34">pace</text>
      <text
         font-family="'Calibri Light', 'Calibri Light_MSFontService', sans-serif"
         font-weight="300"
         font-size="13px"
         transform="translate(-283.297,135)"
         id="text35">Interpretation</text>
      <path
         d="m -243.5,553.5 c -5.247,0 -9.5,-10.062 -9.5,-22.475 v -93.256 c 0,-12.413 -4.253,-22.475 -9.5,-22.475 5.247,0 9.5,-10.062 9.5,-22.475 v -93.844 c 0,-12.413 4.253,-22.475 9.5,-22.475"
         stroke="#454545"
         stroke-width="0.666667"
         stroke-miterlimit="8"
         fill="none"
         fill-rule="evenodd"
         id="path35" />
      <text
         font-family="'Calibri Light', 'Calibri Light_MSFontService', sans-serif"
         font-weight="300"
         font-size="13px"
         transform="translate(-305.615,373)"
         id="text36">Object</text>
      <text
         font-family="'Calibri Light', 'Calibri Light_MSFontService', sans-serif"
         font-weight="300"
         font-size="13px"
         transform="translate(-306.029,389)"
         id="text37">Layout</text>
      <text
         font-family="'Calibri Light', 'Calibri Light_MSFontService', sans-serif"
         font-weight="300"
         font-size="13px"
         transform="translate(-313.375,455)"
         id="text38">Elements</text>
      <text
         font-family="'Calibri Light', 'Calibri Light_MSFontService', sans-serif"
         font-weight="300"
         font-size="13px"
         transform="translate(-298.875,471)"
         id="text39">Size</text>
      <path
         d="M 5.36669,-0.00189194 8.01056,0.346045 7.92358,1.00701 5.27971,0.659076 Z M 9.9999,0.787072 10.6454,0.95387 10.4786,1.59933 9.8331,1.43254 Z M 12.5818,1.45427 15.1636,2.12146 14.9968,2.76692 12.415,2.09973 Z m 4.563,1.18878 0.6138,0.26 -0.26,0.61388 -0.6138,-0.26 z m 2.4555,1.04001 2.4555,1.04 -0.26,0.61388 -2.4555,-1.04001 z m 4.2971,1.82001 0.6139,0.26 -0.26,0.61387 -0.6139,-0.26 z m 2.4358,1.17581 2.2996,1.35017 -0.3375,0.5749 -2.2996,-1.35017 z m 4.0243,2.3628 0.5749,0.33755 L 30.5949,9.95412 30.02,9.61658 Z m 2.2996,1.35022 0.9366,0.5499 1.2943,0.9721 -0.4011,0.5325 -1.2307,-0.9297 -0.9366,-0.5499 z m 3.8284,2.7253 0.5325,0.4012 -0.4011,0.5325 -0.5325,-0.4012 z m 2.13,1.6045 2.13,1.6044 -0.4011,0.5325 -2.13,-1.6044 z m 3.6831,2.9136 0.4891,0.4531 -0.4531,0.489 -0.4891,-0.4531 z m 1.9561,1.8124 1.9561,1.8124 -0.4531,0.489 -1.9561,-1.8124 z m 3.4231,3.1717 0.4891,0.4532 -0.4531,0.489 -0.4891,-0.4531 z m 1.9239,1.887 1.7822,1.9836 -0.4958,0.4456 -1.7823,-1.9836 z m 3.1189,3.4713 0.4456,0.4959 -0.4959,0.4456 -0.4456,-0.4959 z m 1.7823,1.9836 1.6718,1.8607 0.1176,0.1532 -0.5315,0.4025 -0.082,-0.1102 -1.6718,-1.8606 z m 2.9968,3.6083 0.4025,0.5315 -0.5314,0.4025 -0.4025,-0.5315 z m 1.61,2.1258 1.61,2.1259 -0.5315,0.4024 -1.6099,-2.1258 z m 2.8175,3.7202 0.4025,0.5315 -0.5315,0.4025 -0.4025,-0.5315 z m 1.5516,2.1983 1.4388,2.2452 -0.5613,0.3597 -1.4388,-2.2452 z m 2.5179,3.9291 0.3597,0.5613 -0.5613,0.3597 -0.3597,-0.5613 z m 1.4388,2.2452 1.4388,2.2453 -0.5613,0.3596 -1.4388,-2.2452 z m 2.4153,4.0185 0.3168,0.5866 -0.5866,0.3168 -0.3168,-0.5865 z m 1.2673,2.3463 1.2674,2.3463 -0.5866,0.3168 -1.2673,-2.3463 z m 2.2179,4.106 0.3168,0.5865 -0.5866,0.3169 -0.3168,-0.5866 z m 1.2668,2.3735 1.0937,2.4321 -0.608,0.2734 -1.0937,-2.4321 z m 1.9139,4.2561 0.2734,0.608 -0.608,0.2734 -0.2734,-0.608 z m 1.0937,2.4321 1.0937,2.4321 -0.608,0.2734 -1.0937,-2.4321 z m 1.9008,4.2874 0.2289,0.6261 -0.6261,0.2289 -0.2289,-0.6261 z m 0.9156,2.5046 0.9156,2.5045 -0.6261,0.2289 -0.9156,-2.5045 z m 1.6023,4.3829 0.2289,0.6262 -0.6261,0.2289 -0.2289,-0.6262 z m 0.9156,2.5046 0.5751,1.5733 0.2793,0.9767 -0.6412,0.1826 -0.2642,-0.9304 -0.5751,-1.5733 z m 1.4024,4.4734 0.1827,0.6411 -0.6411,0.1827 -0.1827,-0.6411 z m 0.7308,2.5646 0.7308,2.5646 -0.6411,0.1826 -0.7308,-2.5645 z m 1.2789,4.488 0.1827,0.6411 -0.6412,0.1827 -0.1827,-0.6411 z m 0.6736,2.6042 0.5369,2.6121 -0.653,0.1342 -0.5369,-2.612 z m 0.9396,4.5711 0.1343,0.6535 -0.6531,0.134 -0.1342,-0.6532 z m 0.537,2.6125 0.5369,2.612 -0.653,0.134 -0.537,-2.612 z m 0.8922,4.605 0.083,0.661 -0.6615,0.083 -0.083,-0.661 z m 0.3319,2.646 0.3318,2.646 -0.6615,0.083 -0.3318,-2.646 z m 0.5807,4.63 0.0829,0.662 -0.6614,0.083 -0.083,-0.662 z m 0.3318,2.646 0.1945,1.551 0.0494,1.13 -0.6661,0.028 -0.0448,-1.075 -0.1945,-1.551 z m 0.3292,4.679 0.0284,0.666 -0.6661,0.029 -0.0284,-0.666 z m 0.1137,2.664 0.1137,2.665 -0.666,0.028 -0.1138,-2.664 z m 0.199,4.663 0.0285,0.666 -0.6661,0.028 -0.0284,-0.666 z M 5.3232,0.328592 7.73836,4.48529 0,0 8.23125,-3.49951 Z"
         fill="#9900ff"
         transform="matrix(0,-1,-1,0,28.1672,383.53)"
         id="path39" />
      <path
         d="m -106.5,290.98 c 0,-0.5 -1.191,-1 -2.383,-1 -1.191,0 -2.382,-3.37 -2.382,-6.74 0,-3.37 5.523,-6.74 11.047,-6.74"
         stroke="#9900ff"
         stroke-width="0.666667"
         stroke-linejoin="round"
         stroke-miterlimit="10"
         stroke-dasharray="2.66667, 2, 0.666667, 2"
         fill="none"
         fill-rule="evenodd"
         id="path40" />
      <text
         font-family="'Calibri Light', 'Calibri Light_MSFontService', sans-serif"
         font-weight="300"
         font-size="13px"
         transform="translate(33.4196,368)"
         id="text40">(entity name)</text>
      <path
         d="M 0.00736292,-0.333252 11.3923,-0.0817123 l 11.31,0.7338303 11.1314,1.183942 10.8639,1.60192 10.5077,1.9878 10.0625,2.34165 9.5289,2.66357 8.9064,2.9535 8.1954,3.2118 7.3961,3.4387 6.5084,3.6345 5.533,3.8 4.47,3.9369 c 0.014,0.012 0.026,0.025 0.038,0.039 l 3.28,4.0085 c 0.016,0.0192 0.029,0.0401 0.04,0.0622 l 1.493,2.9901 -0.596,0.2978 -1.493,-2.9901 0.04,0.0623 -3.28,-4.0086 0.037,0.0389 -4.406,-3.8875 -5.481,-3.7675 -6.4645,-3.612 L 91.6552,17.217 83.4932,14.0173 74.6172,11.073 65.1167,8.41674 55.0813,6.08082 44.6004,4.09751 33.7632,2.49899 22.6591,1.31738 11.3775,0.584792 -0.00736292,0.333252 Z M 120.359,38.6551 l 3.272,-3.5225 -2.034,8.7101 -5.748,-6.8527 z"
         fill="#454545"
         transform="matrix(0,1,1,0,-224.5,170.5)"
         id="path41" />
    </g>
  </g>
</svg>
