<?xml version="1.0" encoding="UTF-8" standalone="no"?>
<!-- Created with Inkscape (http://www.inkscape.org/) -->

<svg
   width="156.54514mm"
   height="84.317932mm"
   viewBox="0 0 156.54514 84.317932"
   version="1.1"
   id="svg1"
   inkscape:version="1.3.2 (091e20e, 2023-11-25, custom)"
   sodipodi:docname="BF_DAT 2 Model.svg"
   xmlns:inkscape="http://www.inkscape.org/namespaces/inkscape"
   xmlns:sodipodi="http://sodipodi.sourceforge.net/DTD/sodipodi-0.dtd"
   xmlns="http://www.w3.org/2000/svg"
   xmlns:svg="http://www.w3.org/2000/svg">
  <sodipodi:namedview
     id="namedview1"
     pagecolor="#ffffff"
     bordercolor="#000000"
     borderopacity="0.25"
     inkscape:showpageshadow="2"
     inkscape:pageopacity="0.0"
     inkscape:pagecheckerboard="0"
     inkscape:deskcolor="#d1d1d1"
     inkscape:document-units="mm"
     inkscape:zoom="1.0146815"
     inkscape:cx="297.13756"
     inkscape:cy="159.16324"
     inkscape:window-width="2560"
     inkscape:window-height="1377"
     inkscape:window-x="-8"
     inkscape:window-y="859"
     inkscape:window-maximized="1"
     inkscape:current-layer="layer1" />
  <defs
     id="defs1" />
  <g
     inkscape:label="Layer 1"
     inkscape:groupmode="layer"
     id="layer1"
     transform="translate(-26.237838,-106.40255)">
    <g
       transform="matrix(0.26458333,0,0,0.26458333,-151.07709,104.24583)"
       id="g58">
      <path
         d="m 1045.5,47.4549 c 0,-3.841 3.11,-6.9548 6.95,-6.9548 h 55.1 c 3.84,0 6.95,3.1138 6.95,6.9548 v 37.0903 c 0,3.8411 -3.11,6.9549 -6.95,6.9549 h -55.1 c -3.84,0 -6.95,-3.1138 -6.95,-6.9549 z"
         stroke="#002060"
         stroke-width="0.666667"
         stroke-miterlimit="8"
         fill="#f2f2f2"
         fill-rule="evenodd"
         id="path1" />
      <text
         font-family="'Calibri Light', 'Calibri Light_MSFontService', sans-serif"
         font-weight="300"
         font-size="13px"
         transform="translate(1053.46,54)"
         id="text1">Bind Data</text>
      <path
         d="m 947.5,133.41 c 0,-9.339 7.571,-16.91 16.91,-16.91 h 90.18 c 9.34,0 16.91,7.571 16.91,16.91 v 121.18 c 0,9.339 -7.57,16.91 -16.91,16.91 h -90.18 c -9.339,0 -16.91,-7.571 -16.91,-16.91 z"
         stroke="#000000"
         stroke-width="0.666667"
         stroke-miterlimit="8"
         fill="#f2f2f2"
         fill-rule="evenodd"
         id="path2" />
      <text
         font-family="'Calibri Light', 'Calibri Light_MSFontService', sans-serif"
         font-weight="300"
         font-size="13px"
         transform="translate(982.51,133)"
         id="text2">Bind Type</text>
      <path
         d="m 808.5,133.546 c 0,-9.414 7.632,-17.046 17.046,-17.046 h 90.908 c 9.414,0 17.046,7.632 17.046,17.046 v 90.908 c 0,9.414 -7.632,17.046 -17.046,17.046 h -90.908 c -9.414,0 -17.046,-7.632 -17.046,-17.046 z"
         stroke="#000000"
         stroke-width="0.666667"
         stroke-miterlimit="8"
         fill="#f2f2f2"
         fill-rule="evenodd"
         id="path3" />
      <text
         font-family="'Calibri Light', 'Calibri Light_MSFontService', sans-serif"
         font-weight="300"
         font-size="13px"
         transform="translate(834.972,133)"
         id="text3">Resolve Type</text>
      <path
         d="m 1084.5,138.638 c 0,-13.331 10.81,-24.138 24.14,-24.138 h 128.72 c 13.33,0 24.14,10.807 24.14,24.138 v 163.725 c 0,13.33 -10.81,24.137 -24.14,24.137 h -128.72 c -13.33,0 -24.14,-10.807 -24.14,-24.137 z"
         stroke="#000000"
         stroke-width="0.666667"
         stroke-miterlimit="8"
         fill="#f2f2f2"
         fill-rule="evenodd"
         id="path4" />
      <text
         font-family="'Calibri Light', 'Calibri Light_MSFontService', sans-serif"
         font-weight="300"
         font-size="13px"
         transform="translate(1126.58,134)"
         id="text4">Resolve and Bind</text>
      <text
         font-family="'Calibri Light', 'Calibri Light_MSFontService', sans-serif"
         font-weight="300"
         font-size="13px"
         transform="translate(1127.5,150)"
         id="text5">Implementation:</text>
      <path
         d="m 670.5,133.546 c 0,-9.414 7.632,-17.046 17.046,-17.046 h 90.908 c 9.414,0 17.046,7.632 17.046,17.046 v 120.908 c 0,9.414 -7.632,17.046 -17.046,17.046 h -90.908 c -9.414,0 -17.046,-7.632 -17.046,-17.046 z"
         stroke="#000000"
         stroke-width="0.666667"
         stroke-miterlimit="8"
         fill="#f2f2f2"
         fill-rule="evenodd"
         id="path5" />
      <text
         font-family="'Calibri Light', 'Calibri Light_MSFontService', sans-serif"
         font-weight="300"
         font-size="13px"
         transform="translate(694.597,133)"
         id="text6">Resolve Name</text>
      <path
         d="m 1100.5,239.833 c 0,-3.497 2.84,-6.333 6.33,-6.333 h 131.34 c 3.49,0 6.33,2.836 6.33,6.333 v 25.334 c 0,3.497 -2.84,6.333 -6.33,6.333 h -131.34 c -3.49,0 -6.33,-2.836 -6.33,-6.333 z"
         stroke="#000000"
         stroke-width="0.666667"
         stroke-miterlimit="8"
         fill="#ffffff"
         fill-rule="evenodd"
         id="path6" />
      <path
         d="m 1120.1,234.717 h 54.17 v 17 h -54.17 z"
         fill="#ffffff"
         fill-rule="evenodd"
         id="path7" />
      <path
         d="m 1174.27,234.717 h 3 v 17 h -3 z"
         fill="#ffffff"
         fill-rule="evenodd"
         id="path8" />
      <path
         d="m 1177.27,234.717 h 47.17 v 17 h -47.17 z"
         fill="#ffffff"
         fill-rule="evenodd"
         id="path9" />
      <path
         d="m 1139.02,250.717 h 66.5 v 17 h -66.5 z"
         fill="#ffffff"
         fill-rule="evenodd"
         id="path10" />
      <text
         font-family="'Calibri Light', 'Calibri Light_MSFontService', sans-serif"
         font-weight="300"
         font-size="13px"
         transform="translate(1120.1,248)"
         id="text10">Overriden</text>
      <text
         font-family="'Calibri Light', 'Calibri Light_MSFontService', sans-serif"
         font-weight="300"
         font-size="13px"
         transform="translate(1174.27,248)"
         id="text11"></text>
      <text
         font-family="'Calibri Light', 'Calibri Light_MSFontService', sans-serif"
         font-weight="300"
         font-size="13px"
         transform="translate(1177.27,248)"
         id="text12">Function</text>
      <text
         fill="#008080"
         font-family="'Calibri Light', 'Calibri Light_MSFontService', sans-serif"
         font-weight="300"
         font-size="13px"
         transform="translate(1139.02,264)"
         id="text13">Late Binding</text>
      <path
         d="m 960.5,239.049 c 0,-2.512 2.037,-4.549 4.549,-4.549 h 86.901 c 2.51,0 4.55,2.037 4.55,4.549 v 17.902 c 0,2.512 -2.04,4.549 -4.55,4.549 h -86.901 c -2.512,0 -4.549,-2.037 -4.549,-4.549 z"
         stroke="#000000"
         stroke-width="0.666667"
         stroke-miterlimit="8"
         fill="#ffffff"
         fill-rule="evenodd"
         id="path13" />
      <path
         d="m 967.252,238.923 h 82.168 v 17 h -82.168 z"
         fill="#ffffff"
         fill-rule="evenodd"
         id="path14" />
      <text
         font-family="'Calibri Light', 'Calibri Light_MSFontService', sans-serif"
         font-weight="300"
         font-size="13px"
         transform="translate(967.252,252)"
         id="text14">Subtype Object</text>
      <path
         d="m 1100.5,282.833 c 0,-3.497 2.84,-6.333 6.33,-6.333 h 131.34 c 3.49,0 6.33,2.836 6.33,6.333 v 25.334 c 0,3.497 -2.84,6.333 -6.33,6.333 h -131.34 c -3.49,0 -6.33,-2.836 -6.33,-6.333 z"
         stroke="#000000"
         stroke-width="0.666667"
         stroke-miterlimit="8"
         fill="#ffffff"
         fill-rule="evenodd"
         id="path15" />
      <path
         d="m 1115.77,277.906 h 113 v 17 h -113 z"
         fill="#ffffff"
         fill-rule="evenodd"
         id="path16" />
      <path
         d="m 1131.44,293.906 h 14.5 v 17 h -14.5 z"
         fill="#ffffff"
         fill-rule="evenodd"
         id="path17" />
      <path
         d="m 1145.94,293.906 h 4 v 17 h -4 z"
         fill="#ffffff"
         fill-rule="evenodd"
         id="path18" />
      <path
         d="m 1149.94,293.906 h 63.16 v 17 h -63.16 z"
         fill="#ffffff"
         fill-rule="evenodd"
         id="path19" />
      <text
         font-family="'Calibri Light', 'Calibri Light_MSFontService', sans-serif"
         font-weight="300"
         font-size="13px"
         transform="translate(1115.77,291)"
         id="text19">Overloaded Function</text>
      <text
         fill="#008080"
         font-family="'Calibri Light', 'Calibri Light_MSFontService', sans-serif"
         font-weight="300"
         font-size="13px"
         transform="translate(1131.44,307)"
         id="text20">Ad</text>
      <text
         fill="#008080"
         font-family="'Calibri Light', 'Calibri Light_MSFontService', sans-serif"
         font-weight="300"
         font-size="13px"
         transform="translate(1145.94,307)"
         id="text21">-</text>
      <text
         fill="#008080"
         font-family="'Calibri Light', 'Calibri Light_MSFontService', sans-serif"
         font-weight="300"
         font-size="13px"
         transform="translate(1149.94,307)"
         id="text22">hoc Binding</text>
      <path
         d="m 960.5,209 c 0,-2.485 2.015,-4.5 4.5,-4.5 h 87 c 2.49,0 4.5,2.015 4.5,4.5 v 18 c 0,2.485 -2.01,4.5 -4.5,4.5 h -87 c -2.485,0 -4.5,-2.015 -4.5,-4.5 z"
         stroke="#000000"
         stroke-width="0.666667"
         stroke-miterlimit="8"
         fill="#ffffff"
         fill-rule="evenodd"
         id="path22" />
      <path
         d="m 979.836,208.439 h 57.004 v 17 h -57.004 z"
         fill="#ffffff"
         fill-rule="evenodd"
         id="path23" />
      <text
         font-family="'Calibri Light', 'Calibri Light_MSFontService', sans-serif"
         font-weight="300"
         font-size="13px"
         transform="translate(979.836,221)"
         id="text23">Parameter</text>
      <path
         d="m 960.5,147 c 0,-2.485 2.015,-4.5 4.5,-4.5 h 87 c 2.49,0 4.5,2.015 4.5,4.5 v 18 c 0,2.485 -2.01,4.5 -4.5,4.5 h -87 c -2.485,0 -4.5,-2.015 -4.5,-4.5 z"
         stroke="#000000"
         stroke-width="0.666667"
         stroke-miterlimit="8"
         fill="#ffffff"
         fill-rule="evenodd"
         id="path24" />
      <path
         d="m 990.095,146.644 h 35.335 v 17 h -35.335 z"
         fill="#ffffff"
         fill-rule="evenodd"
         id="path25" />
      <text
         font-family="'Calibri Light', 'Calibri Light_MSFontService', sans-serif"
         font-weight="300"
         font-size="13px"
         transform="translate(990.095,160)"
         id="text25">Object</text>
      <path
         d="m 960.5,178 c 0,-2.485 2.015,-4.5 4.5,-4.5 h 87 c 2.49,0 4.5,2.015 4.5,4.5 v 18 c 0,2.485 -2.01,4.5 -4.5,4.5 h -87 c -2.485,0 -4.5,-2.015 -4.5,-4.5 z"
         stroke="#000000"
         stroke-width="0.666667"
         stroke-miterlimit="8"
         fill="#ffffff"
         fill-rule="evenodd"
         id="path26" />
      <path
         d="m 989.13,177.673 h 36.83 v 17 h -36.83 z"
         fill="#ffffff"
         fill-rule="evenodd"
         id="path27" />
      <text
         font-family="'Calibri Light', 'Calibri Light_MSFontService', sans-serif"
         font-weight="300"
         font-size="13px"
         transform="translate(989.13,191)"
         id="text27">Return</text>
      <path
         d="m 823.5,178 c 0,-2.485 2.015,-4.5 4.5,-4.5 h 87 c 2.485,0 4.5,2.015 4.5,4.5 v 18 c 0,2.485 -2.015,4.5 -4.5,4.5 h -87 c -2.485,0 -4.5,-2.015 -4.5,-4.5 z"
         stroke="#000000"
         stroke-width="0.666667"
         stroke-miterlimit="8"
         fill="#ffffff"
         fill-rule="evenodd"
         id="path28" />
      <path
         d="m 835.016,177.673 h 71 v 17 h -71 z"
         fill="#ffffff"
         fill-rule="evenodd"
         id="path29" />
      <text
         font-family="'Calibri Light', 'Calibri Light_MSFontService', sans-serif"
         font-weight="300"
         font-size="13px"
         transform="translate(835.016,191)"
         id="text29">Generic Type</text>
      <path
         d="m 684.5,239.049 c 0,-2.512 2.037,-4.549 4.549,-4.549 h 86.902 c 2.512,0 4.549,2.037 4.549,4.549 v 17.902 c 0,2.512 -2.037,4.549 -4.549,4.549 h -86.902 c -2.512,0 -4.549,-2.037 -4.549,-4.549 z"
         stroke="#000000"
         stroke-width="0.666667"
         stroke-miterlimit="8"
         fill="#ffffff"
         fill-rule="evenodd"
         id="path30" />
      <path
         d="m 700.194,238.29 h 62.834 v 17 h -62.834 z"
         fill="#ffffff"
         fill-rule="evenodd"
         id="path31" />
      <text
         font-family="'Calibri Light', 'Calibri Light_MSFontService', sans-serif"
         font-weight="300"
         font-size="13px"
         transform="translate(700.194,251)"
         id="text31">Namespace</text>
      <path
         d="m 684.5,208 c 0,-2.485 2.015,-4.5 4.5,-4.5 h 87 c 2.485,0 4.5,2.015 4.5,4.5 v 18 c 0,2.485 -2.015,4.5 -4.5,4.5 h -87 c -2.485,0 -4.5,-2.015 -4.5,-4.5 z"
         stroke="#000000"
         stroke-width="0.666667"
         stroke-miterlimit="8"
         fill="#ffffff"
         fill-rule="evenodd"
         id="path32" />
      <path
         d="m 704.635,207.806 h 54.167 v 17 h -54.167 z"
         fill="#ffffff"
         fill-rule="evenodd"
         id="path33" />
      <text
         font-family="'Calibri Light', 'Calibri Light_MSFontService', sans-serif"
         font-weight="300"
         font-size="13px"
         transform="translate(704.635,221)"
         id="text33">Data Type</text>
      <path
         d="m 684.5,146.833 c 0,-2.393 1.94,-4.333 4.333,-4.333 h 87.334 c 2.393,0 4.333,1.94 4.333,4.333 v 17.334 c 0,2.393 -1.94,4.333 -4.333,4.333 h -87.334 c -2.393,0 -4.333,-1.94 -4.333,-4.333 z"
         stroke="#000000"
         stroke-width="0.666667"
         stroke-miterlimit="8"
         fill="#ffffff"
         fill-rule="evenodd"
         id="path34" />
      <path
         d="m 714.787,146.011 h 35.333 v 17 h -35.333 z"
         fill="#ffffff"
         fill-rule="evenodd"
         id="path35" />
      <text
         font-family="'Calibri Light', 'Calibri Light_MSFontService', sans-serif"
         font-weight="300"
         font-size="13px"
         transform="translate(714.787,159)"
         id="text35">Object</text>
      <path
         d="m 684.5,177.833 c 0,-2.393 1.94,-4.333 4.333,-4.333 h 87.334 c 2.393,0 4.333,1.94 4.333,4.333 v 17.334 c 0,2.393 -1.94,4.333 -4.333,4.333 h -87.334 c -2.393,0 -4.333,-1.94 -4.333,-4.333 z"
         stroke="#000000"
         stroke-width="0.666667"
         stroke-miterlimit="8"
         fill="#ffffff"
         fill-rule="evenodd"
         id="path36" />
      <path
         d="m 708.283,177.04 h 47.166 v 17 h -47.166 z"
         fill="#ffffff"
         fill-rule="evenodd"
         id="path37" />
      <text
         font-family="'Calibri Light', 'Calibri Light_MSFontService', sans-serif"
         font-weight="300"
         font-size="13px"
         transform="translate(708.283,190)"
         id="text37">Function</text>
      <path
         d="m 823.5,147 c 0,-2.485 2.015,-4.5 4.5,-4.5 h 87 c 2.485,0 4.5,2.015 4.5,4.5 v 18 c 0,2.485 -2.015,4.5 -4.5,4.5 h -87 c -2.485,0 -4.5,-2.015 -4.5,-4.5 z"
         stroke="#000000"
         stroke-width="0.666667"
         stroke-miterlimit="8"
         fill="#ffffff"
         fill-rule="evenodd"
         id="path38" />
      <path
         d="m 857.683,146.644 h 25.667 v 17 h -25.667 z"
         fill="#ffffff"
         fill-rule="evenodd"
         id="path39" />
      <text
         font-family="'Calibri Light', 'Calibri Light_MSFontService', sans-serif"
         font-weight="300"
         font-size="13px"
         transform="translate(857.683,160)"
         id="text39">Infer</text>
      <path
         d="m 822.5,209 c 0,-2.485 2.015,-4.5 4.5,-4.5 h 87 c 2.485,0 4.5,2.015 4.5,4.5 v 18 c 0,2.485 -2.015,4.5 -4.5,4.5 h -87 c -2.485,0 -4.5,-2.015 -4.5,-4.5 z"
         stroke="#000000"
         stroke-width="0.666667"
         stroke-miterlimit="8"
         fill="#ffffff"
         fill-rule="evenodd"
         id="path40" />
      <path
         d="m 848.032,208.439 h 43.833 v 17 h -43.833 z"
         fill="#ffffff"
         fill-rule="evenodd"
         id="path41" />
      <text
         font-family="'Calibri Light', 'Calibri Light_MSFontService', sans-serif"
         font-weight="300"
         font-size="13px"
         transform="translate(848.032,221)"
         id="text41">Subtype</text>
      <path
         d="m 1100.5,196.833 c 0,-3.497 2.84,-6.333 6.33,-6.333 h 131.34 c 3.49,0 6.33,2.836 6.33,6.333 v 25.334 c 0,3.497 -2.84,6.333 -6.33,6.333 h -131.34 c -3.49,0 -6.33,-2.836 -6.33,-6.333 z"
         stroke="#000000"
         stroke-width="0.666667"
         stroke-miterlimit="8"
         fill="#ffffff"
         fill-rule="evenodd"
         id="path42" />
      <path
         d="m 1126.19,191.902 h 92.16 v 17 h -92.16 z"
         fill="#ffffff"
         fill-rule="evenodd"
         id="path43" />
      <path
         d="m 1137.35,207.902 h 69.84 v 17 h -69.84 z"
         fill="#ffffff"
         fill-rule="evenodd"
         id="path44" />
      <text
         font-family="'Calibri Light', 'Calibri Light_MSFontService', sans-serif"
         font-weight="300"
         font-size="13px"
         transform="translate(1126.19,205)"
         id="text44">Generic Function</text>
      <text
         fill="#008080"
         font-family="'Calibri Light', 'Calibri Light_MSFontService', sans-serif"
         font-weight="300"
         font-size="13px"
         transform="translate(1137.35,221)"
         id="text45">Early Binding</text>
      <path
         d="m 1053.5,68.1668 c 0,-2.0251 1.64,-3.6667 3.67,-3.6667 h 46.66 c 2.03,0 3.67,1.6416 3.67,3.6667 v 14.6665 c 0,2.0251 -1.64,3.6668 -3.67,3.6668 h -46.66 c -2.03,0 -3.67,-1.6417 -3.67,-3.6668 z"
         stroke="#002060"
         stroke-width="0.666667"
         stroke-miterlimit="8"
         fill="#ffffff"
         fill-rule="evenodd"
         id="path45" />
      <path
         d="m 1062.34,66.1132 h 35.33 v 17 h -35.33 z"
         fill="#ffffff"
         fill-rule="evenodd"
         id="path46" />
      <text
         font-family="'Calibri Light', 'Calibri Light_MSFontService', sans-serif"
         font-weight="300"
         font-size="13px"
         transform="translate(1062.34,79)"
         id="text46">Object</text>
      <path
         d="m 1120.5,90.5001 c 0,4.4182 -0.6,8 -1.33,8 h -37.19 c -0.74,0 -1.34,3.5819 -1.34,7.9999 0,-4.418 -0.59,-7.9999 -1.33,-7.9999 h -37.48 c -0.73,0 -1.33,-3.5818 -1.33,-8"
         stroke="#002060"
         stroke-width="0.666667"
         stroke-miterlimit="8"
         fill="none"
         fill-rule="evenodd"
         id="path47" />
      <text
         fill="#9900ff"
         font-family="'Calibri Light', 'Calibri Light_MSFontService', sans-serif"
         font-weight="300"
         font-size="13px"
         transform="translate(705.931,104)"
         id="text47">NRS Refer</text>
      <text
         fill="#9900ff"
         font-family="'Calibri Light', 'Calibri Light_MSFontService', sans-serif"
         font-weight="300"
         font-size="13px"
         transform="translate(843.305,104)"
         id="text48">NRS Refer</text>
      <text
         fill="#9900ff"
         font-family="'Calibri Light', 'Calibri Light_MSFontService', sans-serif"
         font-weight="300"
         font-size="13px"
         transform="translate(981.167,104)"
         id="text49">NRS Refer</text>
      <text
         fill="#008080"
         font-family="'Calibri Light', 'Calibri Light_MSFontService', sans-serif"
         font-weight="300"
         font-size="13px"
         transform="translate(1153.5,104)"
         id="text50">NRS Call</text>
      <text
         fill="#002060"
         font-family="'Calibri Light', 'Calibri Light_MSFontService', sans-serif"
         font-weight="300"
         font-size="13px"
         transform="translate(1124.04,49)"
         id="text51">MUS Initialize</text>
      <text
         fill="#002060"
         font-family="'Calibri Light', 'Calibri Light_MSFontService', sans-serif"
         font-weight="300"
         font-size="13px"
         transform="translate(1124.04,65)"
         id="text52">or MUS Write</text>
      <path
         d="m 1100.5,164 c 0,-2.485 2.01,-4.5 4.5,-4.5 h 135 c 2.49,0 4.5,2.015 4.5,4.5 v 18 c 0,2.485 -2.01,4.5 -4.5,4.5 h -135 c -2.49,0 -4.5,-2.015 -4.5,-4.5 z"
         stroke="#000000"
         stroke-width="0.666667"
         stroke-miterlimit="8"
         fill="#ffffff"
         fill-rule="evenodd"
         id="path52" />
      <path
         d="m 1148.69,163.215 h 47.16 v 17 h -47.16 z"
         fill="#ffffff"
         fill-rule="evenodd"
         id="path53" />
      <text
         font-family="'Calibri Light', 'Calibri Light_MSFontService', sans-serif"
         font-weight="300"
         font-size="13px"
         transform="translate(1148.69,176)"
         id="text53">Function</text>
      <text
         fill="#7f7f7f"
         font-family="'Calibri Light', 'Calibri Light_MSFontService', sans-serif"
         font-weight="300"
         font-size="12px"
         transform="translate(672.547,306)"
         id="text54">BF, I.</text>
      <text
         fill="#7f7f7f"
         font-family="'Calibri Light', 'Calibri Light_MSFontService', sans-serif"
         font-weight="300"
         font-size="12px"
         transform="translate(698.881,306)"
         id="text55">Bojanova</text>
      <text
         font-family="'Calibri Light', 'Calibri Light_MSFontService', sans-serif"
         font-weight="300"
         font-size="13px"
         transform="translate(858.687,17)"
         id="text56">Name Resolution and Biding Sub</text>
      <text
         font-family="'Calibri Light', 'Calibri Light_MSFontService', sans-serif"
         font-weight="300"
         font-size="13px"
         transform="translate(1033.85,17)"
         id="text57">-</text>
      <text
         font-family="'Calibri Light', 'Calibri Light_MSFontService', sans-serif"
         font-weight="300"
         font-size="13px"
         transform="translate(1037.85,17)"
         id="text58">Model</text>
    </g>
  </g>
</svg>
