<?xml version="1.0" encoding="UTF-8" standalone="no"?>
<!-- Created with Inkscape (http://www.inkscape.org/) -->

<svg
   width="245.44511mm"
   height="151.67549mm"
   viewBox="0 0 245.44511 151.6755"
   version="1.1"
   id="svg1"
   inkscape:version="1.3 (0e150ed6c4, 2023-07-21)"
   sodipodi:docname="_CDS.svg"
   xmlns:inkscape="http://www.inkscape.org/namespaces/inkscape"
   xmlns:sodipodi="http://sodipodi.sourceforge.net/DTD/sodipodi-0.dtd"
   xmlns="http://www.w3.org/2000/svg"
   xmlns:svg="http://www.w3.org/2000/svg">
  <sodipodi:namedview
     id="namedview1"
     pagecolor="#ffffff"
     bordercolor="#000000"
     borderopacity="0.25"
     inkscape:showpageshadow="2"
     inkscape:pageopacity="0.0"
     inkscape:pagecheckerboard="0"
     inkscape:deskcolor="#d1d1d1"
     inkscape:document-units="mm"
     inkscape:zoom="1.0520974"
     inkscape:cx="-177.7402"
     inkscape:cy="-22.336336"
     inkscape:window-width="2560"
     inkscape:window-height="1377"
     inkscape:window-x="-8"
     inkscape:window-y="859"
     inkscape:window-maximized="1"
     inkscape:current-layer="layer1" />
  <defs
     id="defs1">
    <clipPath
       id="clip0">
      <rect
         x="201"
         y="20"
         width="837"
         height="549"
         id="rect1" />
    </clipPath>
    <clipPath
       id="clip0-7">
      <rect
         x="201"
         y="140"
         width="837"
         height="587"
         id="rect1-6" />
    </clipPath>
    <clipPath
       id="clip0-3">
      <rect
         x="76"
         y="130"
         width="763"
         height="769"
         id="rect1-1" />
    </clipPath>
    <clipPath
       id="clip0-73">
      <rect
         x="80"
         y="63"
         width="935"
         height="590"
         id="rect1-5" />
    </clipPath>
  </defs>
  <g
     inkscape:label="Layer 1"
     inkscape:groupmode="layer"
     id="layer1"
     transform="translate(-152.05675,-154.52959)">
    <g
       clip-path="url(#clip0-73)"
       transform="matrix(0.26458333,0,0,0.26458333,130.84596,135.67441)"
       id="g70">
      <path
         d="m 342.5,490.334 c 0,-11.506 9.328,-20.834 20.833,-20.834 h 523.334 c 11.506,0 20.833,9.328 20.833,20.834 v 83.333 c 0,11.506 -9.327,20.833 -20.833,20.833 H 363.333 c -11.505,0 -20.833,-9.327 -20.833,-20.833 z"
         stroke="#deebf7"
         stroke-width="0.666667"
         stroke-miterlimit="8"
         fill="#f6f8fc"
         fill-rule="evenodd"
         id="path1" />
      <text
         font-family="Arial, Arial_MSFontService, sans-serif"
         font-weight="400"
         font-size="12px"
         transform="translate(612.413,492)"
         id="text1">DSV</text>
      <path
         d="m 451.5,509.5 c 0,-1.657 1.343,-3 3,-3 h 37 c 1.657,0 3,1.343 3,3 v 12 c 0,1.657 -1.343,3 -3,3 h -37 c -1.657,0 -3,-1.343 -3,-3 z"
         stroke="#000000"
         stroke-width="0.666667"
         stroke-miterlimit="8"
         fill="#f2f2f2"
         fill-rule="evenodd"
         id="path2" />
      <text
         fill="#7030a0"
         font-family="Arial, Arial_MSFontService, sans-serif"
         font-weight="400"
         font-size="11px"
         transform="translate(460.017,519)"
         id="text2">Hash</text>
      <path
         d="m 342.5,351.001 c 0,-8.561 6.94,-15.501 15.501,-15.501 H 889 c 8.56,0 15.5,6.94 15.5,15.501 V 413 c 0,8.56 -6.94,15.5 -15.5,15.5 H 358.001 C 349.44,428.5 342.5,421.56 342.5,413 Z"
         stroke="#deebf7"
         stroke-width="0.666667"
         stroke-miterlimit="8"
         fill="#f6f8fc"
         fill-rule="evenodd"
         id="path3" />
      <text
         font-family="Arial, Arial_MSFontService, sans-serif"
         font-weight="400"
         font-size="12px"
         transform="translate(610.573,357)"
         id="text3">CPH</text>
      <path
         d="m 80.5001,137.5 c 0,-16.016 12.9838,-29 28.9999,-29 h 869 c 16.016,0 29,12.984 29,29 v 116 c 0,16.016 -12.984,29 -29,29 h -869 c -16.0161,0 -28.9999,-12.984 -28.9999,-29 z"
         stroke="#deebf7"
         stroke-width="0.666667"
         stroke-miterlimit="8"
         fill="#f6f8fc"
         fill-rule="evenodd"
         id="path4" />
      <text
         font-family="Arial, Arial_MSFontService, sans-serif"
         font-weight="400"
         font-size="12px"
         transform="translate(529.942,133)"
         id="text4">KMN</text>
      <path
         d="M 0.149071,-0.298142 0.848123,0.0513833 1.54532,1.02746 2.1277,2.51576 2.75889,4.59869 3.38844,7.1169 l 0.56465,3.0742 0.62627,3.5697 0.56363,4.0707 0.56297,4.5037 0.56288,4.8783 0.5628,5.3779 0.56287,5.7538 0.50028,6.1285 0.50013,6.5016 1.00023,13.9407 0.87525,15.2536 0.8126,16.2529 0.6876,17.1905 0.6251,17.94 0.4376,18.502 0.375,19.003 0.3125,38.814 -10e-5,-0.006 0.25,9.75 -6e-4,-0.012 0.625,9.687 -0.0015,-0.017 1.125,9.688 -0.0017,-0.013 1.5,9.625 -0.0023,-0.013 1.875,9.562 -0.0033,-0.015 2.3125,9.438 -0.0051,-0.019 5.6875,18.563 -0.0082,-0.024 7,17.938 -0.0104,-0.024 8.3125,17.187 -0.0119,-0.022 9.4375,16.25 -0.0135,-0.021 10.4375,15.187 -0.016,-0.021 11.375,14 -0.0137,-0.016 5.9375,6.437 -0.0105,-0.01 6.1875,6.125 -0.0112,-0.011 6.375,5.75 -0.0109,-0.009 6.5,5.375 -0.0148,-0.012 6.6254,4.875 -0.013,-0.009 6.75,4.5 -0.015,-0.009 6.875,4.062 -0.021,-0.011 7,3.5 -0.016,-0.008 7.062,3.063 -0.02,-0.008 7.125,2.562 -0.023,-0.007 7.187,2 -0.021,-0.005 7.25,1.5 -0.028,-0.005 7.25,0.875 -0.026,-0.002 7.313,0.312 h -0.026 l 14.563,-0.5 -0.025,0.002 14.438,-1.562 -0.022,0.003 14.187,-2.5 -0.021,0.004 13.875,-3.375 -0.02,0.006 13.437,-4.188 -0.02,0.007 12.875,-4.937 -0.021,0.009 12.125,-5.625 -0.02,0.01 11.375,-6.25 -0.021,0.012 10.438,-6.75 -0.022,0.016 9.437,-7.25 -0.022,0.018 8.313,-7.625 -0.026,0.026 7,-8 -0.023,0.031 5.687,-8.25 -0.018,0.03 2.312,-4.25 -0.012,0.024 1.875,-4.25 -0.009,0.024 1.5,-4.25 -0.009,0.027 1.125,-4.313 -0.008,0.048 0.229,-2.058 0.663,0.074 -0.232,2.081 -1.135,4.35 -1.509,4.275 -1.886,4.274 -2.327,4.278 -5.709,8.28 -7.024,8.028 -8.337,7.647 -9.46,7.268 -10.459,6.763 -11.395,6.262 -12.146,5.634 -12.895,4.946 -13.458,4.193 -13.896,3.38 -14.209,2.504 -14.46,1.565 -14.588,0.501 -7.338,-0.314 -7.277,-0.878 -7.275,-1.505 -7.21,-2.006 -7.146,-2.57 -7.081,-3.071 -7.019,-3.509 -6.892,-4.073 -6.764,-4.509 -6.6392,-4.886 -6.5127,-5.385 -6.3861,-5.76 -6.1984,-6.136 -5.9497,-6.451 -11.39,-14.018 -10.4523,-15.209 -9.4502,-16.272 -8.3237,-17.211 -7.0093,-17.961 -5.6939,-18.583 -2.3166,-9.455 -1.8778,-9.576 -1.502,-9.638 -1.1267,-9.703 -0.626,-9.702 -0.2502,-9.759 -0.3125,-38.816 v 0.004 l -0.375,-19 10e-5,0.001 -0.4375,-18.5 10e-5,0.004 -0.625,-17.937 v 0.001 l -0.6875,-17.1872 2e-4,0.0033 -0.81252,-16.25 1.3e-4,0.0025 -0.875,-15.25 3.1e-4,0.0047 -1,-13.9374 1.3e-4,0.0017 -0.5,-6.5 1.2e-4,0.0015 -0.5,-6.125 4.8e-4,0.0054 -0.5625,-5.75 2.3e-4,0.0022 -0.5625,-5.375 3.8e-4,0.0035 -0.5625,-4.875 3.8e-4,0.0031 -0.5625,-4.5 5.8e-4,0.0044 -0.5625,-4.0625 0.00186,0.0119 -0.625,-3.5625 4.7e-4,0.0026 -0.5625,-3.06248 0.00447,0.02062 -0.625,-2.5 0.00437,0.01583 -0.625,-2.0625 0.0086,0.0248 -0.562504,-1.4375 0.03917,0.07228 -0.625,-0.875004 0.122173,0.104396 -0.625,-0.3125 z M 319.247,330.707 l 4.732,-7.59 3.233,8.34 z"
         transform="matrix(0,1,1,0,573.5,229.5)"
         id="path5" />
      <path
         d="m 366.5,373.5 c 0,-1.657 1.343,-3 3,-3 h 134 c 1.657,0 3,1.343 3,3 v 12 c 0,1.657 -1.343,3 -3,3 h -134 c -1.657,0 -3,-1.343 -3,-3 z"
         stroke="#000000"
         stroke-width="0.666667"
         stroke-miterlimit="8"
         fill="#f2f2f2"
         fill-rule="evenodd"
         id="path6" />
      <text
         fill="#0000ff"
         font-family="Arial, Arial_MSFontService, sans-serif"
         font-weight="400"
         font-size="12px"
         transform="translate(371.069,384)"
         id="text6">Asymmetric</text>
      <text
         font-family="Arial, Arial_MSFontService, sans-serif"
         font-weight="400"
         font-size="12px"
         transform="translate(437.069,384)"
         id="text7">/</text>
      <text
         fill="#7030a0"
         font-family="Arial, Arial_MSFontService, sans-serif"
         font-weight="400"
         font-size="12px"
         transform="translate(443.736,384)"
         id="text8">Symmetric</text>
      <path
         d="m 573.51,229.586 -0.263,0.986 -0.68,1.087 -1.183,0.987 -1.535,0.959 -1.963,0.95 -2.335,0.946 -5.709,1.82 -7.143,1.817 -8.389,1.69 -9.509,1.564 -10.507,1.501 -11.507,1.376 -12.256,1.25 -12.943,1.063 -13.505,0.938 -14.005,0.75 -14.319,0.563 -29.254,0.438 h 0.007 l -7.313,0.25 0.017,-10e-4 -7.375,0.625 0.02,-0.003 -7.25,1.063 0.019,-0.004 -7.25,1.5 0.014,-0.003 -7.25,1.813 0.019,-0.006 -7.125,2.25 0.023,-0.008 -13.937,5.563 0.027,-0.013 -13.5,6.875 0.025,-0.014 -13,8.063 0.024,-0.017 -12.25,9.188 0.023,-0.019 -11.438,10.25 0.019,-0.019 -10.5,11.063 0.019,-0.021 -9.5,11.875 0.017,-0.024 -8.375,12.563 0.015,-0.025 -7.125,13.062 0.015,-0.031 -5.687,13.563 0.008,-0.024 -2.312,6.938 0.005,-0.019 -1.875,6.938 0.004,-0.015 -1.562,7.062 0.004,-0.022 -1.063,7.063 0.002,-0.018 -0.687,7.063 0.001,-0.021 -0.25,7.125 v -0.025 l 0.563,14.25 -0.002,-0.022 1.5,14.063 -0.003,-0.024 2.5,13.875 -0.005,-0.022 3.375,13.563 -0.006,-0.021 4.188,13.125 -0.008,-0.022 5,12.5 -0.008,-0.017 5.563,11.937 -0.012,-0.023 6.25,11.063 -0.012,-0.021 6.75,10.188 -0.016,-0.022 7.25,9.25 -0.021,-0.024 7.687,8.062 -0.024,-0.022 8,6.875 -0.03,-0.024 8.25,5.563 -0.029,-0.018 4.187,2.25 -0.028,-0.013 4.312,1.812 -0.018,-0.007 4.25,1.5 -0.031,-0.009 4.312,1.062 -0.042,-0.007 2.05,0.228 -0.074,0.663 -2.072,-0.231 -4.349,-1.072 -4.275,-1.508 -4.336,-1.823 -4.216,-2.265 -8.28,-5.583 -8.028,-6.898 -7.71,-8.087 -7.268,-9.273 -6.764,-10.208 -6.262,-11.084 -5.572,-11.958 -5.008,-12.52 -4.194,-13.147 -3.38,-13.583 -2.504,-13.898 -1.503,-14.085 -0.563,-14.274 0.25,-7.148 0.69,-7.081 1.065,-7.082 1.567,-7.082 1.879,-6.954 2.32,-6.958 5.699,-13.59 7.14,-13.091 8.391,-12.586 9.518,-11.898 10.519,-11.082 11.459,-10.269 12.273,-9.205 13.024,-8.078 13.526,-6.888 13.964,-5.573 7.146,-2.256 7.266,-1.817 7.267,-1.503 7.269,-1.066 7.394,-0.626 7.324,-0.251 29.253,-0.437 h -0.008 l 14.313,-0.563 -0.005,10e-4 14,-0.75 h -0.005 l 13.5,-0.938 -0.005,0.001 12.938,-1.063 -0.007,0.001 12.25,-1.25 -0.005,0.001 11.5,-1.375 -0.008,0.001 10.5,-1.5 -0.007,0.001 9.5,-1.563 -0.012,0.002 8.375,-1.687 -0.016,0.003 7.125,-1.812 -0.019,0.005 5.687,-1.812 -0.024,0.009 2.313,-0.938 -0.02,0.009 1.937,-0.938 -0.031,0.018 1.5,-0.938 -0.037,0.027 1.125,-0.938 -0.069,0.08 0.625,-1 -0.039,0.091 0.25,-0.938 z m -228.599,319.16 7.589,4.733 -8.34,3.232 z"
         id="path8" />
      <path
         d="m 448.5,547.333 c 0,-1.564 1.269,-2.833 2.833,-2.833 h 64.334 c 1.565,0 2.833,1.269 2.833,2.833 v 11.334 c 0,1.565 -1.268,2.833 -2.833,2.833 h -64.334 c -1.564,0 -2.833,-1.268 -2.833,-2.833 z"
         stroke="#000000"
         stroke-width="0.666667"
         stroke-miterlimit="8"
         fill="#f2f2f2"
         fill-rule="evenodd"
         id="path9" />
      <text
         fill="#008080"
         font-family="Arial, Arial_MSFontService, sans-serif"
         font-weight="400"
         font-size="11px"
         transform="translate(455.626,556)"
         id="text9">Hash+RND</text>
      <path
         d="m 389.5,562.5 c 0,-1.657 1.343,-3 3,-3 h 37 c 1.657,0 3,1.343 3,3 v 12 c 0,1.657 -1.343,3 -3,3 h -37 c -1.657,0 -3,-1.343 -3,-3 z"
         stroke="#000000"
         stroke-width="0.666667"
         stroke-miterlimit="8"
         fill="#f2f2f2"
         fill-rule="evenodd"
         id="path10" />
      <text
         fill="#7f7f7f"
         font-family="Arial, Arial_MSFontService, sans-serif"
         font-weight="400"
         font-size="11px"
         transform="translate(399.433,572)"
         id="text10">CPH</text>
      <path
         d="m 352.5,547.5 c 0,-1.657 1.343,-3 3,-3 h 79 c 1.657,0 3,1.343 3,3 v 12 c 0,1.657 -1.343,3 -3,3 h -79 c -1.657,0 -3,-1.343 -3,-3 z"
         stroke="#000000"
         stroke-width="0.666667"
         stroke-miterlimit="8"
         fill="#f2f2f2"
         fill-rule="evenodd"
         id="path11" />
      <text
         fill="#3333cc"
         font-family="Arial, Arial_MSFontService, sans-serif"
         font-weight="400"
         font-size="11px"
         transform="translate(360.732,556)"
         id="text11">DigSgn</text>
      <text
         font-family="Arial, Arial_MSFontService, sans-serif"
         font-weight="400"
         font-size="11px"
         transform="translate(398.898,556)"
         id="text12">/</text>
      <text
         fill="#7030a0"
         font-family="Arial, Arial_MSFontService, sans-serif"
         font-weight="400"
         font-size="11px"
         transform="translate(404.898,556)"
         id="text13">MAC</text>
      <path
         d="m 848.5,562.5 c 0,-1.657 1.343,-3 3,-3 h 36 c 1.657,0 3,1.343 3,3 v 12 c 0,1.657 -1.343,3 -3,3 h -36 c -1.657,0 -3,-1.343 -3,-3 z"
         stroke="#000000"
         stroke-width="0.666667"
         stroke-miterlimit="8"
         fill="#f2f2f2"
         fill-rule="evenodd"
         id="path13" />
      <text
         fill="#7f7f7f"
         font-family="Arial, Arial_MSFontService, sans-serif"
         font-weight="400"
         font-size="11px"
         transform="translate(857.939,572)"
         id="text14">DSV</text>
      <path
         d="m 250.5,245.333 c 0,-1.564 1.269,-2.833 2.833,-2.833 h 65.334 c 1.564,0 2.833,1.269 2.833,2.833 v 11.334 c 0,1.564 -1.269,2.833 -2.833,2.833 h -65.334 c -1.564,0 -2.833,-1.269 -2.833,-2.833 z"
         stroke="#000000"
         stroke-width="0.666667"
         stroke-miterlimit="8"
         fill="#f2f2f2"
         fill-rule="evenodd"
         id="path14" />
      <text
         fill="#7f7f7f"
         font-family="Arial, Arial_MSFontService, sans-serif"
         font-weight="400"
         font-size="11px"
         transform="translate(260.161,254)"
         id="text15">CPH, DSV</text>
      <path
         d="m 281.5,175.333 c 0,-1.564 1.269,-2.833 2.833,-2.833 h 36.334 c 1.565,0 2.833,1.269 2.833,2.833 v 11.334 c 0,1.564 -1.268,2.833 -2.833,2.833 h -36.334 c -1.564,0 -2.833,-1.269 -2.833,-2.833 z"
         stroke="#000000"
         stroke-width="0.666667"
         stroke-miterlimit="8"
         fill="#f2f2f2"
         fill-rule="evenodd"
         id="path15" />
      <text
         fill="#7f7f7f"
         font-family="Arial, Arial_MSFontService, sans-serif"
         font-weight="400"
         font-size="11px"
         transform="translate(290.868,184)"
         id="text16">CPH</text>
      <path
         d="m 178.5,174.333 c 0,-1.564 1.269,-2.833 2.833,-2.833 h 64.334 c 1.565,0 2.833,1.269 2.833,2.833 v 11.334 c 0,1.564 -1.268,2.833 -2.833,2.833 h -64.334 c -1.564,0 -2.833,-1.269 -2.833,-2.833 z"
         stroke="#000000"
         stroke-width="0.666667"
         stroke-miterlimit="8"
         fill="#f2f2f2"
         fill-rule="evenodd"
         id="path16" />
      <text
         fill="#008080"
         font-family="Arial, Arial_MSFontService, sans-serif"
         font-weight="400"
         font-size="11px"
         transform="translate(186.202,183)"
         id="text17">Hash+RND</text>
      <path
         d="m 305.5,153.667 c 0,-2.301 1.866,-4.167 4.167,-4.167 h 59.666 c 2.302,0 4.167,1.866 4.167,4.167 v 16.666 c 0,2.302 -1.865,4.167 -4.167,4.167 h -59.666 c -2.301,0 -4.167,-1.865 -4.167,-4.167 z"
         stroke="#000000"
         stroke-width="0.666667"
         stroke-miterlimit="8"
         fill="#ffffff"
         fill-rule="evenodd"
         id="path17" />
      <text
         font-family="Arial, Arial_MSFontService, sans-serif"
         font-weight="400"
         font-size="12px"
         transform="translate(324.669,166)"
         id="text18">Store</text>
      <path
         d="m 95.5001,153.667 c 0,-2.301 1.8655,-4.167 4.1668,-4.167 H 203.333 c 2.301,0 4.167,1.866 4.167,4.167 v 16.666 c 0,2.301 -1.866,4.167 -4.167,4.167 H 99.6669 c -2.3013,0 -4.1668,-1.866 -4.1668,-4.167 z"
         stroke="#000000"
         stroke-width="0.666667"
         stroke-miterlimit="8"
         fill="#ffffff"
         fill-rule="evenodd"
         id="path18" />
      <text
         font-family="Arial, Arial_MSFontService, sans-serif"
         font-weight="400"
         font-size="12px"
         transform="translate(103.949,166)"
         id="text19">Generate / Select</text>
      <path
         d="m 207.5,161.167 h 92.235 v 0.666 H 207.5 Z m 90.901,-3.667 8,4 -8,4 z"
         id="path19" />
      <path
         d="M 0.333331,-0.00136234 0.751858,102.402 0.0851973,102.405 -0.333331,0.00136234 Z M 4.41304,101.054 0.445774,109.07 -3.58689,101.086 Z"
         fill="#920000"
         transform="matrix(1,0,0,-1,807.5,521.57)"
         id="path20" />
      <path
         d="m 308.5,229.5 c 0,-1.657 1.343,-3 3,-3 h 79 c 1.657,0 3,1.343 3,3 v 12 c 0,1.657 -1.343,3 -3,3 h -79 c -1.657,0 -3,-1.343 -3,-3 z"
         stroke="#000000"
         stroke-width="0.666667"
         stroke-miterlimit="8"
         fill="#f2f2f2"
         fill-rule="evenodd"
         id="path21" />
      <text
         fill="#0000ff"
         font-family="Arial, Arial_MSFontService, sans-serif"
         font-weight="400"
         font-size="11px"
         transform="translate(316.929,238)"
         id="text21">DigSgn</text>
      <text
         font-family="Arial, Arial_MSFontService, sans-serif"
         font-weight="400"
         font-size="11px"
         transform="translate(355.096,238)"
         id="text22">/</text>
      <text
         fill="#7030a0"
         font-family="Arial, Arial_MSFontService, sans-serif"
         font-weight="400"
         font-size="11px"
         transform="translate(361.096,238)"
         id="text23">MAC</text>
      <path
         d="m 927.5,153.667 c 0,-2.301 1.866,-4.167 4.167,-4.167 h 58.666 c 2.302,0 4.167,1.866 4.167,4.167 v 16.666 c 0,2.302 -1.865,4.167 -4.167,4.167 h -58.666 c -2.301,0 -4.167,-1.865 -4.167,-4.167 z"
         stroke="#000000"
         stroke-width="0.666667"
         stroke-miterlimit="8"
         fill="#ffffff"
         fill-rule="evenodd"
         id="path23" />
      <text
         font-family="Arial, Arial_MSFontService, sans-serif"
         font-weight="400"
         font-size="12px"
         transform="translate(939.756,166)"
         id="text24">Destroy</text>
      <path
         d="m 373.5,161.167 h 547.557 v 0.666 H 373.5 Z m 546.221,-3.667 8,4 -8,4 z"
         id="path24" />
      <path
         d="m 373.5,208.667 c 0,-2.301 1.866,-4.167 4.167,-4.167 h 391.666 c 2.302,0 4.167,1.866 4.167,4.167 v 16.666 c 0,2.302 -1.865,4.167 -4.167,4.167 H 377.667 c -2.301,0 -4.167,-1.865 -4.167,-4.167 z"
         stroke="#000000"
         stroke-width="0.666667"
         stroke-miterlimit="8"
         fill="#ffffff"
         fill-rule="evenodd"
         id="path25" />
      <text
         font-family="Arial, Arial_MSFontService, sans-serif"
         font-weight="400"
         font-size="12px"
         transform="translate(547.392,221)"
         id="text25">Distribute</text>
      <text
         font-family="Arial, Arial_MSFontService, sans-serif"
         font-weight="400"
         font-size="12px"
         transform="translate(277.687,447)"
         id="text26">plaintext</text>
      <text
         font-family="Arial, Arial_MSFontService, sans-serif"
         font-weight="400"
         font-size="12px"
         transform="translate(595.983,412)"
         id="text27">ciphertext</text>
      <path
         d="m 470.5,400.167 h 296.635 v 0.666 H 470.5 Z m 295.302,-3.667 8,4 -8,4 z"
         id="path27" />
      <text
         font-family="Arial, Arial_MSFontService, sans-serif"
         font-weight="400"
         font-size="12px"
         transform="translate(923.918,447)"
         id="text28">plaintext</text>
      <text
         font-family="Arial, Arial_MSFontService, sans-serif"
         font-weight="400"
         font-size="12px"
         transform="translate(247.021,153)"
         id="text29">key</text>
      <rect
         x="239.5"
         y="295.5"
         width="285"
         height="313"
         stroke="#a6a6a6"
         stroke-width="0.666667"
         stroke-miterlimit="8"
         stroke-dasharray="5.33333, 2"
         fill="none"
         id="rect29" />
      <text
         font-family="Arial, Arial_MSFontService, sans-serif"
         font-weight="400"
         font-size="12px"
         transform="translate(248.659,312)"
         id="text30">Source</text>
      <rect
         x="722.5"
         y="295.5"
         width="285"
         height="313"
         stroke="#a6a6a6"
         stroke-width="0.666667"
         stroke-miterlimit="8"
         stroke-dasharray="5.33333, 2"
         fill="none"
         id="rect30" />
      <text
         font-family="Arial, Arial_MSFontService, sans-serif"
         font-weight="400"
         font-size="12px"
         transform="translate(971.782,312)"
         id="text31">User</text>
      <path
         d="m 469.5,537.167 h 298.216 v 0.666 H 469.5 Z m 296.882,-3.667 8,4 -8,4 z"
         id="path31" />
      <path
         d="M 0.0281477,-0.332143 7.4265,0.294836 14.8484,1.99308 22.0779,4.822 l 7.0962,3.83071 6.8412,4.70719 6.587,5.5833 6.2085,6.3339 5.7677,7.0215 5.327,7.6459 4.8258,8.1475 4.1988,8.6483 3.5716,8.9602 2.9455,9.3378 2.1312,9.5278 1.3165,9.7174 0.1206,3.0456 -0.6661,0.0264 -0.12,-3.0298 0.0028,0.0315 -1.3125,-9.6875 0.005,0.0281 -2.125,-9.5 0.0074,0.0275 -2.9375,-9.3125 0.0083,0.0231 -3.5625,-8.9375 0.0097,0.0222 -4.1875,-8.625 0.0131,0.0243 -4.8125,-8.125 0.0133,0.0207 -5.3125,-7.625 0.0159,0.021 -5.75,-7 0.0196,0.0217 -6.1875,-6.3125 0.0225,0.021 -6.5625,-5.5625 0.0266,0.0203 -6.8126,-4.68749 0.0307,0.01871 -7.0625,-3.8125 0.0368,0.01709 -7.1875,-2.8125 0.0471,0.01453 -7.37495,-1.687504 0.0462,0.007207 -7.3749977,-0.625 z M 82.6266,95.8518 78.9462,104.004 74.6328,96.1683 Z"
         transform="matrix(0,1,1,0,300.5,455.5)"
         id="path32" />
      <path
         d="m 437.853,514.906 -0.686,-102.404 0.666,-0.004 0.687,102.403 z m 4.325,-1.363 -3.946,8.027 -4.054,-7.973 z"
         fill="#920000"
         id="path33" />
      <path
         d="m 300.174,428.175 0.637,-2.927 1.736,-2.958 2.86,-2.861 3.788,-2.777 4.779,-2.641 5.522,-2.573 6.331,-2.382 6.953,-2.255 7.576,-2.066 8.138,-1.878 8.574,-1.627 8.951,-1.44 18.708,-1.94 12.645,-0.447 0.024,0.666 -12.634,0.447 0.022,-0.001 -18.687,1.937 0.018,-0.002 -8.937,1.437 0.009,-10e-4 -8.562,1.625 0.013,-0.003 -8.125,1.875 0.012,-0.003 -7.562,2.062 0.015,-0.004 -6.938,2.25 0.015,-0.005 -6.313,2.375 0.024,-0.01 -5.5,2.562 0.02,-0.01 -4.75,2.625 0.036,-0.023 -3.75,2.75 0.039,-0.033 -2.813,2.812 0.052,-0.067 -1.687,2.875 0.038,-0.098 -0.625,2.875 z m 95.736,-34.389 8.137,3.714 -7.854,4.281 z"
         id="path34" />
      <text
         font-family="Arial, Arial_MSFontService, sans-serif"
         font-weight="400"
         font-size="12px"
         transform="translate(557.842,551)"
         id="text34">signed/hashed plaintext</text>
      <path
         d="m 840.512,396.167 19.761,0.688 19.145,1.939 9.138,1.44 8.761,1.627 8.325,1.878 7.764,2.066 7.14,2.255 6.393,2.382 5.71,2.572 4.779,2.641 3.928,2.788 2.143,2.683 -0.521,0.416 -2.113,-2.646 0.067,0.063 -3.875,-2.75 0.032,0.02 -4.75,-2.625 0.024,0.012 -5.687,-2.562 0.02,0.008 -6.375,-2.375 0.016,0.006 -7.125,-2.25 0.015,0.004 -7.75,-2.062 0.012,0.003 -8.312,-1.875 0.012,0.002 -8.75,-1.625 0.009,0.002 -9.125,-1.438 0.018,0.003 -19.125,-1.938 0.022,0.002 -19.75,-0.688 z m 105.657,22.136 0.151,8.943 -7.245,-5.245 z"
         id="path35" />
      <path
         d="M 0.0147535,-0.333007 9.90467,0.105154 19.683,1.42147 l 9.7152,2.13107 9.4002,2.94541 9.0847,3.57125 8.7736,4.1987 8.2097,4.8256 7.7709,5.3268 7.0844,5.7679 6.3964,6.2083 5.6458,6.5867 4.7697,6.8408 3.8944,7.097 2.83,7.2329 1.723,8.0835 -0.652,0.139 -1.718,-8.0569 0.016,0.052 -2.8124,-7.1875 0.0182,0.0388 -3.875,-7.0625 0.0188,0.0303 -4.75,-6.8125 0.0203,0.0263 -5.625,-6.5625 0.0209,0.0223 -6.375,-6.1875 0.0217,0.0193 -7.0625,-5.75 0.022,0.0164 -7.75,-5.3125 0.0196,0.0125 -8.1875,-4.8125 0.025,0.0133 -8.75,-4.1875 0.0219,0.0095 -9.0624,-3.56248 0.0222,0.00786 -9.375,-2.9375 0.0283,0.00751 -9.6875,-2.125 0.0269,0.00476 -9.74997,-1.312496 0.02972,0.002653 -9.8750035,-0.4375 z M 108.518,70.6174 l -3.261,8.3288 -4.706,-7.6056 z"
         transform="matrix(1,0,0,-1,841.5,534.446)"
         id="path36" />
      <text
         fill="#920000"
         font-family="Arial, Arial_MSFontService, sans-serif"
         font-weight="400"
         font-size="12px"
         transform="translate(554.176,525)"
         id="text36">signed/hashed ciphertext</text>
      <path
         d="m 573.822,229.527 -0.377,4.653 -1.2,4.673 -1.829,4.604 -2.521,4.474 -3.145,4.278 -3.646,4.149 -4.21,3.896 -4.647,3.642 -5.021,3.326 -5.333,3.012 -5.71,2.698 -5.961,2.259 -6.088,1.82 -6.339,1.318 -6.338,0.816 -6.451,0.313 0.01,-0.001 -6.438,0.5 0.054,-0.008 -6.312,1.562 0.04,-0.012 -6.313,2.437 0.042,-0.02 -6.062,3.375 0.028,-0.017 -5.938,4.125 0.027,-0.021 -5.687,4.875 0.024,-0.023 -5.313,5.563 0.016,-0.018 -5.062,6.125 0.018,-0.025 -4.562,6.688 0.012,-0.019 -4.188,7.125 0.013,-0.025 -3.625,7.563 0.009,-0.022 -3.125,7.875 0.01,-0.025 -2.5,8.187 0.006,-0.026 -1.812,8.313 0.004,-0.025 -1.187,8.5 0.003,-0.032 -0.081,1.882 -0.666,-0.028 0.081,-1.899 1.192,-8.528 1.818,-8.338 2.508,-8.214 3.134,-7.898 3.636,-7.586 4.201,-7.147 4.577,-6.709 5.08,-6.146 5.332,-5.583 5.713,-4.897 5.965,-4.144 6.097,-3.395 6.354,-2.453 6.36,-1.574 6.47,-0.503 6.442,-0.312 -0.026,0.002 6.312,-0.813 -0.025,0.005 6.312,-1.313 -0.027,0.007 6.062,-1.812 -0.022,0.007 5.937,-2.25 -0.024,0.011 5.687,-2.688 -0.021,0.011 5.312,-3 -0.02,0.013 5,-3.313 -0.021,0.016 4.625,-3.625 -0.021,0.017 4.187,-3.875 -0.024,0.025 3.625,-4.125 -0.018,0.023 3.125,-4.25 -0.022,0.033 2.5,-4.437 -0.019,0.04 1.812,-4.562 -0.013,0.04 1.188,-4.625 -0.01,0.056 0.375,-4.625 z m -132.984,133.131 -4.338,7.823 -3.655,-8.164 z"
         id="path37" />
      <path
         d="m 0.049011,-0.329711 4.667099,0.693759 4.63577,1.968612 4.48762,3.22353 4.4077,4.28177 4.2733,5.34164 4.0792,6.2756 3.8239,7.1463 3.6335,7.8935 3.3198,8.5812 2.9428,9.1416 2.629,9.7024 2.2536,10.141 1.7527,10.4534 1.3143,10.7027 0.8137,10.9527 0.3127,10.945 -2e-4,-0.005 0.5,10.937 -0.003,-0.032 1.5625,10.938 -0.0054,-0.029 2.5,10.688 -0.0069,-0.025 3.3125,10.437 -0.0097,-0.026 4.1875,10.125 -0.011,-0.024 4.9375,9.687 -0.0124,-0.022 5.5625,9.125 -0.0144,-0.022 6.1875,8.563 -0.0161,-0.021 6.6875,7.875 -0.0205,-0.022 7.25,7.125 -0.0213,-0.019 7.5625,6.25 -0.0269,-0.02 7.9371,5.312 -0.031,-0.018 8.187,4.25 -0.036,-0.016 8.438,3.187 -0.044,-0.013 8.5,1.938 -0.049,-0.008 1.959,0.15 -0.051,0.665 -1.983,-0.152 -8.546,-1.948 -8.478,-3.203 -8.221,-4.267 -7.9669,-5.332 -7.5865,-6.27 -7.271,-7.146 -6.7056,-7.896 -6.2028,-8.584 -5.5759,-9.147 -4.9493,-9.71 -4.1979,-10.151 -3.3207,-10.463 -2.5063,-10.714 -1.5669,-10.968 -0.5008,-10.957 -0.3126,-10.94 8e-4,0.015 -0.8125,-10.9373 0.0016,0.0159 -1.3125,-10.6875 0.0021,0.0145 -1.75,-10.4375 0.0033,0.0172 -2.25,-10.125 0.0037,0.0149 -2.625,-9.6875 0.0044,0.0149 -2.9375,-9.125 0.0064,0.0182 -3.3125,-8.5625 0.0081,0.0191 -3.625,-7.875 0.0089,0.0179 -3.8125,-7.125 0.0144,0.0244 -4.0625,-6.25 0.0192,0.0265 -4.25,-5.3125 0.028,0.0309 -4.375,-4.25001 0.0378,0.03164 L 8.99303,2.89573 9.05721,2.93181 4.49471,0.994315 4.57599,1.01721 -0.049011,0.329711 Z M 133.31,229.622 l 7.671,4.6 -8.283,3.377 z"
         transform="matrix(0,1,1,0,573.5,229.5)"
         id="path38" />
      <path
         d="m 729.5,547.333 c 0,-1.564 1.269,-2.833 2.833,-2.833 h 63.334 c 1.565,0 2.833,1.269 2.833,2.833 v 11.334 c 0,1.565 -1.268,2.833 -2.833,2.833 h -63.334 c -1.564,0 -2.833,-1.268 -2.833,-2.833 z"
         stroke="#000000"
         stroke-width="0.666667"
         stroke-miterlimit="8"
         fill="#f2f2f2"
         fill-rule="evenodd"
         id="path39" />
      <text
         fill="#008080"
         font-family="Arial, Arial_MSFontService, sans-serif"
         font-weight="400"
         font-size="11px"
         transform="translate(736.446,556)"
         id="text39">Hash+RND</text>
      <path
         d="m 811.5,547.5 c 0,-1.657 1.343,-3 3,-3 h 79 c 1.657,0 3,1.343 3,3 v 12 c 0,1.657 -1.343,3 -3,3 h -79 c -1.657,0 -3,-1.343 -3,-3 z"
         stroke="#000000"
         stroke-width="0.666667"
         stroke-miterlimit="8"
         fill="#f2f2f2"
         fill-rule="evenodd"
         id="path40" />
      <text
         fill="#0000ff"
         font-family="Arial, Arial_MSFontService, sans-serif"
         font-weight="400"
         font-size="11px"
         transform="translate(819.317,556)"
         id="text40">DigSgn</text>
      <text
         font-family="Arial, Arial_MSFontService, sans-serif"
         font-weight="400"
         font-size="11px"
         transform="translate(857.483,556)"
         id="text41">/</text>
      <text
         fill="#7030a0"
         font-family="Arial, Arial_MSFontService, sans-serif"
         font-weight="400"
         font-size="11px"
         transform="translate(863.483,556)"
         id="text42">MAC</text>
      <path
         d="m 737.5,373.5 c 0,-1.657 1.343,-3 3,-3 h 134 c 1.657,0 3,1.343 3,3 v 12 c 0,1.657 -1.343,3 -3,3 h -134 c -1.657,0 -3,-1.343 -3,-3 z"
         stroke="#000000"
         stroke-width="0.666667"
         stroke-miterlimit="8"
         fill="#f2f2f2"
         fill-rule="evenodd"
         id="path42" />
      <text
         fill="#0000ff"
         font-family="Arial, Arial_MSFontService, sans-serif"
         font-weight="400"
         font-size="12px"
         transform="translate(742.282,384)"
         id="text43">Asymmetric</text>
      <text
         font-family="Arial, Arial_MSFontService, sans-serif"
         font-weight="400"
         font-size="12px"
         transform="translate(808.282,384)"
         id="text44">/</text>
      <text
         fill="#7030a0"
         font-family="Arial, Arial_MSFontService, sans-serif"
         font-weight="400"
         font-size="12px"
         transform="translate(814.948,384)"
         id="text45">Symmetric</text>
      <path
         d="m 774.5,525.667 c 0,-2.301 1.866,-4.167 4.167,-4.167 h 58.666 c 2.302,0 4.167,1.866 4.167,4.167 v 16.666 c 0,2.302 -1.865,4.167 -4.167,4.167 h -58.666 c -2.301,0 -4.167,-1.865 -4.167,-4.167 z"
         stroke="#000000"
         stroke-width="0.666667"
         stroke-miterlimit="8"
         fill="#ffffff"
         fill-rule="evenodd"
         id="path45" />
      <text
         fill="#002060"
         font-family="Arial, Arial_MSFontService, sans-serif"
         font-weight="400"
         font-size="12px"
         transform="translate(792.061,539)"
         id="text46">Verify</text>
      <path
         d="m 403.5,391.667 c 0,-2.301 1.866,-4.167 4.167,-4.167 h 58.666 c 2.302,0 4.167,1.866 4.167,4.167 v 16.666 c 0,2.302 -1.865,4.167 -4.167,4.167 h -58.666 c -2.301,0 -4.167,-1.865 -4.167,-4.167 z"
         stroke="#000000"
         stroke-width="0.666667"
         stroke-miterlimit="8"
         fill="#ffffff"
         fill-rule="evenodd"
         id="path46" />
      <text
         fill="#002060"
         font-family="Arial, Arial_MSFontService, sans-serif"
         font-weight="400"
         font-size="12px"
         transform="translate(416.559,405)"
         id="text47">Encrypt</text>
      <text
         fill="#0000ff"
         font-family="Arial, Arial_MSFontService, sans-serif"
         font-weight="400"
         font-size="12px"
         transform="translate(249.883,556)"
         id="text48">prKey</text>
      <text
         fill="#0000ff"
         font-family="Arial, Arial_MSFontService, sans-serif"
         font-weight="400"
         font-size="8px"
         transform="translate(281.216,558)"
         id="text49">Src</text>
      <text
         font-family="Arial, Arial_MSFontService, sans-serif"
         font-weight="400"
         font-size="12px"
         transform="translate(296.55,556)"
         id="text50">/</text>
      <text
         fill="#7030a0"
         font-family="Arial, Arial_MSFontService, sans-serif"
         font-weight="400"
         font-size="12px"
         transform="translate(303.216,556)"
         id="text51">key</text>
      <text
         fill="#0000ff"
         font-family="Arial, Arial_MSFontService, sans-serif"
         font-weight="400"
         font-size="12px"
         transform="translate(400.298,321)"
         id="text52">pbKey</text>
      <text
         fill="#0000ff"
         font-family="Arial, Arial_MSFontService, sans-serif"
         font-weight="400"
         font-size="8px"
         transform="translate(434.298,323)"
         id="text53">Usr</text>
      <text
         font-family="Arial, Arial_MSFontService, sans-serif"
         font-weight="400"
         font-size="12px"
         transform="translate(450.131,321)"
         id="text54">/</text>
      <text
         fill="#7030a0"
         font-family="Arial, Arial_MSFontService, sans-serif"
         font-weight="400"
         font-size="12px"
         transform="translate(456.798,321)"
         id="text55">shKey</text>
      <text
         fill="#3333cc"
         font-family="Arial, Arial_MSFontService, sans-serif"
         font-weight="400"
         font-size="12px"
         transform="translate(922.029,558)"
         id="text56">pbKey</text>
      <text
         fill="#3333cc"
         font-family="Arial, Arial_MSFontService, sans-serif"
         font-weight="400"
         font-size="8px"
         transform="translate(956.029,560)"
         id="text57">Src</text>
      <text
         font-family="Arial, Arial_MSFontService, sans-serif"
         font-weight="400"
         font-size="12px"
         transform="translate(971.362,558)"
         id="text58">/</text>
      <text
         fill="#7030a0"
         font-family="Arial, Arial_MSFontService, sans-serif"
         font-weight="400"
         font-size="12px"
         transform="translate(978.029,558)"
         id="text59">key</text>
      <text
         fill="#0000ff"
         font-family="Arial, Arial_MSFontService, sans-serif"
         font-weight="400"
         font-size="12px"
         transform="translate(734.523,321)"
         id="text60">prKey</text>
      <text
         fill="#0000ff"
         font-family="Arial, Arial_MSFontService, sans-serif"
         font-weight="400"
         font-size="8px"
         transform="translate(765.857,323)"
         id="text61">Usr</text>
      <text
         font-family="Arial, Arial_MSFontService, sans-serif"
         font-weight="400"
         font-size="12px"
         transform="translate(781.69,321)"
         id="text62">/</text>
      <text
         fill="#7030a0"
         font-family="Arial, Arial_MSFontService, sans-serif"
         font-weight="400"
         font-size="12px"
         transform="translate(788.357,321)"
         id="text63">shKey</text>
      <path
         d="m 840.512,403.167 19.761,0.688 19.145,1.939 9.138,1.44 8.761,1.627 8.325,1.878 7.764,2.066 7.14,2.255 6.393,2.382 5.71,2.572 4.779,2.641 3.928,2.788 2.143,2.683 -0.521,0.416 -2.113,-2.646 0.067,0.063 -3.875,-2.75 0.032,0.02 -4.75,-2.625 0.024,0.012 -5.687,-2.562 0.02,0.008 -6.375,-2.375 0.016,0.006 -7.125,-2.25 0.015,0.004 -7.75,-2.062 0.012,0.003 -8.312,-1.875 0.012,0.002 -8.75,-1.625 0.009,0.002 -9.125,-1.438 0.018,0.003 -19.125,-1.938 0.022,0.002 -19.75,-0.688 z m 105.657,22.136 0.151,8.943 -7.245,-5.245 z"
         fill="#920000"
         id="path63" />
      <path
         d="m 300.174,434.175 0.637,-2.927 1.736,-2.958 2.86,-2.861 3.788,-2.777 4.779,-2.641 5.522,-2.573 6.331,-2.382 6.953,-2.255 7.576,-2.066 8.138,-1.878 8.574,-1.627 8.951,-1.44 18.708,-1.94 12.645,-0.447 0.024,0.666 -12.634,0.447 0.022,-0.001 -18.687,1.937 0.018,-0.002 -8.937,1.437 0.009,-10e-4 -8.562,1.625 0.013,-0.003 -8.125,1.875 0.012,-0.003 -7.562,2.062 0.015,-0.004 -6.938,2.25 0.015,-0.005 -6.313,2.375 0.024,-0.01 -5.5,2.562 0.02,-0.01 -4.75,2.625 0.036,-0.023 -3.75,2.75 0.039,-0.033 -2.813,2.812 0.052,-0.067 -1.687,2.875 0.038,-0.098 -0.625,2.875 z m 95.736,-34.389 8.137,3.714 -7.854,4.281 z"
         fill="#920000"
         id="path64" />
      <path
         d="m 774.5,391.667 c 0,-2.301 1.866,-4.167 4.167,-4.167 h 58.666 c 2.302,0 4.167,1.866 4.167,4.167 v 16.666 c 0,2.302 -1.865,4.167 -4.167,4.167 h -58.666 c -2.301,0 -4.167,-1.865 -4.167,-4.167 z"
         stroke="#000000"
         stroke-width="0.666667"
         stroke-miterlimit="8"
         fill="#ffffff"
         fill-rule="evenodd"
         id="path65" />
      <text
         font-family="Arial, Arial_MSFontService, sans-serif"
         font-weight="400"
         font-size="12px"
         transform="translate(786.727,405)"
         id="text65">Decrypt</text>
      <path
         d="m 470.5,531.167 h 298.215 v 0.666 H 470.5 Z m 296.882,-3.667 8,4 -8,4 z"
         fill="#920000"
         id="path66" />
      <text
         fill="#1d2d35"
         font-family="Arial, Arial_MSFontService, sans-serif"
         font-weight="400"
         font-size="12px"
         transform="translate(445.275,80)"
         id="text66">BF Crypto Data Security Bugs Model</text>
      <text
         fill="#7f7f7f"
         font-family="Arial, Arial_MSFontService, sans-serif"
         font-weight="400"
         font-size="12px"
         transform="translate(911.366,642)"
         id="text67">I. Bojanova,</text>
      <text
         fill="#7f7f7f"
         font-family="Arial, Arial_MSFontService, sans-serif"
         font-weight="400"
         font-size="12px"
         transform="translate(978.032,642)"
         id="text68">2017</text>
      <path
         d="m 403.5,255.667 c 0,-2.301 1.866,-4.167 4.167,-4.167 h 428.666 c 2.302,0 4.167,1.866 4.167,4.167 v 16.666 c 0,2.301 -1.865,4.167 -4.167,4.167 H 407.667 c -2.301,0 -4.167,-1.866 -4.167,-4.167 z"
         stroke="#000000"
         stroke-width="0.666667"
         stroke-miterlimit="8"
         fill="#ffffff"
         fill-rule="evenodd"
         id="path68" />
      <text
         font-family="Arial, Arial_MSFontService, sans-serif"
         font-weight="400"
         font-size="12px"
         transform="translate(611.195,269)"
         id="text69">Use</text>
      <path
         d="m 0.143819,-0.300711 1.512101,0.72318 1.5091,2.034001 1.3972,3.17545 1.38359,4.33944 1.31699,5.26804 1.25261,6.263 1.18899,7.1339 1.1262,7.8206 1.0008,8.5692 0.938,9.1304 0.813,9.6932 0.6879,10.0686 1.0004,21.1339 0.3126,21.8178 0.3125,21.813 -3e-4,-0.011 1,21.125 -4e-4,-0.007 0.6875,10.062 -4e-4,-0.005 0.8125,9.688 -6e-4,-0.007 0.9375,9.125 -5e-4,-0.004 1,8.562 -0.0012,-0.009 1.125,7.813 -0.0011,-0.007 1.1875,7.125 -0.0019,-0.011 1.25,6.25 -0.0035,-0.015 1.3125,5.25 -0.0147,-0.045 1.8474,4.533 -0.6174,0.252 -1.8563,-4.556 -1.3202,-5.28 -1.2526,-6.263 -1.189,-7.134 -1.1262,-7.821 -1.0008,-8.569 -0.938,-9.131 -0.813,-9.693 -0.6879,-10.068 -1.0004,-21.134 -0.3126,-21.818 -0.3125,-21.8127 3e-4,0.011 -1,-21.125 4e-4,0.0069 -0.6875,-10.0625 4e-4,0.0052 -0.8125,-9.6875 6e-4,0.0062 -0.9375,-9.125 5e-4,0.0046 -1,-8.5625 0.0012,0.0088 -1.12503,-7.8125 0.00113,0.0073 -1.1875,-7.125 0.00194,0.0106 -1.25,-6.25 0.00348,0.0154 -1.3125,-5.25 0.0058,0.0205 L 3.93242,5.85126 3.94489,5.88425 2.5699,2.75925 2.6073,2.82362 1.1698,0.886116 1.29368,0.988211 -0.143819,0.300711 Z M 29.2712,224.862 l 1.2151,8.862 -7.8182,-4.345 z"
         transform="matrix(0,1,1,0,339.5,174.5)"
         id="path69" />
      <path
         d="m 404.5,525.667 c 0,-2.301 1.866,-4.167 4.167,-4.167 h 58.666 c 2.302,0 4.167,1.866 4.167,4.167 v 16.666 c 0,2.302 -1.865,4.167 -4.167,4.167 h -58.666 c -2.301,0 -4.167,-1.865 -4.167,-4.167 z"
         stroke="#000000"
         stroke-width="0.666667"
         stroke-miterlimit="8"
         fill="#ffffff"
         fill-rule="evenodd"
         id="path70" />
      <text
         font-family="Arial, Arial_MSFontService, sans-serif"
         font-weight="400"
         font-size="12px"
         transform="translate(425.624,539)"
         id="text70">Sign</text>
    </g>
  </g>
</svg>
