<?xml version="1.0" encoding="UTF-8" standalone="no"?>
<!-- Created with Inkscape (http://www.inkscape.org/) -->

<svg
   width="156.83682mm"
   height="77.345322mm"
   viewBox="0 0 156.83683 77.345325"
   version="1.1"
   id="svg1"
   xml:space="preserve"
   sodipodi:docname="_DAT 2.svg"
   inkscape:version="1.3 (0e150ed6c4, 2023-07-21)"
   xmlns:inkscape="http://www.inkscape.org/namespaces/inkscape"
   xmlns:sodipodi="http://sodipodi.sourceforge.net/DTD/sodipodi-0.dtd"
   xmlns="http://www.w3.org/2000/svg"
   xmlns:svg="http://www.w3.org/2000/svg"><sodipodi:namedview
     id="namedview1"
     pagecolor="#ffffff"
     bordercolor="#000000"
     borderopacity="0.25"
     inkscape:showpageshadow="2"
     inkscape:pageopacity="0.0"
     inkscape:pagecheckerboard="0"
     inkscape:deskcolor="#d1d1d1"
     inkscape:document-units="mm"
     inkscape:zoom="1.7041198"
     inkscape:cx="295.75385"
     inkscape:cy="146.40989"
     inkscape:window-width="2560"
     inkscape:window-height="1377"
     inkscape:window-x="-8"
     inkscape:window-y="859"
     inkscape:window-maximized="1"
     inkscape:current-layer="layer1" /><defs
     id="defs1"><clipPath
       clipPathUnits="userSpaceOnUse"
       id="clipPath594"><path
         d="M 0,0 H 717 V 334 H 0 Z"
         id="path592" /></clipPath><clipPath
       id="clip0"><rect
         x="104"
         y="143"
         width="985"
         height="489"
         id="rect685" /></clipPath><clipPath
       id="clip0-9"><rect
         x="122"
         y="272"
         width="912"
         height="352"
         id="rect908" /></clipPath><clipPath
       id="clip0-4"><rect
         x="122"
         y="272"
         width="912"
         height="317"
         id="rect1246" /></clipPath><clipPath
       id="clip0-7"><rect
         x="122"
         y="272"
         width="928"
         height="352"
         id="rect1" /></clipPath><clipPath
       id="clip0-6"><rect
         x="122"
         y="272"
         width="926"
         height="321"
         id="rect1-5" /></clipPath><clipPath
       id="clip0-0"><rect
         x="122"
         y="272"
         width="919"
         height="321"
         id="rect1-4" /></clipPath><clipPath
       id="clip0-90"><rect
         x="121"
         y="270"
         width="913"
         height="355"
         id="rect1-7" /></clipPath><clipPath
       id="clip0-60"><rect
         x="121"
         y="270"
         width="913"
         height="301"
         id="rect1-3" /></clipPath><clipPath
       id="clip0-07"><rect
         x="352"
         y="301"
         width="378"
         height="504"
         id="rect1-8" /></clipPath><clipPath
       id="clip0-98"><rect
         x="121"
         y="270"
         width="913"
         height="301"
         id="rect1-87" /></clipPath><clipPath
       id="clip0-3"><rect
         x="121"
         y="270"
         width="920"
         height="293"
         id="rect1-876" /></clipPath><clipPath
       id="clip0-5"><rect
         x="95"
         y="267"
         width="896"
         height="547"
         id="rect1-2" /></clipPath><clipPath
       id="clip0-63"><rect
         x="95"
         y="267"
         width="864"
         height="433"
         id="rect1-21" /></clipPath><clipPath
       id="clip0-1"><rect
         x="33"
         y="-1"
         width="1182"
         height="611"
         id="rect1-50" /></clipPath><clipPath
       id="clip0-52"><rect
         x="320"
         y="-1"
         width="728"
         height="559"
         id="rect1-9" /></clipPath><clipPath
       id="clip0-68"><rect
         x="320"
         y="-1"
         width="728"
         height="544"
         id="rect1-97" /></clipPath><clipPath
       id="clip0-10"><rect
         x="320"
         y="39"
         width="728"
         height="504"
         id="rect1-6" /></clipPath><clipPath
       id="clip0-37"><rect
         x="270"
         y="350"
         width="728"
         height="440"
         id="rect1-51" /></clipPath><clipPath
       id="clip0-41"><rect
         x="270"
         y="318"
         width="728"
         height="472"
         id="rect1-57" /></clipPath><clipPath
       id="clip0-50"><rect
         x="320"
         y="39"
         width="728"
         height="504"
         id="rect1-98" /></clipPath><clipPath
       id="clip0-48"><rect
         x="320"
         y="71"
         width="728"
         height="472"
         id="rect1-0" /></clipPath><clipPath
       id="clip0-02"><rect
         x="320"
         y="39"
         width="728"
         height="504"
         id="rect1-09" /></clipPath><clipPath
       id="clip0-59"><rect
         x="320"
         y="71"
         width="728"
         height="472"
         id="rect1-04" /></clipPath><clipPath
       id="clip0-16"><rect
         x="320"
         y="71"
         width="728"
         height="472"
         id="rect1-35" /></clipPath><clipPath
       id="clip0-8"><rect
         x="121"
         y="270"
         width="913"
         height="278"
         id="rect1-54" /></clipPath><clipPath
       id="clip0-76"><rect
         x="121"
         y="270"
         width="913"
         height="278"
         id="rect1-06" /></clipPath><clipPath
       id="clip0-106"><rect
         x="121"
         y="270"
         width="913"
         height="278"
         id="rect1-874" /></clipPath><clipPath
       id="clip0-94"><rect
         x="348"
         y="312"
         width="382"
         height="449"
         id="rect1-25" /></clipPath><clipPath
       id="clip0-64"><rect
         x="121"
         y="270"
         width="913"
         height="278"
         id="rect1-62" /></clipPath><clipPath
       id="clip0-47"><rect
         x="95"
         y="267"
         width="896"
         height="547"
         id="rect1-63" /></clipPath><clipPath
       id="clip0-71"><rect
         x="146"
         y="266"
         width="857"
         height="282"
         id="rect1-92" /></clipPath><clipPath
       id="clip0-57"><rect
         x="177"
         y="266"
         width="747"
         height="385"
         id="rect1-22" /></clipPath><clipPath
       id="clip0-102"><rect
         x="186"
         y="271"
         width="702"
         height="380"
         id="rect1-926" /></clipPath><clipPath
       id="clip0-77"><rect
         x="186"
         y="271"
         width="702"
         height="380"
         id="rect1-224" /></clipPath><clipPath
       id="clip0-482"><rect
         x="186"
         y="274"
         width="661"
         height="377"
         id="rect1-08" /></clipPath><clipPath
       id="clip0-04"><rect
         x="167"
         y="266"
         width="819"
         height="282"
         id="rect1-34" /></clipPath><clipPath
       id="clip0-56"><rect
         x="163"
         y="265"
         width="799"
         height="282"
         id="rect1-47" /></clipPath><clipPath
       id="clip0-2"><rect
         x="351"
         y="273"
         width="638"
         height="472"
         id="rect1-1" /></clipPath><clipPath
       id="clip0-93"><rect
         x="351"
         y="241"
         width="638"
         height="504"
         id="rect1-77" /></clipPath><clipPath
       id="clip0-49"><rect
         x="351"
         y="241"
         width="638"
         height="504"
         id="rect1-981" /></clipPath><clipPath
       id="clip0-31"><rect
         x="193"
         y="272"
         width="654"
         height="379"
         id="rect1-05" /></clipPath><clipPath
       id="clip0-938"><rect
         x="193"
         y="272"
         width="654"
         height="379"
         id="rect1-12" /></clipPath><clipPath
       id="clip0-85"><rect
         x="163"
         y="265"
         width="805"
         height="282"
         id="rect1-257" /></clipPath><clipPath
       id="clip0-83"><rect
         x="193"
         y="272"
         width="641"
         height="380"
         id="rect1-068" /></clipPath><clipPath
       id="clip0-44"><rect
         x="163"
         y="265"
         width="805"
         height="282"
         id="rect1-923" /></clipPath><clipPath
       id="clip0-412"><rect
         x="193"
         y="272"
         width="641"
         height="380"
         id="rect1-49" /></clipPath><clipPath
       id="clip0-483"><rect
         x="351"
         y="241"
         width="639"
         height="458"
         id="rect1-357" /></clipPath><clipPath
       id="clip0-32"><rect
         x="351"
         y="241"
         width="639"
         height="458"
         id="rect1-15" /></clipPath><clipPath
       id="clip0-045"><rect
         x="163"
         y="265"
         width="805"
         height="282"
         id="rect1-01" /></clipPath><clipPath
       id="clip0-97"><rect
         x="216"
         y="229"
         width="621"
         height="318"
         id="rect1-03" /></clipPath><clipPath
       id="clip0-87"><rect
         x="216"
         y="229"
         width="621"
         height="318"
         id="rect1-66" /></clipPath><clipPath
       id="clip0-26"><rect
         x="-19"
         y="165"
         width="814"
         height="597"
         id="rect1-73" /></clipPath><clipPath
       id="clip0-89"><rect
         x="77"
         y="89"
         width="762"
         height="777"
         id="rect1-40" /></clipPath><clipPath
       id="clip0-91"><rect
         x="216"
         y="229"
         width="621"
         height="318"
         id="rect1-229" /></clipPath><clipPath
       id="clip0-569"><rect
         x="77"
         y="89"
         width="762"
         height="777"
         id="rect1-639" /></clipPath><clipPath
       id="clip0-15"><rect
         x="78"
         y="188"
         width="853"
         height="609"
         id="rect1-215" /></clipPath><clipPath
       id="clip0-06"><rect
         x="254"
         y="1081"
         width="539"
         height="418"
         id="rect1-342" /></clipPath><clipPath
       id="clip0-30"><rect
         x="351"
         y="241"
         width="639"
         height="458"
         id="rect1-42" /></clipPath><clipPath
       id="clip0-12"><rect
         x="78"
         y="188"
         width="853"
         height="609"
         id="rect1-02" /></clipPath><clipPath
       id="clip0-79"><rect
         x="83"
         y="188"
         width="846"
         height="539"
         id="rect1-778" /></clipPath><clipPath
       id="clip0-73"><rect
         x="83"
         y="194"
         width="846"
         height="533"
         id="rect1-52" /></clipPath><clipPath
       id="clip0-23"><rect
         x="194"
         y="23"
         width="771"
         height="791"
         id="rect1-150" /></clipPath><clipPath
       id="clip0-39"><rect
         x="194"
         y="48"
         width="771"
         height="766"
         id="rect1-025" /></clipPath><clipPath
       id="clip0-419"><rect
         x="194"
         y="48"
         width="771"
         height="766"
         id="rect1-779" /></clipPath><clipPath
       id="clip0-906"><rect
         x="214"
         y="227"
         width="675"
         height="300"
         id="rect1-59" /></clipPath><clipPath
       id="clip0-078"><rect
         x="77"
         y="118"
         width="763"
         height="748"
         id="rect1-88" /></clipPath><clipPath
       id="clip0-042"><rect
         x="-21"
         y="196"
         width="816"
         height="562"
         id="rect1-501" /></clipPath><clipPath
       id="clip0-604"><rect
         x="783"
         y="154"
         width="601"
         height="303"
         id="rect1-504" /></clipPath></defs><g
     inkscape:label="Layer 1"
     inkscape:groupmode="layer"
     id="layer1"
     transform="translate(-89.987378,-135.34996)"><g
       clip-path="url(#clip0-604)"
       transform="matrix(0.26458333,0,0,0.26458333,-119.35913,92.794937)"
       id="g62"><path
         d="m 1222.5,365.833 c 0,-3.497 2.84,-6.333 6.33,-6.333 h 131.34 c 3.49,0 6.33,2.836 6.33,6.333 v 25.334 c 0,3.497 -2.84,6.333 -6.33,6.333 h -131.34 c -3.49,0 -6.33,-2.836 -6.33,-6.333 z"
         stroke="#000000"
         stroke-width="1.33333"
         stroke-miterlimit="8"
         fill="none"
         fill-rule="evenodd"
         id="path1" /><path
         d="m 1242.93,364.462 h 52.66 v 14 h -52.66 z"
         fill="#ffffff"
         fill-rule="evenodd"
         id="path2" /><path
         d="m 1295.59,364.462 h 3.34 v 14 h -3.34 z"
         fill="#ffffff"
         fill-rule="evenodd"
         id="path3" /><path
         d="m 1298.93,364.462 h 46 v 14 h -46 z"
         fill="#ffffff"
         fill-rule="evenodd"
         id="path4" /><path
         d="m 1260.59,378.462 h 66.67 v 14 h -66.67 z"
         fill="#ffffff"
         fill-rule="evenodd"
         id="path5" /><text
         font-family="Arial, Arial_MSFontService, sans-serif"
         font-weight="400"
         font-size="12px"
         transform="translate(1242.93,375)"
         id="text5">Overriden</text><text
         font-family="Arial, Arial_MSFontService, sans-serif"
         font-weight="400"
         font-size="12px"
         transform="translate(1295.59,375)"
         id="text6"></text><text
         font-family="Arial, Arial_MSFontService, sans-serif"
         font-weight="400"
         font-size="12px"
         transform="translate(1298.93,375)"
         id="text7">Function</text><text
         fill="#008080"
         font-family="Arial, Arial_MSFontService, sans-serif"
         font-weight="400"
         font-size="12px"
         transform="translate(1260.59,389)"
         id="text8">Late Binding</text><path
         d="m 1082.5,366.049 c 0,-2.512 2.04,-4.549 4.55,-4.549 h 86.9 c 2.51,0 4.55,2.037 4.55,4.549 v 17.902 c 0,2.512 -2.04,4.549 -4.55,4.549 h -86.9 c -2.51,0 -4.55,-2.037 -4.55,-4.549 z"
         stroke="#000000"
         stroke-width="1.33333"
         stroke-miterlimit="8"
         fill="none"
         fill-rule="evenodd"
         id="path8" /><path
         d="m 1088.99,367.868 h 82 v 14 h -82 z"
         fill="#ffffff"
         fill-rule="evenodd"
         id="path9" /><text
         font-family="Arial, Arial_MSFontService, sans-serif"
         font-weight="400"
         font-size="12px"
         transform="translate(1088.99,379)"
         id="text9">Subtype Object</text><path
         d="m 1222.5,408.833 c 0,-3.497 2.84,-6.333 6.33,-6.333 h 131.34 c 3.49,0 6.33,2.836 6.33,6.333 v 25.334 c 0,3.497 -2.84,6.333 -6.33,6.333 h -131.34 c -3.49,0 -6.33,-2.836 -6.33,-6.333 z"
         stroke="#000000"
         stroke-width="1.33333"
         stroke-miterlimit="8"
         fill="none"
         fill-rule="evenodd"
         id="path10" /><path
         d="m 1238.26,407.65 h 111.33 v 14 h -111.33 z"
         fill="#ffffff"
         fill-rule="evenodd"
         id="path11" /><path
         d="m 1253.26,421.65 h 14.67 v 14 h -14.67 z"
         fill="#ffffff"
         fill-rule="evenodd"
         id="path12" /><path
         d="m 1267.93,421.65 h 4 v 14 h -4 z"
         fill="#ffffff"
         fill-rule="evenodd"
         id="path13" /><path
         d="m 1271.93,421.65 h 62.66 v 14 h -62.66 z"
         fill="#ffffff"
         fill-rule="evenodd"
         id="path14" /><text
         font-family="Arial, Arial_MSFontService, sans-serif"
         font-weight="400"
         font-size="12px"
         transform="translate(1238.26,419)"
         id="text14">Overloaded Function</text><text
         fill="#008080"
         font-family="Arial, Arial_MSFontService, sans-serif"
         font-weight="400"
         font-size="12px"
         transform="translate(1253.26,433)"
         id="text15">Ad</text><text
         fill="#008080"
         font-family="Arial, Arial_MSFontService, sans-serif"
         font-weight="400"
         font-size="12px"
         transform="translate(1267.93,433)"
         id="text16">-</text><text
         fill="#008080"
         font-family="Arial, Arial_MSFontService, sans-serif"
         font-weight="400"
         font-size="12px"
         transform="translate(1271.93,433)"
         id="text17">hoc Binding</text><path
         d="m 1082.5,335 c 0,-2.485 2.01,-4.5 4.5,-4.5 h 87 c 2.49,0 4.5,2.015 4.5,4.5 v 18 c 0,2.485 -2.01,4.5 -4.5,4.5 h -87 c -2.49,0 -4.5,-2.015 -4.5,-4.5 z"
         stroke="#000000"
         stroke-width="1.33333"
         stroke-miterlimit="8"
         fill="none"
         fill-rule="evenodd"
         id="path17" /><path
         d="m 1101.99,337.383 h 56 v 14 h -56 z"
         fill="#ffffff"
         fill-rule="evenodd"
         id="path18" /><text
         font-family="Arial, Arial_MSFontService, sans-serif"
         font-weight="400"
         font-size="12px"
         transform="translate(1101.99,348)"
         id="text18">Parameter</text><path
         d="m 1081.5,273 c 0,-2.485 2.01,-4.5 4.5,-4.5 h 87 c 2.49,0 4.5,2.015 4.5,4.5 v 18 c 0,2.485 -2.01,4.5 -4.5,4.5 h -87 c -2.49,0 -4.5,-2.015 -4.5,-4.5 z"
         stroke="#000000"
         stroke-width="1.33333"
         stroke-miterlimit="8"
         fill="none"
         fill-rule="evenodd"
         id="path19" /><path
         d="m 1112.08,275.588 h 34.67 v 14 h -34.67 z"
         fill="#ffffff"
         fill-rule="evenodd"
         id="path20" /><text
         font-family="Arial, Arial_MSFontService, sans-serif"
         font-weight="400"
         font-size="12px"
         transform="translate(1112.08,287)"
         id="text20">Object</text><path
         d="m 1081.5,304 c 0,-2.485 2.01,-4.5 4.5,-4.5 h 87 c 2.49,0 4.5,2.015 4.5,4.5 v 18 c 0,2.485 -2.01,4.5 -4.5,4.5 h -87 c -2.49,0 -4.5,-2.015 -4.5,-4.5 z"
         stroke="#000000"
         stroke-width="1.33333"
         stroke-miterlimit="8"
         fill="none"
         fill-rule="evenodd"
         id="path21" /><path
         d="m 1111.2,306.617 h 36 v 14 h -36 z"
         fill="#ffffff"
         fill-rule="evenodd"
         id="path22" /><text
         font-family="Arial, Arial_MSFontService, sans-serif"
         font-weight="400"
         font-size="12px"
         transform="translate(1111.2,318)"
         id="text22">Return</text><path
         d="m 944.5,304 c 0,-2.485 2.015,-4.5 4.5,-4.5 h 87 c 2.49,0 4.5,2.015 4.5,4.5 v 18 c 0,2.485 -2.01,4.5 -4.5,4.5 h -87 c -2.485,0 -4.5,-2.015 -4.5,-4.5 z"
         stroke="#000000"
         stroke-width="1.33333"
         stroke-miterlimit="8"
         fill="none"
         fill-rule="evenodd"
         id="path23" /><path
         d="m 956.171,306.617 h 71.999 v 14 h -71.999 z"
         fill="#ffffff"
         fill-rule="evenodd"
         id="path24" /><text
         font-family="Arial, Arial_MSFontService, sans-serif"
         font-weight="400"
         font-size="12px"
         transform="translate(956.171,318)"
         id="text24">Generic Type</text><path
         d="m 1068.5,259.546 c 0,-9.414 7.63,-17.046 17.05,-17.046 h 90.9 c 9.42,0 17.05,7.632 17.05,17.046 v 120.908 c 0,9.414 -7.63,17.046 -17.05,17.046 h -90.9 c -9.42,0 -17.05,-7.632 -17.05,-17.046 z"
         stroke="#000000"
         stroke-width="1.33333"
         stroke-miterlimit="8"
         fill="none"
         fill-rule="evenodd"
         id="path25" /><text
         font-family="Arial, Arial_MSFontService, sans-serif"
         font-weight="400"
         font-size="12px"
         transform="translate(1103.75,259)"
         id="text25">Bind Type</text><path
         d="m 929.5,259.546 c 0,-9.414 7.632,-17.046 17.046,-17.046 h 90.904 c 9.42,0 17.05,7.632 17.05,17.046 v 90.908 c 0,9.414 -7.63,17.046 -17.05,17.046 h -90.904 c -9.414,0 -17.046,-7.632 -17.046,-17.046 z"
         stroke="#000000"
         stroke-width="1.33333"
         stroke-miterlimit="8"
         fill="none"
         fill-rule="evenodd"
         id="path26" /><text
         font-family="Arial, Arial_MSFontService, sans-serif"
         font-weight="400"
         font-size="12px"
         transform="translate(955.21,259)"
         id="text26">Resolve Type</text><path
         d="m 1206.5,265.637 c 0,-13.33 10.81,-24.137 24.14,-24.137 h 128.72 c 13.33,0 24.14,10.807 24.14,24.137 v 162.726 c 0,13.33 -10.81,24.137 -24.14,24.137 h -128.72 c -13.33,0 -24.14,-10.807 -24.14,-24.137 z"
         stroke="#000000"
         stroke-width="1.33333"
         stroke-miterlimit="8"
         fill="none"
         fill-rule="evenodd"
         id="path27" /><text
         font-family="Arial, Arial_MSFontService, sans-serif"
         font-weight="400"
         font-size="12px"
         transform="translate(1247.24,260)"
         id="text27">Resolve and Bind</text><text
         font-family="Arial, Arial_MSFontService, sans-serif"
         font-weight="400"
         font-size="12px"
         transform="translate(1251.57,274)"
         id="text28">Implementation:</text><path
         d="m 805.5,365.049 c 0,-2.512 2.037,-4.549 4.549,-4.549 h 86.902 c 2.512,0 4.549,2.037 4.549,4.549 v 17.902 c 0,2.512 -2.037,4.549 -4.549,4.549 h -86.902 c -2.512,0 -4.549,-2.037 -4.549,-4.549 z"
         stroke="#000000"
         stroke-width="1.33333"
         stroke-miterlimit="8"
         fill="none"
         fill-rule="evenodd"
         id="path28" /><path
         d="m 821.266,367.235 h 64 v 14 h -64 z"
         fill="#ffffff"
         fill-rule="evenodd"
         id="path29" /><text
         font-family="Arial, Arial_MSFontService, sans-serif"
         font-weight="400"
         font-size="12px"
         transform="translate(821.266,378)"
         id="text29">Namespace</text><path
         d="m 805.5,334.833 c 0,-2.393 1.94,-4.333 4.333,-4.333 h 87.334 c 2.393,0 4.333,1.94 4.333,4.333 v 17.334 c 0,2.393 -1.94,4.333 -4.333,4.333 h -87.334 c -2.393,0 -4.333,-1.94 -4.333,-4.333 z"
         stroke="#000000"
         stroke-width="1.33333"
         stroke-miterlimit="8"
         fill="none"
         fill-rule="evenodd"
         id="path30" /><path
         d="m 825.707,336.75 h 55.333 v 14 h -55.333 z"
         fill="#ffffff"
         fill-rule="evenodd"
         id="path31" /><text
         font-family="Arial, Arial_MSFontService, sans-serif"
         font-weight="400"
         font-size="12px"
         transform="translate(825.707,348)"
         id="text31">Data Type</text><path
         d="m 806.5,273 c 0,-2.485 2.015,-4.5 4.5,-4.5 h 87 c 2.485,0 4.5,2.015 4.5,4.5 v 18 c 0,2.485 -2.015,4.5 -4.5,4.5 h -87 c -2.485,0 -4.5,-2.015 -4.5,-4.5 z"
         stroke="#000000"
         stroke-width="1.33333"
         stroke-miterlimit="8"
         fill="none"
         fill-rule="evenodd"
         id="path32" /><path
         d="m 836.775,274.955 h 34.666 v 14 h -34.666 z"
         fill="#ffffff"
         fill-rule="evenodd"
         id="path33" /><text
         font-family="Arial, Arial_MSFontService, sans-serif"
         font-weight="400"
         font-size="12px"
         transform="translate(836.775,286)"
         id="text33">Object</text><path
         d="m 806.5,304 c 0,-2.485 2.015,-4.5 4.5,-4.5 h 87 c 2.485,0 4.5,2.015 4.5,4.5 v 18 c 0,2.485 -2.015,4.5 -4.5,4.5 h -87 c -2.485,0 -4.5,-2.015 -4.5,-4.5 z"
         stroke="#000000"
         stroke-width="1.33333"
         stroke-miterlimit="8"
         fill="none"
         fill-rule="evenodd"
         id="path34" /><path
         d="m 830.521,305.984 h 46 v 14 h -46 z"
         fill="#ffffff"
         fill-rule="evenodd"
         id="path35" /><text
         font-family="Arial, Arial_MSFontService, sans-serif"
         font-weight="400"
         font-size="12px"
         transform="translate(830.521,317)"
         id="text35">Function</text><path
         d="m 792.5,259.546 c 0,-9.414 7.632,-17.046 17.046,-17.046 h 90.908 c 9.414,0 17.046,7.632 17.046,17.046 v 120.908 c 0,9.414 -7.632,17.046 -17.046,17.046 h -90.908 c -9.414,0 -17.046,-7.632 -17.046,-17.046 z"
         stroke="#000000"
         stroke-width="1.33333"
         stroke-miterlimit="8"
         fill="none"
         fill-rule="evenodd"
         id="path36" /><path
         d="m 815.169,248.075 h 78.667 v 14 h -78.667 z"
         fill="#ffffff"
         fill-rule="evenodd"
         id="path37" /><text
         font-family="Arial, Arial_MSFontService, sans-serif"
         font-weight="400"
         font-size="12px"
         transform="translate(815.169,259)"
         id="text37">Resolve Name</text><path
         d="m 944.5,273 c 0,-2.485 2.015,-4.5 4.5,-4.5 h 87 c 2.49,0 4.5,2.015 4.5,4.5 v 18 c 0,2.485 -2.01,4.5 -4.5,4.5 h -87 c -2.485,0 -4.5,-2.015 -4.5,-4.5 z"
         stroke="#000000"
         stroke-width="1.33333"
         stroke-miterlimit="8"
         fill="none"
         fill-rule="evenodd"
         id="path38" /><path
         d="m 980.171,275.588 h 23.999 v 14 h -23.999 z"
         fill="#ffffff"
         fill-rule="evenodd"
         id="path39" /><text
         font-family="Arial, Arial_MSFontService, sans-serif"
         font-weight="400"
         font-size="12px"
         transform="translate(980.171,287)"
         id="text39">Infer</text><path
         d="m 944.5,335 c 0,-2.485 2.015,-4.5 4.5,-4.5 h 87 c 2.49,0 4.5,2.015 4.5,4.5 v 18 c 0,2.485 -2.01,4.5 -4.5,4.5 h -87 c -2.485,0 -4.5,-2.015 -4.5,-4.5 z"
         stroke="#000000"
         stroke-width="1.33333"
         stroke-miterlimit="8"
         fill="none"
         fill-rule="evenodd"
         id="path40" /><path
         d="m 969.604,337.383 h 43.996 v 14 h -43.996 z"
         fill="#ffffff"
         fill-rule="evenodd"
         id="path41" /><text
         font-family="Arial, Arial_MSFontService, sans-serif"
         font-weight="400"
         font-size="12px"
         transform="translate(969.604,348)"
         id="text41">Subtype</text><path
         d="m 1222.5,322.833 c 0,-3.497 2.84,-6.333 6.33,-6.333 h 131.34 c 3.49,0 6.33,2.836 6.33,6.333 v 25.334 c 0,3.497 -2.84,6.333 -6.33,6.333 h -131.34 c -3.49,0 -6.33,-2.836 -6.33,-6.333 z"
         stroke="#000000"
         stroke-width="1.33333"
         stroke-miterlimit="8"
         fill="none"
         fill-rule="evenodd"
         id="path42" /><path
         d="m 1248.26,321.647 h 91.33 v 14 h -91.33 z"
         fill="#ffffff"
         fill-rule="evenodd"
         id="path43" /><path
         d="m 1258.59,335.647 h 70.67 v 14 h -70.67 z"
         fill="#ffffff"
         fill-rule="evenodd"
         id="path44" /><text
         font-family="Arial, Arial_MSFontService, sans-serif"
         font-weight="400"
         font-size="12px"
         transform="translate(1248.26,333)"
         id="text44">Generic Function</text><text
         fill="#008080"
         font-family="Arial, Arial_MSFontService, sans-serif"
         font-weight="400"
         font-size="12px"
         transform="translate(1258.59,347)"
         id="text45">Early Binding</text><path
         d="m 1175.5,194.167 c 0,-2.025 1.64,-3.667 3.67,-3.667 h 46.66 c 2.03,0 3.67,1.642 3.67,3.667 v 14.666 c 0,2.025 -1.64,3.667 -3.67,3.667 h -46.66 c -2.03,0 -3.67,-1.642 -3.67,-3.667 z"
         stroke="#002060"
         stroke-width="1.33333"
         stroke-miterlimit="8"
         fill="#ffffff"
         fill-rule="evenodd"
         id="path45" /><path
         d="m 1184.33,195.058 h 34.66 v 14 h -34.66 z"
         fill="#ffffff"
         fill-rule="evenodd"
         id="path46" /><text
         font-family="Arial, Arial_MSFontService, sans-serif"
         font-weight="400"
         font-size="12px"
         transform="translate(1184.33,206)"
         id="text46">Object</text><path
         d="m 1242.5,209.5 c 0,7.732 -1.04,14 -2.33,14 h -36.99 c -1.29,0 -2.33,6.268 -2.33,14 0,-7.732 -1.05,-14 -2.34,-14 h -33.68 c -1.29,0 -2.33,-6.268 -2.33,-14"
         stroke="#002060"
         stroke-width="0.666667"
         stroke-miterlimit="8"
         fill="none"
         fill-rule="evenodd"
         id="path47" /><text
         fill="#9900ff"
         font-family="Arial, Arial_MSFontService, sans-serif"
         font-weight="400"
         font-size="12px"
         transform="translate(825.503,230)"
         id="text47">NRS Refer</text><text
         fill="#9900ff"
         font-family="Arial, Arial_MSFontService, sans-serif"
         font-weight="400"
         font-size="12px"
         transform="translate(962.877,230)"
         id="text48">NRS Refer</text><text
         fill="#9900ff"
         font-family="Arial, Arial_MSFontService, sans-serif"
         font-weight="400"
         font-size="12px"
         transform="translate(1100.74,230)"
         id="text49">NRS Refer</text><text
         fill="#008080"
         font-family="Arial, Arial_MSFontService, sans-serif"
         font-weight="400"
         font-size="12px"
         transform="translate(1272.58,230)"
         id="text50">NRS Call</text><text
         fill="#002060"
         font-family="Arial, Arial_MSFontService, sans-serif"
         font-weight="400"
         font-size="12px"
         transform="translate(1245.69,175)"
         id="text51">MUS Initialize</text><text
         fill="#002060"
         font-family="Arial, Arial_MSFontService, sans-serif"
         font-weight="400"
         font-size="12px"
         transform="translate(1245.69,189)"
         id="text52">or MUS Write</text><path
         d="m 1166.5,174.319 c 0,-3.766 3.05,-6.819 6.82,-6.819 h 56.36 c 3.77,0 6.82,3.053 6.82,6.819 v 36.363 c 0,3.765 -3.05,6.818 -6.82,6.818 h -56.36 c -3.77,0 -6.82,-3.053 -6.82,-6.818 z"
         stroke="#002060"
         stroke-width="1.33333"
         stroke-miterlimit="8"
         fill="none"
         fill-rule="evenodd"
         id="path52" /><text
         font-family="Arial, Arial_MSFontService, sans-serif"
         font-weight="400"
         font-size="12px"
         transform="translate(1174.95,181)"
         id="text53">Bind Data</text><path
         d="m 1222.5,290 c 0,-2.485 2.01,-4.5 4.5,-4.5 h 135 c 2.49,0 4.5,2.015 4.5,4.5 v 18 c 0,2.485 -2.01,4.5 -4.5,4.5 h -135 c -2.49,0 -4.5,-2.015 -4.5,-4.5 z"
         stroke="#000000"
         stroke-width="1.33333"
         stroke-miterlimit="8"
         fill="none"
         fill-rule="evenodd"
         id="path53" /><path
         d="m 1270.93,292.159 h 46 v 14 h -46 z"
         fill="#ffffff"
         fill-rule="evenodd"
         id="path54" /><text
         font-family="Arial, Arial_MSFontService, sans-serif"
         font-weight="400"
         font-size="12px"
         transform="translate(1270.93,303)"
         id="text54">Function</text><text
         fill="#7f7f7f"
         font-family="Arial, Arial_MSFontService, sans-serif"
         font-weight="400"
         font-size="12px"
         transform="translate(790.352,447)"
         id="text55">BF,</text><text
         fill="#7f7f7f"
         font-family="Arial, Arial_MSFontService, sans-serif"
         font-weight="400"
         font-size="12px"
         transform="translate(812.352,447)"
         id="text56">I</text><text
         fill="#7f7f7f"
         font-family="Arial, Arial_MSFontService, sans-serif"
         font-weight="400"
         font-size="12px"
         transform="translate(815.685,447)"
         id="text57">. Bojanova,</text><text
         fill="#7f7f7f"
         font-family="Arial, Arial_MSFontService, sans-serif"
         font-weight="400"
         font-size="12px"
         transform="translate(879.018,447)"
         id="text58">2022</text><text
         font-family="Calibri, Calibri_MSFontService, sans-serif"
         font-weight="400"
         font-size="12px"
         transform="translate(874.79,169)"
         id="text59">BF Name</text><text
         font-family="Calibri, Calibri_MSFontService, sans-serif"
         font-weight="400"
         font-size="12px"
         transform="translate(921.123,169)"
         id="text60">Resolution and Biding Sub</text><text
         font-family="Calibri, Calibri_MSFontService, sans-serif"
         font-weight="400"
         font-size="12px"
         transform="translate(1048.29,169)"
         id="text61">-</text><text
         font-family="Calibri, Calibri_MSFontService, sans-serif"
         font-weight="400"
         font-size="12px"
         transform="translate(1051.96,169)"
         id="text62">Model</text></g></g></svg>
