<?xml version="1.0" encoding="UTF-8" standalone="no"?>
<!-- Created with Inkscape (http://www.inkscape.org/) -->

<svg
   width="145.36552mm"
   height="141.56975mm"
   viewBox="0 0 145.36552 141.56974"
   version="1.1"
   id="svg5"
   inkscape:export-filename="_MEM.png"
   inkscape:export-xdpi="96"
   inkscape:export-ydpi="96"
   xml:space="preserve"
   inkscape:version="1.2.2 (b0a8486541, 2022-12-01)"
   sodipodi:docname="_DAT.svg"
   xmlns:inkscape="http://www.inkscape.org/namespaces/inkscape"
   xmlns:sodipodi="http://sodipodi.sourceforge.net/DTD/sodipodi-0.dtd"
   xmlns="http://www.w3.org/2000/svg"
   xmlns:svg="http://www.w3.org/2000/svg"><sodipodi:namedview
     id="namedview7"
     pagecolor="#ffffff"
     bordercolor="#000000"
     borderopacity="0.25"
     inkscape:showpageshadow="2"
     inkscape:pageopacity="0.0"
     inkscape:pagecheckerboard="0"
     inkscape:deskcolor="#d1d1d1"
     inkscape:document-units="mm"
     showgrid="false"
     inkscape:zoom="0.914906"
     inkscape:cx="45.906355"
     inkscape:cy="-215.32267"
     inkscape:window-width="2560"
     inkscape:window-height="1377"
     inkscape:window-x="-8"
     inkscape:window-y="797"
     inkscape:window-maximized="1"
     inkscape:current-layer="layer1" /><defs
     id="defs2"><clipPath
       id="clip0"><rect
         x="-25"
         y="0"
         width="785"
         height="1091"
         id="rect9" /></clipPath><clipPath
       id="clip0-8"><rect
         x="-25"
         y="0"
         width="785"
         height="524"
         id="rect520" /></clipPath><clipPath
       id="clip0-3"><rect
         x="-25"
         y="0"
         width="785"
         height="1091"
         id="rect699" /></clipPath><clipPath
       id="clip0-0"><rect
         x="-25"
         y="0"
         width="785"
         height="1091"
         id="rect1109" /></clipPath><clipPath
       id="clip0-4"><rect
         x="-25"
         y="0"
         width="934"
         height="905"
         id="rect1519" /></clipPath><clipPath
       id="clip0-42"><rect
         x="-7"
         y="0"
         width="952"
         height="590"
         id="rect1929" /></clipPath><clipPath
       id="clip0-1"><rect
         x="-25"
         y="0"
         width="785"
         height="1091"
         id="rect2197" /></clipPath><clipPath
       id="clip0-6"><rect
         x="-25"
         y="0"
         width="785"
         height="1091"
         id="rect2806" /></clipPath><clipPath
       id="clip0-66"><rect
         x="11"
         y="-21"
         width="934"
         height="904"
         id="rect3369" /></clipPath><clipPath
       id="clip0-41"><rect
         x="-7"
         y="0"
         width="743"
         height="335"
         id="rect3934" /></clipPath><clipPath
       id="clip0-7"><rect
         x="-7"
         y="0"
         width="743"
         height="335"
         id="rect4109" /></clipPath><clipPath
       id="clip0-9"><rect
         x="-25"
         y="0"
         width="785"
         height="524"
         id="rect4320" /></clipPath><clipPath
       id="clip0-96"><rect
         x="-25"
         y="0"
         width="785"
         height="713"
         id="rect4583" /></clipPath><clipPath
       id="clip0-08"><rect
         x="144"
         y="424"
         width="837"
         height="501"
         id="rect4932" /></clipPath><clipPath
       id="clip0-87"><rect
         x="144"
         y="424"
         width="837"
         height="501"
         id="rect5261" /></clipPath><clipPath
       id="clip0-68"><rect
         x="201"
         y="68"
         width="837"
         height="501"
         id="rect5590" /></clipPath><clipPath
       id="clip0-69"><rect
         x="212"
         y="141"
         width="635"
         height="281"
         id="rect6057" /></clipPath><clipPath
       id="clip0-44"><rect
         x="75"
         y="7"
         width="780"
         height="757"
         id="rect6214" /></clipPath><clipPath
       id="clip0-38"><rect
         x="75"
         y="8"
         width="780"
         height="752"
         id="rect6713" /></clipPath><clipPath
       id="clip0-080"><rect
         x="62"
         y="92"
         width="671"
         height="543"
         id="rect7166" /></clipPath></defs><g
     inkscape:label="Layer 1"
     inkscape:groupmode="layer"
     id="layer1"
     transform="translate(-92.116612,-297.51581)"><g
       clip-path="url(#clip0-080)"
       transform="matrix(0.26458333,0,0,0.26458333,75.712446,273.05281)"
       id="g7275"><path
         d="m 89.5001,154.592 c 0,-8.888 7.2044,-16.092 16.0919,-16.092 h 122.816 c 8.888,0 16.092,7.204 16.092,16.092 v 85.816 c 0,8.888 -7.204,16.092 -16.092,16.092 H 105.592 c -8.8875,0 -16.0919,-7.204 -16.0919,-16.092 z"
         stroke="#7b7b7b"
         stroke-width="1.33333"
         stroke-miterlimit="8"
         fill="#f2f2f2"
         fill-rule="evenodd"
         id="path7171" /><text
         font-family="Arial, Arial_MSFontService, sans-serif"
         font-weight="400"
         font-size="12px"
         transform="translate(146.275,155)"
         id="text7175">DCL <tspan
   font-size="12px"
   x="27.3333"
   y="0"
   id="tspan7173">(entity)</tspan></text><path
         d="m 99.5001,173.667 c 0,-2.301 1.8659,-4.167 4.1669,-4.167 h 58.666 c 2.302,0 4.167,1.866 4.167,4.167 v 16.666 c 0,2.302 -1.865,4.167 -4.167,4.167 h -58.666 c -2.301,0 -4.1669,-1.865 -4.1669,-4.167 z"
         stroke="#000000"
         stroke-width="1.33333"
         stroke-miterlimit="8"
         fill="#ffffff"
         fill-rule="evenodd"
         id="path7177" /><text
         font-family="Arial, Arial_MSFontService, sans-serif"
         font-weight="400"
         font-size="12px"
         transform="translate(111.444,187)"
         id="text7179">Declare</text><path
         d="m 166.5,225.667 c 0,-2.301 1.866,-4.167 4.167,-4.167 h 58.666 c 2.302,0 4.167,1.866 4.167,4.167 v 16.666 c 0,2.302 -1.865,4.167 -4.167,4.167 h -58.666 c -2.301,0 -4.167,-1.865 -4.167,-4.167 z"
         stroke="#000000"
         stroke-width="1.33333"
         stroke-miterlimit="8"
         fill="#ffffff"
         fill-rule="evenodd"
         id="path7181" /><text
         font-family="Arial, Arial_MSFontService, sans-serif"
         font-weight="400"
         font-size="12px"
         transform="translate(181.977,238)"
         id="text7183">Define</text><path
         d="M 0.0344367,-0.665777 3.65944,-0.478277 7.35222,0.0912174 14.4437,2.23708 c 0.0375,0.01139 0.0741,0.02613 0.109,0.04394 l 6.5,3.3125 c 0.032,0.01632 0.0628,0.03529 0.0918,0.05656 l 5.875,4.3125 c 0.0306,0.02245 0.0593,0.04752 0.0856,0.07492 l 4.9375,5.125 c 0.0264,0.0274 0.0504,0.057 0.0718,0.0885 l 3.8125,5.625 c 0.0206,0.0305 0.0388,0.0627 0.0541,0.0962 l 1.375,3 c 0.0159,0.0345 0.0287,0.0704 0.0384,0.1071 l 0.7391,2.7893 -1.2889,0.3415 -0.739,-2.7894 0.0384,0.1071 -1.375,-3 0.0541,0.0962 -3.8125,-5.625 0.0718,0.0885 -4.9375,-5.125 0.0856,0.0749 -5.875,-4.31248 0.0918,0.05656 -6.5,-3.3125 0.109,0.04394 L 7.14777,1.40878 3.59056,0.853277 -0.0344367,0.665777 Z M 41.1886,25.0167 38.6732,33.6 33.3158,26.4377 Z"
         fill="#454545"
         transform="matrix(0,1,1,0,132.5,194.5)"
         id="path7185" /><path
         d="m 0.0217749,-0.666311 19.1250251,0.625 18.6011,1.689881 8.9076,1.25378 8.4565,1.44045 8.0871,1.69217 7.52,1.81702 6.9046,2.00788 6.2784,2.13393 5.5378,2.2642 4.6771,2.399 3.8088,2.4715 c 0.0581,0.0378 0.11,0.0844 0.1538,0.1382 l 1.5364,1.888 -1.0341,0.8416 -1.5365,-1.888 0.1538,0.1382 L 93.508,17.843 88.9351,15.492 83.4729,13.2562 77.2513,11.1401 70.4059,9.14801 62.9259,7.34003 54.888,5.6572 46.4695,4.22265 37.6271,2.97643 19.1032,1.29131 -0.0217749,0.666311 Z M 101.79,18.3294 l 0.833,8.9055 -7.6244,-4.6771 z"
         fill="#454545"
         transform="matrix(0,1,1,0,62.5001,95.5001)"
         id="path7187" /><path
         d="m 245.5,273.592 c 0,-8.887 7.205,-16.092 16.092,-16.092 h 130.816 c 8.888,0 16.092,7.205 16.092,16.092 v 85.816 c 0,8.888 -7.204,16.092 -16.092,16.092 H 261.592 c -8.887,0 -16.092,-7.204 -16.092,-16.092 z"
         stroke="#7b7b7b"
         stroke-width="1.33333"
         stroke-miterlimit="8"
         fill="#f2f2f2"
         fill-rule="evenodd"
         id="path7189" /><text
         font-family="Arial, Arial_MSFontService, sans-serif"
         font-weight="400"
         font-size="12px"
         transform="translate(276.829,274)"
         id="text7191">NRS (entity name)</text><path
         d="m 255.5,291.667 c 0,-2.301 1.866,-4.167 4.167,-4.167 h 59.666 c 2.302,0 4.167,1.866 4.167,4.167 v 16.666 c 0,2.302 -1.865,4.167 -4.167,4.167 h -59.666 c -2.301,0 -4.167,-1.865 -4.167,-4.167 z"
         stroke="#cc00ff"
         stroke-width="1.33333"
         stroke-miterlimit="8"
         fill="#ffffff"
         fill-rule="evenodd"
         id="path7193" /><text
         font-family="Arial, Arial_MSFontService, sans-serif"
         font-weight="400"
         font-size="12px"
         transform="translate(274.301,305)"
         id="text7195">Refer</text><path
         d="m 323.5,343.5 c 0,-2.209 1.791,-4 4,-4 h 59 c 2.209,0 4,1.791 4,4 v 16 c 0,2.209 -1.791,4 -4,4 h -59 c -2.209,0 -4,-1.791 -4,-4 z"
         stroke="#008080"
         stroke-width="1.33333"
         stroke-miterlimit="8"
         fill="#ffffff"
         fill-rule="evenodd"
         id="path7197" /><text
         font-family="Arial, Arial_MSFontService, sans-serif"
         font-weight="400"
         font-size="12px"
         transform="translate(345.834,356)"
         id="text7199">Call</text><path
         d="M 0.0344367,-0.665777 3.65944,-0.478277 7.35222,0.0912174 14.4437,2.23708 c 0.0375,0.01139 0.0741,0.02613 0.109,0.04394 l 6.5,3.3125 c 0.032,0.01632 0.0628,0.03529 0.0918,0.05656 l 5.875,4.3125 c 0.0306,0.02245 0.0593,0.04752 0.0856,0.07492 l 4.9375,5.125 c 0.0264,0.0274 0.0504,0.057 0.0718,0.0885 l 3.8125,5.625 c 0.0206,0.0305 0.0388,0.0627 0.0541,0.0962 l 1.375,3 c 0.0159,0.0345 0.0287,0.0704 0.0384,0.1071 l 0.7391,2.7893 -1.2889,0.3415 -0.739,-2.7894 0.0384,0.1071 -1.375,-3 0.0541,0.0962 -3.8125,-5.625 0.0718,0.0885 -4.9375,-5.125 0.0856,0.0749 -5.875,-4.31248 0.0918,0.05656 -6.5,-3.3125 0.109,0.04394 L 7.14777,1.40878 3.59056,0.853277 -0.0344367,0.665777 Z M 41.1886,25.0167 38.6732,33.6 33.3158,26.4377 Z"
         fill="#454545"
         transform="matrix(0,1,1,0,289.5,312.5)"
         id="path7201" /><path
         d="m 238.971,316.428 -7.967,-0.975 -7.192,-1.637 -7.051,-2.201 -6.798,-2.704 -6.486,-3.21 -6.169,-3.648 -5.791,-4.027 -5.296,-4.41 -4.792,-4.725 -4.225,-4.915 -3.547,-5.249 -2.908,-5.368 -2.16,-5.513 -1.341,-5.652 c -0.008,-0.034 -0.013,-0.069 -0.016,-0.105 l -0.397,-5.541 1.33,-0.096 0.397,5.542 -0.016,-0.106 1.285,5.473 2.09,5.363 2.841,5.257 3.454,5.126 4.15,4.835 4.708,4.65 5.204,4.34 5.709,3.973 6.081,3.601 6.388,3.166 6.703,2.67 6.949,2.174 7.058,1.614 7.967,0.974 z m -1.048,-4.724 7.787,4.4 -8.192,3.59 z"
         fill="#454545"
         id="path7203" /><path
         d="m 483.545,537.584 -5.907,-0.62 -6.25,-1.259 -6.225,-1.634 -6.24,-2.204 -6.1,-2.577 -6.094,-2.951 -5.916,-3.397 -5.902,-3.766 -5.72,-4.147 -11.099,-9.279 -10.545,-10.604 -9.789,-11.73 -9.033,-12.793 -8.152,-13.604 -7.15,-14.422 -6.083,-15.046 -4.893,-15.55 -3.639,-15.926 -2.199,-16.247 -0.629,-8.163 -0.147,-8.153 1.334,-0.024 0.143,8.075 0.621,8.087 2.177,16.128 3.611,15.823 4.857,15.451 6.041,14.953 7.1,14.329 8.098,13.52 8.967,12.708 9.711,11.644 10.455,10.521 11.026,9.222 5.655,4.103 5.848,3.734 5.834,3.353 6.031,2.923 6.025,2.548 6.135,2.172 6.15,1.616 6.125,1.24 5.907,0.62 z m -1.034,-4.732 7.759,4.449 -8.215,3.537 z"
         fill="#454545"
         id="path7205" /><path
         d="M 62.5001,608.833 H 606.079 v 1.334 H 62.5001 Z m 543.5799,0.667 -2.667,-4 8,4 -8,4 z"
         id="path7207" /><path
         d="m 401.5,389.273 c 0,-7.606 6.167,-13.773 13.773,-13.773 h 73.454 c 7.607,0 13.773,6.167 13.773,13.773 v 80.454 c 0,7.607 -6.166,13.773 -13.773,13.773 h -73.454 c -7.606,0 -13.773,-6.166 -13.773,-13.773 z"
         stroke="#7b7b7b"
         stroke-width="1.33333"
         stroke-miterlimit="8"
         fill="#f2f2f2"
         fill-rule="evenodd"
         id="path7209" /><text
         font-family="Arial, Arial_MSFontService, sans-serif"
         font-weight="400"
         font-size="12px"
         transform="translate(418.054,391)"
         id="text7211">TCV (object)</text><path
         d="m 418.5,409.667 c 0,-2.301 1.866,-4.167 4.167,-4.167 h 59.666 c 2.302,0 4.167,1.866 4.167,4.167 v 16.666 c 0,2.302 -1.865,4.167 -4.167,4.167 h -59.666 c -2.301,0 -4.167,-1.865 -4.167,-4.167 z"
         stroke="#000000"
         stroke-width="1.33333"
         stroke-miterlimit="8"
         fill="#ffffff"
         fill-rule="evenodd"
         id="path7213" /><text
         font-family="Arial, Arial_MSFontService, sans-serif"
         font-weight="400"
         font-size="12px"
         transform="translate(439.589,423)"
         id="text7215">Cast</text><path
         d="m 418.5,450.667 c 0,-2.301 1.866,-4.167 4.167,-4.167 h 59.666 c 2.302,0 4.167,1.866 4.167,4.167 v 16.666 c 0,2.302 -1.865,4.167 -4.167,4.167 h -59.666 c -2.301,0 -4.167,-1.865 -4.167,-4.167 z"
         stroke="#000000"
         stroke-width="1.33333"
         stroke-miterlimit="8"
         fill="#ffffff"
         fill-rule="evenodd"
         id="path7217" /><text
         font-family="Arial, Arial_MSFontService, sans-serif"
         font-weight="400"
         font-size="12px"
         transform="translate(432.589,463)"
         id="text7219">Coerce</text><path
         d="m 490.5,498.682 c 0,-7.832 6.35,-14.182 14.182,-14.182 h 75.636 c 7.832,0 14.182,6.35 14.182,14.182 v 78.636 c 0,7.832 -6.35,14.182 -14.182,14.182 h -75.636 c -7.832,0 -14.182,-6.35 -14.182,-14.182 z"
         stroke="#7b7b7b"
         stroke-width="1.33333"
         stroke-miterlimit="8"
         fill="#f2f2f2"
         fill-rule="evenodd"
         id="path7221" /><text
         font-family="Arial, Arial_MSFontService, sans-serif"
         font-weight="400"
         font-size="12px"
         transform="translate(507.205,500)"
         id="text7223">TCM (object)</text><path
         d="m 508.5,519.667 c 0,-2.301 1.866,-4.167 4.167,-4.167 h 58.666 c 2.302,0 4.167,1.866 4.167,4.167 v 16.666 c 0,2.302 -1.865,4.167 -4.167,4.167 h -58.666 c -2.301,0 -4.167,-1.865 -4.167,-4.167 z"
         stroke="#000000"
         stroke-width="1.33333"
         stroke-miterlimit="8"
         fill="#ffffff"
         fill-rule="evenodd"
         id="path7225" /><text
         font-family="Arial, Arial_MSFontService, sans-serif"
         font-weight="400"
         font-size="12px"
         transform="translate(516.872,532)"
         id="text7227">Calculate</text><path
         d="m 508.5,560.5 c 0,-2.209 1.791,-4 4,-4 h 59 c 2.209,0 4,1.791 4,4 v 16 c 0,2.209 -1.791,4 -4,4 h -59 c -2.209,0 -4,-1.791 -4,-4 z"
         stroke="#000000"
         stroke-width="1.33333"
         stroke-miterlimit="8"
         fill="#ffffff"
         fill-rule="evenodd"
         id="path7229" /><text
         font-family="Arial, Arial_MSFontService, sans-serif"
         font-weight="400"
         font-size="12px"
         transform="translate(518.538,573)"
         id="text7231">Evaluate</text><path
         d="m 412.312,459.236 -7.024,-0.192 -13.724,-1.127 -13.658,-1.816 -13.592,-2.442 -13.474,-3.195 -13.339,-3.757 -13.158,-4.448 -12.964,-5.01 -12.777,-5.573 -12.524,-6.074 -12.276,-6.638 -11.962,-7.139 -11.647,-7.576 -11.273,-8.016 -10.96,-8.517 -10.52,-8.828 -10.085,-9.27 -9.582,-9.582 -9.145,-9.958 -8.643,-10.207 -8.143,-10.523 -7.521,-10.841 -6.953,-11.024 -6.33,-11.215 -5.703,-11.405 -5.015,-11.596 -4.327,-11.785 -3.575,-11.85 -2.823,-11.913 -2.07,-12.041 -1.257,-12.107 -0.434,-12.047 1.332,-0.048 0.429,11.958 1.244,12.018 2.054,11.959 2.802,11.836 3.55,11.776 4.298,11.715 4.985,11.529 5.672,11.345 6.295,11.16 6.922,10.975 7.479,10.785 8.107,10.477 8.607,10.168 9.105,9.917 9.543,9.543 10.04,9.23 10.48,8.797 10.915,8.483 11.227,7.984 11.603,7.549 11.913,7.111 12.224,6.612 12.476,6.051 12.723,5.552 12.911,4.99 13.092,4.427 13.286,3.743 13.401,3.18 13.533,2.433 13.592,1.809 13.651,1.123 7.023,0.192 z m -1.205,-4.701 7.887,4.217 -8.107,3.78 z"
         fill="#008080"
         id="path7233" /><path
         d="m 483.763,537.051 -4.076,-1.773 c -0.04,-0.018 -0.077,-0.039 -0.113,-0.063 l -3.437,-2.375 c -0.028,-0.019 -0.054,-0.04 -0.079,-0.063 l -3.25,-3.063 -3.223,-3.536 -2.985,-4.121 -2.837,-4.537 -2.586,-4.853 -2.334,-5.294 -3.772,-11.245 -1.393,-5.999 -1.008,-6.168 -0.692,-6.158 -0.144,-6.288 1.333,-0.03 0.136,6.17 0.683,6.091 0.991,6.082 1.358,5.876 3.728,11.131 2.291,5.206 2.539,4.772 2.788,4.463 2.89,4.004 3.152,3.464 3.25,3.062 -0.079,-0.063 3.438,2.375 -0.113,-0.063 4.076,1.773 z m -0.108,-4.811 6.86,5.739 -8.707,2.044 z"
         fill="#454545"
         id="path7235" /><path
         d="m 412.163,418.339 -5.468,-0.282 -12.061,-1.756 -11.874,-2.887 -11.614,-3.827 -11.242,-4.834 -10.735,-5.647 -10.169,-6.401 -9.484,-7.157 -8.73,-7.785 -7.914,-8.287 -6.915,-8.734 -5.913,-9.178 -4.785,-9.498 -3.531,-9.697 -2.15,-9.899 -0.573,-5.004 -0.171,-4.943 1.332,-0.046 0.164,4.838 0.551,4.872 2.1,9.726 3.469,9.553 4.715,9.377 5.837,9.072 6.835,8.641 7.837,8.212 8.645,7.716 9.391,7.093 10.08,6.349 10.641,5.603 11.132,4.791 11.512,3.798 11.751,2.863 11.938,1.744 5.467,0.282 z m -1.092,-4.73 7.784,4.407 -8.196,3.583 z"
         fill="#0000ff"
         id="path7237" /><path
         d="m 173.175,181.927 15.647,0.219 22.146,1.001 21.769,1.626 21.329,2.126 20.521,2.69 19.705,3.128 18.71,3.629 17.395,3.941 8.208,2.13 7.886,2.191 7.391,2.254 7.081,2.381 6.576,2.38 6.15,2.51 5.644,2.508 5.212,2.574 4.6,2.645 4.156,2.706 3.543,2.718 2.924,2.729 2.367,2.808 c 0.022,0.025 0.041,0.052 0.058,0.08 l 1.688,2.75 c 0.023,0.039 0.043,0.079 0.058,0.121 l 1,2.75 c 0.016,0.045 0.028,0.091 0.034,0.138 l 0.375,2.75 c 0.007,0.047 0.008,0.095 0.004,0.143 l -0.437,5.5 c -0.003,0.037 -0.009,0.073 -0.018,0.109 l -1.375,5.5 -2.217,5.464 -3.039,5.33 -3.725,5.183 -4.354,4.928 -4.981,4.67 -5.483,4.288 -5.976,4.028 -6.422,3.592 -6.795,3.148 -7.041,2.704 -7.301,2.143 -7.483,1.636 -7.618,1.01 -7.703,0.311 -0.054,-1.332 7.583,-0.301 7.507,-0.99 7.392,-1.614 7.199,-2.107 6.959,-2.67 6.705,-3.102 6.328,-3.534 5.899,-3.972 5.392,-4.212 4.894,-4.58 4.271,-4.822 3.65,-5.067 2.961,-5.17 2.158,-5.286 1.375,-5.5 -0.018,0.109 0.438,-5.5 0.004,0.143 -0.375,-2.75 0.034,0.138 -1,-2.75 0.058,0.121 -1.687,-2.75 0.058,0.08 -2.258,-2.692 -2.826,-2.646 -3.457,-2.657 -4.094,-2.669 -4.525,-2.605 -5.163,-2.551 -5.606,-2.492 -6.1,-2.49 -6.548,-2.37 -7.045,-2.369 -7.359,-2.246 -7.864,-2.184 -8.167,-2.12 -17.355,-3.933 -18.665,-3.622 -19.67,-3.122 -20.479,-2.685 -21.296,-2.124 -21.731,-1.623 -22.104,-1 -15.646,-0.219 z m 1.268,4.685 -7.943,-4.112 8.055,-3.888 z"
         fill="#9900ff"
         id="path7239" /><text
         font-family="Arial, Arial_MSFontService, sans-serif"
         font-weight="400"
         font-size="12px"
         transform="translate(299.934,402)"
         id="text7251">object<tspan
   font-size="12px"
   x="2.2904999"
   y="-70"
   id="tspan7241">function</tspan><tspan
   font-size="12px"
   x="118.81"
   y="-270"
   id="tspan7243">argument / return /</tspan><tspan
   font-size="12px"
   x="118.81"
   y="-256"
   id="tspan7245">(.) object</tspan><tspan
   font-size="12px"
   x="223.246"
   y="-95"
   id="tspan7247">subtype</tspan><tspan
   font-size="12px"
   x="233.246"
   y="-81"
   id="tspan7249">object</tspan></text><path
         d="m 330.177,299.941 16.521,0.267 23.02,1.064 22.646,1.751 22.145,2.377 21.394,2.94 20.458,3.44 19.397,3.942 18.146,4.317 8.521,2.318 8.142,2.442 7.763,2.504 7.328,2.568 6.832,2.632 6.394,2.695 5.899,2.761 5.401,2.825 4.786,2.896 4.284,2.959 3.666,2.968 3.104,2.974 2.436,3.068 c 0.02,0.024 0.037,0.05 0.053,0.078 l 1.75,3 c 0.022,0.037 0.04,0.076 0.054,0.117 l 1.063,3.063 c 0.015,0.044 0.026,0.089 0.032,0.135 l 0.375,3 c 0.005,0.041 0.006,0.083 0.003,0.124 l -0.375,6.063 -1.135,6.081 -1.895,5.955 -2.524,5.813 -3.089,5.619 -3.657,5.426 -4.163,5.051 -4.662,4.791 -4.973,4.409 -5.427,3.917 -5.667,3.465 -5.925,2.965 -6.117,2.4 -6.314,1.771 -6.381,1.078 -6.486,0.339 -0.069,-1.331 6.333,-0.323 6.244,-1.047 6.186,-1.729 6.008,-2.35 5.825,-2.91 5.583,-3.41 5.323,-3.833 4.902,-4.341 4.588,-4.709 4.087,-4.949 3.594,-5.323 3.035,-5.507 2.476,-5.687 1.855,-5.795 1.115,-5.919 0.375,-6.062 0.004,0.124 -0.375,-3 0.031,0.136 -1.062,-3.063 0.054,0.117 -1.75,-3 0.053,0.078 -2.314,-2.932 -3.021,-2.901 -3.584,-2.907 -4.216,-2.916 -4.714,-2.854 -5.349,-2.8 -5.851,-2.739 -6.356,-2.68 -6.793,-2.618 -7.297,-2.557 -7.737,-2.496 -8.108,-2.433 -8.479,-2.307 -18.104,-4.308 -19.353,-3.933 -20.417,-3.434 -21.356,-2.936 -22.105,-2.373 -22.604,-1.748 -22.98,-1.062 -16.522,-0.268 z m 1.257,4.688 -7.934,-4.129 8.064,-3.87 z"
         fill="#454545"
         id="path7253" /><text
         font-family="Arial, Arial_MSFontService, sans-serif"
         font-weight="400"
         font-size="12px"
         transform="translate(441.023,348)"
         id="text7257">argument<tspan
   font-size="12px"
   x="39.496201"
   y="277"
   id="tspan7255">Type System Timeline</tspan></text><path
         d="m -6.44184,1.57449 -4.08566,1.01019 0.0987,-0.03276 -3.5625,1.5 -3.4439,1.84823 -3.4543,2.22314 -6.7485,5.57831 -6.5027,6.8815 -6.2688,8.1365 -5.9676,9.2665 -5.5353,10.3289 -5.1065,11.1501 -4.6726,11.965 -4.0486,12.6482 -3.4271,13.2141 -2.8048,13.6546 -2.0559,14.025 -1.2455,14.211 -0.4352,14.337 0.1875,7.15 0.5607,7.153 2.1198,14.204 3.4875,13.999 4.6713,13.633 5.8537,13.196 6.8517,12.64 7.7851,11.954 8.6565,11.206 9.4016,10.27 10.0235,9.273 10.64013,8.148 11.07233,6.901 11.44014,5.592 5.8205,2.226 5.8999,1.862 5.9609,1.489 5.9545,1.053 5.9529,0.618 6.0209,0.247 12.0177,-0.313 11.9723,-0.811 11.7839,-1.31 11.4698,-1.809 11.0968,-2.244 10.597,-2.619 10.096,-2.992 9.342,-3.302 8.657,-3.551 7.769,-3.855 6.832,-4.039 5.823,-4.217 4.62,-4.381 -0.068,0.075 3.5,-4.5 -0.078,0.128 2.125,-4.563 -0.043,0.124 0.562,-2.313 -0.017,0.104 0.19,-2.343 1.329,0.108 -0.19,2.343 c -0.002,0.035 -0.008,0.069 -0.016,0.104 l -0.563,2.312 c -0.01,0.043 -0.025,0.084 -0.043,0.124 l -2.125,4.562 c -0.021,0.046 -0.048,0.089 -0.078,0.128 l -3.5,4.5 c -0.021,0.027 -0.044,0.052 -0.068,0.075 l -4.755,4.494 -5.927,4.283 -6.918,4.086 -7.856,3.895 -8.718,3.574 -9.408,3.323 -10.154,3.008 -10.653,2.631 -11.153,2.256 -11.5304,1.816 -11.8411,1.315 -12.0277,0.814 -12.1073,0.312 -6.1041,-0.253 -6.0471,-0.632 -6.0455,-1.072 -6.0391,-1.511 -5.9751,-1.888 -5.9295,-2.274 -11.55986,-5.658 -11.17767,-6.974 -10.73487,-8.227 -10.1015,-9.352 -9.4733,-10.355 -8.7186,-11.294 -7.8399,-12.046 -6.8983,-12.735 -5.8963,-13.304 -4.7037,-13.743 -3.5125,-14.125 -2.1302,-14.296 -0.5643,-7.222 -0.1875,-7.225 0.4398,-14.413 1.2545,-14.289 2.0691,-14.1 2.8202,-13.7204 3.4479,-13.2859 4.0764,-12.7268 4.7024,-12.0351 5.1436,-11.2248 5.5896,-10.4211 6.0324,-9.3585 6.3562,-8.2385 6.6223,-6.9935 6.8765,-5.67169 3.5457,-2.27686 3.5561,-1.90177 3.5625,-1.5 c 0.032,-0.01346 0.065,-0.02443 0.0987,-0.03276 L -6.76188,0.280131 Z M -8.47862,-2.84834 0,0 -7.36585,5.07389 Z"
         fill="#008080"
         transform="matrix(0,1,1,0,132.5,169.5)"
         id="path7259" /><path
         d="m 397.178,350.952 7.396,0.131 13.956,0.626 13.771,1.064 13.457,1.439 12.956,1.752 12.458,2.066 11.773,2.379 11.022,2.63 10.091,2.883 9.15,3.007 8.104,3.265 6.799,3.397 5.559,3.534 2.302,1.786 1.874,1.868 1.489,1.869 1.115,1.89 c 0.019,0.032 0.035,0.066 0.048,0.101 l 0.688,1.812 c 0.02,0.054 0.034,0.111 0.04,0.168 l 0.187,1.812 c 0.004,0.035 0.005,0.069 0.003,0.103 l -0.188,3.625 -0.698,3.715 -1.013,3.619 -1.396,3.563 -3.791,6.71 c -0.019,0.034 -0.042,0.067 -0.067,0.097 l -4.875,5.875 c -0.023,0.028 -0.048,0.054 -0.076,0.078 l -5.75,5 c -0.029,0.025 -0.061,0.049 -0.095,0.069 l -6.375,3.812 -3.456,1.479 -3.567,1.087 -3.577,0.643 -3.682,0.249 -0.089,-1.33 3.537,-0.231 3.423,-0.607 3.433,-1.038 3.294,-1.396 6.375,-3.813 -0.095,0.069 5.75,-5 -0.076,0.078 4.875,-5.875 -0.067,0.097 3.71,-6.54 1.353,-3.437 0.987,-3.506 0.677,-3.535 0.187,-3.625 0.003,0.103 -0.188,-1.813 0.04,0.168 -0.687,-1.813 0.048,0.101 -1.01,-1.735 -1.386,-1.756 -1.751,-1.757 -2.198,-1.714 -5.441,-3.466 -6.701,-3.353 -8.021,-3.235 -9.1,-2.992 -10.034,-2.868 -10.978,-2.62 -11.727,-2.371 -12.417,-2.059 -12.919,-1.748 -13.418,-1.436 -13.729,-1.061 -13.919,-0.624 -7.397,-0.132 z m 1.25,4.69 -7.928,-4.142 8.07,-3.857 z"
         fill="#0000ff"
         id="path7261" /><path
         d="m 126.5,201.134 c 0,1.617 -5.792,3.233 -11.584,3.233 -5.793,0 -11.585,-10.015 -11.585,-20.029 0,-10.015 7.363,-20.03 14.726,-20.03 7.362,0 14.725,2.596 14.725,5.192"
         stroke="#008080"
         stroke-width="1.33333"
         stroke-linejoin="round"
         stroke-miterlimit="10"
         fill="none"
         fill-rule="evenodd"
         id="path7263" /><text
         font-family="Arial, Arial_MSFontService, sans-serif"
         font-weight="400"
         font-size="12px"
         transform="translate(131.983,407)"
         id="text7273">argument / return<tspan
   font-size="12px"
   x="92"
   y="0"
   id="tspan7265">/</tspan><tspan
   font-size="12px"
   x="48.666698"
   y="14"
   id="tspan7267">(.) object</tspan><tspan
   font-size="12px"
   x="175.716"
   y="-232"
   id="tspan7269">type/</tspan><tspan
   font-size="12px"
   x="175.716"
   y="-218"
   id="tspan7271">namespace</tspan></text></g></g></svg>
