<?xml version="1.0" encoding="UTF-8" standalone="no"?>
<!-- Created with Inkscape (http://www.inkscape.org/) -->

<svg
   width="209.3864mm"
   height="152.69003mm"
   viewBox="0 0 209.3864 152.69003"
   version="1.1"
   id="svg1"
   inkscape:version="1.3.2 (091e20e, 2023-11-25, custom)"
   sodipodi:docname="_DAT Model.svg"
   xmlns:inkscape="http://www.inkscape.org/namespaces/inkscape"
   xmlns:sodipodi="http://sodipodi.sourceforge.net/DTD/sodipodi-0.dtd"
   xmlns="http://www.w3.org/2000/svg"
   xmlns:svg="http://www.w3.org/2000/svg">
  <sodipodi:namedview
     id="namedview1"
     pagecolor="#ffffff"
     bordercolor="#000000"
     borderopacity="0.25"
     inkscape:showpageshadow="2"
     inkscape:pageopacity="0.0"
     inkscape:pagecheckerboard="0"
     inkscape:deskcolor="#d1d1d1"
     inkscape:document-units="mm"
     inkscape:zoom="1.0289025"
     inkscape:cx="284.28349"
     inkscape:cy="276.50821"
     inkscape:window-width="2560"
     inkscape:window-height="1377"
     inkscape:window-x="-8"
     inkscape:window-y="859"
     inkscape:window-maximized="1"
     inkscape:current-layer="layer1" />
  <defs
     id="defs1">
    <clipPath
       id="clip0">
      <rect
         x="356"
         y="415"
         width="3571"
         height="3658"
         id="rect1" />
    </clipPath>
    <clipPath
       id="clip0-0">
      <rect
         x="356"
         y="415"
         width="3571"
         height="3658"
         id="rect1-9" />
    </clipPath>
    <clipPath
       id="clip0-4">
      <rect
         x="356"
         y="415"
         width="4501"
         height="3658"
         id="rect1-5" />
    </clipPath>
  </defs>
  <g
     inkscape:label="Layer 1"
     inkscape:groupmode="layer"
     id="layer1"
     transform="translate(-246.45978,-461.67985)">
    <g
       transform="matrix(0.26458333,0,0,0.26458333,309.38649,524.91217)"
       id="g37">
      <path
         d="m -193.5,-135.272 c 0,-8.963 7.265,-16.228 16.228,-16.228 h 130.544 c 8.9624,0 16.2279,7.265 16.2279,16.228 v 86.544 c 0,8.9624 -7.2655,16.2279 -16.2279,16.2279 h -130.544 c -8.963,0 -16.228,-7.2655 -16.228,-16.2279 z"
         stroke="#7b7b7b"
         stroke-width="0.666667"
         stroke-miterlimit="8"
         fill="#f2f2f2"
         fill-rule="evenodd"
         id="path1" />
      <text
         font-family="'Calibri Light', 'Calibri Light_MSFontService', sans-serif"
         font-weight="300"
         font-size="13px"
         transform="translate(-133.907,-135)"
         id="text1">DCL (entity)</text>
      <path
         d="m -176.5,-115.333 c 0,-2.302 1.865,-4.167 4.167,-4.167 h 58.666 c 2.301,0 4.167,1.865 4.167,4.167 v 16.6662 c 0,2.3012 -1.866,4.1667 -4.167,4.1667 h -58.666 c -2.302,0 -4.167,-1.8655 -4.167,-4.1667 z"
         stroke="#000000"
         stroke-width="0.666667"
         stroke-miterlimit="8"
         fill="#ffffff"
         fill-rule="evenodd"
         id="path2" />
      <text
         font-family="'Calibri Light', 'Calibri Light_MSFontService', sans-serif"
         font-weight="300"
         font-size="13px"
         transform="translate(-164.321,-104)"
         id="text2">Declare</text>
      <path
         d="m -109.5,-64.3333 c 0,-2.3012 1.865,-4.1668 4.167,-4.1668 h 58.6662 c 2.3012,0 4.1667,1.8656 4.1667,4.1668 v 16.6665 c 0,2.3012 -1.8655,4.1667 -4.1667,4.1667 h -58.6662 c -2.302,0 -4.167,-1.8655 -4.167,-4.1667 z"
         stroke="#000000"
         stroke-width="0.666667"
         stroke-miterlimit="8"
         fill="#ffffff"
         fill-rule="evenodd"
         id="path3" />
      <text
         font-family="'Calibri Light', 'Calibri Light_MSFontService', sans-serif"
         font-weight="300"
         font-size="13px"
         transform="translate(-94.2872,-53)"
         id="text3">Define</text>
      <path
         d="M 0.0177213,-0.332862 3.63861,-0.140088 7.26496,0.425358 14.2976,2.56869 c 0.0184,0.00562 0.0363,0.01282 0.0535,0.02153 l 6.5336,3.31406 c 0.0163,0.00825 0.0318,0.01781 0.0465,0.0286 l 5.8539,4.29842 c 0.0149,0.0109 0.0288,0.0231 0.0416,0.0363 l 4.9475,5.0859 c 0.0139,0.0144 0.0266,0.0299 0.0377,0.0465 l 3.8145,5.6766 c 0.0094,0.014 0.0177,0.0287 0.0249,0.0439 l 1.4115,2.9983 c 0.0086,0.0183 0.0156,0.0373 0.0207,0.0568 l 0.7334,2.7777 -0.6446,0.1701 -0.7334,-2.7776 0.0207,0.0569 -1.4115,-2.9982 0.0249,0.0439 -3.8144,-5.6765 0.0377,0.0465 -4.9474,-5.086 0.0416,0.0363 -5.8538,-4.29846 0.0465,0.0286 L 14.0495,3.18478 14.103,3.20631 7.16194,1.08402 3.60317,0.525635 -0.0177213,0.332862 Z M 41.1958,25.0188 38.6732,33.6 33.3219,26.4332 Z"
         fill="#454545"
         transform="matrix(0,1,1,0,-143.5,-94.5001)"
         id="path4" />
      <path
         d="M 0.00736292,-0.333252 11.3923,-0.0817123 l 11.31,0.7338303 11.1314,1.183942 10.8639,1.60192 10.5076,1.9878 10.0626,2.34165 9.5288,2.66357 8.9064,2.9535 8.1954,3.2118 7.3961,3.4387 6.5085,3.6345 5.533,3.8 4.47,3.9369 c 0.014,0.012 0.026,0.025 0.038,0.039 l 3.28,4.0085 c 0.023,0.0281 0.041,0.0598 0.054,0.0938 l 0.689,1.8314 -0.624,0.2348 -0.689,-1.8315 0.054,0.0938 -3.28,-4.0086 0.037,0.0389 -4.406,-3.8875 -5.481,-3.7675 -6.4646,-3.612 L 91.6551,17.217 83.4931,14.0173 74.6171,11.073 65.1167,8.41674 55.0813,6.08082 44.6003,4.09751 33.7632,2.49899 22.6591,1.31738 11.3775,0.584792 -0.00736292,0.333252 Z M 122.954,35.002 l -1.357,8.8407 -6.258,-6.3902 z"
         fill="#454545"
         transform="matrix(0,1,1,0,-237.5,-213.5)"
         id="path5" />
      <path
         d="m -30.5001,-16.4084 c 0,-8.8872 7.2045,-16.0917 16.0917,-16.0917 H 116.408 c 8.888,0 16.092,7.2045 16.092,16.0917 v 85.8168 c 0,8.8872 -7.204,16.0917 -16.092,16.0917 H -14.4084 c -8.8872,0 -16.0917,-7.2045 -16.0917,-16.0917 z"
         stroke="#7b7b7b"
         stroke-width="0.666667"
         stroke-miterlimit="8"
         fill="#f2f2f2"
         fill-rule="evenodd"
         id="path6" />
      <text
         font-family="'Calibri Light', 'Calibri Light_MSFontService', sans-serif"
         font-weight="300"
         font-size="13px"
         transform="translate(1.64887,-16)"
         id="text6">NRS (entity name)</text>
      <path
         d="m -19.5001,2.66673 c 0,-2.301251 1.8656,-4.16678 4.1668,-4.16678 h 58.6666 c 2.3012,0 4.1668,1.865529 4.1668,4.16678 V 19.3333 c 0,2.3012 -1.8656,4.1667 -4.1668,4.1667 h -58.6666 c -2.3012,0 -4.1668,-1.8655 -4.1668,-4.1667 z"
         stroke="#cc00ff"
         stroke-width="0.666667"
         stroke-miterlimit="8"
         fill="#ffffff"
         fill-rule="evenodd"
         id="path7" />
      <text
         font-family="'Calibri Light', 'Calibri Light_MSFontService', sans-serif"
         font-weight="300"
         font-size="13px"
         transform="translate(-1.46346,14)"
         id="text7">Refer</text>
      <path
         d="m 47.5001,53.6668 c 0,-2.3012 1.8655,-4.1667 4.1667,-4.1667 h 58.6662 c 2.302,0 4.167,1.8655 4.167,4.1667 v 16.6665 c 0,2.3012 -1.865,4.1668 -4.167,4.1668 H 51.6668 c -2.3012,0 -4.1667,-1.8656 -4.1667,-4.1668 z"
         stroke="#008080"
         stroke-width="0.666667"
         stroke-miterlimit="8"
         fill="#ffffff"
         fill-rule="evenodd"
         id="path8" />
      <text
         font-family="'Calibri Light', 'Calibri Light_MSFontService', sans-serif"
         font-weight="300"
         font-size="13px"
         transform="translate(70.5699,65)"
         id="text8">Call</text>
      <path
         d="M 0.0177213,-0.332862 3.63861,-0.140088 7.26496,0.425358 14.2976,2.56869 c 0.0184,0.00562 0.0363,0.01282 0.0535,0.02153 l 6.5336,3.31406 c 0.0163,0.00825 0.0318,0.01781 0.0465,0.0286 l 5.8539,4.29842 c 0.0149,0.0109 0.0288,0.0231 0.0416,0.0363 l 4.9475,5.0859 c 0.0139,0.0144 0.0266,0.0299 0.0377,0.0465 l 3.8145,5.6766 c 0.0094,0.014 0.0177,0.0287 0.0249,0.0439 l 1.4115,2.9983 c 0.0086,0.0183 0.0156,0.0373 0.0207,0.0568 l 0.7334,2.7777 -0.6446,0.1701 -0.7334,-2.7776 0.0207,0.0569 -1.4115,-2.9982 0.0249,0.0439 -3.8144,-5.6765 0.0377,0.0465 -4.9474,-5.086 0.0416,0.0363 -5.8538,-4.29846 0.0465,0.0286 L 14.0495,3.18478 14.103,3.20631 7.16194,1.08402 3.60317,0.525635 -0.0177213,0.332862 Z M 41.1958,25.0188 38.6732,33.6 33.3219,26.4332 Z"
         fill="#454545"
         transform="matrix(0,1,1,0,13.5001,23.5001)"
         id="path9" />
      <path
         d="m -37.4038,27.1134 -8.5977,-1.0174 -7.5094,-1.6131 -7.3239,-2.1819 -7.083,-2.7075 -6.7824,-3.1892 -6.4223,-3.6275 -6.0024,-4.02237 -5.523,-4.37384 -4.9836,-4.682205 -4.3845,-4.947625 -3.725,-5.17026 -3.006,-5.3503 -2.225,-5.4876 c -0.006,-0.0147 -0.011,-0.0298 -0.014,-0.0452 l -1.368,-5.5369 c -0.005,-0.0171 -0.007,-0.0345 -0.009,-0.052 l -0.469,-5.5806 0.664,-0.0559 0.469,5.5806 -0.008,-0.052 1.368,5.5369 -0.015,-0.0452 2.188,5.4116 2.966,5.287 3.683,5.11781 4.342,4.903883 4.9411,4.645437 5.4802,4.34263 5.9592,3.99564 6.378,3.6047 6.7368,3.1698 7.0353,2.6913 7.2737,2.169 7.4476,1.6028 8.5976,1.0175 z m -1.0998,-4.3906 7.7979,4.3809 -8.1835,3.6098 z"
         fill="#454545"
         id="path10" />
      <path
         d="m 287.899,266.693 -3.367,-0.093 -10.03,-0.825 -9.99,-1.353 -9.931,-1.863 -9.851,-2.357 -9.753,-2.832 -9.634,-3.289 -9.497,-3.73 -9.34,-4.152 -9.162,-4.557 -8.966,-4.944 -8.75,-5.314 -16.768,-11.662 -15.674,-12.934 -14.42,-14.061 -6.694,-7.414 -6.317,-7.639 -5.925,-7.85 -5.513,-8.045 -5.082,-8.221 -4.6299,-8.38 -4.1595,-8.522 -3.669,-8.646 -3.1588,-8.753 -2.629,-8.841 -2.0793,-8.913 -1.5099,-8.9669 -0.9208,-9.003 -0.3119,-9.0216 0.6663,-0.0229 0.3088,8.9767 0.915,8.9602 1.5018,8.9265 2.0691,8.874 2.617,8.805 3.1454,8.718 3.6545,8.614 4.1439,8.492 4.6143,8.352 5.064,8.195 5.495,8.02 5.906,7.827 6.298,7.617 6.666,7.384 14.378,14.024 15.631,12.9 16.733,11.64 8.726,5.3 8.941,4.931 9.136,4.545 9.313,4.141 9.468,3.719 9.605,3.28 9.722,2.824 9.819,2.35 9.897,1.858 9.956,1.349 9.993,0.822 3.368,0.094 z m -1.213,-4.369 7.886,4.221 -8.107,3.776 z"
         fill="#454545"
         id="path11" />
      <path
         d="m -237.5,319.167 h 713.212 v 0.666 H -237.5 Z m 713.21,0.333 -2.666,-4 8,4 -8,4 z"
         id="path12" />
      <path
         d="m 132.5,101.092 c 0,-8.0591 6.533,-14.5919 14.592,-14.5919 h 132.817 c 8.058,0 14.591,6.5328 14.591,14.5919 v 77.817 c 0,8.058 -6.533,14.591 -14.591,14.591 H 147.092 c -8.059,0 -14.592,-6.533 -14.592,-14.591 z"
         stroke="#7b7b7b"
         stroke-width="0.666667"
         stroke-miterlimit="8"
         fill="#f2f2f2"
         fill-rule="evenodd"
         id="path13" />
      <text
         font-family="'Calibri Light', 'Calibri Light_MSFontService', sans-serif"
         font-weight="300"
         font-size="13px"
         transform="translate(180.214,102)"
         id="text13">TCV (object)</text>
      <path
         d="m 180.5,120.667 c 0,-2.301 1.866,-4.167 4.167,-4.167 h 58.666 c 2.302,0 4.167,1.866 4.167,4.167 v 16.666 c 0,2.302 -1.865,4.167 -4.167,4.167 h -58.666 c -2.301,0 -4.167,-1.865 -4.167,-4.167 z"
         stroke="#000000"
         stroke-width="0.666667"
         stroke-miterlimit="8"
         fill="#ffffff"
         fill-rule="evenodd"
         id="path14" />
      <text
         font-family="'Calibri Light', 'Calibri Light_MSFontService', sans-serif"
         font-weight="300"
         font-size="13px"
         transform="translate(201.821,132)"
         id="text14">Cast</text>
      <path
         d="m 180.5,160.667 c 0,-2.301 1.866,-4.167 4.167,-4.167 h 58.666 c 2.302,0 4.167,1.866 4.167,4.167 v 16.666 c 0,2.302 -1.865,4.167 -4.167,4.167 h -58.666 c -2.301,0 -4.167,-1.865 -4.167,-4.167 z"
         stroke="#000000"
         stroke-width="0.666667"
         stroke-miterlimit="8"
         fill="#ffffff"
         fill-rule="evenodd"
         id="path15" />
      <text
         font-family="'Calibri Light', 'Calibri Light_MSFontService', sans-serif"
         font-weight="300"
         font-size="13px"
         transform="translate(194.405,173)"
         id="text15">Coerce</text>
      <path
         d="m 294.5,209.228 c 0,-8.134 6.594,-14.728 14.728,-14.728 h 133.544 c 8.134,0 14.728,6.594 14.728,14.728 v 78.544 c 0,8.134 -6.594,14.728 -14.728,14.728 H 309.228 c -8.134,0 -14.728,-6.594 -14.728,-14.728 z"
         stroke="#7b7b7b"
         stroke-width="0.666667"
         stroke-miterlimit="8"
         fill="#f2f2f2"
         fill-rule="evenodd"
         id="path16" />
      <text
         font-family="'Calibri Light', 'Calibri Light_MSFontService', sans-serif"
         font-weight="300"
         font-size="13px"
         transform="translate(340.903,211)"
         id="text16">TCM (object)</text>
      <path
         d="m 342.5,229.667 c 0,-2.301 1.866,-4.167 4.167,-4.167 h 58.666 c 2.302,0 4.167,1.866 4.167,4.167 v 16.666 c 0,2.302 -1.865,4.167 -4.167,4.167 h -58.666 c -2.301,0 -4.167,-1.865 -4.167,-4.167 z"
         stroke="#000000"
         stroke-width="0.666667"
         stroke-miterlimit="8"
         fill="#ffffff"
         fill-rule="evenodd"
         id="path17" />
      <text
         font-family="'Calibri Light', 'Calibri Light_MSFontService', sans-serif"
         font-weight="300"
         font-size="13px"
         transform="translate(350.713,242)"
         id="text17">Calculate</text>
      <path
         d="m 342.5,270.667 c 0,-2.301 1.866,-4.167 4.167,-4.167 h 58.666 c 2.302,0 4.167,1.866 4.167,4.167 v 16.666 c 0,2.302 -1.865,4.167 -4.167,4.167 h -58.666 c -2.301,0 -4.167,-1.865 -4.167,-4.167 z"
         stroke="#000000"
         stroke-width="0.666667"
         stroke-miterlimit="8"
         fill="#ffffff"
         fill-rule="evenodd"
         id="path18" />
      <text
         font-family="'Calibri Light', 'Calibri Light_MSFontService', sans-serif"
         font-weight="300"
         font-size="13px"
         transform="translate(352.463,282)"
         id="text18">Evaluate</text>
      <path
         d="m 173.568,168.925 -8.787,-0.212 -15.437,-1.104 -15.376,-1.811 -15.285,-2.495 -15.164,-3.155 L 88.5062,156.357 73.6754,151.953 59.0562,146.96 44.679,141.401 30.5738,135.3 16.7708,128.681 3.30016,121.566 -9.80798,113.98 -22.5235,105.946 -34.8161,97.4872 -46.6558,88.6278 -58.0124,79.391 l -10.8432,-9.5907 -10.2997,-9.9212 -9.726,-10.2281 -9.1221,-10.5115 -8.4876,-10.7716 -7.824,-11.0081 -7.129,-11.22128 -6.405,-11.41092 -5.649,-11.5771 -4.863,-11.7199 -4.048,-11.8392 -3.202,-11.9349 -2.325,-12.0071 -1.417,-12.0557 -0.48,-12.0805 0.666,-0.0265 0.476,12.0292 1.41,12.0068 2.314,11.9611 3.189,11.8919 4.032,11.7994 4.847,11.683 5.632,11.54324 6.385,11.3797 7.11,11.19256 7.804,10.9817 8.4681,10.7472 9.1017,10.4891 9.7054,10.2074 10.2789,9.9019 10.8222,9.5729 11.3353,9.2202 11.8182,8.844 12.2708,8.444 12.69336,8.021 13.08555,7.573 13.44759,7.103 13.7794,6.609 14.0809,6.091 14.3523,5.55 14.5935,4.985 14.8043,4.397 14.9845,3.785 15.136,3.149 15.256,2.491 15.345,1.808 15.406,1.102 8.787,0.212 z m -1.229,-4.365 7.902,4.192 -8.095,3.806 z"
         fill="#008080"
         id="path19" />
      <path
         d="m 287.159,265.586 -8.34,-1.417 -7.39,-2.283 -7.204,-3.086 -6.965,-3.829 -6.668,-4.51 -6.312,-5.127 -5.897,-5.685 -5.425,-6.179 -4.893,-6.612 -4.303,-6.985 -3.654,-7.295 -2.945,-7.544 -2.179,-7.732 -1.351,-7.859 -0.466,-7.923 0.666,-0.039 0.457,7.849 1.336,7.791 2.158,7.67 2.92,7.489 3.626,7.244 4.271,6.937 4.858,6.57 5.386,6.139 5.856,5.646 6.264,5.093 6.616,4.478 6.906,3.8 7.139,3.062 7.305,2.262 8.34,1.418 z m -0.989,-4.413 7.695,4.559 -8.264,3.421 z"
         fill="#454545"
         id="path20" />
      <path
         d="m 173.427,129.09 -8.937,-0.346 -15.501,-1.767 -15.256,-2.85 -14.889,-3.856 -14.4,-4.785 -13.7892,-5.637 -13.0568,-6.411 -12.2028,-7.1078 -11.227,-7.7288 -10.1294,-8.2727 -8.9098,-8.7402 -7.5683,-9.1317 -3.2486,-4.6971 -2.8612,-4.7594 -2.4643,-4.8195 -2.0517,-4.8702 -1.6236,-4.9113 -1.1796,-4.9427 -0.72,-4.9644 -0.2446,-4.9759 0.6659,-0.0325 0.2385,4.9129 0.7087,4.9053 1.1642,4.8882 1.6049,4.8617 2.0309,4.8255 2.4421,4.7795 2.8382,4.7237 3.2136,4.6509 7.5218,9.0811 8.8647,8.6998 10.0857,8.2399 11.1845,7.7019 12.161,7.0858 13.0153,6.392 13.7469,5.621 14.357,4.772 14.844,3.847 15.209,2.843 15.452,1.762 8.937,0.347 z m -1.164,-4.381 7.838,4.307 -8.149,3.687 z"
         fill="#0000ff"
         id="path21" />
      <path
         d="m -102.829,-107.732 15.6231,0.237 22.1246,0.986 21.7754,1.592 21.2523,2.153 20.55486,2.671 19.68334,3.1471 18.6378,3.5792 17.4182,3.9684 8.2006,2.1175 7.8276,2.1981 7.4359,2.2741 7.0224,2.3446 6.5875,2.4099 6.1308,2.4701 5.6526,2.525 5.153,2.5749 4.632,2.62 4.09,2.6605 3.526,2.6968 2.941,2.7296 2.335,2.7599 c 0.011,0.0131 0.021,0.027 0.03,0.0416 l 1.674,2.7469 c 0.011,0.0183 0.021,0.0377 0.028,0.0578 l 1.021,2.7577 c 0.009,0.024 0.015,0.049 0.018,0.0744 l 0.345,2.7631 c 0.003,0.023 0.004,0.0462 0.002,0.0693 l -0.466,5.5209 c -0.002,0.0176 -0.005,0.035 -0.009,0.0521 l -1.358,5.4777 c -0.004,0.0154 -0.009,0.0305 -0.015,0.0453 l -2.19,5.3912 -2.982,5.2998 -3.698,5.1206 -4.353,4.8992 -4.948,4.6358 -5.483,4.32987 -5.959,3.98162 -6.3756,3.590644 -6.7328,3.156866 -7.0309,2.68009 -7.2699,2.16025 -7.4495,1.59714 -7.5701,0.99072 -7.6313,0.3408 -0.0297,-0.666 7.5746,-0.33586 7.5168,-0.98152 7.3994,-1.58436 7.2223,-2.14414 6.9854,-2.66077 6.6887,-3.134133 6.3323,-3.564107 5.9163,-3.95051 5.44,-4.2932 4.906,-4.5921 4.31,-4.8468 3.658,-5.0573 2.945,-5.2235 2.191,-5.3913 -0.015,0.0453 1.358,-5.4777 -0.009,0.0522 0.466,-5.5208 0.002,0.0693 -0.345,-2.7631 0.018,0.0744 -1.021,-2.7577 0.028,0.0578 -1.675,-2.7469 0.03,0.0416 -2.278,-2.7016 -2.893,-2.6886 -3.485,-2.6675 -4.054,-2.639 -4.602,-2.6039 -5.127,-2.5626 -5.6297,-2.5154 -6.1108,-2.4623 -6.5695,-2.4037 -7.0063,-2.3394 -7.4211,-2.2697 -7.8141,-2.1945 -8.182,-2.113 -17.3958,-3.9637 -18.6173,-3.5756 -19.66407,-3.1441 -20.53613,-2.6693 -21.2337,-2.151 -21.7565,-1.591 -22.105,-0.985 -15.623,-0.238 z m 1.267,4.353 -7.938,-4.121 8.06,-3.878 z"
         fill="#9900ff"
         id="path22" />
      <text
         font-family="'Calibri Light', 'Calibri Light_MSFontService', sans-serif"
         font-weight="300"
         font-size="13px"
         transform="translate(21.5054,103)"
         id="text22">Object</text>
      <text
         font-family="'Calibri Light', 'Calibri Light_MSFontService', sans-serif"
         font-weight="300"
         font-size="13px"
         transform="translate(24.8775,42)"
         id="text23">function</text>
      <text
         font-family="'Calibri Light', 'Calibri Light_MSFontService', sans-serif"
         font-weight="300"
         font-size="13px"
         transform="translate(140.992,-162)"
         id="text24">Argument / Return /</text>
      <text
         font-family="'Calibri Light', 'Calibri Light_MSFontService', sans-serif"
         font-weight="300"
         font-size="13px"
         transform="translate(140.992,-146)"
         id="text25">(.) Object</text>
      <text
         font-family="'Calibri Light', 'Calibri Light_MSFontService', sans-serif"
         font-weight="300"
         font-size="13px"
         transform="translate(244.814,17)"
         id="text26">Subtype Object</text>
      <path
         d="m 54.1698,10.2366 28.6664,0.3006 35.0628,1.08 34.51,1.7423 33.681,2.3572 32.575,2.9248 15.789,1.6607 15.407,1.7848 14.992,1.903 14.543,2.0154 14.06,2.1219 13.542,2.2225 12.99,2.3172 12.402,2.406 11.781,2.489 11.125,2.566 10.435,2.6373 9.711,2.7027 8.951,2.7624 8.159,2.8164 7.331,2.8649 6.47,2.9081 5.576,2.9465 4.648,2.9808 3.688,3.0129 c 0.014,0.0114 0.027,0.0239 0.039,0.0374 l 2.654,3.0081 c 0.017,0.0193 0.032,0.0405 0.044,0.0631 l 1.618,3.0199 c 0.017,0.0307 0.028,0.0639 0.034,0.0981 l 0.547,3.0259 c 0.005,0.0263 0.007,0.0532 0.005,0.0799 l -0.188,3.0259 -0.561,3.0596 c -0.003,0.018 -0.008,0.0357 -0.014,0.053 l -2.169,5.9984 c -0.007,0.0196 -0.016,0.0386 -0.027,0.0566 l -3.499,5.9038 c -0.009,0.0146 -0.018,0.0286 -0.029,0.0417 l -4.734,5.762 -5.902,5.6026 -6.945,5.359 -7.892,5.069 -8.746,4.734 -9.503,4.353 -10.168,3.925 -10.736,3.451 -11.212,2.93 -11.591,2.361 -11.877,1.745 -12.067,1.082 -12.163,0.372 -0.021,-0.667 12.124,-0.369 12.03,-1.078 11.841,-1.738 11.556,-2.353 11.176,-2.919 10.7,-3.438 10.13,-3.91 9.464,-4.333 8.702,-4.709 7.846,-5.036 6.893,-5.314 5.846,-5.5429 4.734,-5.7619 -0.03,0.0416 3.499,-5.9038 -0.026,0.0566 2.169,-5.9985 -0.015,0.053 0.552,-2.9802 0.188,-3.0258 0.004,0.08 -0.547,-3.0259 0.035,0.0982 -1.618,-3.0199 0.043,0.0631 -2.654,-3.0081 0.039,0.0375 -3.626,-2.9678 -4.599,-2.9525 -5.538,-2.9278 -6.44,-2.8953 -7.306,-2.8556 -8.137,-2.8096 -8.934,-2.7572 -9.695,-2.6986 -10.421,-2.634 -11.114,-2.5634 -11.77,-2.4867 -12.392,-2.4042 -12.981,-2.3156 -13.533,-2.2212 -14.052,-2.1207 -14.536,-2.0144 -14.985,-1.9022 -15.4,-1.7839 -15.778,-1.6598 -32.562,-2.9238 -33.668,-2.3564 -34.497,-1.7417 -35.0498,-1.0798 -28.6663,-0.3005 z m 1.2879,4.3471 -7.9576,-4.0836 8.0414,-3.91595 z"
         fill="#454545"
         id="path26" />
      <text
         font-family="'Calibri Light', 'Calibri Light_MSFontService', sans-serif"
         font-weight="300"
         font-size="13px"
         transform="translate(215.137,58)"
         id="text27">Argument</text>
      <text
         font-family="'Calibri Light', 'Calibri Light_MSFontService', sans-serif"
         font-weight="300"
         font-size="13px"
         transform="translate(490.129,322)"
         id="text28">Type System</text>
      <text
         font-family="'Calibri Light', 'Calibri Light_MSFontService', sans-serif"
         font-weight="300"
         font-size="13px"
         transform="translate(490.129,338)"
         id="text29">Timeline</text>
      <path
         d="m -6.52067,1.25087 -4.11363,1.03253 0.048,-0.01599 -3.5392,1.48705 -3.4829,1.86702 -3.4518,2.24547 -6.7896,5.57975 -6.5653,6.9224 -6.2935,8.1611 -5.9633,9.2876 -5.5753,10.3013 -5.1303,11.2021 -4.6285,11.9901 -4.0703,12.6652 -3.4559,13.2276 -2.7852,13.6769 -2.0585,14.014 -1.2759,14.239 -0.4372,14.349 0.187,7.173 0.5522,7.161 2.1545,14.233 3.4738,14.002 4.6998,13.667 5.8317,13.219 6.8691,12.659 7.8121,11.985 8.6606,11.201 9.4144,10.301 10.0733,9.291 10.6372,8.168 11.10608,6.932 11.47982,5.585 5.8414,2.248 5.9075,1.874 5.9534,1.481 5.9876,1.075 6.01,0.655 6.0207,0.221 12.0573,-0.283 11.9679,-0.824 11.7794,-1.328 11.4964,-1.797 11.1188,-2.23 10.646,-2.626 10.078,-2.987 9.416,-3.31 8.659,-3.597 7.807,-3.848 6.858,-4.061 5.816,-4.237 4.677,-4.372 -0.037,0.04 3.48,-4.507 -0.038,0.062 2.158,-4.579 -0.023,0.064 0.553,-2.305 -0.008,0.051 0.187,-2.31 0.665,0.054 -0.187,2.31 c -0.002,0.017 -0.005,0.034 -0.009,0.05 l -0.553,2.306 c -0.005,0.022 -0.013,0.043 -0.022,0.064 l -2.157,4.579 c -0.011,0.022 -0.023,0.042 -0.038,0.061 l -3.48,4.507 c -0.011,0.014 -0.023,0.028 -0.036,0.04 l -4.74,4.424 -5.868,4.271 -6.904,4.086 -7.845,3.865 -8.694,3.611 -9.447,3.321 -10.109,2.994 -10.674,2.633 -11.1468,2.234 -11.5247,1.801 -11.8084,1.331 -11.998,0.825 -12.0975,0.283 -6.0684,-0.224 -6.0556,-0.662 -6.0307,-1.084 -5.994,-1.493 -5.9455,-1.887 -5.8935,-2.271 -11.54118,-5.618 -11.15909,-6.969 -10.68323,-8.207 -10.1134,-9.331 -9.4496,-10.344 -8.6917,-11.244 -7.8396,-12.031 -6.8931,-12.708 -5.8521,-13.272 -4.7164,-13.723 -3.486,-14.062 -2.16,-14.282 -0.554,-7.194 -0.1869,-7.211 0.4396,-14.389 1.2803,-14.276 2.0648,-14.05 2.7935,-13.7125 3.4662,-13.263 4.0831,-12.7013 4.6443,-12.0276 5.1501,-11.2419 5.6007,-10.3442 5.9964,-9.3345 6.3377,-8.2128 6.6258,-6.9787 6.8493,-5.62348 3.5005,-2.27423 3.5394,-1.89394 3.5392,-1.48706 C -10.829,1.64625 -10.813,1.64091 -10.7966,1.6368 L -6.68297,0.604263 Z M -8.47873,-2.84801 0,0 -7.36565,5.07417 Z"
         fill="#008080"
         transform="matrix(0,1,1,0,-143.5,-119.5)"
         id="path29" />
      <path
         d="m 121.17,61.2296 17.067,0.1609 23.555,0.6522 23.183,1.0522 22.626,1.4236 21.883,1.7665 20.955,2.0807 19.842,2.3665 18.542,2.6238 8.729,1.3998 8.332,1.4532 7.915,1.5033 7.475,1.5499 7.011,1.593 6.524,1.6326 6.016,1.6688 5.482,1.7017 4.928,1.7312 4.351,1.7577 3.751,1.7818 3.129,1.8039 2.487,1.826 c 0.015,0.0106 0.028,0.0223 0.041,0.0351 l 1.783,1.8166 c 0.018,0.0189 0.035,0.04 0.048,0.0628 l 1.087,1.8238 c 0.019,0.0324 0.033,0.0679 0.041,0.1049 l 0.367,1.8269 c 0.007,0.035 0.008,0.07 0.004,0.104 l -0.419,3.651 c -0.002,0.023 -0.007,0.046 -0.015,0.069 l -1.221,3.622 c -0.006,0.019 -0.014,0.037 -0.024,0.055 l -1.97,3.565 c -0.008,0.015 -0.017,0.029 -0.027,0.042 l -2.665,3.479 -3.334,3.397 -3.921,3.245 -4.453,3.069 -4.933,2.865 -5.36,2.634 -5.733,2.375 -12.365,3.856 -6.544,1.431 -6.696,1.056 -6.803,0.654 -6.858,0.225 -0.022,-0.666 6.816,-0.222 6.764,-0.65 6.657,-1.048 6.488,-1.416 12.308,-3.836 5.694,-2.357 5.319,-2.612 4.89,-2.838 4.406,-3.033 3.87,-3.2 3.28,-3.334 2.666,-3.48 -0.028,0.042 1.97,-3.566 -0.024,0.055 1.221,-3.622 -0.015,0.068 0.419,-3.651 0.004,0.104 -0.367,-1.8275 0.04,0.105 -1.086,-1.8238 0.048,0.0629 -1.783,-1.8166 0.04,0.0351 -2.425,-1.7857 -3.083,-1.7793 -3.714,-1.7658 -4.322,-1.7469 -4.904,-1.7234 -5.464,-1.696 -5.998,-1.6644 -6.511,-1.6293 -6.999,-1.5903 -7.463,-1.5478 -7.905,-1.5015 -8.324,-1.4517 -8.716,-1.3979 -18.528,-2.6219 -19.829,-2.3651 -20.943,-2.0796 -21.871,-1.7656 -22.615,-1.423 -23.171,-1.0518 -23.542,-0.652 -17.068,-0.1609 z m 1.292,4.3457 -7.962,-4.0752 8.037,-3.9245 z"
         fill="#0000ff"
         id="path30" />
      <path
         d="m -149.5,-87.8656 c 0,1.6163 -5.995,3.2327 -11.99,3.2327 -5.995,0 -11.99,-10.0148 -11.99,-20.0301 0,-10.014 7.565,-20.029 15.131,-20.029 7.566,0 15.131,2.596 15.131,5.192"
         stroke="#008080"
         stroke-width="0.666667"
         stroke-linejoin="round"
         stroke-miterlimit="10"
         fill="none"
         fill-rule="evenodd"
         id="path31" />
      <text
         font-family="'Calibri Light', 'Calibri Light_MSFontService', sans-serif"
         font-weight="300"
         font-size="13px"
         transform="translate(-84.3049,148)"
         id="text31">Argument / Return /</text>
      <text
         font-family="'Calibri Light', 'Calibri Light_MSFontService', sans-serif"
         font-weight="300"
         font-size="13px"
         transform="translate(-24.4715,164)"
         id="text32">(.) Object</text>
      <text
         font-family="'Calibri Light', 'Calibri Light_MSFontService', sans-serif"
         font-weight="300"
         font-size="13px"
         transform="translate(25.2063,-118)"
         id="text33">Type/</text>
      <text
         font-family="'Calibri Light', 'Calibri Light_MSFontService', sans-serif"
         font-weight="300"
         font-size="13px"
         transform="translate(25.2063,-102)"
         id="text34">Namespace</text>
      <path
         d="m 301.171,144.28 10.88,0.184 17.419,0.868 17.144,1.401 16.733,1.894 16.183,2.351 15.497,2.77 14.675,3.15 13.714,3.492 12.618,3.798 11.385,4.065 5.193,2.123 4.829,2.174 4.452,2.223 4.06,2.268 3.65,2.307 3.223,2.344 2.78,2.376 2.32,2.406 1.841,2.433 c 0.01,0.013 0.019,0.027 0.027,0.041 l 1.318,2.417 c 0.01,0.017 0.018,0.036 0.024,0.055 l 0.803,2.426 c 0.008,0.022 0.013,0.045 0.015,0.068 l 0.272,2.431 c 0.002,0.019 0.003,0.037 0.002,0.056 l -0.54,9.677 -1.527,9.408 -2.374,8.799 -3.082,7.887 -1.767,3.518 -1.89,3.169 -1.998,2.791 -2.092,2.376 -2.171,1.923 c -0.013,0.011 -0.027,0.022 -0.042,0.031 l -2.194,1.4 c -0.018,0.012 -0.038,0.022 -0.058,0.029 l -2.23,0.868 c -0.025,0.01 -0.051,0.016 -0.077,0.02 l -2.247,0.298 -0.088,-0.661 2.247,-0.298 -0.077,0.02 2.23,-0.868 -0.059,0.03 2.195,-1.4 -0.042,0.031 2.113,-1.864 2.05,-2.323 1.968,-2.745 1.866,-3.126 1.742,-3.461 3.059,-7.819 2.36,-8.732 1.52,-9.338 0.539,-9.677 10e-4,0.055 -0.271,-2.431 0.015,0.068 -0.804,-2.427 0.024,0.055 -1.318,-2.417 0.026,0.042 -1.789,-2.373 -2.273,-2.361 -2.739,-2.344 -3.187,-2.319 -3.619,-2.289 -4.033,-2.253 -4.428,-2.212 -4.808,-2.165 -5.164,-2.113 -11.353,-4.054 -12.59,-3.79 -13.69,-3.487 -14.652,-3.145 -15.476,-2.766 -16.162,-2.348 -16.712,-1.893 -17.123,-1.399 -17.397,-0.867 -10.88,-0.185 z m 1.26,4.355 -7.931,-4.135 8.067,-3.864 z"
         id="path34" />
      <text
         fill="#1d2d35"
         font-family="'Calibri Light', 'Calibri Light_MSFontService', sans-serif"
         font-weight="300"
         font-size="13px"
         transform="translate(73.9153,-230)"
         id="text35">BF Data Type (_DAT) Bugs M</text>
      <text
         font-family="'Calibri Light', 'Calibri Light_MSFontService', sans-serif"
         font-weight="300"
         font-size="13px"
         transform="translate(227.249,-230)"
         id="text36">odel</text>
      <text
         fill="#7f7f7f"
         font-family="'Calibri Light', 'Calibri Light_MSFontService', sans-serif"
         font-weight="300"
         font-size="12px"
         transform="translate(-235.911,301)"
         id="text37">BF, I. Bojanova</text>
    </g>
  </g>
</svg>
