<?xml version="1.0" encoding="UTF-8" standalone="no"?>
<!-- Created with Inkscape (http://www.inkscape.org/) -->

<svg
   width="232.06517mm"
   height="165.65462mm"
   viewBox="0 0 232.06517 165.65462"
   version="1.1"
   id="svg1"
   inkscape:version="1.3.2 (091e20e, 2023-11-25, custom)"
   sodipodi:docname="_DAT Model.svg"
   xmlns:inkscape="http://www.inkscape.org/namespaces/inkscape"
   xmlns:sodipodi="http://sodipodi.sourceforge.net/DTD/sodipodi-0.dtd"
   xmlns="http://www.w3.org/2000/svg"
   xmlns:svg="http://www.w3.org/2000/svg">
  <sodipodi:namedview
     id="namedview1"
     pagecolor="#ffffff"
     bordercolor="#000000"
     borderopacity="0.25"
     inkscape:showpageshadow="2"
     inkscape:pageopacity="0.0"
     inkscape:pagecheckerboard="0"
     inkscape:deskcolor="#d1d1d1"
     inkscape:document-units="mm"
     inkscape:zoom="1.0307169"
     inkscape:cx="440.95523"
     inkscape:cy="312.88902"
     inkscape:window-width="2560"
     inkscape:window-height="1377"
     inkscape:window-x="-8"
     inkscape:window-y="859"
     inkscape:window-maximized="1"
     inkscape:current-layer="layer1" />
  <defs
     id="defs1" />
  <g
     inkscape:label="Layer 1"
     inkscape:groupmode="layer"
     id="layer1"
     transform="translate(11.522152,-65.619772)">
    <g
       transform="matrix(0.26458333,0,0,0.26458333,74.083333,141.81667)"
       id="g43">
      <path
         d="m -193.5,-135.272 c 0,-8.963 7.265,-16.228 16.228,-16.228 h 130.544 c 8.9624,0 16.2279,7.265 16.2279,16.228 v 86.544 c 0,8.9624 -7.2655,16.2279 -16.2279,16.2279 h -130.544 c -8.963,0 -16.228,-7.2655 -16.228,-16.2279 z"
         stroke="#7b7b7b"
         stroke-width="0.666667"
         stroke-miterlimit="8"
         fill="#f2f2f2"
         fill-rule="evenodd"
         id="path1" />
      <text
         font-family="'Calibri Light', 'Calibri Light_MSFontService', sans-serif"
         font-weight="300"
         font-size="13px"
         transform="translate(-133.907,-135)"
         id="text1">DCL (entity)</text>
      <path
         d="m -176.5,-115.333 c 0,-2.302 1.865,-4.167 4.167,-4.167 h 58.666 c 2.301,0 4.167,1.865 4.167,4.167 v 16.6662 c 0,2.3012 -1.866,4.1667 -4.167,4.1667 h -58.666 c -2.302,0 -4.167,-1.8655 -4.167,-4.1667 z"
         stroke="#000000"
         stroke-width="0.666667"
         stroke-miterlimit="8"
         fill="#ffffff"
         fill-rule="evenodd"
         id="path2" />
      <text
         font-family="'Calibri Light', 'Calibri Light_MSFontService', sans-serif"
         font-weight="300"
         font-size="13px"
         transform="translate(-164.321,-104)"
         id="text2">Declare</text>
      <path
         d="m -109.5,-64.3333 c 0,-2.3012 1.865,-4.1668 4.167,-4.1668 h 58.6662 c 2.3012,0 4.1667,1.8656 4.1667,4.1668 v 16.6665 c 0,2.3012 -1.8655,4.1667 -4.1667,4.1667 h -58.6662 c -2.302,0 -4.167,-1.8655 -4.167,-4.1667 z"
         stroke="#000000"
         stroke-width="0.666667"
         stroke-miterlimit="8"
         fill="#ffffff"
         fill-rule="evenodd"
         id="path3" />
      <text
         font-family="'Calibri Light', 'Calibri Light_MSFontService', sans-serif"
         font-weight="300"
         font-size="13px"
         transform="translate(-94.2872,-53)"
         id="text3">Define</text>
      <path
         d="M 0.0177213,-0.332862 3.63861,-0.140088 7.26496,0.425358 14.2976,2.56869 c 0.0184,0.00562 0.0363,0.01282 0.0535,0.02153 l 6.5336,3.31406 c 0.0163,0.00825 0.0318,0.01781 0.0465,0.0286 l 5.8539,4.29842 c 0.0149,0.0109 0.0288,0.0231 0.0416,0.0363 l 4.9475,5.0859 c 0.0139,0.0144 0.0266,0.0299 0.0377,0.0465 l 3.8145,5.6766 c 0.0094,0.014 0.0177,0.0287 0.0249,0.0439 l 1.4115,2.9983 c 0.0086,0.0183 0.0156,0.0373 0.0207,0.0568 l 0.7334,2.7777 -0.6446,0.1701 -0.7334,-2.7776 0.0207,0.0569 -1.4115,-2.9982 0.0249,0.0439 -3.8144,-5.6765 0.0377,0.0465 -4.9474,-5.086 0.0416,0.0363 -5.8538,-4.29846 0.0465,0.0286 L 14.0495,3.18478 14.103,3.20631 7.16194,1.08402 3.60317,0.525635 -0.0177213,0.332862 Z M 41.1958,25.0188 38.6732,33.6 33.3219,26.4332 Z"
         fill="#454545"
         transform="matrix(0,1,1,0,-143.5,-94.5001)"
         id="path4" />
      <path
         d="M 0.00736292,-0.333252 11.3923,-0.0817123 l 11.31,0.7338303 11.1314,1.183942 10.8639,1.60192 10.5076,1.9878 10.0626,2.34165 9.5288,2.66357 8.9064,2.9535 8.1954,3.2118 7.3961,3.4387 6.5085,3.6345 5.533,3.8 4.47,3.9369 c 0.014,0.012 0.026,0.025 0.038,0.039 l 3.28,4.0085 c 0.023,0.0281 0.041,0.0598 0.054,0.0938 l 0.689,1.8314 -0.624,0.2348 -0.689,-1.8315 0.054,0.0938 -3.28,-4.0086 0.037,0.0389 -4.406,-3.8875 -5.481,-3.7675 -6.4646,-3.612 L 91.6551,17.217 83.4931,14.0173 74.6171,11.073 65.1167,8.41674 55.0813,6.08082 44.6003,4.09751 33.7632,2.49899 22.6591,1.31738 11.3775,0.584792 -0.00736292,0.333252 Z M 122.954,35.002 l -1.357,8.8407 -6.258,-6.3902 z"
         fill="#454545"
         transform="matrix(0,1,1,0,-237.5,-213.5)"
         id="path5" />
      <path
         d="m -30.5001,-16.4084 c 0,-8.8872 7.2045,-16.0917 16.0917,-16.0917 H 116.408 c 8.888,0 16.092,7.2045 16.092,16.0917 v 85.8168 c 0,8.8872 -7.204,16.0917 -16.092,16.0917 H -14.4084 c -8.8872,0 -16.0917,-7.2045 -16.0917,-16.0917 z"
         stroke="#7b7b7b"
         stroke-width="0.666667"
         stroke-miterlimit="8"
         fill="#f2f2f2"
         fill-rule="evenodd"
         id="path6" />
      <text
         font-family="'Calibri Light', 'Calibri Light_MSFontService', sans-serif"
         font-weight="300"
         font-size="13px"
         transform="translate(1.64887,-16)"
         id="text6">NRS (entity name)</text>
      <path
         d="m -19.5001,2.66673 c 0,-2.301251 1.8656,-4.16678 4.1668,-4.16678 h 58.6666 c 2.3012,0 4.1668,1.865529 4.1668,4.16678 V 19.3333 c 0,2.3012 -1.8656,4.1667 -4.1668,4.1667 h -58.6666 c -2.3012,0 -4.1668,-1.8655 -4.1668,-4.1667 z"
         stroke="#cc00ff"
         stroke-width="0.666667"
         stroke-miterlimit="8"
         fill="#ffffff"
         fill-rule="evenodd"
         id="path7" />
      <text
         font-family="'Calibri Light', 'Calibri Light_MSFontService', sans-serif"
         font-weight="300"
         font-size="13px"
         transform="translate(-1.46346,14)"
         id="text7">Refer</text>
      <path
         d="m 47.5001,53.6668 c 0,-2.3012 1.8655,-4.1667 4.1667,-4.1667 h 58.6662 c 2.302,0 4.167,1.8655 4.167,4.1667 v 16.6665 c 0,2.3012 -1.865,4.1668 -4.167,4.1668 H 51.6668 c -2.3012,0 -4.1667,-1.8656 -4.1667,-4.1668 z"
         stroke="#008080"
         stroke-width="0.666667"
         stroke-miterlimit="8"
         fill="#ffffff"
         fill-rule="evenodd"
         id="path8" />
      <text
         font-family="'Calibri Light', 'Calibri Light_MSFontService', sans-serif"
         font-weight="300"
         font-size="13px"
         transform="translate(70.5699,65)"
         id="text8">Call</text>
      <path
         d="M 0.0177213,-0.332862 3.63861,-0.140088 7.26496,0.425358 14.2976,2.56869 c 0.0184,0.00562 0.0363,0.01282 0.0535,0.02153 l 6.5336,3.31406 c 0.0163,0.00825 0.0318,0.01781 0.0465,0.0286 l 5.8539,4.29842 c 0.0149,0.0109 0.0288,0.0231 0.0416,0.0363 l 4.9475,5.0859 c 0.0139,0.0144 0.0266,0.0299 0.0377,0.0465 l 3.8145,5.6766 c 0.0094,0.014 0.0177,0.0287 0.0249,0.0439 l 1.4115,2.9983 c 0.0086,0.0183 0.0156,0.0373 0.0207,0.0568 l 0.7334,2.7777 -0.6446,0.1701 -0.7334,-2.7776 0.0207,0.0569 -1.4115,-2.9982 0.0249,0.0439 -3.8144,-5.6765 0.0377,0.0465 -4.9474,-5.086 0.0416,0.0363 -5.8538,-4.29846 0.0465,0.0286 L 14.0495,3.18478 14.103,3.20631 7.16194,1.08402 3.60317,0.525635 -0.0177213,0.332862 Z M 41.1958,25.0188 38.6732,33.6 33.3219,26.4332 Z"
         fill="#454545"
         transform="matrix(0,1,1,0,13.5001,23.5001)"
         id="path9" />
      <path
         d="m -37.4038,27.1134 -8.5977,-1.0174 -7.5094,-1.6131 -7.3239,-2.1819 -7.083,-2.7075 -6.7824,-3.1892 -6.4223,-3.6275 -6.0024,-4.02237 -5.523,-4.37384 -4.9836,-4.682205 -4.3845,-4.947625 -3.725,-5.17026 -3.006,-5.3503 -2.225,-5.4876 c -0.006,-0.0147 -0.011,-0.0298 -0.014,-0.0452 l -1.368,-5.5369 c -0.005,-0.0171 -0.007,-0.0345 -0.009,-0.052 l -0.469,-5.5806 0.664,-0.0559 0.469,5.5806 -0.008,-0.052 1.368,5.5369 -0.015,-0.0452 2.188,5.4116 2.966,5.287 3.683,5.11781 4.342,4.903883 4.9411,4.645437 5.4802,4.34263 5.9592,3.99564 6.378,3.6047 6.7368,3.1698 7.0353,2.6913 7.2737,2.169 7.4476,1.6028 8.5976,1.0175 z m -1.0998,-4.3906 7.7979,4.3809 -8.1835,3.6098 z"
         fill="#454545"
         id="path10" />
      <path
         d="m 287.899,266.693 -3.367,-0.093 -10.03,-0.825 -9.99,-1.353 -9.931,-1.863 -9.851,-2.357 -9.753,-2.832 -9.634,-3.289 -9.497,-3.73 -9.34,-4.152 -9.162,-4.557 -8.966,-4.944 -8.75,-5.314 -16.768,-11.662 -15.674,-12.934 -14.42,-14.061 -6.694,-7.414 -6.317,-7.639 -5.925,-7.85 -5.513,-8.045 -5.082,-8.221 -4.6299,-8.38 -4.1595,-8.522 -3.669,-8.646 -3.1588,-8.753 -2.629,-8.841 -2.0793,-8.913 -1.5099,-8.9669 -0.9208,-9.003 -0.3119,-9.0216 0.6663,-0.0229 0.3088,8.9767 0.915,8.9602 1.5018,8.9265 2.0691,8.874 2.617,8.805 3.1454,8.718 3.6545,8.614 4.1439,8.492 4.6143,8.352 5.064,8.195 5.495,8.02 5.906,7.827 6.298,7.617 6.666,7.384 14.378,14.024 15.631,12.9 16.733,11.64 8.726,5.3 8.941,4.931 9.136,4.545 9.313,4.141 9.468,3.719 9.605,3.28 9.722,2.824 9.819,2.35 9.897,1.858 9.956,1.349 9.993,0.822 3.368,0.094 z m -1.213,-4.369 7.886,4.221 -8.107,3.776 z"
         fill="#454545"
         id="path11" />
      <path
         d="m -255.5,319.167 h 731.219 v 0.666 H -255.5 Z m 731.218,0.333 -2.667,-4 8,4 -8,4 z"
         id="path12" />
      <path
         d="m 132.5,101.092 c 0,-8.0591 6.533,-14.5919 14.592,-14.5919 h 132.817 c 8.058,0 14.591,6.5328 14.591,14.5919 v 77.817 c 0,8.058 -6.533,14.591 -14.591,14.591 H 147.092 c -8.059,0 -14.592,-6.533 -14.592,-14.591 z"
         stroke="#7b7b7b"
         stroke-width="0.666667"
         stroke-miterlimit="8"
         fill="#f2f2f2"
         fill-rule="evenodd"
         id="path13" />
      <text
         font-family="'Calibri Light', 'Calibri Light_MSFontService', sans-serif"
         font-weight="300"
         font-size="13px"
         transform="translate(180.214,102)"
         id="text13">TCV (object)</text>
      <path
         d="m 180.5,120.667 c 0,-2.301 1.866,-4.167 4.167,-4.167 h 58.666 c 2.302,0 4.167,1.866 4.167,4.167 v 16.666 c 0,2.302 -1.865,4.167 -4.167,4.167 h -58.666 c -2.301,0 -4.167,-1.865 -4.167,-4.167 z"
         stroke="#000000"
         stroke-width="0.666667"
         stroke-miterlimit="8"
         fill="#ffffff"
         fill-rule="evenodd"
         id="path14" />
      <text
         font-family="'Calibri Light', 'Calibri Light_MSFontService', sans-serif"
         font-weight="300"
         font-size="13px"
         transform="translate(201.821,132)"
         id="text14">Cast</text>
      <path
         d="m 180.5,160.667 c 0,-2.301 1.866,-4.167 4.167,-4.167 h 58.666 c 2.302,0 4.167,1.866 4.167,4.167 v 16.666 c 0,2.302 -1.865,4.167 -4.167,4.167 h -58.666 c -2.301,0 -4.167,-1.865 -4.167,-4.167 z"
         stroke="#000000"
         stroke-width="0.666667"
         stroke-miterlimit="8"
         fill="#ffffff"
         fill-rule="evenodd"
         id="path15" />
      <text
         font-family="'Calibri Light', 'Calibri Light_MSFontService', sans-serif"
         font-weight="300"
         font-size="13px"
         transform="translate(194.405,173)"
         id="text15">Coerce</text>
      <path
         d="m 294.5,209.228 c 0,-8.134 6.594,-14.728 14.728,-14.728 h 133.544 c 8.134,0 14.728,6.594 14.728,14.728 v 78.544 c 0,8.134 -6.594,14.728 -14.728,14.728 H 309.228 c -8.134,0 -14.728,-6.594 -14.728,-14.728 z"
         stroke="#7b7b7b"
         stroke-width="0.666667"
         stroke-miterlimit="8"
         fill="#f2f2f2"
         fill-rule="evenodd"
         id="path16" />
      <text
         font-family="'Calibri Light', 'Calibri Light_MSFontService', sans-serif"
         font-weight="300"
         font-size="13px"
         transform="translate(340.903,211)"
         id="text16">TCM (object)</text>
      <path
         d="m 342.5,229.667 c 0,-2.301 1.866,-4.167 4.167,-4.167 h 58.666 c 2.302,0 4.167,1.866 4.167,4.167 v 16.666 c 0,2.302 -1.865,4.167 -4.167,4.167 h -58.666 c -2.301,0 -4.167,-1.865 -4.167,-4.167 z"
         stroke="#000000"
         stroke-width="0.666667"
         stroke-miterlimit="8"
         fill="#ffffff"
         fill-rule="evenodd"
         id="path17" />
      <text
         font-family="'Calibri Light', 'Calibri Light_MSFontService', sans-serif"
         font-weight="300"
         font-size="13px"
         transform="translate(350.713,242)"
         id="text17">Calculate</text>
      <path
         d="m 342.5,270.667 c 0,-2.301 1.866,-4.167 4.167,-4.167 h 58.666 c 2.302,0 4.167,1.866 4.167,4.167 v 16.666 c 0,2.302 -1.865,4.167 -4.167,4.167 h -58.666 c -2.301,0 -4.167,-1.865 -4.167,-4.167 z"
         stroke="#000000"
         stroke-width="0.666667"
         stroke-miterlimit="8"
         fill="#ffffff"
         fill-rule="evenodd"
         id="path18" />
      <text
         font-family="'Calibri Light', 'Calibri Light_MSFontService', sans-serif"
         font-weight="300"
         font-size="13px"
         transform="translate(352.463,282)"
         id="text18">Evaluate</text>
      <path
         d="m 173.568,168.925 -2.666,-0.065 0.016,-0.666 2.666,0.064 z m -4.665,-0.113 -2.666,-0.064 0.016,-0.667 2.666,0.065 z m -4.68,-0.139 -2.66,-0.19 0.047,-0.665 2.66,0.19 z m -4.655,-0.333 -2.66,-0.19 0.048,-0.665 2.66,0.19 z m -4.655,-0.333 -2.66,-0.19 0.048,-0.665 2.66,0.19 z m -4.655,-0.333 -0.914,-0.065 -1.753,-0.206 0.078,-0.662 1.722,0.203 0.915,0.065 z m -4.653,-0.505 -2.649,-0.312 0.078,-0.662 2.649,0.312 z m -4.635,-0.546 -2.648,-0.312 0.078,-0.662 2.648,0.312 z m -4.635,-0.546 -2.367,-0.279 -0.294,-0.048 0.107,-0.658 0.265,0.044 2.367,0.279 z m -4.635,-0.649 -2.632,-0.43 0.108,-0.658 2.632,0.43 z m -4.606,-0.752 -2.631,-0.429 0.107,-0.658 2.632,0.429 z m -4.605,-0.752 -2.632,-0.429 0.107,-0.658 2.632,0.43 z m -4.614,-0.788 -2.61,-0.544 0.135,-0.652 2.611,0.543 z m -4.569,-0.951 -2.61,-0.543 0.135,-0.653 2.611,0.543 z m -4.568,-0.951 -2.611,-0.543 0.136,-0.653 2.61,0.544 z m -4.569,-0.95 -0.65,-0.136 -1.956,-0.493 0.164,-0.646 1.927,0.487 0.651,0.135 z m -4.5448,-1.119 -2.5855,-0.653 0.1632,-0.646 2.5855,0.653 z m -4.5246,-1.142 -2.5855,-0.653 0.1632,-0.647 2.5855,0.653 z m -4.5246,-1.143 -2.0688,-0.523 -0.5242,-0.155 0.1898,-0.639 0.4977,0.148 2.0687,0.522 z m -4.5102,-1.247 -2.5563,-0.76 0.1898,-0.639 2.5563,0.76 z m -4.4736,-1.329 -2.5563,-0.759 0.1898,-0.639 2.5563,0.759 z m -4.4735,-1.328 -2.5564,-0.76 0.1898,-0.639 2.5563,0.76 z m -4.4732,-1.374 -2.5235,-0.862 0.2155,-0.631 2.5235,0.862 z m -4.4162,-1.509 -2.5235,-0.862 0.2155,-0.631 2.5235,0.862 z m -4.4161,-1.508 -2.5235,-0.862 0.2154,-0.631 2.5236,0.862 z m -4.4162,-1.509 -0.3398,-0.116 -2.1647,-0.837 0.2404,-0.621 2.1398,0.827 0.3398,0.116 z m -4.3699,-1.674 -2.4873,-0.962 0.2405,-0.621 2.4872,0.961 z m -4.3527,-1.683 -2.4872,-0.962 0.2405,-0.621 2.4872,0.961 z m -4.3526,-1.683 -1.6418,-0.635 -0.844,-0.365 0.2647,-0.611 0.8197,0.354 1.6418,0.635 z m -4.3214,-1.794 -2.4476,-1.058 0.2647,-0.612 2.4475,1.059 z m -4.2832,-1.852 -2.4475,-1.059 0.2647,-0.612 2.4475,1.059 z m -4.2831,-1.853 -2.4475,-1.059 0.2647,-0.612 2.4475,1.059 z m -4.2699,-1.913 -2.4044,-1.153 0.2883,-0.601 2.4044,1.153 z m -4.2078,-2.018 -2.4044,-1.153 0.2883,-0.601 2.4044,1.153 z m -4.2077,-2.018 -2.4045,-1.153 0.2883,-0.601 2.4045,1.153 z m -4.2149,-2.033 -2.3579,-1.245 0.3113,-0.59 2.358,1.246 z m -4.1264,-2.179 -2.358,-1.246 0.3114,-0.589 2.3579,1.245 z m -4.12646,-2.18 -2.35796,-1.245 0.31136,-0.59 2.35797,1.246 z m -4.12644,-2.179 -0.85334,-0.451 -1.48403,-0.859 0.33394,-0.577 1.46144,0.846 0.85335,0.451 z m -4.068356,-2.312 -2.307994,-1.335 0.33393,-0.577 2.308003,1.335 z m -4.039004,-2.337 -2.30798,-1.336 0.33394,-0.577 2.30798,1.336 z m -4.03898,-2.338 -1.81514,-1.05 -0.49252,-0.311 0.35613,-0.564 0.47033,0.298 1.81513,1.05 z m -3.99836,-2.429 -2.2544,-1.425 0.3561,-0.563 2.2544,1.424 z m -3.9452,-2.493 -2.2543,-1.425 0.3561,-0.563 2.2544,1.424 z m -3.9451,-2.493 -2.2543,-1.424 0.3561,-0.564 2.2543,1.424 z m -3.9227,-2.55 -2.1969,-1.512 0.378,-0.549 2.1968,1.511 z m -3.8445,-2.646 -2.1968,-1.511 0.378,-0.55 2.1968,1.512 z m -3.8444,-2.6451 -2.1968,-1.5117 0.3779,-0.5492 2.1968,1.5117 z m -3.8405,-2.6736 -2.1351,-1.5977 0.3995,-0.5338 2.135,1.5977 z m -3.7363,-2.7959 -2.1351,-1.5977 0.3994,-0.5338 2.1351,1.5977 z m -3.7364,-2.796 -2.1351,-1.5977 0.3994,-0.5337 2.1351,1.5976 z m -3.7364,-2.796 -0.1131,-0.0846 -1.9698,-1.6018 0.4207,-0.5172 1.9485,1.5852 0.1131,0.0847 z m -3.6344,-2.9484 -2.0688,-1.6827 0.4207,-0.5172 2.0687,1.6827 z m -3.6203,-2.9447 -2.0688,-1.6827 0.4207,-0.5172 2.0687,1.6827 z m -3.6204,-2.9447 -0.5946,-0.4836 -1.4338,-1.2679 0.4417,-0.4993 1.4128,1.25 0.5946,0.4836 z m -3.5264,-3.0766 -1.9975,-1.7667 0.4417,-0.4994 1.9975,1.7668 z m -3.4955,-3.0918 -1.9974,-1.7668 0.4417,-0.4993 1.9974,1.7667 z m -3.4955,-3.0918 -0.9204,-0.8141 -1.046,-1.0072 0.4626,-0.4801 1.0251,0.9879 0.9204,0.8141 z m -3.4068,-3.2088 -1.9205,-1.8501 0.4625,-0.4801 1.9205,1.85 z m -3.3609,-3.2376 -1.9206,-1.85 0.4626,-0.4801 1.9205,1.85 z m -3.361,-3.2375 -1.0914,-1.0514 -0.8036,-0.8446 0.4831,-0.4594 0.783,0.8239 1.0915,1.0513 z m -3.2731,-3.3454 -1.8376,-1.9325 0.4831,-0.4594 1.8376,1.9325 z m -3.2158,-3.3819 -1.8375,-1.9325 0.4831,-0.4594 1.8376,1.9325 z m -3.2157,-3.3818 -1.1128,-1.1704 -0.6995,-0.8055 0.5035,-0.437 0.6791,0.7831 1.1128,1.1704 z m -3.1231,-3.4865 -1.7478,-2.014 0.5035,-0.437 1.7478,2.0141 z m -3.0586,-3.5246 -1.7478,-2.0141 0.5035,-0.4369 1.7478,2.0141 z m -3.0586,-3.5246 -0.9946,-1.1462 -0.7213,-0.9147 0.5237,-0.4126 0.7011,0.8903 0.9946,1.1463 z m -2.9537,-3.6318 -1.6505,-2.0946 0.524,-0.4126 1.6501,2.0946 z m -2.8885,-3.6655 -1.65,-2.0946 0.523,-0.4126 1.651,2.0946 z m -2.888,-3.6655 -0.752,-0.955 -0.851,-1.1958 0.544,-0.3862 0.83,1.1694 0.753,0.955 z m -2.761,-3.781 -1.545,-2.1737 0.543,-0.3862 1.545,2.1737 z m -2.704,-3.804 -1.545,-2.1736 0.544,-0.3862 1.545,2.1736 z m -2.703,-3.8038 -0.408,-0.5743 -1.062,-1.6706 0.563,-0.3575 1.042,1.6419 0.408,0.5743 z m -2.542,-3.933 -1.43,-2.2509 0.562,-0.3575 1.43,2.2509 z m -2.503,-3.939 -1.43,-2.25093 0.563,-0.35748 1.43,2.25088 z m -2.511,-3.9552 -1.305,-2.3255 0.582,-0.32626 1.305,2.3255 z m -2.284,-4.06961 -1.305,-2.325498 0.582,-0.326279 1.305,2.325497 z m -2.283,-4.06964 -1.305,-2.3255 0.581,-0.32626 1.305,2.3255 z m -2.245,-4.11197 -1.169,-2.3966 0.599,-0.29235 1.169,2.39662 z m -2.046,-4.19408 -1.169,-2.3966 0.599,-0.2924 1.169,2.3967 z m -2.046,-4.1941 -1.131,-2.317 -0.042,-0.1002 0.616,-0.2555 0.025,0.0633 1.131,2.3171 z m -1.94,-4.2645 -1.022,-2.4631 0.616,-0.2555 1.022,2.4631 z m -1.788,-4.3104 -1.022,-2.463 0.616,-0.2555 1.022,2.4631 z m -1.789,-4.3103 -0.477,-1.1517 -0.467,-1.3634 0.631,-0.2156 0.451,1.3235 0.478,1.1517 z m -1.591,-4.4075 -0.863,-2.5233 0.631,-0.2157 0.863,2.5233 z m -1.51,-4.4158 -0.862,-2.5233 0.631,-0.2157 0.862,2.5233 z m -1.499,-4.4424 -0.69,-2.5757 0.643,-0.1727 0.691,2.5757 z m -1.209,-4.5074 -0.69,-2.5757 0.644,-0.1727 0.69,2.5757 z m -1.208,-4.5074 -0.691,-2.5757 0.644,-0.1727 0.691,2.5757 z m -1.081,-4.5611 -0.507,-2.6181 0.654,-0.1267 0.507,2.6181 z m -0.887,-4.5817 -0.507,-2.618 0.655,-0.1267 0.506,2.6181 z m -0.887,-4.5816 -0.18,-0.928 -0.204,-1.7341 0.662,-0.0778 0.197,1.6852 0.18,0.928 z m -0.618,-4.6484 -0.311,-2.6485 0.662,-0.0778 0.311,2.6485 z m -0.544,-4.6348 -0.312,-2.6484 0.663,-0.0778 0.311,2.6484 z m -0.474,-4.6662 -0.106,-2.6645 0.666,-0.0264 0.106,2.6645 z m -0.185,-4.663 -0.106,-2.6646 0.666,-0.0264 0.106,2.6646 z m -0.185,-4.663 -0.071,-1.7888 0.666,-0.0265 0.071,1.7889 z m 322.101,251.258 7.902,4.192 -8.095,3.806 z"
         fill="#008080"
         id="path19" />
      <path
         d="m 287.159,265.586 -8.34,-1.417 -7.39,-2.283 -7.204,-3.086 -6.965,-3.829 -6.668,-4.51 -6.312,-5.127 -5.897,-5.685 -5.425,-6.179 -4.893,-6.612 -4.303,-6.985 -3.654,-7.295 -2.945,-7.544 -2.179,-7.732 -1.351,-7.859 -0.466,-7.923 0.666,-0.039 0.457,7.849 1.336,7.791 2.158,7.67 2.92,7.489 3.626,7.244 4.271,6.937 4.858,6.57 5.386,6.139 5.856,5.646 6.264,5.093 6.616,4.478 6.906,3.8 7.139,3.062 7.305,2.262 8.34,1.418 z m -0.989,-4.413 7.695,4.559 -8.264,3.421 z"
         fill="#454545"
         id="path20" />
      <path
         d="m 173.427,129.09 -5.329,-0.206 0.025,-0.666 5.33,0.206 z m -7.328,-0.284 -1.609,-0.062 -3.724,-0.424 0.076,-0.662 3.674,0.419 1.609,0.063 z m -7.32,-0.713 -5.299,-0.604 0.075,-0.662 5.299,0.604 z m -7.286,-0.83 -2.504,-0.286 -2.789,-0.52 0.123,-0.655 2.741,0.513 2.504,0.285 z m -7.259,-1.173 -5.242,-0.98 0.122,-0.656 5.243,0.98 z m -7.208,-1.348 -3.293,-0.615 -1.943,-0.502 0.167,-0.646 1.898,0.493 3.293,0.615 z m -7.172,-1.619 -5.163,-1.337 0.167,-0.646 5.163,1.338 z m -7.099,-1.839 -3.911,-1.013 -1.249,-0.414 0.211,-0.633 1.205,0.401 3.911,1.014 z m -7.058,-2.058 -5.061,-1.682 0.211,-0.633 5.061,1.682 z m -6.959,-2.313 -4.294,-1.427 -0.769,-0.314 0.252,-0.617 0.727,0.298 4.295,1.427 z m -6.914,-2.498 -4.9369,-2.018 0.2523,-0.617 4.9366,2.018 z m -6.7881,-2.775 -4.3811,-1.791 -0.5596,-0.274 0.2938,-0.598 0.5181,0.255 4.381,1.791 z m -6.736,-2.946 -4.7872,-2.351 0.2938,-0.598 4.7873,2.35 z m -6.5824,-3.233 -4.1195,-2.023 -0.6637,-0.385 0.3356,-0.576 0.6219,0.363 4.1195,2.023 z m -6.5113,-3.415 -4.6083,-2.6847 0.3355,-0.5761 4.6084,2.6848 z m -6.3365,-3.6915 -3.4745,-2.0243 -1.102,-0.7576 0.3781,-0.5491 1.0595,0.7307 3.4745,2.0242 z m -6.2238,-3.916 -4.3928,-3.0246 0.3781,-0.5491 4.3928,3.0246 z m -6.0401,-4.1588 -2.4376,-1.6783 -1.8603,-1.5181 0.4218,-0.5163 1.8166,1.4853 2.4376,1.6783 z m -5.8468,-4.4617 -4.1305,-3.3739 0.4218,-0.5163 4.1305,3.3739 z m -5.6794,-4.6392 -1.0407,-0.8501 -2.8703,-2.8143 0.4669,-0.4759 2.8251,2.7739 1.0407,0.8501 z m -5.3386,-5.0651 -3.8069,-3.7352 0.4669,-0.4759 3.8069,3.7352 z m -5.1916,-5.222 -3.4027,-4.1068 0.5134,-0.4254 3.4027,4.1069 z m -4.6787,-5.6469 -2.31,-2.788 -0.9914,-1.4319 0.5484,-0.3791 0.9564,1.3857 2.3099,2.788 z m -4.4387,-5.8651 -1.1199,-1.62 -1.7444,-2.9011 0.5714,-0.3434 1.7214,2.8654 1.1199,1.62 z m -3.8945,-6.2353 -0.0866,-0.1441 -2.3619,-4.6193 0.5936,-0.3034 2.3397,4.5793 0.0866,0.144 z m -3.2502,-6.622 -1.3524,-3.2118 -0.5891,-1.7799 0.633,-0.2091 0.5705,1.7303 1.3524,3.2118 z m -2.5689,-6.8908 -0.4071,-1.2323 -0.9436,-3.9527 0.6485,-0.1546 0.9282,3.8982 0.4071,1.2323 z m -1.7331,-7.1767 -0.5736,-3.9627 -0.0679,-1.3592 0.6659,-0.0326 0.0618,1.2963 0.5736,3.9627 z m -0.7391,-7.3195 -0.0791,-1.6191 0.6659,-0.0325 0.0791,1.619 z m 159.0168,99.5736 7.838,4.307 -8.149,3.687 z"
         fill="#0000ff"
         id="path21" />
      <path
         d="m -102.829,-107.732 2.666,0.04 -0.01,0.667 -2.666,-0.041 z m 4.666,0.071 0.6666,0.01 -0.0101,0.666 -0.6666,-0.01 z m 2.6664,0.04 2.6664,0.041 -0.0102,0.666 -2.6663,-0.04 z m 4.6661,0.071 0.6666,0.01 -0.0101,0.667 -0.6666,-0.01 z m 2.6664,0.04 0.9582,0.015 1.7164,0.076 -0.0297,0.666 -1.6968,-0.075 -0.9582,-0.015 z m 4.6726,0.18 0.6661,0.03 -0.0297,0.666 -0.666,-0.03 z m 2.6641,0.119 2.664,0.119 -0.0297,0.666 -2.664,-0.119 z m 4.662,0.208 0.666,0.03 -0.0297,0.666 -0.666,-0.03 z m 2.664,0.119 2.664,0.119 -0.0297,0.666 -2.664,-0.119 z m 4.6621,0.208 0.666,0.029 -0.0297,0.666 -0.666,-0.029 z m 2.664,0.119 1.094,0.048 1.5768,0.115 -0.0486,0.665 -1.5579,-0.114 -1.094,-0.048 z m 4.6655,0.309 0.6649,0.049 -0.0486,0.665 -0.6649,-0.049 z m 2.6596,0.195 2.6595,0.194 -0.0485,0.665 -2.6596,-0.194 z m 4.6542,0.34 0.6649,0.048 -0.0486,0.665 -0.6649,-0.048 z m 2.6596,0.194 2.6596,0.195 -0.0486,0.664 -2.6596,-0.194 z m 4.6543,0.34 0.6648,0.049 -0.0486,0.665 -0.6648,-0.049 z m 2.6595,0.195 0.9167,0.067 1.7479,0.177 -0.0671,0.663 -1.7294,-0.175 -0.9167,-0.067 z m 4.6545,0.445 0.6632,0.067 -0.0672,0.664 -0.6632,-0.068 z m 2.6531,0.269 2.653,0.269 -0.0672,0.663 -2.653,-0.269 z m 4.6429,0.47 0.6632,0.068 -0.0672,0.663 -0.6632,-0.067 z m 2.653,0.269 2.6531,0.269 -0.0672,0.663 -2.6531,-0.269 z m 4.6429,0.471 0.6633,0.067 -0.0672,0.663 -0.6633,-0.067 z m 2.6531,0.268 0.2695,0.028 2.3852,0.31 -0.0859,0.661 -2.3665,-0.308 -0.2695,-0.027 z m 4.638,0.595 0.6611,0.086 -0.0859,0.661 -0.6611,-0.086 z m 2.6444,0.344 2.6445,0.344 -0.086,0.661 -2.6444,-0.344 z m 4.6278,0.602 0.66107,0.085 -0.08593,0.662 -0.66114,-0.086 z m 2.64439,0.343 2.64443,0.344 -0.08593,0.6611 -2.64443,-0.3441 z m 4.62774,0.602 0.66111,0.086 -0.08594,0.6608 -0.66111,-0.0859 z m 2.649834,0.3742 2.633236,0.421 -0.10526,0.6583 -2.633224,-0.421 z m 4.608146,0.7367 0.65831,0.1053 -0.10525,0.6583 -0.65831,-0.1053 z m 2.63323,0.421 2.63322,0.4211 -0.10526,0.6583 -2.6332,-0.421 z m 4.60816,0.7368 0.6583,0.1053 -0.1053,0.6583 -0.6583,-0.1053 z m 2.6332,0.421 2.6332,0.421 -0.1052,0.6583 -2.6333,-0.421 z m 4.6161,0.7515 0.6547,0.1257 -0.1257,0.6547 -0.6547,-0.1257 z m 2.6188,0.5029 2.6188,0.503 -0.1257,0.6547 -2.6188,-0.503 z m 4.5829,0.8802 0.6547,0.1257 -0.1257,0.6547 -0.6547,-0.1257 z m 2.6188,0.5029 2.6188,0.503 -0.1257,0.6547 -2.6188,-0.503 z m 4.583,0.8802 0.6547,0.1257 -0.1258,0.6547 -0.6547,-0.1257 z m 2.6187,0.5029 1.1923,0.229 1.4275,0.325 -0.1481,0.65 -1.4051,-0.3203 -1.1923,-0.229 z m 4.5699,0.9983 0.65,0.1481 -0.1481,0.65 -0.6501,-0.1481 z m 2.6,0.5924 2.6,0.5924 -0.1481,0.65 -2.6,-0.5924 z m 4.5501,1.0367 0.65,0.1481 -0.1481,0.65 -0.6501,-0.1481 z m 2.6,0.5924 2.6,0.5924 -0.1481,0.65 -2.6,-0.5924 z m 4.5575,1.0464 0.6455,0.1667 -0.1667,0.6455 -0.6455,-0.1667 z m 2.582,0.6667 2.582,0.6668 -0.1667,0.6455 -2.582,-0.6668 z m 4.5184,1.1669 0.6455,0.1667 -0.1667,0.6455 -0.6454,-0.1667 z m 2.5789,0.7053 2.5673,0.721 -0.1802,0.6418 -2.5674,-0.721 z m 4.4928,1.2617 0.6419,0.1802 -0.1803,0.6419 -0.6418,-0.1803 z m 2.5682,0.7456 2.5501,0.7799 -0.195,0.6375 -2.5501,-0.7799 z m 4.4626,1.3648 0.6375,0.195 -0.1949,0.6375 -0.6375,-0.195 z m 2.5537,0.7966 2.5294,0.8445 -0.2112,0.6323 -2.5294,-0.8445 z m 4.4264,1.4779 0.6324,0.2111 -0.2112,0.6324 -0.6323,-0.2112 z m 2.5335,0.8616 2.5043,0.9163 -0.229,0.6261 -2.5044,-0.9163 z m 4.3826,1.6035 0.626,0.229 -0.229,0.6261 -0.6261,-0.2291 z m 2.5045,0.9456 2.4734,0.9966 -0.2491,0.6184 -2.4735,-0.9966 z m 4.3285,1.7441 0.6184,0.2491 -0.2492,0.6184 -0.6183,-0.2492 z m 2.4619,1.0555 2.4344,1.0876 -0.272,0.6087 -2.4343,-1.0877 z m 4.2724,1.9124 0.596,0.298 -0.298,0.5963 -0.596,-0.298 z m 2.386,1.1921 2.385,1.1921 -0.298,0.5963 -2.386,-1.1921 z m 4.149,2.1694 0.58,0.3282 -0.328,0.5803 -0.58,-0.3283 z m 2.321,1.313 0.853,0.4827 1.431,0.9305 -0.363,0.5588 -1.396,-0.909 -0.853,-0.4827 z m 3.961,2.5041 0.558,0.3636 -0.363,0.5587 -0.559,-0.3636 z m 2.19,1.5621 2.118,1.6205 -0.405,0.5294 -2.118,-1.6204 z m 3.623,2.9836 0.488,0.4537 -0.453,0.4885 -0.489,-0.4537 z m 1.944,1.8801 1.721,2.0371 -0.51,0.4302 -1.721,-2.0371 z m 2.851,3.7437 0.347,0.5693 -0.569,0.347 -0.348,-0.5692 z m 1.247,2.4166 0.682,1.8433 c 0.009,0.024 0.015,0.049 0.018,0.0744 l 0.087,0.6958 -0.661,0.0826 -0.087,-0.6958 0.018,0.0744 -0.682,-1.8432 z m 1.035,4.598 0.01,0.0828 c 0.003,0.023 0.004,0.0462 0.002,0.0693 l -0.049,0.5813 -0.665,-0.0561 0.049,-0.5812 0.002,0.0694 -0.011,-0.0828 z m -0.206,2.7263 -0.224,2.6572 -0.664,-0.056 0.224,-2.6573 z m -0.668,4.6581 -0.161,0.6471 -0.647,-0.1604 0.161,-0.6471 z m -0.642,2.5883 -0.305,1.2301 c -0.004,0.0154 -0.009,0.0305 -0.015,0.0453 l -0.526,1.2964 -0.618,-0.251 0.527,-1.2964 -0.015,0.0453 0.305,-1.2301 z m -1.599,4.4247 -0.251,0.6176 -0.618,-0.251 0.251,-0.6176 z m -1.051,2.495 -1.308,2.3234 -0.581,-0.3272 1.308,-2.3234 z m -2.29,4.066 -0.327,0.5808 -0.581,-0.3272 0.327,-0.5808 z m -1.475,2.2614 -1.562,2.1614 -0.541,-0.3905 1.562,-2.1614 z m -2.734,3.7824 -0.041,0.0575 -0.417,0.4715 -0.498,-0.443 0.374,-0.419 0.042,-0.0575 z m -1.787,2.0237 -1.772,1.9931 -0.498,-0.443 1.772,-1.993 z m -3.17,3.4623 -0.487,0.4557 -0.455,-0.4866 0.486,-0.4557 z m -1.947,1.8229 -1.946,1.8228 -0.456,-0.4866 1.947,-1.8228 z m -3.5,3.1235 -0.523,0.413 -0.413,-0.5232 0.523,-0.4131 z m -2.093,1.65228 -2.093,1.65229 -0.413,-0.52327 2.093,-1.6523 z m -3.764,2.79793 -0.554,0.37029 -0.37,-0.55436 0.554,-0.3703 z m -2.2172,1.48118 -2.2175,1.48119 -0.3703,-0.55437 2.2175,-1.48119 z m -3.9776,2.48256 -0.5809,0.32706 -0.3271,-0.58091 0.5809,-0.32707 z m -2.3237,1.30827 -2.3237,1.308283 -0.3271,-0.580917 2.3237,-1.308286 z M 89.282,0.670982 88.6784,0.953918 88.3954,0.350273 88.9991,0.0673294 Z M 86.8674,1.80275 84.4528,2.93452 84.1699,2.33087 86.5845,1.1991 Z m -4.3021,1.86333 -0.623,0.23738 -0.2374,-0.62297 0.623,-0.23737 z M 80.0734,4.6156 77.5815,5.56512 77.3441,4.94216 79.836,3.99263 Z M 75.648,6.1647 75.0089,6.35451 74.8191,5.71543 75.4582,5.52561 Z M 73.0917,6.92396 70.5354,7.68321 70.3456,7.04413 72.9019,6.28487 Z M 68.5649,8.14883 67.9131,8.2885 67.7734,7.63663 68.4253,7.49696 Z M 65.9575,8.7075 63.35,9.26617 63.2103,8.61431 65.8178,8.05564 Z M 61.3512,9.59346 60.6901,9.67988 60.6037,9.01883 61.2647,8.93241 Z M 58.707,9.93912 56.0628,10.2848 55.9764,9.62373 58.6206,9.27807 Z m -4.6626,0.52808 -0.6661,0.0296 -0.0296,-0.666 0.666,-0.02964 z m -2.6641,0.1185 -2.664,0.1186 -0.0296,-0.666 2.664,-0.11859 z m -152.9423,-113.9647 -7.938,-4.121 8.06,-3.878 z"
         fill="#9900ff"
         id="path22" />
      <text
         font-family="'Calibri Light', 'Calibri Light_MSFontService', sans-serif"
         font-weight="300"
         font-size="13px"
         transform="translate(21.5054,103)"
         id="text22">Object</text>
      <text
         font-family="'Calibri Light', 'Calibri Light_MSFontService', sans-serif"
         font-weight="300"
         font-size="13px"
         transform="translate(24.8775,42)"
         id="text23">function</text>
      <text
         font-family="'Calibri Light', 'Calibri Light_MSFontService', sans-serif"
         font-weight="300"
         font-size="13px"
         transform="translate(140.992,-162)"
         id="text24">Argument / Return /</text>
      <text
         font-family="'Calibri Light', 'Calibri Light_MSFontService', sans-serif"
         font-weight="300"
         font-size="13px"
         transform="translate(140.992,-146)"
         id="text25">(.) Object</text>
      <text
         font-family="'Calibri Light', 'Calibri Light_MSFontService', sans-serif"
         font-weight="300"
         font-size="13px"
         transform="translate(244.814,17)"
         id="text26">Subtype Object</text>
      <path
         d="m 54.1698,10.2366 28.6664,0.3006 35.0628,1.08 34.51,1.7423 33.681,2.3572 32.575,2.9248 15.789,1.6607 15.407,1.7848 14.992,1.903 14.543,2.0154 14.06,2.1219 13.542,2.2225 12.99,2.3172 12.402,2.406 11.781,2.489 11.125,2.566 10.435,2.6373 9.711,2.7027 8.951,2.7624 8.159,2.8164 7.331,2.8649 6.47,2.9081 5.576,2.9465 4.648,2.9808 3.688,3.0129 c 0.014,0.0114 0.027,0.0239 0.039,0.0374 l 2.654,3.0081 c 0.017,0.0193 0.032,0.0405 0.044,0.0631 l 1.618,3.0199 c 0.017,0.0307 0.028,0.0639 0.034,0.0981 l 0.547,3.0259 c 0.005,0.0263 0.007,0.0532 0.005,0.0799 l -0.188,3.0259 -0.561,3.0596 c -0.003,0.018 -0.008,0.0357 -0.014,0.053 l -2.169,5.9984 c -0.007,0.0196 -0.016,0.0386 -0.027,0.0566 l -3.499,5.9038 c -0.009,0.0146 -0.018,0.0286 -0.029,0.0417 l -4.734,5.762 -5.902,5.6026 -6.945,5.359 -7.892,5.069 -8.746,4.734 -9.503,4.353 -10.168,3.925 -10.736,3.451 -11.212,2.93 -11.591,2.361 -11.877,1.745 -12.067,1.082 -12.163,0.372 -0.021,-0.667 12.124,-0.369 12.03,-1.078 11.841,-1.738 11.556,-2.353 11.176,-2.919 10.7,-3.438 10.13,-3.91 9.464,-4.333 8.702,-4.709 7.846,-5.036 6.893,-5.314 5.846,-5.5429 4.734,-5.7619 -0.03,0.0416 3.499,-5.9038 -0.026,0.0566 2.169,-5.9985 -0.015,0.053 0.552,-2.9802 0.188,-3.0258 0.004,0.08 -0.547,-3.0259 0.035,0.0982 -1.618,-3.0199 0.043,0.0631 -2.654,-3.0081 0.039,0.0375 -3.626,-2.9678 -4.599,-2.9525 -5.538,-2.9278 -6.44,-2.8953 -7.306,-2.8556 -8.137,-2.8096 -8.934,-2.7572 -9.695,-2.6986 -10.421,-2.634 -11.114,-2.5634 -11.77,-2.4867 -12.392,-2.4042 -12.981,-2.3156 -13.533,-2.2212 -14.052,-2.1207 -14.536,-2.0144 -14.985,-1.9022 -15.4,-1.7839 -15.778,-1.6598 -32.562,-2.9238 -33.668,-2.3564 -34.497,-1.7417 -35.0498,-1.0798 -28.6663,-0.3005 z m 1.2879,4.3471 -7.9576,-4.0836 8.0414,-3.91595 z"
         fill="#454545"
         id="path26" />
      <text
         font-family="'Calibri Light', 'Calibri Light_MSFontService', sans-serif"
         font-weight="300"
         font-size="13px"
         transform="translate(215.137,58)"
         id="text27">Argument</text>
      <text
         font-family="'Calibri Light', 'Calibri Light_MSFontService', sans-serif"
         font-weight="300"
         font-size="13px"
         transform="translate(490.129,322)"
         id="text28">Type System</text>
      <text
         font-family="'Calibri Light', 'Calibri Light_MSFontService', sans-serif"
         font-weight="300"
         font-size="13px"
         transform="translate(490.129,338)"
         id="text29">Timeline</text>
      <path
         d="M -6.52067,1.25087 -9.10711,1.90008 -9.26941,1.25347 -6.68297,0.604263 Z M -10.9785,2.43222 -13.437,3.4652 -13.6953,2.85058 -11.2368,1.8176 Z m -4.2235,1.90047 -2.3507,1.259 -0.3148,-0.58769 2.3508,-1.259 z m -4.006,2.33011 -1.8522,1.20415 -0.3236,0.26843 -0.4231,-0.51515 0.3833,-0.31221 1.8523,-1.20416 z m -3.7212,2.74206 -2.0606,1.69264 -0.4232,-0.5152 2.0606,-1.6926 z m -3.6061,2.96214 -1.3145,1.0797 -0.6344,0.6723 -0.4836,-0.4589 0.6949,-0.7286 1.3144,-1.0797 z m -3.3256,3.2028 -1.8356,1.9343 -0.4836,-0.4589 1.8356,-1.9343 z m -3.2122,3.3851 -1.342,1.4142 -0.4159,0.542 -0.5278,-0.4072 0.4601,-0.5937 1.342,-1.4142 z m -2.9795,3.5397 -1.6288,2.1114 -0.5278,-0.4072 1.6288,-2.1114 z m -2.8504,3.695 -1.6288,2.1114 -0.5279,-0.4072 1.6289,-2.1114 z m -2.7134,3.7564 -1.441,2.2438 -0.561,-0.3602 1.4411,-2.2438 z m -2.5218,3.9267 -1.441,2.2437 -0.5609,-0.3602 1.441,-2.2438 z m -2.5218,3.9266 -0.0119,0.0185 -1.2463,2.3043 -0.5863,-0.3174 1.2717,-2.3472 0.0119,-0.0185 z m -2.2103,4.0816 -1.2695,2.3452 -0.5863,-0.3174 1.2695,-2.3451 z m -2.2216,4.104 -1.1553,2.1342 -0.0899,0.1982 -0.6062,-0.2777 0.1098,-0.2379 1.1553,-2.1342 z m -2.0781,4.1507 -1.1105,2.4244 -0.6061,-0.2776 1.1105,-2.4244 z m -1.9434,4.2427 -1.1105,2.4245 -0.6061,-0.2776 1.1105,-2.4245 z m -1.9434,4.2428 -0.3207,0.7001 -0.6752,1.7506 -0.6219,-0.2401 0.691,-1.7881 0.3207,-0.7001 z m -1.7162,4.3164 -0.9605,2.4877 -0.6219,-0.2401 0.9604,-2.4877 z m -1.6808,4.3535 -0.9605,2.4877 -0.6219,-0.2401 0.9604,-2.4877 z m -1.6551,4.3423 -0.8161,2.5387 -0.6346,-0.204 0.816,-2.5387 z m -1.4281,4.4428 -0.816,2.5387 -0.6347,-0.204 0.8161,-2.5387 z m -1.428,4.4428 -0.816,2.5387 -0.6347,-0.204 0.816,-2.5387 z m -1.3678,4.4411 -0.6742,2.58 -0.645,-0.1685 0.6742,-2.5801 z m -1.1798,4.515 -0.6742,2.5801 -0.645,-0.1686 0.6742,-2.58 z m -1.1798,4.5151 -0.6742,2.58 -0.645,-0.1685 0.6742,-2.58 z m -1.1041,4.514 -0.5322,2.6129 -0.6532,-0.133 0.5322,-2.613 z m -0.9313,4.5729 -0.5322,2.613 -0.6533,-0.133 0.5322,-2.613 z m -0.9314,4.573 -0.5322,2.613 -0.6533,-0.133 0.5322,-2.613 z m -0.854,4.567 -0.3876,2.639 -0.6596,-0.097 0.3876,-2.639 z m -0.6784,4.617 -0.3876,2.639 -0.6596,-0.097 0.3877,-2.638 z m -0.6783,4.618 -0.3877,2.638 -0.6596,-0.097 0.3877,-2.638 z m -0.6097,4.606 -0.2381,2.656 -0.664,-0.06 0.2381,-2.656 z m -0.4167,4.648 -0.2381,2.656 -0.664,-0.06 0.2381,-2.656 z m -0.4166,4.648 -0.2381,2.656 -0.664,-0.06 0.2381,-2.656 z m -0.3643,4.631 -0.0813,2.666 -0.6664,-0.021 0.0814,-2.665 z m -0.1423,4.665 -0.0813,2.665 -0.6664,-0.02 0.0813,-2.665 z m -0.1423,4.664 -0.0814,2.666 -0.6663,-0.021 0.0813,-2.665 z m -0.1143,4.646 0.0693,2.666 -0.6664,0.017 -0.0694,-2.666 z m 0.1213,4.665 0.0528,2.031 0.0479,0.616 -0.6647,0.052 -0.0497,-0.65 -0.0528,-2.031 z m 0.2543,4.641 0.2049,2.659 -0.6647,0.051 -0.2049,-2.658 z m 0.3633,4.628 0.3989,2.637 -0.6591,0.1 -0.399,-2.637 z m 0.6981,4.614 0.399,2.637 -0.6592,0.1 -0.3989,-2.637 z m 0.6982,4.614 0.399,2.637 -0.6592,0.1 -0.399,-2.637 z m 0.6982,4.615 0.0474,0.313 0.5595,2.25 -0.647,0.161 -0.5717,-2.311 -0.0474,-0.314 z m 1.0883,4.504 0.6419,2.589 -0.6471,0.16 -0.6418,-2.588 z m 1.1233,4.53 0.6419,2.588 -0.6471,0.161 -0.6418,-2.589 z m 1.1233,4.529 0.1863,0.752 0.607,1.761 -0.6304,0.217 -0.6236,-1.818 -0.1864,-0.751 z m 1.4435,4.405 0.867,2.522 -0.6305,0.216 -0.8669,-2.522 z m 1.5172,4.413 0.867,2.522 -0.6305,0.216 -0.8669,-2.521 z m 1.5172,4.413 0.4082,1.188 0.5592,1.264 -0.61,0.269 -0.5796,-1.317 -0.4083,-1.187 z m 1.7745,4.282 1.0761,2.44 -0.61,0.269 -1.0761,-2.44 z m 1.8832,4.27 1.0761,2.44 -0.61,0.269 -1.0761,-2.44 z m 1.8832,4.27 0.699,1.585 0.4336,0.797 -0.586,0.318 -0.4576,-0.846 -0.699,-1.585 z m 2.0863,4.14 1.2717,2.344 -0.586,0.318 -1.2716,-2.344 z m 2.2254,4.102 1.2717,2.343 -0.586,0.318 -1.2716,-2.344 z m 2.2254,4.101 1.031,1.901 0.2619,0.4 -0.5586,0.363 -0.2893,-0.445 -1.0309,-1.901 z m 2.3848,3.976 1.4559,2.234 -0.5585,0.364 -1.4559,-2.234 z m 2.5479,3.91 1.4559,2.234 -0.5585,0.364 -1.4559,-2.234 z m 2.5479,3.91 1.3625,2.09 0.0891,0.114 -0.5274,0.408 -0.1202,-0.158 -1.3626,-2.09 z m 2.6749,3.786 1.6311,2.11 -0.5275,0.408 -1.631,-2.11 z m 2.8544,3.692 1.631,2.11 -0.5274,0.407 -1.6311,-2.109 z m 2.8543,3.692 1.6311,2.11 -0.5274,0.407 -1.6311,-2.109 z m 2.9617,3.566 1.7988,1.969 -0.4922,0.449 -1.7988,-1.968 z m 3.1478,3.445 1.7988,1.969 -0.4922,0.449 -1.7987,-1.968 z m 3.1479,3.445 1.7965,1.966 v 0 l -0.4697,0.472 -0.0225,-0.022 -1.7965,-1.966 z m 3.2489,3.304 1.9601,1.809 -0.4521,0.49 -1.96,-1.808 z m 3.4301,3.165 1.96,1.808 -0.452,0.49 -1.96,-1.808 z m 3.4301,3.164 1.7607,1.624 0.1921,0.146 -0.4061,0.529 -0.2381,-0.185 -1.7607,-1.624 z m 3.539,2.988 2.1149,1.624 -0.4061,0.529 -2.1149,-1.624 z m 3.7011,2.843 2.11491,1.624 -0.40607,0.529 -2.11494,-1.625 z m 3.7011,2.842 1.4567,1.119 0.6775,0.421 -0.35306,0.566 -0.73051,-0.458 -1.4567,-1.119 z m 3.8307,2.599 2.262,1.412 -0.35307,0.566 -2.262,-1.412 z m 3.958496,2.472 2.262004,1.412 -0.35307,0.565 -2.261998,-1.412 z m 3.958504,2.471 0.81509,0.509 1.5031,0.729 -0.29173,0.6 -1.56444,-0.763 -0.81509,-0.509 z m 4.11654,2.114 2.39776,1.167 -0.2917,0.599 -2.39778,-1.167 z m 4.19616,2.042 2.3978,1.167 -0.2917,0.599 -2.3978,-1.167 z m 4.1782,2.012 2.4885,0.958 -0.2396,0.622 -2.4885,-0.958 z m 4.3548,1.677 1.2906,0.497 1.2046,0.382 -0.2017,0.635 -1.2425,-0.395 -1.2906,-0.497 z m 4.4015,1.484 2.5418,0.806 -0.2016,0.636 -2.5418,-0.807 z m 4.4577,1.3 2.5876,0.644 -0.161,0.647 -2.5877,-0.644 z m 4.5102,1.107 2.6247,0.471 -0.1179,0.656 -2.6247,-0.471 z m 4.5931,0.825 1.1766,0.211 1.4398,0.157 -0.0723,0.662 -1.4854,-0.163 -1.1765,-0.211 z m 4.6046,0.584 2.582,0.282 0.0454,0.001 -0.0245,0.666 -0.0932,-0.004 -2.582,-0.282 z m 4.6261,0.356 2.6648,0.098 -0.0245,0.667 -2.6648,-0.098 z m 4.6437,0.131 2.6659,-0.063 0.0156,0.667 -2.6659,0.062 z m 4.6654,-0.11 2.6659,-0.062 0.0156,0.666 -2.6659,0.063 z m 4.6654,-0.109 2.0594,-0.048 0.5902,-0.041 0.0457,0.665 -0.6203,0.042 -2.0594,0.049 z m 4.6449,-0.226 2.6603,-0.183 0.0458,0.665 -2.6604,0.183 z m 4.6556,-0.321 2.6604,-0.183 0.0458,0.665 -2.6604,0.183 z m 4.6557,-0.32 0.0711,-0.005 2.5646,-0.289 0.0747,0.662 -2.5936,0.292 -0.0711,0.005 z m 4.6231,-0.518 2.6499,-0.299 0.0746,0.662 -2.6498,0.299 z m 4.6373,-0.523 2.5901,-0.292 0.0453,-0.008 0.1029,0.659 -0.0735,0.011 -2.5901,0.292 z m 4.6114,-0.608 2.6347,-0.412 0.1029,0.658 -2.6347,0.412 z m 4.6107,-0.721 2.6346,-0.412 0.103,0.659 -2.6347,0.412 z m 4.6107,-0.721 0.2538,-0.039 2.3487,-0.472 0.131,0.654 -2.3768,0.476 -0.2538,0.04 z m 4.5635,-0.904 2.615,-0.524 0.131,0.654 -2.615,0.524 z m 4.576,-0.917 2.233,-0.448 0.363,-0.09 0.16,0.647 -0.392,0.097 -2.233,0.447 z m 4.538,-1.017 2.589,-0.639 0.16,0.648 -2.589,0.638 z m 4.531,-1.118 2.589,-0.638 0.16,0.647 -2.59,0.639 z m 4.507,-1.146 2.557,-0.758 0.189,0.64 -2.557,0.757 z m 4.474,-1.326 2.557,-0.757 0.189,0.639 -2.556,0.757 z m 4.475,-1.325 0.432,-0.129 2.075,-0.729 0.221,0.629 -2.106,0.74 -0.433,0.128 z m 4.393,-1.521 2.516,-0.885 0.221,0.629 -2.516,0.885 z m 4.403,-1.548 1.052,-0.37 1.416,-0.588 0.255,0.616 -1.45,0.601 -1.052,0.37 z m 4.315,-1.725 2.462,-1.023 0.256,0.615 -2.463,1.023 z m 4.309,-1.791 1.087,-0.451 1.317,-0.65 0.295,0.598 -1.356,0.667 -1.087,0.452 z m 4.198,-1.985 2.392,-1.179 0.294,0.598 -2.391,1.179 z m 4.186,-2.063 0.51,-0.251 1.783,-1.057 0.339,0.574 -1.828,1.081 -0.51,0.251 z m 4.014,-2.327 2.295,-1.358 0.339,0.574 -2.295,1.358 z m 3.949,-2.42 2.156,-1.57 0.392,0.539 -2.155,1.57 z m 3.773,-2.747 1.448,-1.055 0.608,-0.572 0.455,0.488 -0.671,0.623 -1.448,1.055 z m 3.518,-2.992 1.948,-1.82 0.455,0.487 -1.948,1.82 z m 3.242,-3.265 1.63,-2.111 0.527,0.407 -1.629,2.111 z m 2.801,-3.64 1.137,-2.413 0.603,0.284 -1.137,2.413 z m 1.989,-4.222 0.138,-0.292 -0.023,0.064 0.547,-2.279 0.648,0.156 -0.547,2.279 c -0.005,0.022 -0.013,0.043 -0.022,0.064 l -0.138,0.292 z m 0.819,-4.449 0.028,-0.343 0.665,0.054 -0.028,0.343 z M -8.47873,-2.84801 0,0 -7.36565,5.07417 Z"
         fill="#008080"
         transform="matrix(0,1,1,0,-143.5,-119.5)"
         id="path29" />
      <path
         d="m 121.17,61.2296 5.333,0.0502 -0.007,0.6667 -5.333,-0.0503 z m 7.333,0.0691 5.333,0.0503 -0.007,0.6666 -5.333,-0.0503 z m 7.333,0.0691 2.401,0.0227 2.937,0.0812 -0.019,0.6664 -2.924,-0.081 -2.402,-0.0226 z m 7.337,0.1593 5.331,0.1476 -0.018,0.6664 -5.331,-0.1476 z m 7.331,0.203 5.331,0.1476 -0.019,0.6665 -5.331,-0.1477 z m 7.33,0.203 3.958,0.1096 1.378,0.0625 -0.03,0.666 -1.367,-0.0621 -3.957,-0.1096 z m 7.334,0.2628 5.328,0.2418 -0.03,0.666 -5.328,-0.2418 z m 7.326,0.3325 5.328,0.2419 -0.03,0.6659 -5.328,-0.2418 z m 7.326,0.3325 5.155,0.234 0.178,0.0112 -0.041,0.6654 -0.168,-0.0106 -5.154,-0.234 z m 7.329,0.3708 5.323,0.3349 -0.042,0.6654 -5.322,-0.3349 z m 7.319,0.4605 5.323,0.3349 -0.042,0.6654 -5.323,-0.3349 z m 7.319,0.4605 5.323,0.3349 -0.042,0.6654 -5.323,-0.3349 z m 7.323,0.4876 5.316,0.4291 -0.054,0.6645 -5.316,-0.4291 z m 7.31,0.5901 5.316,0.4291 -0.054,0.6645 -5.316,-0.4291 z m 7.309,0.59 5.316,0.4291 -0.054,0.6645 -5.316,-0.4291 z m 7.313,0.6192 5.307,0.527 -0.065,0.6634 -5.308,-0.527 z m 7.298,0.7246 5.307,0.527 -0.066,0.6634 -5.307,-0.5269 z m 7.297,0.7247 4.802,0.4768 0.511,0.0608 -0.079,0.662 -0.498,-0.0594 -4.802,-0.4768 z m 7.299,0.7745 5.295,0.6316 -0.078,0.662 -5.296,-0.6316 z m 7.281,0.8685 5.296,0.6317 -0.079,0.6619 -5.296,-0.6316 z m 7.282,0.8685 2.782,0.3318 2.514,0.3557 -0.093,0.6601 -2.5,-0.3538 -2.782,-0.3318 z m 7.276,0.9677 5.281,0.7472 -0.093,0.6601 -5.281,-0.7472 z m 7.261,1.0275 5.281,0.7472 -0.093,0.6601 -5.281,-0.7472 z m 7.266,1.0371 5.266,0.8445 -0.106,0.6583 -5.266,-0.8446 z m 7.241,1.1613 1.009,0.1618 4.252,0.7415 -0.115,0.6568 -4.243,-0.7401 -1.009,-0.1618 z m 7.231,1.2469 2.11,0.3681 3.14,0.5964 -0.124,0.6549 -3.13,-0.5946 -2.111,-0.368 z m 7.215,1.3377 2.81,0.5337 2.427,0.5032 -0.135,0.6528 -2.416,-0.5011 -2.81,-0.5337 z m 7.196,1.443 3.089,0.6406 2.13,0.484 -0.148,0.6501 -2.118,-0.4813 -3.089,-0.6406 z m 7.169,1.5678 2.931,0.6658 2.266,0.5669 -0.162,0.6467 -2.252,-0.5635 -2.93,-0.6658 z m 7.137,1.7182 2.318,0.5802 2.845,0.789 -0.179,0.6424 -2.827,-0.7846 -2.319,-0.5803 z m 7.09,1.9039 1.244,0.3451 3.87,1.2012 -0.198,0.6367 -3.851,-1.1955 -1.243,-0.3451 z m 7.032,2.154 4.622,1.624 0.417,0.1681 -0.249,0.6181 -0.389,-0.1573 -4.622,-1.6239 z m 6.894,2.5415 2.079,0.8402 2.81,1.3346 -0.286,0.6022 -2.774,-1.3187 -2.079,-0.8402 z m 6.683,3.1131 2.276,1.3128 2.211,1.623 -0.395,0.5372 -2.149,-1.5827 -2.276,-1.3128 z m 5.965,4.3566 0.622,0.6339 c 0.018,0.0189 0.035,0.04 0.048,0.0628 l 1.087,1.8238 c 0.019,0.0324 0.033,0.0679 0.041,0.1049 l 0.367,1.8269 c 0.007,0.035 0.008,0.07 0.004,0.104 l -0.052,0.455 -0.662,-0.076 0.052,-0.455 0.004,0.104 -0.367,-1.8275 0.04,0.105 -1.086,-1.8238 0.048,0.0629 -0.622,-0.6339 z m 1.889,6.9983 -0.139,1.209 c -0.002,0.023 -0.007,0.046 -0.015,0.069 l -1.221,3.622 c -0.006,0.019 -0.014,0.037 -0.024,0.055 l -0.142,0.257 -0.584,-0.322 0.142,-0.258 -0.024,0.055 1.221,-3.622 -0.015,0.068 0.139,-1.209 z m -2.508,6.963 -0.861,1.557 c -0.008,0.015 -0.017,0.029 -0.027,0.042 l -2.161,2.821 -0.529,-0.405 2.161,-2.822 -0.028,0.042 0.861,-1.558 z m -4.401,5.944 -2.486,2.531 -1.401,1.161 -0.425,-0.513 1.35,-1.116 2.487,-2.53 z m -5.428,4.967 -0.979,0.809 -3.37,2.323 -0.378,-0.549 3.323,-2.287 0.979,-0.81 z m -6.046,4.236 -4.319,2.507 -0.325,0.161 -0.294,-0.599 0.284,-0.138 4.319,-2.508 z m -6.439,3.549 -3.24,1.592 -1.612,0.668 -0.255,-0.616 1.573,-0.65 3.24,-1.592 z m -6.7,3.025 -2.273,0.942 -2.771,0.865 -0.198,-0.636 2.714,-0.845 2.273,-0.942 z m -6.953,2.402 -5.092,1.588 -0.198,-0.637 5.091,-1.587 z m -7.001,2.183 -0.684,0.213 -4.539,0.993 -0.142,-0.651 4.483,-0.978 0.683,-0.213 z m -7.177,1.633 -0.051,0.011 -5.236,0.826 -0.103,-0.659 5.197,-0.818 0.051,-0.012 z m -7.286,1.119 -5.309,0.51 -0.064,-0.663 5.309,-0.511 z m -7.325,0.638 -5.331,0.174 -0.021,-0.666 5.33,-0.175 z M 122.462,65.5753 114.5,61.5001 l 8.037,-3.9245 z"
         fill="#0000ff"
         id="path30" />
      <path
         d="m -149.5,-87.8656 c 0,1.6163 -5.995,3.2327 -11.99,3.2327 -5.995,0 -11.99,-10.0148 -11.99,-20.0301 0,-10.014 7.565,-20.029 15.131,-20.029 7.566,0 15.131,2.596 15.131,5.192"
         stroke="#008080"
         stroke-width="0.666667"
         stroke-linejoin="round"
         stroke-miterlimit="10"
         stroke-dasharray="2.66667, 2"
         fill="none"
         fill-rule="evenodd"
         id="path31" />
      <text
         font-family="'Calibri Light', 'Calibri Light_MSFontService', sans-serif"
         font-weight="300"
         font-size="13px"
         transform="translate(-84.3049,148)"
         id="text31">Argument / Return /</text>
      <text
         font-family="'Calibri Light', 'Calibri Light_MSFontService', sans-serif"
         font-weight="300"
         font-size="13px"
         transform="translate(-24.4715,164)"
         id="text32">(.) Object</text>
      <text
         font-family="'Calibri Light', 'Calibri Light_MSFontService', sans-serif"
         font-weight="300"
         font-size="13px"
         transform="translate(25.2063,-118)"
         id="text33">Type/</text>
      <text
         font-family="'Calibri Light', 'Calibri Light_MSFontService', sans-serif"
         font-weight="300"
         font-size="13px"
         transform="translate(25.2063,-102)"
         id="text34">Namespace</text>
      <path
         d="m 301.171,144.28 10.88,0.184 17.419,0.868 17.144,1.401 16.733,1.894 16.183,2.351 15.497,2.77 14.675,3.15 13.714,3.492 12.618,3.798 11.385,4.065 5.193,2.123 4.829,2.174 4.452,2.223 4.06,2.268 3.65,2.307 3.223,2.344 2.78,2.376 2.32,2.406 1.841,2.433 c 0.01,0.013 0.019,0.027 0.027,0.041 l 1.318,2.417 c 0.01,0.017 0.018,0.036 0.024,0.055 l 0.803,2.426 c 0.008,0.022 0.013,0.045 0.015,0.068 l 0.272,2.431 c 0.002,0.019 0.003,0.037 0.002,0.056 l -0.54,9.677 -1.527,9.408 -2.374,8.799 -3.082,7.887 -1.767,3.518 -1.89,3.169 -1.998,2.791 -2.092,2.376 -2.171,1.923 c -0.013,0.011 -0.027,0.022 -0.042,0.031 l -2.194,1.4 c -0.018,0.012 -0.038,0.022 -0.058,0.029 l -2.23,0.868 c -0.025,0.01 -0.051,0.016 -0.077,0.02 l -2.247,0.298 -0.088,-0.661 2.247,-0.298 -0.077,0.02 2.23,-0.868 -0.059,0.03 2.195,-1.4 -0.042,0.031 2.113,-1.864 2.05,-2.323 1.968,-2.745 1.866,-3.126 1.742,-3.461 3.059,-7.819 2.36,-8.732 1.52,-9.338 0.539,-9.677 10e-4,0.055 -0.271,-2.431 0.015,0.068 -0.804,-2.427 0.024,0.055 -1.318,-2.417 0.026,0.042 -1.789,-2.373 -2.273,-2.361 -2.739,-2.344 -3.187,-2.319 -3.619,-2.289 -4.033,-2.253 -4.428,-2.212 -4.808,-2.165 -5.164,-2.113 -11.353,-4.054 -12.59,-3.79 -13.69,-3.487 -14.652,-3.145 -15.476,-2.766 -16.162,-2.348 -16.712,-1.893 -17.123,-1.399 -17.397,-0.867 -10.88,-0.185 z m 1.26,4.355 -7.931,-4.135 8.067,-3.864 z"
         id="path34" />
      <text
         fill="#1d2d35"
         font-family="'Calibri Light', 'Calibri Light_MSFontService', sans-serif"
         font-weight="300"
         font-size="13px"
         transform="translate(26.3108,-279)"
         id="text35">BF Data Type (_DAT) Bugs Model</text>
      <text
         fill="#7f7f7f"
         font-family="'Calibri Light', 'Calibri Light_MSFontService', sans-serif"
         font-weight="300"
         font-size="12px"
         transform="translate(-243.493,310)"
         id="text36">BF, I. Bojanova</text>
      <path
         d="m -255.167,-231.166 v 551.285 h -0.666 v -551.285 z m -0.333,-0.001 -4,2.667 4,-8 4,8 z"
         id="path36" />
      <text
         font-family="'Calibri Light', 'Calibri Light_MSFontService', sans-serif"
         font-weight="300"
         font-size="13px"
         transform="translate(-272.337,-265)"
         id="text37">S</text>
      <text
         font-family="'Calibri Light', 'Calibri Light_MSFontService', sans-serif"
         font-weight="300"
         font-size="13px"
         transform="translate(-266.337,-265)"
         id="text38">pace</text>
      <text
         font-family="'Calibri Light', 'Calibri Light_MSFontService', sans-serif"
         font-weight="300"
         font-size="13px"
         transform="translate(-294.67,-249)"
         id="text39">Interpretation</text>
      <path
         d="m -255.5,168.5 c -4.971,0 -9,-9.533 -9,-21.292 V 52.0844 c 0,-11.7592 -4.03,-21.2919 -9,-21.2919 4.97,0 9,-9.5327 9,-21.29193 V -86.2081 c 0,-11.7592 4.029,-21.2919 9,-21.2919"
         stroke="#454545"
         stroke-width="0.666667"
         stroke-miterlimit="8"
         fill="none"
         fill-rule="evenodd"
         id="path39" />
      <text
         font-family="'Calibri Light', 'Calibri Light_MSFontService', sans-serif"
         font-weight="300"
         font-size="13px"
         transform="translate(-319.571,-14)"
         id="text40">Object</text>
      <text
         font-family="'Calibri Light', 'Calibri Light_MSFontService', sans-serif"
         font-weight="300"
         font-size="13px"
         transform="translate(-319.984,2)"
         id="text41">Layout</text>
      <text
         font-family="'Calibri Light', 'Calibri Light_MSFontService', sans-serif"
         font-weight="300"
         font-size="13px"
         transform="translate(-324.748,64)"
         id="text42">Elements</text>
      <text
         font-family="'Calibri Light', 'Calibri Light_MSFontService', sans-serif"
         font-weight="300"
         font-size="13px"
         transform="translate(-310.248,80)"
         id="text43">Size</text>
    </g>
  </g>
</svg>
