<?xml version="1.0" encoding="UTF-8" standalone="no"?>
<!-- Created with Inkscape (http://www.inkscape.org/) -->

<svg
   width="209.46472mm"
   height="146.75009mm"
   viewBox="0 0 209.4647 146.75008"
   version="1.1"
   id="svg1"
   xml:space="preserve"
   sodipodi:docname="_DAT.svg"
   inkscape:version="1.3 (0e150ed6c4, 2023-07-21)"
   xmlns:inkscape="http://www.inkscape.org/namespaces/inkscape"
   xmlns:sodipodi="http://sodipodi.sourceforge.net/DTD/sodipodi-0.dtd"
   xmlns="http://www.w3.org/2000/svg"
   xmlns:svg="http://www.w3.org/2000/svg"><sodipodi:namedview
     id="namedview1"
     pagecolor="#ffffff"
     bordercolor="#000000"
     borderopacity="0.25"
     inkscape:showpageshadow="2"
     inkscape:pageopacity="0.0"
     inkscape:pagecheckerboard="0"
     inkscape:deskcolor="#d1d1d1"
     inkscape:document-units="mm"
     inkscape:zoom="1.7041198"
     inkscape:cx="395.5121"
     inkscape:cy="276.68242"
     inkscape:window-width="2560"
     inkscape:window-height="1377"
     inkscape:window-x="-8"
     inkscape:window-y="859"
     inkscape:window-maximized="1"
     inkscape:current-layer="layer1" /><defs
     id="defs1"><clipPath
       clipPathUnits="userSpaceOnUse"
       id="clipPath594"><path
         d="M 0,0 H 717 V 334 H 0 Z"
         id="path592" /></clipPath><clipPath
       id="clip0"><rect
         x="104"
         y="143"
         width="985"
         height="489"
         id="rect685" /></clipPath><clipPath
       id="clip0-9"><rect
         x="122"
         y="272"
         width="912"
         height="352"
         id="rect908" /></clipPath><clipPath
       id="clip0-4"><rect
         x="122"
         y="272"
         width="912"
         height="317"
         id="rect1246" /></clipPath><clipPath
       id="clip0-7"><rect
         x="122"
         y="272"
         width="928"
         height="352"
         id="rect1" /></clipPath><clipPath
       id="clip0-6"><rect
         x="122"
         y="272"
         width="926"
         height="321"
         id="rect1-5" /></clipPath><clipPath
       id="clip0-0"><rect
         x="122"
         y="272"
         width="919"
         height="321"
         id="rect1-4" /></clipPath><clipPath
       id="clip0-90"><rect
         x="121"
         y="270"
         width="913"
         height="355"
         id="rect1-7" /></clipPath><clipPath
       id="clip0-60"><rect
         x="121"
         y="270"
         width="913"
         height="301"
         id="rect1-3" /></clipPath><clipPath
       id="clip0-07"><rect
         x="352"
         y="301"
         width="378"
         height="504"
         id="rect1-8" /></clipPath><clipPath
       id="clip0-98"><rect
         x="121"
         y="270"
         width="913"
         height="301"
         id="rect1-87" /></clipPath><clipPath
       id="clip0-3"><rect
         x="121"
         y="270"
         width="920"
         height="293"
         id="rect1-876" /></clipPath><clipPath
       id="clip0-5"><rect
         x="95"
         y="267"
         width="896"
         height="547"
         id="rect1-2" /></clipPath><clipPath
       id="clip0-63"><rect
         x="95"
         y="267"
         width="864"
         height="433"
         id="rect1-21" /></clipPath><clipPath
       id="clip0-1"><rect
         x="33"
         y="-1"
         width="1182"
         height="611"
         id="rect1-50" /></clipPath><clipPath
       id="clip0-52"><rect
         x="320"
         y="-1"
         width="728"
         height="559"
         id="rect1-9" /></clipPath><clipPath
       id="clip0-68"><rect
         x="320"
         y="-1"
         width="728"
         height="544"
         id="rect1-97" /></clipPath><clipPath
       id="clip0-10"><rect
         x="320"
         y="39"
         width="728"
         height="504"
         id="rect1-6" /></clipPath><clipPath
       id="clip0-37"><rect
         x="270"
         y="350"
         width="728"
         height="440"
         id="rect1-51" /></clipPath><clipPath
       id="clip0-41"><rect
         x="270"
         y="318"
         width="728"
         height="472"
         id="rect1-57" /></clipPath><clipPath
       id="clip0-50"><rect
         x="320"
         y="39"
         width="728"
         height="504"
         id="rect1-98" /></clipPath><clipPath
       id="clip0-48"><rect
         x="320"
         y="71"
         width="728"
         height="472"
         id="rect1-0" /></clipPath><clipPath
       id="clip0-02"><rect
         x="320"
         y="39"
         width="728"
         height="504"
         id="rect1-09" /></clipPath><clipPath
       id="clip0-59"><rect
         x="320"
         y="71"
         width="728"
         height="472"
         id="rect1-04" /></clipPath><clipPath
       id="clip0-16"><rect
         x="320"
         y="71"
         width="728"
         height="472"
         id="rect1-35" /></clipPath><clipPath
       id="clip0-8"><rect
         x="121"
         y="270"
         width="913"
         height="278"
         id="rect1-54" /></clipPath><clipPath
       id="clip0-76"><rect
         x="121"
         y="270"
         width="913"
         height="278"
         id="rect1-06" /></clipPath><clipPath
       id="clip0-106"><rect
         x="121"
         y="270"
         width="913"
         height="278"
         id="rect1-874" /></clipPath><clipPath
       id="clip0-94"><rect
         x="348"
         y="312"
         width="382"
         height="449"
         id="rect1-25" /></clipPath><clipPath
       id="clip0-64"><rect
         x="121"
         y="270"
         width="913"
         height="278"
         id="rect1-62" /></clipPath><clipPath
       id="clip0-47"><rect
         x="95"
         y="267"
         width="896"
         height="547"
         id="rect1-63" /></clipPath><clipPath
       id="clip0-71"><rect
         x="146"
         y="266"
         width="857"
         height="282"
         id="rect1-92" /></clipPath><clipPath
       id="clip0-57"><rect
         x="177"
         y="266"
         width="747"
         height="385"
         id="rect1-22" /></clipPath><clipPath
       id="clip0-102"><rect
         x="186"
         y="271"
         width="702"
         height="380"
         id="rect1-926" /></clipPath><clipPath
       id="clip0-77"><rect
         x="186"
         y="271"
         width="702"
         height="380"
         id="rect1-224" /></clipPath><clipPath
       id="clip0-482"><rect
         x="186"
         y="274"
         width="661"
         height="377"
         id="rect1-08" /></clipPath><clipPath
       id="clip0-04"><rect
         x="167"
         y="266"
         width="819"
         height="282"
         id="rect1-34" /></clipPath><clipPath
       id="clip0-56"><rect
         x="163"
         y="265"
         width="799"
         height="282"
         id="rect1-47" /></clipPath><clipPath
       id="clip0-2"><rect
         x="351"
         y="273"
         width="638"
         height="472"
         id="rect1-1" /></clipPath><clipPath
       id="clip0-93"><rect
         x="351"
         y="241"
         width="638"
         height="504"
         id="rect1-77" /></clipPath><clipPath
       id="clip0-49"><rect
         x="351"
         y="241"
         width="638"
         height="504"
         id="rect1-981" /></clipPath><clipPath
       id="clip0-31"><rect
         x="193"
         y="272"
         width="654"
         height="379"
         id="rect1-05" /></clipPath><clipPath
       id="clip0-938"><rect
         x="193"
         y="272"
         width="654"
         height="379"
         id="rect1-12" /></clipPath><clipPath
       id="clip0-85"><rect
         x="163"
         y="265"
         width="805"
         height="282"
         id="rect1-257" /></clipPath><clipPath
       id="clip0-83"><rect
         x="193"
         y="272"
         width="641"
         height="380"
         id="rect1-068" /></clipPath><clipPath
       id="clip0-44"><rect
         x="163"
         y="265"
         width="805"
         height="282"
         id="rect1-923" /></clipPath><clipPath
       id="clip0-412"><rect
         x="193"
         y="272"
         width="641"
         height="380"
         id="rect1-49" /></clipPath><clipPath
       id="clip0-483"><rect
         x="351"
         y="241"
         width="639"
         height="458"
         id="rect1-357" /></clipPath><clipPath
       id="clip0-32"><rect
         x="351"
         y="241"
         width="639"
         height="458"
         id="rect1-15" /></clipPath><clipPath
       id="clip0-045"><rect
         x="163"
         y="265"
         width="805"
         height="282"
         id="rect1-01" /></clipPath><clipPath
       id="clip0-97"><rect
         x="216"
         y="229"
         width="621"
         height="318"
         id="rect1-03" /></clipPath><clipPath
       id="clip0-87"><rect
         x="216"
         y="229"
         width="621"
         height="318"
         id="rect1-66" /></clipPath><clipPath
       id="clip0-26"><rect
         x="-19"
         y="165"
         width="814"
         height="597"
         id="rect1-73" /></clipPath><clipPath
       id="clip0-89"><rect
         x="77"
         y="89"
         width="762"
         height="777"
         id="rect1-40" /></clipPath><clipPath
       id="clip0-91"><rect
         x="216"
         y="229"
         width="621"
         height="318"
         id="rect1-229" /></clipPath><clipPath
       id="clip0-569"><rect
         x="77"
         y="89"
         width="762"
         height="777"
         id="rect1-639" /></clipPath><clipPath
       id="clip0-15"><rect
         x="78"
         y="188"
         width="853"
         height="609"
         id="rect1-215" /></clipPath><clipPath
       id="clip0-06"><rect
         x="254"
         y="1081"
         width="539"
         height="418"
         id="rect1-342" /></clipPath><clipPath
       id="clip0-30"><rect
         x="351"
         y="241"
         width="639"
         height="458"
         id="rect1-42" /></clipPath><clipPath
       id="clip0-12"><rect
         x="78"
         y="188"
         width="853"
         height="609"
         id="rect1-02" /></clipPath><clipPath
       id="clip0-79"><rect
         x="83"
         y="188"
         width="846"
         height="539"
         id="rect1-778" /></clipPath><clipPath
       id="clip0-73"><rect
         x="83"
         y="194"
         width="846"
         height="533"
         id="rect1-52" /></clipPath><clipPath
       id="clip0-23"><rect
         x="194"
         y="23"
         width="771"
         height="791"
         id="rect1-150" /></clipPath><clipPath
       id="clip0-39"><rect
         x="194"
         y="48"
         width="771"
         height="766"
         id="rect1-025" /></clipPath><clipPath
       id="clip0-419"><rect
         x="194"
         y="48"
         width="771"
         height="766"
         id="rect1-779" /></clipPath><clipPath
       id="clip0-906"><rect
         x="214"
         y="227"
         width="675"
         height="300"
         id="rect1-59" /></clipPath><clipPath
       id="clip0-078"><rect
         x="77"
         y="118"
         width="763"
         height="748"
         id="rect1-88" /></clipPath><clipPath
       id="clip0-042"><rect
         x="-21"
         y="196"
         width="816"
         height="562"
         id="rect1-501" /></clipPath><clipPath
       id="clip0-604"><rect
         x="783"
         y="154"
         width="601"
         height="303"
         id="rect1-504" /></clipPath><clipPath
       id="clip0-38"><rect
         x="82"
         y="118"
         width="758"
         height="748"
         id="rect1-032" /></clipPath><clipPath
       id="clip0-25"><rect
         x="214"
         y="227"
         width="675"
         height="300"
         id="rect1-64" /></clipPath><clipPath
       id="clip0-65"><rect
         x="18"
         y="-1"
         width="1173"
         height="1915"
         id="rect1-36" /></clipPath><clipPath
       id="clip0-711"><rect
         x="95"
         y="267"
         width="856"
         height="440"
         id="rect1-10" /></clipPath><clipPath
       id="clip0-84"><rect
         x="121"
         y="270"
         width="913"
         height="285"
         id="rect1-89" /></clipPath><clipPath
       id="clip0-09"><rect
         x="121"
         y="270"
         width="913"
         height="285"
         id="rect1-56" /></clipPath><clipPath
       id="clip0-126"><rect
         x="95"
         y="267"
         width="856"
         height="440"
         id="rect1-122" /></clipPath><clipPath
       id="clip0-4127"><rect
         x="15"
         y="214"
         width="922"
         height="833"
         id="rect1-28" /></clipPath><clipPath
       id="clip0-0459"><rect
         x="15"
         y="214"
         width="922"
         height="833"
         id="rect1-91" /></clipPath><clipPath
       id="clip0-169"><rect
         x="197"
         y="48"
         width="760"
         height="632"
         id="rect1-087" /></clipPath><clipPath
       id="clip0-262"><rect
         x="18"
         y="2"
         width="1173"
         height="1747"
         id="rect1-017" /></clipPath><clipPath
       id="clip0-61"><rect
         x="18"
         y="2"
         width="1173"
         height="1747"
         id="rect1-53" /></clipPath><clipPath
       id="clip0-326"><rect
         x="18"
         y="34"
         width="1460"
         height="1196"
         id="rect1-024" /></clipPath><clipPath
       id="clip0-0451"><rect
         x="18"
         y="34"
         width="1460"
         height="1196"
         id="rect1-429" /></clipPath><clipPath
       id="clip0-82"><rect
         x="18"
         y="46"
         width="1460"
         height="1025"
         id="rect1-24" /></clipPath><clipPath
       id="clip0-617"><rect
         x="-79"
         y="46"
         width="1555"
         height="994"
         id="rect1-885" /></clipPath><clipPath
       id="clip0-601"><rect
         x="18"
         y="46"
         width="1414"
         height="994"
         id="rect1-13" /></clipPath><clipPath
       id="clip0-849"><rect
         x="18"
         y="46"
         width="1414"
         height="994"
         id="rect1-46" /></clipPath><clipPath
       id="clip0-66"><rect
         x="18"
         y="46"
         width="1407"
         height="994"
         id="rect1-498" /></clipPath><clipPath
       id="clip0-69"><rect
         x="18"
         y="2"
         width="1173"
         height="1747"
         id="rect1-68" /></clipPath><clipPath
       id="clip0-22"><rect
         x="82"
         y="118"
         width="758"
         height="748"
         id="rect1-3571" /></clipPath><clipPath
       id="clip0-870"><rect
         x="214"
         y="243"
         width="675"
         height="284"
         id="rect1-927" /></clipPath><clipPath
       id="clip0-14"><rect
         x="-21"
         y="196"
         width="816"
         height="562"
         id="rect1-96" /></clipPath><clipPath
       id="clip0-098"><rect
         x="197"
         y="53"
         width="760"
         height="627"
         id="rect1-43" /></clipPath><clipPath
       id="clip0-851"><rect
         x="77"
         y="118"
         width="763"
         height="748"
         id="rect1-570" /></clipPath><clipPath
       id="clip0-4831"><rect
         x="18"
         y="46"
         width="1366"
         height="973"
         id="rect1-515" /></clipPath><clipPath
       id="clip0-857"><rect
         x="18"
         y="2"
         width="1173"
         height="1747"
         id="rect1-79" /></clipPath><clipPath
       id="clip0-446"><rect
         x="18"
         y="2"
         width="1173"
         height="1747"
         id="rect1-047" /></clipPath><clipPath
       id="clip0-446-3"><rect
         x="18"
         y="2"
         width="1173"
         height="1747"
         id="rect1-047-8" /></clipPath><clipPath
       id="clip0-267"><rect
         x="83"
         y="188"
         width="846"
         height="539"
         id="rect1-69" /></clipPath><clipPath
       id="clip0-33"><rect
         x="83"
         y="188"
         width="846"
         height="539"
         id="rect1-17" /></clipPath><clipPath
       id="clip0-717"><rect
         x="83"
         y="188"
         width="846"
         height="539"
         id="rect1-963" /></clipPath><clipPath
       id="clip0-165"><rect
         x="214"
         y="243"
         width="675"
         height="284"
         id="rect1-00" /></clipPath><clipPath
       id="clip0-51"><rect
         x="-21"
         y="196"
         width="816"
         height="562"
         id="rect1-71" /></clipPath><clipPath
       id="clip0-318"><rect
         x="77"
         y="118"
         width="763"
         height="748"
         id="rect1-888" /></clipPath><clipPath
       id="clip0-376"><rect
         x="77"
         y="118"
         width="763"
         height="748"
         id="rect1-426" /></clipPath><clipPath
       id="clip0-836"><rect
         x="77"
         y="118"
         width="763"
         height="748"
         id="rect1-021" /></clipPath><clipPath
       id="clip0-308"><rect
         x="121"
         y="222"
         width="913"
         height="333"
         id="rect1-33" /></clipPath><clipPath
       id="clip0-161"><rect
         x="83"
         y="194"
         width="846"
         height="533"
         id="rect1-462" /></clipPath><clipPath
       id="clip0-689"><rect
         x="18"
         y="46"
         width="1366"
         height="973"
         id="rect1-16" /></clipPath><clipPath
       id="clip0-764"><rect
         x="18"
         y="46"
         width="1366"
         height="973"
         id="rect1-892" /></clipPath><clipPath
       id="clip0-226"><rect
         x="18"
         y="46"
         width="1366"
         height="973"
         id="rect1-050" /></clipPath><clipPath
       id="clip0-389"><rect
         x="18"
         y="46"
         width="1366"
         height="973"
         id="rect1-634" /></clipPath><clipPath
       id="clip0-36"><rect
         x="18"
         y="46"
         width="1366"
         height="973"
         id="rect1-30" /></clipPath><clipPath
       id="clip0-34"><rect
         x="95"
         y="267"
         width="856"
         height="440"
         id="rect1-72" /></clipPath><clipPath
       id="clip0-6019"><rect
         x="18"
         y="17"
         width="1366"
         height="1002"
         id="rect1-726" /></clipPath><clipPath
       id="clip0-74"><rect
         x="-205"
         y="34"
         width="1396"
         height="1629"
         id="rect1-126" /></clipPath><clipPath
       id="clip0-81"><rect
         x="-157"
         y="34"
         width="1348"
         height="1629"
         id="rect1-94" /></clipPath><clipPath
       id="clip0-680"><rect
         x="-18"
         y="30"
         width="1402"
         height="989"
         id="rect1-95" /></clipPath><clipPath
       id="clip0-795"><rect
         x="-18"
         y="30"
         width="1402"
         height="1010"
         id="rect1-220" /></clipPath><clipPath
       id="clip0-2261"><rect
         x="197"
         y="27"
         width="760"
         height="653"
         id="rect1-502" /></clipPath><clipPath
       id="clip0-560"><rect
         x="-157"
         y="34"
         width="1348"
         height="1629"
         id="rect1-84" /></clipPath><clipPath
       id="clip0-75"><rect
         x="84"
         y="72"
         width="913"
         height="333"
         id="rect1-476" /></clipPath><clipPath
       id="clip0-075"><rect
         x="80"
         y="497"
         width="846"
         height="532"
         id="rect1-090" /></clipPath><clipPath
       id="clip0-227"><rect
         x="80"
         y="497"
         width="842"
         height="532"
         id="rect1-002" /></clipPath><clipPath
       id="clip0-58"><rect
         x="18"
         y="17"
         width="1366"
         height="1002"
         id="rect1-490" /></clipPath><clipPath
       id="clip0-771"><rect
         x="84"
         y="72"
         width="913"
         height="333"
         id="rect1-5015" /></clipPath><clipPath
       id="clip0-378"><rect
         x="80"
         y="497"
         width="842"
         height="532"
         id="rect1-911" /></clipPath><clipPath
       id="clip0-19"><rect
         x="80"
         y="497"
         width="798"
         height="493"
         id="rect1-082" /></clipPath><clipPath
       id="clip0-811"><rect
         x="639"
         y="102"
         width="625"
         height="573"
         id="rect1-729" /></clipPath><clipPath
       id="clip0-516"><rect
         x="80"
         y="497"
         width="798"
         height="496"
         id="rect1-105" /></clipPath><clipPath
       id="clip0-46"><rect
         x="106"
         y="31"
         width="918"
         height="1323"
         id="rect1-795" /></clipPath><clipPath
       id="clip0-914"><rect
         x="106"
         y="31"
         width="918"
         height="1283"
         id="rect1-26" /></clipPath><clipPath
       id="clip0-40"><rect
         x="-159"
         y="33"
         width="1350"
         height="1635"
         id="rect1-61" /></clipPath><clipPath
       id="clip0-29"><rect
         x="-159"
         y="33"
         width="1350"
         height="1635"
         id="rect1-983" /></clipPath><clipPath
       id="clip0-28"><rect
         x="-159"
         y="33"
         width="1350"
         height="1602"
         id="rect1-11" /></clipPath><clipPath
       id="clip0-01"><rect
         x="-165"
         y="-3"
         width="1356"
         height="1887"
         id="rect1-890" /></clipPath><clipPath
       id="clip0-220"><rect
         x="214"
         y="242"
         width="677"
         height="289"
         id="rect1-55" /></clipPath><clipPath
       id="clip0-777"><rect
         x="279"
         y="641"
         width="626"
         height="245"
         id="rect1-23" /></clipPath><clipPath
       id="clip0-763"><rect
         x="-21"
         y="196"
         width="814"
         height="566"
         id="rect1-064" /></clipPath></defs><g
     inkscape:label="Layer 1"
     inkscape:groupmode="layer"
     id="layer1"
     transform="translate(-63.102632,-125.83403)"><g
       clip-path="url(#clip0-763)"
       transform="matrix(0.26458333,0,0,0.26458333,66.76268,73.58076)"
       id="g40"><rect
         x="66.500099"
         y="309.5"
         width="16"
         height="14"
         stroke="#000000"
         stroke-width="0.666667"
         stroke-miterlimit="8"
         fill="none"
         id="rect2" /><path
         d="m 30.5001,276.592 c 0,-8.887 7.2044,-16.092 16.0916,-16.092 H 177.408 c 8.888,0 16.092,7.205 16.092,16.092 v 85.816 c 0,8.888 -7.204,16.092 -16.092,16.092 H 46.5917 c -8.8872,0 -16.0916,-7.204 -16.0916,-16.092 z"
         stroke="#7b7b7b"
         stroke-width="0.666667"
         stroke-miterlimit="8"
         fill="#f2f2f2"
         fill-rule="evenodd"
         id="path2" /><text
         font-family="'Calibri Light', 'Calibri Light_MSFontService', sans-serif"
         font-weight="300"
         font-size="13px"
         transform="translate(90.3896,277)"
         id="text2">DCL (entity)</text><path
         d="m 47.5001,295.667 c 0,-2.301 1.8655,-4.167 4.1667,-4.167 h 58.6662 c 2.302,0 4.167,1.866 4.167,4.167 v 16.666 c 0,2.302 -1.865,4.167 -4.167,4.167 H 51.6668 c -2.3012,0 -4.1667,-1.865 -4.1667,-4.167 z"
         stroke="#000000"
         stroke-width="0.666667"
         stroke-miterlimit="8"
         fill="#ffffff"
         fill-rule="evenodd"
         id="path3" /><text
         font-family="'Calibri Light', 'Calibri Light_MSFontService', sans-serif"
         font-weight="300"
         font-size="13px"
         transform="translate(59.9759,308)"
         id="text3">Declare</text><path
         d="m 114.5,346.667 c 0,-2.301 1.866,-4.167 4.167,-4.167 h 58.666 c 2.302,0 4.167,1.866 4.167,4.167 v 16.666 c 0,2.302 -1.865,4.167 -4.167,4.167 h -58.666 c -2.301,0 -4.167,-1.865 -4.167,-4.167 z"
         stroke="#000000"
         stroke-width="0.666667"
         stroke-miterlimit="8"
         fill="#ffffff"
         fill-rule="evenodd"
         id="path4" /><text
         font-family="'Calibri Light', 'Calibri Light_MSFontService', sans-serif"
         font-weight="300"
         font-size="13px"
         transform="translate(130.009,359)"
         id="text4">Define</text><path
         d="m 0.0172184,-0.332888 3.6250016,0.1875 3.65889,0.565997 7.04569,2.135431 c 0.0188,0.0057 0.0371,0.01307 0.0546,0.02197 l 6.5,3.3125 c 0.016,0.00816 0.0314,0.01764 0.0458,0.02828 l 5.875,4.31251 c 0.0153,0.0112 0.0297,0.0238 0.0429,0.0374 l 4.9375,5.125 c 0.0132,0.0137 0.0252,0.0285 0.0358,0.0443 l 3.8125,5.625 c 0.0104,0.0152 0.0194,0.0314 0.0271,0.0481 l 1.375,3 c 0.0079,0.0173 0.0144,0.0352 0.0192,0.0535 l 0.7391,2.7894 -0.6444,0.1707 -0.7391,-2.7893 0.0192,0.0535 -1.375,-3 0.0271,0.0481 -3.8125,-5.625 0.0358,0.0443 -4.9375,-5.125 0.0429,0.0374 -5.875,-4.31249 0.0458,0.02828 -6.5,-3.3125 0.0546,0.02197 L 7.19889,1.07939 3.60778,0.520388 -0.0172184,0.332888 Z M 41.1886,25.0167 38.6732,33.6 33.3158,26.4377 Z"
         fill="#454545"
         transform="matrix(0,1,1,0,81.5001,316.5)"
         id="path5" /><path
         d="M 0.00732424,-0.333253 11.3823,-0.0832529 22.7095,0.667397 33.8479,1.85605 l 10.887,1.564 10.4528,2.00257 10.0764,2.37796 9.5741,2.62802 8.8915,2.9424 8.2058,3.2567 7.3928,3.4452 6.5217,3.636 5.525,3.7657 4.471,3.9636 c 0.014,0.012 0.026,0.0251 0.038,0.0391 l 3.25,4 c 0.022,0.0278 0.04,0.0591 0.053,0.0926 l 0.682,1.8085 -0.624,0.2352 -0.682,-1.8085 0.053,0.0926 -3.25,-4 0.038,0.0391 L 111,28.0254 105.525,24.2911 99.0467,20.6771 91.6895,17.2473 83.5203,14.004 74.6618,11.0714 65.1109,8.44942 55.0623,6.07738 44.6401,4.07995 33.7771,2.51895 22.6654,1.3326 11.3677,0.583253 -0.00732424,0.333253 Z M 122.957,35.0024 l -1.36,8.8403 -6.256,-6.3919 z"
         fill="#454545"
         transform="matrix(0,1,1,0,-13.5,197.5)"
         id="path6" /><path
         d="m 193.5,395.592 c 0,-8.887 7.205,-16.092 16.092,-16.092 h 130.816 c 8.888,0 16.092,7.205 16.092,16.092 v 85.816 c 0,8.888 -7.204,16.092 -16.092,16.092 H 209.592 c -8.887,0 -16.092,-7.204 -16.092,-16.092 z"
         stroke="#7b7b7b"
         stroke-width="0.666667"
         stroke-miterlimit="8"
         fill="#f2f2f2"
         fill-rule="evenodd"
         id="path7" /><text
         font-family="'Calibri Light', 'Calibri Light_MSFontService', sans-serif"
         font-weight="300"
         font-size="13px"
         transform="translate(225.945,395)"
         id="text7">NRS (entity name)</text><path
         d="m 204.5,413.667 c 0,-2.301 1.866,-4.167 4.167,-4.167 h 58.666 c 2.302,0 4.167,1.866 4.167,4.167 v 16.666 c 0,2.302 -1.865,4.167 -4.167,4.167 h -58.666 c -2.301,0 -4.167,-1.865 -4.167,-4.167 z"
         stroke="#cc00ff"
         stroke-width="0.666667"
         stroke-miterlimit="8"
         fill="#ffffff"
         fill-rule="evenodd"
         id="path8" /><text
         font-family="'Calibri Light', 'Calibri Light_MSFontService', sans-serif"
         font-weight="300"
         font-size="13px"
         transform="translate(222.833,426)"
         id="text8">Refer</text><path
         d="m 271.5,464.667 c 0,-2.301 1.866,-4.167 4.167,-4.167 h 58.666 c 2.302,0 4.167,1.866 4.167,4.167 v 16.666 c 0,2.302 -1.865,4.167 -4.167,4.167 h -58.666 c -2.301,0 -4.167,-1.865 -4.167,-4.167 z"
         stroke="#008080"
         stroke-width="0.666667"
         stroke-miterlimit="8"
         fill="#ffffff"
         fill-rule="evenodd"
         id="path9" /><text
         font-family="'Calibri Light', 'Calibri Light_MSFontService', sans-serif"
         font-weight="300"
         font-size="13px"
         transform="translate(294.866,477)"
         id="text9">Call</text><path
         d="m 0.0172184,-0.332888 3.6250016,0.1875 3.65889,0.565997 7.04569,2.135431 c 0.0188,0.0057 0.0371,0.01307 0.0546,0.02197 l 6.5,3.3125 c 0.016,0.00816 0.0314,0.01764 0.0458,0.02828 l 5.875,4.31251 c 0.0153,0.0112 0.0297,0.0238 0.0429,0.0374 l 4.9375,5.125 c 0.0132,0.0137 0.0252,0.0285 0.0358,0.0443 l 3.8125,5.625 c 0.0104,0.0152 0.0194,0.0314 0.0271,0.0481 l 1.375,3 c 0.0079,0.0173 0.0144,0.0352 0.0192,0.0535 l 0.7391,2.7894 -0.6444,0.1707 -0.7391,-2.7893 0.0192,0.0535 -1.375,-3 0.0271,0.0481 -3.8125,-5.625 0.0358,0.0443 -4.9375,-5.125 0.0429,0.0374 -5.875,-4.31249 0.0458,0.02828 -6.5,-3.3125 0.0546,0.02197 L 7.19889,1.07939 3.60778,0.520388 -0.0172184,0.332888 Z M 41.1886,25.0167 38.6732,33.6 33.3158,26.4377 Z"
         fill="#454545"
         transform="matrix(0,1,1,0,237.5,434.5)"
         id="path10" /><path
         d="m 186.595,438.141 -8.59,-1.019 -7.531,-1.63 -7.338,-2.194 -7.085,-2.695 -6.774,-3.198 -6.397,-3.636 -6.021,-4.013 -5.522,-4.391 -5.021,-4.706 -4.334,-4.897 -3.77,-5.213 -2.959,-5.346 -2.267,-5.472 c -0.006,-0.016 -0.012,-0.033 -0.016,-0.051 l -1.313,-5.562 c -0.003,-0.016 -0.006,-0.032 -0.007,-0.048 l -0.482,-5.541 0.664,-0.058 0.482,5.541 -0.008,-0.047 1.313,5.562 -0.017,-0.051 2.234,5.404 2.916,5.279 3.73,5.161 4.29,4.853 4.98,4.67 5.477,4.358 5.98,3.988 6.353,3.613 6.726,3.178 7.039,2.679 7.288,2.182 7.469,1.619 8.589,1.019 z m -1.116,-4.386 7.815,4.349 -8.168,3.643 z"
         fill="#454545"
         id="path11" /><path
         d="m 512.899,677.712 -3.397,-0.084 -10.021,-0.876 -9.952,-1.314 -9.956,-1.878 -9.829,-2.379 -9.764,-2.816 -9.641,-3.318 -9.512,-3.691 -9.329,-4.195 -9.197,-4.504 -8.952,-4.945 -8.762,-5.32 -16.768,-11.699 -15.647,-12.954 -14.457,-14.017 -6.703,-7.454 -6.321,-7.636 -5.885,-7.824 -5.509,-8.075 -5.071,-8.2 -4.633,-8.39 -4.195,-8.513 -3.633,-8.644 -3.193,-8.765 -2.632,-8.831 -2.067,-8.895 -1.504,-8.958 -0.941,-9.02 -0.261,-9.007 0.666,-0.02 0.258,8.958 0.935,8.979 1.496,8.917 2.057,8.856 2.619,8.793 3.182,8.735 3.616,8.607 4.181,8.486 4.616,8.361 5.055,8.175 5.491,8.05 5.865,7.8 6.304,7.615 6.671,7.421 14.418,13.983 15.604,12.92 16.732,11.676 8.738,5.306 8.923,4.93 9.178,4.495 9.296,4.181 9.488,3.683 9.609,3.308 9.736,2.808 9.796,2.372 9.919,1.872 9.923,1.311 9.979,0.874 3.398,0.084 z m -1.225,-4.365 7.898,4.198 -8.097,3.8 z"
         fill="#454545"
         id="path12" /><path
         d="M -13.5001,731.167 H 699.712 v 0.666 H -13.5001 Z m 713.2111,0.333 -2.667,-4 8,4 -8,4 z"
         id="path13" /><path
         d="m 356.5,512.228 c 0,-8.134 6.594,-14.728 14.728,-14.728 h 133.544 c 8.134,0 14.728,6.594 14.728,14.728 v 78.544 c 0,8.134 -6.594,14.728 -14.728,14.728 H 371.228 c -8.134,0 -14.728,-6.594 -14.728,-14.728 z"
         stroke="#7b7b7b"
         stroke-width="0.666667"
         stroke-miterlimit="8"
         fill="#f2f2f2"
         fill-rule="evenodd"
         id="path14" /><text
         font-family="'Calibri Light', 'Calibri Light_MSFontService', sans-serif"
         font-weight="300"
         font-size="13px"
         transform="translate(404.511,513)"
         id="text14">TCV (object)</text><path
         d="m 404.5,531.667 c 0,-2.301 1.866,-4.167 4.167,-4.167 h 58.666 c 2.302,0 4.167,1.866 4.167,4.167 v 16.666 c 0,2.302 -1.865,4.167 -4.167,4.167 h -58.666 c -2.301,0 -4.167,-1.865 -4.167,-4.167 z"
         stroke="#000000"
         stroke-width="0.666667"
         stroke-miterlimit="8"
         fill="#ffffff"
         fill-rule="evenodd"
         id="path15" /><text
         font-family="'Calibri Light', 'Calibri Light_MSFontService', sans-serif"
         font-weight="300"
         font-size="13px"
         transform="translate(426.118,544)"
         id="text15">Cast</text><path
         d="m 404.5,572.667 c 0,-2.301 1.866,-4.167 4.167,-4.167 h 58.666 c 2.302,0 4.167,1.866 4.167,4.167 v 16.666 c 0,2.302 -1.865,4.167 -4.167,4.167 h -58.666 c -2.301,0 -4.167,-1.865 -4.167,-4.167 z"
         stroke="#000000"
         stroke-width="0.666667"
         stroke-miterlimit="8"
         fill="#ffffff"
         fill-rule="evenodd"
         id="path16" /><text
         font-family="'Calibri Light', 'Calibri Light_MSFontService', sans-serif"
         font-weight="300"
         font-size="13px"
         transform="translate(418.701,584)"
         id="text16">Coerce</text><path
         d="m 519.5,621.092 c 0,-8.059 6.533,-14.592 14.592,-14.592 h 132.817 c 8.058,0 14.591,6.533 14.591,14.592 v 77.817 c 0,8.058 -6.533,14.591 -14.591,14.591 H 534.092 c -8.059,0 -14.592,-6.533 -14.592,-14.591 z"
         stroke="#7b7b7b"
         stroke-width="0.666667"
         stroke-miterlimit="8"
         fill="#f2f2f2"
         fill-rule="evenodd"
         id="path17" /><text
         font-family="'Calibri Light', 'Calibri Light_MSFontService', sans-serif"
         font-weight="300"
         font-size="13px"
         transform="translate(565.2,622)"
         id="text17">TCM (object)</text><path
         d="m 566.5,641.667 c 0,-2.301 1.866,-4.167 4.167,-4.167 h 58.666 c 2.302,0 4.167,1.866 4.167,4.167 v 16.666 c 0,2.302 -1.865,4.167 -4.167,4.167 h -58.666 c -2.301,0 -4.167,-1.865 -4.167,-4.167 z"
         stroke="#000000"
         stroke-width="0.666667"
         stroke-miterlimit="8"
         fill="#ffffff"
         fill-rule="evenodd"
         id="path18" /><text
         font-family="'Calibri Light', 'Calibri Light_MSFontService', sans-serif"
         font-weight="300"
         font-size="13px"
         transform="translate(575.01,653)"
         id="text18">Calculate</text><path
         d="m 566.5,681.667 c 0,-2.301 1.866,-4.167 4.167,-4.167 h 58.666 c 2.302,0 4.167,1.866 4.167,4.167 v 16.666 c 0,2.302 -1.865,4.167 -4.167,4.167 h -58.666 c -2.301,0 -4.167,-1.865 -4.167,-4.167 z"
         stroke="#000000"
         stroke-width="0.666667"
         stroke-miterlimit="8"
         fill="#ffffff"
         fill-rule="evenodd"
         id="path19" /><text
         font-family="'Calibri Light', 'Calibri Light_MSFontService', sans-serif"
         font-weight="300"
         font-size="13px"
         transform="translate(576.76,694)"
         id="text19">Evaluate</text><path
         d="m 397.568,580.924 -8.773,-0.213 -15.454,-1.126 -15.389,-1.814 -15.264,-2.439 -15.141,-3.191 -15.012,-3.753 -14.89,-4.441 -14.575,-5.004 -14.387,-5.567 -14.136,-6.067 -13.763,-6.631 -13.511,-7.131 -13.074,-7.569 -12.699,-8.006 -12.324,-8.508 -11.822,-8.819 -11.386,-9.259 -10.823,-9.571 -10.323,-9.948 -9.698,-10.197 -9.135,-10.511 -8.51,-10.826 -7.823,-11.013 -7.134,-11.201 -6.3845,-11.391 -5.634,-11.58 -4.8831,-11.768 -4.0079,-11.833 -3.2558,-11.894 -2.3183,-12.025 -1.3789,-12.088 -0.4925,-12.026 0.6661,-0.028 0.4888,11.979 1.3712,12.037 2.3067,11.975 3.2442,11.856 3.9921,11.792 4.8669,11.732 5.616,11.545 6.365,11.359 7.116,11.173 7.803,10.987 8.489,10.8 9.115,10.489 9.678,10.177 10.302,9.928 10.802,9.554 11.364,9.241 11.802,8.806 12.301,8.492 12.677,7.993 13.051,7.557 13.489,7.119 13.737,6.619 14.114,6.058 14.362,5.558 14.55,4.996 14.861,4.434 14.987,3.747 15.109,3.184 15.237,2.436 15.36,1.811 15.421,1.124 8.773,0.213 z m -1.228,-4.365 7.901,4.193 -8.095,3.805 z"
         fill="#008080"
         id="path20" /><path
         d="m 512.869,660.462 -8.468,-1.142 -7.471,-1.819 -7.278,-2.446 -7.027,-3.073 -6.711,-3.573 -6.336,-4.077 -5.958,-4.514 -5.52,-4.892 -4.898,-5.272 -4.393,-5.584 -3.645,-5.778 -3.016,-6.029 -2.203,-6.162 -1.387,-6.29 c -0.004,-0.017 -0.006,-0.034 -0.007,-0.051 l -0.384,-6.239 0.666,-0.041 0.383,6.239 -0.007,-0.051 1.363,6.209 2.172,6.088 2.984,5.972 3.605,5.721 4.357,5.542 4.852,5.227 5.48,4.859 5.917,4.486 6.289,4.048 6.664,3.551 6.973,3.052 7.222,2.43 7.404,1.806 8.468,1.142 z m -1.072,-4.396 7.774,4.423 -8.203,3.565 z"
         fill="#454545"
         id="path21" /><path
         d="m 397.427,540.083 -8.964,-0.359 -15.462,-1.752 -15.274,-2.878 -14.896,-3.818 -14.398,-4.819 -13.77,-5.633 -13.083,-6.384 -12.209,-7.136 -11.209,-7.764 -10.146,-8.266 -8.898,-8.707 -7.586,-9.151 -3.267,-4.71 -2.825,-4.77 -2.448,-4.832 -2.072,-4.832 -1.635,-4.901 -1.195,-4.965 -0.694,-4.969 -0.229,-4.922 0.666,-0.03 0.224,4.86 0.681,4.905 1.18,4.911 1.615,4.849 2.053,4.793 2.427,4.793 2.8,4.73 3.233,4.665 7.539,9.099 8.852,8.668 10.104,8.234 11.166,7.736 12.166,7.113 13.042,6.366 13.73,5.618 14.352,4.806 14.854,3.807 15.225,2.872 15.414,1.748 8.963,0.358 z m -1.159,-4.384 7.833,4.317 -8.153,3.677 z"
         fill="#0000ff"
         id="path22" /><path
         d="m 121.171,304.26 15.646,0.219 22.136,1.001 21.759,1.625 21.321,2.126 20.51,2.689 19.697,3.126 18.699,3.627 17.385,3.939 8.197,2.128 7.881,2.189 7.383,2.252 7.071,2.378 6.57,2.378 6.138,2.504 5.634,2.504 5.2,2.569 4.581,2.635 4.141,2.697 3.521,2.702 2.899,2.709 2.34,2.779 c 0.011,0.012 0.02,0.026 0.029,0.04 l 1.688,2.75 c 0.011,0.019 0.021,0.039 0.029,0.06 l 1,2.75 c 0.008,0.022 0.014,0.046 0.017,0.069 l 0.375,2.75 c 0.003,0.024 0.004,0.048 0.002,0.071 l -0.438,5.5 c -10e-4,0.019 -0.004,0.037 -0.009,0.055 l -1.375,5.5 -2.202,5.42 -3.019,5.289 -3.706,5.155 -4.334,4.901 -4.959,4.647 -5.46,4.27 -5.957,4.013 -6.398,3.578 -6.773,3.136 -7.02,2.696 -7.276,2.134 -7.46,1.631 -7.59,1.005 -7.674,0.308 -0.026,-0.666 7.612,-0.303 7.535,-0.996 7.415,-1.619 7.225,-2.116 6.979,-2.679 6.727,-3.113 6.352,-3.548 5.918,-3.987 5.415,-4.23 4.916,-4.603 4.291,-4.849 3.669,-5.095 2.981,-5.211 2.173,-5.33 1.375,-5.5 -0.009,0.055 0.437,-5.5 0.002,0.071 -0.375,-2.75 0.017,0.069 -1,-2.75 0.029,0.06 -1.687,-2.75 0.029,0.041 -2.285,-2.721 -2.851,-2.667 -3.478,-2.673 -4.11,-2.677 -4.544,-2.616 -5.175,-2.556 -5.615,-2.496 -6.113,-2.495 -6.555,-2.373 -7.054,-2.372 -7.367,-2.248 -7.869,-2.186 -8.178,-2.122 -17.364,-3.936 -18.677,-3.623 -19.678,-3.123 -20.49,-2.687 -21.304,-2.124 -21.74,-1.624 -22.115,-1 -15.647,-0.219 z m 1.272,4.352 -7.943,-4.112 8.055,-3.888 z"
         fill="#9900ff"
         id="path23" /><text
         font-family="'Calibri Light', 'Calibri Light_MSFontService', sans-serif"
         font-weight="300"
         font-size="13px"
         transform="translate(245.802,514)"
         id="text23">Object</text><text
         font-family="'Calibri Light', 'Calibri Light_MSFontService', sans-serif"
         font-weight="300"
         font-size="13px"
         transform="translate(249.174,453)"
         id="text24">function</text><text
         font-family="'Calibri Light', 'Calibri Light_MSFontService', sans-serif"
         font-weight="300"
         font-size="13px"
         transform="translate(387.24,297)"
         id="text25">Argument / Return /</text><text
         font-family="'Calibri Light', 'Calibri Light_MSFontService', sans-serif"
         font-weight="300"
         font-size="13px"
         transform="translate(387.24,313)"
         id="text26">(.) Object</text><text
         font-family="'Calibri Light', 'Calibri Light_MSFontService', sans-serif"
         font-weight="300"
         font-size="13px"
         transform="translate(469.11,429)"
         id="text27">Subtype Object</text><path
         d="m 278.17,422.238 28.646,0.304 35.069,1.062 34.507,1.751 33.694,2.375 32.569,2.938 15.817,1.625 15.38,1.814 15.002,1.875 14.568,2.063 14.065,2.125 13.504,2.189 13.005,2.313 12.381,2.439 11.817,2.5 11.131,2.564 10.382,2.627 9.757,2.689 8.947,2.753 8.136,2.816 7.325,2.88 6.454,2.944 5.58,2.946 4.648,2.951 3.719,3.023 c 0.014,0.012 0.028,0.025 0.04,0.039 l 2.625,3 c 0.017,0.019 0.031,0.039 0.043,0.061 l 1.625,3 c 0.016,0.031 0.028,0.064 0.034,0.098 l 0.563,3.063 c 0.005,0.027 0.006,0.054 0.005,0.081 l -0.188,3 -0.567,3.102 c -0.004,0.018 -0.008,0.036 -0.015,0.054 l -2.187,6 c -0.007,0.019 -0.016,0.038 -0.027,0.056 l -3.5,5.875 c -0.008,0.014 -0.018,0.028 -0.028,0.04 l -4.688,5.75 -5.904,5.594 -6.962,5.397 -7.901,5.017 -8.706,4.762 -9.521,4.385 -10.145,3.883 -10.767,3.444 -11.205,2.942 -11.58,2.38 -11.893,1.753 -12.082,1.065 -12.161,0.332 -0.018,-0.667 12.12,-0.33 12.043,-1.06 11.857,-1.746 11.545,-2.371 11.171,-2.933 10.732,-3.431 10.105,-3.867 9.479,-4.364 8.669,-4.739 7.849,-4.982 6.913,-5.354 5.846,-5.531 4.687,-5.75 -0.028,0.04 3.5,-5.875 -0.027,0.056 2.188,-6 -0.015,0.054 0.558,-3.023 0.187,-3 0.005,0.081 -0.562,-3.062 0.034,0.098 -1.625,-3 0.043,0.061 -2.625,-3 0.04,0.039 -3.656,-2.977 -4.602,-2.924 -5.545,-2.929 -6.421,-2.931 -7.3,-2.87 -8.114,-2.809 -8.928,-2.747 -9.743,-2.686 -10.368,-2.623 -11.119,-2.561 -11.808,-2.499 -12.369,-2.437 -12.995,-2.311 -13.496,-2.187 -14.06,-2.125 -14.557,-2.062 -14.998,-1.874 -15.37,-1.812 -15.808,-1.625 -32.556,-2.937 -33.681,-2.375 -34.493,-1.749 -35.056,-1.063 -28.646,-0.304 z m 1.287,4.347 -7.957,-4.085 8.042,-3.915 z"
         fill="#454545"
         id="path27" /><text
         font-family="'Calibri Light', 'Calibri Light_MSFontService', sans-serif"
         font-weight="300"
         font-size="13px"
         transform="translate(439.433,470)"
         id="text28">Argument</text><text
         font-family="'Calibri Light', 'Calibri Light_MSFontService', sans-serif"
         font-weight="300"
         font-size="13px"
         transform="translate(714.425,734)"
         id="text29">Type System</text><text
         font-family="'Calibri Light', 'Calibri Light_MSFontService', sans-serif"
         font-weight="300"
         font-size="13px"
         transform="translate(714.425,750)"
         id="text30">Timeline</text><path
         d="m -6.52185,1.2509 -4.08565,1.01019 0.0494,-0.01638 -3.5625,1.5 -3.472,1.86162 -3.4771,2.23656 -6.7806,5.60161 -6.5325,6.9096 -6.2907,8.1619 -5.9838,9.2895 -5.5489,10.352 -5.1157,11.1688 -4.6801,11.9825 -4.0555,12.6678 -3.4323,13.2321 -2.8087,13.6713 -2.0592,14.043 -1.2477,14.231 -0.4364,14.356 0.1875,7.169 0.5616,7.17 2.1224,14.227 3.4938,14.031 4.6794,13.66 5.8643,13.223 6.8634,12.664 7.7988,11.977 8.6719,11.228 9.4196,10.291 10.043,9.293 10.66381,8.167 11.09867,6.92 11.47012,5.608 5.8477,2.238 5.9187,1.869 5.9804,1.494 5.9773,1.058 5.9764,0.621 6.0417,0.249 12.0402,-0.313 11.9861,-0.812 11.7982,-1.311 11.4849,-1.81 11.1109,-2.248 10.611,-2.622 10.11,-2.996 9.359,-3.307 8.672,-3.556 7.791,-3.866 6.853,-4.05 5.85,-4.234 4.653,-4.409 -0.034,0.037 3.5,-4.5 -0.039,0.064 2.125,-4.562 -0.021,0.062 0.562,-2.313 -0.008,0.052 0.189,-2.343 0.665,0.054 -0.19,2.343 c -0.001,0.017 -0.004,0.035 -0.008,0.052 l -0.563,2.312 c -0.005,0.022 -0.012,0.042 -0.021,0.062 l -2.125,4.563 c -0.011,0.022 -0.024,0.044 -0.039,0.064 l -3.5,4.5 c -0.011,0.013 -0.022,0.025 -0.034,0.037 l -4.722,4.466 -5.9,4.266 -6.897,4.075 -7.834,3.884 -8.703,3.569 -9.391,3.318 -10.14,3.004 -10.639,2.628 -11.139,2.252 -11.5152,1.815 -11.8268,1.314 -12.0139,0.813 -12.0848,0.312 -6.0833,-0.251 -6.0236,-0.629 -6.0227,-1.067 -6.0196,-1.506 -5.9563,-1.881 -5.9023,-2.262 -11.52988,-5.642 -11.15133,-6.955 -10.71119,-8.208 -10.082,-9.332 -9.4554,-10.334 -8.703,-11.272 -7.8263,-12.023 -6.8866,-12.711 -5.8857,-13.277 -4.6956,-13.715 -3.5062,-14.094 -2.1276,-14.273 -0.5634,-7.205 -0.1875,-7.206 0.4386,-14.394 1.2523,-14.269 2.0658,-14.082 2.8164,-13.7037 3.4426,-13.2679 4.0695,-12.7072 4.6949,-12.0175 5.1343,-11.2062 5.5761,-10.398 6.0162,-9.3355 6.3343,-8.2131 6.5925,-6.9654 6.8444,-5.64839 3.5229,-2.26344 3.528,-1.88838 3.5625,-1.5 c 0.016,-0.00673 0.0326,-0.01222 0.0494,-0.01638 L -6.68187,0.60372 Z M -8.47862,-2.84834 0,0 -7.36585,5.07389 Z"
         fill="#008080"
         transform="matrix(0,1,1,0,81.5,291.5)"
         id="path30" /><path
         d="m 345.17,473.237 17.084,0.18 23.567,0.625 23.132,1.063 22.631,1.437 21.88,1.751 21.006,2.063 19.82,2.376 18.569,2.626 8.693,1.375 8.32,1.502 7.94,1.5 7.441,1.501 7.01,1.627 6.567,1.626 6.01,1.69 5.446,1.69 4.95,1.754 4.327,1.756 3.765,1.756 3.152,1.827 2.469,1.833 c 0.013,0.01 0.025,0.02 0.037,0.032 l 1.812,1.812 c 0.02,0.02 0.038,0.043 0.052,0.067 l 1.063,1.813 c 0.018,0.031 0.031,0.065 0.038,0.101 l 0.375,1.812 c 0.008,0.036 0.009,0.072 0.005,0.108 l -0.438,3.625 c -0.002,0.022 -0.007,0.043 -0.014,0.064 l -1.187,3.625 c -0.007,0.02 -0.016,0.04 -0.026,0.059 l -2,3.563 -2.649,3.537 -3.342,3.408 -3.963,3.274 -4.398,3.017 -4.959,2.889 -5.332,2.635 -5.771,2.385 -12.341,3.822 -6.526,1.445 -6.708,1.066 -6.834,0.628 -6.859,0.241 -0.023,-0.666 6.821,-0.239 6.791,-0.622 6.668,-1.059 6.473,-1.43 12.284,-3.803 5.729,-2.365 5.293,-2.615 4.917,-2.861 4.351,-2.983 3.912,-3.226 3.283,-3.341 2.601,-3.464 2,-3.562 -0.026,0.059 1.188,-3.625 -0.014,0.064 0.437,-3.625 0.005,0.108 -0.375,-1.813 0.038,0.101 -1.062,-1.812 0.052,0.067 -1.813,-1.813 0.037,0.032 -2.406,-1.792 -3.098,-1.798 -3.735,-1.744 -4.298,-1.744 -4.925,-1.746 -5.429,-1.685 -5.99,-1.685 -6.558,-1.624 -6.99,-1.623 -7.434,-1.499 -7.935,-1.499 -8.305,-1.499 -8.682,-1.374 -18.556,-2.624 -19.805,-2.375 -20.994,-2.062 -21.87,-1.749 -22.619,-1.437 -23.118,-1.063 -23.557,-0.625 -17.084,-0.179 z m 1.288,4.347 -7.958,-4.084 8.042,-3.915 z"
         fill="#0000ff"
         id="path31" /><path
         d="m 74.5001,323.134 c 0,1.617 -5.7923,3.233 -11.5846,3.233 -5.7922,0 -11.5845,-10.015 -11.5845,-20.029 0,-10.015 7.3628,-20.03 14.7256,-20.03 7.3628,0 14.7257,2.596 14.7257,5.192"
         stroke="#008080"
         stroke-width="0.666667"
         stroke-linejoin="round"
         stroke-miterlimit="10"
         fill="none"
         fill-rule="evenodd"
         id="path32" /><text
         font-family="'Calibri Light', 'Calibri Light_MSFontService', sans-serif"
         font-weight="300"
         font-size="13px"
         transform="translate(139.992,560)"
         id="text32">Argument / Return /</text><text
         font-family="'Calibri Light', 'Calibri Light_MSFontService', sans-serif"
         font-weight="300"
         font-size="13px"
         transform="translate(199.825,576)"
         id="text33">(.) Object</text><text
         font-family="'Calibri Light', 'Calibri Light_MSFontService', sans-serif"
         font-weight="300"
         font-size="13px"
         transform="translate(256.147,295)"
         id="text34">Type/</text><text
         font-family="'Calibri Light', 'Calibri Light_MSFontService', sans-serif"
         font-weight="300"
         font-size="13px"
         transform="translate(256.147,311)"
         id="text35">Namespace</text><path
         d="m 526.172,551.286 10.834,0.193 17.325,0.938 17.072,1.438 16.699,2.002 16.135,2.438 15.45,2.94 14.574,3.315 13.699,3.628 12.579,4.004 11.328,4.256 5.142,2.257 4.82,2.253 4.45,2.319 4.016,2.384 3.641,2.447 3.204,2.45 2.772,2.518 2.333,2.52 1.837,2.531 c 0.01,0.014 0.019,0.028 0.027,0.044 l 1.313,2.562 c 0.008,0.016 0.015,0.032 0.02,0.049 l 0.813,2.5 c 0.007,0.023 0.012,0.047 0.014,0.071 l 0.25,2.562 c 0.002,0.017 0.002,0.034 10e-4,0.051 l -0.562,10.125 -1.503,9.844 -2.382,9.221 -3.073,8.283 -1.761,3.714 -1.888,3.274 -2.013,2.958 -2.083,2.465 -2.151,2.028 c -0.015,0.013 -0.03,0.025 -0.046,0.036 l -2.187,1.437 c -0.018,0.012 -0.036,0.021 -0.055,0.029 l -2.25,0.938 c -0.027,0.011 -0.055,0.019 -0.084,0.022 l -2.248,0.302 -0.089,-0.661 2.248,-0.301 -0.084,0.022 2.25,-0.937 -0.054,0.029 2.187,-1.438 -0.045,0.036 2.099,-1.972 2.041,-2.41 1.987,-2.917 1.862,-3.226 1.739,-3.66 3.052,-8.218 2.369,-9.154 1.496,-9.781 0.563,-10.125 10e-4,0.051 -0.25,-2.563 0.015,0.071 -0.813,-2.5 0.02,0.049 -1.312,-2.562 0.027,0.043 -1.788,-2.469 -2.292,-2.48 -2.728,-2.482 -3.171,-2.425 -3.609,-2.428 -3.984,-2.366 -4.425,-2.306 -4.805,-2.247 -5.108,-2.243 -11.297,-4.244 -12.546,-3.996 -13.676,-3.622 -14.551,-3.31 -15.425,-2.935 -16.115,-2.436 -16.676,-1.999 -17.052,-1.437 -17.301,-0.937 -10.834,-0.194 z m 1.255,4.356 -7.927,-4.142 8.07,-3.856 z"
         id="path35" /><text
         fill="#1d2d35"
         font-family="'Calibri Light', 'Calibri Light_MSFontService', sans-serif"
         font-weight="300"
         font-size="13px"
         transform="translate(316.967,213)"
         id="text36">BF Data Type Bugs Model</text><text
         fill="#7f7f7f"
         font-family="'Calibri Light', 'Calibri Light_MSFontService', sans-serif"
         font-weight="300"
         font-size="12px"
         transform="translate(-13.7144,750)"
         id="text37">BF,</text><text
         fill="#7f7f7f"
         font-family="'Calibri Light', 'Calibri Light_MSFontService', sans-serif"
         font-weight="300"
         font-size="12px"
         transform="translate(3.95223,750)"
         id="text38">I.</text><text
         fill="#7f7f7f"
         font-family="'Calibri Light', 'Calibri Light_MSFontService', sans-serif"
         font-weight="300"
         font-size="12px"
         transform="translate(15.2856,750)"
         id="text39">Bojanova,</text><text
         fill="#7f7f7f"
         font-family="'Calibri Light', 'Calibri Light_MSFontService', sans-serif"
         font-weight="300"
         font-size="12px"
         transform="translate(65.7856,750)"
         id="text40">2022</text></g></g></svg>
