<?xml version="1.0" encoding="UTF-8" standalone="no"?>
<!-- Created with Inkscape (http://www.inkscape.org/) -->

<svg
   width="156.36874mm"
   height="75.865654mm"
   viewBox="0 0 156.36874 75.86565"
   version="1.1"
   id="svg5"
   inkscape:export-filename="_DAT.png"
   inkscape:export-xdpi="96"
   inkscape:export-ydpi="96"
   xml:space="preserve"
   inkscape:version="1.2.2 (b0a8486541, 2022-12-01)"
   sodipodi:docname="_DAT 2.svg"
   xmlns:inkscape="http://www.inkscape.org/namespaces/inkscape"
   xmlns:sodipodi="http://sodipodi.sourceforge.net/DTD/sodipodi-0.dtd"
   xmlns="http://www.w3.org/2000/svg"
   xmlns:svg="http://www.w3.org/2000/svg"><sodipodi:namedview
     id="namedview7"
     pagecolor="#ffffff"
     bordercolor="#000000"
     borderopacity="0.25"
     inkscape:showpageshadow="2"
     inkscape:pageopacity="0.0"
     inkscape:pagecheckerboard="0"
     inkscape:deskcolor="#d1d1d1"
     inkscape:document-units="mm"
     showgrid="false"
     inkscape:zoom="0.914906"
     inkscape:cx="191.27648"
     inkscape:cy="-311.50741"
     inkscape:window-width="2560"
     inkscape:window-height="1377"
     inkscape:window-x="-8"
     inkscape:window-y="797"
     inkscape:window-maximized="1"
     inkscape:current-layer="layer1" /><defs
     id="defs2"><clipPath
       id="clip0"><rect
         x="-25"
         y="0"
         width="785"
         height="1091"
         id="rect9" /></clipPath><clipPath
       id="clip0-8"><rect
         x="-25"
         y="0"
         width="785"
         height="524"
         id="rect520" /></clipPath><clipPath
       id="clip0-3"><rect
         x="-25"
         y="0"
         width="785"
         height="1091"
         id="rect699" /></clipPath><clipPath
       id="clip0-0"><rect
         x="-25"
         y="0"
         width="785"
         height="1091"
         id="rect1109" /></clipPath><clipPath
       id="clip0-4"><rect
         x="-25"
         y="0"
         width="934"
         height="905"
         id="rect1519" /></clipPath><clipPath
       id="clip0-42"><rect
         x="-7"
         y="0"
         width="952"
         height="590"
         id="rect1929" /></clipPath><clipPath
       id="clip0-1"><rect
         x="-25"
         y="0"
         width="785"
         height="1091"
         id="rect2197" /></clipPath><clipPath
       id="clip0-6"><rect
         x="-25"
         y="0"
         width="785"
         height="1091"
         id="rect2806" /></clipPath><clipPath
       id="clip0-66"><rect
         x="11"
         y="-21"
         width="934"
         height="904"
         id="rect3369" /></clipPath><clipPath
       id="clip0-41"><rect
         x="-7"
         y="0"
         width="743"
         height="335"
         id="rect3934" /></clipPath><clipPath
       id="clip0-7"><rect
         x="-7"
         y="0"
         width="743"
         height="335"
         id="rect4109" /></clipPath><clipPath
       id="clip0-9"><rect
         x="-25"
         y="0"
         width="785"
         height="524"
         id="rect4320" /></clipPath><clipPath
       id="clip0-96"><rect
         x="-25"
         y="0"
         width="785"
         height="713"
         id="rect4583" /></clipPath><clipPath
       id="clip0-08"><rect
         x="144"
         y="424"
         width="837"
         height="501"
         id="rect4932" /></clipPath><clipPath
       id="clip0-87"><rect
         x="144"
         y="424"
         width="837"
         height="501"
         id="rect5261" /></clipPath><clipPath
       id="clip0-68"><rect
         x="201"
         y="68"
         width="837"
         height="501"
         id="rect5590" /></clipPath><clipPath
       id="clip0-69"><rect
         x="212"
         y="141"
         width="635"
         height="281"
         id="rect6057" /></clipPath><clipPath
       id="clip0-44"><rect
         x="75"
         y="7"
         width="780"
         height="757"
         id="rect6214" /></clipPath><clipPath
       id="clip0-38"><rect
         x="75"
         y="8"
         width="780"
         height="752"
         id="rect6713" /></clipPath><clipPath
       id="clip0-080"><rect
         x="62"
         y="92"
         width="671"
         height="543"
         id="rect7166" /></clipPath><clipPath
       id="clip0-48"><rect
         x="678"
         y="67"
         width="591"
         height="294"
         id="rect7433" /></clipPath></defs><g
     inkscape:label="Layer 1"
     inkscape:groupmode="layer"
     id="layer1"
     transform="translate(-53.551518,-322.91599)"><g
       clip-path="url(#clip0-48)"
       transform="matrix(0.26458333,0,0,0.26458333,-125.83598,303.26706)"
       id="g7600"><path
         d="m 1108.5,273.833 c 0,-3.497 2.84,-6.333 6.33,-6.333 h 131.34 c 3.49,0 6.33,2.836 6.33,6.333 v 25.334 c 0,3.497 -2.84,6.333 -6.33,6.333 h -131.34 c -3.49,0 -6.33,-2.836 -6.33,-6.333 z"
         stroke="#000000"
         stroke-width="1.33333"
         stroke-miterlimit="8"
         fill="none"
         fill-rule="evenodd"
         id="path7438" /><path
         d="m 1128.55,272.435 h 52.67 v 14 h -52.67 z"
         fill="#ffffff"
         fill-rule="evenodd"
         id="path7440" /><path
         d="m 1181.22,272.435 h 3.33 v 14 h -3.33 z"
         fill="#ffffff"
         fill-rule="evenodd"
         id="path7442" /><path
         d="m 1184.55,272.435 h 46 v 14 h -46 z"
         fill="#ffffff"
         fill-rule="evenodd"
         id="path7444" /><path
         d="m 1146.22,286.435 h 66.66 v 14 h -66.66 z"
         fill="#ffffff"
         fill-rule="evenodd"
         id="path7446" /><text
         font-family="Arial, Arial_MSFontService, sans-serif"
         font-weight="400"
         font-size="12px"
         transform="translate(1128.55,283)"
         id="text7454">Overriden<tspan
   font-size="12px"
   x="52.666599"
   y="0"
   id="tspan7448"></tspan><tspan
   font-size="12px"
   x="56"
   y="0"
   id="tspan7450">Function</tspan><tspan
   fill="#008080"
   font-size="12px"
   x="17.666599"
   y="14"
   id="tspan7452">Late Binding</tspan></text><path
         d="m 968.5,273.881 c 0,-2.42 1.961,-4.381 4.381,-4.381 h 87.239 c 2.42,0 4.38,1.961 4.38,4.381 v 17.238 c 0,2.42 -1.96,4.381 -4.38,4.381 h -87.239 c -2.42,0 -4.381,-1.961 -4.381,-4.381 z"
         stroke="#000000"
         stroke-width="1.33333"
         stroke-miterlimit="8"
         fill="none"
         fill-rule="evenodd"
         id="path7456" /><path
         d="m 974.615,275.841 h 81.995 v 14 h -81.995 z"
         fill="#ffffff"
         fill-rule="evenodd"
         id="path7458" /><text
         font-family="Arial, Arial_MSFontService, sans-serif"
         font-weight="400"
         font-size="12px"
         transform="translate(974.615,287)"
         id="text7460">Subtype Object</text><path
         d="m 1108.5,316.833 c 0,-3.497 2.84,-6.333 6.33,-6.333 h 131.34 c 3.49,0 6.33,2.836 6.33,6.333 v 25.334 c 0,3.497 -2.84,6.333 -6.33,6.333 h -131.34 c -3.49,0 -6.33,-2.836 -6.33,-6.333 z"
         stroke="#000000"
         stroke-width="1.33333"
         stroke-miterlimit="8"
         fill="none"
         fill-rule="evenodd"
         id="path7462" /><path
         d="m 1123.88,315.623 h 111.34 v 14 h -111.34 z"
         fill="#ffffff"
         fill-rule="evenodd"
         id="path7464" /><path
         d="m 1138.88,329.623 h 14.67 v 14 h -14.67 z"
         fill="#ffffff"
         fill-rule="evenodd"
         id="path7466" /><path
         d="m 1153.55,329.623 h 4 v 14 h -4 z"
         fill="#ffffff"
         fill-rule="evenodd"
         id="path7468" /><path
         d="m 1157.55,329.623 h 62.67 v 14 h -62.67 z"
         fill="#ffffff"
         fill-rule="evenodd"
         id="path7470" /><text
         font-family="Arial, Arial_MSFontService, sans-serif"
         font-weight="400"
         font-size="12px"
         transform="translate(1123.88,327)"
         id="text7478">Overloaded Function<tspan
   fill="#008080"
   font-size="12px"
   x="15"
   y="14"
   id="tspan7472">Ad</tspan><tspan
   fill="#008080"
   font-size="12px"
   x="29.666599"
   y="14"
   id="tspan7474">-</tspan><tspan
   fill="#008080"
   font-size="12px"
   x="33.666599"
   y="14"
   id="tspan7476">hoc Binding</tspan></text><path
         d="m 968.5,243 c 0,-2.485 2.015,-4.5 4.5,-4.5 h 87 c 2.49,0 4.5,2.015 4.5,4.5 v 18 c 0,2.485 -2.01,4.5 -4.5,4.5 h -87 c -2.485,0 -4.5,-2.015 -4.5,-4.5 z"
         stroke="#000000"
         stroke-width="1.33333"
         stroke-miterlimit="8"
         fill="none"
         fill-rule="evenodd"
         id="path7480" /><path
         d="m 987.615,245.356 h 55.995 v 14 h -55.995 z"
         fill="#ffffff"
         fill-rule="evenodd"
         id="path7482" /><text
         font-family="Arial, Arial_MSFontService, sans-serif"
         font-weight="400"
         font-size="12px"
         transform="translate(987.615,256)"
         id="text7484">Parameter</text><path
         d="m 967.5,181 c 0,-2.485 2.015,-4.5 4.5,-4.5 h 87 c 2.49,0 4.5,2.015 4.5,4.5 v 18 c 0,2.485 -2.01,4.5 -4.5,4.5 h -87 c -2.485,0 -4.5,-2.015 -4.5,-4.5 z"
         stroke="#000000"
         stroke-width="1.33333"
         stroke-miterlimit="8"
         fill="none"
         fill-rule="evenodd"
         id="path7486" /><path
         d="m 997.708,183.561 h 34.662 v 14 h -34.662 z"
         fill="#ffffff"
         fill-rule="evenodd"
         id="path7488" /><text
         font-family="Arial, Arial_MSFontService, sans-serif"
         font-weight="400"
         font-size="12px"
         transform="translate(997.708,195)"
         id="text7490">Object</text><path
         d="m 967.5,212 c 0,-2.485 2.015,-4.5 4.5,-4.5 h 87 c 2.49,0 4.5,2.015 4.5,4.5 v 18 c 0,2.485 -2.01,4.5 -4.5,4.5 h -87 c -2.485,0 -4.5,-2.015 -4.5,-4.5 z"
         stroke="#000000"
         stroke-width="1.33333"
         stroke-miterlimit="8"
         fill="none"
         fill-rule="evenodd"
         id="path7492" /><path
         d="m 996.826,214.59 h 36.004 v 14 h -36.004 z"
         fill="#ffffff"
         fill-rule="evenodd"
         id="path7494" /><text
         font-family="Arial, Arial_MSFontService, sans-serif"
         font-weight="400"
         font-size="12px"
         transform="translate(996.826,226)"
         id="text7496">Return</text><path
         d="m 830.5,212 c 0,-2.485 2.015,-4.5 4.5,-4.5 h 87 c 2.485,0 4.5,2.015 4.5,4.5 v 18 c 0,2.485 -2.015,4.5 -4.5,4.5 h -87 c -2.485,0 -4.5,-2.015 -4.5,-4.5 z"
         stroke="#000000"
         stroke-width="1.33333"
         stroke-miterlimit="8"
         fill="none"
         fill-rule="evenodd"
         id="path7498" /><path
         d="m 841.795,214.59 h 72 v 14 h -72 z"
         fill="#ffffff"
         fill-rule="evenodd"
         id="path7500" /><text
         font-family="Arial, Arial_MSFontService, sans-serif"
         font-weight="400"
         font-size="12px"
         transform="translate(841.795,226)"
         id="text7502">Generic Type</text><path
         d="m 954.5,167.546 c 0,-9.414 7.632,-17.046 17.046,-17.046 h 90.904 c 9.42,0 17.05,7.632 17.05,17.046 v 120.908 c 0,9.414 -7.63,17.046 -17.05,17.046 h -90.904 c -9.414,0 -17.046,-7.632 -17.046,-17.046 z"
         stroke="#000000"
         stroke-width="1.33333"
         stroke-miterlimit="8"
         fill="none"
         fill-rule="evenodd"
         id="path7504" /><text
         font-family="Arial, Arial_MSFontService, sans-serif"
         font-weight="400"
         font-size="12px"
         transform="translate(989.373,167)"
         id="text7506">Bind Type</text><path
         d="m 815.5,167.546 c 0,-9.414 7.632,-17.046 17.046,-17.046 h 90.908 c 9.414,0 17.046,7.632 17.046,17.046 v 90.908 c 0,9.414 -7.632,17.046 -17.046,17.046 h -90.908 c -9.414,0 -17.046,-7.632 -17.046,-17.046 z"
         stroke="#000000"
         stroke-width="1.33333"
         stroke-miterlimit="8"
         fill="none"
         fill-rule="evenodd"
         id="path7508" /><text
         font-family="Arial, Arial_MSFontService, sans-serif"
         font-weight="400"
         font-size="12px"
         transform="translate(840.834,167)"
         id="text7510">Resolve Type</text><path
         d="m 1091.5,173.637 c 0,-13.33 10.81,-24.137 24.14,-24.137 h 128.72 c 13.33,0 24.14,10.807 24.14,24.137 v 162.726 c 0,13.33 -10.81,24.137 -24.14,24.137 h -128.72 c -13.33,0 -24.14,-10.807 -24.14,-24.137 z"
         stroke="#000000"
         stroke-width="1.33333"
         stroke-miterlimit="8"
         fill="none"
         fill-rule="evenodd"
         id="path7512" /><text
         font-family="Arial, Arial_MSFontService, sans-serif"
         font-weight="400"
         font-size="12px"
         transform="translate(1132.86,168)"
         id="text7516">Resolve and Bind<tspan
   font-size="12px"
   x="4.3333702"
   y="14"
   id="tspan7514">Implementation:</tspan></text><path
         d="m 691.5,273.049 c 0,-2.512 2.037,-4.549 4.549,-4.549 h 86.902 c 2.512,0 4.549,2.037 4.549,4.549 v 17.902 c 0,2.512 -2.037,4.549 -4.549,4.549 h -86.902 c -2.512,0 -4.549,-2.037 -4.549,-4.549 z"
         stroke="#000000"
         stroke-width="1.33333"
         stroke-miterlimit="8"
         fill="none"
         fill-rule="evenodd"
         id="path7518" /><path
         d="m 706.89,275.208 h 64 v 14 h -64 z"
         fill="#ffffff"
         fill-rule="evenodd"
         id="path7520" /><text
         font-family="Arial, Arial_MSFontService, sans-serif"
         font-weight="400"
         font-size="12px"
         transform="translate(706.89,286)"
         id="text7522">Namespace</text><path
         d="m 691.5,242 c 0,-2.485 2.015,-4.5 4.5,-4.5 h 87 c 2.485,0 4.5,2.015 4.5,4.5 v 18 c 0,2.485 -2.015,4.5 -4.5,4.5 h -87 c -2.485,0 -4.5,-2.015 -4.5,-4.5 z"
         stroke="#000000"
         stroke-width="1.33333"
         stroke-miterlimit="8"
         fill="none"
         fill-rule="evenodd"
         id="path7524" /><path
         d="m 711.331,244.723 h 55.334 v 14 h -55.334 z"
         fill="#ffffff"
         fill-rule="evenodd"
         id="path7526" /><text
         font-family="Arial, Arial_MSFontService, sans-serif"
         font-weight="400"
         font-size="12px"
         transform="translate(711.331,256)"
         id="text7528">Data Type</text><path
         d="m 692.5,181 c 0,-2.485 2.015,-4.5 4.5,-4.5 h 87 c 2.485,0 4.5,2.015 4.5,4.5 v 18 c 0,2.485 -2.015,4.5 -4.5,4.5 h -87 c -2.485,0 -4.5,-2.015 -4.5,-4.5 z"
         stroke="#000000"
         stroke-width="1.33333"
         stroke-miterlimit="8"
         fill="none"
         fill-rule="evenodd"
         id="path7530" /><path
         d="m 722.399,182.928 h 34.667 v 14 h -34.667 z"
         fill="#ffffff"
         fill-rule="evenodd"
         id="path7532" /><text
         font-family="Arial, Arial_MSFontService, sans-serif"
         font-weight="400"
         font-size="12px"
         transform="translate(722.399,194)"
         id="text7534">Object</text><path
         d="m 691.5,212 c 0,-2.485 2.015,-4.5 4.5,-4.5 h 87 c 2.485,0 4.5,2.015 4.5,4.5 v 18 c 0,2.485 -2.015,4.5 -4.5,4.5 h -87 c -2.485,0 -4.5,-2.015 -4.5,-4.5 z"
         stroke="#000000"
         stroke-width="1.33333"
         stroke-miterlimit="8"
         fill="none"
         fill-rule="evenodd"
         id="path7536" /><path
         d="m 716.145,213.957 h 46 v 14 h -46 z"
         fill="#ffffff"
         fill-rule="evenodd"
         id="path7538" /><text
         font-family="Arial, Arial_MSFontService, sans-serif"
         font-weight="400"
         font-size="12px"
         transform="translate(716.145,225)"
         id="text7540">Function</text><path
         d="m 678.5,167.546 c 0,-9.414 7.632,-17.046 17.046,-17.046 h 90.908 c 9.414,0 17.046,7.632 17.046,17.046 v 120.908 c 0,9.414 -7.632,17.046 -17.046,17.046 h -90.908 c -9.414,0 -17.046,-7.632 -17.046,-17.046 z"
         stroke="#000000"
         stroke-width="1.33333"
         stroke-miterlimit="8"
         fill="none"
         fill-rule="evenodd"
         id="path7542" /><path
         d="m 700.793,156.048 h 78.667 v 14 h -78.667 z"
         fill="#ffffff"
         fill-rule="evenodd"
         id="path7544" /><text
         font-family="Arial, Arial_MSFontService, sans-serif"
         font-weight="400"
         font-size="12px"
         transform="translate(700.793,167)"
         id="text7546">Resolve Name</text><path
         d="m 830.5,181 c 0,-2.485 2.015,-4.5 4.5,-4.5 h 87 c 2.485,0 4.5,2.015 4.5,4.5 v 18 c 0,2.485 -2.015,4.5 -4.5,4.5 h -87 c -2.485,0 -4.5,-2.015 -4.5,-4.5 z"
         stroke="#000000"
         stroke-width="1.33333"
         stroke-miterlimit="8"
         fill="none"
         fill-rule="evenodd"
         id="path7548" /><path
         d="m 865.795,183.561 h 24 v 14 h -24 z"
         fill="#ffffff"
         fill-rule="evenodd"
         id="path7550" /><text
         font-family="Arial, Arial_MSFontService, sans-serif"
         font-weight="400"
         font-size="12px"
         transform="translate(865.795,195)"
         id="text7552">Infer</text><path
         d="m 829.5,243 c 0,-2.485 2.015,-4.5 4.5,-4.5 h 87 c 2.485,0 4.5,2.015 4.5,4.5 v 18 c 0,2.485 -2.015,4.5 -4.5,4.5 h -87 c -2.485,0 -4.5,-2.015 -4.5,-4.5 z"
         stroke="#000000"
         stroke-width="1.33333"
         stroke-miterlimit="8"
         fill="none"
         fill-rule="evenodd"
         id="path7554" /><path
         d="m 855.228,245.356 h 44 v 14 h -44 z"
         fill="#ffffff"
         fill-rule="evenodd"
         id="path7556" /><text
         font-family="Arial, Arial_MSFontService, sans-serif"
         font-weight="400"
         font-size="12px"
         transform="translate(855.228,256)"
         id="text7558">Subtype</text><path
         d="m 1108.5,230.833 c 0,-3.497 2.84,-6.333 6.33,-6.333 h 131.34 c 3.49,0 6.33,2.836 6.33,6.333 v 25.334 c 0,3.497 -2.84,6.333 -6.33,6.333 h -131.34 c -3.49,0 -6.33,-2.836 -6.33,-6.333 z"
         stroke="#000000"
         stroke-width="1.33333"
         stroke-miterlimit="8"
         fill="none"
         fill-rule="evenodd"
         id="path7560" /><path
         d="m 1133.88,229.62 h 91.34 v 14 h -91.34 z"
         fill="#ffffff"
         fill-rule="evenodd"
         id="path7562" /><path
         d="m 1144.22,243.62 h 70.66 v 14 h -70.66 z"
         fill="#ffffff"
         fill-rule="evenodd"
         id="path7564" /><text
         font-family="Arial, Arial_MSFontService, sans-serif"
         font-weight="400"
         font-size="12px"
         transform="translate(1133.88,241)"
         id="text7568">Generic Function<tspan
   fill="#008080"
   font-size="12px"
   x="10.3333"
   y="14"
   id="tspan7566">Early Binding</tspan></text><path
         d="m 1060.5,102.167 c 0,-2.025 1.64,-3.6669 3.67,-3.6669 h 46.66 c 2.03,0 3.67,1.6419 3.67,3.6669 v 14.666 c 0,2.025 -1.64,3.667 -3.67,3.667 h -46.66 c -2.03,0 -3.67,-1.642 -3.67,-3.667 z"
         stroke="#002060"
         stroke-width="1.33333"
         stroke-miterlimit="8"
         fill="#ffffff"
         fill-rule="evenodd"
         id="path7570" /><path
         d="m 1069.95,103.03 h 34.67 v 14 h -34.67 z"
         fill="#ffffff"
         fill-rule="evenodd"
         id="path7572" /><text
         font-family="Arial, Arial_MSFontService, sans-serif"
         font-weight="400"
         font-size="12px"
         transform="translate(1069.95,114)"
         id="text7574">Object</text><path
         d="m 1127.5,117.5 c 0,7.732 -1.04,14 -2.33,14 h -36.99 c -1.29,0 -2.33,6.268 -2.33,14 0,-7.732 -1.05,-14 -2.34,-14 h -33.68 c -1.29,0 -2.33,-6.268 -2.33,-14"
         stroke="#002060"
         stroke-width="0.666667"
         stroke-miterlimit="8"
         fill="none"
         fill-rule="evenodd"
         id="path7576" /><text
         fill="#9900ff"
         font-family="Arial, Arial_MSFontService, sans-serif"
         font-weight="400"
         font-size="12px"
         transform="translate(711.127,138)"
         id="text7588">NRS Refer<tspan
   font-size="12px"
   x="137.37399"
   y="0"
   id="tspan7578">NRS Refer</tspan><tspan
   font-size="12px"
   x="275.23599"
   y="0"
   id="tspan7580">NRS Refer</tspan><tspan
   fill="#008080"
   font-size="12px"
   x="447.07401"
   y="0"
   id="tspan7582">NRS Call</tspan><tspan
   fill="#002060"
   font-size="12px"
   x="420.18799"
   y="-55"
   id="tspan7584">MUS Initialize</tspan><tspan
   fill="#002060"
   font-size="12px"
   x="420.18799"
   y="-41"
   id="tspan7586">or MUS Write</tspan></text><path
         d="m 1052.5,82.3186 c 0,-3.7658 3.05,-6.8185 6.82,-6.8185 h 56.36 c 3.77,0 6.82,3.0527 6.82,6.8185 v 36.3634 c 0,3.765 -3.05,6.818 -6.82,6.818 h -56.36 c -3.77,0 -6.82,-3.053 -6.82,-6.818 z"
         stroke="#002060"
         stroke-width="1.33333"
         stroke-miterlimit="8"
         fill="none"
         fill-rule="evenodd"
         id="path7590" /><text
         font-family="Arial, Arial_MSFontService, sans-serif"
         font-weight="400"
         font-size="12px"
         transform="translate(1060.57,89)"
         id="text7592">Bind Data</text><path
         d="m 1108.5,198 c 0,-2.485 2.01,-4.5 4.5,-4.5 h 135 c 2.49,0 4.5,2.015 4.5,4.5 v 18 c 0,2.485 -2.01,4.5 -4.5,4.5 h -135 c -2.49,0 -4.5,-2.015 -4.5,-4.5 z"
         stroke="#000000"
         stroke-width="1.33333"
         stroke-miterlimit="8"
         fill="none"
         fill-rule="evenodd"
         id="path7594" /><path
         d="m 1156.55,200.132 h 46 v 14 h -46 z"
         fill="#ffffff"
         fill-rule="evenodd"
         id="path7596" /><text
         font-family="Arial, Arial_MSFontService, sans-serif"
         font-weight="400"
         font-size="12px"
         transform="translate(1156.55,211)"
         id="text7598">Function</text></g></g></svg>
