<?xml version="1.0" encoding="UTF-8" standalone="no"?>
<!-- Created with Inkscape (http://www.inkscape.org/) -->

<svg
   width="216.25711mm"
   height="165.65462mm"
   viewBox="0 0 216.2571 165.65461"
   version="1.1"
   id="svg1"
   inkscape:version="1.3.2 (091e20e, 2023-11-25, custom)"
   sodipodi:docname="_DAT Model.svg"
   xml:space="preserve"
   xmlns:inkscape="http://www.inkscape.org/namespaces/inkscape"
   xmlns:sodipodi="http://sodipodi.sourceforge.net/DTD/sodipodi-0.dtd"
   xmlns="http://www.w3.org/2000/svg"
   xmlns:svg="http://www.w3.org/2000/svg"><sodipodi:namedview
     id="namedview1"
     pagecolor="#ffffff"
     bordercolor="#000000"
     borderopacity="0.25"
     inkscape:showpageshadow="2"
     inkscape:pageopacity="0.0"
     inkscape:pagecheckerboard="0"
     inkscape:deskcolor="#d1d1d1"
     inkscape:document-units="mm"
     inkscape:zoom="1.0307169"
     inkscape:cx="-22.799665"
     inkscape:cy="-157.65726"
     inkscape:window-width="2560"
     inkscape:window-height="1377"
     inkscape:window-x="-8"
     inkscape:window-y="859"
     inkscape:window-maximized="1"
     inkscape:current-layer="layer1" /><defs
     id="defs1" /><g
     inkscape:label="Layer 1"
     inkscape:groupmode="layer"
     id="layer1"
     transform="translate(-110.80236,-190.47207)"><g
       transform="matrix(0.26458333,0,0,0.26458333,196.73831,266.66897)"
       id="g44"><path
         d="m -193.5,-135.272 c 0,-8.963 7.265,-16.228 16.228,-16.228 h 130.544 c 8.9624,0 16.2279,7.265 16.2279,16.228 v 86.544 c 0,8.9624 -7.2655,16.2279 -16.2279,16.2279 h -130.544 c -8.963,0 -16.228,-7.2655 -16.228,-16.2279 z"
         stroke="#7b7b7b"
         stroke-width="0.666667"
         stroke-miterlimit="8"
         fill="#f2f2f2"
         fill-rule="evenodd"
         id="path1" /><text
         font-family="'Calibri Light', 'Calibri Light_MSFontService', sans-serif"
         font-weight="300"
         font-size="13px"
         transform="translate(-164.853,-135)"
         id="text1">DCL (</text><text
         font-family="'Calibri Light', 'Calibri Light_MSFontService', sans-serif"
         font-weight="300"
         font-size="13px"
         transform="translate(-127.853,-135)"
         id="text2">entity)</text><path
         d="m -176.5,-115.333 c 0,-2.302 1.865,-4.167 4.167,-4.167 h 58.666 c 2.301,0 4.167,1.865 4.167,4.167 v 16.6662 c 0,2.3012 -1.866,4.1667 -4.167,4.1667 h -58.666 c -2.302,0 -4.167,-1.8655 -4.167,-4.1667 z"
         stroke="#000000"
         stroke-width="0.666667"
         stroke-miterlimit="8"
         fill="#ffffff"
         fill-rule="evenodd"
         id="path2" /><text
         font-family="'Calibri Light', 'Calibri Light_MSFontService', sans-serif"
         font-weight="300"
         font-size="13px"
         transform="translate(-164.321,-104)"
         id="text3">Declare</text><path
         d="m -109.5,-64.3333 c 0,-2.3012 1.865,-4.1668 4.167,-4.1668 h 58.6662 c 2.3012,0 4.1667,1.8656 4.1667,4.1668 v 16.6665 c 0,2.3012 -1.8655,4.1667 -4.1667,4.1667 h -58.6662 c -2.302,0 -4.167,-1.8655 -4.167,-4.1667 z"
         stroke="#000000"
         stroke-width="0.666667"
         stroke-miterlimit="8"
         fill="#ffffff"
         fill-rule="evenodd"
         id="path3" /><text
         font-family="'Calibri Light', 'Calibri Light_MSFontService', sans-serif"
         font-weight="300"
         font-size="13px"
         transform="translate(-94.2872,-53)"
         id="text4">Define</text><path
         d="M 0.0177213,-0.332862 3.63861,-0.140088 7.26496,0.425358 14.2976,2.56869 c 0.0184,0.00562 0.0363,0.01282 0.0535,0.02153 l 6.5336,3.31406 c 0.0163,0.00825 0.0318,0.01781 0.0465,0.0286 l 5.8539,4.29842 c 0.0149,0.0109 0.0288,0.0231 0.0416,0.0363 l 4.9475,5.0859 c 0.0139,0.0144 0.0266,0.0299 0.0377,0.0465 l 3.8145,5.6766 c 0.0094,0.014 0.0177,0.0287 0.0249,0.0439 l 1.4115,2.9983 c 0.0086,0.0183 0.0156,0.0373 0.0207,0.0568 l 0.7334,2.7777 -0.6446,0.1701 -0.7334,-2.7776 0.0207,0.0569 -1.4115,-2.9982 0.0249,0.0439 -3.8144,-5.6765 0.0377,0.0465 -4.9474,-5.086 0.0416,0.0363 -5.8538,-4.29846 0.0465,0.0286 L 14.0495,3.18478 14.103,3.20631 7.16194,1.08402 3.60317,0.525635 -0.0177213,0.332862 Z M 41.1958,25.0188 38.6732,33.6 33.3219,26.4332 Z"
         fill="#454545"
         transform="matrix(0,1,1,0,-143.5,-94.5001)"
         id="path4" /><path
         d="m -30.5001,-16.4084 c 0,-8.8872 7.2045,-16.0917 16.0917,-16.0917 H 116.408 c 8.888,0 16.092,7.2045 16.092,16.0917 v 85.8168 c 0,8.8872 -7.204,16.0917 -16.092,16.0917 H -14.4084 c -8.8872,0 -16.0917,-7.2045 -16.0917,-16.0917 z"
         stroke="#7b7b7b"
         stroke-width="0.666667"
         stroke-miterlimit="8"
         fill="#f2f2f2"
         fill-rule="evenodd"
         id="path5" /><text
         font-family="'Calibri Light', 'Calibri Light_MSFontService', sans-serif"
         font-weight="300"
         font-size="13px"
         transform="translate(-16.7139,-16)"
         id="text5">NRS</text><path
         d="m -19.5001,2.66673 c 0,-2.301251 1.8656,-4.16678 4.1668,-4.16678 h 58.6666 c 2.3012,0 4.1668,1.865529 4.1668,4.16678 V 19.3333 c 0,2.3012 -1.8656,4.1667 -4.1668,4.1667 h -58.6666 c -2.3012,0 -4.1668,-1.8655 -4.1668,-4.1667 z"
         stroke="#cc00ff"
         stroke-width="0.666667"
         stroke-miterlimit="8"
         fill="#ffffff"
         fill-rule="evenodd"
         id="path6" /><text
         font-family="'Calibri Light', 'Calibri Light_MSFontService', sans-serif"
         font-weight="300"
         font-size="13px"
         transform="translate(-1.46346,14)"
         id="text6">Refer</text><path
         d="m 47.5001,53.6668 c 0,-2.3012 1.8655,-4.1667 4.1667,-4.1667 h 58.6662 c 2.302,0 4.167,1.8655 4.167,4.1667 v 16.6665 c 0,2.3012 -1.865,4.1668 -4.167,4.1668 H 51.6668 c -2.3012,0 -4.1667,-1.8656 -4.1667,-4.1668 z"
         stroke="#008080"
         stroke-width="0.666667"
         stroke-miterlimit="8"
         fill="#ffffff"
         fill-rule="evenodd"
         id="path7" /><text
         font-family="'Calibri Light', 'Calibri Light_MSFontService', sans-serif"
         font-weight="300"
         font-size="13px"
         transform="translate(70.5699,65)"
         id="text7">Call</text><path
         d="M 0.0177213,-0.332862 3.63861,-0.140088 7.26496,0.425358 14.2976,2.56869 c 0.0184,0.00562 0.0363,0.01282 0.0535,0.02153 l 6.5336,3.31406 c 0.0163,0.00825 0.0318,0.01781 0.0465,0.0286 l 5.8539,4.29842 c 0.0149,0.0109 0.0288,0.0231 0.0416,0.0363 l 4.9475,5.0859 c 0.0139,0.0144 0.0266,0.0299 0.0377,0.0465 l 3.8145,5.6766 c 0.0094,0.014 0.0177,0.0287 0.0249,0.0439 l 1.4115,2.9983 c 0.0086,0.0183 0.0156,0.0373 0.0207,0.0568 l 0.7334,2.7777 -0.6446,0.1701 -0.7334,-2.7776 0.0207,0.0569 -1.4115,-2.9982 0.0249,0.0439 -3.8144,-5.6765 0.0377,0.0465 -4.9474,-5.086 0.0416,0.0363 -5.8538,-4.29846 0.0465,0.0286 L 14.0495,3.18478 14.103,3.20631 7.16194,1.08402 3.60317,0.525635 -0.0177213,0.332862 Z M 41.1958,25.0188 38.6732,33.6 33.3219,26.4332 Z"
         fill="#454545"
         transform="matrix(0,1,1,0,13.5001,23.5001)"
         id="path8" /><path
         d="m -37.4038,27.1134 -8.5977,-1.0174 -7.5094,-1.6131 -7.3239,-2.1819 -7.083,-2.7075 -6.7824,-3.1892 -6.4223,-3.6275 -6.0024,-4.02237 -5.523,-4.37384 -4.9836,-4.682205 -4.3845,-4.947625 -3.725,-5.17026 -3.006,-5.3503 -2.225,-5.4876 c -0.006,-0.0147 -0.011,-0.0298 -0.014,-0.0452 l -1.368,-5.5369 c -0.005,-0.0171 -0.007,-0.0345 -0.009,-0.052 l -0.469,-5.5806 0.664,-0.0559 0.469,5.5806 -0.008,-0.052 1.368,5.5369 -0.015,-0.0452 2.188,5.4116 2.966,5.287 3.683,5.11781 4.342,4.903883 4.9411,4.645437 5.4802,4.34263 5.9592,3.99564 6.378,3.6047 6.7368,3.1698 7.0353,2.6913 7.2737,2.169 7.4476,1.6028 8.5976,1.0175 z m -1.0998,-4.3906 7.7979,4.3809 -8.1835,3.6098 z"
         fill="#454545"
         id="path9" /><path
         d="m 257.153,248.111 -1.927,-0.056 -8.593,-0.745 -8.559,-1.223 -8.507,-1.684 -8.44,-2.129 -8.355,-2.559 -8.253,-2.972 -8.135,-3.37 -8.001,-3.752 -7.848,-4.117 -15.17,-9.265 -14.368,-10.54 -13.426,-11.685 -12.351,-12.703 -11.141,-13.595 -9.797,-14.36 -4.3567,-7.433 -3.9659,-7.571 -3.5627,-7.699 -3.1425,-7.811 -2.7056,-7.907 -2.2517,-7.988 -1.781,-8.0517 -1.2932,-8.1007 -0.7887,-8.1334 -0.2671,-8.1502 0.6663,-0.0218 0.2644,8.1077 0.7834,8.0926 1.2859,8.0618 1.7717,8.0147 2.2408,7.953 2.6933,7.874 3.1291,7.78 3.5481,7.669 3.9501,7.544 4.333,7.395 9.761,14.312 11.104,13.553 12.31,12.665 13.384,11.651 14.321,10.508 15.131,9.244 7.822,4.104 7.973,3.739 8.106,3.359 8.223,2.962 8.322,2.55 8.406,2.121 8.473,1.678 8.522,1.218 8.554,0.743 1.927,0.057 z m -1.206,-4.371 7.879,4.233 -8.113,3.764 z"
         fill="#454545"
         id="path10" /><path
         d="m -256.5,319.167 h 676.267 v 0.666 H -256.5 Z m 676.266,0.333 -2.667,-4 8,4 -8,4 z"
         id="path11" /><path
         d="m 132.5,101.092 c 0,-8.0591 6.533,-14.5919 14.592,-14.5919 h 101.817 c 8.058,0 14.591,6.5328 14.591,14.5919 v 77.817 c 0,8.058 -6.533,14.591 -14.591,14.591 H 147.092 c -8.059,0 -14.592,-6.533 -14.592,-14.591 z"
         stroke="#7b7b7b"
         stroke-width="0.666667"
         stroke-miterlimit="8"
         fill="#f2f2f2"
         fill-rule="evenodd"
         id="path12" /><text
         font-family="'Calibri Light', 'Calibri Light_MSFontService', sans-serif"
         font-weight="300"
         font-size="13px"
         transform="translate(164.732,102)"
         id="text12">TCV (object)</text><path
         d="m 164.5,120.667 c 0,-2.301 1.866,-4.167 4.167,-4.167 h 58.666 c 2.302,0 4.167,1.866 4.167,4.167 v 16.666 c 0,2.302 -1.865,4.167 -4.167,4.167 h -58.666 c -2.301,0 -4.167,-1.865 -4.167,-4.167 z"
         stroke="#000000"
         stroke-width="0.666667"
         stroke-miterlimit="8"
         fill="#ffffff"
         fill-rule="evenodd"
         id="path13" /><text
         font-family="'Calibri Light', 'Calibri Light_MSFontService', sans-serif"
         font-weight="300"
         font-size="13px"
         transform="translate(185.659,132)"
         id="text13">Cast</text><path
         d="m 164.5,160.667 c 0,-2.301 1.866,-4.167 4.167,-4.167 h 58.666 c 2.302,0 4.167,1.866 4.167,4.167 v 16.666 c 0,2.302 -1.865,4.167 -4.167,4.167 h -58.666 c -2.301,0 -4.167,-1.865 -4.167,-4.167 z"
         stroke="#000000"
         stroke-width="0.666667"
         stroke-miterlimit="8"
         fill="#ffffff"
         fill-rule="evenodd"
         id="path14" /><text
         font-family="'Calibri Light', 'Calibri Light_MSFontService', sans-serif"
         font-weight="300"
         font-size="13px"
         transform="translate(178.243,173)"
         id="text14">Coerce</text><path
         d="m 264.5,209.228 c 0,-8.134 6.594,-14.728 14.728,-14.728 h 101.544 c 8.134,0 14.728,6.594 14.728,14.728 v 78.544 c 0,8.134 -6.594,14.728 -14.728,14.728 H 279.228 c -8.134,0 -14.728,-6.594 -14.728,-14.728 z"
         stroke="#7b7b7b"
         stroke-width="0.666667"
         stroke-miterlimit="8"
         fill="#f2f2f2"
         fill-rule="evenodd"
         id="path15" /><text
         font-family="'Calibri Light', 'Calibri Light_MSFontService', sans-serif"
         font-weight="300"
         font-size="13px"
         transform="translate(294.709,211)"
         id="text15">TCM (object)</text><path
         d="m 296.5,229.667 c 0,-2.301 1.866,-4.167 4.167,-4.167 h 58.666 c 2.302,0 4.167,1.866 4.167,4.167 v 16.666 c 0,2.302 -1.865,4.167 -4.167,4.167 h -58.666 c -2.301,0 -4.167,-1.865 -4.167,-4.167 z"
         stroke="#000000"
         stroke-width="0.666667"
         stroke-miterlimit="8"
         fill="#ffffff"
         fill-rule="evenodd"
         id="path16" /><text
         font-family="'Calibri Light', 'Calibri Light_MSFontService', sans-serif"
         font-weight="300"
         font-size="13px"
         transform="translate(304.776,242)"
         id="text16">Calculate</text><path
         d="m 296.5,270.667 c 0,-2.301 1.866,-4.167 4.167,-4.167 h 58.666 c 2.302,0 4.167,1.866 4.167,4.167 v 16.666 c 0,2.302 -1.865,4.167 -4.167,4.167 h -58.666 c -2.301,0 -4.167,-1.865 -4.167,-4.167 z"
         stroke="#000000"
         stroke-width="0.666667"
         stroke-miterlimit="8"
         fill="#ffffff"
         fill-rule="evenodd"
         id="path17" /><text
         font-family="'Calibri Light', 'Calibri Light_MSFontService', sans-serif"
         font-weight="300"
         font-size="13px"
         transform="translate(306.526,282)"
         id="text17">Evaluate</text><path
         d="m 157.856,168.917 -2.666,-0.067 0.017,-0.666 2.665,0.067 z m -4.666,-0.117 -2.665,-0.068 0.016,-0.666 2.666,0.067 z m -4.678,-0.182 -2.659,-0.199 0.049,-0.665 2.66,0.199 z m -4.654,-0.348 -2.659,-0.199 0.05,-0.665 2.659,0.199 z m -4.653,-0.348 -2.66,-0.199 0.05,-0.665 2.659,0.199 z m -4.667,-0.376 -2.647,-0.327 0.082,-0.661 2.646,0.326 z m -4.632,-0.571 -2.647,-0.326 0.082,-0.662 2.647,0.326 z m -4.632,-0.571 -2.646,-0.326 0.081,-0.662 2.647,0.326 z m -4.631,-0.571 -0.186,-0.022 -2.46,-0.42 0.113,-0.657 2.428,0.415 0.186,0.023 z m -4.617,-0.779 -2.629,-0.448 0.113,-0.658 2.628,0.449 z m -4.6,-0.785 -2.629,-0.449 0.112,-0.657 2.629,0.449 z m -4.6,-0.785 -0.927,-0.159 -1.702,-0.37 0.142,-0.651 1.672,0.364 0.927,0.158 z m -4.583,-0.954 -2.6057,-0.567 0.1418,-0.651 2.6059,0.567 z m -4.56,-0.992 -2.6056,-0.567 0.1417,-0.652 2.6057,0.567 z m -4.5599,-0.993 -1.667,-0.362 -0.943,-0.249 0.1702,-0.645 0.9146,0.242 1.667,0.363 z m -4.5437,-1.122 -2.5782,-0.681 0.1702,-0.645 2.5782,0.682 z m -4.5119,-1.192 -2.5782,-0.681 0.1702,-0.644 2.5783,0.681 z m -4.5119,-1.192 -2.3977,-0.633 -0.1921,-0.059 0.1978,-0.637 0.1645,0.051 2.3977,0.634 z m -4.4998,-1.286 -2.5466,-0.791 0.1978,-0.636 2.5466,0.791 z m -4.4566,-1.384 -2.5466,-0.791 0.1977,-0.637 2.5467,0.791 z m -4.4566,-1.384 -2.5467,-0.791 0.1978,-0.637 2.5466,0.791 z m -4.4512,-1.445 -2.5112,-0.897 0.2243,-0.628 2.5112,0.897 z m -4.3946,-1.57 -2.5112,-0.897 0.2243,-0.628 2.5112,0.897 z m -4.3946,-1.57 -2.5112,-0.897 0.2243,-0.628 2.5112,0.897 z m -4.3981,-1.6 -2.4721,-1 0.2499,-0.618 2.4722,1 z m -4.3262,-1.749 -2.4722,-1 0.25,-0.618 2.4721,1 z m -4.3263,-1.75 -2.4721,-1 0.2499,-0.618 2.4722,1 z m -4.3262,-1.75 -0.1095,-0.044 -2.3344,-1.056 0.2748,-0.607 2.3095,1.045 0.1095,0.044 z m -4.2661,-1.924 -2.4295,-1.1 0.2748,-0.607 2.4295,1.099 z m -4.2517,-1.924 -2.4296,-1.099 0.2748,-0.608 2.4296,1.1 z m -4.2518,-1.924 -0.7739,-0.35 -1.6364,-0.82 0.299,-0.596 1.6122,0.809 0.7739,0.35 z m -4.198,-2.067 -2.3835,-1.196 0.2989,-0.596 2.3836,1.196 z m -4.1712,-2.093 -2.3836,-1.195 0.2989,-0.596 2.3836,1.196 z m -4.1713,-2.092 -1.37948,-0.692 -0.99497,-0.549 0.32239,-0.584 0.9715,0.537 1.37956,0.692 z m -4.12507,-2.209 -2.33416,-1.289 0.32239,-0.584 2.33415,1.29 z m -4.08478,-2.256 -2.33414,-1.29 0.32238812,-0.583 2.33414188,1.289 z m -4.08477,-2.257 -1.91438,-1.057 -0.42167,-0.255 0.34521,-0.571 0.39885,0.242 1.91438,1.058 z m -4.04701,-2.348 -2.28123,-1.381 0.34524,-0.57 2.28125,1.381 z m -3.99217,-2.417 -2.2812,-1.381 0.3452,-0.57 2.28125,1.381 z m -3.9922,-2.416 -2.2812,-1.381 0.3452,-0.571 2.2813,1.381 z m -3.963,-2.488 -2.2248,-1.47 0.3676,-0.556 2.2247,1.47 z m -3.8933,-2.573 -2.2247,-1.47 0.3676,-0.556 2.2247,1.47 z m -3.8932,-2.573 -2.2248,-1.47 0.3676,-0.556 2.2248,1.47 z m -3.8726,-2.626 -2.1644,-1.558 0.3895,-0.541 2.1643,1.558 z m -3.7876,-2.726 -2.1644,-1.558 0.3895,-0.541 2.1643,1.558 z m -3.7876,-2.7265 -2.1644,-1.5577 0.3894,-0.5411 2.1644,1.5578 z m -3.7746,-2.7658 -2.0999,-1.6436 0.4109,-0.525 2.0999,1.6436 z m -3.6749,-2.8763 -2.0999,-1.6437 0.4109,-0.5249 2.0999,1.6436 z m -3.6748,-2.8763 -2.1,-1.6437 0.4109,-0.5249 2.1,1.6436 z m -3.6679,-2.9065 -2.0311,-1.7279 0.432,-0.5078 2.0311,1.728 z m -3.5544,-3.0239 -2.031,-1.7279 0.4319,-0.5078 2.0311,1.7279 z m -3.5543,-3.0239 -2.0311,-1.728 0.432,-0.5077 2.031,1.7279 z m -3.5512,-3.0485 -1.9574,-1.811 0.4527,-0.4893 1.9575,1.8109 z m -3.4255,-3.1692 -1.9574,-1.8109 0.4527,-0.4894 1.9575,1.811 z m -3.4255,-3.1692 -1.9574,-1.8109 0.4527,-0.4894 1.9575,1.811 z m -3.4227,-3.1925 -1.8785,-1.8927 0.4732,-0.4696 1.8784,1.8927 z m -3.2874,-3.3122 -1.8785,-1.8927 0.4732,-0.4696 1.8784,1.8927 z m -3.2874,-3.3122 -1.8785,-1.8927 0.4731,-0.4696 1.8785,1.8927 z m -3.2807,-3.3388 -1.7938,-1.9732 0.4933,-0.4484 1.7938,1.9732 z m -3.1391,-3.453 -1.7938,-1.9732 0.4933,-0.4484 1.7938,1.9731 z m -3.1392,-3.4531 -1.7938,-1.9731 0.4933,-0.4485 1.7938,1.9732 z m -3.1226,-3.4874 -1.7027,-2.0523 0.5131,-0.4256 1.7027,2.0523 z m -2.9797,-3.5915 -1.7027,-2.0523 0.5131,-0.4257 1.7027,2.0523 z m -2.9797,-3.5915 -1.7027,-2.0523 0.5131,-0.4257 1.7027,2.0523 z m -2.9454,-3.6382 -1.605,-2.1299 0.532,-0.4012 1.605,2.1299 z m -2.808,-3.7274 -1.605,-2.1299 0.532,-0.4011 1.605,2.1299 z m -2.808,-3.7273 -1.605,-2.1299 0.533,-0.4012 1.604,2.1299 z m -2.748,-3.7907 -1.498,-2.2057 0.551,-0.3747 1.499,2.2057 z m -2.622,-3.86 -1.499,-2.2057 0.551,-0.3747 1.499,2.2057 z m -2.623,-3.86 -1.205,-1.7728 -0.281,-0.4616 0.57,-0.3461 0.263,0.433 1.204,1.7728 z m -2.524,-3.9438 -1.384,-2.2792 0.57,-0.3461 1.384,2.2792 z m -2.422,-3.9886 -1.385,-2.27923 0.57,-0.3461 1.384,2.27923 z m -2.423,-3.98866 -0.625,-1.02937 -0.7,-1.30398 0.587,-0.31521 0.683,1.27314 0.625,1.02935 z m -2.271,-4.09571 -1.261,-2.34981 0.588,-0.3152 1.261,2.3498 z m -2.206,-4.112157 -1.261,-2.349823 0.588,-0.31519 1.26,2.349813 z m -2.207,-4.112193 -0.04,-0.07579 -1.099,-2.35538 0.604,-0.28183 1.082,2.32207 0.041,0.07579 z m -1.985,-4.24367 -1.127,-2.41671 0.604,-0.2818 1.127,2.41666 z m -1.973,-4.22921 -1.127,-2.4167 0.604,-0.2818 1.127,2.4167 z m -1.915,-4.2753 -0.983,-2.4787 0.619,-0.2458 0.984,2.4787 z m -1.721,-4.3378 -0.983,-2.4787 0.619,-0.2458 0.984,2.4787 z m -1.721,-4.3378 -0.737,-1.8579 -0.214,-0.6542 0.633,-0.2071 0.201,0.6154 0.737,1.858 z m -1.573,-4.4132 -0.828,-2.5347 0.634,-0.2071 0.828,2.5348 z m -1.449,-4.4357 -0.829,-2.5348 0.634,-0.2071 0.828,2.5347 z m -1.45,-4.4358 -0.119,-0.3659 -0.573,-2.231 0.646,-0.1656 0.56,2.1895 0.12,0.3659 z m -1.189,-4.5342 -0.662,-2.5832 0.646,-0.1655 0.662,2.5831 z m -1.159,-4.5205 -0.662,-2.5831 0.645,-0.1656 0.663,2.5831 z m -1.073,-4.5625 -0.486,-2.6222 0.656,-0.1213 0.485,2.6222 z m -0.849,-4.5888 -0.486,-2.6221 0.656,-0.1214 0.485,2.6222 z m -0.85,-4.5888 -0.262,-1.4187 -0.14,-1.2396 0.662,-0.0745 0.133,1.1928 0.263,1.4187 z m -0.626,-4.6458 -0.297,-2.65 0.662,-0.0745 0.298,2.65 z m -0.521,-4.6375 -0.297,-2.65 0.662,-0.0745 0.298,2.6501 z m -0.486,-4.6649 -0.101,-2.6647 0.666,-0.0252 0.101,2.6647 z m -0.177,-4.6633 -0.101,-2.6647 0.667,-0.0253 0.101,2.6648 z m -0.176,-4.6633 -0.083,-2.1843 0.666,-0.0253 0.083,2.1844 z m 306.382,249.8551 7.897,4.2 -8.099,3.797 z"
         fill="#008080"
         id="path18" /><path
         d="m 257.327,248.235 -5.766,-0.921 -6.125,-1.817 -5.968,-2.456 -5.77,-3.048 -5.523,-3.588 -5.228,-4.081 -4.886,-4.524 -4.494,-4.918 -4.053,-5.263 -3.565,-5.56 -3.028,-5.807 -2.441,-6.007 -1.806,-6.156 -1.12,-6.258 -0.387,-6.311 0.666,-0.04 0.377,6.233 1.104,6.188 1.784,6.094 2.414,5.949 2.998,5.755 3.532,5.513 4.018,5.22 4.454,4.879 4.843,4.487 5.182,4.048 5.471,3.558 5.712,3.02 5.904,2.434 6.04,1.798 5.766,0.921 z m -0.926,-4.43 7.62,4.684 -8.32,3.285 z"
         fill="#454545"
         id="path19" /><path
         d="m 157.265,129.063 -5.329,-0.229 0.029,-0.666 5.328,0.229 z m -7.327,-0.315 -0.098,-0.004 -5.221,-0.659 0.083,-0.661 5.166,0.654 0.099,0.004 z m -7.304,-0.913 -5.291,-0.668 0.084,-0.662 5.291,0.669 z m -7.295,-0.96 -5.222,-1.081 0.135,-0.653 5.222,1.081 z m -7.181,-1.486 -5.223,-1.081 0.135,-0.653 5.223,1.081 z m -7.186,-1.573 -5.126,-1.471 0.184,-0.641 5.126,1.471 z m -7.049,-2.023 -5.126,-1.47 0.184,-0.641 5.126,1.471 z m -7.031,-2.155 -5.005,-1.842 0.23,-0.626 5.005,1.842 z m -6.882,-2.533 -4.4086,-1.623 -0.6012,-0.271 0.275,-0.607 0.5564,0.253 4.4084,1.622 z m -6.8317,-2.719 -4.8586,-2.199 0.275,-0.608 4.8585,2.2 z m -6.6806,-3.024 -3.3512,-1.517 -1.4754,-0.802 0.3185,-0.585 1.4318,0.779 3.3513,1.517 z m -6.5836,-3.274 -4.6853,-2.548 0.3185,-0.586 4.6853,2.548 z m -6.4423,-3.504 -2.1185,-1.152 -2.4767,-1.597 0.3615,-0.56 2.4337,1.571 2.1185,1.153 z m -6.2757,-3.833 -4.4816,-2.8913 0.3615,-0.5602 4.4815,2.8915 z m -6.1622,-3.9756 -0.7023,-0.4531 -3.5979,-2.742 0.4043,-0.5302 3.5551,2.712 0.7023,0.4531 z m -5.8906,-4.4078 -4.2411,-3.2338 0.4042,-0.5301 4.2412,3.2338 z m -5.7937,-4.5357 -3.9552,-3.5779 0.4473,-0.4944 3.9552,3.5779 z m -5.4384,-4.9196 -2.8681,-2.5945 -1.0143,-1.1 0.4906,-0.4515 0.9709,1.0571 2.8682,2.5946 z m -5.2367,-5.1661 -3.6117,-3.9244 0.4906,-0.4514 3.6116,3.9243 z m -4.966,-5.396 -0.7122,-0.7739 -2.5866,-3.4544 0.5338,-0.3993 2.5433,3.4023 0.7122,0.7738 z m -4.4969,-5.8297 -3.05,-4.0766 -0.143,-0.2408 0.5759,-0.3359 0.1009,0.1773 3.05,4.0767 z m -4.2005,-6.0451 -2.6868,-4.6071 0.5759,-0.3359 2.6868,4.6072 z m -3.6943,-6.3348 -0.6672,-1.1441 -1.6947,-3.6682 0.6053,-0.2793 1.6653,3.6117 0.6672,1.144 z m -3.1629,-6.6687 -1.5864,-4.1722 -0.2565,-0.8567 0.6389,-0.1905 0.2407,0.8103 1.5864,4.1721 z M 15.7393,40.5265 15.102,38.39 l -0.6597,-3.0594 0.6517,-0.1403 0.6468,3.0092 0.6374,2.1364 z m -1.7165,-7.1791 -0.6352,-4.8597 -0.0215,-0.4604 0.666,-0.0294 0.0166,0.4034 0.6352,4.8597 z m -0.7448,-7.3182 -0.1109,-2.5145 0.666,-0.0293 0.1109,2.5145 z m 142.841,98.6468 7.82,4.34 -8.164,3.653 z"
         fill="#0000ff"
         id="path20" /><path
         d="m -104.163,-107.758 2.667,0.038 -0.01,0.667 -2.666,-0.038 z m 4.6667,0.066 0.6666,0.01 -0.0095,0.666 -0.6666,-0.009 z m 2.6664,0.038 2.6664,0.038 -0.0095,0.666 -2.6664,-0.037 z m 4.6662,0.066 0.6666,0.01 -0.0095,0.666 -0.6666,-0.009 z m 2.6664,0.038 2.6664,0.038 -0.0095,0.666 -2.6664,-0.037 z m 4.6747,0.088 0.6661,0.027 -0.0277,0.667 -0.6661,-0.028 z m 2.6644,0.111 2.6643,0.11 -0.0277,0.667 -2.6644,-0.111 z m 4.6626,0.194 0.6661,0.027 -0.0277,0.666 -0.6661,-0.027 z m 2.6643,0.111 2.6644,0.11 -0.0277,0.666 -2.6644,-0.11 z m 4.6627,0.194 0.6661,0.027 -0.0278,0.666 -0.666,-0.027 z m 2.6643,0.11 2.6644,0.111 -0.0277,0.666 -2.6644,-0.11 z m 4.6627,0.194 0.6661,0.028 -0.0278,0.666 -0.6661,-0.027 z m 2.6706,0.158 2.6605,0.181 -0.0453,0.665 -2.6605,-0.181 z m 4.6559,0.317 0.6651,0.046 -0.0454,0.665 -0.6651,-0.046 z m 2.6605,0.182 2.6605,0.181 -0.0454,0.665 -2.6605,-0.181 z m 4.6558,0.317 0.6651,0.046 -0.0453,0.665 -0.6651,-0.046 z m 2.6605,0.182 2.6605,0.181 -0.0454,0.665 -2.6605,-0.181 z m 4.6558,0.317 0.6652,0.046 -0.0454,0.665 -0.6651,-0.046 z m 2.6685,0.192 2.6548,0.251 -0.0628,0.664 -2.6548,-0.251 z m 4.6459,0.439 0.6637,0.063 -0.0627,0.664 -0.6637,-0.063 z m 2.6548,0.251 2.6549,0.251 -0.0628,0.664 -2.6548,-0.251 z m 4.646,0.439 0.6637,0.063 -0.0628,0.664 -0.6637,-0.063 z m 2.6548,0.251 2.6548,0.252 -0.0627,0.663 -2.6548,-0.251 z m 4.646,0.44 0.6637,0.063 -0.0628,0.663 -0.6637,-0.063 z m 2.6548,0.251 0.5039,0.047 2.1535,0.262 -0.0802,0.661 -2.1361,-0.259 -0.5039,-0.047 z m 4.6429,0.549 0.6618,0.081 -0.0803,0.662 -0.6618,-0.081 z m 2.64725,0.322 2.64726,0.321 -0.08028,0.661 -2.64727,-0.321 z m 4.6327,0.562 0.66181,0.08 -0.08026,0.662 -0.66182,-0.081 z m 2.64727,0.321 2.647258,0.321 -0.080292,0.662 -2.647256,-0.322 z m 4.6327,0.562 0.66181,0.08 -0.08028,0.6617 -0.66181,-0.0803 z m 2.64726,0.321 0.6766,0.082 1.97243,0.294 -0.0984,0.6594 -1.95431,-0.2918 -0.67661,-0.082 z m 4.62712,0.6712 0.6594,0.0984 -0.0984,0.6594 -0.6594,-0.0984 z m 2.6375,0.3935 2.6374,0.3936 -0.0984,0.6594 -2.6374,-0.3936 z m 4.6155,0.6888 0.6594,0.0984 -0.0984,0.6593 -0.6594,-0.0984 z m 2.6375,0.3935 2.6375,0.3936 -0.0984,0.6594 -2.6375,-0.3936 z m 4.6156,0.6888 0.6593,0.0983 -0.0984,0.6594 -0.6593,-0.0984 z m 2.647,0.3952 2.6248,0.4705 -0.1176,0.6562 -2.6248,-0.4705 z m 4.5935,0.8234 0.6562,0.1176 -0.1176,0.6562 -0.6562,-0.1176 z m 2.6248,0.4704 2.6249,0.4705 -0.1177,0.6562 -2.6248,-0.4705 z m 4.5935,0.8233 0.6562,0.1177 -0.1176,0.6562 -0.6562,-0.1177 z m 2.6248,0.4705 2.6249,0.4705 -0.1177,0.6562 -2.6248,-0.4705 z m 4.5935,0.8233 0.6562,0.1176 -0.1176,0.6563 -0.6562,-0.1177 z m 2.6247,0.5271 2.6083,0.5547 -0.1387,0.652 -2.6083,-0.5546 z m 4.5646,0.9706 0.652,0.1387 -0.1386,0.6521 -0.6521,-0.1387 z m 2.6083,0.5547 2.6083,0.5546 -0.1386,0.6521 -2.6083,-0.5546 z m 4.5646,0.9706 0.6521,0.1387 -0.1387,0.6521 -0.652,-0.1387 z m 2.6084,0.5547 2.6083,0.5546 -0.1386,0.6521 -2.6084,-0.5546 z m 4.5615,1.025 0.6481,0.1562 -0.1562,0.6481 -0.6481,-0.1561 z m 2.5924,0.6248 2.5924,0.6248 -0.1562,0.6482 -2.5924,-0.6248 z m 4.5417,1.1008 0.6449,0.169 -0.169,0.6449 -0.6449,-0.169 z m 2.5796,0.6761 2.5795,0.676 -0.169,0.6449 -2.5796,-0.6761 z m 4.5142,1.1831 0.6448,0.169 -0.169,0.6449 -0.6449,-0.169 z m 2.5771,0.7122 2.5643,0.7319 -0.183,0.6411 -2.5643,-0.7319 z m 4.4874,1.2809 0.6411,0.183 -0.183,0.641 -0.641,-0.183 z m 2.5673,0.7501 2.5459,0.7934 -0.1984,0.6364 -2.5459,-0.7933 z m 4.4553,1.3884 0.6365,0.1983 -0.1984,0.6365 -0.6364,-0.1983 z m 2.5532,0.8 2.524,0.8617 -0.216,0.6309 -2.5234,-0.8617 z m 4.416,1.508 0.631,0.2154 -0.215,0.6309 -0.631,-0.2154 z m 2.533,0.8662 2.496,0.9386 -0.234,0.624 -2.497,-0.9386 z m 4.368,1.6426 0.624,0.2347 -0.234,0.624 -0.624,-0.2347 z m 2.502,0.9549 2.462,1.0262 -0.257,0.6154 -2.461,-1.0263 z m 4.308,1.7959 0.615,0.2565 -0.257,0.6154 -0.615,-0.2566 z m 2.454,1.0753 2.417,1.1272 -0.282,0.6042 -2.416,-1.1272 z m 4.23,1.9726 0.237,0.1105 0.373,0.1965 -0.312,0.5896 -0.343,-0.1819 -0.237,-0.1105 z m 2.378,1.2408 2.358,1.2451 -0.311,0.5896 -2.358,-1.2451 z m 4.101,2.2659 0.569,0.3461 -0.346,0.5698 -0.569,-0.3461 z m 2.279,1.3842 0.821,0.4985 1.409,1.0053 -0.387,0.5425 -1.368,-0.978 -0.821,-0.4985 z m 3.858,2.6661 0.542,0.3874 -0.387,0.5425 -0.543,-0.3874 z m 2.092,1.6989 1.797,1.5578 0.223,0.2419 -0.495,0.4474 -0.164,-0.1856 -1.797,-1.5578 z m 3.362,3.2826 0.447,0.4943 -0.494,0.4473 -0.448,-0.4943 z m 1.663,2.1403 1.099,1.6821 c 0.012,0.0187 0.022,0.0386 0.031,0.0594 l 0.242,0.6112 -0.62,0.2458 -0.242,-0.6112 0.031,0.0594 -1.099,-1.6821 z m 2.109,4.2119 0.114,0.2873 c 0.01,0.0253 0.017,0.0517 0.021,0.0787 l 0.047,0.3544 -0.66,0.0884 -0.048,-0.3544 0.021,0.0787 -0.114,-0.2874 z m 0.448,2.7027 0.057,0.4264 c 0.003,0.0259 0.004,0.0521 10e-4,0.0781 l -0.227,2.2249 -0.663,-0.0677 0.227,-2.2249 0.001,0.078 -0.057,-0.4264 z m -0.372,4.719 -0.068,0.6632 -0.663,-0.0676 0.068,-0.6633 z m -0.535,2.6648 -0.766,2.5543 -0.638,-0.1915 0.766,-2.5543 z m -1.407,4.5031 -0.294,0.5983 -0.598,-0.2941 0.294,-0.5983 z m -1.176,2.3932 -1.176,2.3932 -0.598,-0.294 1.176,-2.3933 z m -2.281,4.1132 -0.375,0.5509 -0.551,-0.3754 0.376,-0.5509 z m -1.501,2.2037 -1.167,1.7127 -0.416,0.4791 -0.501,-0.4387 0.366,-0.4158 1.167,-1.7126 z m -2.899,3.6977 -0.438,0.5019 -0.502,-0.4387 0.438,-0.502 z m -1.755,2.0077 -0.986,1.1279 -0.879,0.8206 -0.454,-0.4881 0.831,-0.7712 0.986,-1.1279 z m -3.33,3.3106 -0.488,0.454 -0.454,-0.4881 0.488,-0.4541 z m -1.952,1.8161 -0.967,0.899 -1.088,0.8439 -0.408,-0.5271 1.042,-0.805 0.967,-0.899 z m -3.636,2.9673 -0.527,0.4082 -0.408,-0.5271 0.527,-0.4082 z m -2.109,1.6326 -1.204,0.9324 -0.979,0.6407 -0.365,-0.5583 0.936,-0.6095 1.204,-0.9324 z m -3.858,2.6662 -0.559,0.36434 -0.364,-0.55834 0.558,-0.3643 z m -2.233,1.45743 -1.741,1.13595 -0.536,0.29702 -0.322,-0.5836 0.494,-0.27171 1.74,-1.13596 z m -4.028,2.39981 -0.583,0.32228 -0.323,-0.58359 0.584,-0.32228 z m -2.334,1.28912 -2.335,1.28914 -0.322,-0.5836 2.335,-1.28913 z m -4.159,2.16089 -0.605,0.28134 -0.281,-0.6044 0.604,-0.28134 z m -2.418,1.12534 -2.418,1.125334 -0.281,-0.604404 2.418,-1.12533 z M 99.6012,0.0658493 98.9796,0.30674 98.7387,-0.314888 99.3603,-0.555779 Z M 97.1147,1.02941 94.6282,1.99298 94.3873,1.37135 96.8738,0.407784 Z M 92.7634,2.71565 92.1417,2.95654 91.9008,2.33492 92.5225,2.09402 Z M 90.2167,3.57262 87.6732,4.37388 87.4729,3.73803 90.0164,2.93677 Z m -4.451,1.4022 -0.6359,0.20032 -0.2003,-0.63586 0.6358,-0.20031 z M 83.1961,5.7624 80.6064,6.39833 80.4474,5.7509 83.0371,5.11497 Z M 78.6641,6.87528 78.0166,7.03426 77.8577,6.38683 78.5051,6.22786 Z M 76.0743,7.51122 74.737,7.83961 73.4458,8.06906 73.3296,7.41261 74.578,7.19218 75.9154,6.86378 Z M 71.4765,8.41791 70.82,8.53419 70.7037,7.87774 71.3602,7.76145 Z M 68.8507,8.88304 66.2249,9.34816 66.1086,8.6917 68.7344,8.22659 Z M 64.2189,9.59953 63.5561,9.67117 63.4845,9.00837 64.1473,8.93673 Z M 61.5677,9.88609 58.9165,10.1726 58.8448,9.50981 61.496,9.22327 Z M 56.928,10.3875 56.5889,10.4242 56.24,10.4378 56.2155,9.77162 56.5173,9.76136 56.8564,9.72471 Z m -2.6867,0.1239 -2.6648,0.098 -0.0245,-0.66622 2.6648,-0.09803 z m -4.6635,0.1715 -0.6662,0.0246 -0.0245,-0.6663 0.6662,-0.0245 z m -153.7448,-118.1079 2.609,4.038 -7.942,-4.113 8.056,-3.886 z"
         fill="#9900ff"
         id="path21" /><text
         font-family="'Calibri Light', 'Calibri Light_MSFontService', sans-serif"
         font-weight="300"
         font-size="13px"
         transform="translate(21.5054,103)"
         id="text21">Object</text><text
         font-family="'Calibri Light', 'Calibri Light_MSFontService', sans-serif"
         font-weight="300"
         font-size="13px"
         transform="translate(24.8775,42)"
         id="text22">function</text><text
         font-family="'Calibri Light', 'Calibri Light_MSFontService', sans-serif"
         font-weight="300"
         font-size="13px"
         transform="translate(140.992,-162)"
         id="text23">Argument / Return /</text><text
         font-family="'Calibri Light', 'Calibri Light_MSFontService', sans-serif"
         font-weight="300"
         font-size="13px"
         transform="translate(140.992,-146)"
         id="text24">(.) Object</text><text
         font-family="'Calibri Light', 'Calibri Light_MSFontService', sans-serif"
         font-weight="300"
         font-size="13px"
         transform="translate(244.814,17)"
         id="text25">Subtype Object</text><path
         d="m 54.17,10.2412 26.4815,0.296 32.8955,1.08 32.377,1.7423 31.598,2.3573 30.562,2.9249 14.813,1.6608 14.454,1.7847 14.066,1.9031 13.644,2.0155 13.191,2.122 12.705,2.2226 12.187,2.3173 11.636,2.4061 11.053,2.4891 10.438,2.5662 9.791,2.6374 9.11,2.703 8.399,2.7627 7.655,2.8168 6.879,2.8654 6.072,2.9088 5.233,2.9473 4.362,2.982 3.461,3.0142 c 0.014,0.0119 0.027,0.0248 0.038,0.0387 l 2.491,3.0081 c 0.016,0.0193 0.029,0.0404 0.041,0.0628 l 1.518,3.0199 c 0.014,0.0297 0.025,0.0613 0.03,0.094 l 0.514,3.0258 c 0.004,0.0256 0.005,0.0517 0.004,0.0776 l -0.199,3.0259 -0.595,3.0618 -0.975,3.0462 -1.344,3.0239 c -0.006,0.0144 -0.014,0.0283 -0.022,0.0417 l -3.705,5.9038 c -0.009,0.0146 -0.019,0.0286 -0.031,0.0416 l -5.012,5.762 -6.248,5.6025 -7.352,5.357 -8.355,5.068 -9.258,4.734 -10.061,4.352 -10.764,3.925 -11.366,3.45 -11.869,2.929 -12.271,2.36 -12.573,1.745 -12.775,1.082 -12.876,0.372 -0.019,-0.667 12.839,-0.369 12.739,-1.078 12.539,-1.739 12.237,-2.353 11.835,-2.92 11.332,-3.439 10.727,-3.91 10.022,-4.334 9.216,-4.71 8.308,-5.037 7.3,-5.315 6.19,-5.5431 5.012,-5.762 -0.031,0.0416 3.705,-5.9038 -0.022,0.0417 1.318,-2.9568 0.956,-2.9699 0.583,-2.978 0.199,-3.0258 0.004,0.0776 -0.513,-3.0258 0.031,0.094 -1.518,-3.0199 0.041,0.0628 -2.49,-3.0081 0.037,0.0387 -3.399,-2.9664 -4.314,-2.9515 -5.193,-2.9269 -6.04,-2.8946 -6.853,-2.8551 -7.633,-2.8092 -8.38,-2.7569 -9.095,-2.6984 -9.776,-2.6338 -10.425,-2.5632 -11.042,-2.4866 -11.626,-2.404 L 290.842,31.0071 278.146,28.786 264.964,26.6653 251.328,24.651 237.27,22.7489 222.823,20.965 208.021,19.3053 177.473,16.3816 145.888,14.0252 113.525,12.2835 80.644,11.2038 54.1626,10.9079 Z m 1.2848,4.348 -7.9547,-4.0891 8.0442,-3.91039 z"
         fill="#454545"
         id="path25" /><text
         font-family="'Calibri Light', 'Calibri Light_MSFontService', sans-serif"
         font-weight="300"
         font-size="13px"
         transform="translate(215.137,58)"
         id="text26">Argument</text><text
         font-family="'Calibri Light', 'Calibri Light_MSFontService', sans-serif"
         font-weight="300"
         font-size="13px"
         transform="translate(429.133,322)"
         id="text27">Type System</text><text
         font-family="'Calibri Light', 'Calibri Light_MSFontService', sans-serif"
         font-weight="300"
         font-size="13px"
         transform="translate(429.133,338)"
         id="text28">Timeline</text><path
         d="M -5.24556,0.867853 -7.09492,1.20835 -7.81094,1.42767 -8.0044,0.78969 -7.21563,0.5527 -5.36628,0.212207 Z m -4.47932,1.140197 -0.89382,0.27104 -1.565,0.6595 -0.2582,-0.61462 1.6297,-0.68286 0.89386,-0.27104 z m -4.30262,1.70527 -0.098,0.04114 -2.2288,1.19539 -0.3148,-0.58769 2.2854,-1.22231 0.0979,-0.04115 z m -4.0407,2.20851 -2.2357,1.45345 -0.3634,-0.55893 2.2358,-1.45346 z m -3.8105,2.62012 -2.0607,1.69265 -0.4231,-0.51517 2.0606,-1.69263 z m -3.6061,2.96215 -2.0606,1.6926 -0.4232,-0.5152 2.0606,-1.6926 z m -3.4403,3.0795 -1.8356,1.9344 -0.4836,-0.4589 1.8356,-1.9344 z m -3.2123,3.3852 -1.8355,1.9343 -0.4836,-0.4588 1.8355,-1.9344 z m -3.0848,3.4494 -1.6288,2.1114 -0.5279,-0.4072 1.6288,-2.1114 z m -2.8504,3.695 -1.6288,2.1114 -0.5279,-0.4072 1.6288,-2.1114 z m -2.8092,3.689 -1.441,2.2437 -0.5609,-0.3602 1.441,-2.2438 z m -2.5218,3.9266 -1.441,2.2438 -0.5609,-0.3603 1.441,-2.2438 z m -2.5217,3.9266 -0.7466,1.1624 -0.5991,1.1088 -0.5863,-0.3174 0.6245,-1.1517 0.7465,-1.1624 z m -2.2978,4.03 -1.2695,2.3451 -0.5863,-0.3173 1.2695,-2.3452 z m -2.2216,4.104 -1.2695,2.3451 -0.5863,-0.3174 1.2695,-2.3451 z m -2.1592,4.1102 -1.1105,2.4244 -0.6061,-0.2776 1.1105,-2.4244 z m -1.9434,4.2428 -1.1105,2.4244 -0.6061,-0.2776 1.1105,-2.4245 z m -1.9434,4.2427 -0.8868,1.9361 -0.1855,0.4824 -0.622,-0.2402 0.2014,-0.5198 0.8868,-1.9361 z m -1.7927,4.2842 -0.9605,2.4877 -0.6219,-0.2401 0.9605,-2.4877 z m -1.6808,4.3535 -0.9605,2.4877 -0.6219,-0.2401 0.9605,-2.4877 z m -1.6808,4.3535 -0.361,0.935 -0.5029,1.5665 -0.6347,-0.204 0.5157,-1.6026 0.361,-0.9351 z m -1.476,4.4055 -0.816,2.5388 -0.6347,-0.204 0.8161,-2.5388 z m -1.428,4.4428 -0.816,2.5388 -0.6347,-0.204 0.816,-2.5388 z m -1.428,4.4428 -0.0993,0.3091 -0.587,2.2482 -0.645,-0.1685 0.5973,-2.2837 0.0993,-0.3091 z m -1.1919,4.4923 -0.6742,2.5801 -0.645,-0.1686 0.6742,-2.58 z m -1.1798,4.5151 -0.6742,2.5801 -0.645,-0.1686 0.6742,-2.58 z m -1.1798,4.5151 -0.0037,0.0142 -0.5252,2.5809 -0.6532,-0.1331 0.5334,-2.6164 0.0037,-0.0142 z m -0.928,4.5551 -0.5322,2.613 -0.6533,-0.133 0.5322,-2.613 z m -0.9314,4.573 -0.5322,2.613 -0.6532,-0.134 0.5322,-2.613 z m -0.9277,4.554 -0.3876,2.639 -0.6596,-0.097 0.3876,-2.639 z m -0.6783,4.617 -0.3877,2.639 -0.6596,-0.097 0.3877,-2.638 z m -0.6784,4.618 -0.3877,2.638 -0.6595,-0.097 0.3876,-2.638 z m -0.6784,4.617 -0.0252,0.171 -0.2204,2.465 -0.664,-0.06 0.2248,-2.502 0.0252,-0.171 z m -0.4242,4.628 -0.2381,2.656 -0.664,-0.06 0.2381,-2.656 z m -0.4166,4.648 -0.2381,2.656 -0.664,-0.06 0.2381,-2.656 z m -0.4167,4.648 -0.0436,0.486 -0.0652,2.158 -0.6664,-0.02 0.0676,-2.198 0.0436,-0.486 z m -0.1698,4.643 -0.0814,2.665 -0.6663,-0.02 0.0813,-2.665 z m -0.1424,4.665 -0.0813,2.665 -0.6663,-0.02 0.0813,-2.666 z m -0.1423,4.664 -0.0263,0.863 0.0469,1.784 -0.6665,0.017 -0.0468,-1.821 0.0264,-0.863 z m 0.0725,4.646 0.0694,2.666 -0.6665,0.017 -0.0693,-2.666 z m 0.1853,4.645 0.2049,2.659 -0.6647,0.051 -0.2049,-2.659 z m 0.3585,4.653 0.0966,1.253 0.2081,1.37 -0.6591,0.099 -0.2137,-1.418 -0.0966,-1.253 z m 0.6039,4.6 0.399,2.637 -0.6592,0.1 -0.3989,-2.637 z m 0.6982,4.614 0.399,2.637 -0.6592,0.1 -0.399,-2.637 z m 0.6982,4.614 0.2508,1.658 0.2323,0.931 -0.6471,0.16 -0.2444,-0.991 -0.2508,-1.658 z m 0.9645,4.53 0.6419,2.588 -0.6471,0.161 -0.6419,-2.589 z m 1.1233,4.529 0.6419,2.589 -0.6471,0.16 -0.6419,-2.588 z m 1.1233,4.53 0.5135,2.071 0.165,0.476 -0.6304,0.216 -0.1816,-0.532 -0.5136,-2.071 z m 1.3288,4.438 0.8669,2.522 -0.6304,0.217 -0.867,-2.522 z m 1.5171,4.413 0.867,2.522 -0.6305,0.217 -0.8669,-2.522 z m 1.5172,4.413 0.8502,2.474 0.0106,0.021 -0.61,0.268 -0.031,-0.073 -0.8502,-2.473 z m 1.6679,4.324 1.0761,2.44 -0.61,0.269 -1.0761,-2.44 z m 1.8832,4.27 1.0761,2.44 -0.61,0.269 -1.0761,-2.44 z m 1.8832,4.27 1.0761,2.44 -0.61,0.269 -1.0761,-2.44 z m 1.9866,4.189 1.2717,2.344 -0.586,0.318 -1.2716,-2.344 z m 2.2255,4.102 1.2716,2.344 -0.586,0.317 -1.2716,-2.343 z m 2.2253,4.101 1.2717,2.344 -0.586,0.318 -1.2716,-2.344 z m 2.2909,4.032 1.4559,2.234 -0.5585,0.364 -1.456,-2.234 z m 2.5479,3.91 1.4559,2.234 -0.5585,0.364 -1.456,-2.234 z m 2.5478,3.91 1.456,2.234 -0.5586,0.364 -1.4559,-2.234 z m 2.5857,3.85 1.631,2.109 -0.5274,0.408 -1.6311,-2.11 z m 2.8543,3.692 1.6311,2.109 -0.5274,0.408 -1.6311,-2.11 z m 2.8544,3.691 1.6311,2.11 -0.5274,0.408 -1.6311,-2.11 z m 2.8762,3.638 1.7987,1.969 -0.4921,0.45 -1.7988,-1.969 z m 3.1478,3.445 1.7988,1.969 -0.4922,0.45 -1.7987,-1.969 z m 3.1479,3.446 1.7987,1.968 -0.4921,0.45 -1.7988,-1.969 z m 3.1667,3.386 1.96,1.808 -0.452,0.49 -1.96,-1.808 z m 3.4301,3.164 1.96,1.808 -0.452,0.49 -1.9601,-1.808 z m 3.43,3.164 1.9601,1.808 -0.4521,0.49 -1.96,-1.808 z m 3.4601,3.082 2.1149,1.624 -0.4061,0.529 -2.1149,-1.624 z m 3.7011,2.843 2.11492,1.624 -0.40602,0.529 -2.115,-1.625 z m 3.70112,2.842 2.11492,1.624 -0.40607,0.529 -2.11492,-1.624 z m 3.75571,2.707 2.262,1.413 -0.35306,0.565 -2.262,-1.412 z m 3.958502,2.472 2.261998,1.412 -0.35306,0.565 -2.262003,-1.412 z m 3.958498,2.471 1.96826,1.229 0.2807,0.135 -0.29171,0.599 -0.34206,-0.168 -1.96826,-1.229 z m 4.04732,2.239 2.3978,1.167 -0.29173,0.599 -2.3978,-1.167 z m 4.19615,2.042 2.3978,1.167 -0.2917,0.599 -2.3978,-1.167 z m 4.1962,2.042 1.0084,0.491 1.4158,0.544 -0.2396,0.622 -1.4679,-0.567 -1.0085,-0.491 z m 4.2906,1.753 2.4885,0.959 -0.2396,0.622 -2.4885,-0.958 z m 4.3743,1.561 2.5418,0.807 -0.2016,0.635 -2.5418,-0.806 z m 4.4343,1.383 2.5876,0.645 -0.161,0.646 -2.5877,-0.644 z m 4.5284,1.128 1.0831,0.269 1.5045,0.27 -0.1179,0.656 -1.5476,-0.279 -1.0831,-0.269 z m 4.5561,0.892 2.5146,0.452 0.0884,0.009 -0.0723,0.663 -0.134,-0.016 -2.5146,-0.451 z m 4.5912,0.678 2.6509,0.289 -0.0723,0.663 -2.6509,-0.289 z m 4.6189,0.453 2.6649,0.099 -0.0245,0.666 -2.6649,-0.098 z m 4.6635,0.172 0.6717,0.025 1.9739,-0.047 0.0156,0.666 -2.0141,0.047 -0.6716,-0.025 z m 4.6451,-0.069 2.6659,-0.062 0.0156,0.666 -2.6659,0.063 z m 4.6654,-0.109 2.6659,-0.063 0.0156,0.667 -2.6659,0.062 z m 4.6477,-0.165 2.6604,-0.183 0.0457,0.665 -2.6603,0.183 z m 4.6557,-0.32 2.6603,-0.183 0.0458,0.665 -2.6604,0.183 z m 4.6556,-0.321 1.4274,-0.098 1.2137,-0.137 0.0747,0.663 -1.2427,0.139 -1.4273,0.099 z m 4.6285,-0.459 2.6499,-0.299 0.0746,0.663 -2.6498,0.298 z m 4.6373,-0.523 2.6498,-0.299 0.0747,0.663 -2.6499,0.299 z m 4.6191,-0.55 2.6347,-0.412 0.103,0.658 -2.6347,0.412 z m 4.6107,-0.721 2.6347,-0.412 0.1029,0.659 -2.6346,0.412 z m 4.6107,-0.721 1.5969,-0.249 1.0158,-0.204 0.131,0.653 -1.0438,0.209 -1.5969,0.25 z m 4.5737,-0.847 2.615,-0.524 0.131,0.654 -2.615,0.524 z m 4.576,-0.917 2.614,-0.524 0.131,0.653 -2.614,0.525 z m 4.551,-0.958 2.589,-0.639 0.16,0.647 -2.589,0.639 z m 4.531,-1.118 2.589,-0.639 0.16,0.648 -2.589,0.638 z m 4.531,-1.118 0.599,-0.147 1.95,-0.578 0.19,0.639 -1.981,0.586 -0.599,0.148 z m 4.467,-1.294 2.557,-0.757 0.189,0.639 -2.557,0.758 z m 4.474,-1.325 1.736,-0.515 0.792,-0.278 0.221,0.629 -0.823,0.289 -1.736,0.514 z m 4.415,-1.457 2.516,-0.884 0.221,0.629 -2.516,0.884 z m 4.402,-1.547 2.335,-0.821 0.16,-0.067 0.256,0.616 -0.195,0.08 -2.334,0.821 z m 4.342,-1.655 2.463,-1.023 0.255,0.616 -2.462,1.023 z m 4.31,-1.79 2.342,-0.973 0.097,-0.049 0.295,0.598 -0.136,0.066 -2.343,0.974 z m 4.233,-1.906 2.392,-1.179 0.295,0.598 -2.392,1.179 z m 4.186,-2.063 1.73,-0.852 0.613,-0.364 0.34,0.573 -0.659,0.389 -1.729,0.852 z m 4.064,-2.235 2.295,-1.359 0.339,0.574 -2.294,1.359 z m 4.016,-2.377 0.508,-0.301 1.652,-1.205 0.392,0.539 -1.704,1.239 -0.509,0.301 z m 3.777,-2.683 2.155,-1.57 0.393,0.539 -2.156,1.57 z m 3.623,-2.864 1.949,-1.82 0.455,0.487 -1.949,1.82 z m 3.41,-3.186 0.191,-0.177 -0.037,0.04 1.471,-1.905 0.528,0.407 -1.471,1.905 c -0.011,0.014 -0.023,0.028 -0.036,0.04 l -0.191,0.178 z m 2.847,-3.625 0.787,-1.019 -0.038,0.062 0.588,-1.248 0.603,0.284 -0.587,1.248 c -0.011,0.022 -0.023,0.042 -0.038,0.061 l -0.787,1.019 z m 2.19,-4.014 0.717,-1.522 -0.023,0.064 0.23,-0.957 0.648,0.156 -0.23,0.957 c -0.005,0.022 -0.013,0.043 -0.022,0.064 l -0.717,1.522 z m 1.289,-4.324 0.137,-1.698 0.665,0.054 -0.138,1.698 z M -5.30592,0.54003 -8.36391,-3.1694 0,0 -7.55386,4.78949 Z"
         fill="#008080"
         transform="matrix(0,1,1,0,-143.5,-119.5)"
         id="path28" /><path
         d="m 121.17,61.2365 5.333,0.0558 -0.007,0.6667 -5.333,-0.0559 z m 7.333,0.0768 5.333,0.0558 -0.007,0.6666 -5.333,-0.0558 z m 7.333,0.0767 0.043,5e-4 5.294,0.1627 -0.02,0.6664 -5.281,-0.1625 -0.043,-5e-4 z m 7.336,0.2247 5.331,0.1639 -0.02,0.6664 -5.331,-0.164 z m 7.33,0.2254 5.331,0.1639 -0.02,0.6663 -5.331,-0.1639 z m 7.336,0.2401 5.327,0.2685 -0.034,0.6658 -5.327,-0.2685 z m 7.324,0.3691 5.327,0.2685 -0.034,0.6658 -5.326,-0.2684 z m 7.324,0.3692 5.327,0.2684 -0.034,0.6658 -5.326,-0.2684 z m 7.328,0.4051 5.321,0.3717 -0.047,0.665 -5.32,-0.3717 z m 7.316,0.5111 5.32,0.3717 -0.046,0.665 -5.321,-0.3717 z m 7.315,0.5111 3.907,0.2729 1.418,0.127 -0.059,0.664 -1.406,-0.126 -3.906,-0.2729 z m 7.317,0.5785 5.312,0.4761 -0.059,0.664 -5.312,-0.4761 z m 7.304,0.6547 5.312,0.4761 -0.059,0.664 -5.312,-0.4761 z m 7.304,0.6546 1.691,0.1516 3.621,0.3991 -0.073,0.6627 -3.607,-0.3978 -1.691,-0.1516 z m 7.3,0.7699 5.301,0.5845 -0.073,0.6626 -5.301,-0.5845 z m 7.289,0.8037 5.301,0.5844 -0.073,0.6627 -5.301,-0.5845 z m 7.293,0.8332 5.287,0.7002 -0.088,0.6609 -5.287,-0.7002 z m 7.27,0.9628 5.287,0.7002 -0.088,0.6609 -5.287,-0.7003 z m 7.269,0.9627 2.015,0.2668 3.269,0.5136 -0.103,0.6586 -3.253,-0.5113 -2.015,-0.2668 z m 7.26,1.0908 5.269,0.8278 -0.104,0.6586 -5.269,-0.8278 z m 7.244,1.1383 4.212,0.6617 1.06,0.1887 -0.117,0.6564 -1.046,-0.1865 -4.212,-0.6617 z m 7.241,1.2011 4.833,0.8607 0.422,0.0815 -0.127,0.6545 -0.411,-0.0797 -4.834,-0.8607 z m 7.218,1.3224 5.121,0.9916 0.12,0.0254 -0.137,0.6524 -0.11,-0.0233 -5.121,-0.9916 z m 7.198,1.4298 5.052,1.0653 0.172,0.0396 -0.15,0.6497 -0.16,-0.0369 -5.051,-1.0654 z m 7.173,1.5537 4.612,1.0618 0.589,0.1487 -0.163,0.6464 -0.576,-0.1454 -4.612,-1.0618 z m 7.141,1.6997 3.786,0.9554 1.384,0.3843 -0.179,0.6424 -1.368,-0.3803 -3.787,-0.9553 z m 7.097,1.8752 2.567,0.7132 2.559,0.7884 -0.196,0.6372 -2.542,-0.7833 -2.567,-0.7132 z m 7.038,2.0905 0.947,0.2919 4.116,1.4181 -0.218,0.6303 -4.094,-1.4112 -0.948,-0.292 z m 6.951,2.4087 3.376,1.3174 1.575,0.7059 -0.273,0.6082 -1.544,-0.693 -3.377,-1.3175 z m 6.775,2.8421 0.522,0.234 3.381,1.7831 0.833,0.5323 -0.36,0.5614 -0.785,-0.5041 -3.342,-1.7644 -0.522,-0.2341 z m 6.42,3.6281 0.304,0.1947 2.243,1.8284 c 0.014,0.0114 0.027,0.0239 0.039,0.0374 l 1.402,1.5859 -0.5,0.4415 -1.401,-1.5858 0.039,0.0374 -2.182,-1.7834 -0.304,-0.1947 z m 5.036,5.4311 0.179,0.3329 c 0.016,0.0307 0.028,0.0639 0.034,0.0982 l 0.331,1.8275 c 0.006,0.033 0.007,0.067 0.003,0.1 l -0.381,3.075 -0.662,-0.082 0.381,-3.075 0.003,0.101 -0.331,-1.8277 0.034,0.0982 -0.178,-0.3328 z m -0.408,7.4166 -0.832,2.289 c -0.008,0.019 -0.017,0.038 -0.027,0.056 l -1.485,2.49 -0.572,-0.342 1.484,-2.489 -0.027,0.057 0.832,-2.289 z m -3.491,6.528 -2.399,2.904 -1.168,1.105 -0.457,-0.485 1.111,-1.045 2.4,-2.903 z m -5.022,5.381 -0.974,0.919 -3.196,2.452 -0.406,-0.529 3.145,-2.408 0.974,-0.919 z m -5.815,4.555 -4.191,2.676 -0.34,0.183 -0.315,-0.587 0.296,-0.158 4.191,-2.675 z m -6.292,3.807 -3.22,1.733 -1.546,0.704 -0.276,-0.607 1.506,-0.684 3.22,-1.733 z m -6.586,3.266 -2.415,1.099 -2.521,0.968 -0.238,-0.622 2.483,-0.952 2.415,-1.1 z m -6.803,2.784 -1.796,0.689 -3.302,0.955 -0.185,-0.64 3.248,-0.937 1.796,-0.69 z m -7.02,2.2 -5.124,1.48 -0.185,-0.64 5.124,-1.481 z m -7.045,2.035 -1.069,0.309 -4.163,0.844 -0.132,-0.653 4.11,-0.831 1.069,-0.309 z m -7.192,1.55 -0.934,0.189 -4.353,0.636 -0.096,-0.66 4.316,-0.629 0.934,-0.189 z m -7.266,1.114 -0.89,0.13 -4.435,0.396 -0.059,-0.664 4.397,-0.392 0.891,-0.13 z m -7.317,0.703 -0.911,0.081 -4.436,0.136 -0.02,-0.667 4.397,-0.133 0.911,-0.081 z m -7.346,0.277 -0.962,0.029 -0.02,-0.666 0.962,-0.029 z M 122.458,65.5836 114.5,61.5001 122.541,57.584 Z"
         fill="#0000ff"
         id="path29" /><path
         d="m -149.5,-87.8656 c 0,1.6163 -5.995,3.2327 -11.99,3.2327 -5.995,0 -11.99,-10.0148 -11.99,-20.0301 0,-10.014 7.565,-20.029 15.131,-20.029 7.566,0 15.131,2.596 15.131,5.192"
         stroke="#008080"
         stroke-width="0.666667"
         stroke-linejoin="round"
         stroke-miterlimit="10"
         stroke-dasharray="2.66667, 2"
         fill="none"
         fill-rule="evenodd"
         id="path30" /><text
         font-family="'Calibri Light', 'Calibri Light_MSFontService', sans-serif"
         font-weight="300"
         font-size="13px"
         transform="translate(-98.7935,148)"
         id="text30">Argument / Return /</text><text
         font-family="'Calibri Light', 'Calibri Light_MSFontService', sans-serif"
         font-weight="300"
         font-size="13px"
         transform="translate(-38.9602,164)"
         id="text31">(.) Object</text><text
         font-family="'Calibri Light', 'Calibri Light_MSFontService', sans-serif"
         font-weight="300"
         font-size="13px"
         transform="translate(25.2063,-118)"
         id="text32">Type/</text><text
         font-family="'Calibri Light', 'Calibri Light_MSFontService', sans-serif"
         font-weight="300"
         font-size="13px"
         transform="translate(25.2063,-102)"
         id="text33">Namespace</text><path
         d="m 270.172,153.295 7.592,0.145 14.159,0.797 13.936,1.286 13.6,1.74 13.155,2.159 12.597,2.543 11.928,2.893 11.149,3.207 10.257,3.488 9.257,3.733 8.144,3.946 6.922,4.125 5.59,4.272 2.272,2.191 1.887,2.212 1.499,2.237 1.095,2.26 c 0.008,0.016 0.014,0.033 0.019,0.051 l 0.653,2.227 c 0.006,0.02 0.01,0.041 0.012,0.061 l 0.221,2.232 c 0.002,0.017 0.002,0.034 0.001,0.05 l -0.456,8.885 -1.292,8.638 -2.009,8.079 -2.608,7.242 -3.09,6.131 -1.698,2.574 -1.772,2.184 -1.84,1.769 c -0.013,0.012 -0.026,0.024 -0.041,0.034 l -1.857,1.285 c -0.018,0.013 -0.039,0.024 -0.06,0.033 l -1.886,0.796 c -0.026,0.011 -0.054,0.019 -0.082,0.023 l -1.902,0.273 -0.094,-0.659 1.901,-0.274 -0.082,0.023 1.886,-0.796 -0.06,0.033 1.857,-1.286 -0.041,0.034 1.784,-1.708 1.733,-2.131 1.659,-2.507 3.058,-6.057 2.588,-7.178 1.996,-8.016 1.286,-8.573 0.456,-8.885 0.002,0.05 -0.221,-2.232 0.012,0.061 -0.653,-2.228 0.019,0.051 -1.048,-2.178 -1.452,-2.175 -1.844,-2.165 -2.213,-2.142 -5.526,-4.229 -6.872,-4.097 -8.103,-3.927 -9.221,-3.721 -10.228,-3.478 -11.121,-3.2 -11.903,-2.888 -12.573,-2.538 -13.131,-2.156 -13.578,-1.737 -13.911,-1.284 -14.134,-0.796 -7.593,-0.146 z m 1.25,4.358 -7.922,-4.153 8.075,-3.846 z"
         id="path33" /><text
         fill="#1d2d35"
         font-family="'Calibri Light', 'Calibri Light_MSFontService', sans-serif"
         font-weight="300"
         font-size="13px"
         transform="translate(-1.21863,-279)"
         id="text34">BF Data Type (_DAT) Bugs Model</text><text
         fill="#7f7f7f"
         font-family="'Calibri Light', 'Calibri Light_MSFontService', sans-serif"
         font-weight="300"
         font-size="12px"
         transform="translate(-244.742,310)"
         id="text35">BF, I. Bojanova</text><path
         d="m -256.167,-231.166 v 551.285 h -0.666 v -551.285 z m -0.333,-0.001 -4,2.667 4,-8 4,8 z"
         id="path35" /><text
         font-family="'Calibri Light', 'Calibri Light_MSFontService', sans-serif"
         font-weight="300"
         font-size="13px"
         transform="translate(-273.585,-265)"
         id="text36">S</text><text
         font-family="'Calibri Light', 'Calibri Light_MSFontService', sans-serif"
         font-weight="300"
         font-size="13px"
         transform="translate(-267.585,-265)"
         id="text37">pace</text><text
         font-family="'Calibri Light', 'Calibri Light_MSFontService', sans-serif"
         font-weight="300"
         font-size="13px"
         transform="translate(-295.919,-249)"
         id="text38">Interpretation</text><path
         d="m -256.5,168.5 c -5.247,0 -9.5,-10.062 -9.5,-22.475 V 53.2673 c 0,-12.4125 -4.253,-22.4748 -9.5,-22.4748 5.247,0 9.5,-10.0623 9.5,-22.47483 V -85.0252 c 0,-12.4125 4.253,-22.4748 9.5,-22.4748"
         stroke="#454545"
         stroke-width="0.666667"
         stroke-miterlimit="8"
         fill="none"
         fill-rule="evenodd"
         id="path38" /><text
         font-family="'Calibri Light', 'Calibri Light_MSFontService', sans-serif"
         font-weight="300"
         font-size="13px"
         transform="translate(-318.237,-11)"
         id="text39">Object</text><text
         font-family="'Calibri Light', 'Calibri Light_MSFontService', sans-serif"
         font-weight="300"
         font-size="13px"
         transform="translate(-318.651,5)"
         id="text40">Layout</text><text
         font-family="'Calibri Light', 'Calibri Light_MSFontService', sans-serif"
         font-weight="300"
         font-size="13px"
         transform="translate(-325.997,71)"
         id="text41">Elements</text><text
         font-family="'Calibri Light', 'Calibri Light_MSFontService', sans-serif"
         font-weight="300"
         font-size="13px"
         transform="translate(-311.497,87)"
         id="text42">Size</text><path
         d="M 5.36669,-0.00189194 8.01056,0.346045 7.92358,1.00701 5.27971,0.659076 Z M 9.9999,0.787072 10.6454,0.95387 10.4786,1.59933 9.8331,1.43254 Z M 12.5818,1.45427 15.1636,2.12146 14.9968,2.76692 12.415,2.09973 Z m 4.563,1.18878 0.6138,0.26 -0.26,0.61388 -0.6138,-0.26 z m 2.4555,1.04001 2.4555,1.04 -0.26,0.61388 -2.4555,-1.04001 z m 4.2971,1.82001 0.6139,0.26 -0.26,0.61387 -0.6139,-0.26 z m 2.4358,1.17581 2.2996,1.35017 -0.3375,0.5749 -2.2996,-1.35017 z m 4.0243,2.3628 0.5749,0.33755 L 30.5949,9.95412 30.02,9.61658 Z m 2.2996,1.35022 0.9366,0.5499 1.2943,0.9721 -0.4011,0.5325 -1.2307,-0.9297 -0.9366,-0.5499 z m 3.8284,2.7253 0.5325,0.4012 -0.4011,0.5325 -0.5325,-0.4012 z m 2.13,1.6045 2.13,1.6044 -0.4011,0.5325 -2.13,-1.6044 z m 3.6831,2.9136 0.4891,0.4531 -0.4531,0.489 -0.4891,-0.4531 z m 1.9561,1.8124 1.9561,1.8124 -0.4531,0.489 -1.9561,-1.8124 z m 3.4231,3.1717 0.4891,0.4532 -0.4531,0.489 -0.4891,-0.4531 z m 1.9239,1.887 1.7822,1.9836 -0.4958,0.4456 -1.7823,-1.9836 z m 3.1189,3.4713 0.4456,0.4959 -0.4959,0.4456 -0.4456,-0.4959 z m 1.7823,1.9836 1.6718,1.8607 0.1176,0.1532 -0.5315,0.4025 -0.082,-0.1102 -1.6718,-1.8606 z m 2.9968,3.6083 0.4025,0.5315 -0.5314,0.4025 -0.4025,-0.5315 z m 1.61,2.1258 1.61,2.1259 -0.5315,0.4024 -1.6099,-2.1258 z m 2.8175,3.7202 0.4025,0.5315 -0.5315,0.4025 -0.4025,-0.5315 z m 1.5516,2.1983 1.4388,2.2452 -0.5613,0.3597 -1.4388,-2.2452 z m 2.5179,3.9291 0.3597,0.5613 -0.5613,0.3597 -0.3597,-0.5613 z m 1.4388,2.2452 1.4388,2.2453 -0.5613,0.3596 -1.4388,-2.2452 z m 2.4153,4.0185 0.3168,0.5866 -0.5866,0.3168 -0.3168,-0.5865 z m 1.2673,2.3463 1.2674,2.3463 -0.5866,0.3168 -1.2673,-2.3463 z m 2.2179,4.106 0.3168,0.5865 -0.5866,0.3169 -0.3168,-0.5866 z m 1.2668,2.3735 1.0937,2.4321 -0.608,0.2734 -1.0937,-2.4321 z m 1.9139,4.2561 0.2734,0.608 -0.608,0.2734 -0.2734,-0.608 z m 1.0937,2.4321 1.0937,2.4321 -0.608,0.2734 -1.0937,-2.4321 z m 1.9008,4.2874 0.2289,0.6261 -0.6261,0.2289 -0.2289,-0.6261 z m 0.9156,2.5046 0.9156,2.5045 -0.6261,0.2289 -0.9156,-2.5045 z m 1.6023,4.3829 0.2289,0.6262 -0.6261,0.2289 -0.2289,-0.6262 z m 0.9156,2.5046 0.5751,1.5733 0.2793,0.9767 -0.6412,0.1826 -0.2642,-0.9304 -0.5751,-1.5733 z m 1.4024,4.4734 0.1827,0.6411 -0.6411,0.1827 -0.1827,-0.6411 z m 0.7308,2.5646 0.7308,2.5646 -0.6411,0.1826 -0.7308,-2.5645 z m 1.2789,4.488 0.1827,0.6411 -0.6412,0.1827 -0.1827,-0.6411 z m 0.6736,2.6042 0.5369,2.6121 -0.653,0.1342 -0.5369,-2.612 z m 0.9396,4.5711 0.1343,0.6535 -0.6531,0.134 -0.1342,-0.6532 z m 0.537,2.6125 0.5369,2.612 -0.653,0.134 -0.537,-2.612 z m 0.8922,4.605 0.083,0.661 -0.6615,0.083 -0.083,-0.661 z m 0.3319,2.646 0.3318,2.646 -0.6615,0.083 -0.3318,-2.646 z m 0.5807,4.63 0.0829,0.662 -0.6614,0.083 -0.083,-0.662 z m 0.3318,2.646 0.1945,1.551 0.0494,1.13 -0.6661,0.028 -0.0448,-1.075 -0.1945,-1.551 z m 0.3292,4.679 0.0284,0.666 -0.6661,0.029 -0.0284,-0.666 z m 0.1137,2.664 0.1137,2.665 -0.666,0.028 -0.1138,-2.664 z m 0.199,4.663 0.0285,0.666 -0.6661,0.028 -0.0284,-0.666 z M 5.3232,0.328592 7.73836,4.48529 0,0 8.23125,-3.49951 Z"
         fill="#9900ff"
         transform="matrix(0,-1,-1,0,13.1672,-1.47039)"
         id="path42" /><path
         d="m -115.5,-93.0205 c 0,-0.4999 -1.191,-0.9998 -2.383,-0.9998 -1.191,0 -2.382,-3.3699 -2.382,-6.7397 0,-3.37 5.523,-6.74 11.047,-6.74"
         stroke="#9900ff"
         stroke-width="0.666667"
         stroke-linejoin="round"
         stroke-miterlimit="10"
         stroke-dasharray="2.66667, 2, 0.666667, 2"
         fill="none"
         fill-rule="evenodd"
         id="path43" /><text
         font-family="'Calibri Light', 'Calibri Light_MSFontService', sans-serif"
         font-weight="300"
         font-size="13px"
         transform="translate(20.7978,-16)"
         id="text43">(entity name)</text><path
         d="M 0.00736292,-0.333252 11.3923,-0.0817123 l 11.31,0.7338303 11.1314,1.183942 10.8639,1.60192 10.5077,1.9878 10.0625,2.34165 9.5289,2.66357 8.9064,2.9535 8.1954,3.2118 7.3961,3.4387 6.5084,3.6345 5.533,3.8 4.47,3.9369 c 0.014,0.012 0.026,0.025 0.038,0.039 l 3.28,4.0085 c 0.023,0.0281 0.041,0.0598 0.054,0.0938 l 0.689,1.8314 -0.624,0.2348 -0.689,-1.8315 0.054,0.0938 -3.28,-4.0086 0.037,0.0389 -4.406,-3.8875 -5.481,-3.7675 -6.4645,-3.612 L 91.6552,17.217 83.4932,14.0173 74.6172,11.073 65.1167,8.41674 55.0813,6.08082 44.6004,4.09751 33.7632,2.49899 22.6591,1.31738 11.3775,0.584792 -0.00736292,0.333252 Z M 122.955,35.002 l -1.358,8.8407 -6.258,-6.3902 z"
         fill="#454545"
         transform="matrix(0,1,1,0,-237.5,-213.5)"
         id="path44" /></g></g></svg>
