<?xml version="1.0" encoding="UTF-8" standalone="no"?>
<!-- Created with Inkscape (http://www.inkscape.org/) -->

<svg
   width="210.91934mm"
   height="146.53407mm"
   viewBox="0 0 210.91933 146.53407"
   version="1.1"
   id="svg1"
   xml:space="preserve"
   sodipodi:docname="_DAT.svg"
   inkscape:version="1.3 (0e150ed6c4, 2023-07-21)"
   xmlns:inkscape="http://www.inkscape.org/namespaces/inkscape"
   xmlns:sodipodi="http://sodipodi.sourceforge.net/DTD/sodipodi-0.dtd"
   xmlns="http://www.w3.org/2000/svg"
   xmlns:svg="http://www.w3.org/2000/svg"><sodipodi:namedview
     id="namedview1"
     pagecolor="#ffffff"
     bordercolor="#000000"
     borderopacity="0.25"
     inkscape:showpageshadow="2"
     inkscape:pageopacity="0.0"
     inkscape:pagecheckerboard="0"
     inkscape:deskcolor="#d1d1d1"
     inkscape:document-units="mm"
     inkscape:zoom="1.7041198"
     inkscape:cx="398.44616"
     inkscape:cy="277.26924"
     inkscape:window-width="2560"
     inkscape:window-height="1377"
     inkscape:window-x="-8"
     inkscape:window-y="859"
     inkscape:window-maximized="1"
     inkscape:current-layer="layer1" /><defs
     id="defs1"><clipPath
       clipPathUnits="userSpaceOnUse"
       id="clipPath594"><path
         d="M 0,0 H 717 V 334 H 0 Z"
         id="path592" /></clipPath><clipPath
       id="clip0"><rect
         x="104"
         y="143"
         width="985"
         height="489"
         id="rect685" /></clipPath><clipPath
       id="clip0-9"><rect
         x="122"
         y="272"
         width="912"
         height="352"
         id="rect908" /></clipPath><clipPath
       id="clip0-4"><rect
         x="122"
         y="272"
         width="912"
         height="317"
         id="rect1246" /></clipPath><clipPath
       id="clip0-7"><rect
         x="122"
         y="272"
         width="928"
         height="352"
         id="rect1" /></clipPath><clipPath
       id="clip0-6"><rect
         x="122"
         y="272"
         width="926"
         height="321"
         id="rect1-5" /></clipPath><clipPath
       id="clip0-0"><rect
         x="122"
         y="272"
         width="919"
         height="321"
         id="rect1-4" /></clipPath><clipPath
       id="clip0-90"><rect
         x="121"
         y="270"
         width="913"
         height="355"
         id="rect1-7" /></clipPath><clipPath
       id="clip0-60"><rect
         x="121"
         y="270"
         width="913"
         height="301"
         id="rect1-3" /></clipPath><clipPath
       id="clip0-07"><rect
         x="352"
         y="301"
         width="378"
         height="504"
         id="rect1-8" /></clipPath><clipPath
       id="clip0-98"><rect
         x="121"
         y="270"
         width="913"
         height="301"
         id="rect1-87" /></clipPath><clipPath
       id="clip0-3"><rect
         x="121"
         y="270"
         width="920"
         height="293"
         id="rect1-876" /></clipPath><clipPath
       id="clip0-5"><rect
         x="95"
         y="267"
         width="896"
         height="547"
         id="rect1-2" /></clipPath><clipPath
       id="clip0-63"><rect
         x="95"
         y="267"
         width="864"
         height="433"
         id="rect1-21" /></clipPath><clipPath
       id="clip0-1"><rect
         x="33"
         y="-1"
         width="1182"
         height="611"
         id="rect1-50" /></clipPath><clipPath
       id="clip0-52"><rect
         x="320"
         y="-1"
         width="728"
         height="559"
         id="rect1-9" /></clipPath><clipPath
       id="clip0-68"><rect
         x="320"
         y="-1"
         width="728"
         height="544"
         id="rect1-97" /></clipPath><clipPath
       id="clip0-10"><rect
         x="320"
         y="39"
         width="728"
         height="504"
         id="rect1-6" /></clipPath><clipPath
       id="clip0-37"><rect
         x="270"
         y="350"
         width="728"
         height="440"
         id="rect1-51" /></clipPath><clipPath
       id="clip0-41"><rect
         x="270"
         y="318"
         width="728"
         height="472"
         id="rect1-57" /></clipPath><clipPath
       id="clip0-50"><rect
         x="320"
         y="39"
         width="728"
         height="504"
         id="rect1-98" /></clipPath><clipPath
       id="clip0-48"><rect
         x="320"
         y="71"
         width="728"
         height="472"
         id="rect1-0" /></clipPath><clipPath
       id="clip0-02"><rect
         x="320"
         y="39"
         width="728"
         height="504"
         id="rect1-09" /></clipPath><clipPath
       id="clip0-59"><rect
         x="320"
         y="71"
         width="728"
         height="472"
         id="rect1-04" /></clipPath><clipPath
       id="clip0-16"><rect
         x="320"
         y="71"
         width="728"
         height="472"
         id="rect1-35" /></clipPath><clipPath
       id="clip0-8"><rect
         x="121"
         y="270"
         width="913"
         height="278"
         id="rect1-54" /></clipPath><clipPath
       id="clip0-76"><rect
         x="121"
         y="270"
         width="913"
         height="278"
         id="rect1-06" /></clipPath><clipPath
       id="clip0-106"><rect
         x="121"
         y="270"
         width="913"
         height="278"
         id="rect1-874" /></clipPath><clipPath
       id="clip0-94"><rect
         x="348"
         y="312"
         width="382"
         height="449"
         id="rect1-25" /></clipPath><clipPath
       id="clip0-64"><rect
         x="121"
         y="270"
         width="913"
         height="278"
         id="rect1-62" /></clipPath><clipPath
       id="clip0-47"><rect
         x="95"
         y="267"
         width="896"
         height="547"
         id="rect1-63" /></clipPath><clipPath
       id="clip0-71"><rect
         x="146"
         y="266"
         width="857"
         height="282"
         id="rect1-92" /></clipPath><clipPath
       id="clip0-57"><rect
         x="177"
         y="266"
         width="747"
         height="385"
         id="rect1-22" /></clipPath><clipPath
       id="clip0-102"><rect
         x="186"
         y="271"
         width="702"
         height="380"
         id="rect1-926" /></clipPath><clipPath
       id="clip0-77"><rect
         x="186"
         y="271"
         width="702"
         height="380"
         id="rect1-224" /></clipPath><clipPath
       id="clip0-482"><rect
         x="186"
         y="274"
         width="661"
         height="377"
         id="rect1-08" /></clipPath><clipPath
       id="clip0-04"><rect
         x="167"
         y="266"
         width="819"
         height="282"
         id="rect1-34" /></clipPath><clipPath
       id="clip0-56"><rect
         x="163"
         y="265"
         width="799"
         height="282"
         id="rect1-47" /></clipPath><clipPath
       id="clip0-2"><rect
         x="351"
         y="273"
         width="638"
         height="472"
         id="rect1-1" /></clipPath><clipPath
       id="clip0-93"><rect
         x="351"
         y="241"
         width="638"
         height="504"
         id="rect1-77" /></clipPath><clipPath
       id="clip0-49"><rect
         x="351"
         y="241"
         width="638"
         height="504"
         id="rect1-981" /></clipPath><clipPath
       id="clip0-31"><rect
         x="193"
         y="272"
         width="654"
         height="379"
         id="rect1-05" /></clipPath><clipPath
       id="clip0-938"><rect
         x="193"
         y="272"
         width="654"
         height="379"
         id="rect1-12" /></clipPath><clipPath
       id="clip0-85"><rect
         x="163"
         y="265"
         width="805"
         height="282"
         id="rect1-257" /></clipPath><clipPath
       id="clip0-83"><rect
         x="193"
         y="272"
         width="641"
         height="380"
         id="rect1-068" /></clipPath><clipPath
       id="clip0-44"><rect
         x="163"
         y="265"
         width="805"
         height="282"
         id="rect1-923" /></clipPath><clipPath
       id="clip0-412"><rect
         x="193"
         y="272"
         width="641"
         height="380"
         id="rect1-49" /></clipPath><clipPath
       id="clip0-483"><rect
         x="351"
         y="241"
         width="639"
         height="458"
         id="rect1-357" /></clipPath><clipPath
       id="clip0-32"><rect
         x="351"
         y="241"
         width="639"
         height="458"
         id="rect1-15" /></clipPath><clipPath
       id="clip0-045"><rect
         x="163"
         y="265"
         width="805"
         height="282"
         id="rect1-01" /></clipPath><clipPath
       id="clip0-97"><rect
         x="216"
         y="229"
         width="621"
         height="318"
         id="rect1-03" /></clipPath><clipPath
       id="clip0-87"><rect
         x="216"
         y="229"
         width="621"
         height="318"
         id="rect1-66" /></clipPath><clipPath
       id="clip0-26"><rect
         x="-19"
         y="165"
         width="814"
         height="597"
         id="rect1-73" /></clipPath><clipPath
       id="clip0-89"><rect
         x="77"
         y="89"
         width="762"
         height="777"
         id="rect1-40" /></clipPath><clipPath
       id="clip0-91"><rect
         x="216"
         y="229"
         width="621"
         height="318"
         id="rect1-229" /></clipPath><clipPath
       id="clip0-569"><rect
         x="77"
         y="89"
         width="762"
         height="777"
         id="rect1-639" /></clipPath><clipPath
       id="clip0-15"><rect
         x="78"
         y="188"
         width="853"
         height="609"
         id="rect1-215" /></clipPath><clipPath
       id="clip0-06"><rect
         x="254"
         y="1081"
         width="539"
         height="418"
         id="rect1-342" /></clipPath><clipPath
       id="clip0-30"><rect
         x="351"
         y="241"
         width="639"
         height="458"
         id="rect1-42" /></clipPath><clipPath
       id="clip0-12"><rect
         x="78"
         y="188"
         width="853"
         height="609"
         id="rect1-02" /></clipPath><clipPath
       id="clip0-79"><rect
         x="83"
         y="188"
         width="846"
         height="539"
         id="rect1-778" /></clipPath><clipPath
       id="clip0-73"><rect
         x="83"
         y="194"
         width="846"
         height="533"
         id="rect1-52" /></clipPath><clipPath
       id="clip0-23"><rect
         x="194"
         y="23"
         width="771"
         height="791"
         id="rect1-150" /></clipPath><clipPath
       id="clip0-39"><rect
         x="194"
         y="48"
         width="771"
         height="766"
         id="rect1-025" /></clipPath><clipPath
       id="clip0-419"><rect
         x="194"
         y="48"
         width="771"
         height="766"
         id="rect1-779" /></clipPath><clipPath
       id="clip0-906"><rect
         x="214"
         y="227"
         width="675"
         height="300"
         id="rect1-59" /></clipPath><clipPath
       id="clip0-078"><rect
         x="77"
         y="118"
         width="763"
         height="748"
         id="rect1-88" /></clipPath><clipPath
       id="clip0-042"><rect
         x="-21"
         y="196"
         width="816"
         height="562"
         id="rect1-501" /></clipPath><clipPath
       id="clip0-604"><rect
         x="783"
         y="154"
         width="601"
         height="303"
         id="rect1-504" /></clipPath><clipPath
       id="clip0-38"><rect
         x="82"
         y="118"
         width="758"
         height="748"
         id="rect1-032" /></clipPath><clipPath
       id="clip0-25"><rect
         x="214"
         y="227"
         width="675"
         height="300"
         id="rect1-64" /></clipPath><clipPath
       id="clip0-65"><rect
         x="18"
         y="-1"
         width="1173"
         height="1915"
         id="rect1-36" /></clipPath><clipPath
       id="clip0-711"><rect
         x="95"
         y="267"
         width="856"
         height="440"
         id="rect1-10" /></clipPath><clipPath
       id="clip0-84"><rect
         x="121"
         y="270"
         width="913"
         height="285"
         id="rect1-89" /></clipPath><clipPath
       id="clip0-09"><rect
         x="121"
         y="270"
         width="913"
         height="285"
         id="rect1-56" /></clipPath><clipPath
       id="clip0-126"><rect
         x="95"
         y="267"
         width="856"
         height="440"
         id="rect1-122" /></clipPath><clipPath
       id="clip0-4127"><rect
         x="15"
         y="214"
         width="922"
         height="833"
         id="rect1-28" /></clipPath><clipPath
       id="clip0-0459"><rect
         x="15"
         y="214"
         width="922"
         height="833"
         id="rect1-91" /></clipPath><clipPath
       id="clip0-169"><rect
         x="197"
         y="48"
         width="760"
         height="632"
         id="rect1-087" /></clipPath><clipPath
       id="clip0-262"><rect
         x="18"
         y="2"
         width="1173"
         height="1747"
         id="rect1-017" /></clipPath><clipPath
       id="clip0-61"><rect
         x="18"
         y="2"
         width="1173"
         height="1747"
         id="rect1-53" /></clipPath><clipPath
       id="clip0-326"><rect
         x="18"
         y="34"
         width="1460"
         height="1196"
         id="rect1-024" /></clipPath><clipPath
       id="clip0-0451"><rect
         x="18"
         y="34"
         width="1460"
         height="1196"
         id="rect1-429" /></clipPath><clipPath
       id="clip0-82"><rect
         x="18"
         y="46"
         width="1460"
         height="1025"
         id="rect1-24" /></clipPath><clipPath
       id="clip0-617"><rect
         x="-79"
         y="46"
         width="1555"
         height="994"
         id="rect1-885" /></clipPath><clipPath
       id="clip0-601"><rect
         x="18"
         y="46"
         width="1414"
         height="994"
         id="rect1-13" /></clipPath><clipPath
       id="clip0-849"><rect
         x="18"
         y="46"
         width="1414"
         height="994"
         id="rect1-46" /></clipPath><clipPath
       id="clip0-66"><rect
         x="18"
         y="46"
         width="1407"
         height="994"
         id="rect1-498" /></clipPath><clipPath
       id="clip0-69"><rect
         x="18"
         y="2"
         width="1173"
         height="1747"
         id="rect1-68" /></clipPath><clipPath
       id="clip0-22"><rect
         x="82"
         y="118"
         width="758"
         height="748"
         id="rect1-3571" /></clipPath><clipPath
       id="clip0-870"><rect
         x="214"
         y="243"
         width="675"
         height="284"
         id="rect1-927" /></clipPath><clipPath
       id="clip0-14"><rect
         x="-21"
         y="196"
         width="816"
         height="562"
         id="rect1-96" /></clipPath><clipPath
       id="clip0-098"><rect
         x="197"
         y="53"
         width="760"
         height="627"
         id="rect1-43" /></clipPath><clipPath
       id="clip0-851"><rect
         x="77"
         y="118"
         width="763"
         height="748"
         id="rect1-570" /></clipPath><clipPath
       id="clip0-4831"><rect
         x="18"
         y="46"
         width="1366"
         height="973"
         id="rect1-515" /></clipPath><clipPath
       id="clip0-857"><rect
         x="18"
         y="2"
         width="1173"
         height="1747"
         id="rect1-79" /></clipPath><clipPath
       id="clip0-446"><rect
         x="18"
         y="2"
         width="1173"
         height="1747"
         id="rect1-047" /></clipPath><clipPath
       id="clip0-446-3"><rect
         x="18"
         y="2"
         width="1173"
         height="1747"
         id="rect1-047-8" /></clipPath><clipPath
       id="clip0-267"><rect
         x="83"
         y="188"
         width="846"
         height="539"
         id="rect1-69" /></clipPath><clipPath
       id="clip0-33"><rect
         x="83"
         y="188"
         width="846"
         height="539"
         id="rect1-17" /></clipPath><clipPath
       id="clip0-717"><rect
         x="83"
         y="188"
         width="846"
         height="539"
         id="rect1-963" /></clipPath><clipPath
       id="clip0-165"><rect
         x="214"
         y="243"
         width="675"
         height="284"
         id="rect1-00" /></clipPath><clipPath
       id="clip0-51"><rect
         x="-21"
         y="196"
         width="816"
         height="562"
         id="rect1-71" /></clipPath></defs><g
     inkscape:label="Layer 1"
     inkscape:groupmode="layer"
     id="layer1"
     transform="translate(-62.643278,-137.75579)"><g
       clip-path="url(#clip0-51)"
       transform="matrix(0.26458333,0,0,0.26458333,66.391499,85.504457)"
       id="g41"><path
         d="m 30.5001,276.592 c 0,-8.887 7.2044,-16.092 16.0916,-16.092 H 177.408 c 8.888,0 16.092,7.205 16.092,16.092 v 85.816 c 0,8.888 -7.204,16.092 -16.092,16.092 H 46.5917 c -8.8872,0 -16.0916,-7.204 -16.0916,-16.092 z"
         stroke="#7b7b7b"
         stroke-width="1.33333"
         stroke-miterlimit="8"
         fill="#f2f2f2"
         fill-rule="evenodd"
         id="path1" /><text
         font-family="Arial, Arial_MSFontService, sans-serif"
         font-weight="400"
         font-size="12px"
         transform="translate(91.1396,277)"
         id="text1">DCL (entity)</text><path
         d="m 47.5001,295.667 c 0,-2.301 1.8655,-4.167 4.1667,-4.167 h 58.6662 c 2.302,0 4.167,1.866 4.167,4.167 v 16.666 c 0,2.302 -1.865,4.167 -4.167,4.167 H 51.6668 c -2.3012,0 -4.1667,-1.865 -4.1667,-4.167 z"
         stroke="#000000"
         stroke-width="1.33333"
         stroke-miterlimit="8"
         fill="#ffffff"
         fill-rule="evenodd"
         id="path2" /><text
         font-family="Arial, Arial_MSFontService, sans-serif"
         font-weight="400"
         font-size="12px"
         transform="translate(59.8926,309)"
         id="text2">Declare</text><path
         d="m 114.5,346.667 c 0,-2.301 1.866,-4.167 4.167,-4.167 h 58.666 c 2.302,0 4.167,1.866 4.167,4.167 v 16.666 c 0,2.302 -1.865,4.167 -4.167,4.167 h -58.666 c -2.301,0 -4.167,-1.865 -4.167,-4.167 z"
         stroke="#000000"
         stroke-width="1.33333"
         stroke-miterlimit="8"
         fill="#ffffff"
         fill-rule="evenodd"
         id="path3" /><text
         font-family="Arial, Arial_MSFontService, sans-serif"
         font-weight="400"
         font-size="12px"
         transform="translate(130.426,360)"
         id="text3">Define</text><path
         d="M 0.0344367,-0.665777 3.65944,-0.478277 7.35222,0.0912174 14.4437,2.23708 c 0.0375,0.01139 0.0741,0.02613 0.109,0.04394 l 6.5,3.3125 c 0.032,0.01632 0.0628,0.03529 0.0918,0.05656 l 5.875,4.3125 c 0.0306,0.02245 0.0593,0.04752 0.0856,0.07492 l 4.9375,5.125 c 0.0264,0.0274 0.0504,0.057 0.0718,0.0885 l 3.8125,5.625 c 0.0206,0.0305 0.0388,0.0627 0.0541,0.0962 l 1.375,3 c 0.0159,0.0345 0.0287,0.0704 0.0384,0.1071 l 0.7391,2.7893 -1.2889,0.3415 -0.739,-2.7894 0.0384,0.1071 -1.375,-3 0.0541,0.0962 -3.8125,-5.625 0.0718,0.0885 -4.9375,-5.125 0.0856,0.0749 -5.875,-4.31248 0.0918,0.05656 -6.5,-3.3125 0.109,0.04394 L 7.14777,1.40878 3.59056,0.853277 -0.0344367,0.665777 Z M 41.1886,25.0167 38.6732,33.6 33.3158,26.4377 Z"
         fill="#454545"
         transform="matrix(0,1,1,0,81.5001,316.5)"
         id="path4" /><path
         d="m 0.0146485,-0.666506 11.3749515,0.25 11.342,0.7513 11.1517,1.189806 10.899,1.56551 10.4682,2.00513 10.0901,2.38092 9.5859,2.63094 8.908,2.9475 8.224,3.2633 7.4106,3.4528 6.5429,3.6471 5.551,3.7814 4.504,3.9896 c 0.028,0.024 0.053,0.0502 0.075,0.0783 l 3.25,4 c 0.046,0.0556 0.082,0.1182 0.107,0.1852 l 0.682,1.8085 -1.248,0.4703 -0.682,-1.8084 0.107,0.1852 -3.25,-4 0.075,0.0783 -4.371,-3.8854 -5.449,-3.7186 -6.4571,-3.6029 -7.3394,-3.4222 -8.151,-3.2367 -8.842,-2.9275 L 65.0344,8.77384 54.9995,6.40475 44.5927,4.40989 33.7417,2.8504 22.6434,1.66521 11.3604,0.916506 -0.0146485,0.666506 Z M 122.957,35.0024 l -1.36,8.8403 -6.256,-6.3919 z"
         fill="#454545"
         transform="matrix(0,1,1,0,-13.5,197.5)"
         id="path5" /><path
         d="m 193.5,395.592 c 0,-8.887 7.205,-16.092 16.092,-16.092 h 130.816 c 8.888,0 16.092,7.205 16.092,16.092 v 85.816 c 0,8.888 -7.204,16.092 -16.092,16.092 H 209.592 c -8.887,0 -16.092,-7.204 -16.092,-16.092 z"
         stroke="#7b7b7b"
         stroke-width="1.33333"
         stroke-miterlimit="8"
         fill="#f2f2f2"
         fill-rule="evenodd"
         id="path6" /><text
         font-family="Arial, Arial_MSFontService, sans-serif"
         font-weight="400"
         font-size="12px"
         transform="translate(225.279,395)"
         id="text6">NRS (entity name)</text><path
         d="m 204.5,413.667 c 0,-2.301 1.866,-4.167 4.167,-4.167 h 58.666 c 2.302,0 4.167,1.866 4.167,4.167 v 16.666 c 0,2.302 -1.865,4.167 -4.167,4.167 h -58.666 c -2.301,0 -4.167,-1.865 -4.167,-4.167 z"
         stroke="#cc00ff"
         stroke-width="1.33333"
         stroke-miterlimit="8"
         fill="#ffffff"
         fill-rule="evenodd"
         id="path7" /><text
         font-family="Arial, Arial_MSFontService, sans-serif"
         font-weight="400"
         font-size="12px"
         transform="translate(222.75,426)"
         id="text7">Refer</text><path
         d="m 271.5,464.667 c 0,-2.301 1.866,-4.167 4.167,-4.167 h 58.666 c 2.302,0 4.167,1.866 4.167,4.167 v 16.666 c 0,2.302 -1.865,4.167 -4.167,4.167 h -58.666 c -2.301,0 -4.167,-1.865 -4.167,-4.167 z"
         stroke="#008080"
         stroke-width="1.33333"
         stroke-miterlimit="8"
         fill="#ffffff"
         fill-rule="evenodd"
         id="path8" /><text
         font-family="Arial, Arial_MSFontService, sans-serif"
         font-weight="400"
         font-size="12px"
         transform="translate(294.283,478)"
         id="text8">Call</text><path
         d="M 0.0344367,-0.665777 3.65944,-0.478277 7.35222,0.0912174 14.4437,2.23708 c 0.0375,0.01139 0.0741,0.02613 0.109,0.04394 l 6.5,3.3125 c 0.032,0.01632 0.0628,0.03529 0.0918,0.05656 l 5.875,4.3125 c 0.0306,0.02245 0.0593,0.04752 0.0856,0.07492 l 4.9375,5.125 c 0.0264,0.0274 0.0504,0.057 0.0718,0.0885 l 3.8125,5.625 c 0.0206,0.0305 0.0388,0.0627 0.0541,0.0962 l 1.375,3 c 0.0159,0.0345 0.0287,0.0704 0.0384,0.1071 l 0.7391,2.7893 -1.2889,0.3415 -0.739,-2.7894 0.0384,0.1071 -1.375,-3 0.0541,0.0962 -3.8125,-5.625 0.0718,0.0885 -4.9375,-5.125 0.0856,0.0749 -5.875,-4.31248 0.0918,0.05656 -6.5,-3.3125 0.109,0.04394 L 7.14777,1.40878 3.59056,0.853277 -0.0344367,0.665777 Z M 41.1886,25.0167 38.6732,33.6 33.3158,26.4377 Z"
         fill="#454545"
         transform="matrix(0,1,1,0,237.5,434.5)"
         id="path9" /><path
         d="m 186.556,438.472 -8.59,-1.019 -7.563,-1.635 -7.362,-2.2 -7.109,-2.704 -6.797,-3.207 -6.42,-3.649 -6.04,-4.024 -5.546,-4.408 -5.041,-4.723 -4.355,-4.92 -3.791,-5.239 -2.981,-5.38 -2.283,-5.505 c -0.013,-0.033 -0.024,-0.067 -0.032,-0.102 l -1.313,-5.563 c -0.007,-0.031 -0.012,-0.063 -0.015,-0.095 l -0.482,-5.541 1.328,-0.116 0.482,5.542 -0.015,-0.096 1.312,5.563 -0.033,-0.102 2.218,5.37 2.894,5.244 3.709,5.137 4.269,4.83 4.959,4.652 5.455,4.342 5.96,3.975 6.33,3.602 6.702,3.167 7.017,2.672 7.263,2.175 7.437,1.614 8.59,1.019 z m -1.077,-4.717 7.815,4.349 -8.168,3.643 z"
         fill="#454545"
         id="path10" /><path
         d="m 512.891,678.046 -3.398,-0.085 -10.041,-0.877 -9.967,-1.316 -9.974,-1.881 -9.845,-2.382 -9.778,-2.82 -9.658,-3.322 -9.524,-3.697 -9.345,-4.201 -9.207,-4.509 -8.966,-4.953 -8.774,-5.326 -16.786,-11.71 -15.668,-12.971 -14.477,-14.035 -6.719,-7.47 -6.33,-7.646 -5.894,-7.837 -5.518,-8.088 -5.079,-8.212 -4.642,-8.403 -4.202,-8.528 -3.641,-8.661 -3.2,-8.78 -2.637,-8.851 -2.073,-8.914 -1.508,-8.978 -0.943,-9.042 -0.263,-9.032 1.332,-0.038 0.257,8.932 0.932,8.959 1.492,8.897 2.052,8.835 2.612,8.775 3.176,8.72 3.608,8.589 4.174,8.472 4.608,8.347 5.046,8.162 5.482,8.038 5.856,7.788 6.295,7.604 6.655,7.405 14.399,13.965 15.581,12.904 16.715,11.664 8.726,5.299 8.909,4.923 9.167,4.49 9.281,4.174 9.475,3.679 9.593,3.302 9.722,2.805 9.779,2.368 9.902,1.869 9.908,1.31 9.958,0.872 3.398,0.085 z m -1.217,-4.699 7.898,4.198 -8.097,3.8 z"
         fill="#454545"
         id="path11" /><path
         d="M -13.5001,730.833 H 699.712 v 1.334 H -13.5001 Z m 713.2101,0.667 -2.666,-4 8,4 -8,4 z"
         id="path12" /><path
         d="m 356.5,512.228 c 0,-8.134 6.594,-14.728 14.728,-14.728 h 133.544 c 8.134,0 14.728,6.594 14.728,14.728 v 78.544 c 0,8.134 -6.594,14.728 -14.728,14.728 H 371.228 c -8.134,0 -14.728,-6.594 -14.728,-14.728 z"
         stroke="#7b7b7b"
         stroke-width="1.33333"
         stroke-miterlimit="8"
         fill="#f2f2f2"
         fill-rule="evenodd"
         id="path13" /><text
         font-family="Arial, Arial_MSFontService, sans-serif"
         font-weight="400"
         font-size="12px"
         transform="translate(403.677,513)"
         id="text13">TCV (object)</text><path
         d="m 404.5,531.667 c 0,-2.301 1.866,-4.167 4.167,-4.167 h 58.666 c 2.302,0 4.167,1.866 4.167,4.167 v 16.666 c 0,2.302 -1.865,4.167 -4.167,4.167 h -58.666 c -2.301,0 -4.167,-1.865 -4.167,-4.167 z"
         stroke="#000000"
         stroke-width="1.33333"
         stroke-miterlimit="8"
         fill="#ffffff"
         fill-rule="evenodd"
         id="path14" /><text
         font-family="Arial, Arial_MSFontService, sans-serif"
         font-weight="400"
         font-size="12px"
         transform="translate(425.284,544)"
         id="text14">Cast</text><path
         d="m 404.5,572.667 c 0,-2.301 1.866,-4.167 4.167,-4.167 h 58.666 c 2.302,0 4.167,1.866 4.167,4.167 v 16.666 c 0,2.302 -1.865,4.167 -4.167,4.167 h -58.666 c -2.301,0 -4.167,-1.865 -4.167,-4.167 z"
         stroke="#000000"
         stroke-width="1.33333"
         stroke-miterlimit="8"
         fill="#ffffff"
         fill-rule="evenodd"
         id="path15" /><text
         font-family="Arial, Arial_MSFontService, sans-serif"
         font-weight="400"
         font-size="12px"
         transform="translate(418.284,585)"
         id="text15">Coerce</text><path
         d="m 519.5,621.092 c 0,-8.059 6.533,-14.592 14.592,-14.592 h 132.817 c 8.058,0 14.591,6.533 14.591,14.592 v 77.817 c 0,8.058 -6.533,14.591 -14.591,14.591 H 534.092 c -8.059,0 -14.592,-6.533 -14.592,-14.591 z"
         stroke="#7b7b7b"
         stroke-width="1.33333"
         stroke-miterlimit="8"
         fill="#f2f2f2"
         fill-rule="evenodd"
         id="path16" /><text
         font-family="Arial, Arial_MSFontService, sans-serif"
         font-weight="400"
         font-size="12px"
         transform="translate(565.367,622)"
         id="text16">TCM (object)</text><path
         d="m 566.5,641.667 c 0,-2.301 1.866,-4.167 4.167,-4.167 h 58.666 c 2.302,0 4.167,1.866 4.167,4.167 v 16.666 c 0,2.302 -1.865,4.167 -4.167,4.167 h -58.666 c -2.301,0 -4.167,-1.865 -4.167,-4.167 z"
         stroke="#000000"
         stroke-width="1.33333"
         stroke-miterlimit="8"
         fill="#ffffff"
         fill-rule="evenodd"
         id="path17" /><text
         font-family="Arial, Arial_MSFontService, sans-serif"
         font-weight="400"
         font-size="12px"
         transform="translate(574.76,654)"
         id="text17">Calculate</text><path
         d="m 566.5,681.667 c 0,-2.301 1.866,-4.167 4.167,-4.167 h 58.666 c 2.302,0 4.167,1.866 4.167,4.167 v 16.666 c 0,2.302 -1.865,4.167 -4.167,4.167 h -58.666 c -2.301,0 -4.167,-1.865 -4.167,-4.167 z"
         stroke="#000000"
         stroke-width="1.33333"
         stroke-miterlimit="8"
         fill="#ffffff"
         fill-rule="evenodd"
         id="path18" /><text
         font-family="Arial, Arial_MSFontService, sans-serif"
         font-weight="400"
         font-size="12px"
         transform="translate(576.426,695)"
         id="text18">Evaluate</text><path
         d="m 397.56,581.257 -8.773,-0.213 -15.47,-1.127 -15.404,-1.815 -15.278,-2.441 -15.157,-3.194 -15.024,-3.755 -14.904,-4.446 -14.588,-5.008 -14.399,-5.571 -14.148,-6.072 -13.776,-6.637 -13.522,-7.136 -13.085,-7.575 -12.709,-8.013 -12.336,-8.515 -11.832,-8.827 -11.397,-9.267 -10.834,-9.581 -10.333,-9.957 -9.708,-10.208 -9.145,-10.522 -8.521,-10.838 -7.832,-11.026 -7.144,-11.215 -6.3943,-11.407 -5.6429,-11.597 -4.8913,-11.786 -4.0157,-11.854 -3.2616,-11.913 -2.3241,-12.05 -1.3828,-12.113 -0.4944,-12.051 1.3323,-0.054 0.4869,11.954 1.3673,12.012 2.3009,11.95 3.2384,11.837 3.9843,11.771 4.8587,11.714 5.6071,11.528 6.3562,11.343 7.106,11.159 7.793,10.974 8.479,10.788 9.105,10.478 9.667,10.166 10.291,9.919 10.792,9.544 11.353,9.233 11.792,8.798 12.29,8.485 12.666,7.987 13.039,7.55 13.479,7.114 13.723,6.613 14.103,6.053 14.351,5.554 14.536,4.992 14.846,4.429 14.976,3.745 15.093,3.181 15.223,2.434 15.345,1.81 15.405,1.123 8.773,0.213 z m -1.22,-4.698 7.901,4.193 -8.095,3.805 z"
         fill="#008080"
         id="path19" /><path
         d="m 512.825,660.792 -8.468,-1.142 -7.506,-1.825 -7.305,-2.454 -7.055,-3.083 -6.733,-3.585 -6.36,-4.091 -5.98,-4.529 -5.539,-4.907 -4.921,-5.296 -4.411,-5.604 -3.665,-5.806 -3.032,-6.058 -2.219,-6.198 -1.399,-6.331 c -0.007,-0.034 -0.012,-0.068 -0.014,-0.103 l -0.383,-6.239 1.33,-0.082 0.384,6.239 -0.014,-0.102 1.351,6.169 2.156,6.051 2.968,5.943 3.585,5.693 4.34,5.521 4.828,5.205 5.461,4.843 5.895,4.47 6.265,4.035 6.642,3.54 6.945,3.041 7.195,2.422 7.369,1.8 8.468,1.142 z m -1.028,-4.726 7.774,4.423 -8.203,3.565 z"
         fill="#454545"
         id="path20" /><path
         d="m 397.413,540.416 -8.963,-0.359 -15.486,-1.754 -15.299,-2.882 -14.917,-3.822 -14.421,-4.826 -13.791,-5.64 -13.102,-6.393 -12.232,-7.149 -11.23,-7.777 -10.167,-8.281 -8.92,-8.728 -7.609,-9.176 -3.285,-4.733 -2.838,-4.79 -2.459,-4.851 -2.08,-4.851 -1.645,-4.927 -1.203,-4.993 -0.7,-5.001 -0.232,-4.952 1.332,-0.062 0.221,4.83 0.675,4.874 1.172,4.882 1.605,4.823 2.045,4.774 2.416,4.774 2.787,4.71 3.215,4.642 7.516,9.074 8.83,8.647 10.083,8.219 11.144,7.722 12.144,7.102 13.022,6.357 13.71,5.61 14.328,4.799 14.833,3.803 15.202,2.868 15.389,1.746 8.964,0.358 z m -1.145,-4.717 7.833,4.317 -8.153,3.677 z"
         fill="#0000ff"
         id="path21" /><path
         d="m 121.175,303.927 15.647,0.219 22.146,1.001 21.769,1.626 21.329,2.126 20.521,2.69 19.705,3.128 18.71,3.629 17.395,3.941 8.208,2.13 7.886,2.191 7.391,2.254 7.081,2.381 6.576,2.38 6.15,2.51 5.644,2.508 5.212,2.574 4.6,2.645 4.156,2.706 3.543,2.718 2.924,2.729 2.367,2.808 c 0.022,0.025 0.041,0.052 0.058,0.08 l 1.688,2.75 c 0.023,0.039 0.043,0.079 0.058,0.121 l 1,2.75 c 0.016,0.045 0.028,0.091 0.034,0.138 l 0.375,2.75 c 0.007,0.047 0.008,0.095 0.004,0.143 l -0.437,5.5 c -0.003,0.037 -0.009,0.073 -0.018,0.109 l -1.375,5.5 -2.217,5.464 -3.039,5.33 -3.725,5.183 -4.354,4.928 -4.981,4.67 -5.483,4.288 -5.975,4.028 -6.423,3.592 -6.795,3.148 -7.041,2.704 -7.301,2.143 -7.483,1.636 -7.618,1.01 -7.703,0.311 -0.054,-1.332 7.583,-0.301 7.507,-0.99 7.393,-1.614 7.198,-2.107 6.959,-2.67 6.705,-3.102 6.328,-3.534 5.899,-3.972 5.392,-4.211 4.894,-4.581 4.271,-4.822 3.65,-5.067 2.961,-5.17 2.158,-5.286 1.375,-5.5 -0.018,0.109 0.438,-5.5 0.004,0.143 -0.375,-2.75 0.034,0.138 -1,-2.75 0.058,0.121 -1.687,-2.75 0.058,0.08 -2.258,-2.692 -2.825,-2.646 -3.458,-2.657 -4.094,-2.669 -4.525,-2.605 -5.163,-2.551 -5.606,-2.492 -6.1,-2.49 -6.548,-2.37 -7.045,-2.369 -7.359,-2.246 -7.864,-2.184 -8.167,-2.12 -17.355,-3.933 -18.665,-3.622 -19.67,-3.122 -20.479,-2.685 -21.296,-2.124 -21.731,-1.623 -22.104,-1 -15.646,-0.219 z m 1.268,4.685 -7.943,-4.112 8.055,-3.888 z"
         fill="#9900ff"
         id="path22" /><text
         font-family="Arial, Arial_MSFontService, sans-serif"
         font-weight="400"
         font-size="12px"
         transform="translate(246.135,515)"
         id="text22">Object</text><text
         font-family="Arial, Arial_MSFontService, sans-serif"
         font-weight="400"
         font-size="12px"
         transform="translate(250.674,454)"
         id="text23">function</text><text
         font-family="Arial, Arial_MSFontService, sans-serif"
         font-weight="400"
         font-size="12px"
         transform="translate(387.24,299)"
         id="text24">Argument / Return /</text><text
         font-family="Arial, Arial_MSFontService, sans-serif"
         font-weight="400"
         font-size="12px"
         transform="translate(387.24,313)"
         id="text25">(.) Object</text><text
         font-family="Arial, Arial_MSFontService, sans-serif"
         font-weight="400"
         font-size="12px"
         transform="translate(469.277,430)"
         id="text26">Subtype Object</text><path
         d="m 278.173,421.904 28.647,0.304 35.075,1.063 34.514,1.751 33.7,2.376 32.576,2.938 15.821,1.626 15.385,1.813 15.004,1.876 14.574,2.064 14.068,2.126 13.507,2.188 13.01,2.315 12.387,2.439 11.822,2.502 11.137,2.565 10.389,2.629 9.763,2.691 8.957,2.755 8.147,2.82 7.338,2.885 6.47,2.951 5.597,2.955 4.671,2.964 3.751,3.045 c 0.029,0.024 0.056,0.05 0.081,0.079 l 2.625,3 c 0.033,0.037 0.061,0.078 0.085,0.121 l 1.625,3 c 0.033,0.062 0.057,0.128 0.069,0.197 l 0.563,3.063 c 0.01,0.053 0.013,0.107 0.009,0.162 l -0.187,3 -0.572,3.141 c -0.007,0.037 -0.017,0.073 -0.03,0.108 l -2.187,6 c -0.014,0.039 -0.032,0.077 -0.054,0.113 l -3.5,5.875 c -0.016,0.028 -0.035,0.055 -0.056,0.08 l -4.687,5.75 -5.934,5.625 -6.987,5.418 -7.926,5.036 -8.725,4.772 -9.541,4.396 -10.166,3.892 -10.785,3.45 -11.221,2.947 -11.598,2.383 -11.912,1.757 -12.101,1.067 -12.18,0.333 -0.037,-1.333 12.1,-0.329 12.024,-1.057 11.838,-1.744 11.527,-2.367 11.154,-2.927 10.715,-3.426 10.084,-3.857 9.459,-4.355 8.65,-4.728 7.824,-4.964 6.888,-5.332 5.816,-5.5 4.688,-5.75 -0.056,0.08 3.5,-5.875 -0.054,0.113 2.188,-6 -0.03,0.108 0.553,-2.984 0.188,-3 0.009,0.162 -0.562,-3.062 0.069,0.197 -1.625,-3 0.085,0.122 -2.625,-3 0.081,0.078 -3.624,-2.955 -4.579,-2.91 -5.528,-2.921 -6.405,-2.924 -7.287,-2.865 -8.103,-2.805 -8.918,-2.745 -9.736,-2.684 -10.362,-2.621 -11.113,-2.56 -11.803,-2.498 -12.363,-2.436 -12.99,-2.31 -13.493,-2.187 -14.056,-2.124 -14.552,-2.061 -14.996,-1.874 -15.365,-1.812 -15.804,-1.624 -32.549,-2.936 -33.675,-2.375 -34.486,-1.749 -35.05,-1.062 -28.646,-0.305 z m 1.284,4.681 -7.957,-4.085 8.042,-3.915 z"
         fill="#454545"
         id="path26" /><text
         font-family="Arial, Arial_MSFontService, sans-serif"
         font-weight="400"
         font-size="12px"
         transform="translate(441.433,470)"
         id="text27">Argument</text><text
         font-family="Arial, Arial_MSFontService, sans-serif"
         font-weight="400"
         font-size="12px"
         transform="translate(714.425,734)"
         id="text28">Type System</text><text
         font-family="Arial, Arial_MSFontService, sans-serif"
         font-weight="400"
         font-size="12px"
         transform="translate(714.425,748)"
         id="text29">Timeline</text><path
         d="m -6.44184,1.57449 -4.08566,1.01019 0.0987,-0.03276 -3.5625,1.5 -3.4439,1.84823 -3.4543,2.22314 -6.7485,5.57831 -6.5027,6.8815 -6.2688,8.1365 -5.9676,9.2665 -5.5353,10.3289 -5.1065,11.1501 -4.6726,11.965 -4.0486,12.6482 -3.4271,13.2141 -2.8048,13.6546 -2.0559,14.025 -1.2455,14.211 -0.4352,14.337 0.1875,7.15 0.5607,7.153 2.1198,14.204 3.4875,13.999 4.6713,13.633 5.8537,13.196 6.8517,12.64 7.7851,11.954 8.6565,11.206 9.4016,10.27 10.0235,9.273 10.64013,8.148 11.07233,6.901 11.44014,5.592 5.8205,2.226 5.8999,1.862 5.9609,1.489 5.9545,1.053 5.9529,0.618 6.0209,0.247 12.0177,-0.313 11.9723,-0.811 11.7839,-1.31 11.4698,-1.809 11.0968,-2.244 10.597,-2.619 10.096,-2.992 9.342,-3.302 8.657,-3.551 7.769,-3.855 6.832,-4.039 5.823,-4.217 4.62,-4.381 -0.068,0.075 3.5,-4.5 -0.078,0.128 2.125,-4.563 -0.043,0.124 0.562,-2.313 -0.017,0.104 0.19,-2.343 1.329,0.108 -0.19,2.343 c -0.002,0.035 -0.008,0.069 -0.016,0.104 l -0.563,2.312 c -0.01,0.043 -0.025,0.084 -0.043,0.124 l -2.125,4.562 c -0.021,0.046 -0.048,0.089 -0.078,0.128 l -3.5,4.5 c -0.021,0.027 -0.044,0.052 -0.068,0.075 l -4.755,4.494 -5.927,4.283 -6.918,4.086 -7.856,3.895 -8.718,3.574 -9.408,3.323 -10.154,3.008 -10.653,2.631 -11.153,2.256 -11.5304,1.816 -11.8411,1.315 -12.0277,0.814 -12.1073,0.312 -6.1041,-0.253 -6.0471,-0.632 -6.0455,-1.072 -6.0391,-1.511 -5.9751,-1.888 -5.9295,-2.274 -11.55986,-5.658 -11.17767,-6.974 -10.73487,-8.227 -10.1015,-9.352 -9.4733,-10.355 -8.7186,-11.294 -7.8399,-12.046 -6.8983,-12.735 -5.8963,-13.304 -4.7037,-13.743 -3.5125,-14.125 -2.1302,-14.296 -0.5643,-7.222 -0.1875,-7.225 0.4398,-14.413 1.2545,-14.289 2.0691,-14.1 2.8202,-13.7204 3.4479,-13.2859 4.0764,-12.7268 4.7024,-12.0351 5.1436,-11.2248 5.5896,-10.4211 6.0324,-9.3585 6.3562,-8.2385 6.6223,-6.9935 6.8765,-5.67169 3.5457,-2.27686 3.5561,-1.90177 3.5625,-1.5 c 0.032,-0.01346 0.065,-0.02443 0.0987,-0.03276 L -6.76188,0.280131 Z M -8.47862,-2.84834 0,0 -7.36585,5.07389 Z"
         fill="#008080"
         transform="matrix(0,1,1,0,81.5,291.5)"
         id="path29" /><path
         d="m 345.173,472.904 17.084,0.179 23.573,0.626 23.138,1.063 22.637,1.438 21.886,1.751 21.012,2.063 19.826,2.377 18.577,2.626 8.698,1.377 8.327,1.502 7.943,1.502 7.445,1.501 7.019,1.629 6.572,1.627 6.021,1.693 5.454,1.693 4.963,1.758 4.34,1.761 3.781,1.763 3.178,1.84 2.501,1.855 c 0.026,0.019 0.051,0.04 0.073,0.063 l 1.813,1.813 c 0.04,0.04 0.075,0.085 0.104,0.134 l 1.062,1.812 c 0.037,0.063 0.063,0.131 0.078,0.202 l 0.375,1.813 c 0.014,0.071 0.018,0.143 0.009,0.215 l -0.438,3.625 c -0.005,0.043 -0.014,0.086 -0.028,0.128 l -1.187,3.625 c -0.014,0.041 -0.031,0.081 -0.053,0.118 l -2,3.563 -2.673,3.574 -3.37,3.442 -3.989,3.297 -4.422,3.035 -4.979,2.902 -5.353,2.646 -5.79,2.394 -12.37,3.833 -6.553,1.452 -6.727,1.069 -6.857,0.631 -6.877,0.242 -0.047,-1.332 6.803,-0.238 6.768,-0.619 6.649,-1.055 6.446,-1.424 12.256,-3.792 5.709,-2.356 5.272,-2.604 4.896,-2.848 4.328,-2.965 3.886,-3.202 3.255,-3.308 2.577,-3.427 2,-3.562 -0.052,0.119 1.187,-3.625 -0.028,0.127 0.437,-3.625 0.009,0.215 -0.375,-1.812 0.078,0.202 -1.063,-1.813 0.104,0.134 -1.812,-1.812 0.073,0.064 -2.374,-1.771 -3.072,-1.785 -3.719,-1.737 -4.285,-1.739 -4.912,-1.742 -5.42,-1.682 -5.98,-1.682 -6.553,-1.623 -6.981,-1.621 -7.43,-1.498 -7.932,-1.499 -8.298,-1.498 -8.677,-1.373 -18.548,-2.624 -19.799,-2.373 -20.988,-2.061 -21.864,-1.75 -22.613,-1.436 -23.112,-1.062 -23.552,-0.625 -17.084,-0.18 z m 1.285,4.68 -7.958,-4.084 8.042,-3.915 z"
         fill="#0000ff"
         id="path30" /><path
         d="m 74.5001,323.134 c 0,1.617 -5.7923,3.233 -11.5846,3.233 -5.7922,0 -11.5845,-10.015 -11.5845,-20.029 0,-10.015 7.3628,-20.03 14.7256,-20.03 7.3628,0 14.7257,2.596 14.7257,5.192"
         stroke="#008080"
         stroke-width="1.33333"
         stroke-linejoin="round"
         stroke-miterlimit="10"
         fill="none"
         fill-rule="evenodd"
         id="path31" /><text
         font-family="Arial, Arial_MSFontService, sans-serif"
         font-weight="400"
         font-size="12px"
         transform="translate(144.825,562)"
         id="text31">Argument / Return /</text><text
         font-family="Arial, Arial_MSFontService, sans-serif"
         font-weight="400"
         font-size="12px"
         transform="translate(200.158,576)"
         id="text32">(.) Object</text><text
         font-family="Arial, Arial_MSFontService, sans-serif"
         font-weight="400"
         font-size="12px"
         transform="translate(256.147,297)"
         id="text33">Type/</text><text
         font-family="Arial, Arial_MSFontService, sans-serif"
         font-weight="400"
         font-size="12px"
         transform="translate(256.147,311)"
         id="text34">Namespace</text><path
         d="m 526.178,550.953 10.834,0.193 17.337,0.938 17.082,1.439 16.711,2.003 16.145,2.44 15.463,2.942 14.585,3.317 13.711,3.631 12.594,4.009 11.344,4.261 5.159,2.264 4.827,2.256 4.463,2.325 4.032,2.393 3.657,2.458 3.221,2.461 2.793,2.536 2.353,2.541 1.863,2.561 c 0.02,0.028 0.038,0.057 0.054,0.088 l 1.312,2.562 c 0.017,0.032 0.03,0.064 0.041,0.098 l 0.813,2.5 c 0.014,0.046 0.024,0.093 0.029,0.141 l 0.25,2.563 c 0.003,0.034 0.004,0.068 0.002,0.102 l -0.562,10.125 -1.507,9.876 -2.388,9.253 -3.083,8.316 -1.773,3.741 -1.9,3.297 -2.026,2.98 -2.105,2.493 -2.177,2.055 c -0.028,0.026 -0.059,0.05 -0.091,0.071 l -2.187,1.438 c -0.035,0.022 -0.072,0.042 -0.11,0.058 l -2.25,0.937 c -0.054,0.023 -0.11,0.038 -0.168,0.046 l -2.248,0.301 -0.177,-1.321 2.248,-0.302 -0.168,0.046 2.25,-0.938 -0.11,0.058 2.188,-1.437 -0.091,0.072 2.073,-1.946 2.02,-2.382 1.974,-2.895 1.85,-3.203 1.728,-3.633 3.042,-8.185 2.361,-9.122 1.493,-9.748 0.563,-10.125 0.002,0.101 -0.25,-2.562 0.03,0.141 -0.813,-2.5 0.041,0.098 -1.313,-2.563 0.054,0.088 -1.762,-2.439 -2.272,-2.459 -2.706,-2.464 -3.155,-2.414 -3.593,-2.417 -3.968,-2.357 -4.412,-2.3 -4.798,-2.244 -5.091,-2.236 -11.281,-4.239 -12.531,-3.99 -13.664,-3.62 -14.54,-3.308 -15.412,-2.933 -16.105,-2.435 -16.664,-1.997 -17.043,-1.436 -17.288,-0.937 -10.834,-0.193 z m 1.249,4.689 -7.927,-4.142 8.07,-3.856 z"
         id="path34" /><text
         fill="#1d2d35"
         font-family="Arial, Arial_MSFontService, sans-serif"
         font-weight="400"
         font-size="12px"
         transform="translate(317.985,213)"
         id="text35">BF Data Type</text><text
         fill="#1d2d35"
         font-family="Arial, Arial_MSFontService, sans-serif"
         font-weight="400"
         font-size="12px"
         transform="translate(395.319,213)"
         id="text36">Bugs</text><text
         fill="#1d2d35"
         font-family="Arial, Arial_MSFontService, sans-serif"
         font-weight="400"
         font-size="12px"
         transform="translate(425.985,213)"
         id="text37">Model</text><text
         fill="#7f7f7f"
         font-family="Arial, Arial_MSFontService, sans-serif"
         font-weight="400"
         font-size="11px"
         transform="translate(-13.7144,749)"
         id="text38">BF,</text><text
         fill="#7f7f7f"
         font-family="Arial, Arial_MSFontService, sans-serif"
         font-weight="400"
         font-size="11px"
         transform="translate(5.95223,749)"
         id="text39">I.</text><text
         fill="#7f7f7f"
         font-family="Arial, Arial_MSFontService, sans-serif"
         font-weight="400"
         font-size="11px"
         transform="translate(17.9522,749)"
         id="text40">Bojanova,</text><text
         fill="#7f7f7f"
         font-family="Arial, Arial_MSFontService, sans-serif"
         font-weight="400"
         font-size="11px"
         transform="translate(68.7856,749)"
         id="text41">2022</text></g></g></svg>
