<?xml version="1.0" encoding="UTF-8" standalone="no"?>
<!-- Created with Inkscape (http://www.inkscape.org/) -->

<svg
   width="174.39474mm"
   height="71.546669mm"
   viewBox="0 0 174.39473 71.546663"
   version="1.1"
   id="svg1"
   xml:space="preserve"
   sodipodi:docname="_INP.svg"
   inkscape:version="1.3 (0e150ed6c4, 2023-07-21)"
   xmlns:inkscape="http://www.inkscape.org/namespaces/inkscape"
   xmlns:sodipodi="http://sodipodi.sourceforge.net/DTD/sodipodi-0.dtd"
   xmlns="http://www.w3.org/2000/svg"
   xmlns:svg="http://www.w3.org/2000/svg"><sodipodi:namedview
     id="namedview1"
     pagecolor="#ffffff"
     bordercolor="#000000"
     borderopacity="0.25"
     inkscape:showpageshadow="2"
     inkscape:pageopacity="0.0"
     inkscape:pagecheckerboard="0"
     inkscape:deskcolor="#d1d1d1"
     inkscape:document-units="mm"
     inkscape:zoom="1.7041198"
     inkscape:cx="397.85935"
     inkscape:cy="-49.585716"
     inkscape:window-width="2560"
     inkscape:window-height="1377"
     inkscape:window-x="-8"
     inkscape:window-y="859"
     inkscape:window-maximized="1"
     inkscape:current-layer="layer1" /><defs
     id="defs1"><clipPath
       clipPathUnits="userSpaceOnUse"
       id="clipPath594"><path
         d="M 0,0 H 717 V 334 H 0 Z"
         id="path592" /></clipPath><clipPath
       id="clip0"><rect
         x="104"
         y="143"
         width="985"
         height="489"
         id="rect685" /></clipPath><clipPath
       id="clip0-9"><rect
         x="122"
         y="272"
         width="912"
         height="352"
         id="rect908" /></clipPath><clipPath
       id="clip0-4"><rect
         x="122"
         y="272"
         width="912"
         height="317"
         id="rect1246" /></clipPath><clipPath
       id="clip0-7"><rect
         x="122"
         y="272"
         width="928"
         height="352"
         id="rect1" /></clipPath><clipPath
       id="clip0-6"><rect
         x="122"
         y="272"
         width="926"
         height="321"
         id="rect1-5" /></clipPath><clipPath
       id="clip0-0"><rect
         x="122"
         y="272"
         width="919"
         height="321"
         id="rect1-4" /></clipPath><clipPath
       id="clip0-90"><rect
         x="121"
         y="270"
         width="913"
         height="355"
         id="rect1-7" /></clipPath><clipPath
       id="clip0-60"><rect
         x="121"
         y="270"
         width="913"
         height="301"
         id="rect1-3" /></clipPath><clipPath
       id="clip0-07"><rect
         x="352"
         y="301"
         width="378"
         height="504"
         id="rect1-8" /></clipPath><clipPath
       id="clip0-98"><rect
         x="121"
         y="270"
         width="913"
         height="301"
         id="rect1-87" /></clipPath><clipPath
       id="clip0-3"><rect
         x="121"
         y="270"
         width="920"
         height="293"
         id="rect1-876" /></clipPath><clipPath
       id="clip0-5"><rect
         x="95"
         y="267"
         width="896"
         height="547"
         id="rect1-2" /></clipPath><clipPath
       id="clip0-63"><rect
         x="95"
         y="267"
         width="864"
         height="433"
         id="rect1-21" /></clipPath><clipPath
       id="clip0-1"><rect
         x="33"
         y="-1"
         width="1182"
         height="611"
         id="rect1-50" /></clipPath><clipPath
       id="clip0-52"><rect
         x="320"
         y="-1"
         width="728"
         height="559"
         id="rect1-9" /></clipPath><clipPath
       id="clip0-68"><rect
         x="320"
         y="-1"
         width="728"
         height="544"
         id="rect1-97" /></clipPath><clipPath
       id="clip0-10"><rect
         x="320"
         y="39"
         width="728"
         height="504"
         id="rect1-6" /></clipPath><clipPath
       id="clip0-37"><rect
         x="270"
         y="350"
         width="728"
         height="440"
         id="rect1-51" /></clipPath><clipPath
       id="clip0-41"><rect
         x="270"
         y="318"
         width="728"
         height="472"
         id="rect1-57" /></clipPath><clipPath
       id="clip0-50"><rect
         x="320"
         y="39"
         width="728"
         height="504"
         id="rect1-98" /></clipPath><clipPath
       id="clip0-48"><rect
         x="320"
         y="71"
         width="728"
         height="472"
         id="rect1-0" /></clipPath><clipPath
       id="clip0-02"><rect
         x="320"
         y="39"
         width="728"
         height="504"
         id="rect1-09" /></clipPath><clipPath
       id="clip0-59"><rect
         x="320"
         y="71"
         width="728"
         height="472"
         id="rect1-04" /></clipPath><clipPath
       id="clip0-16"><rect
         x="320"
         y="71"
         width="728"
         height="472"
         id="rect1-35" /></clipPath><clipPath
       id="clip0-8"><rect
         x="121"
         y="270"
         width="913"
         height="278"
         id="rect1-54" /></clipPath><clipPath
       id="clip0-76"><rect
         x="121"
         y="270"
         width="913"
         height="278"
         id="rect1-06" /></clipPath><clipPath
       id="clip0-106"><rect
         x="121"
         y="270"
         width="913"
         height="278"
         id="rect1-874" /></clipPath><clipPath
       id="clip0-94"><rect
         x="348"
         y="312"
         width="382"
         height="449"
         id="rect1-25" /></clipPath><clipPath
       id="clip0-64"><rect
         x="121"
         y="270"
         width="913"
         height="278"
         id="rect1-62" /></clipPath><clipPath
       id="clip0-47"><rect
         x="95"
         y="267"
         width="896"
         height="547"
         id="rect1-63" /></clipPath><clipPath
       id="clip0-71"><rect
         x="146"
         y="266"
         width="857"
         height="282"
         id="rect1-92" /></clipPath><clipPath
       id="clip0-57"><rect
         x="177"
         y="266"
         width="747"
         height="385"
         id="rect1-22" /></clipPath><clipPath
       id="clip0-102"><rect
         x="186"
         y="271"
         width="702"
         height="380"
         id="rect1-926" /></clipPath><clipPath
       id="clip0-77"><rect
         x="186"
         y="271"
         width="702"
         height="380"
         id="rect1-224" /></clipPath><clipPath
       id="clip0-482"><rect
         x="186"
         y="274"
         width="661"
         height="377"
         id="rect1-08" /></clipPath><clipPath
       id="clip0-04"><rect
         x="167"
         y="266"
         width="819"
         height="282"
         id="rect1-34" /></clipPath><clipPath
       id="clip0-56"><rect
         x="163"
         y="265"
         width="799"
         height="282"
         id="rect1-47" /></clipPath><clipPath
       id="clip0-2"><rect
         x="351"
         y="273"
         width="638"
         height="472"
         id="rect1-1" /></clipPath><clipPath
       id="clip0-93"><rect
         x="351"
         y="241"
         width="638"
         height="504"
         id="rect1-77" /></clipPath><clipPath
       id="clip0-49"><rect
         x="351"
         y="241"
         width="638"
         height="504"
         id="rect1-981" /></clipPath><clipPath
       id="clip0-31"><rect
         x="193"
         y="272"
         width="654"
         height="379"
         id="rect1-05" /></clipPath><clipPath
       id="clip0-938"><rect
         x="193"
         y="272"
         width="654"
         height="379"
         id="rect1-12" /></clipPath><clipPath
       id="clip0-85"><rect
         x="163"
         y="265"
         width="805"
         height="282"
         id="rect1-257" /></clipPath><clipPath
       id="clip0-83"><rect
         x="193"
         y="272"
         width="641"
         height="380"
         id="rect1-068" /></clipPath><clipPath
       id="clip0-44"><rect
         x="163"
         y="265"
         width="805"
         height="282"
         id="rect1-923" /></clipPath><clipPath
       id="clip0-412"><rect
         x="193"
         y="272"
         width="641"
         height="380"
         id="rect1-49" /></clipPath><clipPath
       id="clip0-483"><rect
         x="351"
         y="241"
         width="639"
         height="458"
         id="rect1-357" /></clipPath><clipPath
       id="clip0-32"><rect
         x="351"
         y="241"
         width="639"
         height="458"
         id="rect1-15" /></clipPath><clipPath
       id="clip0-045"><rect
         x="163"
         y="265"
         width="805"
         height="282"
         id="rect1-01" /></clipPath><clipPath
       id="clip0-97"><rect
         x="216"
         y="229"
         width="621"
         height="318"
         id="rect1-03" /></clipPath><clipPath
       id="clip0-87"><rect
         x="216"
         y="229"
         width="621"
         height="318"
         id="rect1-66" /></clipPath><clipPath
       id="clip0-26"><rect
         x="-19"
         y="165"
         width="814"
         height="597"
         id="rect1-73" /></clipPath><clipPath
       id="clip0-89"><rect
         x="77"
         y="89"
         width="762"
         height="777"
         id="rect1-40" /></clipPath><clipPath
       id="clip0-91"><rect
         x="216"
         y="229"
         width="621"
         height="318"
         id="rect1-229" /></clipPath><clipPath
       id="clip0-569"><rect
         x="77"
         y="89"
         width="762"
         height="777"
         id="rect1-639" /></clipPath><clipPath
       id="clip0-15"><rect
         x="78"
         y="188"
         width="853"
         height="609"
         id="rect1-215" /></clipPath><clipPath
       id="clip0-06"><rect
         x="254"
         y="1081"
         width="539"
         height="418"
         id="rect1-342" /></clipPath><clipPath
       id="clip0-30"><rect
         x="351"
         y="241"
         width="639"
         height="458"
         id="rect1-42" /></clipPath><clipPath
       id="clip0-12"><rect
         x="78"
         y="188"
         width="853"
         height="609"
         id="rect1-02" /></clipPath><clipPath
       id="clip0-79"><rect
         x="83"
         y="188"
         width="846"
         height="539"
         id="rect1-778" /></clipPath><clipPath
       id="clip0-73"><rect
         x="83"
         y="194"
         width="846"
         height="533"
         id="rect1-52" /></clipPath><clipPath
       id="clip0-23"><rect
         x="194"
         y="23"
         width="771"
         height="791"
         id="rect1-150" /></clipPath><clipPath
       id="clip0-39"><rect
         x="194"
         y="48"
         width="771"
         height="766"
         id="rect1-025" /></clipPath><clipPath
       id="clip0-419"><rect
         x="194"
         y="48"
         width="771"
         height="766"
         id="rect1-779" /></clipPath><clipPath
       id="clip0-906"><rect
         x="214"
         y="227"
         width="675"
         height="300"
         id="rect1-59" /></clipPath><clipPath
       id="clip0-078"><rect
         x="77"
         y="118"
         width="763"
         height="748"
         id="rect1-88" /></clipPath><clipPath
       id="clip0-042"><rect
         x="-21"
         y="196"
         width="816"
         height="562"
         id="rect1-501" /></clipPath><clipPath
       id="clip0-604"><rect
         x="783"
         y="154"
         width="601"
         height="303"
         id="rect1-504" /></clipPath><clipPath
       id="clip0-38"><rect
         x="82"
         y="118"
         width="758"
         height="748"
         id="rect1-032" /></clipPath><clipPath
       id="clip0-25"><rect
         x="214"
         y="227"
         width="675"
         height="300"
         id="rect1-64" /></clipPath><clipPath
       id="clip0-65"><rect
         x="18"
         y="-1"
         width="1173"
         height="1915"
         id="rect1-36" /></clipPath><clipPath
       id="clip0-711"><rect
         x="95"
         y="267"
         width="856"
         height="440"
         id="rect1-10" /></clipPath><clipPath
       id="clip0-84"><rect
         x="121"
         y="270"
         width="913"
         height="285"
         id="rect1-89" /></clipPath><clipPath
       id="clip0-09"><rect
         x="121"
         y="270"
         width="913"
         height="285"
         id="rect1-56" /></clipPath><clipPath
       id="clip0-126"><rect
         x="95"
         y="267"
         width="856"
         height="440"
         id="rect1-122" /></clipPath><clipPath
       id="clip0-4127"><rect
         x="15"
         y="214"
         width="922"
         height="833"
         id="rect1-28" /></clipPath><clipPath
       id="clip0-0459"><rect
         x="15"
         y="214"
         width="922"
         height="833"
         id="rect1-91" /></clipPath><clipPath
       id="clip0-169"><rect
         x="197"
         y="48"
         width="760"
         height="632"
         id="rect1-087" /></clipPath><clipPath
       id="clip0-262"><rect
         x="18"
         y="2"
         width="1173"
         height="1747"
         id="rect1-017" /></clipPath><clipPath
       id="clip0-61"><rect
         x="18"
         y="2"
         width="1173"
         height="1747"
         id="rect1-53" /></clipPath><clipPath
       id="clip0-326"><rect
         x="18"
         y="34"
         width="1460"
         height="1196"
         id="rect1-024" /></clipPath><clipPath
       id="clip0-0451"><rect
         x="18"
         y="34"
         width="1460"
         height="1196"
         id="rect1-429" /></clipPath><clipPath
       id="clip0-82"><rect
         x="18"
         y="46"
         width="1460"
         height="1025"
         id="rect1-24" /></clipPath><clipPath
       id="clip0-617"><rect
         x="-79"
         y="46"
         width="1555"
         height="994"
         id="rect1-885" /></clipPath><clipPath
       id="clip0-601"><rect
         x="18"
         y="46"
         width="1414"
         height="994"
         id="rect1-13" /></clipPath><clipPath
       id="clip0-849"><rect
         x="18"
         y="46"
         width="1414"
         height="994"
         id="rect1-46" /></clipPath><clipPath
       id="clip0-66"><rect
         x="18"
         y="46"
         width="1407"
         height="994"
         id="rect1-498" /></clipPath><clipPath
       id="clip0-69"><rect
         x="18"
         y="2"
         width="1173"
         height="1747"
         id="rect1-68" /></clipPath><clipPath
       id="clip0-22"><rect
         x="82"
         y="118"
         width="758"
         height="748"
         id="rect1-3571" /></clipPath><clipPath
       id="clip0-870"><rect
         x="214"
         y="243"
         width="675"
         height="284"
         id="rect1-927" /></clipPath><clipPath
       id="clip0-14"><rect
         x="-21"
         y="196"
         width="816"
         height="562"
         id="rect1-96" /></clipPath><clipPath
       id="clip0-098"><rect
         x="197"
         y="53"
         width="760"
         height="627"
         id="rect1-43" /></clipPath><clipPath
       id="clip0-851"><rect
         x="77"
         y="118"
         width="763"
         height="748"
         id="rect1-570" /></clipPath><clipPath
       id="clip0-4831"><rect
         x="18"
         y="46"
         width="1366"
         height="973"
         id="rect1-515" /></clipPath><clipPath
       id="clip0-857"><rect
         x="18"
         y="2"
         width="1173"
         height="1747"
         id="rect1-79" /></clipPath><clipPath
       id="clip0-446"><rect
         x="18"
         y="2"
         width="1173"
         height="1747"
         id="rect1-047" /></clipPath><clipPath
       id="clip0-446-3"><rect
         x="18"
         y="2"
         width="1173"
         height="1747"
         id="rect1-047-8" /></clipPath><clipPath
       id="clip0-267"><rect
         x="83"
         y="188"
         width="846"
         height="539"
         id="rect1-69" /></clipPath><clipPath
       id="clip0-33"><rect
         x="83"
         y="188"
         width="846"
         height="539"
         id="rect1-17" /></clipPath><clipPath
       id="clip0-717"><rect
         x="83"
         y="188"
         width="846"
         height="539"
         id="rect1-963" /></clipPath><clipPath
       id="clip0-165"><rect
         x="214"
         y="243"
         width="675"
         height="284"
         id="rect1-00" /></clipPath><clipPath
       id="clip0-51"><rect
         x="-21"
         y="196"
         width="816"
         height="562"
         id="rect1-71" /></clipPath><clipPath
       id="clip0-318"><rect
         x="77"
         y="118"
         width="763"
         height="748"
         id="rect1-888" /></clipPath><clipPath
       id="clip0-376"><rect
         x="77"
         y="118"
         width="763"
         height="748"
         id="rect1-426" /></clipPath><clipPath
       id="clip0-836"><rect
         x="77"
         y="118"
         width="763"
         height="748"
         id="rect1-021" /></clipPath><clipPath
       id="clip0-308"><rect
         x="121"
         y="222"
         width="913"
         height="333"
         id="rect1-33" /></clipPath><clipPath
       id="clip0-161"><rect
         x="83"
         y="194"
         width="846"
         height="533"
         id="rect1-462" /></clipPath><clipPath
       id="clip0-689"><rect
         x="18"
         y="46"
         width="1366"
         height="973"
         id="rect1-16" /></clipPath><clipPath
       id="clip0-764"><rect
         x="18"
         y="46"
         width="1366"
         height="973"
         id="rect1-892" /></clipPath><clipPath
       id="clip0-226"><rect
         x="18"
         y="46"
         width="1366"
         height="973"
         id="rect1-050" /></clipPath><clipPath
       id="clip0-389"><rect
         x="18"
         y="46"
         width="1366"
         height="973"
         id="rect1-634" /></clipPath><clipPath
       id="clip0-36"><rect
         x="18"
         y="46"
         width="1366"
         height="973"
         id="rect1-30" /></clipPath><clipPath
       id="clip0-34"><rect
         x="95"
         y="267"
         width="856"
         height="440"
         id="rect1-72" /></clipPath><clipPath
       id="clip0-6019"><rect
         x="18"
         y="17"
         width="1366"
         height="1002"
         id="rect1-726" /></clipPath><clipPath
       id="clip0-74"><rect
         x="-205"
         y="34"
         width="1396"
         height="1629"
         id="rect1-126" /></clipPath><clipPath
       id="clip0-81"><rect
         x="-157"
         y="34"
         width="1348"
         height="1629"
         id="rect1-94" /></clipPath><clipPath
       id="clip0-680"><rect
         x="-18"
         y="30"
         width="1402"
         height="989"
         id="rect1-95" /></clipPath><clipPath
       id="clip0-795"><rect
         x="-18"
         y="30"
         width="1402"
         height="1010"
         id="rect1-220" /></clipPath><clipPath
       id="clip0-2261"><rect
         x="197"
         y="27"
         width="760"
         height="653"
         id="rect1-502" /></clipPath><clipPath
       id="clip0-560"><rect
         x="-157"
         y="34"
         width="1348"
         height="1629"
         id="rect1-84" /></clipPath><clipPath
       id="clip0-75"><rect
         x="84"
         y="72"
         width="913"
         height="333"
         id="rect1-476" /></clipPath><clipPath
       id="clip0-075"><rect
         x="80"
         y="497"
         width="846"
         height="532"
         id="rect1-090" /></clipPath><clipPath
       id="clip0-227"><rect
         x="80"
         y="497"
         width="842"
         height="532"
         id="rect1-002" /></clipPath><clipPath
       id="clip0-58"><rect
         x="18"
         y="17"
         width="1366"
         height="1002"
         id="rect1-490" /></clipPath><clipPath
       id="clip0-771"><rect
         x="84"
         y="72"
         width="913"
         height="333"
         id="rect1-5015" /></clipPath><clipPath
       id="clip0-378"><rect
         x="80"
         y="497"
         width="842"
         height="532"
         id="rect1-911" /></clipPath><clipPath
       id="clip0-19"><rect
         x="80"
         y="497"
         width="798"
         height="493"
         id="rect1-082" /></clipPath><clipPath
       id="clip0-811"><rect
         x="639"
         y="102"
         width="625"
         height="573"
         id="rect1-729" /></clipPath><clipPath
       id="clip0-516"><rect
         x="80"
         y="497"
         width="798"
         height="496"
         id="rect1-105" /></clipPath><clipPath
       id="clip0-46"><rect
         x="106"
         y="31"
         width="918"
         height="1323"
         id="rect1-795" /></clipPath><clipPath
       id="clip0-914"><rect
         x="106"
         y="31"
         width="918"
         height="1283"
         id="rect1-26" /></clipPath><clipPath
       id="clip0-40"><rect
         x="-159"
         y="33"
         width="1350"
         height="1635"
         id="rect1-61" /></clipPath><clipPath
       id="clip0-29"><rect
         x="-159"
         y="33"
         width="1350"
         height="1635"
         id="rect1-983" /></clipPath><clipPath
       id="clip0-28"><rect
         x="-159"
         y="33"
         width="1350"
         height="1602"
         id="rect1-11" /></clipPath><clipPath
       id="clip0-01"><rect
         x="-165"
         y="-3"
         width="1356"
         height="1887"
         id="rect1-890" /></clipPath><clipPath
       id="clip0-220"><rect
         x="214"
         y="242"
         width="677"
         height="289"
         id="rect1-55" /></clipPath></defs><g
     inkscape:label="Layer 1"
     inkscape:groupmode="layer"
     id="layer1"
     transform="translate(-62.521763,-212.2949)"><g
       clip-path="url(#clip0-220)"
       transform="matrix(0.26458333,0,0,0.26458333,3.9168203,146.22154)"
       id="g20"><path
         d="m 321.5,334.728 c 0,-8.962 7.266,-16.228 16.228,-16.228 h 128.544 c 8.963,0 16.228,7.266 16.228,16.228 v 86.544 c 0,8.963 -7.265,16.228 -16.228,16.228 H 337.728 c -8.962,0 -16.228,-7.265 -16.228,-16.228 z"
         stroke="#7b7b7b"
         stroke-width="0.666667"
         stroke-miterlimit="8"
         fill="#f2f2f2"
         fill-rule="evenodd"
         id="path1" /><text
         font-family="'Calibri Light', 'Calibri Light_MSFontService', sans-serif"
         font-weight="300"
         font-size="13px"
         transform="translate(390.915,335)"
         id="text1">DVL</text><path
         d="m 335.5,354.667 c 0,-2.301 1.866,-4.167 4.167,-4.167 h 58.666 c 2.302,0 4.167,1.866 4.167,4.167 v 16.666 c 0,2.302 -1.865,4.167 -4.167,4.167 h -58.666 c -2.301,0 -4.167,-1.865 -4.167,-4.167 z"
         stroke="#000000"
         stroke-width="0.666667"
         stroke-miterlimit="8"
         fill="#ffffff"
         fill-rule="evenodd"
         id="path2" /><text
         font-family="'Calibri Light', 'Calibri Light_MSFontService', sans-serif"
         font-weight="300"
         font-size="13px"
         transform="translate(346.606,366)"
         id="text2">Validate</text><path
         d="m 402.5,405.667 c 0,-2.301 1.866,-4.167 4.167,-4.167 h 58.666 c 2.302,0 4.167,1.866 4.167,4.167 v 16.666 c 0,2.302 -1.865,4.167 -4.167,4.167 h -58.666 c -2.301,0 -4.167,-1.865 -4.167,-4.167 z"
         stroke="#000000"
         stroke-width="0.666667"
         stroke-miterlimit="8"
         fill="#ffffff"
         fill-rule="evenodd"
         id="path3" /><text
         font-family="'Calibri Light', 'Calibri Light_MSFontService', sans-serif"
         font-weight="300"
         font-size="13px"
         transform="translate(415.056,417)"
         id="text3">Sanitize</text><path
         d="m 0.0494468,-0.329645 1.2500032,0.1875 c 0.0323,0.004845 0.06372,0.014415 0.09325,0.028399 l 1.1875,0.5625 C 2.60911,0.462453 2.63592,0.480249 2.65977,0.501586 L 5.03476,2.62659 C 5.05501,2.6447 5.07297,2.66523 5.08824,2.68771 l 2.25,3.3125 c 0.0109,0.01604 0.02037,0.03299 0.02832,0.05068 l 1.9375,4.31251 1.70004,5.1573 1.3205,5.6536 0.8183,6.1569 0.315,6.2772 0.3125,6.25 0.81,6.0978 1.3067,5.5931 1.6795,5.0964 1.925,4.2802 -0.0588,-0.0891 1.8069,1.9641 -0.4906,0.4514 -1.8069,-1.9641 c -0.0243,-0.0264 -0.0441,-0.0564 -0.0588,-0.0891 l -1.95,-4.3448 -1.6955,-5.1536 -1.3183,-5.6569 -0.815,-6.1522 -0.3125,-6.25 -0.31,-6.2228 L 11.6754,21.3257 10.3709,15.7292 8.69594,10.6366 6.75844,6.3241 6.78676,6.37479 4.53676,3.06229 4.59023,3.12341 2.21523,0.998414 2.2948,1.05125 1.1073,0.488746 1.20055,0.517145 -0.0494468,0.329645 Z M 22.4587,59.0727 26.1932,67.2 17.4506,65.3112 Z"
         transform="matrix(0,1,1,0,369.5,375.5)"
         id="path4" /><path
         d="m 290.506,281.167 10.5,0.187 10.389,0.626 10.264,1.064 9.949,1.376 9.699,1.689 9.263,2.003 8.763,2.253 8.202,2.504 7.517,2.756 6.83,2.944 5.961,3.136 5.085,3.2 4.158,3.4 c 0.022,0.017 0.041,0.037 0.057,0.06 l 3.04,4.118 -0.537,0.396 -3.039,-4.119 0.057,0.061 -4.092,-3.351 -5.04,-3.175 -5.914,-3.114 -6.795,-2.93 -7.483,-2.745 -8.173,-2.496 -8.737,-2.247 -9.237,-1.997 -9.676,-1.686 -9.926,-1.373 -10.236,-1.062 -10.361,-0.624 -10.5,-0.188 z m 112.653,28.82 -0.827,8.906 -6.629,-6.004 z"
         id="path5" /><path
         d="m 574.5,334.592 c 0,-8.887 7.205,-16.092 16.092,-16.092 h 128.816 c 8.888,0 16.092,7.205 16.092,16.092 v 85.816 c 0,8.888 -7.204,16.092 -16.092,16.092 H 590.592 c -8.887,0 -16.092,-7.204 -16.092,-16.092 z"
         stroke="#7b7b7b"
         stroke-width="0.666667"
         stroke-miterlimit="8"
         fill="#f2f2f2"
         fill-rule="evenodd"
         id="path6" /><text
         font-family="'Calibri Light', 'Calibri Light_MSFontService', sans-serif"
         font-weight="300"
         font-size="13px"
         transform="translate(642.862,335)"
         id="text6">DVR</text><path
         d="m 587.5,354.667 c 0,-2.301 1.866,-4.167 4.167,-4.167 h 58.666 c 2.302,0 4.167,1.866 4.167,4.167 v 16.666 c 0,2.302 -1.865,4.167 -4.167,4.167 h -58.666 c -2.301,0 -4.167,-1.865 -4.167,-4.167 z"
         stroke="#000000"
         stroke-width="0.666667"
         stroke-miterlimit="8"
         fill="#ffffff"
         fill-rule="evenodd"
         id="path7" /><text
         font-family="'Calibri Light', 'Calibri Light_MSFontService', sans-serif"
         font-weight="300"
         font-size="13px"
         transform="translate(604.629,366)"
         id="text7">Verify</text><path
         d="m 654.5,405.667 c 0,-2.301 1.866,-4.167 4.167,-4.167 h 58.666 c 2.302,0 4.167,1.866 4.167,4.167 v 16.666 c 0,2.302 -1.865,4.167 -4.167,4.167 h -58.666 c -2.301,0 -4.167,-1.865 -4.167,-4.167 z"
         stroke="#000000"
         stroke-width="0.666667"
         stroke-miterlimit="8"
         fill="#ffffff"
         fill-rule="evenodd"
         id="path8" /><text
         font-family="'Calibri Light', 'Calibri Light_MSFontService', sans-serif"
         font-weight="300"
         font-size="13px"
         transform="translate(667.496,417)"
         id="text8">Correct</text><path
         d="m 0.0494468,-0.329645 1.2500032,0.1875 c 0.0323,0.004845 0.06372,0.014415 0.09325,0.028399 l 1.1875,0.5625 C 2.60911,0.462453 2.63592,0.480249 2.65977,0.501586 L 5.03476,2.62659 C 5.05501,2.6447 5.07297,2.66523 5.08824,2.68771 l 2.25,3.3125 c 0.0109,0.01604 0.02037,0.03299 0.02832,0.05068 l 1.9375,4.31251 1.70004,5.1573 1.3205,5.6536 0.8183,6.1569 0.315,6.2772 0.3125,6.25 0.81,6.0978 1.3067,5.5931 1.6795,5.0964 1.925,4.2802 -0.0588,-0.0891 1.8069,1.9641 -0.4906,0.4514 -1.8069,-1.9641 c -0.0243,-0.0264 -0.0441,-0.0564 -0.0588,-0.0891 l -1.95,-4.3448 -1.6955,-5.1536 -1.3183,-5.6569 -0.815,-6.1522 -0.3125,-6.25 -0.31,-6.2228 L 11.6754,21.3257 10.3709,15.7292 8.69594,10.6366 6.75844,6.3241 6.78676,6.37479 4.53676,3.06229 4.59023,3.12341 2.21523,0.998414 2.2948,1.05125 1.1073,0.488746 1.20055,0.517145 -0.0494468,0.329645 Z M 22.4587,59.0727 26.1932,67.2 17.4506,65.3112 Z"
         transform="matrix(0,1,1,0,620.5,375.5)"
         id="path9" /><text
         font-family="'Calibri Light', 'Calibri Light_MSFontService', sans-serif"
         font-weight="300"
         font-size="13px"
         transform="translate(229.513,277)"
         id="text9">Unchecked</text><text
         font-family="'Calibri Light', 'Calibri Light_MSFontService', sans-serif"
         font-weight="300"
         font-size="13px"
         transform="translate(264.346,293)"
         id="text10">Data</text><path
         d="m 769.764,474.976 -28.459,-0.152 -34.816,-0.625 -34.317,-1 -33.441,-1.375 -32.379,-1.688 -15.69,-0.937 -15.253,-1.063 -14.938,-1.063 -14.441,-1.187 -13.94,-1.251 -13.439,-1.25 -12.94,-1.312 -12.318,-1.438 -11.689,-1.438 -11.065,-1.438 -10.38,-1.501 -9.63,-1.563 -8.882,-1.626 -8.13,-1.626 -7.258,-1.627 -6.387,-1.69 -5.574,-1.691 -4.582,-1.694 -3.654,-1.762 -2.72,-1.706 c -0.026,-0.016 -0.05,-0.037 -0.071,-0.06 l -1.563,-1.75 c -0.031,-0.035 -0.054,-0.076 -0.068,-0.12 l -0.557,-1.741 0.635,-0.204 0.557,1.741 -0.069,-0.12 1.562,1.75 -0.071,-0.06 2.655,1.669 3.596,1.738 4.543,1.681 5.551,1.684 6.363,1.685 7.242,1.623 8.12,1.624 8.868,1.624 9.62,1.562 10.37,1.499 11.06,1.437 11.686,1.437 12.307,1.437 12.935,1.313 13.436,1.249 13.935,1.25 14.434,1.187 14.937,1.063 15.247,1.062 15.685,0.938 32.371,1.687 33.434,1.375 34.308,1 34.809,0.625 28.458,0.152 z m -1.311,-4.34 7.979,4.042 -8.021,3.958 z"
         id="path10" /><path
         d="M 7.13344e-4,-0.333333 85.2696,-0.150854 85.2682,0.515811 -7.13344e-4,0.333333 Z M 83.9441,-3.82037 91.9355,0.196745 83.927,4.17962 Z"
         transform="matrix(1,0,0,-1,482.5,377.697)"
         id="path11" /><text
         font-family="'Calibri Light', 'Calibri Light_MSFontService', sans-serif"
         font-weight="300"
         font-size="13px"
         transform="translate(776.43,470)"
         id="text11">Checked</text><text
         font-family="'Calibri Light', 'Calibri Light_MSFontService', sans-serif"
         font-weight="300"
         font-size="13px"
         transform="translate(776.43,486)"
         id="text12">Data</text><path
         d="m 290.502,281.167 34.125,0.187 33.879,0.625 33.317,1 32.566,1.376 31.441,1.687 15.254,1 14.876,1 14.503,1.126 14.064,1.125 13.566,1.25 13.064,1.25 12.567,1.376 12.001,1.375 11.379,1.438 10.753,1.438 10.069,1.563 9.379,1.563 8.629,1.564 7.883,1.626 7.073,1.69 6.256,1.626 5.33,1.693 4.52,1.757 c 0.019,0.007 0.038,0.017 0.056,0.028 l 3.453,2.157 -0.354,0.565 -3.453,-2.157 0.056,0.028 -4.48,-1.743 -5.295,-1.682 -6.244,-1.624 -7.052,-1.685 -7.867,-1.623 -8.621,-1.562 -9.371,-1.562 -10.056,-1.562 -10.747,-1.437 -11.371,-1.437 -11.999,-1.375 -12.558,-1.374 -13.061,-1.25 -13.559,-1.25 -14.061,-1.125 -14.497,-1.124 -14.874,-1 -15.246,-1 -31.434,-1.687 -32.558,-1.375 -33.309,-1 -33.871,-0.625 -34.125,-0.188 z m 361.722,29.037 2.805,8.493 -8.478,-2.852 z"
         id="path12" /><path
         d="m 770.064,474.099 -4.772,-0.078 -11.387,-0.625 -11.201,-1.064 -10.884,-1.313 -10.575,-1.69 -10.137,-2.002 -9.576,-2.315 -8.949,-2.503 -8.204,-2.755 -7.451,-2.88 -6.525,-3.136 -5.583,-3.199 -4.474,-3.398 c -0.013,-0.01 -0.025,-0.021 -0.036,-0.032 l -3.313,-3.375 c -0.019,-0.02 -0.035,-0.041 -0.049,-0.065 l -2.062,-3.5 c -0.02,-0.032 -0.033,-0.068 -0.04,-0.106 l -0.673,-3.5 0.654,-0.126 0.673,3.5 -0.04,-0.106 2.063,3.5 -0.05,-0.064 3.313,3.375 -0.036,-0.032 4.401,3.351 5.541,3.176 6.476,3.115 7.423,2.87 8.172,2.745 8.926,2.497 9.548,2.309 10.113,1.998 10.55,1.686 10.867,1.311 11.174,1.062 11.362,0.624 4.772,0.079 z m -1.262,-4.354 7.933,4.13 -8.064,3.869 z"
         id="path13" /><path
         d="m 221.501,503.167 602.91,1.451 -10e-4,0.667 -602.911,-1.452 z m 602.919,1.785 -2.657,-4.007 7.99,4.02 -8.009,3.98 z"
         id="path14" /><text
         font-family="'Calibri Light', 'Calibri Light_MSFontService', sans-serif"
         font-weight="300"
         font-size="13px"
         transform="translate(839.161,503)"
         id="text14">Data</text><text
         font-family="'Calibri Light', 'Calibri Light_MSFontService', sans-serif"
         font-weight="300"
         font-size="13px"
         transform="translate(839.161,519)"
         id="text15">L</text><text
         font-family="'Calibri Light', 'Calibri Light_MSFontService', sans-serif"
         font-weight="300"
         font-size="13px"
         transform="translate(844.828,519)"
         id="text16">ifetime</text><text
         fill="#1d2d35"
         font-family="'Calibri Light', 'Calibri Light_MSFontService', sans-serif"
         font-weight="300"
         font-size="13px"
         transform="translate(431.872,259)"
         id="text17">BF Input/Output Check Bugs Model</text><text
         fill="#7f7f7f"
         font-family="'Calibri Light', 'Calibri Light_MSFontService', sans-serif"
         font-weight="300"
         font-size="12px"
         transform="translate(221.312,518)"
         id="text18">BF,</text><text
         fill="#7f7f7f"
         font-family="'Calibri Light', 'Calibri Light_MSFontService', sans-serif"
         font-weight="300"
         font-size="12px"
         transform="translate(238.978,518)"
         id="text19">I. Bojanova,</text><text
         fill="#7f7f7f"
         font-family="'Calibri Light', 'Calibri Light_MSFontService', sans-serif"
         font-weight="300"
         font-size="12px"
         transform="translate(298.145,518)"
         id="text20">2021</text></g></g></svg>
