<?xml version="1.0" encoding="UTF-8" standalone="no"?>
<!-- Created with Inkscape (http://www.inkscape.org/) -->

<svg
   width="160.65636mm"
   height="78.28566mm"
   viewBox="0 0 160.65636 78.285658"
   version="1.1"
   id="svg1"
   inkscape:version="1.3 (0e150ed6c4, 2023-07-21)"
   sodipodi:docname="_INP.svg"
   xmlns:inkscape="http://www.inkscape.org/namespaces/inkscape"
   xmlns:sodipodi="http://sodipodi.sourceforge.net/DTD/sodipodi-0.dtd"
   xmlns="http://www.w3.org/2000/svg"
   xmlns:svg="http://www.w3.org/2000/svg">
  <sodipodi:namedview
     id="namedview1"
     pagecolor="#ffffff"
     bordercolor="#000000"
     borderopacity="0.25"
     inkscape:showpageshadow="2"
     inkscape:pageopacity="0.0"
     inkscape:pagecheckerboard="0"
     inkscape:deskcolor="#d1d1d1"
     inkscape:document-units="mm"
     inkscape:zoom="1.0520974"
     inkscape:cx="304.15436"
     inkscape:cy="148.75049"
     inkscape:window-width="2560"
     inkscape:window-height="1377"
     inkscape:window-x="-8"
     inkscape:window-y="797"
     inkscape:window-maximized="1"
     inkscape:current-layer="layer1" />
  <defs
     id="defs1">
    <clipPath
       id="clip0">
      <rect
         x="227"
         y="13"
         width="776"
         height="765"
         id="rect1" />
    </clipPath>
    <clipPath
       id="clip0-3">
      <rect
         x="75"
         y="8"
         width="780"
         height="752"
         id="rect1-0" />
    </clipPath>
    <clipPath
       id="clip0-5">
      <rect
         x="75"
         y="8"
         width="780"
         height="752"
         id="rect1-9" />
    </clipPath>
    <clipPath
       id="clip0-36">
      <rect
         x="216"
         y="107"
         width="631"
         height="315"
         id="rect1-5" />
    </clipPath>
  </defs>
  <g
     inkscape:label="Layer 1"
     inkscape:groupmode="layer"
     id="layer1"
     transform="translate(-24.842567,-8.6176908)">
    <g
       clip-path="url(#clip0-36)"
       transform="matrix(0.26458333,0,0,0.26458333,-34.291807,-21.877605)"
       id="g16">
      <path
         d="m 321.5,214.728 c 0,-8.962 7.266,-16.228 16.228,-16.228 h 128.544 c 8.963,0 16.228,7.266 16.228,16.228 v 86.544 c 0,8.962 -7.265,16.228 -16.228,16.228 H 337.728 c -8.962,0 -16.228,-7.266 -16.228,-16.228 z"
         stroke="#7b7b7b"
         stroke-width="1.33333"
         stroke-miterlimit="8"
         fill="#f2f2f2"
         fill-rule="evenodd"
         id="path1" />
      <text
         font-family="Arial, Arial_MSFontService, sans-serif"
         font-weight="400"
         font-size="12px"
         transform="translate(389.832,215)"
         id="text1">DVL</text>
      <path
         d="m 335.5,234.667 c 0,-2.301 1.866,-4.167 4.167,-4.167 h 58.666 c 2.302,0 4.167,1.866 4.167,4.167 v 16.666 c 0,2.302 -1.865,4.167 -4.167,4.167 h -58.666 c -2.301,0 -4.167,-1.865 -4.167,-4.167 z"
         stroke="#000000"
         stroke-width="1.33333"
         stroke-miterlimit="8"
         fill="#ffffff"
         fill-rule="evenodd"
         id="path2" />
      <text
         font-family="Arial, Arial_MSFontService, sans-serif"
         font-weight="400"
         font-size="12px"
         transform="translate(346.94,247)"
         id="text2">Validate</text>
      <path
         d="m 402.5,285.667 c 0,-2.301 1.866,-4.167 4.167,-4.167 h 58.666 c 2.302,0 4.167,1.866 4.167,4.167 v 16.666 c 0,2.302 -1.865,4.167 -4.167,4.167 h -58.666 c -2.301,0 -4.167,-1.865 -4.167,-4.167 z"
         stroke="#000000"
         stroke-width="1.33333"
         stroke-miterlimit="8"
         fill="#ffffff"
         fill-rule="evenodd"
         id="path3" />
      <text
         font-family="Arial, Arial_MSFontService, sans-serif"
         font-weight="400"
         font-size="12px"
         transform="translate(414.473,298)"
         id="text3">Sanitize</text>
      <path
         d="m 0.0988936,-0.659291 1.2499964,0.1875 c 0.06461,0.009691 0.12746,0.028831 0.1865,0.056799 l 1.1875,0.5625 c 0.05784,0.027397 0.11144,0.06299 0.15914,0.105664 l 2.375,2.124998 c 0.04049,0.03623 0.07642,0.0773 0.10695,0.12224 l 2.25,3.3125 C 7.63578,5.845 7.65471,5.8789 7.67061,5.91429 l 1.9375,4.31251 1.71259,5.1897 1.3285,5.682 0.8242,6.1888 0.3174,6.3044 0.3125,6.25 0.8076,6.0706 1.3008,5.5612 1.6715,5.068 1.9124,4.2478 -0.1175,-0.1782 1.8069,1.9641 -0.9812,0.9028 -1.8069,-1.9641 C 18.6484,61.4612 18.6087,61.401 18.5794,61.3357 l -1.9626,-4.3772 -1.7035,-5.182 -1.3242,-5.6888 -0.8174,-6.1794 -0.3125,-6.25 -0.3076,-6.1956 -0.8008,-6.0612 -1.2965,-5.568 -1.66241,-5.0603 -1.9375,-4.31249 0.05663,0.10138 -2.25,-3.3125 0.10695,0.12224 -2.375,-2.125 L 2.15211,1.35249 0.964609,0.789992 1.15111,0.846791 -0.0988936,0.659291 Z M 22.4587,59.0727 26.1932,67.2 17.4506,65.3112 Z"
         transform="matrix(0,1,1,0,369.5,255.5)"
         id="path4" />
      <path
         d="m 290.512,160.833 10.5,0.188 10.403,0.626 10.279,1.065 9.96,1.378 9.71,1.691 9.277,2.005 8.775,2.256 8.216,2.508 7.535,2.762 6.847,2.951 5.984,3.147 5.107,3.213 4.192,3.424 c 0.043,0.035 0.082,0.075 0.114,0.12 l 3.04,4.118 -1.073,0.791 -3.039,-4.118 0.114,0.121 -4.058,-3.327 -5.018,-3.162 -5.891,-3.103 -6.778,-2.924 -7.465,-2.738 -8.159,-2.492 -8.725,-2.244 -9.223,-1.995 -9.665,-1.684 -9.915,-1.372 -10.221,-1.06 -10.347,-0.624 -10.5,-0.187 z m 112.647,29.154 -0.827,8.906 -6.629,-6.005 z"
         id="path5" />
      <path
         d="m 574.5,214.592 c 0,-8.887 7.205,-16.092 16.092,-16.092 h 128.816 c 8.888,0 16.092,7.205 16.092,16.092 v 85.816 c 0,8.888 -7.204,16.092 -16.092,16.092 H 590.592 c -8.887,0 -16.092,-7.204 -16.092,-16.092 z"
         stroke="#7b7b7b"
         stroke-width="1.33333"
         stroke-miterlimit="8"
         fill="#f2f2f2"
         fill-rule="evenodd"
         id="path6" />
      <text
         font-family="Arial, Arial_MSFontService, sans-serif"
         font-weight="400"
         font-size="12px"
         transform="translate(641.529,215)"
         id="text6">DVR</text>
      <path
         d="m 587.5,234.667 c 0,-2.301 1.866,-4.167 4.167,-4.167 h 58.666 c 2.302,0 4.167,1.866 4.167,4.167 v 16.666 c 0,2.302 -1.865,4.167 -4.167,4.167 h -58.666 c -2.301,0 -4.167,-1.865 -4.167,-4.167 z"
         stroke="#000000"
         stroke-width="1.33333"
         stroke-miterlimit="8"
         fill="#ffffff"
         fill-rule="evenodd"
         id="path7" />
      <text
         font-family="Arial, Arial_MSFontService, sans-serif"
         font-weight="400"
         font-size="12px"
         transform="translate(605.046,247)"
         id="text7">Verify</text>
      <path
         d="m 654.5,285.667 c 0,-2.301 1.866,-4.167 4.167,-4.167 h 58.666 c 2.302,0 4.167,1.866 4.167,4.167 v 16.666 c 0,2.302 -1.865,4.167 -4.167,4.167 h -58.666 c -2.301,0 -4.167,-1.865 -4.167,-4.167 z"
         stroke="#000000"
         stroke-width="1.33333"
         stroke-miterlimit="8"
         fill="#ffffff"
         fill-rule="evenodd"
         id="path8" />
      <text
         font-family="Arial, Arial_MSFontService, sans-serif"
         font-weight="400"
         font-size="12px"
         transform="translate(667.912,298)"
         id="text8">Correct</text>
      <path
         d="m 0.0988936,-0.659291 1.2499964,0.1875 c 0.06461,0.009691 0.12746,0.028831 0.1865,0.056799 l 1.1875,0.5625 c 0.05784,0.027397 0.11144,0.06299 0.15914,0.105664 l 2.375,2.124998 c 0.04049,0.03623 0.07642,0.0773 0.10695,0.12224 l 2.25,3.3125 C 7.63578,5.845 7.65471,5.8789 7.67061,5.91429 l 1.9375,4.31251 1.71259,5.1897 1.3285,5.682 0.8242,6.1888 0.3174,6.3044 0.3125,6.25 0.8076,6.0706 1.3008,5.5612 1.6715,5.068 1.9124,4.2478 -0.1175,-0.1782 1.8069,1.9641 -0.9812,0.9028 -1.8069,-1.9641 C 18.6484,61.4612 18.6087,61.401 18.5794,61.3357 l -1.9626,-4.3772 -1.7035,-5.182 -1.3242,-5.6888 -0.8174,-6.1794 -0.3125,-6.25 -0.3076,-6.1956 -0.8008,-6.0612 -1.2965,-5.568 -1.66241,-5.0603 -1.9375,-4.31249 0.05663,0.10138 -2.25,-3.3125 0.10695,0.12224 -2.375,-2.125 L 2.15211,1.35249 0.964609,0.789992 1.15111,0.846791 -0.0988936,0.659291 Z M 22.4587,59.0727 26.1932,67.2 17.4506,65.3112 Z"
         transform="matrix(0,1,1,0,620.5,255.5)"
         id="path9" />
      <text
         font-family="Arial, Arial_MSFontService, sans-serif"
         font-weight="400"
         font-size="12px"
         transform="translate(223.764,159)"
         id="text9">Unchecked</text>
      <text
         font-family="Arial, Arial_MSFontService, sans-serif"
         font-weight="400"
         font-size="12px"
         transform="translate(241.097,173)"
         id="text10">Data</text>
      <path
         d="m 769.762,355.31 -28.459,-0.152 -34.821,-0.625 -34.319,-1.001 -33.446,-1.375 -32.382,-1.688 -15.693,-0.938 -15.256,-1.062 -14.939,-1.063 -14.445,-1.188 -13.942,-1.25 -13.44,-1.251 -12.943,-1.313 -12.322,-1.438 -11.692,-1.438 -11.067,-1.438 -10.384,-1.502 -9.637,-1.564 -8.888,-1.627 -8.136,-1.627 -7.265,-1.628 -6.4,-1.694 -5.585,-1.694 -4.6,-1.7 -3.684,-1.775 -2.752,-1.723 c -0.053,-0.034 -0.101,-0.074 -0.143,-0.121 l -1.562,-1.75 c -0.063,-0.07 -0.11,-0.152 -0.138,-0.241 l -0.557,-1.741 1.27,-0.406 0.557,1.741 -0.138,-0.241 1.563,1.75 -0.143,-0.121 2.623,1.652 3.566,1.725 4.525,1.675 5.54,1.681 6.35,1.682 7.235,1.621 8.114,1.623 8.862,1.623 9.613,1.561 10.366,1.498 11.058,1.437 11.683,1.437 12.303,1.437 12.932,1.312 13.435,1.25 13.933,1.249 14.43,1.187 14.936,1.062 15.244,1.063 15.682,0.937 32.368,1.687 33.429,1.375 34.305,0.999 34.804,0.625 28.459,0.152 z m -1.309,-4.674 7.979,4.043 -8.021,3.957 z"
         id="path10" />
      <path
         d="M 0.00142669,-0.666665 85.2704,-0.484187 85.2675,0.849144 -0.00142669,0.666665 Z M 83.9441,-3.82037 91.9355,0.196745 83.927,4.17962 Z"
         transform="matrix(1,0,0,-1,482.5,257.697)"
         id="path11" />
      <text
         font-family="Arial, Arial_MSFontService, sans-serif"
         font-weight="400"
         font-size="12px"
         transform="translate(784.211,351)"
         id="text11">Checked</text>
      <text
         font-family="Arial, Arial_MSFontService, sans-serif"
         font-weight="400"
         font-size="12px"
         transform="translate(795.211,365)"
         id="text12">Data</text>
      <path
         d="m 290.504,160.833 34.125,0.188 33.883,0.625 33.321,1 32.57,1.375 31.445,1.688 15.258,1.001 14.876,1 14.507,1.125 14.064,1.125 13.571,1.251 13.065,1.25 12.571,1.376 12.003,1.376 11.383,1.438 10.755,1.438 10.076,1.565 9.383,1.563 8.634,1.565 7.891,1.628 7.082,1.692 6.263,1.628 5.347,1.697 4.54,1.764 c 0.039,0.015 0.076,0.034 0.111,0.056 l 3.453,2.157 -0.706,1.131 -3.453,-2.157 0.111,0.056 -4.46,-1.736 -5.278,-1.678 -6.237,-1.622 -7.043,-1.683 -7.859,-1.621 -8.616,-1.561 -9.367,-1.562 -10.049,-1.56 -10.745,-1.437 -11.367,-1.437 -11.997,-1.374 -12.553,-1.374 -13.061,-1.25 -13.554,-1.249 -14.061,-1.125 -14.493,-1.125 -14.874,-1 -15.242,-0.999 -31.43,-1.687 -32.554,-1.375 -33.305,-1 -33.867,-0.625 -34.125,-0.187 z m 361.72,29.37 2.805,8.494 -8.478,-2.853 z"
         id="path12" />
      <path
         d="m 770.059,354.433 -4.772,-0.079 -11.401,-0.626 -11.214,-1.064 -10.892,-1.314 -10.587,-1.691 -10.149,-2.005 -9.59,-2.318 -8.961,-2.506 -8.22,-2.76 -7.466,-2.885 -6.548,-3.146 -5.605,-3.21 -4.51,-3.423 c -0.025,-0.02 -0.05,-0.041 -0.072,-0.064 l -3.313,-3.375 c -0.038,-0.038 -0.071,-0.082 -0.098,-0.128 l -2.063,-3.5 c -0.038,-0.066 -0.066,-0.138 -0.08,-0.213 l -0.673,-3.5 1.31,-0.252 0.672,3.5 -0.08,-0.212 2.063,3.5 -0.099,-0.129 3.313,3.375 -0.073,-0.063 4.366,3.327 5.52,3.165 6.451,3.104 7.41,2.865 8.154,2.74 8.915,2.494 9.535,2.306 10.101,1.996 10.537,1.684 10.858,1.311 11.161,1.06 11.35,0.624 4.771,0.078 z m -1.257,-4.688 7.933,4.13 -8.064,3.869 z"
         id="path13" />
      <path
         d="m 223.5,398.833 h 548.533 v 1.334 H 223.5 Z m 548.534,0.667 -2.667,-4 8,4 -8,4 z"
         id="path14" />
      <text
         font-family="Arial, Arial_MSFontService, sans-serif"
         font-weight="400"
         font-size="12px"
         transform="translate(786.026,397)"
         id="text14">Data</text>
      <text
         font-family="Arial, Arial_MSFontService, sans-serif"
         font-weight="400"
         font-size="12px"
         transform="translate(786.026,411)"
         id="text15">Lifetime</text>
      <text
         fill="#1d2d35"
         font-family="Arial, Arial_MSFontService, sans-serif"
         font-weight="400"
         font-size="12px"
         transform="translate(433.513,124)"
         id="text16">BF Input/Output Check Bugs Model</text>
    </g>
  </g>
</svg>
