<?xml version="1.0" encoding="UTF-8" standalone="no"?>
<!-- Created with Inkscape (http://www.inkscape.org/) -->

<svg
   width="197.28987mm"
   height="197.72449mm"
   viewBox="0 0 197.28987 197.72449"
   version="1.1"
   id="svg1"
   inkscape:version="1.3.2 (091e20e, 2023-11-25, custom)"
   sodipodi:docname="_MEM Model.svg"
   xmlns:inkscape="http://www.inkscape.org/namespaces/inkscape"
   xmlns:sodipodi="http://sodipodi.sourceforge.net/DTD/sodipodi-0.dtd"
   xmlns="http://www.w3.org/2000/svg"
   xmlns:svg="http://www.w3.org/2000/svg">
  <sodipodi:namedview
     id="namedview1"
     pagecolor="#ffffff"
     bordercolor="#000000"
     borderopacity="0.25"
     inkscape:showpageshadow="2"
     inkscape:pageopacity="0.0"
     inkscape:pagecheckerboard="0"
     inkscape:deskcolor="#d1d1d1"
     inkscape:document-units="mm"
     inkscape:zoom="1.0307169"
     inkscape:cx="373.04133"
     inkscape:cy="374.01153"
     inkscape:window-width="2560"
     inkscape:window-height="1377"
     inkscape:window-x="-8"
     inkscape:window-y="859"
     inkscape:window-maximized="1"
     inkscape:current-layer="layer1" />
  <defs
     id="defs1" />
  <g
     inkscape:label="Layer 1"
     inkscape:groupmode="layer"
     id="layer1"
     transform="translate(-6.3737966,-49.483288)">
    <g
       transform="matrix(0.26458333,0,0,0.26458333,-121.58882,-61.644811)"
       id="g95">
      <path
         d="m 713.5,824.606 c 0,-10 8.106,-18.106 18.106,-18.106 h 295.784 c 10,0 18.11,8.106 18.11,18.106 v 142.788 c 0,10 -8.11,18.106 -18.11,18.106 H 731.606 c -10,0 -18.106,-8.106 -18.106,-18.106 z"
         stroke="#7b7b7b"
         stroke-width="0.666667"
         stroke-miterlimit="8"
         fill="#f2f2f2"
         fill-rule="evenodd"
         id="path1" />
      <text
         font-family="'Calibri Light', 'Calibri Light_MSFontService', sans-serif"
         font-weight="300"
         font-size="13px"
         transform="translate(843.977,824)"
         id="text1">MUS (</text>
      <text
         font-family="'Calibri Light', 'Calibri Light_MSFontService', sans-serif"
         font-weight="300"
         font-size="13px"
         transform="translate(876.811,824)"
         id="text2">object</text>
      <text
         font-family="'Calibri Light', 'Calibri Light_MSFontService', sans-serif"
         font-weight="300"
         font-size="13px"
         transform="translate(910.477,824)"
         id="text3">)</text>
      <path
         d="m 729.5,866.633 c 0,-10.015 8.118,-18.133 18.133,-18.133 h 266.737 c 10.01,0 18.13,8.118 18.13,18.133 v 87.734 c 0,10.015 -8.12,18.133 -18.13,18.133 H 747.633 c -10.015,0 -18.133,-8.118 -18.133,-18.133 z"
         stroke="#7b7b7b"
         stroke-width="0.666667"
         stroke-miterlimit="8"
         fill="#f7f7f8"
         fill-rule="evenodd"
         id="path3" />
      <path
         d="m 618.5,542.956 c 0,-9.641 7.815,-17.456 17.456,-17.456 h 270.089 c 9.64,0 17.455,7.815 17.455,17.456 v 93.089 c 0,9.64 -7.815,17.455 -17.455,17.455 H 635.956 c -9.641,0 -17.456,-7.815 -17.456,-17.455 z"
         stroke="#7b7b7b"
         stroke-width="0.666667"
         stroke-miterlimit="8"
         fill="#f2f2f2"
         fill-rule="evenodd"
         id="path4" />
      <text
         font-family="'Calibri Light', 'Calibri Light_MSFontService', sans-serif"
         font-weight="300"
         font-size="13px"
         transform="translate(734.054,542)"
         id="text4">MAD (o</text>
      <text
         font-family="'Calibri Light', 'Calibri Light_MSFontService', sans-serif"
         font-weight="300"
         font-size="13px"
         transform="translate(775.054,542)"
         id="text5">wner</text>
      <text
         font-family="'Calibri Light', 'Calibri Light_MSFontService', sans-serif"
         font-weight="300"
         font-size="13px"
         transform="translate(802.72,542)"
         id="text6">)</text>
      <path
         d="m 617.5,694.001 c 0,-10.218 8.283,-18.501 18.501,-18.501 H 869 c 10.217,0 18.5,8.283 18.5,18.501 V 768 c 0,10.217 -8.283,18.5 -18.5,18.5 H 636.001 C 625.783,786.5 617.5,778.217 617.5,768 Z"
         stroke="#7b7b7b"
         stroke-width="0.666667"
         stroke-miterlimit="8"
         stroke-dasharray="2.66667, 2, 0.666667, 2"
         fill="#f2f2f2"
         fill-rule="evenodd"
         id="path6" />
      <text
         font-family="'Calibri Light', 'Calibri Light_MSFontService', sans-serif"
         font-weight="300"
         font-size="13px"
         transform="translate(717.137,692)"
         id="text7">MAL (</text>
      <text
         font-family="'Calibri Light', 'Calibri Light_MSFontService', sans-serif"
         font-weight="300"
         font-size="13px"
         transform="translate(748.637,692)"
         id="text8">object</text>
      <text
         font-family="'Calibri Light', 'Calibri Light_MSFontService', sans-serif"
         font-weight="300"
         font-size="13px"
         transform="translate(782.304,692)"
         id="text9">)</text>
      <path
         d="m 887.5,1026 c 0,-10.22 8.283,-18.5 18.5,-18.5 h 229 c 10.22,0 18.5,8.28 18.5,18.5 v 74 c 0,10.22 -8.28,18.5 -18.5,18.5 H 906 c -10.217,0 -18.5,-8.28 -18.5,-18.5 z"
         stroke="#7b7b7b"
         stroke-width="0.666667"
         stroke-miterlimit="8"
         fill="#f2f2f2"
         fill-rule="evenodd"
         id="path9" />
      <text
         font-family="'Calibri Light', 'Calibri Light_MSFontService', sans-serif"
         font-weight="300"
         font-size="13px"
         transform="translate(984.729,1024)"
         id="text10">MDL (</text>
      <text
         font-family="'Calibri Light', 'Calibri Light_MSFontService', sans-serif"
         font-weight="300"
         font-size="13px"
         transform="translate(1016.9,1024)"
         id="text11">object</text>
      <text
         font-family="'Calibri Light', 'Calibri Light_MSFontService', sans-serif"
         font-weight="300"
         font-size="13px"
         transform="translate(1050.56,1024)"
         id="text12">)</text>
      <path
         d="m 862.5,934.667 c 0,-2.301 1.866,-4.167 4.167,-4.167 h 58.666 c 2.302,0 4.167,1.866 4.167,4.167 v 16.666 c 0,2.302 -1.865,4.167 -4.167,4.167 h -58.666 c -2.301,0 -4.167,-1.865 -4.167,-4.167 z"
         stroke="#000000"
         stroke-width="0.666667"
         stroke-miterlimit="8"
         fill="#ffffff"
         fill-rule="evenodd"
         id="path12" />
      <text
         font-family="'Calibri Light', 'Calibri Light_MSFontService', sans-serif"
         font-weight="300"
         font-size="13px"
         transform="translate(881.844,947)"
         id="text13">Read</text>
      <path
         d="m 1138.58,1090.27 1.64,-0.37 -0.11,0.04 1.64,-1.1 -0.06,0.06 1.63,-1.81 -0.03,0.04 1.63,-2.48 -0.02,0.03 1.61,-3.14 -0.01,0.02 1.6,-3.78 -0.01,0.02 1.58,-4.39 -0.01,0.01 1.56,-4.97 -0.01,0.01 1.53,-5.54 v 0.01 l 1.5,-6.08 v 0.01 l 1.46,-6.6 v 0.01 l 1.43,-7.09 v 0 l 1.39,-7.56 v 0.01 l 1.36,-8.01 -0.01,0.01 1.31,-8.43 v 0 l 1.26,-8.82 v 0 l 1.2,-9.2 v 0 l 1.16,-9.557 v 0.005 l 2.12,-20.074 v 0.006 l 1.87,-21.201 v 0.005 l 1.59,-22.141 v 0.005 l 1.28,-22.892 v 0.005 l 0.95,-23.456 v 0.005 l 0.59,-23.832 v 0.005 l 0.2,-24.019 v 0.016 l -0.49,-12.022 v 0.026 l -1.43,-11.998 v 0.025 l -2.36,-11.951 0.01,0.023 -3.25,-11.881 0.01,0.022 -4.11,-11.787 0.01,0.021 -4.94,-11.67 0.01,0.019 -5.74,-11.529 0.01,0.017 -6.5,-11.364 0.01,0.016 -7.24,-11.176 0.01,0.014 -7.94,-10.964 0.01,0.013 -8.62,-10.73 0.01,0.012 -9.26,-10.472 0.01,0.012 -9.88,-10.19 0.01,0.01 -10.46,-9.884 0.01,0.009 -11.01,-9.555 0.01,0.009 -11.54,-9.204 0.01,0.009 -12.02,-8.828 0.01,0.008 -12.49,-8.428 0.01,0.007 -12.91,-8.006 0.01,0.007 -13.32,-7.559 0.01,0.006 -13.68,-7.089 0.01,0.005 -14.018,-6.596 0.011,0.006 -14.327,-6.08 0.012,0.005 -14.604,-5.539 0.012,0.004 -14.849,-4.975 0.012,0.004 -15.064,-4.389 0.013,0.004 -15.248,-3.778 0.013,0.003 -15.402,-3.143 0.014,0.003 -15.524,-2.486 0.014,0.002 -15.617,-1.805 0.015,0.002 -15.678,-1.1 h 0.016 l -10.377,-0.245 0.016,-0.667 10.384,0.246 15.693,1.101 15.632,1.806 15.539,2.488 15.415,3.147 15.262,3.78 15.077,4.392 14.862,4.98 14.616,5.544 14.34,6.084 14.03,6.602 13.7,7.095 13.32,7.565 12.93,8.012 12.5,8.436 12.03,8.835 11.55,9.212 11.02,9.564 10.47,9.895 9.89,10.2 9.27,10.483 8.63,10.743 7.96,10.978 7.25,11.191 6.51,11.381 5.74,11.546 4.94,11.689 4.12,11.808 3.25,11.903 2.37,11.975 1.44,12.024 0.48,12.043 -0.2,24.031 -0.58,23.837 -0.95,23.461 -1.28,22.898 -1.59,22.147 -1.87,21.207 -2.13,20.079 -1.15,9.559 -1.21,9.21 -1.26,8.83 -1.31,8.43 -1.35,8.01 -1.39,7.57 -1.44,7.09 -1.46,6.6 -1.51,6.09 -1.53,5.55 -1.55,4.99 -1.59,4.4 -1.6,3.8 -1.63,3.17 -1.64,2.52 -1.68,1.86 -1.73,1.15 -1.7,0.39 z m -294.748,-512.644 2.571,4.062 -7.903,-4.188 8.093,-3.809 z"
         id="path13" />
      <text
         font-family="'Calibri Light', 'Calibri Light_MSFontService', sans-serif"
         font-weight="300"
         font-size="13px"
         transform="translate(1157.02,480)"
         id="text14">Other Object</text>
      <text
         font-family="'Calibri Light', 'Calibri Light_MSFontService', sans-serif"
         font-weight="300"
         font-size="13px"
         transform="translate(1173.76,496)"
         id="text15">/ NULL</text>
      <path
         d="m 804.172,565.716 0.292,-1.536 0.877,-1.562 1.409,-1.522 1.914,-1.494 2.404,-1.471 2.876,-1.45 3.333,-1.429 3.773,-1.406 4.197,-1.382 4.604,-1.355 4.993,-1.325 5.365,-1.294 11.772,-2.478 13.05,-2.315 14.184,-2.129 15.177,-1.921 16.028,-1.688 16.738,-1.433 17.306,-1.156 17.734,-0.853 36.166,-0.711 36.166,-0.711 h -0.01 l 17.72,-0.853 v 0 l 17.29,-1.155 v 10e-4 l 16.73,-1.433 -0.01,10e-4 16.03,-1.688 -0.01,0.001 15.17,-1.92 -0.01,10e-4 14.18,-2.128 -0.01,0.002 13.04,-2.314 -0.01,0.002 11.76,-2.475 -0.01,0.002 5.36,-1.292 -0.01,0.002 4.98,-1.323 v 0.002 l 4.59,-1.352 -0.01,0.003 4.19,-1.378 -0.02,0.004 3.76,-1.401 -0.01,0.006 3.31,-1.422 -0.01,0.009 2.85,-1.44 -0.02,0.014 2.37,-1.454 -0.03,0.022 1.66,-1.297 0.41,0.525 -1.67,1.309 -2.41,1.471 -2.87,1.449 -3.34,1.43 -3.77,1.406 -4.2,1.382 -4.6,1.355 -4.99,1.325 -5.37,1.294 -11.77,2.478 -13.05,2.315 -14.18,2.129 -15.18,1.921 -16.03,1.688 -16.74,1.433 -17.3,1.156 -17.74,0.854 -36.163,0.71 -36.162,0.711 h 0.01 l -17.726,0.853 h 0.006 l -17.299,1.155 0.006,-10e-4 -16.732,1.433 0.007,-0.001 -16.022,1.688 0.007,-10e-4 -15.17,1.92 0.008,-0.001 -14.176,2.128 0.009,-0.002 -13.04,2.314 0.01,-0.002 -11.762,2.475 0.01,-0.002 -5.358,1.292 0.008,-0.002 -4.985,1.323 0.009,-0.002 -4.594,1.352 0.01,-0.003 -4.186,1.378 0.012,-0.004 -3.76,1.401 0.015,-0.006 -3.316,1.422 0.019,-0.009 -2.855,1.44 0.024,-0.014 -2.375,1.454 0.031,-0.022 -1.879,1.466 0.04,-0.037 -1.364,1.474 0.046,-0.063 -0.831,1.48 0.037,-0.102 -0.281,1.483 z m 385.378,-58.612 -4.8,0.284 7.49,-4.888 -0.58,8.925 z"
         id="path15" />
      <path
         d="M 5.20383,1.49537 6.6883,2.41683 7.38554,3.13597 6.9069,3.60003 6.23827,2.91039 6.30179,2.96157 4.85224,2.06179 Z M 8.77771,4.57188 9.24177,5.05052 8.76313,5.51458 8.29907,5.03594 Z M 10.4837,6.68492 11.9676,8.90058 11.4137,9.27155 9.92979,7.05589 Z m 2.469,4.00548 0.2877,0.6014 -0.6014,0.2877 -0.2877,-0.6014 z m 1.1508,2.4056 0.5914,1.2363 0.42,1.2709 -0.633,0.2092 -0.4133,-1.2507 0.0158,0.0392 -0.5823,-1.2172 z m 1.639,4.4062 0.2091,0.633 -0.633,0.2092 -0.2091,-0.633 z m 0.7951,2.5853 0.5201,2.6155 -0.6539,0.13 -0.5201,-2.6154 z m 0.9102,4.5771 0.1282,0.6445 0.0036,0.0522 -0.6652,0.0453 -0.0021,-0.0308 0.0057,0.0424 -0.124,-0.6236 z m 0.2678,2.6921 0.1813,2.6605 -0.6651,0.0453 -0.1814,-2.6605 z m 0.3173,4.6558 0.0454,0.6652 -0.6652,0.0453 -0.0453,-0.6651 z m 0.1814,2.6605 0.1556,2.284 -0.0056,-0.0424 0.0736,0.3702 -0.6538,0.13 -0.0778,-0.3911 -0.1572,-2.3053 z m 0.6137,4.5734 0.1301,0.6538 -0.6539,0.1301 -0.13,-0.6539 z m 0.5202,2.6154 0.1359,0.6835 -0.0104,-0.0396 0.618,1.8704 -0.633,0.2091 -0.6245,-1.8898 -0.1399,-0.7035 z m 1.3711,4.4133 0.2091,0.633 -0.633,0.2091 -0.2091,-0.633 z m 0.9494,2.441 1.1508,2.4055 -0.6014,0.2877 -1.1508,-2.4055 z m 2.0561,4.1305 0.371,0.5539 -0.554,0.371 -0.3709,-0.5539 z m 1.4839,2.2156 0.8925,1.3327 -0.0376,-0.0465 0.7397,0.763 -0.4786,0.464 -0.7607,-0.7845 -0.9092,-1.3577 z m 2.9868,3.4851 0.464,0.4786 -0.4786,0.4641 -0.4641,-0.4787 z m 2.015,1.5875 0.2195,0.1362 -0.3516,0.5664 -0.2195,-0.1362 z M 5.02803,1.77858 6.20811,6.43889 0,0 8.87598,-1.10316 Z m 25.22617,58.77562 -1.1801,-4.6603 6.2081,6.4389 -8.876,1.1031 z"
         fill="#920000"
         transform="matrix(0,-1,-1,0,879.833,806.782)"
         id="path16" />
      <path
         d="M 5.34299,-0.0893257 8.00688,0.0325041 7.97642,0.698475 5.31254,0.576645 Z M 10.024,0.234664 10.6848,0.322842 10.5966,0.983651 9.93579,0.895473 Z M 12.6672,0.587377 15.3104,0.94009 15.2223,1.6009 12.579,1.24819 Z M 17.3203,1.2131 17.9712,1.35741 17.8269,2.00827 17.176,1.86396 Z m 2.6035,0.57725 2.6034,0.57726 -0.1443,0.65085 -2.6035,-0.57725 z m 4.556,1.0102 0.6508,0.14431 -0.1443,0.65086 -0.6508,-0.14432 z m 2.5865,0.75754 2.5391,0.815 -0.2038,0.63477 -2.539,-0.815 z m 4.4434,1.42625 0.6347,0.20375 -0.2037,0.63477 -0.6348,-0.20375 z m 2.5012,1.0176 2.4323,1.09303 L 36.17,7.70306 33.7376,6.61003 Z m 4.2566,1.9128 0.0995,0.04471 0.5121,0.30129 L 38.541,8.83533 38.0447,8.5433 38.0771,8.56005 37.9942,8.52283 Z m 2.3353,1.36021 0.2934,0.17264 1.9101,1.38241 -0.3909,0.54 -1.8972,-1.37309 0.0264,0.01729 -0.2798,-0.16466 z m 3.722,2.91545 0.4682,0.4349 0.0502,0.0645 -0.5265,0.409 -0.0335,-0.0432 0.0364,0.0398 -0.4485,-0.4164 z m 1.7454,2.0788 0.0261,0.0335 0.8196,1.7292 0.1399,0.8671 -0.6581,0.1062 -0.1324,-0.8203 0.0279,0.0897 -0.7837,-1.6534 0.0379,0.0617 -0.0036,-0.0047 z m 1.3042,4.6043 0.0868,0.538 -0.0279,-0.0897 0.0522,0.11 -0.6025,0.2856 -0.0724,-0.1529 -0.0944,-0.5848 z m 0.9838,2.2705 1.0851,1.3967 -0.0364,-0.0397 0.6581,0.611 -0.4536,0.4885 -0.6779,-0.6294 -1.1017,-1.418 z m 3.1846,3.25 0.5401,0.3909 -0.3909,0.54 -0.5401,-0.3908 z m 2.1655,1.4979 1.9736,1.1611 -0.0325,-0.0167 0.3438,0.1545 -0.2733,0.608 -0.3604,-0.1619 -1.9893,-1.1705 z m 4.1091,2.1186 0.6081,0.2733 -0.2732,0.6081 -0.6081,-0.2733 z m 2.4324,1.0931 1.3948,0.6267 -0.0347,-0.0133 1.083,0.3476 -0.2037,0.6348 -1.1008,-0.3533 -1.4119,-0.6345 z m 4.3474,1.5723 0.6348,0.2037 -0.2037,0.6348 -0.6348,-0.2037 z m 2.5391,0.815 1.5672,0.503 -0.0298,-0.008 0.9966,0.2209 -0.1443,0.6509 -1.0116,-0.2243 -1.5818,-0.5077 z m 4.4866,1.1489 0.6508,0.1443 -0.1443,0.6509 -0.6508,-0.1444 z m 2.6034,0.5772 2.3648,0.5244 -0.0281,-0.005 0.2423,0.0323 -0.0881,0.6608 -0.2565,-0.0342 -2.3787,-0.5274 z m 4.5615,0.8163 0.6608,0.0881 -0.0882,0.6608 -0.6608,-0.0881 z m 2.6432,0.3527 2.6432,0.3527 -0.0881,0.6608 -2.6433,-0.3527 z m 4.6048,0.5249 0.666,0.0305 -0.0305,0.6659 -0.6659,-0.0304 z M 5.32776,0.24366 7.8089,4.36131 0,0 8.17439,-3.63033 Z M 88.3987,35.3527 85.9176,31.235 l 7.8089,4.3613 -8.1744,3.6304 z"
         fill="#920000"
         transform="matrix(0,1,1,0,947.5,985.5)"
         id="path17" />
      <path
         d="m 1038.01,1091.63 2.66,-0.2 0.05,0.67 -2.66,0.19 z m 4.65,-0.35 h 0.06 -0.05 l 0.6,-0.13 0.14,0.65 -0.62,0.14 -0.08,0.01 z m 2.56,-0.56 2.16,-0.47 -0.05,0.01 0.44,-0.16 0.22,0.63 -0.45,0.16 -2.18,0.48 z m 4.43,-1.3 0.62,-0.23 0.23,0.63 -0.63,0.23 z m 2.46,-0.91 2.38,-1.2 0.3,0.6 -2.38,1.2 z m 4.17,-2.1 0.36,-0.18 -0.03,0.02 0.22,-0.14 0.36,0.56 -0.24,0.15 -0.37,0.19 z m 2.23,-1.38 2.25,-1.44 0.36,0.56 -2.25,1.44 z m 3.83,-2.61 0.53,-0.41 0.41,0.53 -0.53,0.41 z m 2.11,-1.64 1.33,-1.03 -0.02,0.01 0.72,-0.66 0.45,0.49 -0.73,0.67 -1.34,1.05 z m 3.51,-3.03 0.49,-0.45 0.45,0.49 -0.49,0.45 z m 1.96,-1.8 0.36,-0.32 -0.02,0.02 1.51,-1.59 0.48,0.46 -1.51,1.59 -0.37,0.33 z m 3.23,-3.34 0.45,-0.48 0.49,0.46 -0.46,0.48 z m 1.8,-1.93 1.71,-2.05 0.52,0.43 -1.72,2.04 z m 3,-3.58 0.43,-0.51 0.51,0.43 -0.43,0.51 z m 1.66,-2.06 1.61,-2.13 0.53,0.4 -1.6,2.13 z m 2.81,-3.73 0.4,-0.53 0.53,0.4 -0.4,0.53 z m 1.54,-2.15 1.5,-2.21 0.55,0.37 -1.49,2.21 z m 2.62,-3.87 0.37,-0.55 0.55,0.38 -0.37,0.55 z m 1.45,-2.21 1.4,-2.28 0.57,0.35 -1.4,2.28 z m 2.45,-3.98 0.34,-0.57 0.57,0.35 -0.35,0.57 z m 1.37,-2.27 1.31,-2.32 0.58,0.32 -1.31,2.33 z m 2.28,-4.07 0.33,-0.58 0.58,0.33 -0.33,0.58 z m 1.31,-2.32 0.21,-0.38 -0.01,0.01 1.02,-1.99 0.6,0.31 -1.03,1.99 -0.21,0.38 z m 2.14,-4.14 0.3,-0.59 0.6,0.3 -0.31,0.6 z m 1.22,-2.37 0.72,-1.4 -0.01,0.01 0.47,-0.99 0.6,0.29 -0.47,0.99 -0.72,1.4 z m 2.03,-4.19 0.28,-0.6 0.61,0.28 -0.29,0.61 z m 1.14,-2.41 1.13,-2.41 0.61,0.28 -1.14,2.42 z m 1.94,-4.23 0.26,-0.61 0.61,0.26 -0.26,0.61 z m 1.06,-2.45 1.06,-2.44 0.61,0.26 -1.06,2.45 z m 1.85,-4.28 0.04,-0.08 v 0.01 l 0.2,-0.54 0.62,0.24 -0.2,0.55 -0.04,0.09 z m 0.96,-2.47 0.95,-2.5 0.62,0.24 -0.95,2.49 z m 1.66,-4.36 0.24,-0.63 0.62,0.24 -0.23,0.63 z m 0.96,-2.49 0.95,-2.49 0.62,0.23 -0.95,2.49 z m 1.66,-4.36 0.24,-0.62 0.63,0.23 -0.24,0.63 z m 0.96,-2.49 0.6,-1.575 -0.01,0.017 0.3,-0.936 0.64,0.205 -0.31,0.944 -0.6,1.585 z m 1.51,-4.397 0.2,-0.635 0.64,0.205 -0.21,0.634 z m 0.82,-2.538 0.82,-2.538 0.63,0.205 -0.82,2.538 z m 1.43,-4.441 0.2,-0.635 0.64,0.205 -0.21,0.634 z m 0.82,-2.538 0.82,-2.538 0.63,0.204 -0.82,2.538 z m 1.43,-4.442 0.21,-0.634 0.63,0.204 -0.2,0.635 z m 0.79,-2.528 0.7,-2.575 0.64,0.172 -0.69,2.576 z m 1.21,-4.507 0.18,-0.644 0.64,0.173 -0.17,0.644 z m 0.7,-2.575 0.69,-2.576 0.64,0.173 -0.69,2.575 z m 1.21,-4.507 0.17,-0.644 0.64,0.173 -0.17,0.643 z m 0.69,-2.576 0.69,-2.575 0.64,0.173 -0.69,2.575 z m 1.21,-4.507 0.17,-0.644 0.64,0.173 -0.17,0.644 z m 0.6,-2.58 0.57,-2.605 0.65,0.142 -0.56,2.605 z m 1,-4.559 0.14,-0.651 0.65,0.142 -0.14,0.651 z m 0.57,-2.605 0.57,-2.606 0.65,0.143 -0.57,2.605 z m 0.99,-4.56 0.15,-0.651 0.65,0.142 -0.15,0.652 z m 0.57,-2.605 0.57,-2.605 0.65,0.142 -0.57,2.605 z m 1,-4.559 0.05,-0.257 v 0.016 l 0.07,-0.399 0.66,0.112 -0.07,0.406 -0.06,0.264 z m 0.45,-2.612 0.45,-2.629 0.66,0.112 -0.45,2.629 z m 0.79,-4.6 0.11,-0.657 0.66,0.111 -0.12,0.658 z m 0.44,-2.629 0.45,-2.629 0.66,0.112 -0.45,2.629 z m 0.79,-4.601 0.11,-0.657 0.66,0.112 -0.12,0.657 z m 0.44,-2.628 0.45,-2.629 0.66,0.112 -0.45,2.628 z m 0.79,-4.601 0.02,-0.141 v 0.016 l 0.06,-0.52 0.66,0.081 -0.06,0.528 -0.03,0.148 z m 0.33,-2.631 0.32,-2.646 0.66,0.081 -0.32,2.647 z m 0.56,-4.631 0.09,-0.662 0.66,0.081 -0.08,0.662 z m 0.33,-2.647 0.32,-2.647 0.67,0.081 -0.33,2.647 z m 0.57,-4.632 0.08,-0.662 0.66,0.081 -0.08,0.662 z m 0.32,-2.647 0.33,-2.647 0.66,0.081 -0.33,2.647 z m 0.57,-4.632 0.05,-0.407 v 0.016 l 0.02,-0.256 0.66,0.05 -0.02,0.263 -0.05,0.415 z m 0.22,-2.641 0.2,-2.66 0.66,0.05 -0.2,2.659 z m 0.35,-4.654 0.05,-0.665 0.66,0.05 -0.05,0.665 z m 0.2,-2.659 0.2,-2.66 0.66,0.05 -0.2,2.659 z m 0.34,-4.654 0.05,-0.665 0.67,0.05 -0.05,0.665 z m 0.2,-2.659 0.2,-2.659 0.67,0.049 -0.2,2.66 z m 0.35,-4.654 0.05,-0.665 0.67,0.05 -0.05,0.665 z m 0.11,-2.647 0.07,-2.666 0.67,0.017 -0.07,2.666 z m 0.12,-4.665 0.02,-0.667 0.67,0.017 -0.02,0.667 z m 0.07,-2.666 0.07,-2.666 0.67,0.017 -0.07,2.666 z m 0.12,-4.665 0.02,-0.666 0.66,0.017 -0.01,0.666 z m 0.07,-2.666 0.07,-2.666 0.66,0.017 -0.06,2.666 z m 0.12,-4.665 0.01,-0.666 0.67,0.017 -0.02,0.666 z m 0,-2.646 -0.09,-2.665 0.67,-0.022 0.09,2.665 z m -0.16,-4.664 -0.02,-0.666 0.67,-0.023 0.02,0.667 z m -0.09,-2.665 -0.09,-2.665 0.67,-0.023 0.09,2.666 z m -0.27,-4.634 -0.07,-0.663 0.67,-0.067 0.06,0.663 z m -0.27,-2.653 -0.27,-2.653 0.67,-0.067 0.26,2.653 z m -0.47,-4.643 -0.06,-0.664 0.66,-0.066 0.07,0.663 z m -0.28,-2.629 -0.44,-2.631 0.66,-0.109 0.43,2.631 z m -0.77,-4.604 -0.11,-0.658 0.66,-0.109 0.11,0.658 z m -0.43,-2.631 -0.44,-2.631 0.66,-0.109 0.44,2.631 z m -0.82,-4.572 -0.15,-0.65 0.65,-0.149 0.15,0.65 z m -0.6,-2.599 -0.59,-2.6 0.65,-0.149 0.59,2.6 z m -1.04,-4.549 -0.15,-0.65 0.65,-0.149 0.15,0.65 z m -0.6,-2.599 -0.11,-0.486 0.01,0.02 -0.61,-2.082 0.64,-0.187 0.61,2.091 0.11,0.495 z m -1.27,-4.467 -0.19,-0.64 0.64,-0.187 0.19,0.639 z m -0.75,-2.56 -0.75,-2.559 0.64,-0.187 0.75,2.559 z m -1.31,-4.479 -0.02,-0.067 v 0.018 l -0.2,-0.562 0.63,-0.223 0.21,0.571 0.02,0.076 z m -0.88,-2.496 -0.9,-2.513 0.63,-0.223 0.89,2.513 z m -1.57,-4.398 -0.22,-0.628 0.63,-0.223 0.22,0.628 z m -0.89,-2.513 -0.58,-1.637 0.01,0.017 -0.36,-0.858 0.61,-0.257 0.37,0.866 0.58,1.646 z m -1.7,-4.324 -0.26,-0.615 0.62,-0.257 0.25,0.616 z m -1.03,-2.46 -1.03,-2.461 0.62,-0.257 1.03,2.461 z m -1.8,-4.307 -0.25,-0.615 0.61,-0.257 0.26,0.615 z m -1.07,-2.42 -1.16,-2.404 0.61,-0.289 1.15,2.404 z m -2.02,-4.207 -0.29,-0.601 0.6,-0.289 0.29,0.601 z m -1.16,-2.404 -1.15,-2.404 0.6,-0.289 1.16,2.404 z m -2.06,-4.163 -0.32,-0.586 0.58,-0.318 0.32,0.586 z m -1.28,-2.343 -1.27,-2.343 0.58,-0.318 1.28,2.343 z m -2.23,-4.1 -0.32,-0.586 0.59,-0.318 0.32,0.586 z m -1.27,-2.343 -0.34,-0.619 0.01,0.013 -1.02,-1.675 0.57,-0.347 1.03,1.683 0.34,0.627 z m -2.39,-3.99 -0.34,-0.57 0.57,-0.346 0.34,0.569 z m -1.38,-2.279 -1.39,-2.278 0.57,-0.347 1.39,2.279 z m -2.43,-3.987 -0.34,-0.57 0.57,-0.346 0.34,0.569 z m -1.45,-2.218 -1.49,-2.212 0.55,-0.372 1.5,2.211 z m -2.61,-3.87 -0.37,-0.553 0.55,-0.372 0.38,0.552 z m -1.49,-2.211 -1.49,-2.211 0.56,-0.373 1.49,2.211 z m -2.66,-3.813 -0.4,-0.535 0.54,-0.398 0.4,0.535 z m -1.59,-2.141 -1.59,-2.141 0.54,-0.398 1.59,2.141 z m -2.78,-3.747 -0.4,-0.535 0.54,-0.398 0.4,0.535 z m -1.59,-2.141 -0.36,-0.492 v 0.012 l -1.29,-1.594 0.51,-0.421 1.31,1.6 0.37,0.497 z m -2.91,-3.625 -0.43,-0.517 0.52,-0.421 0.42,0.517 z m -1.69,-2.069 -1.68,-2.068 0.52,-0.421 1.68,2.068 z m -2.94,-3.62 -0.42,-0.517 0.51,-0.421 0.42,0.517 z m -1.73,-2.01 -1.77,-1.994 0.5,-0.443 1.77,1.994 z m -3.1,-3.49 -0.44,-0.498 0.5,-0.443 0.44,0.499 z m -1.77,-1.993 -1.77,-1.994 0.5,-0.443 1.77,1.994 z m -3.13,-3.444 -0.46,-0.479 0.48,-0.464 0.46,0.48 z m -1.85,-1.917 -1.86,-1.916 0.48,-0.464 1.86,1.917 z m -3.25,-3.354 -0.46,-0.479 0.48,-0.464 0.46,0.48 z m -1.85,-1.917 -0.91,-0.938 0.01,0.01 -0.98,-0.938 0.45,-0.483 1,0.943 0.91,0.943 z m -3.33,-3.244 -0.49,-0.459 0.46,-0.484 0.48,0.46 z m -1.94,-1.837 -1.93,-1.838 0.46,-0.483 1.93,1.837 z m -3.38,-3.216 -0.48,-0.459 0.46,-0.483 0.48,0.459 z m -1.94,-1.804 -2.01,-1.756 0.44,-0.502 2.01,1.756 z m -3.52,-3.072 -0.5,-0.439 0.44,-0.502 0.5,0.439 z m -2,-1.756 -2.01,-1.756 0.44,-0.501 2.01,1.755 z m -3.51,-3.059 -0.52,-0.418 0.42,-0.519 0.52,0.418 z m -2.08,-1.671 -2.08,-1.672 0.42,-0.519 2.08,1.671 z m -3.63,-2.925 -0.52,-0.418 0.41,-0.519 0.52,0.418 z m -2.08,-1.671 -1.97,-1.585 0.01,0.008 -0.11,-0.082 0.39,-0.536 0.12,0.086 1.98,1.589 z m -3.68,-2.847 -0.54,-0.396 0.4,-0.536 0.54,0.396 z m -2.15,-1.584 -2.14,-1.584 0.39,-0.537 2.15,1.585 z m -3.75,-2.772 -0.54,-0.397 0.4,-0.536 0.54,0.396 z m -2.14,-1.585 -0.46,-0.332 0.02,0.008 -1.75,-1.181 0.37,-0.552 1.76,1.185 0.45,0.336 z m -3.85,-2.625 -0.55,-0.374 0.38,-0.552 0.55,0.373 z m -2.2,-1.495 -2.21,-1.494 0.37,-0.552 2.21,1.494 z m -3.87,-2.614 -0.55,-0.374 0.37,-0.552 0.55,0.374 z m -2.23,-1.438 -2.27,-1.401 0.35,-0.567 2.27,1.401 z m -3.97,-2.451 -0.57,-0.351 0.35,-0.567 0.57,0.35 z m -2.27,-1.401 -2.27,-1.401 0.35,-0.567 2.27,1.4 z m -3.97,-2.42 -0.58,-0.326 0.32,-0.581 0.58,0.326 z m -2.33,-1.304 -2.324,-1.304 0.326,-0.581 2.328,1.304 z m -4.069,-2.282 -0.581,-0.326 0.326,-0.581 0.581,0.326 z m -2.326,-1.304 -1.772,-0.993 0.013,0.007 -0.567,-0.287 0.301,-0.595 0.573,0.29 1.778,0.997 z m -4.111,-2.175 -0.595,-0.301 0.301,-0.595 0.595,0.301 z m -2.38,-1.204 -2.38,-1.203 0.301,-0.595 2.38,1.203 z m -4.164,-2.105 -0.595,-0.301 0.3,-0.595 0.595,0.301 z m -2.38,-1.203 -0.054,-0.027 0.013,0.006 -2.375,-1.074 0.275,-0.607 2.381,1.076 0.061,0.031 z m -4.238,-1.918 -0.608,-0.275 0.275,-0.607 0.607,0.274 z m -2.43,-1.099 -2.43,-1.098 0.274,-0.607 2.43,1.098 z m -4.253,-1.921 -0.608,-0.275 0.275,-0.608 0.608,0.275 z m -2.45,-1.014 -2.477,-0.988 0.248,-0.619 2.476,0.988 z m -4.334,-1.73 -0.619,-0.247 0.247,-0.619 0.619,0.247 z m -2.477,-0.989 -2.476,-0.988 0.247,-0.619 2.476,0.988 z m -4.34,-1.669 -0.63,-0.219 0.219,-0.63 0.63,0.219 z m -2.519,-0.875 -2.52,-0.874 0.219,-0.63 2.519,0.875 z m -4.409,-1.53 -0.63,-0.219 0.219,-0.629 0.63,0.218 z m -2.519,-0.874 -1.247,-0.433 0.015,0.005 -1.292,-0.382 0.189,-0.639 1.299,0.383 1.254,0.436 z m -4.442,-1.376 -0.639,-0.189 0.188,-0.639 0.64,0.189 z m -2.558,-0.755 -2.557,-0.755 0.189,-0.639 2.557,0.755 z m -4.475,-1.321 -0.64,-0.189 0.189,-0.639 0.639,0.189 z m -2.552,-0.715 -2.591,-0.63 0.157,-0.647 2.592,0.63 z m -4.535,-1.102 -0.647,-0.158 0.157,-0.648 0.648,0.158 z m -2.591,-0.63 -2.591,-0.631 0.158,-0.647 2.591,0.63 z m -4.52,-1.088 -0.655,-0.125 0.125,-0.655 0.655,0.125 z m -2.62,-0.5 -2.619,-0.499 0.125,-0.655 2.619,0.499 z m -4.584,-0.874 -0.655,-0.125 0.125,-0.655 0.655,0.125 z m -2.619,-0.5 -2.218,-0.423 0.017,0.003 -0.405,-0.056 0.091,-0.661 0.413,0.057 2.227,0.425 z m -4.587,-0.749 -0.661,-0.091 0.091,-0.66 0.661,0.091 z m -2.642,-0.364 -2.642,-0.363 0.091,-0.661 2.642,0.364 z m -4.623,-0.636 -0.661,-0.091 0.091,-0.661 0.661,0.091 z m -2.642,-0.364 -0.057,-0.008 0.018,0.002 -2.6,-0.217 0.055,-0.665 2.61,0.219 0.065,0.009 z m -4.632,-0.39 -0.665,-0.055 0.056,-0.665 0.664,0.056 z m -2.658,-0.222 -2.657,-0.222 0.055,-0.664 2.658,0.222 z m -4.65,-0.389 -0.497,-0.041 0.019,10e-4 -0.169,-0.005 0.019,-0.666 0.178,0.005 0.505,0.042 z m -2.646,-0.101 -2.665,-0.076 0.018,-0.666 2.666,0.075 z m -4.665,-0.132 -0.258,-0.007 0.019,-0.667 0.258,0.008 z m -0.249,-0.34 2.553,4.073 -7.884,-4.224 8.11,-3.773 z"
         fill="#920000"
         id="path18" />
      <text
         font-family="'Calibri Light', 'Calibri Light_MSFontService', sans-serif"
         font-weight="300"
         font-size="13px"
         transform="rotate(51.549971,-155.69803,1502.1497)"
         id="text18">A</text>
      <text
         font-family="'Calibri Light', 'Calibri Light_MSFontService', sans-serif"
         font-weight="300"
         font-size="13px"
         transform="rotate(51.549971,-159.57575,1509.9852)"
         id="text19">ll</text>
      <text
         font-family="'Calibri Light', 'Calibri Light_MSFontService', sans-serif"
         font-weight="300"
         font-size="13px"
         transform="rotate(51.549971,-164.02892,1519.2734)"
         id="text20">O</text>
      <text
         font-family="'Calibri Light', 'Calibri Light_MSFontService', sans-serif"
         font-weight="300"
         font-size="13px"
         transform="rotate(51.549971,-167.54664,1527.8545)"
         id="text21">wners</text>
      <path
         d="m 1049.29,893.361 0.1,-0.122 -0.03,0.044 2.2,-3.805 -0.02,0.038 2.14,-5.148 -0.01,0.025 2.07,-6.388 -0.01,0.018 1.99,-7.525 -0.01,0.013 1.88,-8.558 v 0.011 l 1.76,-9.488 -0.01,0.01 1.62,-10.315 v 0.008 l 1.45,-11.037 v 0.007 l 1.28,-11.657 v 0.006 l 1.09,-12.174 v 0.007 l 0.87,-12.587 v 0.006 l 0.65,-12.897 v 0.01 l 0.54,-26.311 v 0.021 l -0.28,-6.61 v 0.028 l -0.84,-6.597 v 0.026 l -1.37,-6.571 v 0.025 l -1.89,-6.533 0.01,0.023 -2.4,-6.481 0.01,0.021 -2.88,-6.416 v 0.019 l -3.34,-6.339 0.01,0.017 -3.8,-6.248 0.01,0.016 -4.22,-6.145 0.01,0.014 -4.64,-6.029 0.01,0.013 -5.03,-5.899 0.01,0.012 -5.41,-5.758 0.02,0.016 -11.87,-11.038 0.02,0.019 -13.16,-10.315 0.02,0.016 -14.307,-9.488 0.022,0.013 -15.311,-8.558 0.022,0.012 -16.171,-7.525 0.023,0.009 -16.887,-6.388 0.024,0.008 -17.461,-5.149 0.025,0.007 -17.891,-3.806 0.02,0.004 -9.062,-1.367 0.014,0.002 -9.116,-0.992 0.015,0.001 -9.152,-0.605 0.015,10e-4 -3.837,-0.086 0.014,-0.666 3.845,0.085 9.166,0.606 9.129,0.994 9.078,1.369 17.913,3.81 17.485,5.156 16.911,6.397 16.193,7.535 15.332,8.57 14.329,9.502 13.18,10.331 11.89,11.055 5.42,5.772 5.04,5.912 4.65,6.043 4.24,6.16 3.8,6.265 3.36,6.357 2.89,6.436 2.4,6.503 1.91,6.556 1.38,6.597 0.84,6.624 0.29,6.634 -0.54,26.327 -0.65,12.905 -0.88,12.594 -1.08,12.18 -1.29,11.664 -1.45,11.045 -1.62,10.323 -1.75,9.498 -1.89,8.57 -1.98,7.54 -2.08,6.41 -2.16,5.181 -2.21,3.847 -0.12,0.143 z m 0.26,0.21 4.47,1.76 -8.85,1.287 4.28,-7.853 z m -170.718,-278.952 2.577,4.058 -7.909,-4.177 8.087,-3.821 z"
         id="path21" />
      <path
         d="M 0.340021,5.3231 1.16714,663.751 H 0.500473 L -0.326646,5.32394 Z M 0.00669981,5.33333 -3.98995,8.00502 0,0 4.01005,7.99497 Z"
         transform="matrix(-1,0,0,1,546.334,468.5)"
         id="path22" />
      <path
         d="m 545.5,1132.17 627.88,0.29 v 0.67 l -627.88,-0.3 z m 627.88,0.63 -2.66,-4 8,4 -8,4 z"
         id="path23" />
      <text
         font-family="'Calibri Light', 'Calibri Light_MSFontService', sans-serif"
         font-weight="300"
         font-size="13px"
         transform="translate(1187.84,1130)"
         id="text23">Object</text>
      <text
         font-family="'Calibri Light', 'Calibri Light_MSFontService', sans-serif"
         font-weight="300"
         font-size="13px"
         transform="translate(1187.84,1146)"
         id="text24">L</text>
      <text
         font-family="'Calibri Light', 'Calibri Light_MSFontService', sans-serif"
         font-weight="300"
         font-size="13px"
         transform="translate(1193.5,1146)"
         id="text25">ifetime</text>
      <text
         font-family="'Calibri Light', 'Calibri Light_MSFontService', sans-serif"
         font-weight="300"
         font-size="13px"
         transform="translate(528.189,441)"
         id="text26">Object</text>
      <text
         font-family="'Calibri Light', 'Calibri Light_MSFontService', sans-serif"
         font-weight="300"
         font-size="13px"
         transform="translate(530.023,457)"
         id="text27">S</text>
      <text
         font-family="'Calibri Light', 'Calibri Light_MSFontService', sans-serif"
         font-weight="300"
         font-size="13px"
         transform="translate(536.023,457)"
         id="text28">pace</text>
      <path
         d="M 0.0180294,-0.332845 2.68079,-0.18861 2.64473,0.47708 -0.0180294,0.332845 Z M 4.67787,-0.0804341 7.02422,0.046662 7.37132,0.101899 7.26655,0.760281 6.93653,0.707763 6.97089,0.711417 4.64181,0.585257 Z M 9.34647,0.416218 11.98,0.83531 11.8752,1.49369 9.24169,1.0746 Z m 4.60863,0.733412 0.0365,0.0058 2.576,0.67189 -0.1682,0.64509 -2.5604,-0.6678 0.0318,0.00665 -0.0204,-0.00325 z m 4.5478,1.18245 2.3441,0.6114 0.2584,0.09342 -0.2267,0.62695 -0.244,-0.08822 0.0292,0.00907 -2.3293,-0.60753 z M 22.9862,3.71695 25.494,4.62368 25.2673,5.25063 22.7595,4.3439 Z M 27.3748,5.30373 27.536,5.362 29.8261,6.42428 29.5455,7.02905 27.2687,5.97291 27.2956,5.98399 27.1482,5.93068 Z m 4.2656,1.96214 2.3638,1.09648 0.0773,0.04412 L 33.7511,8.9855 33.686,8.94834 33.7109,8.96121 31.3598,7.87064 Z m 4.1782,2.13178 2.3161,1.32155 -0.3304,0.5791 -2.3161,-1.32161 z m 4.0532,2.31275 0.3253,0.1856 1.9134,1.3114 -0.3769,0.5499 -1.9021,-1.3036 0.0233,0.0146 -0.3133,-0.1788 z m 3.8884,2.6277 2.1996,1.5076 -0.3769,0.5499 -2.1996,-1.5076 z m 3.7785,2.7786 2.069,1.6823 -0.4206,0.5173 -2.069,-1.6824 z m 3.6208,2.9441 0.3804,0.3094 1.5891,1.5271 -0.4619,0.4807 -1.5792,-1.5176 0.0207,0.0183 -0.3697,-0.3006 z m 3.4116,3.2223 1.9228,1.8477 -0.462,0.4807 -1.9227,-1.8477 z m 3.2678,3.3655 1.7584,2.0048 -0.5012,0.4396 -1.7584,-2.0048 z m 3.0772,3.5084 0.2126,0.2423 1.4001,1.9173 -0.5384,0.3932 -1.3913,-1.9053 0.0186,0.0232 -0.2028,-0.2311 z m 2.7921,3.7748 1.4206,1.9454 0.1478,0.249 -0.5733,0.3403 -0.1397,-0.2354 0.0174,0.0265 -1.4112,-1.9326 z m 2.5893,3.9141 1.3613,2.2931 -0.5733,0.3403 -1.3613,-2.293 z m 2.3693,4.0582 1.1198,2.4202 -0.605,0.2799 -1.1198,-2.4201 z m 1.9597,4.2353 0.6391,1.3811 0.3742,1.1211 -0.6323,0.2111 -0.3684,-1.1035 0.0137,0.0344 -0.6313,-1.3643 z m 1.6466,4.3993 0.8443,2.5295 -0.6324,0.2111 -0.8443,-2.5295 z m 1.3159,4.5117 0.5322,2.613 -0.6533,0.1331 -0.5321,-2.6131 z m 0.9313,4.5728 0.0281,0.1381 0.061,0.8793 -0.6651,0.0461 -0.0594,-0.8574 0.0059,0.0435 -0.0238,-0.1166 z m -0.2435,1.0405 3.8061,-2.9369 -3.4372,8.2575 L 70.102,58.28 Z"
         fill="#008080"
         transform="matrix(0,1,1,0,563.5,495.5)"
         id="path28" />
      <path
         d="M 0.034281,-0.331566 2.68681,-0.0573175 2.61825,0.605814 -0.034281,0.331566 Z M 4.71041,0.301804 5.3483,0.495564 5.15454,1.13345 4.51665,0.939693 Z M 7.26196,1.07684 7.88525,1.26616 9.73926,2.18917 9.44215,2.78597 7.61311,1.8754 7.66479,1.89594 7.0682,1.71473 Z m 4.26774,2.00367 0.2064,0.10278 0.398,0.27464 -0.3787,0.54868 -0.3784,-0.26116 0.0408,0.02406 -0.1853,-0.0922 z m 2.2504,1.51342 1.7053,1.17689 0.4754,0.4209 -0.4419,0.49914 -0.4604,-0.40756 0.0317,0.02477 -1.6888,-1.16546 z m 3.6781,2.92359 0.4991,0.44193 -0.4419,0.49914 -0.4991,-0.44193 z m 1.986,1.82759 1.8036,1.96429 -0.4911,0.4509 -1.8035,-1.9643 z m 3.1709,3.46439 0.4049,0.5296 -0.5297,0.4049 -0.4048,-0.5297 z m 1.6195,2.1186 1.6041,2.0985 0.0282,0.0437 -0.5604,0.3611 -0.0209,-0.0324 0.0153,0.0219 -1.596,-2.088 z m 2.7155,3.8235 0.3611,0.5604 -0.5604,0.3611 -0.3611,-0.5604 z m 1.4443,2.2416 0.5009,0.7774 0.8455,1.5508 -0.5853,0.3192 -0.8397,-1.5402 0.0124,0.021 -0.4942,-0.7671 z m 2.3037,4.0842 0.3191,0.5854 -0.5853,0.3191 -0.3191,-0.5854 z m 1.2516,2.3793 1.1135,2.4231 -0.6057,0.2784 -1.1135,-2.4231 z m 1.9486,4.2404 0.2784,0.6058 -0.6058,0.2783 -0.2783,-0.6057 z m 0.9571,2.5209 0.872,2.5201 -0.63,0.218 -0.872,-2.5201 z m 1.526,4.4102 0.218,0.63 -0.6301,0.218 -0.2179,-0.63 z m 0.872,2.52 0.8719,2.5201 -0.63,0.218 -0.872,-2.5201 z m 1.4152,4.4757 0.1571,0.6479 -0.6479,0.1571 -0.1571,-0.6479 z m 0.6283,2.5916 0.5846,2.4118 0.0356,0.2035 -0.6567,0.1149 -0.0337,-0.1929 0.0044,0.0211 -0.5821,-2.4013 z m 0.9648,4.5854 0.1148,0.6567 -0.6567,0.1149 -0.1148,-0.6567 z m 0.4593,2.6268 0.2869,1.6406 0.1086,1.0177 -0.6629,0.0708 -0.1074,-1.0067 0.0031,0.0221 -0.285,-1.6296 z m 0.6077,4.647 0.0707,0.6629 -0.6629,0.0708 -0.0707,-0.6629 z m 0.2829,2.6516 0.0946,0.887 0.0653,1.7968 -0.6662,0.0242 -0.0649,-1.7852 0.0017,0.0233 -0.0934,-0.8753 z m 0.2325,4.6825 0.0242,0.6662 -0.6662,0.0242 -0.0242,-0.6662 z m 0.0968,2.6649 0.0049,0.1367 -0.0873,2.5519 -0.6662,-0.0228 0.0869,-2.5402 v 0.0235 l -0.0046,-0.1249 z m -0.1507,4.6875 -0.0228,0.6662 -0.6663,-0.0228 0.0228,-0.6662 z m -0.1342,2.6842 -0.2666,2.6533 -0.6633,-0.0666 0.2666,-2.6534 z m -0.4666,4.6433 -0.0666,0.6633 -0.6633,-0.0666 0.0666,-0.6634 z m -0.3574,2.6625 -0.4334,2.6312 -0.6578,-0.1084 0.4334,-2.6312 z m -0.7584,4.6046 -0.0716,0.4345 -0.0549,0.2405 -0.6499,-0.1484 0.0526,-0.2305 -0.0039,0.02 0.0699,-0.4244 z m -0.5716,2.6249 -0.5936,2.5997 -0.6499,-0.1484 0.5935,-2.5997 z m -1.0884,4.5671 -0.2066,0.6339 -0.6338,-0.2066 0.2065,-0.6338 z m -0.8262,2.5355 -0.8263,2.5357 -0.6338,-0.207 0.8262,-2.5353 z m -1.4459,4.4367 -0.2066,0.634 -0.6338,-0.206 0.2065,-0.634 z m -0.8263,2.536 -0.6241,1.915 -0.2714,0.627 -0.6119,-0.265 0.2653,-0.612 -0.011,0.029 0.6193,-1.901 z m -1.6899,4.378 -0.2648,0.612 -0.6118,-0.265 0.2648,-0.612 z m -1.0591,2.447 -0.2633,0.608 -0.9253,1.802 -0.5931,-0.304 0.9204,-1.793 -0.0094,0.02 0.2588,-0.598 z m -2.1021,4.19 -0.3045,0.593 -0.5931,-0.305 0.3045,-0.593 z m -1.2861,2.361 -1.3834,2.28 -0.5699,-0.346 1.3834,-2.28 z m -2.4388,4.009 -0.3895,0.541 -0.5411,-0.389 0.3895,-0.541 z m -1.558,2.164 -1.486,2.064 -0.1001,0.116 -0.5043,-0.436 0.0904,-0.104 -0.0184,0.023 1.4773,-2.052 z m -2.8943,3.693 -0.436,0.504 -0.5043,-0.436 0.4361,-0.504 z m -1.7442,2.017 -0.1072,0.124 -1.8486,1.738 -0.4566,-0.486 1.836,-1.726 -0.0238,0.025 0.0959,-0.111 z m -3.413,3.232 -0.1038,0.098 -0.4557,0.333 -0.394,-0.537 0.4392,-0.322 -0.0313,0.026 0.089,-0.084 z m -2.1727,1.614 -1.4643,1.073 -0.7957,0.42 -0.3116,-0.589 0.7742,-0.409 -0.0413,0.025 1.4447,-1.058 z m -4.0282,2.428 -0.5894,0.311 -0.3115,-0.589 0.5893,-0.311 z m -2.51175,1.03 -0.63795,0.206 -0.20464,-0.635 0.63795,-0.206 z m -0.74027,-0.112 3.31272,3.484 -8.56714,-2.57 7.19607,-5.312 z"
         fill="#920000"
         transform="matrix(1,0,0,-1,872.5,758.921)"
         id="path29" />
      <path
         d="m 733.5,714.667 c 0,-2.301 1.866,-4.167 4.167,-4.167 h 58.666 c 2.302,0 4.167,1.866 4.167,4.167 v 16.666 c 0,2.302 -1.865,4.167 -4.167,4.167 h -58.666 c -2.301,0 -4.167,-1.865 -4.167,-4.167 z"
         stroke="#000000"
         stroke-width="0.666667"
         stroke-miterlimit="8"
         fill="#ffffff"
         fill-rule="evenodd"
         id="path30" />
      <text
         font-family="'Calibri Light', 'Calibri Light_MSFontService', sans-serif"
         font-weight="300"
         font-size="13px"
         transform="translate(748.325,726)"
         id="text30">Extend</text>
      <path
         d="m 698.5,584.5 c 0,-2.761 2.239,-5 5,-5 h 38 c 2.761,0 5,2.239 5,5 v 20 c 0,2.761 -2.239,5 -5,5 h -38 c -2.761,0 -5,-2.239 -5,-5 z"
         stroke="#454545"
         stroke-width="0.666667"
         stroke-miterlimit="8"
         fill="#f2f2f2"
         fill-rule="evenodd"
         id="path31" />
      <text
         fill="#454545"
         font-family="'Calibri Light', 'Calibri Light_MSFontService', sans-serif"
         font-weight="300"
         font-size="12px"
         transform="translate(701.781,591)"
         id="text31">assign &amp;</text>
      <text
         fill="#454545"
         font-family="'Calibri Light', 'Calibri Light_MSFontService', sans-serif"
         font-weight="300"
         font-size="12px"
         transform="translate(702.362,606)"
         id="text32">position</text>
      <path
         d="m 629.5,561.667 c 0,-2.301 1.866,-4.167 4.167,-4.167 h 93.666 c 2.302,0 4.167,1.866 4.167,4.167 v 16.666 c 0,2.302 -1.865,4.167 -4.167,4.167 h -93.666 c -2.301,0 -4.167,-1.865 -4.167,-4.167 z"
         stroke="#000000"
         stroke-width="0.666667"
         stroke-miterlimit="8"
         fill="#ffffff"
         fill-rule="evenodd"
         id="path32" />
      <text
         font-family="'Calibri Light', 'Calibri Light_MSFontService', sans-serif"
         font-weight="300"
         font-size="13px"
         transform="translate(636.382,573)"
         id="text33">Initialize Pointer</text>
      <path
         d="m 740.5,921.833 c 0,-1.288 1.045,-2.333 2.333,-2.333 h 47.334 c 1.288,0 2.333,1.045 2.333,2.333 v 9.334 c 0,1.288 -1.045,2.333 -2.333,2.333 h -47.334 c -1.288,0 -2.333,-1.045 -2.333,-2.333 z"
         stroke="#454545"
         stroke-width="0.666667"
         stroke-miterlimit="8"
         fill="#f2f2f2"
         fill-rule="evenodd"
         id="path33" />
      <text
         fill="#454545"
         font-family="'Calibri Light', 'Calibri Light_MSFontService', sans-serif"
         font-weight="300"
         font-size="12px"
         transform="translate(742.616,930)"
         id="text34">first write</text>
      <path
         d="m 771.5,569.667 c 0,-2.301 1.866,-4.167 4.167,-4.167 h 58.666 c 2.302,0 4.167,1.866 4.167,4.167 v 16.666 c 0,2.302 -1.865,4.167 -4.167,4.167 h -58.666 c -2.301,0 -4.167,-1.865 -4.167,-4.167 z"
         stroke="#000000"
         stroke-width="0.666667"
         stroke-miterlimit="8"
         fill="#ffffff"
         fill-rule="evenodd"
         id="path34" />
      <text
         font-family="'Calibri Light', 'Calibri Light_MSFontService', sans-serif"
         font-weight="300"
         font-size="13px"
         transform="translate(780.693,581)"
         id="text35">Reassign</text>
      <path
         d="m 899.5,1050.67 c 0,-2.3 1.866,-4.17 4.167,-4.17 h 58.666 c 2.302,0 4.167,1.87 4.167,4.17 v 16.66 c 0,2.3 -1.865,4.17 -4.167,4.17 h -58.666 c -2.301,0 -4.167,-1.87 -4.167,-4.17 z"
         stroke="#000000"
         stroke-width="0.666667"
         stroke-miterlimit="8"
         fill="#ffffff"
         fill-rule="evenodd"
         id="path35" />
      <text
         font-family="'Calibri Light', 'Calibri Light_MSFontService', sans-serif"
         font-weight="300"
         font-size="13px"
         transform="translate(912.167,1062)"
         id="text36">Reduce</text>
      <path
         d="m 762.5,750.667 c 0,-2.301 1.866,-4.167 4.167,-4.167 h 101.666 c 2.302,0 4.167,1.866 4.167,4.167 v 16.666 c 0,2.302 -1.865,4.167 -4.167,4.167 H 766.667 c -2.301,0 -4.167,-1.865 -4.167,-4.167 z"
         stroke="#000000"
         stroke-width="0.666667"
         stroke-miterlimit="8"
         fill="#ffffff"
         fill-rule="evenodd"
         id="path36" />
      <text
         font-family="'Calibri Light', 'Calibri Light_MSFontService', sans-serif"
         font-weight="300"
         font-size="13px"
         transform="translate(768.311,763)"
         id="text37">Reallocate</text>
      <text
         font-family="'Calibri Light', 'Calibri Light_MSFontService', sans-serif"
         font-weight="300"
         font-size="13px"
         transform="translate(824.478,763)"
         id="text38">-</text>
      <text
         font-family="'Calibri Light', 'Calibri Light_MSFontService', sans-serif"
         font-weight="300"
         font-size="13px"
         transform="translate(828.478,763)"
         id="text39">Extend</text>
      <path
         d="m 1071.5,1082.67 c 0,-2.3 1.87,-4.17 4.17,-4.17 h 58.66 c 2.3,0 4.17,1.87 4.17,4.17 v 16.66 c 0,2.3 -1.87,4.17 -4.17,4.17 h -58.66 c -2.3,0 -4.17,-1.87 -4.17,-4.17 z"
         stroke="#000000"
         stroke-width="0.666667"
         stroke-miterlimit="8"
         fill="#ffffff"
         fill-rule="evenodd"
         id="path39" />
      <text
         font-family="'Calibri Light', 'Calibri Light_MSFontService', sans-serif"
         font-weight="300"
         font-size="13px"
         transform="translate(1075.68,1094)"
         id="text40">Deallocate</text>
      <path
         d="m 831.5,629.333 c 0,-1.564 1.269,-2.833 2.833,-2.833 h 48.334 c 1.565,0 2.833,1.269 2.833,2.833 v 11.334 c 0,1.565 -1.268,2.833 -2.833,2.833 h -48.334 c -1.564,0 -2.833,-1.268 -2.833,-2.833 z"
         stroke="#454545"
         stroke-width="0.666667"
         stroke-miterlimit="8"
         fill="#f2f2f2"
         fill-rule="evenodd"
         id="path40" />
      <text
         fill="#454545"
         font-family="'Calibri Light', 'Calibri Light_MSFontService', sans-serif"
         font-weight="300"
         font-size="12px"
         transform="translate(833.766,638)"
         id="text41">++,</text>
      <text
         fill="#454545"
         font-family="'Calibri Light', 'Calibri Light_MSFontService', sans-serif"
         font-weight="300"
         font-size="12px"
         transform="translate(851.433,638)"
         id="text42">--</text>
      <text
         fill="#454545"
         font-family="'Calibri Light', 'Calibri Light_MSFontService', sans-serif"
         font-weight="300"
         font-size="12px"
         transform="translate(858.766,638)"
         id="text43">, etc.</text>
      <path
         d="m 630.5,715.667 c 0,-2.301 1.866,-4.167 4.167,-4.167 h 58.666 c 2.302,0 4.167,1.866 4.167,4.167 v 16.666 c 0,2.302 -1.865,4.167 -4.167,4.167 h -58.666 c -2.301,0 -4.167,-1.865 -4.167,-4.167 z"
         stroke="#000000"
         stroke-width="0.666667"
         stroke-miterlimit="8"
         fill="#ffffff"
         fill-rule="evenodd"
         id="path43" />
      <text
         font-family="'Calibri Light', 'Calibri Light_MSFontService', sans-serif"
         font-weight="300"
         font-size="13px"
         transform="translate(641.511,727)"
         id="text44">Allocate</text>
      <path
         d="m 806.5,605.667 c 0,-2.301 1.866,-4.167 4.167,-4.167 h 58.666 c 2.302,0 4.167,1.866 4.167,4.167 v 16.666 c 0,2.302 -1.865,4.167 -4.167,4.167 h -58.666 c -2.301,0 -4.167,-1.865 -4.167,-4.167 z"
         stroke="#000000"
         stroke-width="0.666667"
         stroke-miterlimit="8"
         fill="#ffffff"
         fill-rule="evenodd"
         id="path44" />
      <text
         font-family="'Calibri Light', 'Calibri Light_MSFontService', sans-serif"
         font-weight="300"
         font-size="13px"
         transform="translate(811.194,618)"
         id="text45">Reposition</text>
      <path
         d="m 970.5,921.833 c 0,-1.288 1.045,-2.333 2.333,-2.333 h 47.337 c 1.29,0 2.33,1.045 2.33,2.333 v 9.334 c 0,1.288 -1.04,2.333 -2.33,2.333 h -47.337 c -1.288,0 -2.333,-1.045 -2.333,-2.333 z"
         stroke="#454545"
         stroke-width="0.666667"
         stroke-miterlimit="8"
         fill="#f2f2f2"
         fill-rule="evenodd"
         id="path45" />
      <text
         fill="#454545"
         font-family="'Calibri Light', 'Calibri Light_MSFontService', sans-serif"
         font-weight="300"
         font-size="13px"
         transform="translate(970.933,930)"
         id="text46">last write</text>
      <path
         d="m 953.5,901.667 c 0,-2.301 1.866,-4.167 4.167,-4.167 h 49.663 c 2.3,0 4.17,1.866 4.17,4.167 v 16.666 c 0,2.302 -1.87,4.167 -4.17,4.167 h -49.663 c -2.301,0 -4.167,-1.865 -4.167,-4.167 z"
         stroke="#000000"
         stroke-width="0.666667"
         stroke-miterlimit="8"
         fill="#ffffff"
         fill-rule="evenodd"
         id="path46" />
      <text
         font-family="'Calibri Light', 'Calibri Light_MSFontService', sans-serif"
         font-weight="300"
         font-size="13px"
         transform="translate(968.197,914)"
         id="text47">Clear</text>
      <path
         d="M 0.00590183,-0.333281 21.6585,0.0501483 43.1472,1.16809 l 21.1497,1.80339 20.6417,2.4399 19.9644,3.02751 19.118,3.56631 18.103,4.0562 16.917,4.497 7.965,2.3995 7.603,2.4912 7.223,2.5773 6.822,2.6574 6.399,2.7315 5.956,2.7999 5.492,2.8624 5.007,2.9193 4.501,2.9707 3.974,3.017 3.426,3.0587 2.857,3.096 2.266,3.1298 1.651,3.1598 0.332,1.0453 -0.636,0.2016 -0.322,-1.0175 0.022,0.0535 -1.626,-3.1124 0.025,0.0411 -2.24,-3.0942 0.025,0.0306 -2.833,-3.0696 0.023,0.0226 -3.404,-3.0391 0.02,0.0168 -3.955,-3.0024 0.018,0.0127 -4.484,-2.9595 0.016,0.0097 -4.992,-2.9106 0.014,0.0076 -5.479,-2.8555 0.013,0.006 -5.945,-2.7944 0.011,0.0049 -6.389,-2.7271 0.01,0.004 -6.812,-2.6537 0.009,0.0033 -7.215,-2.5742 0.009,0.0029 -7.596,-2.4886 0.008,0.0024 -7.956,-2.3968 0.011,0.003 -16.905,-4.4939 0.012,0.0031 -18.091,-4.0535 0.012,0.0024 -19.107,-3.56411 0.012,0.00188 L 84.8441,6.07133 84.8549,6.07279 64.2241,3.63417 64.2349,3.63527 43.0961,1.83282 43.1071,1.83357 21.6295,0.716211 21.641,0.716609 -0.00590183,0.333281 Z M 230.197,61.575 l 3.427,-3.3718 -2.423,8.6098 -5.434,-7.1043 z"
         fill="#0000ff"
         transform="matrix(0,1,1,0,563.5,492.5)"
         id="path47" />
      <path
         d="m 545.5,1090.5 c -4.971,0 -9,-9.53 -9,-21.29 V 928.681 c 0,-11.759 -4.029,-21.292 -9,-21.292 4.971,0 9,-9.533 9,-21.292 V 744.792 c 0,-11.759 4.03,-21.292 9,-21.292"
         stroke="#454545"
         stroke-width="0.666667"
         stroke-miterlimit="8"
         fill="none"
         fill-rule="evenodd"
         id="path48" />
      <path
         d="m 653.833,582.499 0.01,2.667 -0.667,0.002 -0.009,-2.667 z m 0.017,4.667 0.009,2.666 -0.667,0.003 -0.009,-2.667 z m 0.016,4.666 0.009,2.667 -0.667,0.002 -0.009,-2.667 z m 0.016,4.667 0.009,2.666 -0.666,0.003 -0.01,-2.667 z m 0.016,4.666 0.009,2.667 -0.666,0.002 -0.01,-2.666 z m 0.016,4.667 0.01,2.667 -0.667,0.002 -0.009,-2.667 z m 0.016,4.667 0.01,2.666 -0.667,0.003 -0.009,-2.667 z m 0.017,4.666 0.009,2.667 -0.667,0.002 -0.009,-2.666 z m 0.016,4.667 0.009,2.667 -0.667,0.002 -0.009,-2.667 z m 0.016,4.667 0.009,2.666 -0.666,0.003 -0.01,-2.667 z m 0.016,4.666 0.009,2.667 -0.666,0.002 -0.009,-2.666 z m 0.016,4.667 0.01,2.667 -0.667,0.002 -0.009,-2.667 z m 0.017,4.667 0.009,2.666 -0.667,0.003 -0.009,-2.667 z m 0.016,4.666 0.009,2.667 -0.667,0.002 -0.009,-2.667 z m 0.016,4.667 0.009,2.666 -0.666,0.003 -0.01,-2.667 z m 0.016,4.666 0.009,2.667 -0.666,0.002 -0.01,-2.666 z m 0.016,4.667 0.01,2.667 -0.667,0.002 -0.009,-2.667 z m 0.017,4.667 0.009,2.666 -0.667,0.003 -0.009,-2.667 z m 0.016,4.666 0.009,2.667 -0.667,0.002 -0.009,-2.666 z m 0.016,4.667 0.009,2.667 -0.667,0.002 -0.009,-2.667 z m 0.016,4.667 0.009,2.666 -0.666,0.003 -0.01,-2.667 z m 0.016,4.666 0.009,2.667 -0.666,0.002 -0.009,-2.666 z m 0.016,4.667 0.01,2.667 -0.667,0.002 -0.009,-2.667 z m 0.017,4.667 0.009,2.666 -0.667,0.003 -0.009,-2.667 z m 0.016,4.666 0.009,2.667 -0.667,0.002 -0.009,-2.666 z m 0.016,4.667 0.009,2.667 -0.666,0.002 -0.01,-2.667 z m 0.016,4.667 0.009,2.666 -0.666,0.002 -0.01,-2.666 z m -0.323,2.882 3.991,-2.681 -3.973,8.014 -4.027,-7.986 z"
         fill="#008080"
         id="path49" />
      <path
         d="m 862.5,883.667 c 0,-2.301 1.866,-4.167 4.167,-4.167 h 58.666 c 2.302,0 4.167,1.866 4.167,4.167 v 16.666 c 0,2.302 -1.865,4.167 -4.167,4.167 h -58.666 c -2.301,0 -4.167,-1.865 -4.167,-4.167 z"
         stroke="#000000"
         stroke-width="0.666667"
         stroke-miterlimit="8"
         fill="#ffffff"
         fill-rule="evenodd"
         id="path50" />
      <text
         font-family="'Calibri Light', 'Calibri Light_MSFontService', sans-serif"
         font-weight="300"
         font-size="13px"
         transform="translate(879.978,896)"
         id="text50">Write</text>
      <path
         d="m 747.5,901.667 c 0,-2.301 1.866,-4.167 4.167,-4.167 h 80.666 c 2.302,0 4.167,1.866 4.167,4.167 v 16.666 c 0,2.302 -1.865,4.167 -4.167,4.167 h -80.666 c -2.301,0 -4.167,-1.865 -4.167,-4.167 z"
         stroke="#000000"
         stroke-width="0.666667"
         stroke-miterlimit="8"
         fill="#ffffff"
         fill-rule="evenodd"
         id="path51" />
      <text
         font-family="'Calibri Light', 'Calibri Light_MSFontService', sans-serif"
         font-weight="300"
         font-size="13px"
         transform="translate(750.08,913)"
         id="text51">Initialize Object</text>
      <path
         d="m 845.5,839.667 c 0,-2.301 1.866,-4.167 4.167,-4.167 h 76.666 c 2.302,0 4.167,1.866 4.167,4.167 v 16.666 c 0,2.302 -1.865,4.167 -4.167,4.167 h -76.666 c -2.301,0 -4.167,-1.865 -4.167,-4.167 z"
         stroke="#bfbfbf"
         stroke-width="0.666667"
         stroke-miterlimit="8"
         fill="#ffffff"
         fill-rule="evenodd"
         id="path52" />
      <text
         font-family="'Calibri Light', 'Calibri Light_MSFontService', sans-serif"
         font-weight="300"
         font-size="13px"
         transform="translate(854.177,852)"
         id="text52">Dereference</text>
      <text
         font-family="'Calibri Light', 'Calibri Light_MSFontService', sans-serif"
         font-weight="300"
         font-size="13px"
         transform="translate(493.143,720)"
         id="text53">Upper</text>
      <text
         font-family="'Calibri Light', 'Calibri Light_MSFontService', sans-serif"
         font-weight="300"
         font-size="13px"
         transform="translate(492.477,736)"
         id="text54">B</text>
      <text
         font-family="'Calibri Light', 'Calibri Light_MSFontService', sans-serif"
         font-weight="300"
         font-size="13px"
         transform="translate(499.643,736)"
         id="text55">ound</text>
      <text
         font-family="'Calibri Light', 'Calibri Light_MSFontService', sans-serif"
         font-weight="300"
         font-size="13px"
         transform="translate(494.267,1083)"
         id="text56">L</text>
      <text
         font-family="'Calibri Light', 'Calibri Light_MSFontService', sans-serif"
         font-weight="300"
         font-size="13px"
         transform="translate(499.933,1083)"
         id="text57">ower</text>
      <text
         font-family="'Calibri Light', 'Calibri Light_MSFontService', sans-serif"
         font-weight="300"
         font-size="13px"
         transform="translate(493.347,1099)"
         id="text58">B</text>
      <text
         font-family="'Calibri Light', 'Calibri Light_MSFontService', sans-serif"
         font-weight="300"
         font-size="13px"
         transform="translate(500.513,1099)"
         id="text59">ound</text>
      <path
         d="m 713.569,896.826 -2.247,0.478 0.108,-0.043 -2.23,1.393 0.062,-0.05 -2.194,2.247 0.034,-0.041 -2.142,3.041 -2.051,3.741 -1.971,4.419 -1.87,5.034 -1.75,5.586 -1.61,6.077 -1.453,6.505 -2.363,14.056 -1.521,15.028 -0.537,15.515 0.285,3.868 0.84,3.849 1.376,3.839 1.897,3.822 2.402,3.797 2.889,3.763 3.359,3.72 3.811,3.68 4.247,3.61 4.662,3.55 5.062,3.48 5.441,3.39 11.958,6.51 13.255,6.08 14.413,5.59 15.427,5.05 16.295,4.44 17.018,3.77 17.596,3.03 18.031,2.25 18.319,1.39 11.798,0.31 -0.018,0.66 -11.831,-0.3 -18.351,-1.4 -18.061,-2.25 -17.627,-3.04 -17.05,-3.78 -16.327,-4.45 -15.46,-5.06 -14.45,-5.61 -13.296,-6.1 -11.991,-6.53 -5.467,-3.4 -5.087,-3.5 -4.692,-3.57 -4.276,-3.64 -3.844,-3.71 -3.393,-3.76 -2.924,-3.817 -2.435,-3.857 -1.928,-3.893 -1.4,-3.923 -0.853,-3.942 -0.287,-3.939 0.541,-15.56 1.526,-15.071 2.371,-14.09 1.459,-6.531 1.618,-6.105 1.761,-5.62 1.886,-5.073 1.995,-4.468 2.091,-3.804 2.142,-3.041 c 0.01,-0.014 0.021,-0.028 0.034,-0.041 l 2.194,-2.247 c 0.019,-0.019 0.039,-0.036 0.062,-0.05 l 2.229,-1.393 c 0.033,-0.02 0.07,-0.035 0.108,-0.043 l 2.247,-0.478 z m 165.408,162.074 7.893,4.2 -8.1,3.79 z"
         id="path59" />
      <path
         d="m 662.89,587.829 1.319,123.619 -0.667,0.007 -1.318,-123.618 z m -0.333,0.004 -3.971,2.709 3.914,-8.042 4.085,7.957 z"
         fill="#3333cc"
         id="path60" />
      <path
         d="M 0.00331219,-0.333317 30.6705,-0.0285751 61.1043,0.85984 91.058,2.29301 l 29.234,1.93902 28.274,2.40598 27.076,2.83406 13.014,1.56563 12.624,1.6579 12.203,1.7454 11.754,1.8283 11.275,1.9061 10.765,1.9792 10.226,2.0475 9.657,2.1109 9.058,2.1695 8.428,2.2234 7.771,2.2725 7.082,2.317 6.364,2.3571 5.618,2.3927 4.842,2.4247 4.037,2.4535 3.204,2.4812 c 0.015,0.011 0.028,0.0231 0.04,0.0363 l 2.292,2.4609 -0.488,0.4543 -2.292,-2.4609 0.04,0.0363 -3.143,-2.4384 -3.989,-2.4272 -4.804,-2.4073 -5.588,-2.381 -6.34,-2.3486 -7.062,-2.3108 -7.754,-2.2677 -8.414,-2.2197 -9.045,-2.1665 -9.645,-2.1085 L 247.157,20.8103 236.401,18.8328 225.135,16.928 213.389,15.101 201.193,13.3566 188.577,11.6996 175.572,10.1351 148.51,7.30228 120.248,4.89724 91.0261,2.95892 61.0848,1.52622 30.6639,0.638059 -0.00331219,0.333317 Z M 325.652,48.1289 l 2.794,-3.9121 -0.902,8.8987 -6.578,-6.061 z"
         fill="#0000ff"
         transform="matrix(0,1,1,0,694.5,582.5)"
         id="path61" />
      <text
         font-family="'Calibri Light', 'Calibri Light_MSFontService', sans-serif"
         font-weight="300"
         font-size="13px"
         transform="translate(636.034,1149)"
         id="text61">C</text>
      <text
         font-family="'Calibri Light', 'Calibri Light_MSFontService', sans-serif"
         font-weight="300"
         font-size="13px"
         transform="translate(643.201,1149)"
         id="text62">reate</text>
      <text
         font-family="'Calibri Light', 'Calibri Light_MSFontService', sans-serif"
         font-weight="300"
         font-size="13px"
         transform="translate(636.034,1165)"
         id="text63">Object</text>
      <text
         font-family="'Calibri Light', 'Calibri Light_MSFontService', sans-serif"
         font-weight="300"
         font-size="13px"
         transform="translate(849.393,1165)"
         id="text64">Object</text>
      <text
         font-family="'Calibri Light', 'Calibri Light_MSFontService', sans-serif"
         font-weight="300"
         font-size="13px"
         transform="translate(887.726,1165)"
         id="text65">I</text>
      <text
         font-family="'Calibri Light', 'Calibri Light_MSFontService', sans-serif"
         font-weight="300"
         font-size="13px"
         transform="translate(891.059,1165)"
         id="text66">n</text>
      <text
         font-family="'Calibri Light', 'Calibri Light_MSFontService', sans-serif"
         font-weight="300"
         font-size="13px"
         transform="translate(901.059,1165)"
         id="text67">U</text>
      <text
         font-family="'Calibri Light', 'Calibri Light_MSFontService', sans-serif"
         font-weight="300"
         font-size="13px"
         transform="translate(909.559,1165)"
         id="text68">se</text>
      <text
         font-family="'Calibri Light', 'Calibri Light_MSFontService', sans-serif"
         font-weight="300"
         font-size="13px"
         transform="translate(1073.95,1148)"
         id="text69">D</text>
      <text
         font-family="'Calibri Light', 'Calibri Light_MSFontService', sans-serif"
         font-weight="300"
         font-size="13px"
         transform="translate(1082.12,1148)"
         id="text70">estroy</text>
      <text
         font-family="'Calibri Light', 'Calibri Light_MSFontService', sans-serif"
         font-weight="300"
         font-size="13px"
         transform="translate(1080.45,1164)"
         id="text71">Object</text>
      <path
         d="m 1045.5,1132.5 c 0,4.97 -9.53,9 -21.29,9 H 907.63 c -11.759,0 -21.292,4.03 -21.292,9 0,-4.97 -9.533,-9 -21.292,-9 H 747.792 c -11.759,0 -21.292,-4.03 -21.292,-9"
         stroke="#454545"
         stroke-width="0.666667"
         stroke-miterlimit="8"
         fill="none"
         fill-rule="evenodd"
         id="path71" />
      <path
         d="m 927.5,1083.67 c 0,-2.3 1.866,-4.17 4.167,-4.17 h 102.663 c 2.3,0 4.17,1.87 4.17,4.17 v 16.66 c 0,2.3 -1.87,4.17 -4.17,4.17 H 931.667 c -2.301,0 -4.167,-1.87 -4.167,-4.17 z"
         stroke="#000000"
         stroke-width="0.666667"
         stroke-miterlimit="8"
         fill="#ffffff"
         fill-rule="evenodd"
         id="path72" />
      <text
         font-family="'Calibri Light', 'Calibri Light_MSFontService', sans-serif"
         font-weight="300"
         font-size="13px"
         transform="translate(932.123,1096)"
         id="text72">Reallocate</text>
      <text
         font-family="'Calibri Light', 'Calibri Light_MSFontService', sans-serif"
         font-weight="300"
         font-size="13px"
         transform="translate(988.29,1096)"
         id="text73">-</text>
      <text
         font-family="'Calibri Light', 'Calibri Light_MSFontService', sans-serif"
         font-weight="300"
         font-size="13px"
         transform="translate(992.29,1096)"
         id="text74">Reduce</text>
      <text
         font-family="'Calibri Light', 'Calibri Light_MSFontService', sans-serif"
         font-weight="300"
         font-size="13px"
         transform="translate(482.94,890)"
         id="text75">Object</text>
      <text
         font-family="'Calibri Light', 'Calibri Light_MSFontService', sans-serif"
         font-weight="300"
         font-size="13px"
         transform="translate(490.193,906)"
         id="text76">Size</text>
      <text
         font-family="'Calibri Light', 'Calibri Light_MSFontService', sans-serif"
         font-weight="300"
         font-size="13px"
         transform="translate(776.609,429)"
         id="text77">Memory (_MEM) Bugs Model</text>
      <text
         fill="#7f7f7f"
         font-family="'Calibri Light', 'Calibri Light_MSFontService', sans-serif"
         font-weight="300"
         font-size="12px"
         transform="translate(552.58,1120)"
         id="text78">BF, I. Bojanova</text>
      <text
         font-family="'Calibri Light', 'Calibri Light_MSFontService', sans-serif"
         font-weight="300"
         font-size="13px"
         transform="rotate(51.549971,-184.23845,1474.777)"
         id="text79">A</text>
      <text
         font-family="'Calibri Light', 'Calibri Light_MSFontService', sans-serif"
         font-weight="300"
         font-size="13px"
         transform="rotate(51.549971,-188.11617,1482.6126)"
         id="text80">ll</text>
      <text
         font-family="'Calibri Light', 'Calibri Light_MSFontService', sans-serif"
         font-weight="300"
         font-size="13px"
         transform="rotate(51.549971,-192.56935,1491.9008)"
         id="text81">O</text>
      <text
         font-family="'Calibri Light', 'Calibri Light_MSFontService', sans-serif"
         font-weight="300"
         font-size="13px"
         transform="rotate(51.549971,-197.12252,1500.9818)"
         id="text82">wners</text>
      <path
         d="m 5.33592,-0.315974 3.40221,0.026687 1.62717,0.021351 1.2562,0.023861 0.8186,0.025837 0.2954,0.027202 0.2854,0.026279 -0.0201,-0.001238 0.8065,0.025454 -0.0042,-1.06e-4 1.2531,0.023803 -0.0019,-3.1e-5 1.6253,0.0213263 -0.0018,-1.85e-5 3.4014,0.0266796 L 20.0739,0.597759 16.6717,0.571072 15.0445,0.549721 13.7883,0.52586 12.9697,0.500022 12.6744,0.472821 12.389,0.446541 12.4091,0.44778 11.6026,0.422326 l 0.0042,1.06e-4 -1.2532,-0.023803 0.002,3.1e-5 -1.62533,-0.021326 0.00176,1.8e-5 -3.40134,-0.02668 z M 5.3333,0.0173493 7.98695,4.026 0,0 8.01297,-3.97395 Z m 14.7433,0.2470857 -2.6537,-4.008655 7.987,4.026005 -8.013,3.973955 z"
         transform="matrix(0,-1,-1,0,895.782,929.91)"
         id="path82" />
      <text
         font-family="'Calibri Light', 'Calibri Light_MSFontService', sans-serif"
         font-weight="300"
         font-size="13px"
         transform="rotate(15.377411,-2139.8884,3758.4623)"
         id="text83">A</text>
      <text
         font-family="'Calibri Light', 'Calibri Light_MSFontService', sans-serif"
         font-weight="300"
         font-size="13px"
         transform="rotate(15.377411,-2143.6796,3786.2466)"
         id="text84">ll</text>
      <text
         font-family="'Calibri Light', 'Calibri Light_MSFontService', sans-serif"
         font-weight="300"
         font-size="13px"
         transform="rotate(15.377411,-2197.5636,3750.248)"
         id="text85">O</text>
      <text
         font-family="'Calibri Light', 'Calibri Light_MSFontService', sans-serif"
         font-weight="300"
         font-size="13px"
         transform="rotate(15.377411,-2200.7922,3782.1988)"
         id="text86">wners</text>
      <path
         d="m 836.551,909.171 2.413,0.374 c 0.029,0.005 0.059,0.013 0.086,0.026 l 2.337,1.058 c 0.022,0.01 0.043,0.023 0.063,0.037 l 2.185,1.645 c 0.016,0.012 0.031,0.026 0.045,0.041 l 1.958,2.132 c 0.012,0.014 0.023,0.028 0.033,0.043 l 1.654,2.523 c 0.01,0.015 0.018,0.03 0.025,0.046 l 1.276,2.816 c 0.007,0.016 0.013,0.033 0.018,0.05 l 0.821,3.012 c 0.005,0.018 0.008,0.037 0.01,0.056 l 0.291,3.11 0.29,3.11 -0.01,-0.057 0.821,3.012 -0.018,-0.05 1.276,2.816 -0.025,-0.045 1.654,2.523 -0.033,-0.042 1.958,2.133 -0.045,-0.041 1.869,1.406 -0.401,0.533 -1.869,-1.407 c -0.016,-0.012 -0.031,-0.026 -0.045,-0.041 l -1.958,-2.132 c -0.012,-0.014 -0.023,-0.028 -0.033,-0.043 l -1.655,-2.523 c -0.009,-0.015 -0.018,-0.03 -0.025,-0.046 l -1.275,-2.816 c -0.008,-0.016 -0.014,-0.033 -0.018,-0.05 l -0.821,-3.012 c -0.005,-0.018 -0.009,-0.037 -0.011,-0.056 l -0.29,-3.11 -0.291,-3.11 0.011,0.057 -0.821,-3.012 0.018,0.05 -1.276,-2.816 0.025,0.045 -1.655,-2.523 0.033,0.042 -1.957,-2.133 0.045,0.041 -2.185,-1.644 0.063,0.037 -2.337,-1.058 0.086,0.026 -2.412,-0.375 z m 20.752,32.001 -1.28,-4.634 6.345,6.304 -8.851,1.293 z"
         id="path86" />
      <path
         d="M 0.0534458,-0.329021 2.32802,0.0404587 C 2.35895,0.0454838 2.38901,0.0548424 2.41733,0.0682652 L 4.62045,1.11245 C 4.64302,1.12314 4.66431,1.13633 4.68393,1.15179 L 6.74414,2.77428 C 6.76018,2.78691 6.77503,2.80101 6.7885,2.81635 l 1.84585,2.10443 c 0.01175,0.0134 0.02241,0.02773 0.03187,0.04283 l 1.56008,2.48997 c 0.0089,0.01425 0.0167,0.02915 0.0234,0.04458 l 1.2028,2.77914 c 0.0068,0.0156 0.0123,0.0319 0.0166,0.0484 l 0.7741,2.9719 c 0.0047,0.0178 0.0078,0.036 0.0095,0.0543 l 0.2739,3.0683 0.2739,3.0683 -0.0095,-0.0544 0.7741,2.9719 -0.0167,-0.0483 1.2028,2.7791 -0.0234,-0.0446 1.56,2.49 -0.0319,-0.0429 1.8459,2.1045 -0.0444,-0.0421 1.5291,1.2042 -0.4125,0.5237 -1.529,-1.2041 C 17.6289,30.1128 17.6141,30.0987 17.6006,30.0834 L 15.7547,27.979 C 15.743,27.9656 15.7323,27.9512 15.7229,27.9361 L 14.1628,25.4462 C 14.1539,25.4319 14.1461,25.417 14.1394,25.4016 l -1.2028,-2.7792 c -0.0068,-0.0156 -0.0124,-0.0318 -0.0167,-0.0483 l -0.774,-2.9719 c -0.0047,-0.0179 -0.0078,-0.036 -0.0095,-0.0544 l -0.2739,-3.0683 -0.2739,-3.0683 0.0095,0.0544 -0.7741,-2.9719 0.0167,0.0484 L 9.63788,7.76295 9.66132,7.80753 8.10128,5.31756 8.13316,5.36039 6.28731,3.25596 6.33167,3.29803 4.27145,1.67553 4.33493,1.71487 2.13181,0.670694 2.22113,0.6985 -0.0534458,0.329021 Z M 19.3803,31.0678 l -1.1305,-4.6726 6.1393,6.5045 -8.8872,1.0087 z"
         transform="matrix(1,0,0,-1,929.5,943.4)"
         id="path87" />
      <path
         d="M 0.00988962,-0.333187 2.67538,-0.25407 2.6556,0.412304 -0.00988962,0.333187 Z M 4.6745,-0.194732 7.33999,-0.115615 7.32022,0.550758 4.65472,0.471641 Z M 9.33911,-0.0562772 12.0046,0.0228397 11.9848,0.689213 9.31933,0.610096 Z M 14.0037,0.0821774 16.2777,0.149673 16.6869,0.185361 16.629,0.849507 16.2293,0.814649 16.2484,0.815763 13.9839,0.748551 Z M 18.6794,0.359105 21.336,0.590764 21.2781,1.25491 18.6215,1.02325 Z m 4.649,0.405404 2.6566,0.231659 -0.0579,0.664142 -2.6566,-0.23165 z m 4.649,0.405401 2.6566,0.23166 -0.0579,0.66415 -2.6566,-0.23166 z m 4.6659,0.41891 2.6399,0.37729 -0.0943,0.65996 -2.6399,-0.37729 z m 4.6198,0.66026 2.6398,0.37729 -0.0943,0.65997 -2.6399,-0.3773 z m 4.6197,0.66026 2.6398,0.3773 -0.0943,0.65996 -2.6398,-0.3773 z m 4.6197,0.66027 1.8195,0.26004 0.8304,0.16453 -0.1295,0.65396 -0.8217,-0.16279 0.0177,0.003 -1.8107,-0.25878 z M 51.1143,4.38288 53.7301,4.90114 53.6005,5.5551 50.9847,5.03683 Z M 55.692,5.28984 58.3078,5.80811 58.1782,6.46206 55.5624,5.9438 Z m 4.5777,0.90696 2.6158,0.51827 -0.1296,0.65395 -2.6158,-0.51826 z m 4.5827,0.96503 2.5845,0.65693 -0.1642,0.64612 -2.5845,-0.65693 z m 4.5229,1.14962 2.5845,0.65693 -0.1643,0.64612 -2.5844,-0.65693 z m 4.5228,1.14963 2.5845,0.65692 -0.1642,0.6461 -2.5845,-0.6569 z m 4.5229,1.14962 0.4174,0.1061 2.1513,0.6726 -0.1989,0.6363 -2.1427,-0.6699 0.0174,0.0049 -0.4087,-0.1039 z m 4.4776,1.3756 2.5451,0.7958 -0.1989,0.6363 -2.5452,-0.7958 z m 4.454,1.3926 2.5452,0.7958 -0.199,0.6363 -2.5451,-0.7958 z m 4.454,1.3926 1.3999,0.4377 1.1409,0.4285 -0.2344,0.6241 -1.1321,-0.4252 0.0177,0.0061 -1.3909,-0.4349 z m 4.4131,1.5694 2.4964,0.9376 -0.2343,0.6241 -2.4965,-0.9376 z m 4.3683,1.6408 2.497,0.9375 -0.235,0.6241 -2.496,-0.9375 z m 4.369,1.6407 1.855,0.6966 0.644,0.2871 -0.271,0.6089 -0.635,-0.283 0.018,0.0076 -1.845,-0.6931 z m 4.326,1.7977 2.436,1.0853 -0.271,0.6089 -2.436,-1.0853 z m 4.263,1.8993 2.436,1.0853 -0.272,0.609 -2.436,-1.0854 z m 4.262,1.8993 1.72,0.7663 0.713,0.3754 -0.31,0.5899 -0.704,-0.3704 0.02,0.0096 -1.71,-0.7619 z m 4.203,2.0735 2.359,1.2425 -0.31,0.5899 -2.36,-1.2425 z m 4.129,2.1744 2.36,1.2425 -0.311,0.5898 -2.36,-1.2424 z m 4.129,2.1743 0.959,0.5052 1.363,0.8515 -0.353,0.5654 -1.352,-0.845 0.021,0.0122 -0.948,-0.4994 z m 4.019,2.4163 2.261,1.4129 -0.353,0.5654 -2.262,-1.4129 z m 3.957,2.4726 2.262,1.4129 -0.353,0.5654 -2.262,-1.4129 z m 3.957,2.5243 2.133,1.6005 -0.4,0.5332 -2.133,-1.6005 z m 3.733,2.8009 2.133,1.6006 -0.4,0.5332 -2.133,-1.6005 z m 3.732,2.801 1.403,1.0528 0.706,0.6167 -0.438,0.5021 -0.697,-0.6086 0.019,0.0156 -1.393,-1.0454 z m 3.616,2.9854 1.919,1.6766 0.098,0.0957 -0.466,0.4768 -0.092,-0.0892 0.014,0.0126 -1.912,-1.6705 z m 3.447,3.1702 1.907,1.8639 -0.466,0.4768 -1.907,-1.8639 z m 3.282,3.3433 1.789,1.9783 -0.495,0.447 -1.788,-1.9783 z m 3.082,3.5327 1.647,2.0967 -0.524,0.4119 -1.648,-2.0967 z m 2.832,3.7376 1.482,2.2172 -0.554,0.3704 -1.482,-2.2171 z m 2.526,3.9544 1.286,2.336 -0.584,0.3216 -1.286,-2.3361 z m 2.147,4.1744 1.057,2.4481 -0.612,0.2643 -1.057,-2.448 z m 1.684,4.3831 0.692,2.2188 0.071,0.3743 -0.655,0.124 -0.067,-0.3554 0.009,0.0372 -0.686,-2.2005 z m 1.135,4.5582 0.046,0.2459 -0.655,0.124 -0.046,-0.2459 z m -0.281,0.3079 3.726,-3.0373 -3.216,8.3461 -4.747,-7.5803 z"
         fill="#008080"
         transform="matrix(0,1,1,0,663.5,736.5)"
         id="path88" />
      <path
         d="M 0.0273636,-0.332208 2.41353,-0.135662 c 0.01702,0.001402 0.03393,0.004113 0.05053,0.008103 L 4.77527,0.427898 C 4.7985,0.43348 4.82105,0.44154 4.84255,0.451943 L 8.94027,2.43449 c 0.023,0.01113 0.04466,0.02488 0.06453,0.04096 l 1.6366,1.32454 c 0.0159,0.01286 0.0306,0.02717 0.0438,0.04271 l 1.2618,1.47837 c 0.0168,0.01962 0.0312,0.04114 0.043,0.06409 l 0.812,1.58091 c 0.0153,0.02973 0.026,0.06159 0.0318,0.09451 l 0.2873,1.63218 0.2874,1.63214 -0.0318,-0.0945 0.8121,1.5809 -0.043,-0.064 1.2618,1.4783 -0.0439,-0.0427 1.6366,1.3246 -0.0645,-0.041 3.5588,1.7218 -0.2903,0.6001 -3.5588,-1.7218 c -0.023,-0.0111 -0.0447,-0.0249 -0.0646,-0.0409 L 14.9443,13.7011 C 14.9285,13.6883 14.9138,13.674 14.9005,13.6584 L 13.6387,12.18 c -0.0167,-0.0196 -0.0312,-0.0411 -0.043,-0.064 l -0.812,-1.581 c -0.0153,-0.0297 -0.026,-0.0616 -0.0318,-0.0945 L 12.4646,8.80834 12.1772,7.17617 12.209,7.27067 11.397,5.68977 11.4399,5.75386 10.1781,4.2755 10.222,4.31821 8.58539,2.99366 8.64992,3.03461 4.5522,1.05206 4.61949,1.07611 2.30828,0.520651 2.3588,0.528754 -0.0273636,0.332208 Z M 20.3494,16.4884 l -1.8586,-4.4336 7.0949,5.4463 -8.614,2.4081 z"
         transform="matrix(1,0,0,-1,836.5,910.001)"
         id="path89" />
      <path
         d="m 929.529,892.168 2.301,0.202 c 0.018,10e-4 0.036,0.004 0.053,0.009 l 2.229,0.569 c 0.024,0.006 0.048,0.015 0.07,0.027 l 3.951,2.032 c 0.023,0.012 0.045,0.027 0.065,0.044 l 1.578,1.358 c 0.016,0.013 0.03,0.028 0.043,0.044 l 1.216,1.516 c 0.016,0.019 0.03,0.041 0.041,0.063 l 0.783,1.621 c 0.013,0.029 0.023,0.059 0.028,0.091 l 0.277,1.673 0.277,1.674 -0.028,-0.091 0.783,1.621 -0.04,-0.064 1.216,1.516 -0.042,-0.044 1.578,1.358 -0.065,-0.044 3.267,1.681 -0.305,0.593 -3.267,-1.681 c -0.023,-0.012 -0.045,-0.027 -0.065,-0.044 l -1.578,-1.358 c -0.016,-0.013 -0.03,-0.028 -0.043,-0.044 l -1.216,-1.515 c -0.016,-0.02 -0.03,-0.041 -0.041,-0.064 l -0.783,-1.621 c -0.013,-0.029 -0.023,-0.059 -0.028,-0.09 l -0.277,-1.674 -0.277,-1.673 0.028,0.09 -0.783,-1.621 0.041,0.064 -1.217,-1.516 0.042,0.044 -1.578,-1.358 0.065,0.044 -3.951,-2.033 0.07,0.027 -2.229,-0.569 0.054,0.009 -2.301,-0.202 z m 19.428,17.152 -1.764,-4.472 6.978,5.595 -8.663,2.226 z"
         id="path90" />
      <path
         d="m 0.0585587,0.328149 -3.0615387,0.546336 0.09622,-0.032927 -3.0376,1.592512 0.06247,-0.0424 -2.98969,2.56894 0.03805,-0.0385 -2.91787,3.47563 -2.7984,4.28076 -2.6869,5.0538 -2.5481,5.7556 -2.3835,6.3865 -2.1938,6.9468 -1.9795,7.4364 -1.741,7.8559 -1.4783,8.2053 -2.0727,17.1846 -0.5451,8.8266 -0.187,8.9022 0.1901,8.9018 0.5537,8.832 2.1018,17.184 1.498,8.199 1.7652,7.856 2.0072,7.438 2.2248,6.948 2.4176,6.388 2.5855,5.759 2.7281,5.058 2.8446,4.287 2.93339,3.443 -0.03832,-0.038 3.03011,2.569 -0.06241,-0.042 1.08665,0.562 -0.30629,0.593 -1.08666,-0.563 c -0.0223,-0.011 -0.04325,-0.025 -0.0624,-0.041 l -3.03011,-2.569 c -0.01377,-0.012 -0.02662,-0.025 -0.03832,-0.039 l -2.98124,-3.507 -2.8758,-4.339 -2.7495,-5.101 -2.6009,-5.796 -2.4289,-6.421 -2.2335,-6.978 -2.0141,-7.464 -1.7705,-7.883 -1.5039,-8.238 -2.1055,-17.223 -0.5548,-8.86 -0.1902,-8.9298 0.1882,-8.9293 0.5486,-8.8654 2.0785,-17.2229 1.4835,-8.2313 1.7477,-7.8832 1.988,-7.4658 2.205,-6.979 2.3984,-6.4233 2.5691,-5.7988 2.7177,-5.1057 2.8456,-4.34441 2.91788,-3.47563 c 0.01163,-0.01384 0.02435,-0.02671 0.03806,-0.03849 l 2.98969,-2.56894 c 0.01914,-0.01645 0.04011,-0.03069 0.06246,-0.0424 L -3.21632,0.251114 C -3.18611,0.235281 -3.15367,0.224177 -3.1201,0.218187 l 3.0615413,-0.546336 z M -4.65283,188.874 l -1.36489,-4.61 6.45982,6.186 -8.82496,1.456 z"
         transform="matrix(0,1,1,0,792.5,897.5)"
         id="path91" />
      <path
         d="M -0.0423715,0.330629 -1.92601,0.0892333 C -1.95142,0.0859763 -1.97638,0.0797983 -2.00038,0.0708244 L -3.82485,-0.611382 c -0.02064,-0.007716 -0.04046,-0.01746 -0.05917,-0.029086 L -5.59016,-1.70051 c -0.01666,-0.01036 -0.0324,-0.02218 -0.04699,-0.0353 l -1.52862,-1.37491 c -0.02082,-0.01873 -0.0392,-0.04001 -0.0547,-0.06333 l -2.288,-3.44252 c -0.01649,-0.02481 -0.02958,-0.05171 -0.03892,-0.08 l -0.64101,-1.94167 c -0.0072,-0.02178 -0.0121,-0.04423 -0.0147,-0.06702 l -0.2268,-2.00464 c -0.0046,-0.0405 -0.0017,-0.0815 0.0085,-0.121 l 0.2605,-1.0063 c 0.0111,-0.0428 0.0306,-0.083 0.0574,-0.1182 l 0.75942,-0.9984 c 0.01647,-0.0217 0.03552,-0.0412 0.05674,-0.0582 l 1.22505,-0.9827 c 0.01314,-0.0105 0.02704,-0.02 0.04162,-0.0285 l 1.65742,-0.959 2.08643,-0.9429 2.44468,-0.8973 5.83413,-1.6348 6.89811,-1.3808 7.6915,-1.0634 8.2219,-0.6842 8.4882,-0.2424 8.4895,0.2564 8.2232,0.7256 7.6908,1.1281 6.8945,1.4639 5.835,1.7343 2.4483,0.9522 2.0796,0.995 1.6879,1.0352 c 0.0146,0.0089 0.0286,0.0191 0.0416,0.0302 l 1.2251,1.0436 c 0.0206,0.0176 0.039,0.0376 0.0548,0.0597 l 0.7594,1.0603 c 0.0249,0.0346 0.0428,0.0737 0.0529,0.1151 l 0.2605,1.0687 c 0.0101,0.0412 0.0122,0.084 0.0062,0.126 l -0.3034,2.12898 c -0.004,0.02781 -0.0115,0.05501 -0.0223,0.08095 l -0.8574,2.06211 c -0.009,0.02163 -0.0203,0.04224 -0.0336,0.0615 L 78.502,-3.7718 c -0.0115,0.01655 -0.0244,0.03202 -0.0386,0.04625 l -1.7281,1.72771 c -0.0229,0.02287 -0.049,0.04229 -0.0774,0.05765 l -2.9242,1.57734 -0.3165,-0.586745 2.9241,-1.577345 -0.0774,0.05764 1.7282,-1.72771 -0.0386,0.04624 1.3324,-1.92835 -0.0336,0.0615 0.8575,-2.06212 -0.0222,0.08096 0.3034,-2.12902 0.0061,0.126 -0.2605,-1.0687 0.0528,0.1152 -0.7594,-1.0603 0.0549,0.0596 -1.2251,-1.0436 0.0417,0.0303 -1.6269,-1.0019 -2.0335,-0.9751 -2.3964,-0.9344 -5.7836,-1.7212 -6.8527,-1.4564 -7.6526,-1.1236 -8.1847,-0.7234 -8.4504,-0.2563 -8.4519,0.2404 -8.1859,0.6802 -7.6521,1.0567 -6.84903,1.369 -5.78441,1.6188 -2.40009,0.8791 -2.02663,0.9122 -1.65742,0.9591 0.04163,-0.0285 -1.22505,0.9826 0.05673,-0.0582 -0.75942,0.9984 0.05739,-0.1183 -0.26053,1.0063 0.00853,-0.1211 0.22683,2.00468 -0.01469,-0.06702 0.64103,1.94166 -0.03892,-0.08 2.288,3.44252 -0.05469,-0.06333 1.52861,1.37491 -0.04699,-0.0353 1.70613,1.06004 -0.05917,-0.02908 1.82447,0.682204 -0.07438,-0.018409 1.8836415,0.241396 z M 76.0418,2.76359 67.2126,1.33333 73.6543,-4.87185 Z"
         transform="matrix(-1,0,0,1,929.713,892.5)"
         id="path92" />
      <path
         d="M 0.0422907,0.33064 -1.89024,0.577821 -1.81598,0.559476 -3.68781,1.25803 -3.62869,1.22902 -5.3791,2.31447 -5.3321,2.27923 -6.90039,3.68709 -6.84562,3.6238 -9.193,7.14882 l 0.03902,-0.08007 -0.65768,1.9882 0.01475,-0.06714 -0.23269,2.05269 -0.0081,-0.1195 0.26125,1.0304 -0.0558,-0.1172 0.76161,1.0223 -0.0561,-0.0588 1.22858,1.0062 -0.04165,-0.0291 1.6622,0.982 2.03233,0.934 2.40681,0.9001 5.80081,1.6575 6.86846,1.4017 7.6738,1.082 8.2093,0.6965 8.4759,0.2461 8.4756,-0.2322 8.2102,-0.6553 7.6766,-1.0179 6.8744,-1.3195 5.8024,-1.5594 2.4053,-0.8469 2.0407,-0.8837 1.6327,-0.9081 -0.0415,0.0273 1.2286,-0.9453 -0.0579,0.0571 0.7616,-0.9604 -0.0606,0.1203 0.2613,-0.968 -0.0075,0.1387 -0.3034,-1.92834 0.0263,0.08726 -0.8574,-1.86774 0.0379,0.06309 -1.3324,-1.7466 0.0413,0.04492 -1.7281,-1.56487 0.065,0.04605 -4.0551,-2.19516 0.3173,-0.58628 4.0552,2.19516 c 0.0234,0.0127 0.0453,0.02817 0.065,0.04606 l 1.7282,1.56487 c 0.0151,0.01367 0.0289,0.02872 0.0413,0.04491 l 1.3323,1.7466 c 0.0149,0.01957 0.0277,0.04073 0.0379,0.0631 l 0.8575,1.86774 c 0.0127,0.02775 0.0216,0.05712 0.0263,0.08727 l 0.3035,1.92836 c 0.0072,0.0462 0.0047,0.0935 -0.0075,0.1386 l -0.2613,0.968 c -0.0118,0.0438 -0.0324,0.0847 -0.0606,0.1203 l -0.7616,0.9603 c -0.0169,0.0214 -0.0364,0.0405 -0.0579,0.0571 l -1.2286,0.9453 c -0.0132,0.0101 -0.027,0.0192 -0.0415,0.0272 l -1.6916,0.937 -2.0843,0.9008 -2.4535,0.8618 -5.8497,1.5703 -6.9124,1.3257 -7.7112,1.0215 -8.245,0.6572 -8.5132,0.2322 -8.5129,-0.2483 -8.246,-0.7006 -7.7141,-1.0889 -6.91833,-1.414 -5.85127,-1.6741 -2.45193,-0.9188 -2.09259,-0.9656 -1.6622,-0.982 c -0.01459,-0.0086 -0.02853,-0.0184 -0.04165,-0.0291 l -1.22858,-1.0062 c -0.02103,-0.0172 -0.03987,-0.0369 -0.05611,-0.0587 l -0.76164,-1.0223 c -0.0261,-0.0351 -0.045,-0.0749 -0.0558,-0.1173 l -0.2612,-1.0303 c -0.0099,-0.039 -0.0127,-0.0795 -0.0082,-0.1195 l 0.2328,-2.05269 c 0.0026,-0.02283 0.0075,-0.04532 0.0147,-0.06713 l 0.65768,-1.9882 C -9.77755,6.83107 -9.76442,6.80413 -9.7479,6.77931 L -7.40051,3.25429 C -7.38498,3.23098 -7.36658,3.20971 -7.34574,3.191 l 1.5683,-1.40786 c 0.01459,-0.01311 0.03033,-0.0249 0.047,-0.03524 L -3.98002,0.66245 C -3.96133,0.650858 -3.94151,0.641133 -3.9209,0.633443 l 1.87182,-0.6985563 c 0.02396,-0.0089418 0.04889,-0.0151004 0.07426,-0.018345 L -0.0422907,-0.33064 Z M 72.4444,2.36887 74.2837,6.81052 67.2126,1.33333 75.837,-1.03724 Z"
         transform="matrix(-1,0,0,1,929.713,943.5)"
         id="path93" />
      <path
         d="m 747.833,739.833 v 61.257 h -0.666 v -61.257 z m -0.333,0 -4,2.667 4,-8 4,8 z m 0,61.257 4,-2.666 -4,8 -4,-8 z"
         id="path94" />
      <path
         d="m 918.833,990.833 v 49.707 h -0.666 v -49.707 z m -0.333,0 -4,2.667 4,-8 4,8 z m 0,49.707 4,-2.67 -4,8 -4,-8 z"
         id="path95" />
    </g>
  </g>
</svg>
