<?xml version="1.0" encoding="UTF-8" standalone="no"?>
<!-- Created with Inkscape (http://www.inkscape.org/) -->

<svg
   width="198.03647mm"
   height="194.43929mm"
   viewBox="0 0 198.03646 194.43928"
   version="1.1"
   id="svg5"
   inkscape:export-filename="_MEM.png"
   inkscape:export-xdpi="96"
   inkscape:export-ydpi="96"
   xml:space="preserve"
   inkscape:version="1.2.2 (b0a8486541, 2022-12-01)"
   sodipodi:docname="_MEM.svg"
   xmlns:inkscape="http://www.inkscape.org/namespaces/inkscape"
   xmlns:sodipodi="http://sodipodi.sourceforge.net/DTD/sodipodi-0.dtd"
   xmlns="http://www.w3.org/2000/svg"
   xmlns:svg="http://www.w3.org/2000/svg"><sodipodi:namedview
     id="namedview7"
     pagecolor="#ffffff"
     bordercolor="#000000"
     borderopacity="0.25"
     inkscape:showpageshadow="2"
     inkscape:pageopacity="0.0"
     inkscape:pagecheckerboard="0"
     inkscape:deskcolor="#d1d1d1"
     inkscape:document-units="mm"
     showgrid="false"
     inkscape:zoom="0.914906"
     inkscape:cx="57.929448"
     inkscape:cy="-185.81144"
     inkscape:window-width="2560"
     inkscape:window-height="1377"
     inkscape:window-x="-8"
     inkscape:window-y="797"
     inkscape:window-maximized="1"
     inkscape:current-layer="layer1" /><defs
     id="defs2"><clipPath
       id="clip0"><rect
         x="-25"
         y="0"
         width="785"
         height="1091"
         id="rect9" /></clipPath><clipPath
       id="clip0-8"><rect
         x="-25"
         y="0"
         width="785"
         height="524"
         id="rect520" /></clipPath><clipPath
       id="clip0-3"><rect
         x="-25"
         y="0"
         width="785"
         height="1091"
         id="rect699" /></clipPath><clipPath
       id="clip0-0"><rect
         x="-25"
         y="0"
         width="785"
         height="1091"
         id="rect1109" /></clipPath><clipPath
       id="clip0-4"><rect
         x="-25"
         y="0"
         width="934"
         height="905"
         id="rect1519" /></clipPath><clipPath
       id="clip0-42"><rect
         x="-7"
         y="0"
         width="952"
         height="590"
         id="rect1929" /></clipPath><clipPath
       id="clip0-1"><rect
         x="-25"
         y="0"
         width="785"
         height="1091"
         id="rect2197" /></clipPath><clipPath
       id="clip0-6"><rect
         x="-25"
         y="0"
         width="785"
         height="1091"
         id="rect2806" /></clipPath><clipPath
       id="clip0-66"><rect
         x="11"
         y="-21"
         width="934"
         height="904"
         id="rect3369" /></clipPath><clipPath
       id="clip0-41"><rect
         x="-7"
         y="0"
         width="743"
         height="335"
         id="rect3934" /></clipPath><clipPath
       id="clip0-7"><rect
         x="-7"
         y="0"
         width="743"
         height="335"
         id="rect4109" /></clipPath><clipPath
       id="clip0-9"><rect
         x="-25"
         y="0"
         width="785"
         height="524"
         id="rect4320" /></clipPath><clipPath
       id="clip0-96"><rect
         x="-25"
         y="0"
         width="785"
         height="713"
         id="rect4583" /></clipPath><clipPath
       id="clip0-08"><rect
         x="144"
         y="424"
         width="837"
         height="501"
         id="rect4932" /></clipPath><clipPath
       id="clip0-87"><rect
         x="144"
         y="424"
         width="837"
         height="501"
         id="rect5261" /></clipPath><clipPath
       id="clip0-68"><rect
         x="201"
         y="68"
         width="837"
         height="501"
         id="rect5590" /></clipPath><clipPath
       id="clip0-69"><rect
         x="212"
         y="141"
         width="635"
         height="281"
         id="rect6057" /></clipPath><clipPath
       id="clip0-44"><rect
         x="75"
         y="7"
         width="780"
         height="757"
         id="rect6214" /></clipPath><clipPath
       id="clip0-38"><rect
         x="75"
         y="8"
         width="780"
         height="752"
         id="rect6713" /></clipPath></defs><g
     inkscape:label="Layer 1"
     inkscape:groupmode="layer"
     id="layer1"
     transform="translate(-89.031116,-289.64052)"><g
       clip-path="url(#clip0-38)"
       transform="matrix(0.26458333,0,0,0.26458333,66.172154,285.60356)"
       id="g6916"><path
         d="m 335.5,395.505 c 0,-9.944 8.061,-18.005 18.005,-18.005 h 279.99 c 9.944,0 18.005,8.061 18.005,18.005 v 141.99 c 0,9.944 -8.061,18.005 -18.005,18.005 h -279.99 c -9.944,0 -18.005,-8.061 -18.005,-18.005 z"
         stroke="#7b7b7b"
         stroke-width="1.33333"
         stroke-miterlimit="8"
         fill="#f2f2f2"
         fill-rule="evenodd"
         id="path6718" /><text
         font-family="Arial, Arial_MSFontService, sans-serif"
         font-weight="400"
         font-size="12px"
         transform="translate(456.544,394)"
         id="text6722">MUS (Object<tspan
   font-size="12px"
   x="68.666702"
   y="0"
   id="tspan6720">)</tspan></text><path
         d="m 350.5,445.17 c 0,-9.206 7.464,-16.67 16.67,-16.67 h 253.66 c 9.207,0 16.67,7.464 16.67,16.67 v 80.66 c 0,9.207 -7.463,16.67 -16.67,16.67 H 367.17 c -9.206,0 -16.67,-7.463 -16.67,-16.67 z"
         stroke="#7b7b7b"
         stroke-width="1.33333"
         stroke-miterlimit="8"
         fill="#f7f7f8"
         fill-rule="evenodd"
         id="path6724" /><path
         d="m 224.5,113.955 c 0,-9.64 7.815,-17.4549 17.455,-17.4549 h 269.09 c 9.64,0 17.455,7.8149 17.455,17.4549 v 93.09 c 0,9.64 -7.815,17.455 -17.455,17.455 h -269.09 c -9.64,0 -17.455,-7.815 -17.455,-17.455 z"
         stroke="#7b7b7b"
         stroke-width="1.33333"
         stroke-miterlimit="8"
         fill="#f2f2f2"
         fill-rule="evenodd"
         id="path6726" /><text
         font-family="Arial, Arial_MSFontService, sans-serif"
         font-weight="400"
         font-size="12px"
         transform="translate(339.252,113)"
         id="text6730">MAD (Owner<tspan
   font-size="12px"
   x="69.333298"
   y="0"
   id="tspan6728">)</tspan></text><path
         d="m 222.5,265.001 c 0,-10.218 8.283,-18.501 18.501,-18.501 H 474 c 10.217,0 18.5,8.283 18.5,18.501 V 339 c 0,10.217 -8.283,18.5 -18.5,18.5 H 241.001 C 230.783,357.5 222.5,349.217 222.5,339 Z"
         stroke="#7b7b7b"
         stroke-width="1.33333"
         stroke-miterlimit="8"
         fill="#f2f2f2"
         fill-rule="evenodd"
         id="path6732" /><text
         font-family="Arial, Arial_MSFontService, sans-serif"
         font-weight="400"
         font-size="12px"
         transform="translate(338.583,263)"
         id="text6736">MAL (Object<tspan
   font-size="12px"
   x="66.666702"
   y="0"
   id="tspan6734">)</tspan></text><path
         d="m 492.5,597.001 c 0,-10.218 8.283,-18.501 18.5,-18.501 h 229 c 10.217,0 18.5,8.283 18.5,18.501 V 671 c 0,10.217 -8.283,18.5 -18.5,18.5 H 511 c -10.217,0 -18.5,-8.283 -18.5,-18.5 z"
         stroke="#7b7b7b"
         stroke-width="1.33333"
         stroke-miterlimit="8"
         fill="#f2f2f2"
         fill-rule="evenodd"
         id="path6738" /><text
         font-family="Arial, Arial_MSFontService, sans-serif"
         font-weight="400"
         font-size="12px"
         transform="translate(527.249,595)"
         id="text6744">MDL (<tspan
   font-size="12px"
   x="32.666599"
   y="0"
   id="tspan6740">Object</tspan><tspan
   font-size="12px"
   x="67.333298"
   y="0"
   id="tspan6742">)</tspan></text><path
         d="m 452.5,450.833 c 0,-2.393 1.94,-4.333 4.333,-4.333 h 59.334 c 2.393,0 4.333,1.94 4.333,4.333 v 17.334 c 0,2.393 -1.94,4.333 -4.333,4.333 h -59.334 c -2.393,0 -4.333,-1.94 -4.333,-4.333 z"
         stroke="#000000"
         stroke-width="1.33333"
         stroke-miterlimit="8"
         fill="#ffffff"
         fill-rule="evenodd"
         id="path6746" /><text
         font-family="Arial, Arial_MSFontService, sans-serif"
         font-weight="400"
         font-size="12px"
         transform="translate(471.757,464)"
         id="text6748">Read</text><path
         d="m 732.535,660.943 2.5,-0.375 -0.18,0.054 2.437,-1.125 -0.103,0.059 2.5,-1.75 -0.095,0.081 2.438,-2.5 -0.053,0.06 2.438,-3.187 -0.034,0.048 2.375,-3.75 -0.022,0.039 2.375,-4.375 -0.017,0.032 2.375,-5 -0.012,0.027 2.312,-5.5 -0.011,0.029 2.25,-6.125 -0.007,0.019 2.188,-6.562 -0.005,0.015 2.188,-7.125 -0.006,0.02 2.062,-7.562 -0.002,0.008 2.062,-8 -0.004,0.018 1.938,-8.438 -0.002,0.006 1.938,-8.812 -0.003,0.014 1.812,-9.188 -10e-4,0.009 1.75,-9.562 -0.003,0.015 3.188,-20.062 -0.003,0.017 2.813,-21.25 -0.002,0.016 2.375,-22.125 -0.002,0.015 1.938,-22.875 -10e-4,0.016 1.437,-23.438 -10e-4,0.017 0.875,-23.875 v 0.015 l 0.312,-24 10e-4,0.037 -0.5,-12 0.004,0.051 -1.438,-12 0.009,0.054 -2.437,-12 0.011,0.046 -3.313,-11.875 0.014,0.045 -4.187,-11.75 0.016,0.041 -5.062,-11.688 0.016,0.035 -5.813,-11.563 0.02,0.036 -6.625,-11.375 0.02,0.033 -7.375,-11.125 0.02,0.028 -8.125,-11 0.022,0.028 -8.813,-10.687 0.019,0.021 -9.438,-10.5 0.022,0.023 -10.063,-10.188 0.022,0.022 -10.687,-9.875 0.02,0.018 -11.25,-9.563 0.021,0.018 -11.75,-9.188 0.02,0.015 -12.25,-8.875 0.025,0.017 -12.75,-8.375 0.02,0.013 -13.187,-8 0.021,0.012 -13.563,-7.562 0.023,0.012 -14,-7.125 0.024,0.011 -14.312,-6.562 0.02,0.009 -14.625,-6.125 0.026,0.01 -14.875,-5.5 0.022,0.008 -15.125,-5 0.027,0.008 -15.375,-4.375 0.026,0.007 -15.562,-3.75 0.024,0.005 -15.75,-3.187 0.03,0.005 -15.812,-2.437 0.026,0.003 -15.937,-1.812 0.028,0.002 -16,-1.124 0.032,0.001 -10.677,-0.235 0.03,-1.333 10.693,0.235 16.03,1.127 15.965,1.816 15.841,2.442 15.777,3.193 15.588,3.756 15.401,4.383 15.15,5.008 14.899,5.509 14.648,6.134 14.335,6.573 14.024,7.137 13.584,7.575 13.208,8.012 12.773,8.39 12.272,8.891 11.77,9.204 11.271,9.58 10.709,9.895 10.084,10.209 9.458,10.522 8.833,10.713 8.145,11.027 7.395,11.156 6.645,11.409 5.831,11.598 5.078,11.725 4.203,11.793 3.325,11.921 2.448,12.05 1.444,12.052 0.502,12.044 -0.313,24.026 -0.876,23.892 -1.438,23.453 -1.939,22.89 -2.377,22.141 -2.814,21.266 -3.19,20.079 -1.753,9.575 -1.814,9.199 -1.94,8.823 -1.94,8.449 -2.066,8.013 -2.067,7.577 -2.193,7.143 -2.193,6.579 -2.259,6.149 -2.324,5.528 -2.389,5.03 -2.394,4.411 -2.403,3.794 -2.48,3.242 -2.509,2.574 -2.6,1.82 -2.578,1.19 -2.594,0.389 z m -283.703,-512.326 2.578,4.058 -7.91,-4.175 8.086,-3.823 z"
         fill="#0000ff"
         id="path6750" /><text
         font-family="Arial, Arial_MSFontService, sans-serif"
         font-weight="400"
         font-size="12px"
         transform="translate(670.455,62)"
         id="text6758">O<tspan
   font-size="12px"
   x="9.3333101"
   y="0"
   id="tspan6752">ther</tspan>O<tspan
   font-size="12px"
   x="42.666698"
   y="0"
   id="tspan6754">bject</tspan><tspan
   font-size="12px"
   x="15.3333"
   y="14"
   id="tspan6756">/ NULL</tspan></text><path
         d="m 409.841,136.07 0.205,-1.367 0.773,-1.405 1.073,-1.342 1.511,-1.314 1.867,-1.287 2.242,-1.282 5.431,-2.4 6.731,-2.327 7.909,-2.26 8.963,-2.068 9.897,-2.005 10.83,-1.753 11.516,-1.689 12.204,-1.377 12.762,-1.251 13.14,-1.002 13.518,-0.688 27.509,-0.625 27.5,-0.625 -0.018,0.001 13.437,-0.688 -0.016,10e-4 13.187,-1 -0.012,0.001 12.688,-1.187 -0.016,0.001 12.187,-1.437 -0.014,0.002 11.562,-1.625 -0.018,0.002 10.75,-1.812 -0.02,0.004 9.937,-2.0002 -0.018,0.0039 8.937,-2.0625 -0.033,0.0086 7.875,-2.25 -0.037,0.0116 6.625,-2.3125 -0.049,0.0197 5.375,-2.375 -0.049,0.0238 2.188,-1.1875 -0.061,0.0371 1.813,-1.25 -0.059,0.0458 0.506,-0.4405 0.875,1.0061 -0.535,0.465 -1.872,1.2914 -2.243,1.2174 -5.424,2.3967 -6.668,2.3277 -7.91,2.26 -8.964,2.0684 -9.957,2.004 -10.769,1.816 -11.579,1.627 -12.203,1.439 -12.701,1.189 -13.202,1.001 -13.455,0.689 -27.509,0.625 -27.5,0.625 0.018,-0.001 -13.5,0.688 0.017,-10e-4 -13.125,1 0.015,-0.002 -12.75,1.25 0.009,-10e-4 -12.187,1.375 0.022,-0.003 -11.5,1.688 0.01,-0.002 -10.813,1.75 0.026,-0.004 -9.875,2 0.017,-0.004 -8.937,2.062 0.033,-0.008 -7.875,2.25 0.035,-0.011 -6.688,2.312 0.052,-0.02 -5.375,2.375 0.061,-0.031 -2.187,1.25 0.048,-0.03 -1.813,1.25 0.059,-0.046 -1.438,1.25 0.084,-0.086 -1,1.25 0.063,-0.095 -0.687,1.25 0.075,-0.223 -0.188,1.25 z m 292.666,-49.0286 -4.805,0.1732 7.601,-4.7145 -0.789,8.9094 z"
         fill="#454545"
         id="path6760" /><path
         d="m 5.466,0.609894 2.50341,1.126536 3.61119,2.7729 3.1988,3.58263 2.7457,4.15044 2.0415,4.6572 1.4047,4.9801 0.4429,5.1254 0.4375,5.0625 -0.0226,-0.1236 1.375,4.875 -0.031,-0.0867 2,4.5625 -0.052,-0.0962 2.6875,4.125 -0.0653,-0.0845 3.125,3.4375 -0.0873,-0.0804 3.5,2.6875 -0.1324,-0.0791 2.4116,1.0852 -0.5471,1.2159 -2.4825,-1.1171 -3.6088,-2.7711 -3.2011,-3.5212 -2.7467,-4.2159 -2.0406,-4.655 -1.4047,-4.9801 -0.4429,-5.1254 -0.4375,-5.0625 0.0226,0.1236 -1.375,-4.875 0.031,0.0867 -2,-4.5625 0.0546,0.1001 -2.6875,-4.06248 0.0587,0.07619 -3.125,-3.5 L 10.719,5.52877 7.21898,2.84127 7.35142,2.92045 4.91885,1.82579 Z M 5.19243,1.21784 6.87526,5.72108 0,0 8.70202,-2.06756 Z m 31.09417,51.67986 -1.6874,-4.5015 6.8811,5.714 -8.6999,2.0765 z"
         fill="#920000"
         transform="matrix(0,-1,-1,0,493.61,377.98)"
         id="path6762" /><path
         d="m 4.12056,3.7679 0.69227,1.68741 1.01392,3.04175 0.94527,3.59204 0.94329,4.0247 0.81716,4.463 0.75242,4.8907 0.68983,5.1423 1.12738,11.211 0.7516,12.0266 0.2503,12.3266 0.25,12.3125 -0.0011,-0.0281 0.75,12 -0.0021,-0.0251 1.125,11.1877 -0.0026,-0.022 0.6875,5.125 -0.0018,-0.013 0.75,4.875 -0.0048,-0.027 0.875,4.437 -0.0028,-0.013 0.875,4 -0.0066,-0.028 0.9375,3.563 -0.0122,-0.041 1,3 -0.0157,-0.043 0.6549,1.597 -1.2335,0.506 -0.6635,-1.617 -1.0139,-3.042 -0.9466,-3.597 -0.8794,-4.02 -0.8791,-4.458 -0.7531,-4.895 -0.6898,-5.143 L 11.7729,90.5542 11.0213,78.5276 10.771,66.201 l -0.25,-12.3125 0.0011,0.0281 -0.74997,-12 0.00205,0.0251 -1.125,-11.1875 0.00257,0.0219 -0.6875,-5.125 0.00183,0.0128 -0.75,-4.875 0.00315,0.0187 -0.8125,-4.4375 0.00669,0.032 -0.9375,-4 0.00436,0.0176 -0.9375,-3.56254 0.01226,0.04116 -1,-3 L 3.57072,5.94054 2.887,4.27398 Z M 3.50378,4.02094 2.23997,8.65925 0,0 8.27138,3.40357 Z M 19.3425,128.284 l 1.2771,-4.635 2.215,8.666 -8.2615,-3.427 z"
         fill="#920000"
         transform="matrix(0,1,1,0,493.5,555.5)"
         id="path6764" /><path
         d="m 627.275,649.307 5.813,-0.313 -0.077,0.009 5.812,-1 -0.066,0.015 5.812,-1.625 -0.063,0.021 5.75,-2.25 -0.056,0.025 5.75,-2.875 -0.049,0.027 5.625,-3.437 -0.035,0.022 5.625,-3.937 -0.04,0.03 5.5,-4.5 -0.034,0.031 5.375,-5.063 -0.023,0.022 5.313,-5.5 -0.02,0.022 5.25,-5.938 -0.025,0.03 5.063,-6.438 -0.016,0.021 4.937,-6.812 -0.015,0.022 4.812,-7.25 -0.014,0.023 4.625,-7.625 -0.013,0.023 4.437,-8 -0.015,0.028 8.375,-17 -0.017,0.039 7.562,-18.187 -0.015,0.038 6.625,-19.188 -0.011,0.038 5.625,-20.062 -0.009,0.036 4.562,-20.688 -0.007,0.039 3.375,-21.25 -0.006,0.041 2.063,-21.562 -0.003,0.042 0.688,-21.75 v 0.044 l -0.375,-10.875 0.003,0.05 -1.187,-10.875 0.006,0.045 -1.937,-10.812 0.008,0.04 -2.625,-10.75 0.011,0.039 -3.312,-10.687 0.013,0.039 -4,-10.563 0.015,0.037 -4.687,-10.437 0.015,0.03 -5.25,-10.25 0.016,0.031 -5.875,-10.125 0.019,0.03 -6.5,-9.937 0.017,0.024 -7,-9.75 0.019,0.026 -7.5,-9.438 0.018,0.022 -8,-9.25 0.021,0.023 -8.5,-8.938 0.02,0.021 -8.937,-8.625 0.018,0.017 -9.375,-8.375 0.022,0.018 -9.75,-8 0.023,0.019 -10.187,-7.625 0.019,0.014 -10.438,-7.25 0.025,0.016 -10.812,-6.812 0.021,0.013 -11.125,-6.438 0.026,0.014 -11.375,-5.938 0.023,0.012 -11.625,-5.5 0.024,0.011 -11.875,-5.063 0.028,0.012 -12.062,-4.5 0.029,0.01 -12.25,-3.938 0.025,0.008 -12.375,-3.438 0.029,0.008 -12.5,-2.875 0.032,0.006 -12.562,-2.25 0.032,0.005 -12.687,-1.625 0.032,0.004 -12.75,-1 0.038,0.002 -7.417,-0.166 0.03,-1.333 7.435,0.166 12.785,1.003 12.72,1.629 12.595,2.256 12.531,2.882 12.402,3.445 12.277,3.946 12.091,4.511 11.901,5.073 11.649,5.511 11.399,5.951 11.149,6.451 10.836,6.827 10.459,7.265 10.209,7.641 9.772,8.019 9.395,8.392 8.957,8.644 8.521,8.959 8.019,9.273 7.519,9.461 7.018,9.775 6.518,9.964 5.892,10.156 5.266,10.281 4.703,10.471 4.014,10.601 3.325,10.726 2.635,10.79 1.945,10.855 1.193,10.923 0.376,10.922 -0.689,21.793 -2.066,21.604 -3.382,21.29 -4.57,20.725 -5.636,20.1 -6.638,19.225 -7.578,18.227 -8.392,17.033 -4.452,8.026 -4.638,7.647 -4.828,7.273 -4.953,6.834 -5.083,6.463 -5.272,5.963 -5.334,5.522 -5.403,5.089 -5.538,4.531 -5.662,3.964 -5.667,3.463 -5.802,2.901 -5.81,2.273 -5.877,1.643 -5.885,1.013 -5.851,0.314 z m -142.443,-463.688 2.577,4.059 -7.909,-4.178 8.087,-3.82 z"
         fill="#920000"
         id="path6766" /><text
         font-family="Arial, Arial_MSFontService, sans-serif"
         font-weight="400"
         font-size="12px"
         transform="rotate(51.549971,97.013524,864.63222)"
         id="text6774">A<tspan
   font-size="12px"
   x="7.7922802"
   y="-0.164878"
   id="tspan6768">ll</tspan><tspan
   font-size="12px"
   x="16.6255"
   y="-0.032627098"
   id="tspan6770">O</tspan><tspan
   font-size="12px"
   x="25.716499"
   y="-0.225032"
   id="tspan6772">wners</tspan></text><path
         d="m 653.598,462.317 0.895,-2.557 -0.019,0.064 1.25,-5.188 -0.006,0.028 1.25,-6.375 -0.005,0.029 1.125,-7.5 -10e-4,0.012 1.125,-8.5 -0.002,0.018 1,-9.5 -0.001,0.005 1,-10.25 -10e-4,0.016 0.812,-11.063 v 0.006 l 0.75,-11.625 v 0.005 l 0.687,-12.125 -10e-4,0.011 0.5,-12.562 v 0.007 l 0.375,-12.875 v 0.011 l 0.312,-26.25 10e-4,0.034 -0.25,-6.563 0.004,0.056 -0.812,-6.625 0.008,0.05 -1.313,-6.563 0.012,0.048 -1.813,-6.5 0.013,0.041 -2.25,-6.437 0.017,0.044 -2.75,-6.375 0.016,0.034 -3.187,-6.375 0.021,0.039 -3.625,-6.188 0.017,0.028 -4,-6.125 0.018,0.025 -4.375,-6.062 0.033,0.043 -9.937,-11.625 0.041,0.044 -11.25,-11 0.043,0.038 -12.5,-10.25 0.041,0.032 -13.625,-9.5 0.044,0.028 -14.5,-8.5 0.045,0.024 -15.375,-7.5 0.047,0.021 -16.063,-6.375 0.049,0.017 -16.562,-5.125 0.051,0.013 -17,-3.812 0.04,0.008 -8.563,-1.375 0.03,0.004 -8.688,-1 0.034,0.003 -8.688,-0.563 0.025,10e-4 -3.353,-0.088 0.035,-1.333 3.366,0.089 8.717,0.564 8.719,1.004 8.598,1.38 17.045,3.823 16.613,5.141 16.11,6.394 15.421,7.522 14.544,8.526 13.668,9.53 12.543,10.285 11.292,11.041 9.975,11.669 4.4,6.097 4.017,6.151 3.645,6.221 3.205,6.412 2.767,6.414 2.265,6.48 1.825,6.544 1.322,6.612 0.819,6.678 0.252,6.607 -0.313,26.272 -0.375,12.884 -0.5,12.572 -0.688,12.133 -0.751,11.631 -0.813,11.073 -1.001,10.261 -1.001,9.511 -1.127,8.515 -1.128,7.52 -1.256,6.404 -1.261,5.234 -0.906,2.588 z m 0.63,0.22 4.806,0.092 -7.849,4.288 1.279,-8.852 z m -169.396,-276.896 2.559,4.069 -7.891,-4.21 8.103,-3.787 z"
         fill="#0000ff"
         id="path6776" /><path
         d="m 152.171,56.8317 0.531,647.1713 -1.333,0.002 -0.531,-647.1722 z m -0.667,0.0017 -3.997,2.6699 3.993,-8.0032 4.007,7.9967 z"
         id="path6778" /><path
         d="M 2.65459e-4,-0.666667 627.447,-0.416825 627.446,0.916508 -2.65459e-4,0.666667 Z M 627.454,0.249845 l -2.665,-4.001065 7.998,4.003189 -8.001,3.996811 z"
         transform="matrix(1,0,0,-1,151.5,703.752)"
         id="path6780" /><text
         font-family="Arial, Arial_MSFontService, sans-serif"
         font-weight="400"
         font-size="12px"
         transform="translate(793.368,700)"
         id="text6790">Object <tspan
   font-size="12px"
   x="0"
   y="14"
   id="tspan6782">L</tspan><tspan
   font-size="12px"
   x="6.6666899"
   y="14"
   id="tspan6784">ifetime</tspan><tspan
   font-size="12px"
   x="-659.70599"
   y="-676"
   id="tspan6786">Object</tspan><tspan
   font-size="12px"
   x="-659.37299"
   y="-662"
   id="tspan6788">S</tspan>pace</text><path
         d="m 0.0356631,-0.665712 7.0357269,0.376914 7.00271,1.13557 6.8735,1.765668 6.7453,2.45859 6.4875,3.02328 6.2359,3.52739 5.8576,4.031 5.5424,4.4718 5.041,4.8519 4.6016,5.232 3.9739,5.4877 3.4072,5.7417 2.7806,5.9406 2.0248,6.1374 1.267,6.2083 0.0573,0.8951 -1.3306,0.0853 -0.0544,-0.8494 0.0121,0.0907 -1.25,-6.125 0.0201,0.0756 -2,-6.0625 0.0293,0.0737 -2.75,-5.875 0.0305,0.0576 -3.375,-5.6875 0.0333,0.0508 -3.9375,-5.4375 0.0394,0.0493 -4.5625,-5.1875 0.0383,0.04 -5,-4.8125 0.0437,0.0385 -5.5,-4.4375 0.0407,0.0304 -5.8125,-4 0.0497,0.0311 -6.1875,-3.50003 0.0466,0.024 -6.4375,-3 0.0533,0.02209 -6.6875,-2.4375 0.0624,0.01934 -6.8125,-1.75 0.0592,0.01237 -6.93751,-1.125 0.07105,0.00764 -7.0000031,-0.374998 z M 74.3044,60.6618 78.1256,57.7447 74.6457,65.9843 70.142,58.2566 Z"
         fill="#008080"
         transform="matrix(0,1,1,0,168.5,65.5001)"
         id="path6792" /><path
         d="M 0.0844213,-0.6613 3.10743,-0.275383 6.18186,0.967471 9.21583,2.90404 12.1038,5.4711 l 2.736,3.24504 2.6564,3.73156 2.5274,4.2334 2.3333,4.7297 2.1399,5.0981 1.9528,5.4803 3.1409,11.7469 2.0109,12.6311 0.691,13.0046 -0.565,12.9964 -1.5694,12.6179 -2.5102,11.7349 -1.5098,5.473 -1.698,5.094 -1.8274,4.726 -2.0203,4.23 -2.0857,3.729 -2.1662,3.25 -2.3144,2.571 -1.9618,1.635 -0.8535,-1.024 1.925,-1.605 -0.0687,0.067 2.25,-2.5 -0.0592,0.076 2.125,-3.188 -0.0271,0.045 2.0625,-3.688 -0.0198,0.038 2,-4.187 -0.0202,0.047 1.8125,-4.688 -0.0107,0.03 1.6875,-5.063 -0.0102,0.034 1.5,-5.438 -0.0092,0.038 2.5,-11.6875 -0.0097,0.0572 1.5625,-12.5625 -0.0044,0.0533 0.5625,-12.9375 3e-4,0.0644 -0.6875,-12.9375 0.0073,0.0694 -2,-12.5625 0.0144,0.0674 -3.125,-11.6875 0.016,0.0516 -1.9375,-5.4375 0.0133,0.0342 -2.125,-5.0625 0.0168,0.0369 -2.3125,-4.6875 0.0255,0.0468 -2.5,-4.1875 0.0293,0.0449 -2.625,-3.68748 0.0334,0.04311 -2.6875,-3.1875 0.0668,0.06854 -2.81251,-2.5 0.08422,0.06368 -2.9375,-1.875 L 5.62514,2.18057 2.68764,0.993073 2.85308,1.0363 -0.0844213,0.6613 Z M 11.6375,136.917 l 3.8556,2.871 -8.87893,-1.079 6.19093,-6.456 z"
         fill="#920000"
         transform="matrix(1,0,0,-1,472.5,324.209)"
         id="path6794" /><path
         d="m 352.5,292.667 c 0,-2.301 1.866,-4.167 4.167,-4.167 h 58.666 c 2.302,0 4.167,1.866 4.167,4.167 v 16.666 c 0,2.302 -1.865,4.167 -4.167,4.167 h -58.666 c -2.301,0 -4.167,-1.865 -4.167,-4.167 z"
         stroke="#000000"
         stroke-width="1.33333"
         stroke-miterlimit="8"
         fill="#ffffff"
         fill-rule="evenodd"
         id="path6796" /><text
         font-family="Arial, Arial_MSFontService, sans-serif"
         font-weight="400"
         font-size="12px"
         transform="translate(367.163,306)"
         id="text6798">Extend</text><path
         d="m 291.5,155.333 c 0,-2.669 2.164,-4.833 4.833,-4.833 h 39.334 c 2.669,0 4.833,2.164 4.833,4.833 v 19.334 c 0,2.669 -2.164,4.833 -4.833,4.833 h -39.334 c -2.669,0 -4.833,-2.164 -4.833,-4.833 z"
         stroke="#454545"
         stroke-width="1.33333"
         stroke-miterlimit="8"
         fill="#f2f2f2"
         fill-rule="evenodd"
         id="path6800" /><text
         fill="#454545"
         font-family="Arial, Arial_MSFontService, sans-serif"
         font-weight="400"
         font-size="11px"
         transform="translate(294.698,162)"
         id="text6804">assign &amp; <tspan
   font-size="11px"
   x="2.0799899"
   y="13"
   id="tspan6802">position</tspan></text><path
         d="m 234.5,132.5 c 0,-2.209 1.791,-4 4,-4 h 60 c 2.209,0 4,1.791 4,4 v 16 c 0,2.209 -1.791,4 -4,4 h -60 c -2.209,0 -4,-1.791 -4,-4 z"
         stroke="#000000"
         stroke-width="1.33333"
         stroke-miterlimit="8"
         fill="#ffffff"
         fill-rule="evenodd"
         id="path6806" /><text
         font-family="Arial, Arial_MSFontService, sans-serif"
         font-weight="400"
         font-size="12px"
         transform="translate(246.309,145)"
         id="text6808">Initialize</text><path
         d="m 365.5,508.833 c 0,-1.288 1.045,-2.333 2.333,-2.333 h 47.334 c 1.288,0 2.333,1.045 2.333,2.333 v 9.334 c 0,1.288 -1.045,2.333 -2.333,2.333 h -47.334 c -1.288,0 -2.333,-1.045 -2.333,-2.333 z"
         stroke="#454545"
         stroke-width="1.33333"
         stroke-miterlimit="8"
         fill="#f2f2f2"
         fill-rule="evenodd"
         id="path6810" /><text
         fill="#454545"
         font-family="Arial, Arial_MSFontService, sans-serif"
         font-weight="400"
         font-size="11px"
         transform="translate(369.983,517)"
         id="text6812">first write</text><path
         d="m 376.5,140.667 c 0,-2.301 1.866,-4.167 4.167,-4.167 h 58.666 c 2.302,0 4.167,1.866 4.167,4.167 v 16.666 c 0,2.302 -1.865,4.167 -4.167,4.167 h -58.666 c -2.301,0 -4.167,-1.865 -4.167,-4.167 z"
         stroke="#000000"
         stroke-width="1.33333"
         stroke-miterlimit="8"
         fill="#ffffff"
         fill-rule="evenodd"
         id="path6814" /><text
         font-family="Arial, Arial_MSFontService, sans-serif"
         font-weight="400"
         font-size="12px"
         transform="translate(384.641,153)"
         id="text6816">Reassign</text><path
         d="m 504.5,621.5 c 0,-2.209 1.791,-4 4,-4 h 59 c 2.209,0 4,1.791 4,4 v 16 c 0,2.209 -1.791,4 -4,4 h -59 c -2.209,0 -4,-1.791 -4,-4 z"
         stroke="#000000"
         stroke-width="1.33333"
         stroke-miterlimit="8"
         fill="#ffffff"
         fill-rule="evenodd"
         id="path6818" /><text
         font-family="Arial, Arial_MSFontService, sans-serif"
         font-weight="400"
         font-size="12px"
         transform="translate(517.116,634)"
         id="text6820">Reduce</text><path
         d="m 405.5,315.667 c 0,-2.301 1.866,-4.167 4.167,-4.167 h 58.666 c 2.302,0 4.167,1.866 4.167,4.167 v 16.666 c 0,2.302 -1.865,4.167 -4.167,4.167 h -58.666 c -2.301,0 -4.167,-1.865 -4.167,-4.167 z"
         stroke="#000000"
         stroke-width="1.33333"
         stroke-miterlimit="8"
         fill="#ffffff"
         fill-rule="evenodd"
         id="path6822" /><text
         font-family="Arial, Arial_MSFontService, sans-serif"
         font-weight="400"
         font-size="12px"
         transform="translate(410.433,328)"
         id="text6824">Reallocate</text><path
         d="m 665.5,653.667 c 0,-2.301 1.866,-4.167 4.167,-4.167 h 58.666 c 2.302,0 4.167,1.866 4.167,4.167 v 16.666 c 0,2.302 -1.865,4.167 -4.167,4.167 h -58.666 c -2.301,0 -4.167,-1.865 -4.167,-4.167 z"
         stroke="#000000"
         stroke-width="1.33333"
         stroke-miterlimit="8"
         fill="#ffffff"
         fill-rule="evenodd"
         id="path6826" /><text
         font-family="Arial, Arial_MSFontService, sans-serif"
         font-weight="400"
         font-size="12px"
         transform="translate(670.449,666)"
         id="text6828">Deallocate</text><path
         d="m 437.5,199.5 c 0,-1.657 1.343,-3 3,-3 h 48 c 1.657,0 3,1.343 3,3 v 12 c 0,1.657 -1.343,3 -3,3 h -48 c -1.657,0 -3,-1.343 -3,-3 z"
         stroke="#454545"
         stroke-width="1.33333"
         stroke-miterlimit="8"
         fill="#f2f2f2"
         fill-rule="evenodd"
         id="path6830" /><text
         fill="#454545"
         font-family="Arial, Arial_MSFontService, sans-serif"
         font-weight="400"
         font-size="11px"
         transform="translate(439.381,209)"
         id="text6834">++, <tspan
   font-size="11px"
   x="18.3333"
   y="0"
   id="tspan6832">--</tspan>, etc.</text><path
         d="m 235.5,289.667 c 0,-2.301 1.866,-4.167 4.167,-4.167 h 58.666 c 2.302,0 4.167,1.866 4.167,4.167 v 16.666 c 0,2.302 -1.865,4.167 -4.167,4.167 h -58.666 c -2.301,0 -4.167,-1.865 -4.167,-4.167 z"
         stroke="#000000"
         stroke-width="1.33333"
         stroke-miterlimit="8"
         fill="#ffffff"
         fill-rule="evenodd"
         id="path6836" /><text
         font-family="Arial, Arial_MSFontService, sans-serif"
         font-weight="400"
         font-size="12px"
         transform="translate(247.459,302)"
         id="text6838">Allocate</text><path
         d="m 412.5,176.667 c 0,-2.301 1.866,-4.167 4.167,-4.167 h 58.666 c 2.302,0 4.167,1.866 4.167,4.167 v 16.666 c 0,2.302 -1.865,4.167 -4.167,4.167 h -58.666 c -2.301,0 -4.167,-1.865 -4.167,-4.167 z"
         stroke="#000000"
         stroke-width="1.33333"
         stroke-miterlimit="8"
         fill="#ffffff"
         fill-rule="evenodd"
         id="path6840" /><text
         font-family="Arial, Arial_MSFontService, sans-serif"
         font-weight="400"
         font-size="12px"
         transform="translate(417.06,189)"
         id="text6842">Reposition</text><path
         d="m 568.5,523.833 c 0,-1.288 1.045,-2.333 2.333,-2.333 h 47.334 c 1.288,0 2.333,1.045 2.333,2.333 v 9.334 c 0,1.288 -1.045,2.333 -2.333,2.333 h -47.334 c -1.288,0 -2.333,-1.045 -2.333,-2.333 z"
         stroke="#454545"
         stroke-width="1.33333"
         stroke-miterlimit="8"
         fill="#f2f2f2"
         fill-rule="evenodd"
         id="path6844" /><text
         fill="#454545"
         font-family="Arial, Arial_MSFontService, sans-serif"
         font-weight="400"
         font-size="12px"
         transform="translate(570.421,533)"
         id="text6846">last write</text><path
         d="m 516.5,501.667 c 0,-2.301 1.866,-4.167 4.167,-4.167 h 59.666 c 2.302,0 4.167,1.866 4.167,4.167 v 16.666 c 0,2.302 -1.865,4.167 -4.167,4.167 h -59.666 c -2.301,0 -4.167,-1.865 -4.167,-4.167 z"
         stroke="#000000"
         stroke-width="1.33333"
         stroke-miterlimit="8"
         fill="#ffffff"
         fill-rule="evenodd"
         id="path6848" /><text
         font-family="Arial, Arial_MSFontService, sans-serif"
         font-weight="400"
         font-size="12px"
         transform="translate(535.74,514)"
         id="text6850">Clear</text><path
         d="M 0.0117284,-0.666564 21.3361,-0.291355 42.4842,0.834873 63.3186,2.64929 83.6526,5.08936 103.3,8.09277 l 18.836,3.56703 17.838,4.0682 16.649,4.5066 7.892,2.4427 7.454,2.443 7.143,2.6316 6.706,2.632 6.333,2.759 5.835,2.7608 5.467,2.8907 4.903,2.9544 4.47,2.9589 3.915,3.0311 3.42,3.1029 2.797,3.1155 2.237,3.131 1.673,3.2171 0.337,1.0538 -1.27,0.4064 -0.32,-0.9998 0.044,0.1044 -1.625,-3.125 0.048,0.0799 -2.187,-3.0625 0.046,0.0579 -2.75,-3.0625 0.049,0.0483 -3.375,-3.0625 0.039,0.0334 -3.875,-3 0.04,0.0288 -4.437,-2.9375 0.024,0.0151 -4.875,-2.9375 0.032,0.0184 -5.437,-2.875 0.026,0.0132 -5.812,-2.75 0.019,0.0086 -6.313,-2.75 0.023,0.0094 -6.688,-2.625 0.014,0.005 -7.125,-2.625 0.022,0.0079 -7.437,-2.4375 0.01,0.0034 -7.875,-2.4375 0.023,0.0066 -16.625,-4.5 0.026,0.0065 -17.812,-4.0625 0.024,0.005 -18.813,-3.56247 0.024,0.00398 -19.6252,-3 0.0213,0.00291 -20.3125,-2.4375 0.0216,0.00223 -20.8125,-1.8125 0.0223,0.00157 -21.125,-1.125 0.0238,8.4e-4 L -0.0117284,0.666564 Z M 226.57,61.5623 l 3.436,-3.3622 -2.447,8.603 -5.414,-7.1193 z"
         fill="#0000ff"
         transform="matrix(0,1,1,0,168.5,70.5001)"
         id="path6852" /><path
         d="m 150.5,630.5 c -4.971,0 -9,-9.533 -9,-21.292 V 487.641 c 0,-11.76 -4.029,-21.292 -9,-21.292 4.971,0 9,-9.533 9,-21.292 V 322.792 c 0,-11.759 4.03,-21.292 9,-21.292"
         stroke="#454545"
         stroke-width="1.33333"
         stroke-miterlimit="8"
         fill="none"
         fill-rule="evenodd"
         id="path6854" /><path
         d="m 259.167,152.496 0.786,129.06 -1.333,0.009 -0.787,-129.061 z m 0.119,129.065 3.984,-2.691 -3.951,8.024 -4.049,-7.976 z"
         fill="#008080"
         id="path6856" /><path
         d="m 453.5,493.667 c 0,-2.301 1.866,-4.167 4.167,-4.167 h 58.666 c 2.302,0 4.167,1.866 4.167,4.167 v 16.666 c 0,2.302 -1.865,4.167 -4.167,4.167 h -58.666 c -2.301,0 -4.167,-1.865 -4.167,-4.167 z"
         stroke="#000000"
         stroke-width="1.33333"
         stroke-miterlimit="8"
         fill="#ffffff"
         fill-rule="evenodd"
         id="path6858" /><text
         font-family="Arial, Arial_MSFontService, sans-serif"
         font-weight="400"
         font-size="12px"
         transform="translate(472.618,506)"
         id="text6860">Write</text><path
         d="m 390.5,485.667 c 0,-2.301 1.866,-4.167 4.167,-4.167 h 58.666 c 2.302,0 4.167,1.866 4.167,4.167 v 16.666 c 0,2.302 -1.865,4.167 -4.167,4.167 h -58.666 c -2.301,0 -4.167,-1.865 -4.167,-4.167 z"
         stroke="#000000"
         stroke-width="1.33333"
         stroke-miterlimit="8"
         fill="#ffffff"
         fill-rule="evenodd"
         id="path6862" /><text
         font-family="Arial, Arial_MSFontService, sans-serif"
         font-weight="400"
         font-size="12px"
         transform="translate(402.068,499)"
         id="text6864">Initialize</text><path
         d="m 451.5,417.667 c 0,-2.301 1.866,-4.167 4.167,-4.167 h 76.666 c 2.302,0 4.167,1.866 4.167,4.167 v 16.666 c 0,2.302 -1.865,4.167 -4.167,4.167 h -76.666 c -2.301,0 -4.167,-1.865 -4.167,-4.167 z"
         stroke="#bfbfbf"
         stroke-width="1.33333"
         stroke-miterlimit="8"
         fill="#ffffff"
         fill-rule="evenodd"
         id="path6866" /><text
         font-family="Arial, Arial_MSFontService, sans-serif"
         font-weight="400"
         font-size="12px"
         transform="translate(460.459,430)"
         id="text6876">Dereference<tspan
   font-size="12px"
   x="-358.741"
   y="-131"
   id="tspan6868">Upper</tspan><tspan
   font-size="12px"
   x="-359.741"
   y="-117"
   id="tspan6870">B</tspan>ound<tspan
   font-size="12px"
   x="-356.45599"
   y="196"
   id="tspan6872">L</tspan>ower <tspan
   font-size="12px"
   x="-357.45599"
   y="210"
   id="tspan6874">B</tspan>ound</text><path
         d="m 358.319,357.667 -0.5,1.937 c -0.025,0.095 -0.07,0.183 -0.132,0.259 l -1.5,1.812 c -0.035,0.042 -0.074,0.08 -0.118,0.112 l -2.375,1.75 c -0.028,0.02 -0.057,0.038 -0.088,0.054 l -3,1.563 -3.64,1.347 -4.069,1.021 -4.314,0.638 -4.497,0.256 -2.131,0.307 0.138,-0.035 -2.188,0.812 0.111,-0.053 -2.187,1.312 0.097,-0.071 -2.063,1.813 -2.011,2.2 -1.892,2.57 -3.517,6.304 -2.964,7.362 -2.352,8.307 -1.484,8.866 -0.492,9.176 0.563,9.174 1.553,8.863 2.483,8.299 3.162,7.43 3.771,6.293 2.014,2.556 2.086,2.204 -0.132,-0.108 2.962,1.85 -0.706,1.131 -2.962,-1.85 c -0.048,-0.03 -0.092,-0.066 -0.131,-0.108 l -2.165,-2.296 -2.11,-2.694 -3.854,-6.457 -3.213,-7.57 -2.518,-8.451 -1.571,-9.011 -0.563,-9.327 0.508,-9.324 1.516,-9.009 2.399,-8.443 3.036,-7.513 3.608,-6.446 1.982,-2.679 2.114,-2.301 2.063,-1.812 c 0.03,-0.027 0.062,-0.05 0.097,-0.071 l 2.187,-1.313 c 0.036,-0.021 0.073,-0.039 0.111,-0.053 l 2.188,-0.812 c 0.044,-0.017 0.09,-0.029 0.138,-0.035 l 2.244,-0.319 4.378,-0.244 4.185,-0.612 3.931,-0.978 3.485,-1.279 3,-1.562 -0.087,0.054 2.375,-1.75 -0.118,0.112 1.5,-1.812 -0.132,0.258 0.5,-1.938 z m -28.898,102.532 6.079,6.561 -8.896,0.927 z"
         fill="#0000ff"
         id="path6878" /><path
         d="m 335.641,467.152 -2.313,0.5 0.194,-0.075 -2.375,1.375 0.137,-0.106 -2.25,2.25 0.066,-0.076 -2.25,3.062 -2.08,3.743 -2.04,4.394 -1.984,5.086 -1.799,5.587 -1.679,6.098 -1.493,6.472 -2.493,14.154 -1.556,15.015 -0.56,15.581 0.249,3.871 -0.012,-0.095 0.812,3.875 1.233,3.873 1.722,3.802 2.217,3.748 2.658,3.767 3.092,3.708 3.53,3.651 3.914,3.664 4.281,3.535 9.649,6.845 11.017,6.533 12.208,6.102 13.274,5.607 14.213,5.049 15.028,4.426 15.718,3.804 16.217,3.055 16.591,2.245 16.902,1.371 10.31,0.299 -0.038,1.333 -10.38,-0.303 -16.973,-1.379 -16.659,-2.255 -16.283,-3.07 -15.782,-3.821 -15.097,-4.449 -14.286,-5.076 -13.352,-5.643 -12.292,-6.148 -11.108,-6.592 -9.726,-6.905 -4.344,-3.59 -3.961,-3.711 -3.595,-3.724 -3.158,-3.792 -2.717,-3.858 -2.283,-3.877 -1.778,-3.948 -1.267,-4.002 -0.812,-3.875 c -0.007,-0.031 -0.011,-0.063 -0.013,-0.095 l -0.251,-4.003 0.565,-15.67 1.57,-15.11 2.506,-14.221 1.507,-6.528 1.696,-6.152 1.826,-5.663 2.017,-5.163 2.084,-4.482 2.17,-3.882 2.25,-3.063 c 0.02,-0.027 0.042,-0.053 0.066,-0.076 l 2.25,-2.25 c 0.041,-0.041 0.087,-0.077 0.138,-0.106 l 2.375,-1.375 c 0.06,-0.035 0.125,-0.06 0.193,-0.075 l 2.312,-0.5 z m 149.113,162.424 7.88,4.231 -8.113,3.766 z"
         fill="#0000ff"
         id="path6880" /><path
         d="m 268.199,156.829 0.787,129.061 -1.334,0.008 -0.786,-129.061 z m -0.666,0.004 -3.984,2.691 3.951,-8.024 4.049,7.976 z"
         fill="#3333cc"
         id="path6882" /><path
         d="m 0.0178735,-0.666427 16.3125265,0.4375 16.2235,1.314437 15.907,2.06588 15.5952,2.81757 15.0329,3.50681 14.4074,4.13343 13.6576,4.6979 12.785,5.2004 11.725,5.6418 10.603,6.021 9.36,6.4046 4.165,3.3428 3.779,3.3993 3.405,3.4659 2.968,3.4715 2.594,3.5393 2.16,3.6148 1.717,3.6186 1.277,3.6272 0.773,3.7106 0.263,3.7142 0.313,7.2672 0.809,7.0782 1.367,7.0106 1.864,6.8269 2.238,6.65 2.731,6.324 3.044,5.961 3.353,5.585 3.718,5.14 3.908,4.649 4.145,4.079 4.323,3.454 4.437,2.768 -0.085,-0.045 4.688,2.063 -0.122,-0.04 2.831,0.637 -0.293,1.301 -2.831,-0.638 c -0.042,-0.009 -0.083,-0.022 -0.122,-0.04 l -4.687,-2.062 c -0.03,-0.013 -0.058,-0.028 -0.085,-0.045 l -4.563,-2.857 -4.427,-3.546 -4.23,-4.171 -3.967,-4.726 -3.782,-5.235 -3.397,-5.665 -3.081,-6.039 -2.769,-6.426 -2.262,-6.725 -1.886,-6.9231 -1.383,-7.1144 -0.816,-7.1718 -0.312,-7.2328 -0.237,-3.5358 -0.727,-3.5394 -1.223,-3.4978 -1.658,-3.5064 -2.09,-3.5102 -2.531,-3.4607 -2.907,-3.4035 -3.345,-3.4091 -3.721,-3.3507 -4.085,-3.2822 -9.265,-6.3454 -10.522,-5.979 -11.65,-5.6082 L 106.721,19.5679 93.1286,14.8908 78.786,10.7742 63.8189,7.28104 48.2891,4.47361 32.4461,2.41449 16.2946,1.10393 -0.0178735,0.666427 Z M 217.468,148.976 l 7.256,5.229 -8.537,2.668 z"
         fill="#0000ff"
         transform="matrix(0,1,1,0,276.5,152.5)"
         id="path6884" /><text
         font-family="Arial, Arial_MSFontService, sans-serif"
         font-weight="400"
         font-size="12px"
         transform="translate(250.787,720)"
         id="text6904">C<tspan
   font-size="12px"
   x="8.6666603"
   y="0"
   id="tspan6886">reate</tspan><tspan
   font-size="12px"
   x="0.66667199"
   y="14"
   id="tspan6888">Object</tspan><tspan
   font-size="12px"
   x="224.09"
   y="16"
   id="tspan6890">Object</tspan><tspan
   font-size="12px"
   x="224.09"
   y="30"
   id="tspan6892">I</tspan><tspan
   font-size="12px"
   x="227.424"
   y="30"
   id="tspan6894">n</tspan>U<tspan
   font-size="12px"
   x="246.09"
   y="30"
   id="tspan6896">se</tspan><tspan
   font-size="12px"
   x="427.327"
   y="-1"
   id="tspan6898">D</tspan><tspan
   font-size="12px"
   x="435.99399"
   y="-1"
   id="tspan6900">estroy</tspan><tspan
   font-size="12px"
   x="430.66"
   y="13"
   id="tspan6902">Object</tspan></text><path
         d="m 651.5,703.5 c 0,4.971 -9.533,9 -21.292,9 H 513.132 c -11.76,0 -21.292,4.029 -21.292,9 0,-4.971 -9.533,-9 -21.293,-9 H 352.792 c -11.759,0 -21.292,-4.03 -21.292,-9"
         stroke="#454545"
         stroke-width="1.33333"
         stroke-miterlimit="8"
         fill="none"
         fill-rule="evenodd"
         id="path6906" /><path
         d="m 560.5,641.667 c 0,-2.301 1.866,-4.167 4.167,-4.167 h 58.666 c 2.302,0 4.167,1.866 4.167,4.167 v 16.666 c 0,2.302 -1.865,4.167 -4.167,4.167 h -58.666 c -2.301,0 -4.167,-1.865 -4.167,-4.167 z"
         stroke="#000000"
         stroke-width="1.33333"
         stroke-miterlimit="8"
         fill="#ffffff"
         fill-rule="evenodd"
         id="path6908" /><text
         font-family="Arial, Arial_MSFontService, sans-serif"
         font-weight="400"
         font-size="12px"
         transform="translate(564.868,654)"
         id="text6914">Reallocate<tspan
   font-size="12px"
   x="-479.052"
   y="-193"
   id="tspan6910">Object</tspan><tspan
   font-size="12px"
   x="-473.38599"
   y="-179"
   id="tspan6912">Size</tspan></text></g></g></svg>
