<?xml version="1.0" encoding="UTF-8" standalone="no"?>
<!-- Created with Inkscape (http://www.inkscape.org/) -->

<svg
   width="185.70436mm"
   height="194.24796mm"
   viewBox="0 0 185.70436 194.24795"
   version="1.1"
   id="svg1"
   inkscape:version="1.3.2 (091e20e, 2023-11-25, custom)"
   sodipodi:docname="_MEM Model.svg"
   xml:space="preserve"
   xmlns:inkscape="http://www.inkscape.org/namespaces/inkscape"
   xmlns:sodipodi="http://sodipodi.sourceforge.net/DTD/sodipodi-0.dtd"
   xmlns="http://www.w3.org/2000/svg"
   xmlns:svg="http://www.w3.org/2000/svg"><sodipodi:namedview
     id="namedview1"
     pagecolor="#ffffff"
     bordercolor="#000000"
     borderopacity="0.25"
     inkscape:showpageshadow="2"
     inkscape:pageopacity="0.0"
     inkscape:pagecheckerboard="0"
     inkscape:deskcolor="#d1d1d1"
     inkscape:document-units="mm"
     inkscape:zoom="1.0307169"
     inkscape:cx="-59.667209"
     inkscape:cy="-8.2466874"
     inkscape:window-width="2560"
     inkscape:window-height="1377"
     inkscape:window-x="-8"
     inkscape:window-y="859"
     inkscape:window-maximized="1"
     inkscape:current-layer="layer1" /><defs
     id="defs1" /><g
     inkscape:label="Layer 1"
     inkscape:groupmode="layer"
     id="layer1"
     transform="translate(-120.94184,-151.04579)"><g
       transform="matrix(0.26458333,0,0,0.26458333,194.6283,116.08074)"
       id="g75"><path
         d="m -75.5001,540.976 c 0,-8.547 6.9288,-15.476 15.4758,-15.476 H 224.024 c 8.547,0 15.476,6.929 15.476,15.476 v 122.048 c 0,8.547 -6.929,15.476 -15.476,15.476 H -60.0243 c -8.547,0 -15.4758,-6.929 -15.4758,-15.476 z"
         stroke="#7b7b7b"
         stroke-width="0.666667"
         stroke-miterlimit="8"
         fill="#f2f2f2"
         fill-rule="evenodd"
         id="path1" /><text
         font-family="'Calibri Light', 'Calibri Light_MSFontService', sans-serif"
         font-weight="300"
         font-size="13px"
         transform="translate(46.1664,542)"
         id="text1">MUS (</text><text
         font-family="'Calibri Light', 'Calibri Light_MSFontService', sans-serif"
         font-weight="300"
         font-size="13px"
         transform="translate(78.9997,542)"
         id="text2">object</text><text
         font-family="'Calibri Light', 'Calibri Light_MSFontService', sans-serif"
         font-weight="300"
         font-size="13px"
         transform="translate(112.666,542)"
         id="text3">)</text><path
         d="m -187.5,243.001 c 0,-10.77 8.731,-19.501 19.501,-19.501 H 88.9991 c 10.7701,0 19.5009,8.731 19.5009,19.501 v 103.998 c 0,10.77 -8.7308,19.501 -19.5009,19.501 H -167.999 c -10.77,0 -19.501,-8.731 -19.501,-19.501 z"
         stroke="#7b7b7b"
         stroke-width="0.666667"
         stroke-miterlimit="8"
         fill="#f2f2f2"
         fill-rule="evenodd"
         id="path3" /><text
         font-family="'Calibri Light', 'Calibri Light_MSFontService', sans-serif"
         font-weight="300"
         font-size="13px"
         transform="translate(-98.4174,240)"
         id="text4">MAD (</text><text
         font-family="'Calibri Light', 'Calibri Light_MSFontService', sans-serif"
         font-weight="300"
         font-size="13px"
         transform="translate(-64.4174,240)"
         id="text5">pointer/owner</text><text
         font-family="'Calibri Light', 'Calibri Light_MSFontService', sans-serif"
         font-weight="300"
         font-size="13px"
         transform="translate(14.7492,240)"
         id="text6">)</text><path
         d="m -188.5,409.667 c 0,-10.033 8.134,-18.167 18.167,-18.167 H 63.3329 c 10.0334,0 18.1671,8.134 18.1671,18.167 v 72.666 c 0,10.033 -8.1337,18.167 -18.1671,18.167 H -170.333 c -10.033,0 -18.167,-8.134 -18.167,-18.167 z"
         stroke="#7b7b7b"
         stroke-width="0.666667"
         stroke-miterlimit="8"
         fill="#f2f2f2"
         fill-rule="evenodd"
         id="path6" /><text
         font-family="'Calibri Light', 'Calibri Light_MSFontService', sans-serif"
         font-weight="300"
         font-size="13px"
         transform="translate(-81.2727,409)"
         id="text7">MAL (</text><text
         font-family="'Calibri Light', 'Calibri Light_MSFontService', sans-serif"
         font-weight="300"
         font-size="13px"
         transform="translate(-46.7726,409)"
         id="text8">object</text><text
         font-family="'Calibri Light', 'Calibri Light_MSFontService', sans-serif"
         font-weight="300"
         font-size="13px"
         transform="translate(-13.106,409)"
         id="text9">)</text><path
         d="m 81.5001,721.667 c 0,-10.586 8.5813,-19.167 19.1669,-19.167 h 227.666 c 10.586,0 19.167,8.581 19.167,19.167 v 76.666 c 0,10.586 -8.581,19.167 -19.167,19.167 H 100.667 c -10.5856,0 -19.1669,-8.581 -19.1669,-19.167 z"
         stroke="#7b7b7b"
         stroke-width="0.666667"
         stroke-miterlimit="8"
         fill="#f2f2f2"
         fill-rule="evenodd"
         id="path9" /><text
         font-family="'Calibri Light', 'Calibri Light_MSFontService', sans-serif"
         font-weight="300"
         font-size="13px"
         transform="translate(178.8,719)"
         id="text10">MDL (</text><text
         font-family="'Calibri Light', 'Calibri Light_MSFontService', sans-serif"
         font-weight="300"
         font-size="13px"
         transform="translate(210.967,719)"
         id="text11">object</text><text
         font-family="'Calibri Light', 'Calibri Light_MSFontService', sans-serif"
         font-weight="300"
         font-size="13px"
         transform="translate(244.633,719)"
         id="text12">)</text><path
         d="m 41.5001,635.833 c 0,-2.393 1.9401,-4.333 4.3333,-4.333 h 58.3336 c 2.393,0 4.333,1.94 4.333,4.333 v 17.334 c 0,2.393 -1.94,4.333 -4.333,4.333 H 45.8334 c -2.3932,0 -4.3333,-1.94 -4.3333,-4.333 z"
         stroke="#000000"
         stroke-width="0.666667"
         stroke-miterlimit="8"
         fill="#ffffff"
         fill-rule="evenodd"
         id="path12" /><text
         font-family="'Calibri Light', 'Calibri Light_MSFontService', sans-serif"
         font-weight="300"
         font-size="13px"
         transform="translate(61.0461,648)"
         id="text13">Read</text><path
         d="m 321.594,782.526 2.568,-0.365 -0.083,0.023 2.563,-1.079 -0.061,0.033 2.553,-1.77 -0.041,0.033 2.537,-2.438 -0.027,0.029 2.517,-3.084 -0.018,0.025 2.492,-3.706 -0.012,0.021 2.462,-4.305 -0.009,0.017 2.427,-4.881 -0.007,0.014 2.387,-5.434 -0.005,0.012 2.342,-5.964 -0.004,0.011 2.291,-6.471 -0.003,0.009 2.237,-6.954 -0.003,0.008 2.177,-7.416 -0.002,0.007 2.111,-7.853 -0.002,0.007 2.041,-8.269 -0.002,0.007 1.966,-8.66 -0.002,0.008 3.685,-18.403 -10e-4,0.01 3.324,-19.693 -0.002,0.009 2.923,-20.799 -0.001,0.009 2.482,-21.721 -0.001,0.008 2,-22.458 -10e-4,0.008 1.478,-23.011 v 0.009 l 0.916,-23.38 v 0.009 l 0.314,-23.564 v 0.018 l -0.498,-11.794 0.002,0.028 -1.474,-11.771 0.004,0.026 -2.42,-11.724 0.006,0.024 -3.332,-11.655 0.007,0.022 -4.214,-11.563 0.008,0.021 -5.064,-11.448 0.009,0.019 -5.883,-11.31 0.01,0.018 -6.67,-11.149 0.01,0.016 -7.426,-10.964 0.01,0.014 -8.15,-10.756 0.01,0.013 -8.842,-10.527 0.01,0.012 -9.504,-10.272 0.011,0.01 -10.134,-9.996 0.01,0.01 -10.732,-9.697 0.011,0.01 -11.299,-9.375 0.01,0.009 -11.834,-9.029 0.011,0.008 -12.338,-8.66 0.01,0.008 -12.81,-8.269 0.011,0.007 -13.251,-7.853 0.011,0.006 -13.661,-7.416 0.011,0.006 -14.038,-6.955 0.011,0.005 -14.385,-6.47 0.012,0.004 -14.7,-5.964 0.012,0.005 -14.984,-5.434 0.012,0.004 -15.235,-4.881 0.013,0.004 -15.456,-4.305 0.013,0.003 -15.644,-3.706 0.013,0.003 -15.8021,-3.084 0.0134,0.002 -15.9277,-2.438 0.0138,0.002 -16.0221,-1.771 0.0143,0.001 -16.0851,-1.079 0.0147,10e-4 -10.7847,-0.244 0.0151,-0.666 10.7921,0.244 16.0997,1.08 16.0362,1.772 15.9413,2.44 15.8151,3.087 15.657,3.709 15.468,4.308 15.247,4.885 14.995,5.438 14.711,5.969 14.396,6.476 14.05,6.96 13.671,7.422 13.262,7.86 12.821,8.275 12.349,8.667 11.845,9.037 11.31,9.383 10.743,9.706 10.144,10.007 9.515,10.284 8.853,10.539 8.161,10.771 7.436,10.979 6.68,11.165 5.893,11.328 5.073,11.467 4.222,11.585 3.339,11.679 2.424,11.749 1.478,11.798 0.5,11.816 -0.315,23.578 -0.916,23.388 -1.479,23.019 -2.001,22.467 -2.482,21.729 -2.924,20.808 -3.326,19.702 -3.687,18.412 -1.967,8.667 -2.043,8.275 -2.113,7.86 -2.178,7.424 -2.239,6.963 -2.296,6.481 -2.346,5.975 -2.393,5.448 -2.435,4.896 -2.473,4.324 -2.507,3.729 -2.54,3.111 -2.571,2.471 -2.603,1.806 -2.635,1.109 -2.61,0.371 z M 37.832,279.621 l 2.5755,4.059 -7.9074,-4.18 8.0884,-3.818 z"
         id="path13" /><text
         font-family="'Calibri Light', 'Calibri Light_MSFontService', sans-serif"
         font-weight="300"
         font-size="13px"
         transform="translate(351.088,179)"
         id="text14">Other Object</text><text
         font-family="'Calibri Light', 'Calibri Light_MSFontService', sans-serif"
         font-weight="300"
         font-size="13px"
         transform="translate(367.835,195)"
         id="text15">/ NULL</text><path
         d="m -1.82802,267.145 0.29055,-1.592 0.874961,-1.617 1.407597,-1.58 1.914402,-1.55 2.4034,-1.527 2.87644,-1.506 3.33337,-1.484 3.7738,-1.461 4.1974,-1.435 4.6037,-1.407 4.9929,-1.376 5.366,-1.343 11.7722,-2.573 13.0498,-2.404 14.1843,-2.211 15.1773,-1.994 16.0289,-1.754 16.738,-1.488 17.306,-1.199 17.732,-0.887 18.017,-0.55 18.155,-0.188 18.151,-0.189 h -0.006 l 18.009,-0.549 h -0.006 l 17.726,-0.886 h -0.007 l 17.3,-1.199 -0.006,0.001 16.731,-1.488 -0.006,0.001 16.021,-1.753 -0.007,0.001 15.17,-1.993 -0.008,0.001 14.176,-2.21 -0.009,0.002 13.04,-2.402 -0.011,0.002 11.762,-2.571 -0.01,0.003 5.357,-1.341 -0.007,0.002 4.984,-1.374 -0.009,0.002 4.595,-1.404 -0.011,0.004 4.186,-1.431 -0.012,0.004 3.76,-1.455 -0.016,0.006 3.316,-1.476 -0.019,0.009 2.855,-1.494 -0.024,0.014 2.375,-1.51 -0.031,0.023 1.792,-1.451 0.419,0.518 -1.806,1.463 -2.403,1.527 -2.877,1.506 -3.333,1.484 -3.774,1.46 -4.197,1.435 -4.604,1.407 -4.993,1.377 -5.366,1.343 -11.772,2.573 -13.05,2.403 -14.184,2.211 -15.178,1.995 -16.028,1.753 -16.739,1.488 -17.306,1.2 -17.732,0.886 -18.016,0.55 -18.155,0.188 -18.152,0.189 h 0.007 l -18.01,0.549 h 0.006 l -17.725,0.886 h 0.006 l -17.3,1.199 0.007,-0.001 -16.732,1.488 h 0.007 l -16.0218,1.752 0.0072,-0.001 -15.1698,1.993 0.0079,-0.001 -14.1758,2.21 0.0091,-0.002 -13.0399,2.403 0.0108,-0.003 -11.7619,2.571 0.0097,-0.002 -5.3573,1.341 0.0076,-0.002 -4.9846,1.374 0.0089,-0.003 -4.5942,1.404 0.0105,-0.003 -4.1859,1.431 0.0124,-0.005 -3.7599,1.456 0.0153,-0.007 -3.31618,1.477 0.01902,-0.01 -2.85469,1.495 0.02418,-0.014 -2.37546,1.509 0.03103,-0.022 -1.87848,1.521 0.03908,-0.037 -1.363747,1.53 0.0443104,-0.063 -0.8312614,1.537 0.034739,-0.099 -0.281031,1.539 z m 385.50502,-60.968 -4.789,0.416 7.353,-5.093 -0.338,8.938 z"
         id="path15" /><path
         d="M 0.0491148,-0.329695 2.68668,0.063223 2.58845,0.722613 -0.0491148,0.329695 Z M 4.70957,0.518202 5.32098,0.783955 5.05522,1.39536 4.44382,1.12961 Z M 7.1552,1.58121 8.19627,2.03373 9.49627,2.97264 9.10594,3.51308 7.83517,2.59528 7.89746,2.63076 6.88945,2.19262 Z m 3.9624,2.56242 0.5405,0.39034 -0.3904,0.54045 -0.5404,-0.39034 z M 13.1248,5.97477 14.968,7.9019 14.4862,8.36269 12.643,6.43556 Z m 3.0624,3.57493 0.3761,0.5505 -0.5505,0.376 -0.376,-0.55043 z m 1.5043,2.2019 0.432,0.6322 0.8338,1.767 -0.6029,0.2845 -0.8225,-1.743 0.0262,0.0458 -0.4171,-0.6105 z m 2.1194,4.2079 0.2845,0.6029 -0.6029,0.2846 -0.2845,-0.6029 z m 0.9208,2.5515 0.7286,2.5652 -0.6413,0.1822 -0.7286,-2.5652 z m 1.0877,4.5854 0.0646,0.6636 -0.6636,0.0646 -0.0645,-0.6636 z m 0.2583,2.6542 0.1239,1.2723 0.1345,1.3818 -0.6635,0.0646 -0.1346,-1.3818 -0.1238,-1.2723 z m 0.4521,4.6447 0.0646,0.6635 -0.6635,0.0646 -0.0646,-0.6635 z m 0.4209,2.5625 0.7286,2.5652 -0.6413,0.1822 -0.7286,-2.5653 z m 1.3433,4.4051 0.2845,0.6029 -0.6029,0.2845 -0.2845,-0.6029 z m 1.1381,2.4116 0.7757,1.6437 -0.0262,-0.0458 0.479,0.7011 -0.5505,0.3761 -0.4939,-0.723 -0.787,-1.6676 z m 2.3567,3.9505 0.3761,0.5504 -0.5505,0.3761 -0.3761,-0.5505 z m 1.5406,2.1022 1.8432,1.9271 -0.4818,0.4608 -1.8432,-1.9271 z m 3.2316,3.2732 0.5405,0.3903 -0.3904,0.5405 -0.5404,-0.3904 z m 2.1618,1.5613 1.1817,0.8535 -0.0623,-0.0355 1.1088,0.4819 -0.2658,0.6114 -1.1418,-0.4963 -1.2109,-0.8745 z m 3.7987,2.346 -1.782,-4.4649 7.0001,5.5676 -8.6541,2.2596 z"
         fill="#920000"
         transform="matrix(0,-1,-1,0,81.6105,525.24)"
         id="path16" /><path
         d="m 216.286,769.908 2.66,-0.186 0.046,0.666 -2.66,0.185 z m 4.655,-0.325 0.062,-0.004 -0.044,0.006 0.591,-0.123 0.136,0.653 -0.614,0.127 -0.085,0.006 z m 2.568,-0.526 2.159,-0.447 -0.04,0.011 0.437,-0.149 0.215,0.631 -0.457,0.156 -2.179,0.451 z m 4.449,-1.231 0.631,-0.215 0.215,0.631 -0.631,0.215 z m 2.482,-0.865 2.411,-1.139 0.285,0.603 -2.411,1.139 z m 4.219,-1.993 0.286,-0.135 -0.029,0.015 0.3,-0.18 0.344,0.571 -0.315,0.189 -0.301,0.142 z m 2.27,-1.332 2.284,-1.376 0.344,0.571 -2.284,1.376 z m 3.893,-2.511 0.538,-0.394 0.394,0.538 -0.539,0.394 z m 2.153,-1.574 1.121,-0.82 -0.021,0.016 0.969,-0.833 0.435,0.506 -0.979,0.841 -1.132,0.828 z m 3.586,-2.94 0.506,-0.435 0.434,0.506 -0.505,0.434 z m 2.022,-1.739 0.017,-0.014 -0.017,0.016 1.88,-1.86 0.469,0.474 -1.889,1.868 -0.025,0.022 z m 3.303,-3.264 0.474,-0.469 0.468,0.474 -0.474,0.469 z m 1.835,-1.904 1.777,-1.989 0.497,0.444 -1.777,1.989 z m 3.109,-3.48 0.444,-0.498 0.497,0.445 -0.444,0.497 z m 1.689,-2.039 1.664,-2.084 0.521,0.416 -1.664,2.084 z m 2.912,-3.646 0.274,-0.343 -0.01,0.013 0.133,-0.185 0.541,0.39 -0.138,0.192 -0.279,0.349 z m 1.566,-2.138 1.559,-2.164 0.541,0.39 -1.559,2.164 z m 2.728,-3.786 0.181,-0.252 -0.009,0.013 0.196,-0.299 0.558,0.365 -0.2,0.305 -0.185,0.257 z m 1.463,-2.212 1.459,-2.232 0.558,0.365 -1.46,2.232 z m 2.554,-3.905 0.265,-0.405 -0.007,0.011 0.093,-0.157 0.573,0.342 -0.097,0.163 -0.269,0.411 z m 1.376,-2.268 1.367,-2.29 0.572,0.342 -1.366,2.29 z m 2.392,-4.007 0.342,-0.573 0.572,0.342 -0.341,0.573 z m 1.304,-2.311 1.28,-2.34 0.585,0.32 -1.28,2.34 z m 2.239,-4.095 0.32,-0.585 0.585,0.32 -0.32,0.585 z m 1.227,-2.347 1.157,-2.403 0.601,0.289 -1.157,2.403 z m 2.024,-4.205 0.289,-0.6 0.601,0.289 -0.289,0.6 z m 1.157,-2.403 1.157,-2.402 0.6,0.289 -1.156,2.403 z m 2.024,-4.204 0.289,-0.601 0.601,0.289 -0.289,0.601 z m 1.157,-2.403 0.583,-1.212 -0.008,0.019 0.498,-1.224 0.618,0.251 -0.503,1.234 -0.588,1.221 z m 1.828,-4.27 0.251,-0.617 0.618,0.252 -0.252,0.617 z m 1.006,-2.469 1.005,-2.47 0.618,0.252 -1.006,2.469 z m 1.76,-4.322 0.251,-0.618 0.618,0.252 -0.252,0.617 z m 1.006,-2.47 1.006,-2.469 0.617,0.251 -1.006,2.47 z m 1.752,-4.305 0.216,-0.63 0.631,0.216 -0.217,0.631 z m 0.866,-2.522 0.866,-2.522 0.63,0.216 -0.866,2.522 z m 1.515,-4.414 0.216,-0.63 0.631,0.216 -0.217,0.631 z m 0.866,-2.522 0.866,-2.522 0.63,0.216 -0.866,2.522 z m 1.515,-4.414 0.217,-0.63 0.63,0.216 -0.216,0.631 z m 0.866,-2.522 0.468,-1.362 -0.005,0.017 0.337,-1.18 0.641,0.184 -0.34,1.187 -0.47,1.371 z m 1.349,-4.448 0.183,-0.641 0.641,0.184 -0.183,0.64 z m 0.733,-2.564 0.733,-2.564 0.641,0.184 -0.733,2.564 z m 1.283,-4.487 0.183,-0.641 0.641,0.184 -0.183,0.641 z m 0.732,-2.564 0.733,-2.564 0.641,0.184 -0.733,2.564 z m 1.283,-4.487 0.183,-0.641 0.641,0.184 -0.183,0.641 z m 0.679,-2.56 0.604,-2.598 0.649,0.151 -0.603,2.598 z m 1.056,-4.546 0.151,-0.649 0.65,0.151 -0.151,0.649 z m 0.604,-2.597 0.604,-2.598 0.649,0.151 -0.604,2.598 z m 1.056,-4.546 0.151,-0.649 0.649,0.151 -0.15,0.649 z m 0.604,-2.597 0.603,-2.598 0.65,0.151 -0.604,2.598 z m 1.043,-4.532 0.119,-0.656 0.656,0.119 -0.119,0.656 z m 0.475,-2.624 0.475,-2.624 0.656,0.119 -0.475,2.624 z m 0.832,-4.592 0.118,-0.656 0.656,0.119 -0.118,0.656 z m 0.475,-2.624 0.475,-2.624 0.656,0.119 -0.475,2.624 z m 0.832,-4.592 0.118,-0.656 0.656,0.119 -0.118,0.656 z m 0.475,-2.624 0.475,-2.624 0.656,0.119 -0.475,2.624 z m 0.752,-4.588 0.086,-0.661 0.661,0.087 -0.086,0.661 z m 0.345,-2.644 0.346,-2.644 0.661,0.086 -0.346,2.645 z m 0.605,-4.627 0.086,-0.661 0.661,0.086 -0.086,0.661 z m 0.345,-2.644 0.346,-2.644 0.661,0.086 -0.346,2.644 z m 0.605,-4.628 0.086,-0.661 0.661,0.087 -0.086,0.661 z m 0.345,-2.644 0.265,-2.029 -10e-4,0.017 0.049,-0.619 0.665,0.053 -0.05,0.627 -0.267,2.038 z m 0.472,-4.624 0.053,-0.665 0.664,0.053 -0.053,0.665 z m 0.212,-2.658 0.212,-2.659 0.664,0.053 -0.212,2.659 z m 0.371,-4.652 0.053,-0.665 0.664,0.053 -0.053,0.665 z m 0.212,-2.659 0.211,-2.658 0.665,0.053 -0.212,2.658 z m 0.37,-4.652 0.053,-0.664 0.665,0.053 -0.053,0.664 z m 0.212,-2.658 0.098,-1.231 v 0.018 l 0.038,-1.431 0.667,0.018 -0.039,1.439 -0.099,1.24 z m 0.191,-4.644 0.018,-0.666 0.666,0.018 -0.018,0.666 z m 0.072,-2.665 0.072,-2.666 0.667,0.018 -0.073,2.666 z m 0.126,-4.665 0.019,-0.667 0.666,0.018 -0.018,0.667 z m 0.073,-2.666 0.072,-2.666 0.667,0.018 -0.073,2.666 z m 0.126,-4.665 0.018,-0.666 0.667,0.018 -0.018,0.666 z m 0.073,-2.666 0.014,-0.531 v 0.021 l -0.072,-2.135 0.666,-0.022 0.073,2.144 -0.015,0.541 z m -0.126,-4.644 -0.022,-0.666 0.666,-0.022 0.023,0.666 z m -0.09,-2.665 -0.09,-2.665 0.667,-0.022 0.09,2.665 z m -0.209,-4.638 -0.067,-0.664 0.664,-0.066 0.066,0.663 z m -0.266,-2.653 -0.266,-2.654 0.663,-0.066 0.266,2.653 z m -0.465,-4.644 -0.067,-0.663 0.664,-0.067 0.066,0.664 z m -0.271,-2.631 -0.434,-2.631 0.658,-0.109 0.434,2.631 z m -0.76,-4.605 -0.108,-0.657 0.657,-0.109 0.109,0.658 z m -0.434,-2.631 -0.434,-2.631 0.658,-0.108 0.434,2.631 z m -0.839,-4.568 -0.149,-0.65 0.65,-0.148 0.149,0.65 z m -0.595,-2.599 -0.594,-2.6 0.65,-0.148 0.594,2.599 z m -1.04,-4.55 -0.148,-0.649 0.65,-0.149 0.148,0.65 z m -0.623,-2.572 -0.746,-2.56 0.64,-0.186 0.746,2.56 z m -1.305,-4.48 -0.187,-0.64 0.64,-0.186 0.187,0.64 z m -0.747,-2.56 -0.746,-2.56 0.64,-0.187 0.747,2.561 z m -1.391,-4.433 -0.222,-0.628 0.628,-0.223 0.222,0.629 z m -0.889,-2.514 -0.89,-2.514 0.629,-0.222 0.889,2.514 z m -1.557,-4.399 -0.222,-0.629 0.628,-0.222 0.223,0.628 z m -0.92,-2.483 -1.024,-2.462 0.615,-0.256 1.025,2.462 z m -1.792,-4.309 -0.256,-0.615 0.615,-0.256 0.256,0.615 z m -1.025,-2.462 -1.024,-2.462 0.616,-0.256 1.024,2.462 z m -1.864,-4.257 -0.288,-0.602 0.601,-0.287 0.288,0.601 z m -1.151,-2.406 -1.151,-2.405 0.601,-0.288 1.151,2.405 z m -2.014,-4.209 -0.288,-0.602 0.601,-0.288 0.288,0.602 z m -1.166,-2.38 -1.27,-2.344 0.586,-0.318 1.27,2.345 z m -2.223,-4.103 -0.317,-0.586 0.586,-0.318 0.317,0.586 z m -1.27,-2.345 -1.27,-2.345 0.586,-0.317 1.27,2.345 z m -2.266,-4.059 -0.346,-0.571 0.57,-0.345 0.346,0.57 z m -1.382,-2.281 -1.382,-2.281 0.57,-0.345 1.382,2.28 z m -2.419,-3.991 -0.345,-0.57 0.57,-0.346 0.346,0.57 z m -1.382,-2.281 -0.065,-0.107 0.009,0.013 -1.417,-2.109 0.553,-0.372 1.421,2.116 0.07,0.114 z m -2.589,-3.864 -0.371,-0.553 0.553,-0.372 0.372,0.554 z m -1.487,-2.213 -1.487,-2.214 0.554,-0.371 1.487,2.213 z m -2.609,-3.85 -0.397,-0.536 0.536,-0.397 0.397,0.536 z m -1.586,-2.144 -1.586,-2.144 0.536,-0.396 1.586,2.143 z m -2.776,-3.752 -0.396,-0.535 0.536,-0.397 0.396,0.536 z m -1.586,-2.143 -0.67,-0.906 0.009,0.012 -0.97,-1.197 0.518,-0.419 0.975,1.202 0.674,0.911 z m -2.89,-3.644 -0.42,-0.518 0.518,-0.42 0.42,0.518 z m -1.68,-2.072 -1.679,-2.071 0.518,-0.42 1.679,2.072 z m -2.939,-3.625 -0.419,-0.517 0.517,-0.42 0.42,0.518 z m -1.733,-2.006 -1.767,-1.997 0.499,-0.442 1.767,1.997 z m -3.093,-3.495 -0.442,-0.499 0.5,-0.442 0.441,0.499 z m -1.767,-1.997 -1.625,-1.835 0.01,0.01 -0.15,-0.155 0.48,-0.463 0.154,0.16 1.63,1.842 z m -3.153,-3.42 -0.462,-0.48 0.48,-0.462 0.462,0.48 z m -1.85,-1.92 -1.851,-1.92 0.48,-0.462 1.85,1.92 z m -3.239,-3.36 -0.463,-0.48 0.48,-0.462 0.463,0.48 z m -1.854,-1.896 -1.93,-1.841 0.46,-0.482 1.93,1.84 z m -3.377,-3.221 -0.482,-0.461 0.46,-0.482 0.482,0.46 z m -1.929,-1.841 -1.93,-1.841 0.46,-0.482 1.93,1.84 z m -3.388,-3.178 -0.51,-0.429 0.429,-0.51 0.51,0.429 z m -2.04,-1.717 -2.04,-1.717 0.429,-0.511 2.04,1.718 z m -3.57,-3.005 -0.511,-0.43 0.43,-0.51 0.51,0.43 z m -2.041,-1.718 -2.04,-1.717 0.429,-0.51 2.041,1.717 z m -3.57,-3.005 -0.51,-0.429 0.429,-0.51 0.51,0.429 z m -2.04,-1.717 -2.04,-1.717 0.429,-0.51 2.04,1.717 z m -3.57,-3.005 -0.511,-0.429 0.43,-0.51 0.51,0.429 z m -2.084,-1.629 -2.143,-1.588 0.397,-0.535 2.143,1.587 z m -3.749,-2.779 -0.536,-0.396 0.397,-0.536 0.536,0.397 z m -2.143,-1.587 -2.142,-1.588 0.397,-0.536 2.142,1.588 z m -3.777,-2.716 -0.552,-0.374 0.375,-0.552 0.551,0.375 z m -2.207,-1.497 -2.206,-1.498 0.374,-0.551 2.207,1.497 z m -3.861,-2.621 -0.551,-0.374 0.374,-0.552 0.552,0.374 z m -2.206,-1.498 -0.241,-0.163 0.012,0.007 -2.02,-1.251 0.351,-0.566 2.026,1.254 0.246,0.168 z m -3.949,-2.46 -0.567,-0.351 0.351,-0.567 0.567,0.351 z m -2.267,-1.404 -2.267,-1.405 0.351,-0.566 2.267,1.404 z m -3.967,-2.458 -0.189,-0.117 0.012,0.007 -0.387,-0.218 0.327,-0.581 0.393,0.222 0.195,0.12 z m -2.307,-1.308 -2.325,-1.307 0.327,-0.581 2.324,1.307 z m -4.068,-2.288 -0.581,-0.327 0.327,-0.581 0.581,0.327 z m -2.324,-1.307 -1.871,-1.053 0.013,0.007 -0.464,-0.235 0.302,-0.595 0.47,0.239 1.877,1.056 z m -4.106,-2.186 -0.594,-0.302 0.301,-0.594 0.595,0.301 z m -2.378,-1.207 -2.378,-1.206 0.302,-0.595 2.378,1.207 z m -4.161,-2.111 -0.595,-0.302 0.302,-0.594 0.594,0.301 z m -2.377,-1.176 -2.429,-1.101 0.276,-0.608 2.428,1.102 z m -4.25,-1.927 -0.607,-0.276 0.275,-0.607 0.607,0.275 z m -2.429,-1.102 -2.428,-1.101 0.275,-0.607 2.429,1.101 z m -4.249,-1.892 -0.619,-0.247 0.248,-0.619 0.619,0.248 z m -2.475,-0.991 -2.476,-0.992 0.248,-0.619 2.476,0.992 z m -4.332,-1.736 -0.619,-0.248 0.248,-0.618 0.619,0.247 z m -2.476,-0.991 -1.051,-0.421 0.015,0.005 -1.449,-0.505 0.219,-0.629 1.456,0.507 1.058,0.424 z m -4.374,-1.579 -0.63,-0.219 0.22,-0.629 0.629,0.219 z m -2.518,-0.877 -2.519,-0.877 0.22,-0.629 2.518,0.877 z m -4.407,-1.535 -0.63,-0.219 0.219,-0.63 0.63,0.22 z m -2.528,-0.795 -2.557,-0.757 0.189,-0.64 2.557,0.758 z m -4.475,-1.326 -0.639,-0.189 0.189,-0.639 0.639,0.189 z m -2.557,-0.757 -2.557,-0.757 0.19,-0.64 2.557,0.758 z m -4.483,-1.231 -0.648,-0.158 0.158,-0.648 0.648,0.158 z m -2.591,-0.632 -2.59,-0.632 0.158,-0.648 2.59,0.632 z m -4.533,-1.106 -0.648,-0.158 0.158,-0.648 0.648,0.158 z m -2.576,-0.621 -2.619,-0.501 0.125,-0.655 2.619,0.502 z m -4.584,-0.877 -0.655,-0.125 0.126,-0.655 0.655,0.125 z m -2.619,-0.502 -2.619,-0.501 0.125,-0.655 2.619,0.502 z m -4.57,-0.851 -0.66,-0.091 0.091,-0.661 0.66,0.092 z m -2.642,-0.365 -2.6412,-0.365 0.0912,-0.66 2.642,0.365 z m -4.6224,-0.639 -0.6604,-0.091 0.0912,-0.66 0.6604,0.091 z m -2.6416,-0.365 -1.2202,-0.168 0.0178,0.002 -1.4299,-0.12 0.0558,-0.664 1.4387,0.12 1.2291,0.17 z m -4.6253,-0.453 -0.6643,-0.056 0.0557,-0.664 0.6644,0.055 z m -2.6573,-0.223 -2.6573,-0.223 0.0557,-0.665 2.6573,0.223 z m -4.6503,-0.39 -0.6643,-0.056 0.0557,-0.664 0.6643,0.055 z m -2.6444,-0.124 -2.6656,-0.076 0.0188,-0.666 2.6656,0.075 z m -4.5314,-0.462 2.5524,4.074 -7.8837,-4.225 8.11,-3.772 z"
         fill="#920000"
         id="path17" /><text
         font-family="'Calibri Light', 'Calibri Light_MSFontService', sans-serif"
         font-weight="300"
         font-size="13px"
         transform="rotate(41.837189,-330.4444,559.26411)"
         id="text17">A</text><text
         font-family="'Calibri Light', 'Calibri Light_MSFontService', sans-serif"
         font-weight="300"
         font-size="13px"
         transform="rotate(41.837189,-334.19138,569.07245)"
         id="text18">ll</text><text
         font-family="'Calibri Light', 'Calibri Light_MSFontService', sans-serif"
         font-weight="300"
         font-size="13px"
         transform="rotate(41.837189,-338.68695,580.84455)"
         id="text19">O</text><text
         font-family="'Calibri Light', 'Calibri Light_MSFontService', sans-serif"
         font-weight="300"
         font-size="13px"
         transform="rotate(41.837189,-343.30703,592.29093)"
         id="text20">wners</text><path
         d="m 242.923,597.277 0.921,-2.712 -0.009,0.028 1.28,-5.224 -0.004,0.017 1.238,-6.482 -0.002,0.012 1.185,-7.635 -0.001,0.008 1.122,-8.683 -0.001,0.007 1.049,-9.627 -0.001,0.005 0.965,-10.465 -0.001,0.005 0.87,-11.199 v 0.004 l 0.765,-11.828 v 0.004 l 0.649,-12.352 v 0.004 l 0.523,-12.771 v 0.003 l 0.387,-13.086 v 0.006 l 0.322,-26.696 v 0.018 l -0.269,-6.707 0.002,0.026 -0.798,-6.694 0.004,0.025 -1.308,-6.667 0.005,0.023 -1.802,-6.628 0.006,0.021 -2.279,-6.575 0.008,0.02 -2.739,-6.51 0.008,0.018 -3.181,-6.432 0.009,0.018 -3.608,-6.34 0.01,0.015 -4.017,-6.235 0.01,0.015 -4.408,-6.117 0.015,0.019 -9.923,-11.828 0.021,0.022 -11.285,-11.199 0.021,0.019 -12.512,-10.465 0.022,0.016 -13.602,-9.626 0.022,0.014 -14.555,-8.683 0.023,0.012 -15.373,-7.635 0.024,0.011 -16.054,-6.482 0.025,0.009 -16.599,-5.224 0.026,0.007 -17.007,-3.861 0.021,0.004 -8.6145,-1.387 0.0146,0.002 -8.6655,-1.007 0.015,0.002 -8.6995,-0.614 0.0155,10e-4 -3.3847,-0.081 0.0159,-0.666 3.3925,0.081 8.7148,0.614 8.6802,1.009 8.6317,1.389 17.031,3.867 16.624,5.232 16.078,6.491 15.396,7.647 14.577,8.696 13.623,9.642 12.532,10.483 11.306,11.22 9.941,11.849 4.42,6.134 4.026,6.25 3.617,6.356 3.19,6.45 2.748,6.529 2.286,6.597 1.808,6.65 1.314,6.692 0.8,6.719 0.271,6.729 -0.323,26.707 -0.387,13.091 -0.523,12.775 -0.65,12.356 -0.765,11.832 -0.87,11.204 -0.965,10.47 -1.049,9.633 -1.123,8.691 -1.187,7.645 -1.24,6.496 -1.286,5.246 -0.925,2.725 z m 0.316,0.107 4.806,0.116 -7.872,4.248 1.325,-8.845 z M 73.8319,315.627 l 2.5707,4.062 -7.9025,-4.189 8.0929,-3.808 z"
         id="path20" /><path
         d="M 0.340021,5.3231 1.16714,663.751 H 0.500473 L -0.326646,5.32394 Z M 0.00669981,5.33333 -3.98995,8.00502 0,0 4.01005,7.99497 Z"
         transform="matrix(-1,0,0,1,-259.666,167.5)"
         id="path21" /><path
         d="m -260.5,831.167 627.882,0.296 -0.001,0.667 -627.881,-0.297 z m 627.885,0.629 -2.665,-4.001 7.998,4.004 -8.002,3.996 z"
         id="path22" /><text
         font-family="'Calibri Light', 'Calibri Light_MSFontService', sans-serif"
         font-weight="300"
         font-size="13px"
         transform="translate(381.907,829)"
         id="text22">Object</text><text
         font-family="'Calibri Light', 'Calibri Light_MSFontService', sans-serif"
         font-weight="300"
         font-size="13px"
         transform="translate(381.907,845)"
         id="text23">L</text><text
         font-family="'Calibri Light', 'Calibri Light_MSFontService', sans-serif"
         font-weight="300"
         font-size="13px"
         transform="translate(387.574,845)"
         id="text24">ifetime</text><text
         font-family="'Calibri Light', 'Calibri Light_MSFontService', sans-serif"
         font-weight="300"
         font-size="13px"
         transform="translate(-277.74,141)"
         id="text25">Object</text><text
         font-family="'Calibri Light', 'Calibri Light_MSFontService', sans-serif"
         font-weight="300"
         font-size="13px"
         transform="translate(-275.906,157)"
         id="text26">S</text><text
         font-family="'Calibri Light', 'Calibri Light_MSFontService', sans-serif"
         font-weight="300"
         font-size="13px"
         transform="translate(-269.906,157)"
         id="text27">pace</text><path
         d="M 0.0167422,-0.332913 2.68004,-0.198975 2.64656,0.46685 -0.0167422,0.332913 Z M 4.67752,-0.0985218 7.34082,0.0354158 7.30733,0.701241 4.64403,0.567303 Z M 9.35325,0.311328 11.9913,0.701086 11.8938,1.36059 9.25581,0.970835 Z m 4.61655,0.682077 1.0906,0.161125 1.5498,0.37529 -0.1569,0.64794 -1.5351,-0.37172 0.0297,0.00578 -1.0755,-0.15891 z m 4.5842,1.007115 2.5917,0.6276 -0.1569,0.64794 -2.5917,-0.6276 z m 4.5469,1.16284 2.528,0.84863 -0.2121,0.632 -2.5281,-0.84862 z m 4.424,1.4851 2.1165,0.71046 0.4241,0.18265 -0.2637,0.61229 -0.4114,-0.17718 0.0257,0.00985 -2.1033,-0.70607 z m 4.3775,1.68418 2.4492,1.05477 -0.2637,0.6123 -2.4492,-1.05477 z m 4.2861,1.84585 0.4168,0.17951 1.9791,1.04845 -0.312,0.58911 -1.9673,-1.04217 0.0242,0.01159 -0.4045,-0.17419 z m 4.1633,2.16421 2.3564,1.2483 -0.3121,0.5891 -2.3564,-1.2483 z m 4.0917,2.2923 2.2498,1.4316 -0.3579,0.5625 -2.2498,-1.4316 z m 3.9372,2.5053 1.2062,0.7676 1.0085,0.7613 -0.4017,0.5321 -0.9978,-0.7533 0.0219,0.0152 -1.195,-0.7604 z m 3.8109,2.7339 2.1283,1.6067 -0.4017,0.5321 -2.1283,-1.6067 z m 3.717,2.8639 1.9898,1.7753 -0.4438,0.4974 -1.9898,-1.7753 z m 3.4822,3.1068 1.5252,1.3607 0.4471,0.4733 -0.4845,0.4579 -0.4374,-0.463 0.0204,0.0198 -1.5146,-1.3513 z m 3.3458,3.2878 1.8313,1.9384 -0.4846,0.4579 -1.8313,-1.9384 z m 3.2108,3.4269 1.6486,2.0961 -0.524,0.4121 -1.6486,-2.096 z m 2.885,3.6681 1.29,1.64 0.33,0.5162 -0.5617,0.3591 -0.3212,-0.5024 0.0188,0.0265 -1.2799,-1.6273 z m 2.6974,3.8412 1.4365,2.2467 -0.5617,0.3591 -1.4365,-2.2467 z m 2.4847,3.989 1.1895,2.3866 -0.5966,0.2974 -1.1895,-2.3866 z m 2.0817,4.1767 0.6369,1.2779 0.4323,1.2025 -0.6273,0.2256 -0.4257,-1.1841 0.0153,0.0359 -0.6282,-1.2605 z m 1.7459,4.3625 0.9022,2.5094 -0.6274,0.2256 -0.9022,-2.5094 z m 1.4029,4.4869 0.5714,2.6048 -0.6512,0.1428 -0.5713,-2.6047 z m 0.9999,4.5583 0.0254,0.1157 0.0659,0.883 -0.6648,0.0496 -0.0641,-0.8594 0.0068,0.0466 -0.0203,-0.0926 z m -0.2411,1.0235 3.7904,-2.9571 -3.3933,8.2757 -4.5845,-7.68 z"
         fill="#008080"
         transform="matrix(0,1,1,0,-242.5,188.5)"
         id="path27" /><path
         d="M 0.0233649,-0.332513 2.68347,-0.145594 2.63674,0.519433 -0.0233649,0.332513 Z M 4.67855,-0.00540436 5.34358,0.0413255 5.29685,0.706352 4.63182,0.659623 Z M 7.36343,0.327402 9.97503,0.866534 9.84025,1.51943 7.22865,0.980301 Z m 4.57027,0.943478 0.6233,0.12868 0.0674,0.02281 -0.2136,0.63149 -0.048,-0.01624 0.0394,0.0107 -0.6033,-0.12454 z m 2.5852,0.79248 2.526,0.85467 -0.2136,0.6315 -2.526,-0.85467 z m 4.4442,1.53719 0.6035,0.2831 L 19.2835,4.48722 18.68,4.20412 Z M 21.3774,4.73294 23.7916,5.86533 23.5085,6.4689 21.0943,5.33651 Z M 25.5837,6.82255 26.1549,7.16627 25.8112,7.7375 25.24,7.39377 Z m 2.2849,1.37491 2.2849,1.3749 -0.3437,0.57124 -2.2849,-1.37492 z m 3.9397,2.55144 0.5358,0.3966 -0.3966,0.5358 -0.5359,-0.3966 z m 2.1434,1.5865 2.1005,1.5548 0.0622,0.0553 -0.443,0.4982 -0.051,-0.0453 0.0232,0.0188 -2.0886,-1.546 z m 3.6573,2.939 0.4982,0.4429 -0.4429,0.4983 -0.4983,-0.443 z m 1.9929,1.7718 1.7031,1.5143 0.2863,0.302 -0.4838,0.4587 -0.2765,-0.2917 0.0204,0.0198 -1.6925,-1.5048 z m 3.3654,3.2677 0.4587,0.4838 -0.4838,0.4587 -0.4587,-0.4838 z m 1.8347,1.9353 1.4106,1.4879 0.4029,0.5023 -0.52,0.4172 -0.3943,-0.4916 0.0181,0.0207 -1.4011,-1.4779 z m 3.065,3.5503 0.4172,0.52 -0.5201,0.4172 -0.4171,-0.5201 z m 1.6686,2.0801 1.1907,1.4842 0.443,0.6554 -0.5522,0.3734 -0.4355,-0.6441 0.0161,0.0219 -1.1821,-1.4737 z m 2.754,3.7964 0.3734,0.5522 -0.5522,0.3735 -0.3735,-0.5523 z m 1.4937,2.209 1.0141,1.4999 0.4334,0.7698 -0.581,0.3271 -0.4267,-0.758 0.0144,0.0232 -1.0065,-1.4885 z m 2.4285,4.0126 0.327,0.5809 -0.5809,0.3271 -0.327,-0.581 z m 1.3081,2.3238 0.8573,1.5229 0.394,0.861 -0.6062,0.2774 -0.3883,-0.8484 0.0127,0.0248 -0.8504,-1.5107 z m 2.0835,4.2026 0.2774,0.6062 -0.6062,0.2774 -0.2774,-0.6062 z m 1.1097,2.4248 0.7035,1.5373 0.3376,0.9465 -0.6279,0.224 -0.3328,-0.9329 0.0109,0.0267 -0.6975,-1.5242 z m 1.713,4.3675 0.224,0.628 -0.6279,0.2239 -0.224,-0.6279 z m 0.8959,2.5117 0.5446,1.5267 0.2681,1.0421 -0.6456,0.1661 -0.2644,-1.0274 0.0089,0.0289 -0.5395,-1.5124 z m 1.3111,4.5057 0.1661,0.6456 -0.6456,0.1662 -0.1661,-0.6457 z m 0.6645,2.5825 0.3803,1.4778 0.1819,1.1586 -0.6586,0.1034 -0.1794,-1.1428 0.0064,0.0314 -0.3762,-1.4622 z m 0.8724,4.6122 0.1034,0.6586 -0.6586,0.1034 -0.1034,-0.6586 z m 0.4135,2.6344 0.2175,1.3853 0.0693,1.2967 -0.6657,0.0356 -0.0684,-1.2797 0.0036,0.0339 -0.2149,-1.3684 z m 0.3935,4.6792 0.0356,0.6657 -0.6657,0.0356 -0.0356,-0.6657 z m 0.1423,2.6629 0.0671,1.2547 -0.0694,1.4423 -0.6659,-0.032 0.0686,-1.4255 1e-4,0.0339 -0.0662,-1.2379 z m -0.0985,4.6947 -0.0321,0.6659 -0.6659,-0.032 0.0321,-0.6659 z m -0.1282,2.6636 -0.0533,1.1063 -0.2227,1.5742 -0.66,-0.0933 0.2205,-1.559 -0.003,0.0306 0.0526,-1.0909 z m -0.556,4.6608 -0.0934,0.6601 -0.6601,-0.0933 0.0934,-0.6601 z m -0.3735,2.6404 -0.1352,0.9561 -0.3907,1.6855 -0.6494,-0.1506 0.3874,-1.6712 -0.0054,0.0286 0.1332,-0.9418 z m -0.9775,4.5899 -0.1506,0.6495 -0.6494,-0.1506 0.1505,-0.6494 z m -0.6022,2.5978 -0.1867,0.8052 -0.5714,1.7783 -0.6347,-0.204 0.5672,-1.765 -0.0074,0.0267 0.1835,-0.7917 z m -1.37,4.4879 -0.2039,0.634 -0.6347,-0.204 0.2039,-0.634 z m -0.8158,2.538 -0.2074,0.646 -0.7682,1.863 -0.6163,-0.254 0.7631,-1.851 -0.0092,0.025 0.2033,-0.632 z m -1.7379,4.358 -0.2541,0.617 -0.6163,-0.254 0.2541,-0.617 z m -1.0163,2.466 -0.1908,0.462 -0.9915,1.956 -0.5946,-0.302 0.9856,-1.943 -0.0109,0.023 0.1858,-0.45 z m -2.0869,4.201 -0.3015,0.595 -0.5946,-0.302 0.3015,-0.594 z m -1.2061,2.379 -0.1224,0.241 -1.26,2.069 -0.5693,-0.347 1.2532,-2.058 -0.0126,0.023 0.1165,-0.23 z m -2.4228,4.018 -0.3468,0.569 -0.5694,-0.347 0.3468,-0.569 z m -1.4052,2.297 -1.5619,2.161 -0.5404,-0.391 1.562,-2.161 z m -2.7334,3.782 -0.3905,0.54 -0.5403,-0.39 0.3905,-0.541 z m -1.6085,2.159 -1.7319,2.028 -0.5069,-0.433 1.7318,-2.028 z m -3.0308,3.549 -0.4329,0.507 -0.507,-0.433 0.433,-0.507 z m -1.8148,1.989 -1.898,1.873 -0.4683,-0.474 1.898,-1.874 z m -3.3215,3.278 -0.4745,0.468 -0.4683,-0.474 0.4745,-0.469 z m -2.0261,1.776 -2.0604,1.693 -0.4232,-0.515 2.0604,-1.693 z m -3.6057,2.963 -0.0444,0.036 -0.534,0.357 -0.3703,-0.555 0.5203,-0.347 -0.0265,0.02 0.0317,-0.026 z m -2.2416,1.504 -2.2175,1.481 -0.3703,-0.554 2.2175,-1.482 z m -3.9695,2.513 -0.5914,0.308 -0.3078,-0.592 0.5913,-0.308 z m -2.3653,1.231 -2.1028,1.095 -0.3148,0.118 -0.2344,-0.624 0.2959,-0.111 -0.0367,0.016 2.0849,-1.085 z m -4.2899,1.916 -0.6241,0.235 -0.2344,-0.624 0.6241,-0.235 z m -2.4964,0.938 -0.8629,0.324 -1.7444,0.4 -0.149,-0.65 1.7227,-0.395 -0.0427,0.013 0.8419,-0.316 z m -4.5568,1.17 -0.6498,0.149 -0.149,-0.649 0.6499,-0.149 z m -2.3188,0.141 2.9697,3.781 -8.28686,-3.366 7.66476,-4.61 z"
         fill="#920000"
         transform="matrix(1,0,0,-1,61.5001,468.821)"
         id="path28" /><path
         d="m -58.5001,438.667 c 0,-2.301 1.8656,-4.167 4.1668,-4.167 H 4.33328 c 2.30124,0 4.16677,1.866 4.16677,4.167 v 16.666 c 0,2.302 -1.86553,4.167 -4.16677,4.167 H -54.3333 c -2.3012,0 -4.1668,-1.865 -4.1668,-4.167 z"
         stroke="#000000"
         stroke-width="0.666667"
         stroke-miterlimit="8"
         fill="#ffffff"
         fill-rule="evenodd"
         id="path29" /><text
         font-family="'Calibri Light', 'Calibri Light_MSFontService', sans-serif"
         font-weight="300"
         font-size="13px"
         transform="translate(-44.1312,450)"
         id="text29">Extend</text><path
         d="m -119.5,283.333 c 0,-2.669 2.164,-4.833 4.833,-4.833 h 38.3335 c 2.6694,0 4.8334,2.164 4.8334,4.833 v 19.334 c 0,2.669 -2.164,4.833 -4.8334,4.833 h -38.3335 c -2.669,0 -4.833,-2.164 -4.833,-4.833 z"
         stroke="#454545"
         stroke-width="0.666667"
         stroke-miterlimit="8"
         fill="#f2f2f2"
         fill-rule="evenodd"
         id="path30" /><text
         fill="#454545"
         font-family="'Calibri Light', 'Calibri Light_MSFontService', sans-serif"
         font-weight="300"
         font-size="12px"
         transform="translate(-116.263,289)"
         id="text30">assign &amp;</text><text
         fill="#454545"
         font-family="'Calibri Light', 'Calibri Light_MSFontService', sans-serif"
         font-weight="300"
         font-size="12px"
         transform="translate(-115.683,304)"
         id="text31">position</text><path
         d="m -176.5,259.667 c 0,-2.301 1.865,-4.167 4.167,-4.167 h 58.666 c 2.301,0 4.167,1.866 4.167,4.167 v 16.666 c 0,2.301 -1.866,4.167 -4.167,4.167 h -58.666 c -2.302,0 -4.167,-1.866 -4.167,-4.167 z"
         stroke="#000000"
         stroke-width="0.666667"
         stroke-miterlimit="8"
         fill="#ffffff"
         fill-rule="evenodd"
         id="path31" /><text
         font-family="'Calibri Light', 'Calibri Light_MSFontService', sans-serif"
         font-weight="300"
         font-size="13px"
         transform="translate(-165.902,272)"
         id="text32">Initialize</text><path
         d="m -45.5001,589.833 c 0,-1.288 1.0447,-2.333 2.3334,-2.333 H 4.1667 c 1.28868,0 2.33335,1.045 2.33335,2.333 v 9.334 c 0,1.288 -1.04467,2.333 -2.33335,2.333 h -47.3334 c -1.2887,0 -2.3334,-1.045 -2.3334,-2.333 z"
         stroke="#454545"
         stroke-width="0.666667"
         stroke-miterlimit="8"
         fill="#f2f2f2"
         fill-rule="evenodd"
         id="path32" /><text
         fill="#454545"
         font-family="'Calibri Light', 'Calibri Light_MSFontService', sans-serif"
         font-weight="300"
         font-size="12px"
         transform="translate(-43.6443,598)"
         id="text33">first write</text><path
         d="m -34.5001,271.667 c 0,-2.301 1.8656,-4.167 4.1668,-4.167 h 58.6666 c 2.3012,0 4.1668,1.866 4.1668,4.167 v 16.666 c 0,2.302 -1.8656,4.167 -4.1668,4.167 h -58.6666 c -2.3012,0 -4.1668,-1.865 -4.1668,-4.167 z"
         stroke="#000000"
         stroke-width="0.666667"
         stroke-miterlimit="8"
         fill="#ffffff"
         fill-rule="evenodd"
         id="path33" /><text
         font-family="'Calibri Light', 'Calibri Light_MSFontService', sans-serif"
         font-weight="300"
         font-size="13px"
         transform="translate(-25.2362,283)"
         id="text34">Reassign</text><path
         d="m 93.5001,742.667 c 0,-2.301 1.8655,-4.167 4.1667,-4.167 h 58.6662 c 2.302,0 4.167,1.866 4.167,4.167 v 16.666 c 0,2.301 -1.865,4.167 -4.167,4.167 H 97.6668 c -2.3012,0 -4.1667,-1.866 -4.1667,-4.167 z"
         stroke="#000000"
         stroke-width="0.666667"
         stroke-miterlimit="8"
         fill="#ffffff"
         fill-rule="evenodd"
         id="path34" /><text
         font-family="'Calibri Light', 'Calibri Light_MSFontService', sans-serif"
         font-weight="300"
         font-size="13px"
         transform="translate(106.238,754)"
         id="text35">Reduce</text><path
         d="m -5.50005,460.667 c 0,-2.301 1.86552,-4.167 4.16677,-4.167 H 57.3333 c 2.3012,0 4.1668,1.866 4.1668,4.167 v 16.666 c 0,2.302 -1.8656,4.167 -4.1668,4.167 H -1.33328 c -2.30125,0 -4.16677,-1.865 -4.16677,-4.167 z"
         stroke="#000000"
         stroke-width="0.666667"
         stroke-miterlimit="8"
         fill="#ffffff"
         fill-rule="evenodd"
         id="path35" /><text
         font-family="'Calibri Light', 'Calibri Light_MSFontService', sans-serif"
         font-weight="300"
         font-size="13px"
         transform="translate(-0.777428,473)"
         id="text36">Reallocate</text><path
         d="m 254.5,774.667 c 0,-2.301 1.866,-4.167 4.167,-4.167 h 58.666 c 2.302,0 4.167,1.866 4.167,4.167 v 16.666 c 0,2.301 -1.865,4.167 -4.167,4.167 h -58.666 c -2.301,0 -4.167,-1.866 -4.167,-4.167 z"
         stroke="#000000"
         stroke-width="0.666667"
         stroke-miterlimit="8"
         fill="#ffffff"
         fill-rule="evenodd"
         id="path36" /><text
         font-family="'Calibri Light', 'Calibri Light_MSFontService', sans-serif"
         font-weight="300"
         font-size="13px"
         transform="translate(258.738,786)"
         id="text37">Deallocate</text><path
         d="m 25.5001,330.5 c 0,-1.657 1.3431,-3 3,-3 H 76.5 c 1.6569,0 3.0001,1.343 3.0001,3 v 12 c 0,1.657 -1.3432,3 -3.0001,3 H 28.5001 c -1.6569,0 -3,-1.343 -3,-3 z"
         stroke="#454545"
         stroke-width="0.666667"
         stroke-miterlimit="8"
         fill="#f2f2f2"
         fill-rule="evenodd"
         id="path37" /><text
         fill="#454545"
         font-family="'Calibri Light', 'Calibri Light_MSFontService', sans-serif"
         font-weight="300"
         font-size="12px"
         transform="translate(27.8373,340)"
         id="text38">++,</text><text
         fill="#454545"
         font-family="'Calibri Light', 'Calibri Light_MSFontService', sans-serif"
         font-weight="300"
         font-size="12px"
         transform="translate(45.5039,340)"
         id="text39">--</text><text
         fill="#454545"
         font-family="'Calibri Light', 'Calibri Light_MSFontService', sans-serif"
         font-weight="300"
         font-size="12px"
         transform="translate(52.8373,340)"
         id="text40">, etc.</text><path
         d="m -175.5,434.667 c 0,-2.301 1.865,-4.167 4.167,-4.167 h 58.666 c 2.301,0 4.167,1.866 4.167,4.167 v 16.666 c 0,2.301 -1.866,4.167 -4.167,4.167 h -58.666 c -2.302,0 -4.167,-1.866 -4.167,-4.167 z"
         stroke="#000000"
         stroke-width="0.666667"
         stroke-miterlimit="8"
         fill="#ffffff"
         fill-rule="evenodd"
         id="path40" /><text
         font-family="'Calibri Light', 'Calibri Light_MSFontService', sans-serif"
         font-weight="300"
         font-size="13px"
         transform="translate(-164.418,447)"
         id="text41">Allocate</text><path
         d="m 0.500053,307.667 c 0,-2.301 1.865497,-4.167 4.166707,-4.167 H 64.3333 c 2.3013,0 4.1668,1.866 4.1668,4.167 v 16.666 c 0,2.302 -1.8655,4.167 -4.1668,4.167 H 4.66676 c -2.30121,0 -4.166707,-1.865 -4.166707,-4.167 z"
         stroke="#000000"
         stroke-width="0.666667"
         stroke-miterlimit="8"
         fill="#ffffff"
         fill-rule="evenodd"
         id="path41" /><text
         font-family="'Calibri Light', 'Calibri Light_MSFontService', sans-serif"
         font-weight="300"
         font-size="13px"
         transform="translate(5.26541,319)"
         id="text42">Reposition</text><path
         d="m 157.5,609.833 c 0,-1.288 1.045,-2.333 2.333,-2.333 h 47.334 c 1.288,0 2.333,1.045 2.333,2.333 v 9.334 c 0,1.288 -1.045,2.333 -2.333,2.333 h -47.334 c -1.288,0 -2.333,-1.045 -2.333,-2.333 z"
         stroke="#454545"
         stroke-width="0.666667"
         stroke-miterlimit="8"
         fill="#f2f2f2"
         fill-rule="evenodd"
         id="path42" /><text
         fill="#454545"
         font-family="'Calibri Light', 'Calibri Light_MSFontService', sans-serif"
         font-weight="300"
         font-size="13px"
         transform="translate(157.71,618)"
         id="text43">last write</text><path
         d="m 105.5,587.667 c 0,-2.301 1.866,-4.167 4.167,-4.167 h 58.666 c 2.302,0 4.167,1.866 4.167,4.167 v 16.666 c 0,2.301 -1.865,4.167 -4.167,4.167 h -58.666 c -2.301,0 -4.167,-1.866 -4.167,-4.167 z"
         stroke="#000000"
         stroke-width="0.666667"
         stroke-miterlimit="8"
         fill="#ffffff"
         fill-rule="evenodd"
         id="path43" /><text
         font-family="'Calibri Light', 'Calibri Light_MSFontService', sans-serif"
         font-weight="300"
         font-size="13px"
         transform="translate(124.696,600)"
         id="text44">Clear</text><path
         d="M 0.00531776,-0.333291 24.0313,0.0500514 47.8744,1.16769 l 23.467,1.80289 22.9032,2.43923 22.1514,3.02667 21.213,3.56522 20.084,4.0547 9.564,2.1963 9.21,2.3001 8.834,2.3983 8.436,2.4903 8.014,2.5763 7.568,2.6563 7.099,2.7304 6.608,2.7986 6.092,2.861 5.554,2.9177 4.992,2.9689 4.408,3.0151 3.8,3.0567 3.169,3.0943 2.515,3.129 1.833,3.1608 0.375,1.0667 -0.629,0.2214 -0.365,-1.0372 0.026,0.0565 -1.804,-3.1119 0.028,0.0416 -2.486,-3.0936 0.027,0.0297 -3.143,-3.0691 0.024,0.0212 -3.778,-3.0385 0.021,0.0154 -4.389,-3.0019 0.018,0.0114 -4.976,-2.959 0.016,0.0085 -5.54,-2.9101 0.014,0.0067 -6.08,-2.8551 0.012,0.0052 -6.597,-2.7939 0.011,0.0042 -7.09,-2.7267 0.009,0.0034 -7.559,-2.6532 0.008,0.0028 -8.005,-2.5737 0.007,0.0023 -8.428,-2.4881 0.007,0.002 -8.828,-2.3964 0.007,0.0017 -9.204,-2.2985 0.006,0.0015 -9.555,-2.1946 0.008,0.0019 -20.075,-4.0528 0.011,0.002 -21.202,-3.56353 0.01,0.00154 L 94.1592,6.07101 94.1691,6.0722 71.2756,3.63402 71.2854,3.63491 47.8283,1.83278 47.8382,1.83339 24.0053,0.716228 24.0155,0.716551 -0.00531776,0.333291 Z M 255.45,61.5839 l 3.359,-3.4386 -2.252,8.6559 -5.573,-6.9959 z"
         fill="#0000ff"
         transform="matrix(0,1,1,0,-242.5,186.5)"
         id="path44" /><path
         d="m -260.5,782.5 c -4.971,0 -9,-9.533 -9,-21.292 V 634.651 c 0,-11.759 -4.03,-21.292 -9,-21.292 4.97,0 9,-9.532 9,-21.292 V 464.792 c 0,-11.759 4.029,-21.292 9,-21.292"
         stroke="#454545"
         stroke-width="0.666667"
         stroke-miterlimit="8"
         fill="none"
         fill-rule="evenodd"
         id="path45" /><path
         d="m -153.167,281.5 v 2.667 h -0.666 V 281.5 Z m 0,4.667 v 2.666 h -0.666 v -2.666 z m 0,4.666 v 2.667 h -0.666 v -2.667 z m 0,4.667 v 2.667 h -0.666 V 295.5 Z m 0,4.667 v 2.666 h -0.666 v -2.666 z m 0,4.666 v 2.667 h -0.666 v -2.667 z m 0,4.667 v 2.667 h -0.666 V 309.5 Z m 0,4.667 v 2.666 h -0.666 v -2.666 z m 0,4.666 v 2.667 h -0.666 v -2.667 z m 0,4.667 v 2.667 h -0.666 V 323.5 Z m 0,4.667 v 2.666 h -0.666 v -2.666 z m 0,4.666 v 2.667 h -0.666 v -2.667 z m 0,4.667 v 2.667 h -0.666 V 337.5 Z m 0,4.667 v 2.666 h -0.666 v -2.666 z m 0,4.666 v 2.667 h -0.666 v -2.667 z m 0,4.667 v 2.667 h -0.666 V 351.5 Z m 0,4.667 v 2.666 h -0.666 v -2.666 z m 0,4.666 v 2.667 h -0.666 v -2.667 z m 0,4.667 v 2.667 h -0.666 V 365.5 Z m 0,4.667 v 2.666 h -0.666 v -2.666 z m 0,4.666 v 2.667 h -0.666 v -2.667 z m 0,4.667 v 2.667 h -0.666 V 379.5 Z m 0,4.667 v 2.666 h -0.666 v -2.666 z m 0,4.666 v 2.667 h -0.666 v -2.667 z m 0,4.667 v 2.667 h -0.666 V 393.5 Z m 0,4.667 v 2.666 h -0.666 v -2.666 z m 0,4.666 v 2.667 h -0.666 v -2.667 z m 0,4.667 v 2.667 h -0.666 V 407.5 Z m 0,4.667 v 2.666 h -0.666 v -2.666 z m 0,4.666 v 2.667 h -0.666 v -2.667 z m 0,4.667 v 2.667 h -0.666 V 421.5 Z m -0.333,4.166 4,-2.666 -4,8 -4,-8 z"
         fill="#008080"
         id="path46" /><path
         d="m 42.5001,574.667 c 0,-2.301 1.8655,-4.167 4.1667,-4.167 h 58.6662 c 2.302,0 4.167,1.866 4.167,4.167 v 16.666 c 0,2.301 -1.865,4.167 -4.167,4.167 H 46.6668 c -2.3012,0 -4.1667,-1.866 -4.1667,-4.167 z"
         stroke="#000000"
         stroke-width="0.666667"
         stroke-miterlimit="8"
         fill="#ffffff"
         fill-rule="evenodd"
         id="path47" /><text
         font-family="'Calibri Light', 'Calibri Light_MSFontService', sans-serif"
         font-weight="300"
         font-size="13px"
         transform="translate(59.99,586)"
         id="text47">Write</text><path
         d="m -20.5001,567.667 c 0,-2.301 1.8656,-4.167 4.1668,-4.167 h 58.6666 c 2.3012,0 4.1668,1.866 4.1668,4.167 v 16.666 c 0,2.302 -1.8656,4.167 -4.1668,4.167 h -58.6666 c -2.3012,0 -4.1668,-1.865 -4.1668,-4.167 z"
         stroke="#000000"
         stroke-width="0.666667"
         stroke-miterlimit="8"
         fill="#ffffff"
         fill-rule="evenodd"
         id="path48" /><text
         font-family="'Calibri Light', 'Calibri Light_MSFontService', sans-serif"
         font-weight="300"
         font-size="13px"
         transform="translate(-10.1425,579)"
         id="text48">Initialize</text><path
         d="m -89.5001,323.667 c 0,-2.301 1.8655,-4.167 4.1668,-4.167 h 76.66654 c 2.30121,0 4.16671,1.866 4.16671,4.167 v 16.666 c 0,2.302 -1.8655,4.167 -4.16671,4.167 H -85.3333 c -2.3013,0 -4.1668,-1.865 -4.1668,-4.167 z"
         stroke="#000000"
         stroke-width="0.666667"
         stroke-miterlimit="8"
         fill="#ffffff"
         fill-rule="evenodd"
         id="path49" /><text
         font-family="'Calibri Light', 'Calibri Light_MSFontService', sans-serif"
         font-weight="300"
         font-size="13px"
         transform="translate(-80.9629,336)"
         id="text49">Dereference</text><path
         d="m -46.0007,344.506 -0.1837,10.032 -0.5357,9.966 -2.0332,19.375 -1.4518,9.265 -1.7096,8.866 -1.9445,8.397 -2.1563,7.848 -2.3449,7.221 -2.5106,6.518 -2.6538,5.736 -2.7753,4.877 -2.8768,3.943 c -0.0105,0.014 -0.0222,0.028 -0.0349,0.041 l -2.9266,2.89 c -0.0188,0.019 -0.0396,0.035 -0.0622,0.049 l -2.9735,1.792 c -0.0324,0.019 -0.068,0.033 -0.1051,0.041 l -2.9969,0.614 -3.0164,0.435 0.0824,-0.023 -2.9735,1.259 0.06,-0.033 -2.9266,2.029 0.0411,-0.033 -2.8563,2.746 -2.7346,3.377 -2.6259,3.987 -2.4907,4.541 -2.3304,5.04 -2.145,5.483 -1.936,5.87 -3.15,12.687 -2.025,13.561 -0.533,6.966 -0.183,7.027 0.2,7.026 0.582,6.971 2.209,13.567 3.43,12.677 2.107,5.861 2.3368,5.484 2.5395,5.041 2.7155,4.543 2.8649,3.99 2.9869,3.381 3.0807,2.717 -0.0681,-0.046 3.3299,1.712 -0.3049,0.593 -3.3299,-1.713 c -0.0246,-0.012 -0.0475,-0.028 -0.0682,-0.046 l -3.1393,-2.775 -3.0287,-3.434 -2.8956,-4.037 -2.7387,-4.585 -2.5573,-5.08 -2.3515,-5.519 -2.122,-5.913 -3.445,-12.744 -2.215,-13.619 -0.584,-7.007 -0.2,-7.062 0.184,-7.061 0.538,-7.013 2.038,-13.624 3.164,-12.735 1.948,-5.904 2.161,-5.52 2.3509,-5.081 2.5186,-4.587 2.6646,-4.04 2.7904,-3.438 2.8563,-2.746 c 0.0128,-0.012 0.0265,-0.023 0.0411,-0.034 l 2.9266,-2.029 c 0.0188,-0.013 0.0389,-0.024 0.0601,-0.033 l 2.9735,-1.259 c 0.0263,-0.011 0.054,-0.018 0.0824,-0.023 l 2.9775,-0.428 2.9969,-0.615 -0.1051,0.041 2.9735,-1.791 -0.0622,0.048 2.9266,-2.891 -0.035,0.041 2.8358,-3.879 2.7497,-4.828 2.6367,-5.696 2.4987,-6.484 2.3361,-7.192 2.1496,-7.822 1.9394,-8.372 1.7055,-8.844 1.4475,-9.23 2.0305,-19.342 0.5349,-9.942 0.1836,-10.032 z m -35.9239,251.395 6.4246,6.223 -8.8331,1.406 z"
         id="path50" /><path
         d="m -75.4342,602.827 -2.2471,0.453 0.104,-0.04 -2.2296,1.32 0.0623,-0.047 -2.1944,2.129 0.0354,-0.04 -2.1417,2.882 -2.0505,3.543 -1.9703,4.187 -1.8692,4.77 -1.7488,5.293 -1.6098,5.758 -1.4527,6.164 -2.3635,13.32 -1.5202,14.241 -0.5375,14.703 0.262,3.664 0.7704,3.647 1.2629,3.637 1.7406,3.621 2.2033,3.598 2.6504,3.566 3.0818,3.528 3.4971,3.48 3.8959,3.425 4.2782,3.363 9.6432,6.51 10.9661,6.164 12.1627,5.762 13.2259,5.302 14.156,4.783 14.952935,4.207 15.616765,3.571 16.1475,2.879 16.5453,2.127 16.8103,1.319 10.2778,0.274 -0.0177,0.666 -10.3123,-0.276 -16.8431,-1.322 -16.5773,-2.132 -16.1792,-2.885 -15.648615,-3.579 -14.985785,-4.217 -14.1906,-4.796 -13.2634,-5.319 -12.2039,-5.783 -11.0125,-6.192 -9.6821,-6.539 -4.3065,-3.386 -3.926,-3.454 -3.5288,-3.514 -3.1149,-3.568 -2.6839,-3.616 -2.2356,-3.657 -1.7695,-3.691 -1.2854,-3.719 -0.783,-3.737 -0.2632,-3.736 0.5408,-14.749 1.5267,-14.286 2.371,-13.357 1.4596,-6.191 1.6188,-5.787 1.7611,-5.328 1.8868,-4.81 1.9966,-4.237 2.0922,-3.607 2.1417,-2.882 c 0.0107,-0.014 0.0225,-0.027 0.0354,-0.04 l 2.1944,-2.13 c 0.0188,-0.018 0.0397,-0.034 0.0623,-0.047 l 2.2295,-1.321 c 0.0322,-0.019 0.0674,-0.032 0.104,-0.04 l 2.2472,-0.453 z m 149.1786,153.362 7.8903,4.212 -8.1039,3.785 z"
         id="path51" /><path
         d="m -142.138,285.831 0.788,144.735 -0.667,0.003 -0.787,-144.734 z m -0.333,0.002 -3.985,2.689 3.956,-8.022 4.043,7.978 z"
         fill="#0000ff"
         id="path52" /><path
         d="M 0.017644,-0.332866 4.7754,-0.0806745 9.52958,0.65794 14.2068,1.85016 18.77,3.46327 l 4.4122,2.00142 4.2242,2.35733 7.726,5.64528 c 0.0149,0.0109 0.0288,0.023 0.0417,0.0361 l 6.5008,6.6536 2.7395,3.6662 2.3192,3.8201 1.871,3.9528 1.3851,4.0538 c 0.0065,0.019 0.0112,0.0386 0.0142,0.0585 l 0.2375,1.5938 -0.6594,0.0983 -0.2375,-1.5938 0.0142,0.0584 -1.3567,-3.984 -1.8384,-3.892 -2.2835,-3.7672 -2.682,-3.599 -6.5008,-6.6536 0.0417,0.0362 L 27.0814,8.4041 22.9066,6.07174 18.5476,4.09175 14.042,2.49612 9.427,1.31667 4.74011,0.585058 -0.017644,0.332866 Z M 53.694,35.488 50.8155,43.9564 45.7679,36.5726 Z"
         fill="#0000ff"
         transform="matrix(0,1,1,0,-133.5,281.5)"
         id="path53" /><text
         font-family="'Calibri Light', 'Calibri Light_MSFontService', sans-serif"
         font-weight="300"
         font-size="13px"
         transform="translate(-169.894,848)"
         id="text53">C</text><text
         font-family="'Calibri Light', 'Calibri Light_MSFontService', sans-serif"
         font-weight="300"
         font-size="13px"
         transform="translate(-162.728,848)"
         id="text54">reate</text><text
         font-family="'Calibri Light', 'Calibri Light_MSFontService', sans-serif"
         font-weight="300"
         font-size="13px"
         transform="translate(-169.894,864)"
         id="text55">Object</text><text
         font-family="'Calibri Light', 'Calibri Light_MSFontService', sans-serif"
         font-weight="300"
         font-size="13px"
         transform="translate(43.4637,864)"
         id="text56">Object</text><text
         font-family="'Calibri Light', 'Calibri Light_MSFontService', sans-serif"
         font-weight="300"
         font-size="13px"
         transform="translate(81.7971,864)"
         id="text57">I</text><text
         font-family="'Calibri Light', 'Calibri Light_MSFontService', sans-serif"
         font-weight="300"
         font-size="13px"
         transform="translate(85.1304,864)"
         id="text58">n</text><text
         font-family="'Calibri Light', 'Calibri Light_MSFontService', sans-serif"
         font-weight="300"
         font-size="13px"
         transform="translate(95.1304,864)"
         id="text59">U</text><text
         font-family="'Calibri Light', 'Calibri Light_MSFontService', sans-serif"
         font-weight="300"
         font-size="13px"
         transform="translate(103.63,864)"
         id="text60">se</text><text
         font-family="'Calibri Light', 'Calibri Light_MSFontService', sans-serif"
         font-weight="300"
         font-size="13px"
         transform="translate(268.023,848)"
         id="text61">D</text><text
         font-family="'Calibri Light', 'Calibri Light_MSFontService', sans-serif"
         font-weight="300"
         font-size="13px"
         transform="translate(276.189,848)"
         id="text62">estroy</text><text
         font-family="'Calibri Light', 'Calibri Light_MSFontService', sans-serif"
         font-weight="300"
         font-size="13px"
         transform="translate(274.523,864)"
         id="text63">Object</text><path
         d="m 239.5,831.5 c 0,5.247 -10.062,9.5 -22.475,9.5 H 102.813 c -12.4127,0 -22.475,4.253 -22.475,9.5 0,-5.247 -10.0623,-9.5 -22.4748,-9.5 H -57.0253 c -12.4125,0 -22.4748,-4.253 -22.4748,-9.5"
         stroke="#454545"
         stroke-width="0.666667"
         stroke-miterlimit="8"
         fill="none"
         fill-rule="evenodd"
         id="path63" /><path
         d="m 148.5,762.667 c 0,-2.301 1.866,-4.167 4.167,-4.167 h 58.666 c 2.302,0 4.167,1.866 4.167,4.167 v 16.666 c 0,2.301 -1.865,4.167 -4.167,4.167 h -58.666 c -2.301,0 -4.167,-1.866 -4.167,-4.167 z"
         stroke="#000000"
         stroke-width="0.666667"
         stroke-miterlimit="8"
         fill="#ffffff"
         fill-rule="evenodd"
         id="path64" /><text
         font-family="'Calibri Light', 'Calibri Light_MSFontService', sans-serif"
         font-weight="300"
         font-size="13px"
         transform="translate(153.657,774)"
         id="text64">Reallocate</text><text
         font-family="'Calibri Light', 'Calibri Light_MSFontService', sans-serif"
         font-weight="300"
         font-size="13px"
         transform="rotate(73.720033,-154.58042,438.55966)"
         id="text65">A</text><text
         font-family="'Calibri Light', 'Calibri Light_MSFontService', sans-serif"
         font-weight="300"
         font-size="13px"
         transform="rotate(73.720033,-158.19726,443.46217)"
         id="text66">ll</text><text
         font-family="'Calibri Light', 'Calibri Light_MSFontService', sans-serif"
         font-weight="300"
         font-size="13px"
         transform="rotate(73.720033,-162.93792,449.64477)"
         id="text67">O</text><text
         font-family="'Calibri Light', 'Calibri Light_MSFontService', sans-serif"
         font-weight="300"
         font-size="13px"
         transform="rotate(73.720033,-167.05867,455.26469)"
         id="text68">wners</text><text
         font-family="'Calibri Light', 'Calibri Light_MSFontService', sans-serif"
         font-weight="300"
         font-size="13px"
         transform="rotate(15.377411,-1471.4238,693.12069)"
         id="text69">A</text><text
         font-family="'Calibri Light', 'Calibri Light_MSFontService', sans-serif"
         font-weight="300"
         font-size="13px"
         transform="rotate(15.377411,-1475.2155,720.90126)"
         id="text70">ll</text><text
         font-family="'Calibri Light', 'Calibri Light_MSFontService', sans-serif"
         font-weight="300"
         font-size="13px"
         transform="rotate(15.377411,-1532.8026,685.40641)"
         id="text71">O</text><text
         font-family="'Calibri Light', 'Calibri Light_MSFontService', sans-serif"
         font-weight="300"
         font-size="13px"
         transform="rotate(15.377411,-1536.0317,717.35351)"
         id="text72">wners</text><path
         d="m -130.833,430.557 0.068,-2.666 0.667,0.017 -0.069,2.666 z m 0.12,-4.665 0.068,-2.666 0.667,0.017 -0.069,2.666 z m 0.128,-4.682 0.2,-2.659 0.665,0.051 -0.201,2.659 z m 0.351,-4.653 0.201,-2.659 0.665,0.05 -0.201,2.659 z m 0.369,-4.668 0.328,-2.646 0.661,0.082 -0.327,2.646 z m 0.573,-4.631 0.328,-2.646 0.661,0.081 -0.327,2.647 z m 0.606,-4.642 0.45,-2.629 0.657,0.113 -0.45,2.628 z m 0.788,-4.6 0.451,-2.628 0.657,0.113 -0.451,2.628 z m 0.843,-4.605 0.573,-2.604 0.651,0.143 -0.573,2.605 z m 1.003,-4.557 0.573,-2.605 0.651,0.144 -0.573,2.604 z m 1.088,-4.553 0.697,-2.574 0.643,0.174 -0.696,2.574 z m 1.22,-4.505 0.514,-1.902 0.221,-0.678 0.634,0.206 -0.218,0.67 0.005,-0.016 -0.513,1.894 z m 1.353,-4.482 0.825,-2.536 0.634,0.206 -0.825,2.536 z m 1.443,-4.438 0.218,-0.672 0.712,-1.845 0.622,0.24 -0.708,1.837 0.006,-0.017 -0.216,0.663 z m 1.65,-4.383 0.96,-2.488 0.622,0.24 -0.96,2.488 z m 1.74,-4.351 1.106,-2.426 0.606,0.276 -1.106,2.427 z m 1.935,-4.246 0.682,-1.495 0.498,-0.92 0.586,0.317 -0.492,0.91 0.01,-0.02 -0.677,1.485 z m 2.131,-4.175 1.268,-2.345 0.587,0.317 -1.269,2.346 z m 2.298,-4.089 1.453,-2.236 0.559,0.363 -1.453,2.236 z m 2.543,-3.913 0.354,-0.546 1.279,-1.6 0.521,0.416 -1.269,1.588 0.019,-0.027 -0.345,0.532 z m 2.882,-3.709 1.044,-1.307 0.741,-0.722 0.465,0.477 -0.726,0.708 0.028,-0.03 -1.032,1.29 z m 3.217,-3.426 1.53,-1.493 0.476,-0.335 0.384,0.545 -0.454,0.32 0.041,-0.034 -1.512,1.474 z m 3.6416,-2.979 1.6987,-1.195 0.6056,-0.26 0.263,0.613 -0.5737,0.246 0.0603,-0.034 -1.6702,1.175 z m 4.1421,-2.244 0.0499,-0.021 0.263,0.612 -0.0499,0.022 z m 0.1814,0.285 -3.4638,-3.334 8.6726,2.188 -6.9538,5.625 z"
         fill="#008080"
         id="path72" /><text
         fill="#7f7f7f"
         font-family="'Calibri Light', 'Calibri Light_MSFontService', sans-serif"
         font-weight="300"
         font-size="12px"
         transform="translate(-247.946,820)"
         id="text73">BF, I. Bojanova</text><path
         d="m -53.0073,500.572 -0.5184,2.331 c -0.0087,0.039 -0.0242,0.076 -0.0458,0.109 l -1.4653,2.258 c -0.015,0.023 -0.0328,0.044 -0.0529,0.063 l -2.2768,2.111 c -0.0146,0.014 -0.0302,0.026 -0.0469,0.037 l -2.9531,1.891 -3.5352,1.622 -3.9381,1.247 -4.2086,0.803 -4.3462,0.286 -2.1438,0.254 0.0703,-0.016 -2.1443,0.746 0.0556,-0.026 -2.1106,1.204 0.0416,-0.028 -2.0598,1.628 -1.9616,1.993 -1.8849,2.353 -3.4699,5.673 -2.9319,6.711 -2.2632,7.499 -1.4564,8.022 -0.5137,8.281 0.539,8.278 1.5183,8.018 2.3577,7.498 3.0557,6.714 3.6106,5.665 1.9582,2.346 2.048,1.995 -0.0667,-0.051 2.575,1.48 -0.3321,0.578 -2.575,-1.48 c -0.0243,-0.014 -0.0467,-0.031 -0.0667,-0.05 l -2.0946,-2.046 -2.0085,-2.413 -3.6551,-5.748 -3.0848,-6.79 -2.3767,-7.574 -1.5286,-8.099 -0.5391,-8.362 0.5232,-8.359 1.4742,-8.096 2.2905,-7.573 2.9742,-6.793 3.5183,-5.741 1.9304,-2.405 2.0228,-2.047 2.0598,-1.628 c 0.0132,-0.011 0.0271,-0.02 0.0416,-0.028 l 2.1106,-1.204 c 0.0177,-0.01 0.0363,-0.018 0.0555,-0.025 l 2.1444,-0.746 c 0.0228,-0.008 0.0464,-0.013 0.0703,-0.016 l 2.1788,-0.258 4.2651,-0.275 4.1322,-0.784 3.8616,-1.218 3.453,-1.576 2.9531,-1.892 -0.0468,0.037 2.2768,-2.112 -0.053,0.063 1.4653,-2.257 -0.0458,0.109 0.5185,-2.331 z m -28.5656,95.071 6.0729,6.566 -8.897,0.919 z"
         id="path73" /><path
         d="M 0.0580476,-0.32824 1.8448,-0.0122623 3.6466,0.923857 5.39181,2.40995 l 1.68537,1.98947 1.61994,2.45325 1.54558,2.87921 1.4602,3.26742 1.3641,3.6211 2.3802,8.1275 1.8347,9.0693 1.1804,9.696 0.4171,9.9967 -2e-4,-0.0043 0.2741,5.0113 -0.0038,-0.0347 0.7988,4.9721 -0.0067,-0.032 1.2885,4.8938 -0.0092,-0.0295 1.7433,4.7761 -0.0112,-0.027 2.1631,4.6193 -0.013,-0.025 2.548,4.4233 -0.0228,-0.0344 6.1105,8.1018 -0.0269,-0.0314 3.4925,3.6 -0.0206,-0.0195 3.7374,3.2472 -0.0233,-0.0184 3.9473,2.8552 -0.0264,-0.0173 4.1222,2.4245 -0.03,-0.016 4.2621,1.953 -0.0342,-0.013 4.3671,1.444 -0.0388,-0.01 3.5972,0.725 -0.1319,0.654 -3.6168,-0.73 -4.4036,-1.456 -4.2943,-1.968 -4.1505,-2.441 -3.9721,-2.873 -3.7594,-3.2663 -3.5168,-3.6251 -6.1353,-8.1347 -2.5653,-4.4534 -2.1754,-4.6454 -1.7536,-4.8044 -1.2967,-4.9244 -0.8042,-5.0056 -0.2751,-5.0309 -0.4166,-9.9856 0.0021,0.0264 -1.1772,-9.6698 0.0041,0.0258 -1.8293,-9.0426 0.0069,0.0276 -2.3727,-8.1017 0.008,0.0238 -1.3561,-3.6001 0.0076,0.0185 L 9.63898,10.0149 9.64961,10.0366 8.11691,7.18135 8.13244,7.20737 6.53182,4.78338 6.55564,4.81516 4.90069,2.86159 4.93891,2.89992 3.24321,1.45598 3.30564,1.49799 1.58277,0.602876 1.6784,0.635322 -0.0580476,0.32824 Z M 60.9984,106.571 l -2.2986,-4.222 7.6106,4.699 -8.3253,3.269 z"
         transform="matrix(0,-1,-1,0,81.5475,525.811)"
         id="path74" /><path
         d="m 0.030293,-0.331954 5.554417,0.506878 5.40519,1.439206 5.0527,2.23548 4.5289,2.90069 3.8332,3.4371 2.9636,3.847 1.9159,4.1322 0.6727,4.2338 0.6655,4.188 -0.0268,-0.0879 1.8807,4.0564 -0.0384,-0.0633 2.9223,3.7933 -0.0416,-0.0447 3.7903,3.3986 -0.0427,-0.0325 4.4846,2.8723 -0.0449,-0.0241 5.0055,2.2145 -0.0491,-0.0172 5.3526,1.4252 -0.0554,-0.0099 0.215,0.0197 -0.0606,0.6639 -0.2432,-0.0222 -5.4052,-1.4392 -5.0527,-2.2355 -4.5289,-2.9007 -3.8331,-3.437 -2.9637,-3.8471 -1.9158,-4.1322 -0.6728,-4.2338 -0.6655,-4.1879 0.0268,0.0879 -1.8806,-4.0564 0.0383,0.0632 -2.9222,-3.7933 0.0415,0.0447 L 20.1465,7.26464 20.1893,7.29716 15.7046,4.4248 15.7495,4.44893 10.7441,2.23436 10.7932,2.25164 5.4405,0.826419 5.49597,0.836262 -0.030293,0.331954 Z M 53.9442,44.4207 l -2.2921,-4.2258 7.6033,4.7105 -8.3304,3.2564 z"
         transform="matrix(0,-1,-1,0,126.405,737.755)"
         id="path75" /></g></g></svg>
