<?xml version="1.0" encoding="UTF-8" standalone="no"?>
<!-- Created with Inkscape (http://www.inkscape.org/) -->

<svg
   width="197.24556mm"
   height="201.3784mm"
   viewBox="0 0 197.24556 201.3784"
   version="1.1"
   id="svg1"
   xml:space="preserve"
   sodipodi:docname="_MEM.svg"
   inkscape:version="1.3 (0e150ed6c4, 2023-07-21)"
   xmlns:inkscape="http://www.inkscape.org/namespaces/inkscape"
   xmlns:sodipodi="http://sodipodi.sourceforge.net/DTD/sodipodi-0.dtd"
   xmlns="http://www.w3.org/2000/svg"
   xmlns:svg="http://www.w3.org/2000/svg"><sodipodi:namedview
     id="namedview1"
     pagecolor="#ffffff"
     bordercolor="#000000"
     borderopacity="0.25"
     inkscape:showpageshadow="2"
     inkscape:pageopacity="0.0"
     inkscape:pagecheckerboard="0"
     inkscape:deskcolor="#d1d1d1"
     inkscape:document-units="mm"
     inkscape:zoom="1.7041198"
     inkscape:cx="76.285716"
     inkscape:cy="134.08682"
     inkscape:window-width="2560"
     inkscape:window-height="1377"
     inkscape:window-x="-8"
     inkscape:window-y="859"
     inkscape:window-maximized="1"
     inkscape:current-layer="layer1" /><defs
     id="defs1"><clipPath
       clipPathUnits="userSpaceOnUse"
       id="clipPath594"><path
         d="M 0,0 H 717 V 334 H 0 Z"
         id="path592" /></clipPath><clipPath
       id="clip0"><rect
         x="104"
         y="143"
         width="985"
         height="489"
         id="rect685" /></clipPath><clipPath
       id="clip0-9"><rect
         x="122"
         y="272"
         width="912"
         height="352"
         id="rect908" /></clipPath><clipPath
       id="clip0-4"><rect
         x="122"
         y="272"
         width="912"
         height="317"
         id="rect1246" /></clipPath><clipPath
       id="clip0-7"><rect
         x="122"
         y="272"
         width="928"
         height="352"
         id="rect1" /></clipPath><clipPath
       id="clip0-6"><rect
         x="122"
         y="272"
         width="926"
         height="321"
         id="rect1-5" /></clipPath><clipPath
       id="clip0-0"><rect
         x="122"
         y="272"
         width="919"
         height="321"
         id="rect1-4" /></clipPath><clipPath
       id="clip0-90"><rect
         x="121"
         y="270"
         width="913"
         height="355"
         id="rect1-7" /></clipPath><clipPath
       id="clip0-60"><rect
         x="121"
         y="270"
         width="913"
         height="301"
         id="rect1-3" /></clipPath><clipPath
       id="clip0-07"><rect
         x="352"
         y="301"
         width="378"
         height="504"
         id="rect1-8" /></clipPath><clipPath
       id="clip0-98"><rect
         x="121"
         y="270"
         width="913"
         height="301"
         id="rect1-87" /></clipPath><clipPath
       id="clip0-3"><rect
         x="121"
         y="270"
         width="920"
         height="293"
         id="rect1-876" /></clipPath><clipPath
       id="clip0-5"><rect
         x="95"
         y="267"
         width="896"
         height="547"
         id="rect1-2" /></clipPath><clipPath
       id="clip0-63"><rect
         x="95"
         y="267"
         width="864"
         height="433"
         id="rect1-21" /></clipPath><clipPath
       id="clip0-1"><rect
         x="33"
         y="-1"
         width="1182"
         height="611"
         id="rect1-50" /></clipPath><clipPath
       id="clip0-52"><rect
         x="320"
         y="-1"
         width="728"
         height="559"
         id="rect1-9" /></clipPath><clipPath
       id="clip0-68"><rect
         x="320"
         y="-1"
         width="728"
         height="544"
         id="rect1-97" /></clipPath><clipPath
       id="clip0-10"><rect
         x="320"
         y="39"
         width="728"
         height="504"
         id="rect1-6" /></clipPath><clipPath
       id="clip0-37"><rect
         x="270"
         y="350"
         width="728"
         height="440"
         id="rect1-51" /></clipPath><clipPath
       id="clip0-41"><rect
         x="270"
         y="318"
         width="728"
         height="472"
         id="rect1-57" /></clipPath><clipPath
       id="clip0-50"><rect
         x="320"
         y="39"
         width="728"
         height="504"
         id="rect1-98" /></clipPath><clipPath
       id="clip0-48"><rect
         x="320"
         y="71"
         width="728"
         height="472"
         id="rect1-0" /></clipPath><clipPath
       id="clip0-02"><rect
         x="320"
         y="39"
         width="728"
         height="504"
         id="rect1-09" /></clipPath><clipPath
       id="clip0-59"><rect
         x="320"
         y="71"
         width="728"
         height="472"
         id="rect1-04" /></clipPath><clipPath
       id="clip0-16"><rect
         x="320"
         y="71"
         width="728"
         height="472"
         id="rect1-35" /></clipPath><clipPath
       id="clip0-8"><rect
         x="121"
         y="270"
         width="913"
         height="278"
         id="rect1-54" /></clipPath><clipPath
       id="clip0-76"><rect
         x="121"
         y="270"
         width="913"
         height="278"
         id="rect1-06" /></clipPath><clipPath
       id="clip0-106"><rect
         x="121"
         y="270"
         width="913"
         height="278"
         id="rect1-874" /></clipPath><clipPath
       id="clip0-94"><rect
         x="348"
         y="312"
         width="382"
         height="449"
         id="rect1-25" /></clipPath><clipPath
       id="clip0-64"><rect
         x="121"
         y="270"
         width="913"
         height="278"
         id="rect1-62" /></clipPath><clipPath
       id="clip0-47"><rect
         x="95"
         y="267"
         width="896"
         height="547"
         id="rect1-63" /></clipPath><clipPath
       id="clip0-71"><rect
         x="146"
         y="266"
         width="857"
         height="282"
         id="rect1-92" /></clipPath><clipPath
       id="clip0-57"><rect
         x="177"
         y="266"
         width="747"
         height="385"
         id="rect1-22" /></clipPath><clipPath
       id="clip0-102"><rect
         x="186"
         y="271"
         width="702"
         height="380"
         id="rect1-926" /></clipPath><clipPath
       id="clip0-77"><rect
         x="186"
         y="271"
         width="702"
         height="380"
         id="rect1-224" /></clipPath><clipPath
       id="clip0-482"><rect
         x="186"
         y="274"
         width="661"
         height="377"
         id="rect1-08" /></clipPath><clipPath
       id="clip0-04"><rect
         x="167"
         y="266"
         width="819"
         height="282"
         id="rect1-34" /></clipPath><clipPath
       id="clip0-56"><rect
         x="163"
         y="265"
         width="799"
         height="282"
         id="rect1-47" /></clipPath><clipPath
       id="clip0-2"><rect
         x="351"
         y="273"
         width="638"
         height="472"
         id="rect1-1" /></clipPath><clipPath
       id="clip0-93"><rect
         x="351"
         y="241"
         width="638"
         height="504"
         id="rect1-77" /></clipPath><clipPath
       id="clip0-49"><rect
         x="351"
         y="241"
         width="638"
         height="504"
         id="rect1-981" /></clipPath><clipPath
       id="clip0-31"><rect
         x="193"
         y="272"
         width="654"
         height="379"
         id="rect1-05" /></clipPath><clipPath
       id="clip0-938"><rect
         x="193"
         y="272"
         width="654"
         height="379"
         id="rect1-12" /></clipPath><clipPath
       id="clip0-85"><rect
         x="163"
         y="265"
         width="805"
         height="282"
         id="rect1-257" /></clipPath><clipPath
       id="clip0-83"><rect
         x="193"
         y="272"
         width="641"
         height="380"
         id="rect1-068" /></clipPath><clipPath
       id="clip0-44"><rect
         x="163"
         y="265"
         width="805"
         height="282"
         id="rect1-923" /></clipPath><clipPath
       id="clip0-412"><rect
         x="193"
         y="272"
         width="641"
         height="380"
         id="rect1-49" /></clipPath><clipPath
       id="clip0-483"><rect
         x="351"
         y="241"
         width="639"
         height="458"
         id="rect1-357" /></clipPath><clipPath
       id="clip0-32"><rect
         x="351"
         y="241"
         width="639"
         height="458"
         id="rect1-15" /></clipPath><clipPath
       id="clip0-045"><rect
         x="163"
         y="265"
         width="805"
         height="282"
         id="rect1-01" /></clipPath><clipPath
       id="clip0-97"><rect
         x="216"
         y="229"
         width="621"
         height="318"
         id="rect1-03" /></clipPath><clipPath
       id="clip0-87"><rect
         x="216"
         y="229"
         width="621"
         height="318"
         id="rect1-66" /></clipPath><clipPath
       id="clip0-26"><rect
         x="-19"
         y="165"
         width="814"
         height="597"
         id="rect1-73" /></clipPath><clipPath
       id="clip0-89"><rect
         x="77"
         y="89"
         width="762"
         height="777"
         id="rect1-40" /></clipPath><clipPath
       id="clip0-91"><rect
         x="216"
         y="229"
         width="621"
         height="318"
         id="rect1-229" /></clipPath><clipPath
       id="clip0-569"><rect
         x="77"
         y="89"
         width="762"
         height="777"
         id="rect1-639" /></clipPath></defs><g
     inkscape:label="Layer 1"
     inkscape:groupmode="layer"
     id="layer1"
     transform="translate(-148.06858,-138.87249)"><g
       clip-path="url(#clip0-569)"
       transform="matrix(0.26458333,0,0,0.26458333,125.42139,113.09939)"
       id="g79"><path
         d="m 331.5,517.505 c 0,-9.944 8.061,-18.005 18.005,-18.005 h 279.99 c 9.944,0 18.005,8.061 18.005,18.005 v 141.99 c 0,9.944 -8.061,18.005 -18.005,18.005 h -279.99 c -9.944,0 -18.005,-8.061 -18.005,-18.005 z"
         stroke="#7b7b7b"
         stroke-width="1.33333"
         stroke-miterlimit="8"
         fill="#f2f2f2"
         fill-rule="evenodd"
         id="path1" /><text
         font-family="Arial, Arial_MSFontService, sans-serif"
         font-weight="400"
         font-size="12px"
         transform="translate(452.754,516)"
         id="text1">MUS (</text><text
         font-family="Arial, Arial_MSFontService, sans-serif"
         font-weight="400"
         font-size="12px"
         transform="translate(486.754,516)"
         id="text2">Object</text><text
         font-family="Arial, Arial_MSFontService, sans-serif"
         font-weight="400"
         font-size="12px"
         transform="translate(521.421,516)"
         id="text3">)</text><path
         d="m 346.5,567.17 c 0,-9.206 7.464,-16.67 16.67,-16.67 h 253.66 c 9.207,0 16.67,7.464 16.67,16.67 v 80.66 c 0,9.207 -7.463,16.67 -16.67,16.67 H 363.17 c -9.206,0 -16.67,-7.463 -16.67,-16.67 z"
         stroke="#7b7b7b"
         stroke-width="1.33333"
         stroke-miterlimit="8"
         fill="#f7f7f8"
         fill-rule="evenodd"
         id="path3" /><path
         d="m 220.5,235.955 c 0,-9.64 7.815,-17.455 17.455,-17.455 h 269.09 c 9.64,0 17.455,7.815 17.455,17.455 v 93.09 c 0,9.64 -7.815,17.455 -17.455,17.455 h -269.09 c -9.64,0 -17.455,-7.815 -17.455,-17.455 z"
         stroke="#7b7b7b"
         stroke-width="1.33333"
         stroke-miterlimit="8"
         fill="#f2f2f2"
         fill-rule="evenodd"
         id="path4" /><text
         font-family="Arial, Arial_MSFontService, sans-serif"
         font-weight="400"
         font-size="12px"
         transform="translate(335.463,235)"
         id="text4">MAD (</text><text
         font-family="Arial, Arial_MSFontService, sans-serif"
         font-weight="400"
         font-size="12px"
         transform="translate(369.463,235)"
         id="text5">Owner</text><text
         font-family="Arial, Arial_MSFontService, sans-serif"
         font-weight="400"
         font-size="12px"
         transform="translate(404.796,235)"
         id="text6">)</text><path
         d="m 218.5,387.001 c 0,-10.218 8.283,-18.501 18.501,-18.501 H 470 c 10.217,0 18.5,8.283 18.5,18.501 V 461 c 0,10.217 -8.283,18.5 -18.5,18.5 H 237.001 C 226.783,479.5 218.5,471.217 218.5,461 Z"
         stroke="#7b7b7b"
         stroke-width="1.33333"
         stroke-miterlimit="8"
         fill="#f2f2f2"
         fill-rule="evenodd"
         id="path6" /><text
         font-family="Arial, Arial_MSFontService, sans-serif"
         font-weight="400"
         font-size="12px"
         transform="translate(318.126,385)"
         id="text7">MAL (</text><text
         font-family="Arial, Arial_MSFontService, sans-serif"
         font-weight="400"
         font-size="12px"
         transform="translate(350.126,385)"
         id="text8">Object</text><text
         font-family="Arial, Arial_MSFontService, sans-serif"
         font-weight="400"
         font-size="12px"
         transform="translate(384.793,385)"
         id="text9">)</text><path
         d="m 488.5,719.001 c 0,-10.218 8.283,-18.501 18.5,-18.501 h 229 c 10.217,0 18.5,8.283 18.5,18.501 V 793 c 0,10.217 -8.283,18.5 -18.5,18.5 H 507 c -10.217,0 -18.5,-8.283 -18.5,-18.5 z"
         stroke="#7b7b7b"
         stroke-width="1.33333"
         stroke-miterlimit="8"
         fill="#f2f2f2"
         fill-rule="evenodd"
         id="path9" /><text
         font-family="Arial, Arial_MSFontService, sans-serif"
         font-weight="400"
         font-size="12px"
         transform="translate(585.721,717)"
         id="text10">MDL (</text><text
         font-family="Arial, Arial_MSFontService, sans-serif"
         font-weight="400"
         font-size="12px"
         transform="translate(618.388,717)"
         id="text11">Object</text><text
         font-family="Arial, Arial_MSFontService, sans-serif"
         font-weight="400"
         font-size="12px"
         transform="translate(653.054,717)"
         id="text12">)</text><path
         d="m 449.5,572.833 c 0,-2.393 1.94,-4.333 4.333,-4.333 h 58.334 c 2.393,0 4.333,1.94 4.333,4.333 v 17.334 c 0,2.393 -1.94,4.333 -4.333,4.333 h -58.334 c -2.393,0 -4.333,-1.94 -4.333,-4.333 z"
         stroke="#000000"
         stroke-width="1.33333"
         stroke-miterlimit="8"
         fill="#ffffff"
         fill-rule="evenodd"
         id="path12" /><text
         font-family="Arial, Arial_MSFontService, sans-serif"
         font-weight="400"
         font-size="12px"
         transform="translate(467.967,586)"
         id="text13">Read</text><path
         d="m 728.535,782.943 2.5,-0.375 -0.18,0.054 2.437,-1.125 -0.103,0.059 2.5,-1.75 -0.095,0.081 2.438,-2.5 -0.053,0.06 2.438,-3.187 -0.034,0.048 2.375,-3.75 -0.022,0.039 2.375,-4.375 -0.017,0.032 2.375,-5 -0.012,0.027 2.312,-5.5 -0.011,0.029 2.25,-6.125 -0.007,0.019 2.188,-6.562 -0.005,0.015 2.188,-7.125 -0.006,0.02 2.062,-7.562 -0.002,0.008 2.062,-8 -0.004,0.018 1.938,-8.438 -0.002,0.006 1.938,-8.812 -0.003,0.014 1.812,-9.188 -10e-4,0.009 1.75,-9.562 -0.003,0.015 3.188,-20.062 -0.003,0.017 2.813,-21.25 -0.002,0.016 2.375,-22.125 -0.002,0.015 1.938,-22.875 -10e-4,0.016 1.437,-23.438 -10e-4,0.017 0.875,-23.875 v 0.015 l 0.312,-24 10e-4,0.037 -0.5,-12 0.004,0.051 -1.438,-12 0.009,0.054 -2.437,-12 0.011,0.046 -3.313,-11.875 0.014,0.045 -4.187,-11.75 0.016,0.041 -5.062,-11.688 0.016,0.035 -5.813,-11.563 0.02,0.036 -6.625,-11.375 0.02,0.033 -7.375,-11.125 0.02,0.028 -8.125,-11 0.022,0.028 -8.813,-10.687 0.019,0.021 -9.438,-10.5 0.022,0.023 -10.063,-10.188 0.022,0.022 -10.687,-9.875 0.02,0.018 -11.25,-9.563 0.021,0.018 -11.75,-9.188 0.02,0.015 -12.25,-8.875 0.025,0.017 -12.75,-8.375 0.02,0.013 -13.187,-8 0.021,0.012 -13.563,-7.562 0.023,0.012 -14,-7.125 0.024,0.011 -14.312,-6.562 0.02,0.009 -14.625,-6.125 0.026,0.01 -14.875,-5.5 0.022,0.008 -15.125,-5 0.027,0.008 -15.375,-4.375 0.026,0.007 -15.562,-3.75 0.024,0.005 -15.75,-3.187 0.03,0.005 -15.812,-2.437 0.026,0.003 -15.937,-1.812 0.028,0.002 -16,-1.124 0.032,0.001 -10.677,-0.235 0.03,-1.333 10.693,0.235 16.03,1.127 15.965,1.816 15.841,2.442 15.777,3.193 15.588,3.756 15.401,4.383 15.15,5.008 14.899,5.509 14.648,6.134 14.335,6.573 14.024,7.137 13.584,7.575 13.208,8.012 12.773,8.39 12.272,8.891 11.77,9.204 11.271,9.58 10.709,9.895 10.084,10.209 9.458,10.522 8.833,10.713 8.145,11.027 7.395,11.156 6.645,11.409 5.831,11.598 5.078,11.725 4.203,11.793 3.325,11.921 2.448,12.05 1.444,12.052 0.502,12.044 -0.313,24.027 -0.876,23.891 -1.438,23.453 -1.939,22.89 -2.377,22.141 -2.814,21.266 -3.19,20.079 -1.753,9.575 -1.814,9.199 -1.94,8.823 -1.94,8.449 -2.066,8.013 -2.067,7.577 -2.193,7.143 -2.193,6.579 -2.259,6.149 -2.324,5.528 -2.389,5.03 -2.394,4.411 -2.403,3.794 -2.48,3.242 -2.509,2.574 -2.6,1.82 -2.578,1.19 -2.594,0.389 z m -283.703,-512.326 2.578,4.058 -7.91,-4.175 8.086,-3.823 z"
         fill="#0000ff"
         id="path13" /><text
         font-family="Arial, Arial_MSFontService, sans-serif"
         font-weight="400"
         font-size="12px"
         transform="translate(759.592,174)"
         id="text14">Other Object</text><text
         font-family="Arial, Arial_MSFontService, sans-serif"
         font-weight="400"
         font-size="12px"
         transform="translate(774.926,188)"
         id="text15">/ NULL</text><path
         d="m 405.842,257.668 0.271,-1.62 0.976,-1.674 1.46,-1.526 1.944,-1.555 2.432,-1.473 2.853,-1.458 3.351,-1.454 3.841,-1.385 4.205,-1.381 4.582,-1.381 5.017,-1.317 5.39,-1.316 11.771,-2.504 13.02,-2.316 14.203,-2.128 15.202,-1.939 16.015,-1.689 16.762,-1.376 17.324,-1.189 17.704,-0.875 36.197,-0.688 36.188,-0.688 -0.02,0.001 17.687,-0.875 -0.01,0.001 17.312,-1.125 -0.014,0.001 16.75,-1.438 -0.012,0.002 16,-1.688 -0.015,0.002 15.188,-1.938 -0.015,0.002 14.188,-2.125 -0.018,0.003 13,-2.312 -0.022,0.004 11.75,-2.5 -0.013,0.003 5.375,-1.25 -0.025,0.006 5,-1.375 -0.008,0.002 4.563,-1.312 -0.024,0.007 4.187,-1.375 -0.027,0.01 3.813,-1.438 -0.021,0.008 3.313,-1.375 -0.048,0.022 2.813,-1.437 -0.053,0.03 2.375,-1.5 -0.05,0.034 1.64,-1.256 0.811,1.058 -1.663,1.275 -2.427,1.532 -2.863,1.464 -3.347,1.389 -3.836,1.446 -4.213,1.384 -4.578,1.317 -5.017,1.379 -5.394,1.255 -11.767,2.503 -13.02,2.316 -14.203,2.128 -15.202,1.939 -16.014,1.689 -16.763,1.439 -17.325,1.126 -17.703,0.875 -36.197,0.688 -36.188,0.688 0.02,-0.001 -17.687,0.875 0.013,-10e-4 -17.313,1.188 0.009,-0.001 -16.75,1.375 0.015,-0.001 -16,1.687 0.015,-0.002 -15.188,1.938 0.015,-0.002 -14.188,2.125 0.018,-0.003 -13,2.312 0.022,-0.004 -11.75,2.5 0.02,-0.004 -5.375,1.312 0.011,-0.003 -5,1.313 0.023,-0.007 -4.563,1.375 0.016,-0.005 -4.188,1.375 0.019,-0.006 -3.813,1.375 0.039,-0.015 -3.312,1.437 0.038,-0.018 -2.813,1.438 0.042,-0.024 -2.375,1.438 0.071,-0.05 -1.875,1.5 0.066,-0.06 -1.375,1.438 0.094,-0.125 -0.875,1.5 0.082,-0.226 -0.25,1.5 z m 385.672,-58.584 -4.801,0.247 7.528,-4.831 -0.652,8.921 z"
         fill="#454545"
         id="path15" /><path
         d="m 5.466,0.609894 2.50341,1.126536 3.61119,2.7729 3.1988,3.58263 2.7457,4.15044 2.0415,4.6572 1.4047,4.9801 0.4429,5.1254 0.4375,5.0625 -0.0226,-0.1236 1.375,4.875 -0.031,-0.0867 2,4.5625 -0.052,-0.0962 2.6875,4.125 -0.0653,-0.0845 3.125,3.4375 -0.0873,-0.0804 3.5,2.6875 -0.1324,-0.0791 2.4116,1.0852 -0.5471,1.2159 -2.4825,-1.1171 -3.6088,-2.7711 -3.2011,-3.5212 -2.7467,-4.2159 -2.0406,-4.655 -1.4047,-4.9801 -0.4429,-5.1254 -0.4375,-5.0625 0.0226,0.1236 -1.375,-4.875 0.031,0.0867 -2,-4.5625 0.0546,0.1001 -2.6875,-4.06248 0.0587,0.07619 -3.125,-3.5 L 10.719,5.52877 7.21898,2.84127 7.35142,2.92045 4.91885,1.82579 Z M 5.19243,1.21784 6.87526,5.72108 0,0 8.70202,-2.06756 Z m 31.09417,51.67986 -1.6874,-4.5015 6.8811,5.714 -8.6999,2.0765 z"
         fill="#920000"
         transform="matrix(0,-1,-1,0,489.61,499.98)"
         id="path16" /><path
         d="m 4.12056,3.7679 0.69227,1.68741 1.01392,3.04175 0.94527,3.59204 0.94329,4.0247 0.81716,4.463 0.75242,4.8907 0.68983,5.1423 1.12738,11.211 0.7516,12.0266 0.2503,12.3266 0.25,12.3125 -0.0011,-0.0281 0.75,12 -0.0021,-0.0251 1.125,11.1877 -0.0026,-0.022 0.6875,5.125 -0.0018,-0.013 0.75,4.875 -0.0048,-0.027 0.875,4.437 -0.0028,-0.013 0.875,4 -0.0066,-0.028 0.9375,3.563 -0.0122,-0.041 1,3 -0.0157,-0.043 0.6549,1.597 -1.2335,0.506 -0.6635,-1.617 -1.0139,-3.042 -0.9466,-3.597 -0.8794,-4.02 -0.8791,-4.458 -0.7531,-4.895 -0.6898,-5.143 L 11.7729,90.5542 11.0213,78.5276 10.771,66.201 l -0.25,-12.3125 0.0011,0.0281 -0.74997,-12 0.00205,0.0251 -1.125,-11.1875 0.00257,0.0219 -0.6875,-5.125 0.00183,0.0128 -0.75,-4.875 0.00315,0.0187 -0.8125,-4.4375 0.00669,0.032 -0.9375,-4 0.00436,0.0176 -0.9375,-3.56254 0.01226,0.04116 -1,-3 L 3.57072,5.94054 2.887,4.27398 Z M 3.50378,4.02094 2.23997,8.65925 0,0 8.27138,3.40357 Z M 19.3425,128.284 l 1.2771,-4.635 2.215,8.666 -8.2615,-3.427 z"
         fill="#920000"
         transform="matrix(0,1,1,0,489.5,677.5)"
         id="path17" /><path
         d="m 623.275,770.307 5.813,-0.313 -0.077,0.009 5.812,-1 -0.066,0.015 5.812,-1.625 -0.063,0.021 5.75,-2.25 -0.056,0.025 5.75,-2.875 -0.049,0.027 5.625,-3.437 -0.035,0.022 5.625,-3.937 -0.04,0.03 5.5,-4.5 -0.034,0.031 5.375,-5.063 -0.023,0.022 5.313,-5.5 -0.02,0.022 5.25,-5.938 -0.025,0.03 5.063,-6.438 -0.016,0.021 4.937,-6.812 -0.015,0.022 4.812,-7.25 -0.014,0.023 4.625,-7.625 -0.013,0.023 4.437,-8 -0.015,0.028 8.375,-17 -0.017,0.039 7.562,-18.187 -0.015,0.038 6.625,-19.188 -0.011,0.038 5.625,-20.063 -0.009,0.037 4.562,-20.688 -0.007,0.039 3.375,-21.25 -0.006,0.041 2.063,-21.562 -0.003,0.042 0.688,-21.75 v 0.044 l -0.375,-10.875 0.003,0.05 -1.187,-10.875 0.006,0.045 -1.937,-10.812 0.008,0.04 -2.625,-10.75 0.011,0.039 -3.312,-10.687 0.013,0.039 -4,-10.563 0.015,0.037 -4.687,-10.437 0.015,0.03 -5.25,-10.25 0.016,0.031 -5.875,-10.125 0.019,0.03 -6.5,-9.937 0.017,0.024 -7,-9.75 0.019,0.026 -7.5,-9.438 0.018,0.022 -8,-9.25 0.021,0.023 -8.5,-8.938 0.02,0.021 -8.937,-8.625 0.018,0.017 -9.375,-8.375 0.022,0.018 -9.75,-8 0.023,0.019 -10.187,-7.625 0.019,0.014 -10.438,-7.25 0.025,0.016 -10.812,-6.812 0.021,0.013 -11.125,-6.438 0.026,0.014 -11.375,-5.938 0.023,0.012 -11.625,-5.5 0.024,0.011 -11.875,-5.063 0.028,0.012 -12.062,-4.5 0.029,0.01 -12.25,-3.938 0.025,0.008 -12.375,-3.438 0.029,0.008 -12.5,-2.875 0.032,0.006 -12.562,-2.25 0.032,0.005 -12.687,-1.625 0.032,0.004 -12.75,-1 0.038,0.002 -7.417,-0.166 0.03,-1.333 7.435,0.166 12.785,1.003 12.72,1.629 12.595,2.256 12.531,2.882 12.402,3.445 12.277,3.946 12.091,4.511 11.901,5.073 11.649,5.511 11.399,5.951 11.149,6.451 10.836,6.827 10.459,7.265 10.209,7.641 9.772,8.019 9.395,8.392 8.957,8.644 8.521,8.959 8.019,9.273 7.519,9.461 7.018,9.775 6.518,9.964 5.892,10.156 5.266,10.281 4.703,10.471 4.014,10.601 3.325,10.726 2.635,10.79 1.945,10.855 1.193,10.923 0.376,10.922 -0.689,21.793 -2.066,21.604 -3.382,21.29 -4.57,20.725 -5.636,20.1 -6.638,19.225 -7.578,18.227 -8.392,17.033 -4.452,8.026 -4.638,7.647 -4.828,7.273 -4.953,6.834 -5.083,6.463 -5.272,5.963 -5.334,5.522 -5.403,5.089 -5.538,4.531 -5.662,3.964 -5.667,3.463 -5.802,2.901 -5.81,2.273 -5.877,1.643 -5.885,1.013 -5.851,0.314 z m -142.443,-463.688 2.577,4.059 -7.909,-4.178 8.087,-3.82 z"
         fill="#920000"
         id="path18" /><text
         font-family="Arial, Arial_MSFontService, sans-serif"
         font-weight="400"
         font-size="12px"
         transform="rotate(51.549971,-31.206253,921.70885)"
         id="text18">A</text><text
         font-family="Arial, Arial_MSFontService, sans-serif"
         font-weight="400"
         font-size="12px"
         transform="rotate(51.549971,-34.931473,929.86023)"
         id="text19">ll</text><text
         font-family="Arial, Arial_MSFontService, sans-serif"
         font-weight="400"
         font-size="12px"
         transform="rotate(51.549971,-39.485147,938.94028)"
         id="text20">O</text><text
         font-family="Arial, Arial_MSFontService, sans-serif"
         font-weight="400"
         font-size="12px"
         transform="rotate(51.549971,-43.831321,948.45005)"
         id="text21">wners</text><path
         d="m 649.598,583.317 0.895,-2.557 -0.019,0.064 1.25,-5.188 -0.006,0.028 1.25,-6.375 -0.005,0.029 1.125,-7.5 -10e-4,0.012 1.125,-8.5 -0.002,0.018 1,-9.5 -0.001,0.005 1,-10.25 -10e-4,0.016 0.812,-11.063 v 0.006 l 0.75,-11.625 v 0.005 l 0.687,-12.125 -10e-4,0.011 0.5,-12.562 v 0.007 l 0.375,-12.875 v 0.011 l 0.312,-26.25 10e-4,0.034 -0.25,-6.563 0.004,0.056 -0.812,-6.625 0.008,0.05 -1.313,-6.563 0.012,0.048 -1.813,-6.5 0.013,0.041 -2.25,-6.437 0.017,0.044 -2.75,-6.375 0.016,0.034 -3.187,-6.375 0.021,0.039 -3.625,-6.188 0.017,0.028 -4,-6.125 0.018,0.025 -4.375,-6.062 0.033,0.043 -9.937,-11.625 0.041,0.044 -11.25,-11 0.043,0.038 -12.5,-10.25 0.041,0.032 -13.625,-9.5 0.044,0.028 -14.5,-8.5 0.045,0.024 -15.375,-7.5 0.047,0.021 -16.063,-6.375 0.049,0.017 -16.562,-5.125 0.051,0.013 -17,-3.812 0.04,0.008 -8.563,-1.375 0.03,0.004 -8.688,-1 0.034,0.003 -8.688,-0.563 0.025,0.001 -3.353,-0.088 0.035,-1.333 3.366,0.089 8.717,0.564 8.719,1.004 8.598,1.38 17.045,3.823 16.613,5.141 16.11,6.394 15.421,7.522 14.544,8.526 13.668,9.53 12.543,10.285 11.292,11.041 9.975,11.669 4.4,6.097 4.017,6.151 3.645,6.221 3.205,6.412 2.767,6.414 2.265,6.48 1.825,6.544 1.322,6.612 0.819,6.678 0.252,6.607 -0.313,26.272 -0.375,12.884 -0.5,12.572 -0.688,12.133 -0.751,11.631 -0.813,11.073 -1.001,10.261 -1.001,9.511 -1.127,8.515 -1.128,7.52 -1.256,6.404 -1.261,5.234 -0.906,2.588 z m 0.63,0.22 4.806,0.092 -7.849,4.288 1.279,-8.852 z m -169.396,-276.896 2.559,4.069 -7.891,-4.21 8.103,-3.787 z"
         fill="#0000ff"
         id="path21" /><path
         d="M 0.673354,5.32268 1.50047,663.75 0.16714,663.752 -0.659979,5.32435 Z M 0.00669981,5.33333 -3.98995,8.00502 0,0 4.01005,7.99497 Z"
         transform="matrix(-1,0,0,1,148.334,161.5)"
         id="path22" /><path
         d="m 147.5,824.833 627.882,0.297 -10e-4,1.333 -627.881,-0.296 z m 627.885,0.963 -2.665,-4.001 7.998,4.004 -8.002,3.996 z"
         id="path23" /><text
         font-family="Arial, Arial_MSFontService, sans-serif"
         font-weight="400"
         font-size="12px"
         transform="translate(789.578,822)"
         id="text23">Object</text><text
         font-family="Arial, Arial_MSFontService, sans-serif"
         font-weight="400"
         font-size="12px"
         transform="translate(789.578,836)"
         id="text24">L</text><text
         font-family="Arial, Arial_MSFontService, sans-serif"
         font-weight="400"
         font-size="12px"
         transform="translate(796.245,836)"
         id="text25">ifetime</text><text
         font-family="Arial, Arial_MSFontService, sans-serif"
         font-weight="400"
         font-size="12px"
         transform="translate(130.265,134)"
         id="text26">Object</text><text
         font-family="Arial, Arial_MSFontService, sans-serif"
         font-weight="400"
         font-size="12px"
         transform="translate(130.598,148)"
         id="text27">S</text><text
         font-family="Arial, Arial_MSFontService, sans-serif"
         font-weight="400"
         font-size="12px"
         transform="translate(138.598,148)"
         id="text28">pace</text><path
         d="m 0.0356631,-0.665712 7.0357269,0.376914 7.00271,1.13557 6.8735,1.765668 6.7453,2.45859 6.4875,3.02328 6.2359,3.52739 5.8576,4.031 5.5424,4.4718 5.041,4.8519 4.6016,5.232 3.9739,5.4877 3.4072,5.7417 2.7806,5.9406 2.0248,6.1374 1.267,6.2083 0.0573,0.8951 -1.3306,0.0853 -0.0544,-0.8494 0.0121,0.0907 -1.25,-6.125 0.0201,0.0756 -2,-6.0625 0.0293,0.0737 -2.75,-5.875 0.0305,0.0576 -3.375,-5.6875 0.0333,0.0508 -3.9375,-5.4375 0.0394,0.0493 -4.5625,-5.1875 0.0383,0.04 -5,-4.8125 0.0437,0.0385 -5.5,-4.4375 0.0407,0.0304 -5.8125,-4 0.0497,0.0311 -6.1875,-3.50003 0.0466,0.024 -6.4375,-3 0.0533,0.02209 -6.6875,-2.4375 0.0624,0.01934 -6.8125,-1.75 0.0592,0.01237 -6.93751,-1.125 0.07105,0.00764 -7.0000031,-0.374998 z M 74.3044,60.6618 78.1256,57.7447 74.6457,65.9843 70.142,58.2566 Z"
         fill="#008080"
         transform="matrix(0,1,1,0,165.5,187.5)"
         id="path28" /><path
         d="M 0.0844213,-0.6613 3.10743,-0.275383 6.18186,0.967471 9.21583,2.90404 12.1038,5.4711 l 2.736,3.24504 2.6564,3.73156 2.5274,4.2334 2.3333,4.7297 2.1399,5.0981 1.9528,5.4803 3.1409,11.7469 2.0109,12.6311 0.691,13.0046 -0.565,12.9964 -1.5694,12.6179 -2.5102,11.7349 -1.5098,5.473 -1.698,5.094 -1.8274,4.726 -2.0203,4.23 -2.0857,3.729 -2.1662,3.25 -2.3144,2.571 -1.9618,1.635 -0.8535,-1.024 1.925,-1.605 -0.0687,0.067 2.25,-2.5 -0.0592,0.076 2.125,-3.188 -0.0271,0.045 2.0625,-3.688 -0.0198,0.038 2,-4.187 -0.0202,0.047 1.8125,-4.688 -0.0107,0.03 1.6875,-5.063 -0.0102,0.034 1.5,-5.438 -0.0092,0.038 2.5,-11.6875 -0.0097,0.0572 1.5625,-12.5625 -0.0044,0.0533 0.5625,-12.9375 3e-4,0.0644 -0.6875,-12.9375 0.0073,0.0694 -2,-12.5625 0.0144,0.0674 -3.125,-11.6875 0.016,0.0516 -1.9375,-5.4375 0.0133,0.0342 -2.125,-5.0625 0.0168,0.0369 -2.3125,-4.6875 0.0255,0.0468 -2.5,-4.1875 0.0293,0.0449 -2.625,-3.68748 0.0334,0.04311 -2.6875,-3.1875 0.0668,0.06854 -2.81251,-2.5 0.08422,0.06368 -2.9375,-1.875 L 5.62514,2.18057 2.68764,0.993073 2.85308,1.0363 -0.0844213,0.6613 Z M 11.6375,136.917 l 3.8556,2.871 -8.87893,-1.079 6.19093,-6.456 z"
         fill="#920000"
         transform="matrix(1,0,0,-1,469.5,445.209)"
         id="path29" /><path
         d="m 348.5,414.667 c 0,-2.301 1.866,-4.167 4.167,-4.167 h 59.666 c 2.302,0 4.167,1.866 4.167,4.167 v 16.666 c 0,2.302 -1.865,4.167 -4.167,4.167 h -59.666 c -2.301,0 -4.167,-1.865 -4.167,-4.167 z"
         stroke="#000000"
         stroke-width="1.33333"
         stroke-miterlimit="8"
         fill="#ffffff"
         fill-rule="evenodd"
         id="path30" /><text
         font-family="Arial, Arial_MSFontService, sans-serif"
         font-weight="400"
         font-size="12px"
         transform="translate(363.373,427)"
         id="text30">Extend</text><path
         d="m 287.5,277.333 c 0,-2.669 2.164,-4.833 4.833,-4.833 h 39.334 c 2.669,0 4.833,2.164 4.833,4.833 v 19.334 c 0,2.669 -2.164,4.833 -4.833,4.833 h -39.334 c -2.669,0 -4.833,-2.164 -4.833,-4.833 z"
         stroke="#454545"
         stroke-width="1.33333"
         stroke-miterlimit="8"
         fill="#f2f2f2"
         fill-rule="evenodd"
         id="path31" /><text
         fill="#454545"
         font-family="Arial, Arial_MSFontService, sans-serif"
         font-weight="400"
         font-size="11px"
         transform="translate(290.909,284)"
         id="text31">assign &amp;</text><text
         fill="#454545"
         font-family="Arial, Arial_MSFontService, sans-serif"
         font-weight="400"
         font-size="11px"
         transform="translate(292.989,297)"
         id="text32">position</text><path
         d="m 231.5,253.667 c 0,-2.301 1.866,-4.167 4.167,-4.167 h 58.666 c 2.302,0 4.167,1.866 4.167,4.167 v 16.666 c 0,2.302 -1.865,4.167 -4.167,4.167 h -58.666 c -2.301,0 -4.167,-1.865 -4.167,-4.167 z"
         stroke="#000000"
         stroke-width="1.33333"
         stroke-miterlimit="8"
         fill="#ffffff"
         fill-rule="evenodd"
         id="path32" /><text
         font-family="Arial, Arial_MSFontService, sans-serif"
         font-weight="400"
         font-size="12px"
         transform="translate(242.52,267)"
         id="text33">Initialize</text><path
         d="m 361.5,630.833 c 0,-1.288 1.045,-2.333 2.333,-2.333 h 48.334 c 1.288,0 2.333,1.045 2.333,2.333 v 9.334 c 0,1.288 -1.045,2.333 -2.333,2.333 h -48.334 c -1.288,0 -2.333,-1.045 -2.333,-2.333 z"
         stroke="#454545"
         stroke-width="1.33333"
         stroke-miterlimit="8"
         fill="#f2f2f2"
         fill-rule="evenodd"
         id="path33" /><text
         fill="#454545"
         font-family="Arial, Arial_MSFontService, sans-serif"
         font-weight="400"
         font-size="11px"
         transform="translate(366.194,638)"
         id="text34">first write</text><path
         d="m 372.5,262.667 c 0,-2.301 1.866,-4.167 4.167,-4.167 h 58.666 c 2.302,0 4.167,1.866 4.167,4.167 v 16.666 c 0,2.302 -1.865,4.167 -4.167,4.167 h -58.666 c -2.301,0 -4.167,-1.865 -4.167,-4.167 z"
         stroke="#000000"
         stroke-width="1.33333"
         stroke-miterlimit="8"
         fill="#ffffff"
         fill-rule="evenodd"
         id="path34" /><text
         font-family="Arial, Arial_MSFontService, sans-serif"
         font-weight="400"
         font-size="12px"
         transform="translate(380.852,275)"
         id="text35">Reassign</text><path
         d="m 500.5,742.667 c 0,-2.301 1.866,-4.167 4.167,-4.167 h 59.666 c 2.302,0 4.167,1.866 4.167,4.167 v 16.666 c 0,2.302 -1.865,4.167 -4.167,4.167 h -59.666 c -2.301,0 -4.167,-1.865 -4.167,-4.167 z"
         stroke="#000000"
         stroke-width="1.33333"
         stroke-miterlimit="8"
         fill="#ffffff"
         fill-rule="evenodd"
         id="path35" /><text
         font-family="Arial, Arial_MSFontService, sans-serif"
         font-weight="400"
         font-size="12px"
         transform="translate(513.326,756)"
         id="text36">Reduce</text><path
         d="m 401.5,437.667 c 0,-2.301 1.866,-4.167 4.167,-4.167 h 59.666 c 2.302,0 4.167,1.866 4.167,4.167 v 16.666 c 0,2.302 -1.865,4.167 -4.167,4.167 h -59.666 c -2.301,0 -4.167,-1.865 -4.167,-4.167 z"
         stroke="#000000"
         stroke-width="1.33333"
         stroke-miterlimit="8"
         fill="#ffffff"
         fill-rule="evenodd"
         id="path36" /><text
         font-family="Arial, Arial_MSFontService, sans-serif"
         font-weight="400"
         font-size="12px"
         transform="translate(406.644,450)"
         id="text37">Reallocate</text><path
         d="m 661.5,775.667 c 0,-2.301 1.866,-4.167 4.167,-4.167 h 59.666 c 2.302,0 4.167,1.866 4.167,4.167 v 16.666 c 0,2.302 -1.865,4.167 -4.167,4.167 h -59.666 c -2.301,0 -4.167,-1.865 -4.167,-4.167 z"
         stroke="#000000"
         stroke-width="1.33333"
         stroke-miterlimit="8"
         fill="#ffffff"
         fill-rule="evenodd"
         id="path37" /><text
         font-family="Arial, Arial_MSFontService, sans-serif"
         font-weight="400"
         font-size="12px"
         transform="translate(666.66,788)"
         id="text38">Deallocate</text><path
         d="m 433.5,321.5 c 0,-1.657 1.343,-3 3,-3 h 48 c 1.657,0 3,1.343 3,3 v 12 c 0,1.657 -1.343,3 -3,3 h -48 c -1.657,0 -3,-1.343 -3,-3 z"
         stroke="#454545"
         stroke-width="1.33333"
         stroke-miterlimit="8"
         fill="#f2f2f2"
         fill-rule="evenodd"
         id="path38" /><text
         fill="#454545"
         font-family="Arial, Arial_MSFontService, sans-serif"
         font-weight="400"
         font-size="11px"
         transform="translate(435.592,331)"
         id="text39">++,</text><text
         fill="#454545"
         font-family="Arial, Arial_MSFontService, sans-serif"
         font-weight="400"
         font-size="11px"
         transform="translate(453.925,331)"
         id="text40">--</text><text
         fill="#454545"
         font-family="Arial, Arial_MSFontService, sans-serif"
         font-weight="400"
         font-size="11px"
         transform="translate(460.925,331)"
         id="text41">, etc.</text><path
         d="m 231.5,411.667 c 0,-2.301 1.866,-4.167 4.167,-4.167 h 59.666 c 2.302,0 4.167,1.866 4.167,4.167 v 16.666 c 0,2.302 -1.865,4.167 -4.167,4.167 h -59.666 c -2.301,0 -4.167,-1.865 -4.167,-4.167 z"
         stroke="#000000"
         stroke-width="1.33333"
         stroke-miterlimit="8"
         fill="#ffffff"
         fill-rule="evenodd"
         id="path41" /><text
         font-family="Arial, Arial_MSFontService, sans-serif"
         font-weight="400"
         font-size="12px"
         transform="translate(243.67,424)"
         id="text42">Allocate</text><path
         d="m 408.5,298.667 c 0,-2.301 1.866,-4.167 4.167,-4.167 h 58.666 c 2.302,0 4.167,1.866 4.167,4.167 v 16.666 c 0,2.302 -1.865,4.167 -4.167,4.167 h -58.666 c -2.301,0 -4.167,-1.865 -4.167,-4.167 z"
         stroke="#000000"
         stroke-width="1.33333"
         stroke-miterlimit="8"
         fill="#ffffff"
         fill-rule="evenodd"
         id="path42" /><text
         font-family="Arial, Arial_MSFontService, sans-serif"
         font-weight="400"
         font-size="12px"
         transform="translate(413.27,311)"
         id="text43">Reposition</text><path
         d="m 564.5,645.833 c 0,-1.288 1.045,-2.333 2.333,-2.333 h 47.334 c 1.288,0 2.333,1.045 2.333,2.333 v 9.334 c 0,1.288 -1.045,2.333 -2.333,2.333 h -47.334 c -1.288,0 -2.333,-1.045 -2.333,-2.333 z"
         stroke="#454545"
         stroke-width="1.33333"
         stroke-miterlimit="8"
         fill="#f2f2f2"
         fill-rule="evenodd"
         id="path43" /><text
         fill="#454545"
         font-family="Arial, Arial_MSFontService, sans-serif"
         font-weight="400"
         font-size="12px"
         transform="translate(566.632,655)"
         id="text44">last write</text><path
         d="m 513.5,623.667 c 0,-2.301 1.866,-4.167 4.167,-4.167 h 58.666 c 2.302,0 4.167,1.866 4.167,4.167 v 16.666 c 0,2.302 -1.865,4.167 -4.167,4.167 h -58.666 c -2.301,0 -4.167,-1.865 -4.167,-4.167 z"
         stroke="#000000"
         stroke-width="1.33333"
         stroke-miterlimit="8"
         fill="#ffffff"
         fill-rule="evenodd"
         id="path44" /><text
         font-family="Arial, Arial_MSFontService, sans-serif"
         font-weight="400"
         font-size="12px"
         transform="translate(531.951,636)"
         id="text45">Clear</text><path
         d="M 0.0118676,-0.666561 21.0864,-0.291347 41.9837,0.834857 62.5686,2.58676 82.5912,5.02701 102.05,8.03032 l 18.586,3.50438 17.587,4.0057 16.465,4.4448 15.153,4.8213 7.021,2.5705 6.643,2.6318 6.271,2.6965 5.774,2.7616 5.338,2.8261 4.905,2.8927 4.409,2.9604 3.854,2.9691 3.354,3.1015 2.796,3.0503 2.24,3.1359 1.61,3.1548 0.314,0.9826 -1.27,0.4063 -0.297,-0.9309 0.041,0.0998 -1.563,-3.0625 0.051,0.0845 -2.187,-3.0625 0.051,0.063 -2.75,-3 0.039,0.039 -3.313,-3.0625 0.046,0.0386 -3.812,-2.9375 0.035,0.0254 -4.375,-2.9375 0.033,0.0207 -4.875,-2.875 0.027,0.015 -5.313,-2.8125 0.024,0.0122 -5.75,-2.75 0.025,0.011 -6.25,-2.6875 0.017,0.0074 -6.625,-2.625 0.017,0.0062 -7,-2.5625 0.027,0.0093 -15.125,-4.8125 0.028,0.0083 -16.437,-4.4375 0.025,0.0064 -17.562,-4 0.024,0.0051 -18.562,-3.49998 0.022,0.00374 -19.4377,-3 0.021,0.00291 -20,-2.4375 0.0242,0.00249 L 41.881,2.16427 41.9016,2.1657 21.0266,1.0407 21.0506,1.04156 -0.0118676,0.666561 Z M 223.735,60.7434 l 3.436,-3.3622 -2.446,8.6031 -5.415,-7.1194 z"
         fill="#0000ff"
         transform="matrix(0,1,1,0,165.5,195.5)"
         id="path45" /><path
         d="m 147.5,752.5 c -5.247,0 -9.5,-10.062 -9.5,-22.475 V 610.824 c 0,-12.413 -4.253,-22.475 -9.5,-22.475 5.247,0 9.5,-10.062 9.5,-22.475 V 445.975 c 0,-12.413 4.254,-22.475 9.5,-22.475"
         stroke="#454545"
         stroke-width="1.33333"
         stroke-miterlimit="8"
         fill="none"
         fill-rule="evenodd"
         id="path46" /><path
         d="m 255.167,274.496 0.786,129.06 -1.333,0.009 -0.787,-129.061 z m 0.119,129.065 3.984,-2.691 -3.951,8.024 -4.049,-7.976 z"
         fill="#008080"
         id="path47" /><path
         d="m 449.5,615.667 c 0,-2.301 1.866,-4.167 4.167,-4.167 h 58.666 c 2.302,0 4.167,1.866 4.167,4.167 v 16.666 c 0,2.302 -1.865,4.167 -4.167,4.167 h -58.666 c -2.301,0 -4.167,-1.865 -4.167,-4.167 z"
         stroke="#000000"
         stroke-width="1.33333"
         stroke-miterlimit="8"
         fill="#ffffff"
         fill-rule="evenodd"
         id="path48" /><text
         font-family="Arial, Arial_MSFontService, sans-serif"
         font-weight="400"
         font-size="12px"
         transform="translate(468.828,628)"
         id="text48">Write</text><path
         d="m 386.5,607.667 c 0,-2.301 1.866,-4.167 4.167,-4.167 h 59.666 c 2.302,0 4.167,1.866 4.167,4.167 v 16.666 c 0,2.302 -1.865,4.167 -4.167,4.167 h -59.666 c -2.301,0 -4.167,-1.865 -4.167,-4.167 z"
         stroke="#000000"
         stroke-width="1.33333"
         stroke-miterlimit="8"
         fill="#ffffff"
         fill-rule="evenodd"
         id="path49" /><text
         font-family="Arial, Arial_MSFontService, sans-serif"
         font-weight="400"
         font-size="12px"
         transform="translate(398.279,621)"
         id="text49">Initialize</text><path
         d="m 447.5,539.5 c 0,-2.209 1.791,-4 4,-4 h 77 c 2.209,0 4,1.791 4,4 v 16 c 0,2.209 -1.791,4 -4,4 h -77 c -2.209,0 -4,-1.791 -4,-4 z"
         stroke="#bfbfbf"
         stroke-width="1.33333"
         stroke-miterlimit="8"
         fill="#ffffff"
         fill-rule="evenodd"
         id="path50" /><text
         font-family="Arial, Arial_MSFontService, sans-serif"
         font-weight="400"
         font-size="12px"
         transform="translate(456.669,552)"
         id="text50">Dereference</text><text
         font-family="Arial, Arial_MSFontService, sans-serif"
         font-weight="400"
         font-size="12px"
         transform="translate(95.469,421)"
         id="text51">Upper</text><text
         font-family="Arial, Arial_MSFontService, sans-serif"
         font-weight="400"
         font-size="12px"
         transform="translate(94.469,435)"
         id="text52">B</text><text
         font-family="Arial, Arial_MSFontService, sans-serif"
         font-weight="400"
         font-size="12px"
         transform="translate(102.469,435)"
         id="text53">ound</text><text
         font-family="Arial, Arial_MSFontService, sans-serif"
         font-weight="400"
         font-size="12px"
         transform="translate(96.6117,748)"
         id="text54">L</text><text
         font-family="Arial, Arial_MSFontService, sans-serif"
         font-weight="400"
         font-size="12px"
         transform="translate(103.278,748)"
         id="text55">ower</text><text
         font-family="Arial, Arial_MSFontService, sans-serif"
         font-weight="400"
         font-size="12px"
         transform="translate(95.6117,762)"
         id="text56">B</text><text
         font-family="Arial, Arial_MSFontService, sans-serif"
         font-weight="400"
         font-size="12px"
         transform="translate(103.612,762)"
         id="text57">ound</text><path
         d="m 354.319,479.667 -0.5,1.937 c -0.025,0.095 -0.07,0.183 -0.132,0.259 l -1.5,1.812 c -0.035,0.042 -0.074,0.08 -0.118,0.112 l -2.375,1.75 c -0.028,0.02 -0.057,0.038 -0.088,0.054 l -3,1.563 -3.64,1.347 -4.069,1.021 -4.314,0.638 -4.497,0.256 -2.131,0.307 0.138,-0.035 -2.188,0.812 0.111,-0.053 -2.187,1.312 0.097,-0.071 -2.063,1.813 -2.011,2.2 -1.892,2.57 -3.517,6.304 -2.964,7.362 -2.352,8.307 -1.484,8.866 -0.492,9.176 0.563,9.174 1.553,8.863 2.483,8.299 3.162,7.43 3.771,6.293 2.014,2.556 2.086,2.204 -0.132,-0.108 2.962,1.85 -0.706,1.131 -2.962,-1.85 c -0.048,-0.03 -0.092,-0.066 -0.131,-0.108 l -2.165,-2.296 -2.11,-2.694 -3.854,-6.457 -3.213,-7.57 -2.518,-8.451 -1.571,-9.011 -0.563,-9.327 0.508,-9.324 1.516,-9.009 2.399,-8.443 3.036,-7.513 3.608,-6.446 1.982,-2.679 2.114,-2.301 2.063,-1.812 c 0.03,-0.027 0.062,-0.05 0.097,-0.071 l 2.187,-1.313 c 0.036,-0.021 0.073,-0.039 0.111,-0.053 l 2.188,-0.812 c 0.044,-0.017 0.09,-0.029 0.138,-0.035 l 2.244,-0.319 4.378,-0.244 4.185,-0.612 3.931,-0.978 3.485,-1.279 3,-1.562 -0.087,0.054 2.375,-1.75 -0.118,0.112 1.5,-1.812 -0.132,0.258 0.5,-1.938 z m -28.898,102.532 6.079,6.561 -8.896,0.927 z"
         fill="#0000ff"
         id="path57" /><path
         d="m 331.641,589.152 -2.313,0.5 0.194,-0.075 -2.375,1.375 0.137,-0.106 -2.25,2.25 0.066,-0.076 -2.25,3.062 -2.08,3.743 -2.04,4.394 -1.984,5.086 -1.799,5.587 -1.679,6.098 -1.493,6.472 -2.493,14.154 -1.556,15.015 -0.56,15.581 0.249,3.871 -0.012,-0.095 0.812,3.875 1.233,3.873 1.722,3.802 2.217,3.748 2.658,3.767 3.092,3.708 3.53,3.651 3.914,3.664 4.281,3.535 9.649,6.845 11.017,6.533 12.208,6.102 13.274,5.607 14.213,5.049 15.028,4.426 15.718,3.804 16.217,3.055 16.591,2.245 16.902,1.371 10.31,0.299 -0.038,1.333 -10.38,-0.303 -16.973,-1.379 -16.659,-2.255 -16.283,-3.07 -15.782,-3.821 -15.097,-4.449 -14.286,-5.076 -13.352,-5.643 -12.292,-6.148 -11.108,-6.592 -9.726,-6.905 -4.344,-3.59 -3.961,-3.711 -3.595,-3.724 -3.158,-3.792 -2.717,-3.858 -2.283,-3.877 -1.778,-3.948 -1.267,-4.002 -0.812,-3.875 c -0.007,-0.031 -0.011,-0.063 -0.013,-0.095 l -0.251,-4.003 0.565,-15.67 1.57,-15.11 2.506,-14.221 1.507,-6.528 1.696,-6.152 1.826,-5.663 2.017,-5.163 2.084,-4.482 2.17,-3.882 2.25,-3.063 c 0.02,-0.027 0.042,-0.053 0.066,-0.076 l 2.25,-2.25 c 0.041,-0.041 0.087,-0.077 0.138,-0.106 l 2.375,-1.375 c 0.06,-0.035 0.125,-0.06 0.193,-0.075 l 2.312,-0.5 z m 149.113,162.424 7.88,4.231 -8.113,3.766 z"
         fill="#0000ff"
         id="path58" /><path
         d="m 265.2,279.829 0.784,127.129 -1.334,0.009 -0.784,-127.13 z m -0.667,0.004 -3.984,2.692 3.951,-8.025 4.049,7.975 z"
         fill="#3333cc"
         id="path59" /><path
         d="m 0.0178735,-0.666427 16.3125265,0.4375 16.2235,1.314437 15.907,2.06588 15.5952,2.81757 15.0329,3.50681 14.4074,4.13343 13.6576,4.6979 12.785,5.2004 11.725,5.6418 10.603,6.021 9.36,6.4046 4.165,3.3428 3.779,3.3993 3.405,3.4659 2.968,3.4715 2.594,3.5393 2.16,3.6148 1.717,3.6186 1.277,3.6272 0.773,3.7106 0.263,3.7142 0.313,7.2672 0.809,7.0782 1.367,7.0106 1.864,6.8269 2.238,6.65 2.731,6.324 3.044,5.961 3.353,5.585 3.718,5.14 3.908,4.649 4.145,4.079 4.323,3.454 4.437,2.768 -0.085,-0.045 4.688,2.063 -0.122,-0.04 2.831,0.637 -0.293,1.301 -2.831,-0.638 c -0.042,-0.009 -0.083,-0.022 -0.122,-0.04 l -4.687,-2.062 c -0.03,-0.013 -0.058,-0.028 -0.085,-0.045 l -4.563,-2.857 -4.427,-3.546 -4.23,-4.171 -3.967,-4.726 -3.782,-5.235 -3.397,-5.665 -3.081,-6.039 -2.769,-6.426 -2.262,-6.725 -1.886,-6.9231 -1.383,-7.1144 -0.816,-7.1718 -0.312,-7.2328 -0.237,-3.5358 -0.727,-3.5394 -1.223,-3.4978 -1.658,-3.5064 -2.09,-3.5102 -2.531,-3.4607 -2.907,-3.4035 -3.345,-3.4091 -3.721,-3.3507 -4.085,-3.2822 -9.265,-6.3454 -10.522,-5.979 -11.65,-5.6082 L 106.721,19.5679 93.1286,14.8908 78.786,10.7742 63.8189,7.28104 48.2891,4.47361 32.4461,2.41449 16.2946,1.10393 -0.0178735,0.666427 Z M 217.468,148.976 l 7.256,5.229 -8.537,2.668 z"
         fill="#0000ff"
         transform="matrix(0,1,1,0,272.5,274.5)"
         id="path60" /><text
         font-family="Arial, Arial_MSFontService, sans-serif"
         font-weight="400"
         font-size="12px"
         transform="translate(237.777,842)"
         id="text60">C</text><text
         font-family="Arial, Arial_MSFontService, sans-serif"
         font-weight="400"
         font-size="12px"
         transform="translate(246.443,842)"
         id="text61">reate</text><text
         font-family="Arial, Arial_MSFontService, sans-serif"
         font-weight="400"
         font-size="12px"
         transform="translate(237.777,856)"
         id="text62">Object</text><text
         font-family="Arial, Arial_MSFontService, sans-serif"
         font-weight="400"
         font-size="12px"
         transform="translate(450.802,855)"
         id="text63">Object</text><text
         font-family="Arial, Arial_MSFontService, sans-serif"
         font-weight="400"
         font-size="12px"
         transform="translate(488.802,855)"
         id="text64">I</text><text
         font-family="Arial, Arial_MSFontService, sans-serif"
         font-weight="400"
         font-size="12px"
         transform="translate(492.135,855)"
         id="text65">n</text><text
         font-family="Arial, Arial_MSFontService, sans-serif"
         font-weight="400"
         font-size="12px"
         transform="translate(502.135,855)"
         id="text66">U</text><text
         font-family="Arial, Arial_MSFontService, sans-serif"
         font-weight="400"
         font-size="12px"
         transform="translate(510.802,855)"
         id="text67">se</text><text
         font-family="Arial, Arial_MSFontService, sans-serif"
         font-weight="400"
         font-size="12px"
         transform="translate(676.194,841)"
         id="text68">D</text><text
         font-family="Arial, Arial_MSFontService, sans-serif"
         font-weight="400"
         font-size="12px"
         transform="translate(684.861,841)"
         id="text69">estroy</text><text
         font-family="Arial, Arial_MSFontService, sans-serif"
         font-weight="400"
         font-size="12px"
         transform="translate(682.861,855)"
         id="text70">Object</text><path
         d="m 647.5,825.5 c 0,4.971 -9.533,9 -21.292,9 H 509.63 c -11.759,0 -21.292,4.03 -21.292,9 0,-4.97 -9.533,-9 -21.292,-9 H 349.792 c -11.759,0 -21.292,-4.029 -21.292,-9"
         stroke="#454545"
         stroke-width="1.33333"
         stroke-miterlimit="8"
         fill="none"
         fill-rule="evenodd"
         id="path70" /><path
         d="m 556.5,762.667 c 0,-2.301 1.866,-4.167 4.167,-4.167 h 58.666 c 2.302,0 4.167,1.866 4.167,4.167 v 16.666 c 0,2.302 -1.865,4.167 -4.167,4.167 h -58.666 c -2.301,0 -4.167,-1.865 -4.167,-4.167 z"
         stroke="#000000"
         stroke-width="1.33333"
         stroke-miterlimit="8"
         fill="#ffffff"
         fill-rule="evenodd"
         id="path71" /><text
         font-family="Arial, Arial_MSFontService, sans-serif"
         font-weight="400"
         font-size="12px"
         transform="translate(561.079,776)"
         id="text71">Reallocate</text><text
         font-family="Arial, Arial_MSFontService, sans-serif"
         font-weight="400"
         font-size="12px"
         transform="translate(85.0156,583)"
         id="text72">Object</text><text
         font-family="Arial, Arial_MSFontService, sans-serif"
         font-weight="400"
         font-size="12px"
         transform="translate(90.6823,597)"
         id="text73">Size</text><text
         font-family="Arial, Arial_MSFontService, sans-serif"
         font-weight="400"
         font-size="12px"
         transform="translate(390.375,106)"
         id="text74">BF Memory</text><text
         font-family="Arial, Arial_MSFontService, sans-serif"
         font-weight="400"
         font-size="12px"
         transform="translate(455.709,106)"
         id="text75">Bugs Model</text><text
         fill="#7f7f7f"
         font-family="Arial, Arial_MSFontService, sans-serif"
         font-weight="400"
         font-size="11px"
         transform="translate(85.3101,854)"
         id="text76">BF,</text><text
         fill="#7f7f7f"
         font-family="Arial, Arial_MSFontService, sans-serif"
         font-weight="400"
         font-size="11px"
         transform="translate(104.977,854)"
         id="text77">I</text><text
         fill="#7f7f7f"
         font-family="Arial, Arial_MSFontService, sans-serif"
         font-weight="400"
         font-size="11px"
         transform="translate(107.977,854)"
         id="text78">. Bojanova,</text><text
         fill="#7f7f7f"
         font-family="Arial, Arial_MSFontService, sans-serif"
         font-weight="400"
         font-size="11px"
         transform="translate(164.81,854)"
         id="text79">2020</text></g></g></svg>
