<?xml version="1.0" encoding="UTF-8" standalone="no"?>
<!-- Created with Inkscape (http://www.inkscape.org/) -->

<svg
   width="197.29059mm"
   height="201.92088mm"
   viewBox="0 0 197.29059 201.92088"
   version="1.1"
   id="svg1"
   inkscape:version="1.3.2 (091e20e, 2023-11-25, custom)"
   sodipodi:docname="_MEM.svg"
   xmlns:inkscape="http://www.inkscape.org/namespaces/inkscape"
   xmlns:sodipodi="http://sodipodi.sourceforge.net/DTD/sodipodi-0.dtd"
   xmlns="http://www.w3.org/2000/svg"
   xmlns:svg="http://www.w3.org/2000/svg">
  <sodipodi:namedview
     id="namedview1"
     pagecolor="#ffffff"
     bordercolor="#000000"
     borderopacity="0.25"
     inkscape:showpageshadow="2"
     inkscape:pageopacity="0.0"
     inkscape:pagecheckerboard="0"
     inkscape:deskcolor="#d1d1d1"
     inkscape:document-units="mm"
     inkscape:zoom="1.0146815"
     inkscape:cx="372.53068"
     inkscape:cy="380.90769"
     inkscape:window-width="2560"
     inkscape:window-height="1377"
     inkscape:window-x="-8"
     inkscape:window-y="859"
     inkscape:window-maximized="1"
     inkscape:current-layer="layer1" />
  <defs
     id="defs1">
    <clipPath
       id="clip0">
      <rect
         x="76"
         y="89"
         width="766"
         height="781"
         id="rect1" />
    </clipPath>
  </defs>
  <g
     inkscape:label="Layer 1"
     inkscape:groupmode="layer"
     id="layer1"
     transform="translate(-6.4506852,-47.665048)">
    <g
       clip-path="url(#clip0)"
       transform="matrix(0.26458333,0,0,0.26458333,-16.139583,21.960416)"
       id="g87">
      <path
         d="m 331.5,517.505 c 0,-9.944 8.061,-18.005 18.005,-18.005 h 279.99 c 9.944,0 18.005,8.061 18.005,18.005 v 141.99 c 0,9.944 -8.061,18.005 -18.005,18.005 h -279.99 c -9.944,0 -18.005,-8.061 -18.005,-18.005 z"
         stroke="#7b7b7b"
         stroke-width="0.666667"
         stroke-miterlimit="8"
         fill="#f2f2f2"
         fill-rule="evenodd"
         id="path1" />
      <text
         font-family="'Calibri Light', 'Calibri Light_MSFontService', sans-serif"
         font-weight="300"
         font-size="13px"
         transform="translate(453.004,516)"
         id="text1">MUS (</text>
      <text
         font-family="'Calibri Light', 'Calibri Light_MSFontService', sans-serif"
         font-weight="300"
         font-size="13px"
         transform="translate(485.838,516)"
         id="text2">Object</text>
      <text
         font-family="'Calibri Light', 'Calibri Light_MSFontService', sans-serif"
         font-weight="300"
         font-size="13px"
         transform="translate(521.171,516)"
         id="text3">)</text>
      <path
         d="m 346.5,567.17 c 0,-9.206 7.464,-16.67 16.67,-16.67 h 253.66 c 9.207,0 16.67,7.464 16.67,16.67 v 80.66 c 0,9.207 -7.463,16.67 -16.67,16.67 H 363.17 c -9.206,0 -16.67,-7.463 -16.67,-16.67 z"
         stroke="#7b7b7b"
         stroke-width="0.666667"
         stroke-miterlimit="8"
         fill="#f7f7f8"
         fill-rule="evenodd"
         id="path3" />
      <path
         d="m 220.5,235.955 c 0,-9.64 7.815,-17.455 17.455,-17.455 h 269.09 c 9.64,0 17.455,7.815 17.455,17.455 v 93.09 c 0,9.64 -7.815,17.455 -17.455,17.455 h -269.09 c -9.64,0 -17.455,-7.815 -17.455,-17.455 z"
         stroke="#7b7b7b"
         stroke-width="0.666667"
         stroke-miterlimit="8"
         fill="#f2f2f2"
         fill-rule="evenodd"
         id="path4" />
      <text
         font-family="'Calibri Light', 'Calibri Light_MSFontService', sans-serif"
         font-weight="300"
         font-size="13px"
         transform="translate(334.963,235)"
         id="text4">MAD (</text>
      <text
         font-family="'Calibri Light', 'Calibri Light_MSFontService', sans-serif"
         font-weight="300"
         font-size="13px"
         transform="translate(368.963,235)"
         id="text5">Owner</text>
      <text
         font-family="'Calibri Light', 'Calibri Light_MSFontService', sans-serif"
         font-weight="300"
         font-size="13px"
         transform="translate(405.296,235)"
         id="text6">)</text>
      <path
         d="m 218.5,387.001 c 0,-10.218 8.283,-18.501 18.501,-18.501 H 470 c 10.217,0 18.5,8.283 18.5,18.501 V 461 c 0,10.217 -8.283,18.5 -18.5,18.5 H 237.001 C 226.783,479.5 218.5,471.217 218.5,461 Z"
         stroke="#7b7b7b"
         stroke-width="0.666667"
         stroke-miterlimit="8"
         fill="#f2f2f2"
         fill-rule="evenodd"
         id="path6" />
      <text
         font-family="'Calibri Light', 'Calibri Light_MSFontService', sans-serif"
         font-weight="300"
         font-size="13px"
         transform="translate(318.043,385)"
         id="text7">MAL (</text>
      <text
         font-family="'Calibri Light', 'Calibri Light_MSFontService', sans-serif"
         font-weight="300"
         font-size="13px"
         transform="translate(349.543,385)"
         id="text8">Object</text>
      <text
         font-family="'Calibri Light', 'Calibri Light_MSFontService', sans-serif"
         font-weight="300"
         font-size="13px"
         transform="translate(384.876,385)"
         id="text9">)</text>
      <path
         d="m 488.5,719.001 c 0,-10.218 8.283,-18.501 18.5,-18.501 h 229 c 10.217,0 18.5,8.283 18.5,18.501 V 793 c 0,10.217 -8.283,18.5 -18.5,18.5 H 507 c -10.217,0 -18.5,-8.283 -18.5,-18.5 z"
         stroke="#7b7b7b"
         stroke-width="0.666667"
         stroke-miterlimit="8"
         fill="#f2f2f2"
         fill-rule="evenodd"
         id="path9" />
      <text
         font-family="'Calibri Light', 'Calibri Light_MSFontService', sans-serif"
         font-weight="300"
         font-size="13px"
         transform="translate(585.638,717)"
         id="text10">MDL (</text>
      <text
         font-family="'Calibri Light', 'Calibri Light_MSFontService', sans-serif"
         font-weight="300"
         font-size="13px"
         transform="translate(617.804,717)"
         id="text11">Object</text>
      <text
         font-family="'Calibri Light', 'Calibri Light_MSFontService', sans-serif"
         font-weight="300"
         font-size="13px"
         transform="translate(653.138,717)"
         id="text12">)</text>
      <path
         d="m 449.5,628.833 c 0,-2.393 1.94,-4.333 4.333,-4.333 h 58.334 c 2.393,0 4.333,1.94 4.333,4.333 v 17.334 c 0,2.393 -1.94,4.333 -4.333,4.333 h -58.334 c -2.393,0 -4.333,-1.94 -4.333,-4.333 z"
         stroke="#000000"
         stroke-width="0.666667"
         stroke-miterlimit="8"
         fill="#ffffff"
         fill-rule="evenodd"
         id="path12" />
      <text
         font-family="'Calibri Light', 'Calibri Light_MSFontService', sans-serif"
         font-weight="300"
         font-size="13px"
         transform="translate(469.245,641)"
         id="text13">Read</text>
      <path
         d="m 728.584,783.273 2.5,-0.375 -0.09,0.027 2.438,-1.125 -0.052,0.029 2.5,-1.75 -0.047,0.041 2.437,-2.5 -0.026,0.03 2.438,-3.188 -0.017,0.025 2.375,-3.75 -0.012,0.019 2.375,-4.375 -0.008,0.016 2.375,-5 -0.006,0.014 2.313,-5.5 -0.006,0.014 2.25,-6.125 -0.003,0.01 2.187,-6.563 -0.002,0.008 2.187,-7.125 -0.003,0.01 2.063,-7.563 -10e-4,0.005 2.062,-8 -0.002,0.008 1.938,-8.437 -10e-4,0.003 1.937,-8.813 -10e-4,0.007 1.812,-9.187 v 0.004 l 1.75,-9.562 -0.002,0.008 3.188,-20.063 -0.002,0.009 2.813,-21.25 -10e-4,0.008 2.375,-22.125 -10e-4,0.007 1.938,-22.875 -10e-4,0.008 1.438,-23.437 -10e-4,0.008 0.875,-23.875 v 0.008 l 0.313,-24 v 0.018 l -0.5,-12 0.002,0.026 -1.438,-12 0.005,0.026 -2.438,-12 0.006,0.023 -3.313,-11.875 0.007,0.023 -4.187,-11.75 0.008,0.02 -5.062,-11.687 0.008,0.017 -5.813,-11.562 0.01,0.018 -6.625,-11.375 0.01,0.016 -7.375,-11.125 0.01,0.014 -8.125,-11 0.011,0.014 -8.813,-10.687 0.009,0.01 -9.437,-10.5 0.011,0.012 -10.063,-10.188 0.011,0.011 -10.687,-9.875 0.01,0.009 -11.25,-9.563 0.011,0.009 -11.75,-9.187 0.009,0.007 -12.25,-8.875 0.013,0.009 -12.75,-8.375 0.01,0.006 -13.187,-8 0.01,0.006 -13.562,-7.562 0.011,0.006 -14,-7.125 0.012,0.005 -14.313,-6.562 0.011,0.004 -14.625,-6.125 0.013,0.006 -14.875,-5.5 0.011,0.003 -15.125,-5 0.013,0.005 -15.375,-4.375 0.013,0.003 -15.562,-3.75 0.012,0.003 -15.75,-3.188 0.015,0.003 -15.812,-2.438 0.013,0.002 -15.938,-1.812 0.015,10e-4 -16,-1.125 0.016,10e-4 -10.677,-0.235 0.014,-0.667 10.685,0.235 16.015,1.126 15.952,1.815 15.826,2.439 15.764,3.19 15.575,3.753 15.388,4.379 15.138,5.004 14.887,5.505 14.636,6.13 14.324,6.567 14.012,7.131 13.573,7.569 13.198,8.006 12.761,8.383 12.261,8.883 11.761,9.195 11.26,9.571 10.698,9.885 10.074,10.199 9.447,10.511 8.823,10.7 8.135,11.014 7.385,11.14 6.635,11.392 5.821,11.58 5.071,11.707 4.195,11.771 3.319,11.898 2.443,12.025 1.44,12.026 0.501,12.022 -0.312,24.013 -0.876,23.883 -1.438,23.446 -1.938,22.882 -2.376,22.133 -2.813,21.258 -3.189,20.071 -1.751,9.569 -1.814,9.193 -1.938,8.818 -1.939,8.443 -2.064,8.006 -2.065,7.57 -2.19,7.134 -2.19,6.571 -2.255,6.137 -2.318,5.514 -2.382,5.015 -2.385,4.393 -2.389,3.772 -2.458,3.215 -2.474,2.537 -2.55,1.785 -2.508,1.157 -2.547,0.382 z m -283.752,-512.656 2.578,4.058 -7.91,-4.175 8.086,-3.823 z"
         id="path13" />
      <text
         font-family="'Calibri Light', 'Calibri Light_MSFontService', sans-serif"
         font-weight="300"
         font-size="13px"
         transform="translate(758.759,173)"
         id="text14">Other Object</text>
      <text
         font-family="'Calibri Light', 'Calibri Light_MSFontService', sans-serif"
         font-weight="300"
         font-size="13px"
         transform="translate(775.506,189)"
         id="text15">/ NULL</text>
      <path
         d="m 406.171,257.723 0.26,-1.56 0.926,-1.587 1.417,-1.482 1.91,-1.527 2.404,-1.455 2.832,-1.448 3.332,-1.446 3.827,-1.38 4.196,-1.378 4.572,-1.378 5.009,-1.315 5.382,-1.314 11.761,-2.502 13.01,-2.314 14.195,-2.127 15.195,-1.938 16.007,-1.688 16.756,-1.376 17.318,-1.188 17.696,-0.875 36.193,-0.688 36.187,-0.687 h -0.01 l 17.688,-0.875 h -0.006 l 17.313,-1.125 -0.007,0.001 16.75,-1.438 -0.006,10e-4 16,-1.687 h -0.008 l 15.188,-1.937 -0.007,0.001 14.187,-2.125 -0.009,0.001 13,-2.312 -0.011,0.002 11.75,-2.5 -0.006,0.001 5.375,-1.25 -0.013,0.004 5,-1.375 -0.004,0.001 4.563,-1.313 -0.012,0.004 4.187,-1.375 -0.013,0.005 3.812,-1.438 -0.01,0.004 3.313,-1.375 -0.024,0.011 2.812,-1.437 -0.026,0.015 2.375,-1.5 -0.025,0.017 1.639,-1.257 0.406,0.529 -1.651,1.266 -2.401,1.516 -2.838,1.451 -3.329,1.382 -3.825,1.442 -4.2,1.379 -4.57,1.315 -5.009,1.377 -5.384,1.252 -11.759,2.502 -13.01,2.314 -14.195,2.127 -15.195,1.938 -16.007,1.688 -16.756,1.438 -17.319,1.126 -17.695,0.875 -36.193,0.688 -36.187,0.687 h 0.01 l -17.688,0.875 h 0.007 l -17.313,1.187 h 0.005 l -16.75,1.375 0.007,-0.001 -16,1.688 0.008,-0.001 -15.188,1.937 0.007,-0.001 -14.187,2.125 0.009,-10e-4 -13,2.312 0.011,-0.002 -11.75,2.5 0.01,-0.002 -5.375,1.312 0.005,-10e-4 -5,1.312 0.012,-0.003 -4.563,1.375 0.008,-0.002 -4.187,1.375 0.009,-0.003 -3.813,1.375 0.02,-0.008 -3.313,1.437 0.019,-0.009 -2.812,1.438 0.021,-0.012 -2.375,1.438 0.035,-0.025 -1.875,1.5 0.033,-0.03 -1.375,1.437 0.047,-0.062 -0.875,1.5 0.041,-0.113 -0.25,1.5 z m 385.343,-58.639 -4.801,0.247 7.528,-4.831 -0.652,8.921 z"
         fill="#454545"
         id="path15" />
      <path
         d="m 5.32922,0.913868 2.46798,1.110592 3.5556,2.7302 3.1619,3.54132 2.7166,4.10652 2.0208,4.6098 1.3898,4.9276 0.4402,5.0939 0.4375,5.0625 -0.0113,-0.0618 1.375,4.875 -0.0155,-0.0433 2,4.5625 -0.026,-0.0482 2.6875,4.125 -0.0327,-0.0422 3.125,3.4375 -0.0436,-0.0402 3.5,2.6875 -0.0662,-0.0396 2.4116,1.0853 -0.2736,0.6079 -2.447,-1.1012 -3.5544,-2.7292 -3.1631,-3.4794 -2.7171,-4.1704 -2.0203,-4.6088 -1.3898,-4.9276 -0.4402,-5.0939 -0.4375,-5.0625 0.0113,0.0618 -1.375,-4.875 0.0155,0.0433 -2,-4.5625 0.0273,0.0501 L 13.972,8.68391 14.0014,8.722 10.8764,5.22201 10.922,5.26438 7.42199,2.57688 7.48821,2.61647 5.05564,1.52182 Z M 5.19243,1.21784 6.87526,5.72108 0,0 8.70202,-2.06756 Z m 31.09417,51.67986 -1.6874,-4.5015 6.8811,5.714 -8.6999,2.0765 z"
         fill="#920000"
         transform="matrix(0,-1,-1,0,489.61,499.98)"
         id="path16" />
      <path
         d="m 3.81217,3.89442 0.68799,1.67698 1.00696,3.02088 0.94139,3.57722 0.9404,4.0124 0.81483,4.4502 0.75121,4.8829 0.68866,5.1337 1.12619,11.1992 0.7508,12.0133 0.2502,12.3195 0.25,12.3125 -6e-4,-0.014 0.75,12 -0.001,-0.0126 1.125,11.1874 -0.0013,-0.011 0.6875,5.125 -9e-4,-0.006 0.75,4.875 -0.0025,-0.014 0.875,4.438 -0.0014,-0.007 0.875,4 -0.0032,-0.014 0.9375,3.563 -0.0062,-0.021 1,3 -0.0078,-0.021 0.6549,1.596 -0.6167,0.253 -0.6593,-1.606 -1.0069,-3.021 -0.942,-3.58 -0.8773,-4.01 -0.877,-4.448 -0.7515,-4.885 -0.6887,-5.134 -1.1262,-11.1989 -0.7508,-12.0133 -0.2502,-12.3195 -0.25,-12.3125 6e-4,0.014 -0.75,-12 0.001,0.0125 -1.12496,-11.1875 0.00129,0.011 -0.6875,-5.125 9.1e-4,0.0064 -0.75,-4.875 0.00158,0.0093 -0.8125,-4.4375 0.00334,0.0161 -0.9375,-4 0.00218,0.0087 -0.9375,-3.56247 0.00613,0.02058 -1,-3 L 3.87911,5.81402 3.19539,4.14746 Z M 3.50378,4.02094 2.23997,8.65925 0,0 8.27138,3.40357 Z M 19.3425,128.284 l 1.2771,-4.635 2.215,8.666 -8.2615,-3.427 z"
         fill="#920000"
         transform="matrix(0,1,1,0,489.5,677.5)"
         id="path17" />
      <path
         d="m 623.293,770.64 5.813,-0.313 -0.039,0.004 5.813,-1 -0.034,0.008 5.813,-1.625 -0.032,0.011 5.75,-2.25 -0.027,0.012 5.75,-2.875 -0.025,0.014 5.625,-3.438 -0.018,0.011 5.625,-3.937 -0.019,0.015 5.5,-4.5 -0.018,0.015 5.375,-5.062 -0.011,0.011 5.312,-5.5 -0.01,0.011 5.25,-5.938 -0.012,0.015 5.063,-6.438 -0.008,0.011 4.937,-6.813 -0.008,0.012 4.813,-7.25 -0.007,0.011 4.625,-7.625 -0.007,0.011 4.438,-8 -0.008,0.015 8.375,-17 -0.009,0.019 7.563,-18.188 -0.007,0.02 6.625,-19.188 -0.006,0.019 5.625,-20.062 -0.005,0.018 4.563,-20.688 -0.004,0.02 3.375,-21.25 -0.003,0.02 2.063,-21.562 -0.002,0.021 0.688,-21.75 v 0.022 l -0.375,-10.875 0.002,0.025 -1.188,-10.875 0.003,0.022 -1.937,-10.812 0.004,0.02 -2.625,-10.75 0.006,0.02 -3.313,-10.688 0.007,0.02 -4,-10.563 0.008,0.019 -4.688,-10.438 0.007,0.015 -5.25,-10.25 0.009,0.016 -5.875,-10.125 0.009,0.015 -6.5,-9.938 0.008,0.012 -7,-9.75 0.01,0.013 -7.5,-9.437 0.009,0.011 -8,-9.25 0.011,0.011 -8.5,-8.937 0.01,0.01 -8.938,-8.625 0.01,0.009 -9.375,-8.375 0.01,0.009 -9.75,-8 0.012,0.009 -10.188,-7.625 0.01,0.007 -10.438,-7.25 0.013,0.008 -10.813,-6.812 0.011,0.006 -11.125,-6.438 0.013,0.008 -11.375,-5.938 0.012,0.006 -11.625,-5.5 0.011,0.005 -11.875,-5.062 0.015,0.005 -12.063,-4.5 0.015,0.005 -12.25,-3.937 0.012,0.004 -12.375,-3.438 0.015,0.004 -12.5,-2.875 0.016,0.003 -12.563,-2.25 0.017,0.003 -12.688,-1.625 0.017,0.001 -12.75,-1 0.018,10e-4 -7.416,-0.166 0.015,-0.666 7.425,0.166 12.768,1.001 12.704,1.627 12.578,2.253 12.516,2.879 12.388,3.441 12.264,3.942 12.077,4.505 11.888,5.068 11.637,5.506 11.387,5.944 11.136,6.444 10.825,6.82 10.448,7.258 10.198,7.633 9.761,8.009 9.385,8.384 8.948,8.634 8.51,8.948 8.01,9.262 7.509,9.449 7.009,9.762 6.509,9.951 5.884,10.141 5.258,10.265 4.695,10.455 4.007,10.581 3.319,10.707 2.629,10.77 1.942,10.834 1.19,10.899 0.376,10.898 -0.689,21.772 -2.064,21.583 -3.378,21.27 -4.567,20.706 -5.63,20.081 -6.632,19.207 -7.57,18.207 -8.383,17.017 -4.445,8.012 -4.632,7.637 -4.82,7.261 -4.945,6.823 -5.073,6.451 -5.261,5.95 -5.323,5.511 -5.389,5.076 -5.519,4.515 -5.644,3.95 -5.646,3.451 -5.776,2.888 -5.78,2.262 -5.845,1.634 -5.848,1.006 -5.832,0.313 z m -142.461,-464.021 2.577,4.059 -7.909,-4.178 8.087,-3.82 z"
         fill="#920000"
         id="path18" />
      <text
         font-family="'Calibri Light', 'Calibri Light_MSFontService', sans-serif"
         font-weight="300"
         font-size="13px"
         transform="rotate(51.549971,-35.905334,935.77643)"
         id="text18">A</text>
      <text
         font-family="'Calibri Light', 'Calibri Light_MSFontService', sans-serif"
         font-weight="300"
         font-size="13px"
         transform="rotate(51.549971,-39.786054,943.60578)"
         id="text19">ll</text>
      <text
         font-family="'Calibri Light', 'Calibri Light_MSFontService', sans-serif"
         font-weight="300"
         font-size="13px"
         transform="rotate(51.549971,-44.236228,952.90018)"
         id="text20">O</text>
      <text
         font-family="'Calibri Light', 'Calibri Light_MSFontService', sans-serif"
         font-weight="300"
         font-size="13px"
         transform="rotate(51.549971,-48.789402,961.98127)"
         id="text21">wners</text>
      <path
         d="m 649.913,583.427 0.895,-2.557 -0.009,0.032 1.25,-5.188 -0.003,0.014 1.25,-6.375 -0.003,0.015 1.125,-7.5 -10e-4,0.006 1.125,-8.5 -10e-4,0.008 1,-9.5 v 0.003 l 1,-10.25 -0.001,0.008 0.813,-11.063 -10e-4,0.003 0.75,-11.625 v 0.003 l 0.688,-12.125 v 0.006 l 0.5,-12.563 -10e-4,0.004 0.375,-12.875 v 0.005 l 0.313,-26.25 v 0.017 l -0.25,-6.562 0.002,0.027 -0.812,-6.625 0.004,0.025 -1.313,-6.562 0.006,0.024 -1.812,-6.5 0.006,0.02 -2.25,-6.437 0.009,0.022 -2.75,-6.375 0.007,0.017 -3.187,-6.375 0.011,0.019 -3.625,-6.187 0.008,0.014 -4,-6.125 0.009,0.012 -4.375,-6.062 0.017,0.021 -9.938,-11.625 0.021,0.022 -11.25,-11 0.021,0.02 -12.5,-10.25 0.021,0.015 -13.625,-9.5 0.022,0.014 -14.5,-8.5 0.023,0.012 -15.375,-7.5 0.023,0.011 -16.063,-6.375 0.025,0.008 -16.563,-5.125 0.026,0.007 -17,-3.812 0.02,0.003 -8.563,-1.375 0.015,0.003 -8.687,-1 0.016,10e-4 -8.687,-0.563 0.012,10e-4 -3.353,-0.089 0.017,-0.666 3.36,0.089 8.702,0.563 8.704,1.002 8.58,1.378 17.022,3.818 16.588,5.132 16.086,6.385 15.398,7.511 14.522,8.513 13.647,9.515 12.521,10.267 11.271,11.021 9.956,11.647 4.388,6.08 4.009,6.138 3.634,6.204 3.197,6.393 2.758,6.395 2.258,6.459 1.819,6.522 1.317,6.587 0.816,6.651 0.251,6.585 -0.313,26.261 -0.375,12.88 -0.5,12.567 -0.688,12.129 -0.75,11.628 -0.813,11.068 -1.001,10.255 -1,9.506 -1.126,8.507 -1.127,7.51 -1.253,6.39 -1.255,5.21 -0.901,2.573 z m 0.315,0.11 4.806,0.092 -7.849,4.288 1.279,-8.852 z m -169.396,-276.896 2.559,4.069 -7.891,-4.21 8.103,-3.787 z"
         fill="#0000ff"
         id="path21" />
      <path
         d="M 0.340021,5.3231 1.16714,663.751 H 0.500473 L -0.326646,5.32394 Z M 0.00669981,5.33333 -3.98995,8.00502 0,0 4.01005,7.99497 Z"
         transform="matrix(-1,0,0,1,148.334,161.5)"
         id="path22" />
      <path
         d="m 147.5,825.167 627.882,0.296 -10e-4,0.667 -627.881,-0.297 z m 627.885,0.629 -2.665,-4.001 7.998,4.004 -8.002,3.996 z"
         id="path23" />
      <text
         font-family="'Calibri Light', 'Calibri Light_MSFontService', sans-serif"
         font-weight="300"
         font-size="13px"
         transform="translate(789.578,822)"
         id="text23">Object</text>
      <text
         font-family="'Calibri Light', 'Calibri Light_MSFontService', sans-serif"
         font-weight="300"
         font-size="13px"
         transform="translate(789.578,838)"
         id="text24">L</text>
      <text
         font-family="'Calibri Light', 'Calibri Light_MSFontService', sans-serif"
         font-weight="300"
         font-size="13px"
         transform="translate(795.245,838)"
         id="text25">ifetime</text>
      <text
         font-family="'Calibri Light', 'Calibri Light_MSFontService', sans-serif"
         font-weight="300"
         font-size="13px"
         transform="translate(129.932,134)"
         id="text26">Object</text>
      <text
         font-family="'Calibri Light', 'Calibri Light_MSFontService', sans-serif"
         font-weight="300"
         font-size="13px"
         transform="translate(131.765,150)"
         id="text27">S</text>
      <text
         font-family="'Calibri Light', 'Calibri Light_MSFontService', sans-serif"
         font-weight="300"
         font-size="13px"
         transform="translate(137.765,150)"
         id="text28">pace</text>
      <path
         d="M 0.0178316,-0.332856 7.0357,0.043101 l 6.9701,1.130289 6.843,1.75783 6.7164,2.44805 6.4625,3.01164 6.2117,3.51369 5.835,4.0155 5.5212,4.4546 5.0205,4.8322 4.5821,5.2098 3.9557,5.4626 3.3911,5.7146 2.7653,5.9078 2.0124,6.1 1.2585,6.1666 0.0559,0.8722 -0.6653,0.0427 -0.0545,-0.8494 0.0061,0.0454 -1.25,-6.125 0.01,0.0377 -2,-6.0625 0.0147,0.0369 -2.75,-5.875 0.0152,0.0288 -3.375,-5.6875 0.0167,0.0254 -3.9375,-5.4375 0.0197,0.0246 -4.5625,-5.1875 0.0191,0.0201 -5,-4.8125 0.0219,0.0192 -5.5,-4.4375 0.0203,0.0152 -5.8125,-4 0.0249,0.0155 -6.1875,-3.49997 0.0233,0.01201 -6.4375,-3 0.0267,0.01104 -6.6875,-2.4375 0.0312,0.00967 -6.8125,-1.75 0.0295,0.00619 -6.93746,-1.125005 0.03553,0.003821 -7.0000016,-0.375 z M 74.3044,60.6618 78.1256,57.7447 74.6457,65.9843 70.142,58.2566 Z"
         fill="#008080"
         transform="matrix(0,1,1,0,165.5,187.5)"
         id="path28" />
      <path
         d="M 0.028467,-0.332116 4.43336,0.0454468 8.86069,1.24715 13.215,3.14033 l 4.2252,2.52248 4.029,3.21063 3.8962,3.70776 3.7071,4.2097 3.4533,4.709 3.2013,5.0844 2.8241,5.46 2.5089,5.7705 2.1326,5.9586 1.7568,6.2115 1.2548,6.3996 0.8157,6.4632 0.2511,6.5273 -0.251,6.5241 -0.6897,6.4585 -1.0658,6.3951 -1.4437,6.2142 -4.0105,11.7181 -2.4489,5.463 -2.761,5.083 -2.9502,4.707 -3.1431,4.212 -3.3955,3.71 -3.4652,3.213 -3.6631,2.527 -3.7317,1.897 -2.2657,0.717 -0.2013,-0.635 2.2397,-0.709 -0.0505,0.02 3.6875,-1.875 -0.0381,0.023 3.625,-2.5 -0.0374,0.03 3.4375,-3.187 -0.0193,0.019 3.375,-3.688 -0.0212,0.026 3.125,-4.187 -0.0154,0.022 2.9375,-4.688 -0.0104,0.018 2.75,-5.062 -0.0113,0.023 2.4375,-5.438 -0.0112,0.029 4,-11.6879 -0.0093,0.0325 1.4375,-6.1875 -0.0041,0.0206 1.0625,-6.375 -0.0027,0.0194 0.6875,-6.4375 -0.0016,0.0226 0.25,-6.5 v 0.0256 l -0.25,-6.5 0.0024,0.0289 -0.8125,-6.4375 0.0036,0.0224 -1.25,-6.375 0.0063,0.0266 -1.75,-6.1875 0.007,0.0216 -2.125,-5.9375 0.0081,0.0206 -2.5,-5.75 0.0096,0.0202 -2.8125,-5.4375 0.014,0.0245 -3.1875,-5.0625 0.0133,0.0195 -3.4375,-4.6875 0.0186,0.0232 -3.6875,-4.1875 0.0204,0.0212 -3.875,-3.68753 0.0221,0.01922 -4,-3.1875 0.0368,0.02552 -4.1875,-2.5 0.038,0.01948 -4.31251,-1.875 0.04559,0.016 -4.375,-1.187496 0.05885,0.010422 -4.374997,-0.375 z M 11.8853,137.897 l 3.2446,3.547 -8.51573,-2.735 7.29783,-5.172 z"
         fill="#920000"
         transform="matrix(1,0,0,-1,469.5,445.209)"
         id="path29" />
      <path
         d="m 348.5,414.667 c 0,-2.301 1.866,-4.167 4.167,-4.167 h 59.666 c 2.302,0 4.167,1.866 4.167,4.167 v 16.666 c 0,2.302 -1.865,4.167 -4.167,4.167 h -59.666 c -2.301,0 -4.167,-1.865 -4.167,-4.167 z"
         stroke="#000000"
         stroke-width="0.666667"
         stroke-miterlimit="8"
         fill="#ffffff"
         fill-rule="evenodd"
         id="path30" />
      <text
         font-family="'Calibri Light', 'Calibri Light_MSFontService', sans-serif"
         font-weight="300"
         font-size="13px"
         transform="translate(363.54,427)"
         id="text30">Extend</text>
      <path
         d="m 282.5,277.333 c 0,-2.669 2.164,-4.833 4.833,-4.833 h 39.334 c 2.669,0 4.833,2.164 4.833,4.833 v 19.334 c 0,2.669 -2.164,4.833 -4.833,4.833 h -39.334 c -2.669,0 -4.833,-2.164 -4.833,-4.833 z"
         stroke="#454545"
         stroke-width="0.666667"
         stroke-miterlimit="8"
         fill="#f2f2f2"
         fill-rule="evenodd"
         id="path31" />
      <text
         fill="#454545"
         font-family="'Calibri Light', 'Calibri Light_MSFontService', sans-serif"
         font-weight="300"
         font-size="12px"
         transform="translate(286.494,283)"
         id="text31">assign &amp;</text>
      <text
         fill="#454545"
         font-family="'Calibri Light', 'Calibri Light_MSFontService', sans-serif"
         font-weight="300"
         font-size="12px"
         transform="translate(287.074,298)"
         id="text32">position</text>
      <path
         d="m 231.5,253.667 c 0,-2.301 1.866,-4.167 4.167,-4.167 h 58.666 c 2.302,0 4.167,1.866 4.167,4.167 v 16.666 c 0,2.302 -1.865,4.167 -4.167,4.167 h -58.666 c -2.301,0 -4.167,-1.865 -4.167,-4.167 z"
         stroke="#000000"
         stroke-width="0.666667"
         stroke-miterlimit="8"
         fill="#ffffff"
         fill-rule="evenodd"
         id="path32" />
      <text
         font-family="'Calibri Light', 'Calibri Light_MSFontService', sans-serif"
         font-weight="300"
         font-size="13px"
         transform="translate(241.77,266)"
         id="text33">Initialize</text>
      <path
         d="m 361.5,594.833 c 0,-1.288 1.045,-2.333 2.333,-2.333 h 48.334 c 1.288,0 2.333,1.045 2.333,2.333 v 9.334 c 0,1.288 -1.045,2.333 -2.333,2.333 h -48.334 c -1.288,0 -2.333,-1.045 -2.333,-2.333 z"
         stroke="#454545"
         stroke-width="0.666667"
         stroke-miterlimit="8"
         fill="#f2f2f2"
         fill-rule="evenodd"
         id="path33" />
      <text
         fill="#454545"
         font-family="'Calibri Light', 'Calibri Light_MSFontService', sans-serif"
         font-weight="300"
         font-size="12px"
         transform="translate(364.027,603)"
         id="text34">first write</text>
      <path
         d="m 372.5,262.667 c 0,-2.301 1.866,-4.167 4.167,-4.167 h 58.666 c 2.302,0 4.167,1.866 4.167,4.167 v 16.666 c 0,2.302 -1.865,4.167 -4.167,4.167 h -58.666 c -2.301,0 -4.167,-1.865 -4.167,-4.167 z"
         stroke="#000000"
         stroke-width="0.666667"
         stroke-miterlimit="8"
         fill="#ffffff"
         fill-rule="evenodd"
         id="path34" />
      <text
         font-family="'Calibri Light', 'Calibri Light_MSFontService', sans-serif"
         font-weight="300"
         font-size="13px"
         transform="translate(382.435,274)"
         id="text35">Reassign</text>
      <path
         d="m 500.5,742.667 c 0,-2.301 1.866,-4.167 4.167,-4.167 h 59.666 c 2.302,0 4.167,1.866 4.167,4.167 v 16.666 c 0,2.302 -1.865,4.167 -4.167,4.167 h -59.666 c -2.301,0 -4.167,-1.865 -4.167,-4.167 z"
         stroke="#000000"
         stroke-width="0.666667"
         stroke-miterlimit="8"
         fill="#ffffff"
         fill-rule="evenodd"
         id="path35" />
      <text
         font-family="'Calibri Light', 'Calibri Light_MSFontService', sans-serif"
         font-weight="300"
         font-size="13px"
         transform="translate(513.91,755)"
         id="text36">Reduce</text>
      <path
         d="m 401.5,437.667 c 0,-2.301 1.866,-4.167 4.167,-4.167 h 59.666 c 2.302,0 4.167,1.866 4.167,4.167 v 16.666 c 0,2.302 -1.865,4.167 -4.167,4.167 h -59.666 c -2.301,0 -4.167,-1.865 -4.167,-4.167 z"
         stroke="#000000"
         stroke-width="0.666667"
         stroke-miterlimit="8"
         fill="#ffffff"
         fill-rule="evenodd"
         id="path36" />
      <text
         font-family="'Calibri Light', 'Calibri Light_MSFontService', sans-serif"
         font-weight="300"
         font-size="13px"
         transform="translate(406.894,449)"
         id="text37">Reallocate</text>
      <path
         d="m 661.5,775.667 c 0,-2.301 1.866,-4.167 4.167,-4.167 h 59.666 c 2.302,0 4.167,1.866 4.167,4.167 v 16.666 c 0,2.302 -1.865,4.167 -4.167,4.167 h -59.666 c -2.301,0 -4.167,-1.865 -4.167,-4.167 z"
         stroke="#000000"
         stroke-width="0.666667"
         stroke-miterlimit="8"
         fill="#ffffff"
         fill-rule="evenodd"
         id="path37" />
      <text
         font-family="'Calibri Light', 'Calibri Light_MSFontService', sans-serif"
         font-weight="300"
         font-size="13px"
         transform="translate(666.41,787)"
         id="text38">Deallocate</text>
      <path
         d="m 433.5,321.5 c 0,-1.657 1.343,-3 3,-3 h 48 c 1.657,0 3,1.343 3,3 v 12 c 0,1.657 -1.343,3 -3,3 h -48 c -1.657,0 -3,-1.343 -3,-3 z"
         stroke="#454545"
         stroke-width="0.666667"
         stroke-miterlimit="8"
         fill="#f2f2f2"
         fill-rule="evenodd"
         id="path38" />
      <text
         fill="#454545"
         font-family="'Calibri Light', 'Calibri Light_MSFontService', sans-serif"
         font-weight="300"
         font-size="12px"
         transform="translate(435.509,331)"
         id="text39">++,</text>
      <text
         fill="#454545"
         font-family="'Calibri Light', 'Calibri Light_MSFontService', sans-serif"
         font-weight="300"
         font-size="12px"
         transform="translate(453.175,331)"
         id="text40">--</text>
      <text
         fill="#454545"
         font-family="'Calibri Light', 'Calibri Light_MSFontService', sans-serif"
         font-weight="300"
         font-size="12px"
         transform="translate(460.509,331)"
         id="text41">, etc.</text>
      <path
         d="m 231.5,411.667 c 0,-2.301 1.866,-4.167 4.167,-4.167 h 59.666 c 2.302,0 4.167,1.866 4.167,4.167 v 16.666 c 0,2.302 -1.865,4.167 -4.167,4.167 h -59.666 c -2.301,0 -4.167,-1.865 -4.167,-4.167 z"
         stroke="#000000"
         stroke-width="0.666667"
         stroke-miterlimit="8"
         fill="#ffffff"
         fill-rule="evenodd"
         id="path41" />
      <text
         font-family="'Calibri Light', 'Calibri Light_MSFontService', sans-serif"
         font-weight="300"
         font-size="13px"
         transform="translate(243.253,423)"
         id="text42">Allocate</text>
      <path
         d="m 408.5,298.667 c 0,-2.301 1.866,-4.167 4.167,-4.167 h 58.666 c 2.302,0 4.167,1.866 4.167,4.167 v 16.666 c 0,2.302 -1.865,4.167 -4.167,4.167 h -58.666 c -2.301,0 -4.167,-1.865 -4.167,-4.167 z"
         stroke="#000000"
         stroke-width="0.666667"
         stroke-miterlimit="8"
         fill="#ffffff"
         fill-rule="evenodd"
         id="path42" />
      <text
         font-family="'Calibri Light', 'Calibri Light_MSFontService', sans-serif"
         font-weight="300"
         font-size="13px"
         transform="translate(412.937,310)"
         id="text43">Reposition</text>
      <path
         d="m 564.5,609.833 c 0,-1.288 1.045,-2.333 2.333,-2.333 h 47.334 c 1.288,0 2.333,1.045 2.333,2.333 v 9.334 c 0,1.288 -1.045,2.333 -2.333,2.333 h -47.334 c -1.288,0 -2.333,-1.045 -2.333,-2.333 z"
         stroke="#454545"
         stroke-width="0.666667"
         stroke-miterlimit="8"
         fill="#f2f2f2"
         fill-rule="evenodd"
         id="path43" />
      <text
         fill="#454545"
         font-family="'Calibri Light', 'Calibri Light_MSFontService', sans-serif"
         font-weight="300"
         font-size="13px"
         transform="translate(565.382,618)"
         id="text44">last write</text>
      <path
         d="m 513.5,587.667 c 0,-2.301 1.866,-4.167 4.167,-4.167 h 58.666 c 2.302,0 4.167,1.866 4.167,4.167 v 16.666 c 0,2.302 -1.865,4.167 -4.167,4.167 h -58.666 c -2.301,0 -4.167,-1.865 -4.167,-4.167 z"
         stroke="#000000"
         stroke-width="0.666667"
         stroke-miterlimit="8"
         fill="#ffffff"
         fill-rule="evenodd"
         id="path44" />
      <text
         font-family="'Calibri Light', 'Calibri Light_MSFontService', sans-serif"
         font-weight="300"
         font-size="13px"
         transform="translate(532.367,600)"
         id="text45">Clear</text>
      <path
         d="M 0.00577948,-0.333283 21.6366,0.0418177 43.148,1.16741 l 21.1358,1.81343 20.698,2.43874 19.9482,3.00166 19.137,3.56466 18.075,4.0653 16.95,4.5033 7.945,2.4399 7.633,2.4402 7.197,2.6283 6.821,2.6284 6.386,2.7544 5.948,2.7552 5.515,2.8825 5.014,2.9457 4.516,2.9484 3.958,3.0151 3.459,3.0821 2.836,3.0883 2.276,3.0979 1.65,3.173 0.329,1.0282 -0.635,0.2032 -0.32,-1.0012 0.022,0.0522 -1.625,-3.125 0.027,0.0436 -2.25,-3.0625 0.023,0.0281 -2.813,-3.0625 0.024,0.0234 -3.437,-3.0625 0.019,0.0162 -3.937,-3 0.02,0.014 -4.5,-2.9375 0.013,0.0083 -5,-2.9375 0.015,0.008 -5.5,-2.875 0.014,0.0071 -5.938,-2.75 0.008,0.0036 -6.375,-2.75 0.013,0.0049 -6.813,-2.625 0.006,0.0021 -7.188,-2.625 0.013,0.0044 -7.625,-2.4375 0.004,0.0011 -7.938,-2.4375 0.012,0.0036 -16.937,-4.5 0.012,0.003 -18.062,-4.0625 0.012,0.0025 -19.125,-3.5625 0.011,0.00192 -19.9371,-3 0.0106,0.00142 -20.6875,-2.4375 0.0105,0.00107 -21.125,-1.8125 0.0111,7.7e-4 -21.5,-1.125002 0.0116,4.05e-4 -21.62497948,-0.375 z M 230.258,61.5637 l 3.465,-3.3319 -2.522,8.5812 -5.352,-7.1667 z"
         fill="#0000ff"
         transform="matrix(0,1,1,0,165.5,188.5)"
         id="path45" />
      <path
         d="m 147.5,752.5 c -5.247,0 -9.5,-10.062 -9.5,-22.475 V 610.824 c 0,-12.413 -4.253,-22.475 -9.5,-22.475 5.247,0 9.5,-10.062 9.5,-22.475 V 445.975 c 0,-12.413 4.254,-22.475 9.5,-22.475"
         stroke="#454545"
         stroke-width="0.666667"
         stroke-miterlimit="8"
         fill="none"
         fill-rule="evenodd"
         id="path46" />
      <path
         d="m 254.833,274.498 0.787,129.06 -0.667,0.005 -0.786,-129.061 z m 0.453,129.063 3.984,-2.691 -3.951,8.024 -4.049,-7.976 z"
         fill="#008080"
         id="path47" />
      <path
         d="m 449.5,579.667 c 0,-2.301 1.866,-4.167 4.167,-4.167 h 58.666 c 2.302,0 4.167,1.866 4.167,4.167 v 16.666 c 0,2.302 -1.865,4.167 -4.167,4.167 h -58.666 c -2.301,0 -4.167,-1.865 -4.167,-4.167 z"
         stroke="#000000"
         stroke-width="0.666667"
         stroke-miterlimit="8"
         fill="#ffffff"
         fill-rule="evenodd"
         id="path48" />
      <text
         font-family="'Calibri Light', 'Calibri Light_MSFontService', sans-serif"
         font-weight="300"
         font-size="13px"
         transform="translate(467.661,591)"
         id="text48">Write</text>
      <path
         d="m 386.5,571.667 c 0,-2.301 1.866,-4.167 4.167,-4.167 h 59.666 c 2.302,0 4.167,1.866 4.167,4.167 v 16.666 c 0,2.302 -1.865,4.167 -4.167,4.167 h -59.666 c -2.301,0 -4.167,-1.865 -4.167,-4.167 z"
         stroke="#000000"
         stroke-width="0.666667"
         stroke-miterlimit="8"
         fill="#ffffff"
         fill-rule="evenodd"
         id="path49" />
      <text
         font-family="'Calibri Light', 'Calibri Light_MSFontService', sans-serif"
         font-weight="300"
         font-size="13px"
         transform="translate(397.529,584)"
         id="text49">Initialize</text>
      <path
         d="m 447.5,539.5 c 0,-2.209 1.791,-4 4,-4 h 77 c 2.209,0 4,1.791 4,4 v 16 c 0,2.209 -1.791,4 -4,4 h -77 c -2.209,0 -4,-1.791 -4,-4 z"
         stroke="#bfbfbf"
         stroke-width="0.666667"
         stroke-miterlimit="8"
         fill="#ffffff"
         fill-rule="evenodd"
         id="path50" />
      <text
         font-family="'Calibri Light', 'Calibri Light_MSFontService', sans-serif"
         font-weight="300"
         font-size="13px"
         transform="translate(455.919,551)"
         id="text50">Dereference</text>
      <text
         font-family="'Calibri Light', 'Calibri Light_MSFontService', sans-serif"
         font-weight="300"
         font-size="13px"
         transform="translate(94.8857,421)"
         id="text51">Upper</text>
      <text
         font-family="'Calibri Light', 'Calibri Light_MSFontService', sans-serif"
         font-weight="300"
         font-size="13px"
         transform="translate(94.219,437)"
         id="text52">B</text>
      <text
         font-family="'Calibri Light', 'Calibri Light_MSFontService', sans-serif"
         font-weight="300"
         font-size="13px"
         transform="translate(101.386,437)"
         id="text53">ound</text>
      <text
         font-family="'Calibri Light', 'Calibri Light_MSFontService', sans-serif"
         font-weight="300"
         font-size="13px"
         transform="translate(96.2817,748)"
         id="text54">L</text>
      <text
         font-family="'Calibri Light', 'Calibri Light_MSFontService', sans-serif"
         font-weight="300"
         font-size="13px"
         transform="translate(101.948,748)"
         id="text55">ower</text>
      <text
         font-family="'Calibri Light', 'Calibri Light_MSFontService', sans-serif"
         font-weight="300"
         font-size="13px"
         transform="translate(95.3617,764)"
         id="text56">B</text>
      <text
         font-family="'Calibri Light', 'Calibri Light_MSFontService', sans-serif"
         font-weight="300"
         font-size="13px"
         transform="translate(102.528,764)"
         id="text57">ound</text>
      <path
         d="m 353.996,479.583 -0.5,1.938 c -0.012,0.047 -0.035,0.091 -0.066,0.129 l -1.5,1.813 c -0.017,0.021 -0.037,0.039 -0.059,0.055 l -2.375,1.75 c -0.014,0.011 -0.028,0.02 -0.044,0.028 l -3,1.562 -3.601,1.33 -4.034,1.01 -4.283,0.632 -4.467,0.253 -2.159,0.31 0.069,-0.018 -2.188,0.813 0.056,-0.027 -2.188,1.312 0.049,-0.035 -2.063,1.812 -2.036,2.225 -1.916,2.598 -3.539,6.34 -2.982,7.399 -2.364,8.342 -1.491,8.901 -0.496,9.213 0.562,9.212 1.558,8.9 2.491,8.337 3.175,7.465 3.792,6.334 2.038,2.591 2.106,2.227 -0.066,-0.054 2.962,1.85 -0.353,0.565 -2.962,-1.85 c -0.024,-0.015 -0.047,-0.033 -0.066,-0.054 l -2.145,-2.273 -2.086,-2.659 -3.833,-6.416 -3.201,-7.535 -2.509,-8.413 -1.566,-8.975 -0.563,-9.288 0.504,-9.287 1.508,-8.973 2.387,-8.409 3.018,-7.476 3.585,-6.41 1.96,-2.652 2.088,-2.275 2.063,-1.813 c 0.015,-0.013 0.031,-0.025 0.048,-0.035 l 2.188,-1.313 c 0.017,-0.01 0.036,-0.019 0.055,-0.026 l 2.188,-0.813 c 0.022,-0.008 0.045,-0.014 0.069,-0.017 l 2.216,-0.316 4.407,-0.247 4.218,-0.618 3.966,-0.99 3.523,-1.295 3,-1.563 -0.043,0.028 2.375,-1.75 -0.06,0.056 1.5,-1.813 -0.065,0.129 0.5,-1.937 z m -28.575,102.616 6.079,6.561 -8.896,0.927 z"
         fill="#0000ff"
         id="path57" />
      <path
         d="m 331.57,588.826 -2.312,0.5 0.097,-0.037 -2.375,1.375 0.068,-0.053 -2.25,2.25 0.033,-0.039 -2.25,3.063 -2.102,3.777 -2.052,4.416 -1.991,5.106 -1.806,5.606 -1.684,6.111 -1.496,6.487 -2.497,14.17 -1.559,15.039 -0.561,15.603 0.25,3.904 -0.007,-0.047 0.813,3.875 1.241,3.905 1.736,3.838 2.234,3.781 2.673,3.789 3.108,3.729 3.546,3.669 3.926,3.676 4.297,3.549 9.668,6.86 11.04,6.548 12.229,6.113 13.293,5.616 14.232,5.056 15.045,4.432 15.734,3.808 16.233,3.059 16.608,2.247 16.92,1.373 10.328,0.3 -0.02,0.667 -10.362,-0.302 -16.955,-1.377 -16.642,-2.253 -16.267,-3.066 -15.766,-3.817 -15.08,-4.443 -14.268,-5.069 -13.332,-5.634 -12.271,-6.137 -11.085,-6.577 -9.707,-6.89 -4.328,-3.576 -3.949,-3.699 -3.579,-3.706 -3.141,-3.771 -2.703,-3.836 -2.266,-3.844 -1.764,-3.912 -1.259,-3.97 -0.812,-3.875 c -0.003,-0.015 -0.006,-0.031 -0.007,-0.047 l -0.25,-3.97 0.564,-15.648 1.566,-15.086 2.503,-14.204 1.504,-6.514 1.691,-6.139 1.82,-5.644 2.008,-5.144 2.073,-4.459 2.148,-3.848 2.25,-3.062 c 0.01,-0.014 0.021,-0.027 0.033,-0.039 l 2.25,-2.25 c 0.02,-0.02 0.043,-0.038 0.069,-0.052 l 2.375,-1.375 c 0.03,-0.018 0.062,-0.03 0.096,-0.038 l 2.313,-0.5 z m 149.184,162.75 7.88,4.231 -8.113,3.766 z"
         fill="#0000ff"
         id="path58" />
      <path
         d="m 264.866,279.831 0.784,127.129 -0.666,0.005 -0.784,-127.13 z m -0.333,0.002 -3.984,2.692 3.951,-8.025 4.049,7.975 z"
         fill="#3333cc"
         id="path59" />
      <path
         d="M 0.00893676,-0.333214 16.3214,0.104286 32.5269,1.41776 l 15.891,2.06418 15.5789,2.81504 15.0164,3.50341 14.3912,4.12921 13.6416,4.6927 12.767,5.1939 11.707,5.6334 10.582,6.0106 9.336,6.3897 4.146,3.3277 3.764,3.3871 3.39,3.4518 2.953,3.4545 2.578,3.5196 2.142,3.5886 1.703,3.5906 1.263,3.5948 0.762,3.6679 0.256,3.6696 0.313,7.2585 0.811,7.1016 1.371,7.0366 1.869,6.8512 2.244,6.669 2.741,6.349 3.053,5.98 3.364,5.606 3.734,5.163 3.923,4.669 4.166,4.102 4.349,3.477 4.469,2.79 -0.043,-0.023 4.688,2.063 -0.061,-0.02 2.831,0.637 -0.147,0.651 -2.831,-0.638 c -0.021,-0.005 -0.041,-0.011 -0.061,-0.02 l -4.687,-2.062 c -0.015,-0.007 -0.029,-0.014 -0.043,-0.023 l -4.531,-2.835 -4.401,-3.523 -4.209,-4.148 -3.952,-4.706 -3.766,-5.212 -3.386,-5.644 -3.072,-6.02 -2.759,-6.401 -2.256,-6.706 -1.881,-6.8988 -1.379,-7.0884 -0.814,-7.1484 -0.312,-7.2415 -0.244,-3.5804 -0.738,-3.5821 -1.237,-3.5302 -1.672,-3.5344 -2.108,-3.5364 -2.547,-3.4804 -2.922,-3.4205 -3.36,-3.4232 -3.736,-3.3629 -4.104,-3.2973 -9.289,-6.3603 L 131.23,30.0504 119.562,24.4338 106.829,19.2527 93.2206,14.5704 78.8618,10.4496 63.8782,6.95302 48.3321,4.14305 32.4731,2.08224 16.3036,0.770714 -0.00893676,0.333214 Z M 217.468,148.976 l 7.256,5.229 -8.537,2.668 z"
         fill="#0000ff"
         transform="matrix(0,1,1,0,272.5,274.5)"
         id="path60" />
      <text
         font-family="'Calibri Light', 'Calibri Light_MSFontService', sans-serif"
         font-weight="300"
         font-size="13px"
         transform="translate(237.777,842)"
         id="text60">C</text>
      <text
         font-family="'Calibri Light', 'Calibri Light_MSFontService', sans-serif"
         font-weight="300"
         font-size="13px"
         transform="translate(244.943,842)"
         id="text61">reate</text>
      <text
         font-family="'Calibri Light', 'Calibri Light_MSFontService', sans-serif"
         font-weight="300"
         font-size="13px"
         transform="translate(237.777,858)"
         id="text62">Object</text>
      <text
         font-family="'Calibri Light', 'Calibri Light_MSFontService', sans-serif"
         font-weight="300"
         font-size="13px"
         transform="translate(451.135,857)"
         id="text63">Object</text>
      <text
         font-family="'Calibri Light', 'Calibri Light_MSFontService', sans-serif"
         font-weight="300"
         font-size="13px"
         transform="translate(489.468,857)"
         id="text64">I</text>
      <text
         font-family="'Calibri Light', 'Calibri Light_MSFontService', sans-serif"
         font-weight="300"
         font-size="13px"
         transform="translate(492.802,857)"
         id="text65">n</text>
      <text
         font-family="'Calibri Light', 'Calibri Light_MSFontService', sans-serif"
         font-weight="300"
         font-size="13px"
         transform="translate(502.802,857)"
         id="text66">U</text>
      <text
         font-family="'Calibri Light', 'Calibri Light_MSFontService', sans-serif"
         font-weight="300"
         font-size="13px"
         transform="translate(511.302,857)"
         id="text67">se</text>
      <text
         font-family="'Calibri Light', 'Calibri Light_MSFontService', sans-serif"
         font-weight="300"
         font-size="13px"
         transform="translate(675.694,841)"
         id="text68">D</text>
      <text
         font-family="'Calibri Light', 'Calibri Light_MSFontService', sans-serif"
         font-weight="300"
         font-size="13px"
         transform="translate(683.861,841)"
         id="text69">estroy</text>
      <text
         font-family="'Calibri Light', 'Calibri Light_MSFontService', sans-serif"
         font-weight="300"
         font-size="13px"
         transform="translate(682.194,857)"
         id="text70">Object</text>
      <path
         d="m 647.5,825.5 c 0,4.971 -9.533,9 -21.292,9 H 509.63 c -11.759,0 -21.292,4.03 -21.292,9 0,-4.97 -9.533,-9 -21.292,-9 H 349.792 c -11.759,0 -21.292,-4.029 -21.292,-9"
         stroke="#454545"
         stroke-width="0.666667"
         stroke-miterlimit="8"
         fill="none"
         fill-rule="evenodd"
         id="path70" />
      <path
         d="m 556.5,762.667 c 0,-2.301 1.866,-4.167 4.167,-4.167 h 58.666 c 2.302,0 4.167,1.866 4.167,4.167 v 16.666 c 0,2.302 -1.865,4.167 -4.167,4.167 h -58.666 c -2.301,0 -4.167,-1.865 -4.167,-4.167 z"
         stroke="#000000"
         stroke-width="0.666667"
         stroke-miterlimit="8"
         fill="#ffffff"
         fill-rule="evenodd"
         id="path71" />
      <text
         font-family="'Calibri Light', 'Calibri Light_MSFontService', sans-serif"
         font-weight="300"
         font-size="13px"
         transform="translate(561.329,775)"
         id="text71">Reallocate</text>
      <text
         font-family="'Calibri Light', 'Calibri Light_MSFontService', sans-serif"
         font-weight="300"
         font-size="13px"
         transform="translate(84.6823,583)"
         id="text72">Object</text>
      <text
         font-family="'Calibri Light', 'Calibri Light_MSFontService', sans-serif"
         font-weight="300"
         font-size="13px"
         transform="translate(91.9356,599)"
         id="text73">Size</text>
      <text
         font-family="'Calibri Light', 'Calibri Light_MSFontService', sans-serif"
         font-weight="300"
         font-size="13px"
         transform="translate(398.375,106)"
         id="text74">Memory Bugs Model</text>
      <text
         fill="#7f7f7f"
         font-family="'Calibri Light', 'Calibri Light_MSFontService', sans-serif"
         font-weight="300"
         font-size="12px"
         transform="translate(154.323,813)"
         id="text75">BF, I. Bojanova, 2020</text>
      <text
         fill="#7f7f7f"
         font-family="'Calibri Light', 'Calibri Light_MSFontService', sans-serif"
         font-weight="300"
         font-size="12px"
         transform="translate(255.156,813)"
         id="text76">-</text>
      <text
         fill="#7f7f7f"
         font-family="'Calibri Light', 'Calibri Light_MSFontService', sans-serif"
         font-weight="300"
         font-size="12px"
         transform="translate(258.823,813)"
         id="text77">2024</text>
      <text
         font-family="'Calibri Light', 'Calibri Light_MSFontService', sans-serif"
         font-weight="300"
         font-size="13px"
         transform="rotate(51.549971,-65.481713,908.90274)"
         id="text78">A</text>
      <text
         font-family="'Calibri Light', 'Calibri Light_MSFontService', sans-serif"
         font-weight="300"
         font-size="13px"
         transform="rotate(51.549971,-69.362433,916.73209)"
         id="text79">ll</text>
      <text
         font-family="'Calibri Light', 'Calibri Light_MSFontService', sans-serif"
         font-weight="300"
         font-size="13px"
         transform="rotate(51.549971,-73.812107,926.02752)"
         id="text80">O</text>
      <text
         font-family="'Calibri Light', 'Calibri Light_MSFontService', sans-serif"
         font-weight="300"
         font-size="13px"
         transform="rotate(51.549971,-78.365781,935.10757)"
         id="text81">wners</text>
      <text
         font-family="'Calibri Light', 'Calibri Light_MSFontService', sans-serif"
         font-weight="300"
         font-size="13px"
         transform="rotate(15.377411,-1200.1665,2115.772)"
         id="text82">A</text>
      <text
         font-family="'Calibri Light', 'Calibri Light_MSFontService', sans-serif"
         font-weight="300"
         font-size="13px"
         transform="rotate(15.377411,-1203.9582,2143.5526)"
         id="text83">ll</text>
      <text
         font-family="'Calibri Light', 'Calibri Light_MSFontService', sans-serif"
         font-weight="300"
         font-size="13px"
         transform="rotate(15.377411,-1257.8417,2107.5577)"
         id="text84">O</text>
      <text
         font-family="'Calibri Light', 'Calibri Light_MSFontService', sans-serif"
         font-weight="300"
         font-size="13px"
         transform="rotate(15.377411,-1264.7744,2140.0048)"
         id="text85">wners</text>
      <path
         d="M 5.33333,-0.333333 H 8.4375 10 11.1875 12 h 0.25 0.25 0.8125 1.1875 1.5625 3.099 V 0.333333 H 16.0625 14.5 13.3125 12.5 12.25 12 11.1875 10 8.4375 5.33333 Z M 5.33333,0 8,4 0,0 8,-4 Z M 19.1615,0 16.4949,-4.00005 24.4948,1.04987e-4 16.4947,3.99995 Z"
         fill="#0000ff"
         transform="matrix(0,-1,-1,0,483.5,624.995)"
         id="path85" />
      <path
         d="M 0.0272715,-0.332216 8.40227,0.355284 16.5106,2.17478 c 0.0162,0.00364 0.0321,0.00849 0.0476,0.0145 l 7.5625,2.9375 6.7912,3.76933 c 0.0146,0.0081 0.0286,0.01732 0.0418,0.0275 l 5.75,4.43749 2.41,2.4688 2.0216,2.5244 1.7076,2.6529 c 0.017,0.0264 0.0301,0.0551 0.0391,0.0852 l 0.4869,1.6354 -0.639,0.1903 -0.4869,-1.6355 0.0391,0.0852 -1.6674,-2.5971 -1.9784,-2.4756 -2.34,-2.4062 -5.75,-4.43751 0.0418,0.0275 -6.7088,-3.73067 -7.5625,-2.9375 0.0476,0.0145 L 8.34773,1.01972 -0.0272715,0.332216 Z M 46.5869,20.5286 44.7222,29.2763 38.8428,22.5359 Z"
         fill="#0000ff"
         transform="matrix(0,1,1,0,420.5,592.5)"
         id="path86" />
      <path
         d="m 0.037219,-0.331249 5.562501,0.625 C 5.62406,0.296486 5.64801,0.301892 5.67116,0.309876 L 11.1087,2.18488 c 0.0199,0.00688 0.0392,0.01563 0.0575,0.02615 l 5,2.875 c 0.016,0.0092 0.0312,0.01974 0.0455,0.03146 l 4.5625,3.75 c 0.0142,0.01172 0.0275,0.0246 0.0396,0.03852 l 3.8125,4.37499 c 0.0132,0.0151 0.0249,0.0313 0.0352,0.0486 l 2.9375,4.9375 c 0.0136,0.0229 0.0245,0.0474 0.0323,0.0729 l 1.2552,4.1052 -0.6376,0.1949 -1.2552,-4.1051 0.0323,0.0729 -2.9375,-4.9375 0.0352,0.0486 -3.8125,-4.37501 0.0396,0.03852 -4.5625,-3.75 0.0455,0.03146 -5,-2.875 0.0575,0.02615 -5.43746,-1.874996 0.07144,0.016125 -5.562499,-0.625 z M 32.2367,20.4651 29.8496,29.0849 24.386,22.0033 Z"
         fill="#0000ff"
         transform="matrix(1,0,0,-1,516.5,637.585)"
         id="path87" />
    </g>
  </g>
</svg>
