<?xml version="1.0" encoding="UTF-8" standalone="no"?>
<!-- Created with Inkscape (http://www.inkscape.org/) -->

<svg
   width="197.29066mm"
   height="197.15837mm"
   viewBox="0 0 197.29066 197.15837"
   version="1.1"
   id="svg1"
   inkscape:version="1.3.2 (091e20e, 2023-11-25, custom)"
   sodipodi:docname="_MEM Model.svg"
   xmlns:inkscape="http://www.inkscape.org/namespaces/inkscape"
   xmlns:sodipodi="http://sodipodi.sourceforge.net/DTD/sodipodi-0.dtd"
   xmlns="http://www.w3.org/2000/svg"
   xmlns:svg="http://www.w3.org/2000/svg">
  <sodipodi:namedview
     id="namedview1"
     pagecolor="#ffffff"
     bordercolor="#000000"
     borderopacity="0.25"
     inkscape:showpageshadow="2"
     inkscape:pageopacity="0.0"
     inkscape:pagecheckerboard="0"
     inkscape:deskcolor="#d1d1d1"
     inkscape:document-units="mm"
     inkscape:zoom="1"
     inkscape:cx="434.5"
     inkscape:cy="442.5"
     inkscape:window-width="2560"
     inkscape:window-height="1377"
     inkscape:window-x="-8"
     inkscape:window-y="859"
     inkscape:window-maximized="1"
     inkscape:current-layer="layer1" />
  <defs
     id="defs1" />
  <g
     inkscape:label="Layer 1"
     inkscape:groupmode="layer"
     id="layer1"
     transform="translate(-148.02258,-329.6916)">
    <g
       transform="matrix(0.26458333,0,0,0.26458333,84.986857,297.63697)"
       id="g89">
      <path
         d="m 484.5,555.548 c 0,-7.206 5.842,-13.048 13.048,-13.048 h 266.904 c 7.206,0 13.048,5.842 13.048,13.048 v 102.904 c 0,7.206 -5.842,13.048 -13.048,13.048 H 497.548 c -7.206,0 -13.048,-5.842 -13.048,-13.048 z"
         stroke="#7b7b7b"
         stroke-width="0.666667"
         stroke-miterlimit="8"
         fill="#f2f2f2"
         fill-rule="evenodd"
         id="path1" />
      <text
         font-family="'Calibri Light', 'Calibri Light_MSFontService', sans-serif"
         font-weight="300"
         font-size="13px"
         transform="translate(595.267,558)"
         id="text1">MUS (</text>
      <text
         font-family="'Calibri Light', 'Calibri Light_MSFontService', sans-serif"
         font-weight="300"
         font-size="13px"
         transform="translate(628.101,558)"
         id="text2">object</text>
      <text
         font-family="'Calibri Light', 'Calibri Light_MSFontService', sans-serif"
         font-weight="300"
         font-size="13px"
         transform="translate(661.767,558)"
         id="text3">)</text>
      <path
         d="m 371.5,231.501 c 0,-13.255 10.746,-24.001 24.001,-24.001 h 249.998 c 13.255,0 24.001,10.746 24.001,24.001 v 127.998 c 0,13.255 -10.746,24.001 -24.001,24.001 H 395.501 c -13.255,0 -24.001,-10.746 -24.001,-24.001 z"
         stroke="#7b7b7b"
         stroke-width="0.666667"
         stroke-miterlimit="8"
         fill="#f2f2f2"
         fill-rule="evenodd"
         id="path3" />
      <text
         font-family="'Calibri Light', 'Calibri Light_MSFontService', sans-serif"
         font-weight="300"
         font-size="13px"
         transform="translate(461.485,226)"
         id="text4">MAD (</text>
      <text
         font-family="'Calibri Light', 'Calibri Light_MSFontService', sans-serif"
         font-weight="300"
         font-size="13px"
         transform="translate(495.485,226)"
         id="text5">pointer/owner</text>
      <text
         font-family="'Calibri Light', 'Calibri Light_MSFontService', sans-serif"
         font-weight="300"
         font-size="13px"
         transform="translate(574.651,226)"
         id="text6">)</text>
      <path
         d="m 371.5,426.667 c 0,-10.033 8.134,-18.167 18.167,-18.167 h 233.666 c 10.033,0 18.167,8.134 18.167,18.167 v 72.666 c 0,10.033 -8.134,18.167 -18.167,18.167 H 389.667 c -10.033,0 -18.167,-8.134 -18.167,-18.167 z"
         stroke="#7b7b7b"
         stroke-width="0.666667"
         stroke-miterlimit="8"
         fill="#f2f2f2"
         fill-rule="evenodd"
         id="path6" />
      <text
         font-family="'Calibri Light', 'Calibri Light_MSFontService', sans-serif"
         font-weight="300"
         font-size="13px"
         transform="translate(479.264,425)"
         id="text7">MAL (</text>
      <text
         font-family="'Calibri Light', 'Calibri Light_MSFontService', sans-serif"
         font-weight="300"
         font-size="13px"
         transform="translate(513.764,425)"
         id="text8">object</text>
      <text
         font-family="'Calibri Light', 'Calibri Light_MSFontService', sans-serif"
         font-weight="300"
         font-size="13px"
         transform="translate(547.43,425)"
         id="text9">)</text>
      <path
         d="m 641.5,716.667 c 0,-11.138 9.029,-20.167 20.167,-20.167 h 225.666 c 11.138,0 20.167,9.029 20.167,20.167 v 80.666 c 0,11.138 -9.029,20.167 -20.167,20.167 H 661.667 c -11.138,0 -20.167,-9.029 -20.167,-20.167 z"
         stroke="#7b7b7b"
         stroke-width="0.666667"
         stroke-miterlimit="8"
         fill="#f2f2f2"
         fill-rule="evenodd"
         id="path9" />
      <text
         font-family="'Calibri Light', 'Calibri Light_MSFontService', sans-serif"
         font-weight="300"
         font-size="13px"
         transform="translate(739.336,714)"
         id="text10">MDL (</text>
      <text
         font-family="'Calibri Light', 'Calibri Light_MSFontService', sans-serif"
         font-weight="300"
         font-size="13px"
         transform="translate(771.503,714)"
         id="text11">object</text>
      <text
         font-family="'Calibri Light', 'Calibri Light_MSFontService', sans-serif"
         font-weight="300"
         font-size="13px"
         transform="translate(805.169,714)"
         id="text12">)</text>
      <path
         d="m 591.5,634.833 c 0,-2.393 1.94,-4.333 4.333,-4.333 h 58.334 c 2.393,0 4.333,1.94 4.333,4.333 v 17.334 c 0,2.393 -1.94,4.333 -4.333,4.333 h -58.334 c -2.393,0 -4.333,-1.94 -4.333,-4.333 z"
         stroke="#000000"
         stroke-width="0.666667"
         stroke-miterlimit="8"
         fill="#ffffff"
         fill-rule="evenodd"
         id="path12" />
      <text
         font-family="'Calibri Light', 'Calibri Light_MSFontService', sans-serif"
         font-weight="300"
         font-size="13px"
         id="text13"
         x="612.46368"
         y="648">Read</text>
      <path
         d="m 886.272,777.078 2.847,-0.376 -0.078,0.02 2.842,-1.11 -0.059,0.03 2.831,-1.822 -0.041,0.032 2.814,-2.509 -0.029,0.029 2.792,-3.173 -0.019,0.024 2.764,-3.813 -0.014,0.021 2.731,-4.43 -0.01,0.018 2.691,-5.022 -0.007,0.015 2.647,-5.592 -0.006,0.013 2.598,-6.136 -0.005,0.011 2.542,-6.658 -0.004,0.01 2.48,-7.156 -0.002,0.008 2.413,-7.63 -0.002,0.008 2.341,-8.08 -0.002,0.007 2.264,-8.507 -0.002,0.006 2.18,-8.91 -0.002,0.006 2.091,-9.29 -10e-4,0.006 1.996,-9.645 -10e-4,0.008 3.687,-20.263 -0.002,0.01 3.242,-21.4 -0.002,0.009 2.752,-22.349 -10e-4,0.009 2.218,-23.107 -10e-4,0.008 1.64,-23.676 -10e-4,0.009 1.017,-24.056 -10e-4,0.01 0.349,-24.246 v 0.017 l -0.423,-12.135 0.002,0.023 -1.25,-12.111 0.003,0.022 -2.051,-12.064 0.004,0.021 -2.825,-11.992 0.005,0.019 -3.573,-11.897 0.006,0.018 -4.293,-11.779 0.006,0.017 -4.987,-11.637 0.007,0.017 -5.655,-11.471 0.008,0.015 -6.295,-11.281 0.008,0.014 -6.91,-11.068 0.009,0.013 -7.497,-10.83 0.009,0.012 -8.057,-10.57 0.009,0.012 -8.591,-10.285 0.009,0.011 -9.099,-9.977 0.01,0.01 -9.579,-9.645 0.01,0.009 -10.033,-9.289 0.011,0.009 -10.461,-8.91 0.011,0.008 -10.86,-8.507 0.011,0.008 -11.235,-8.08 0.012,0.008 -11.582,-7.63 0.012,0.007 -11.902,-7.156 0.012,0.007 -12.195,-6.658 0.013,0.006 -12.463,-6.136 0.013,0.006 -12.702,-5.591 0.014,0.006 -12.916,-5.023 0.014,0.006 -13.103,-4.43 0.014,0.005 -13.263,-3.813 0.016,0.004 -13.397,-3.173 0.016,0.003 -13.503,-2.509 0.016,0.003 -13.583,-1.822 0.017,0.002 -13.636,-1.11 0.017,10e-4 -8.332,-0.229 0.019,-0.667 8.341,0.229 13.654,1.112 13.6,1.824 13.52,2.512 13.412,3.177 13.278,3.817 13.117,4.434 12.93,5.028 12.716,5.597 12.474,6.142 12.208,6.665 11.913,7.163 11.593,7.638 11.245,8.088 10.872,8.516 10.47,8.919 10.043,9.299 9.589,9.655 9.108,9.988 8.601,10.296 8.067,10.582 7.506,10.843 6.918,11.082 6.304,11.295 5.662,11.487 4.995,11.653 4.3,11.797 3.578,11.916 2.83,12.012 2.055,12.085 1.252,12.133 0.424,12.154 -0.349,24.258 -1.017,24.065 -1.64,23.685 -2.219,23.116 -2.753,22.358 -3.243,21.41 -3.688,20.271 -1.998,9.652 -2.092,9.295 -2.181,8.917 -2.266,8.514 -2.343,8.088 -2.416,7.638 -2.484,7.165 -2.545,6.668 -2.602,6.148 -2.654,5.605 -2.701,5.039 -2.742,4.448 -2.781,3.836 -2.815,3.2 -2.849,2.54 -2.881,1.854 -2.911,1.137 -2.887,0.381 z m -225.441,-517.432 2.556,4.072 -7.887,-4.218 8.107,-3.779 z"
         id="path13" />
      <text
         font-family="'Calibri Light', 'Calibri Light_MSFontService', sans-serif"
         font-weight="300"
         font-size="13px"
         transform="translate(915.024,158)"
         id="text14">Other Object</text>
      <text
         font-family="'Calibri Light', 'Calibri Light_MSFontService', sans-serif"
         font-weight="300"
         font-size="13px"
         transform="translate(931.777,174)"
         id="text15">/ NULL</text>
      <path
         d="m 622.17,247.377 0.245,-1.613 0.737,-1.64 1.192,-1.609 1.624,-1.582 2.039,-1.559 2.439,-1.537 2.825,-1.513 3.202,-1.491 7.452,-2.896 8.773,-2.771 9.97,-2.622 11.05,-2.45 12.01,-2.252 12.85,-2.032 13.571,-1.786 14.172,-1.517 14.652,-1.222 15.012,-0.903 15.253,-0.56 15.37,-0.192 15.365,-0.192 h -0.008 l 15.246,-0.559 h -0.008 l 15.005,-0.903 -0.008,0.001 14.644,-1.221 h -0.007 l 14.163,-1.515 -0.008,10e-4 13.562,-1.785 -0.008,0.001 12.841,-2.03 -0.009,0.001 12,-2.25 -0.011,0.002 11.038,-2.447 -0.012,0.003 9.956,-2.618 -0.016,0.004 8.755,-2.765 -0.02,0.007 7.432,-2.888 -0.02,0.008 3.183,-1.482 -0.017,0.008 2.807,-1.503 -0.02,0.011 2.416,-1.522 -0.024,0.017 2.011,-1.537 -0.031,0.026 1.441,-1.404 0.465,0.477 -1.455,1.418 -2.038,1.559 -2.44,1.537 -2.825,1.513 -3.201,1.491 -7.453,2.896 -8.772,2.771 -9.971,2.622 -11.05,2.45 -12.01,2.253 -12.85,2.031 -13.571,1.786 -14.171,1.517 -14.652,1.222 -15.013,0.903 -15.253,0.56 -15.37,0.192 -15.365,0.192 h 0.008 l -15.245,0.559 h 0.007 l -15.005,0.903 0.008,-0.001 -14.644,1.222 0.008,-0.001 -14.164,1.515 0.008,-0.001 -13.562,1.785 0.008,-0.001 -12.841,2.03 0.009,-0.001 -12,2.251 0.011,-0.003 -11.038,2.447 0.013,-0.003 -9.957,2.619 0.016,-0.005 -8.755,2.766 0.02,-0.008 -7.432,2.888 0.02,-0.008 -3.183,1.482 0.017,-0.008 -2.807,1.504 0.02,-0.012 -2.416,1.522 0.024,-0.017 -2.01,1.537 0.03,-0.026 -1.59,1.55 0.035,-0.041 -1.155,1.559 0.037,-0.061 -0.704,1.565 0.026,-0.087 -0.238,1.568 z m 326.309,-62.039 -4.751,0.735 6.996,-5.573 0.26,8.941 z"
         id="path15" />
      <path
         d="M 5.33693,0.879775 7.76926,1.97289 7.49598,2.58097 5.06365,1.48786 Z M 9.44103,3.19552 9.97519,3.59441 9.5763,4.12857 9.04214,3.72968 Z m 2.15807,1.66273 1.8108,1.95757 -0.4893,0.4527 -1.8109,-1.95756 z m 3.1774,3.48794 0.3675,0.55622 -0.5562,0.36751 -0.3675,-0.55621 z m 1.47,2.22481 1.1143,1.6863 0.2896,0.6346 -0.6065,0.2768 -0.2788,-0.6109 0.0251,0.0454 -1.0999,-1.6646 z m 2.2343,4.1403 0.2769,0.6065 -0.6065,0.2768 -0.2768,-0.6065 z m 1.0705,2.496 0.7063,2.5715 -0.6429,0.1765 -0.7063,-2.5714 z m 1.2437,4.5576 0.0624,0.6637 -0.6637,0.0625 -0.0625,-0.6637 z m 0.2499,2.6549 0.2186,2.3226 0.0313,0.3323 -0.6637,0.0625 -0.0313,-0.3324 -0.2186,-2.3225 z m 0.4374,4.6461 0.0625,0.6638 -0.6637,0.0625 -0.0625,-0.6638 z m 0.2499,2.655 0.0015,0.0154 -0.0104,-0.0571 0.7022,2.5565 -0.6429,0.1766 -0.7099,-2.5846 -0.0042,-0.0444 z m 1.223,4.4434 0.0967,0.3519 -0.0182,-0.0501 0.1253,0.2745 -0.6065,0.2768 -0.1364,-0.2988 -0.1037,-0.3777 z m 1.0342,2.3957 1.1073,2.4259 -0.6065,0.2768 -1.1072,-2.4259 z m 2.1842,4.0495 0.3675,0.5562 -0.5562,0.3675 -0.3675,-0.5562 z m 1.4701,2.2249 0.1072,0.1623 -0.0334,-0.0426 1.6787,1.8147 -0.4894,0.4527 -1.6971,-1.8346 -0.1223,-0.185 z m 3.1106,3.4026 0.1316,0.1422 -0.0453,-0.0407 0.379,0.283 -0.3989,0.5341 -0.4035,-0.3012 -0.1523,-0.1647 z m 2.0677,1.5811 1.5549,1.1612 -0.0628,-0.037 0.6623,0.2976 -0.2733,0.6081 -0.6957,-0.3126 -1.5842,-1.1831 z M 5.20029,1.18382 6.91257,5.67594 0,0 8.6883,-2.12449 Z M 36.663,52.3634 l -1.7123,-4.4921 6.9126,5.6759 -8.6883,2.1245 z"
         fill="#920000"
         transform="matrix(0,-1,-1,0,631.047,542.363)"
         id="path16" />
      <path
         d="m 778.972,772.748 2.661,-0.172 0.043,0.666 -2.661,0.172 z m 4.657,-0.3 0.665,-0.043 0.043,0.665 -0.665,0.043 z m 2.59,-0.403 2.619,-0.501 0.126,0.655 -2.62,0.501 z m 4.516,-0.988 0.635,-0.2 0.201,0.636 -0.636,0.2 z m 2.543,-0.802 1.821,-0.574 -0.033,0.013 0.694,-0.303 0.267,0.611 -0.71,0.31 -1.839,0.579 z m 4.315,-1.665 0.61,-0.267 0.267,0.611 -0.611,0.267 z m 2.443,-1.067 0.383,-0.167 -0.029,0.014 1.965,-1.094 0.325,0.582 -1.98,1.102 -0.397,0.174 z m 4.067,-2.22 0.582,-0.324 0.324,0.582 -0.582,0.324 z m 2.267,-1.344 2.21,-1.493 0.373,0.552 -2.209,1.494 z m 3.867,-2.613 0.552,-0.373 0.373,0.552 -0.552,0.374 z m 2.105,-1.591 2.088,-1.659 0.415,0.522 -2.088,1.659 z m 3.654,-2.904 0.11,-0.087 -0.017,0.015 0.388,-0.355 0.449,0.492 -0.396,0.362 -0.12,0.095 z m 1.957,-1.776 1.968,-1.799 0.45,0.492 -1.968,1.799 z m 3.419,-3.146 0.463,-0.479 0.479,0.463 -0.463,0.48 z m 1.853,-1.917 1.853,-1.918 0.479,0.463 -1.853,1.918 z m 3.216,-3.355 0.436,-0.505 0.504,0.436 -0.435,0.505 z m 1.743,-2.018 1.744,-2.018 0.504,0.436 -1.743,2.018 z m 3.036,-3.522 0.41,-0.526 0.525,0.41 -0.409,0.526 z m 1.639,-2.104 1.639,-2.103 0.526,0.41 -1.639,2.103 z m 2.868,-3.681 0.252,-0.323 -0.009,0.012 0.148,-0.209 0.544,0.385 -0.152,0.215 -0.257,0.33 z m 1.546,-2.153 1.541,-2.177 0.544,0.385 -1.54,2.177 z m 2.696,-3.81 0.385,-0.544 0.544,0.385 -0.385,0.544 z m 1.482,-2.199 1.447,-2.24 0.56,0.362 -1.447,2.24 z m 2.532,-3.92 0.361,-0.56 0.56,0.362 -0.361,0.56 z m 1.429,-2.235 1.358,-2.295 0.574,0.339 -1.358,2.295 z m 2.376,-4.017 0.339,-0.574 0.574,0.34 -0.339,0.574 z m 1.358,-2.295 0.571,-0.966 -0.006,0.011 0.737,-1.358 0.586,0.318 -0.74,1.363 -0.575,0.971 z m 2.256,-4.07 0.319,-0.586 0.585,0.318 -0.318,0.586 z m 1.273,-2.344 1.273,-2.343 0.586,0.318 -1.273,2.344 z m 2.165,-4.12 0.298,-0.596 0.597,0.298 -0.298,0.596 z m 1.192,-2.386 1.191,-2.385 0.597,0.298 -1.192,2.385 z m 2.085,-4.175 0.039,-0.079 -0.006,0.014 0.233,-0.528 0.61,0.269 -0.236,0.535 -0.044,0.087 z m 1.072,-2.423 1.075,-2.441 0.61,0.269 -1.075,2.44 z m 1.882,-4.271 0.268,-0.61 0.611,0.269 -0.269,0.61 z m 1.075,-2.44 1.075,-2.441 0.61,0.269 -1.075,2.441 z m 1.882,-4.271 0.268,-0.61 0.61,0.269 -0.268,0.61 z m 1.075,-2.44 0.821,-1.863 -0.008,0.018 0.22,-0.591 0.625,0.232 -0.223,0.601 -0.825,1.872 z m 1.729,-4.311 0.232,-0.625 0.625,0.232 -0.232,0.625 z m 0.929,-2.5 0.928,-2.5 0.625,0.233 -0.928,2.499 z m 1.624,-4.374 0.232,-0.625 0.625,0.232 -0.232,0.625 z m 0.929,-2.5 0.928,-2.5 0.625,0.232 -0.928,2.5 z m 1.625,-4.375 0.232,-0.625 0.625,0.232 -0.233,0.625 z m 0.928,-2.5 0.061,-0.165 -0.006,0.018 0.736,-2.38 0.637,0.197 -0.739,2.389 -0.064,0.173 z m 1.382,-4.437 0.197,-0.637 0.637,0.197 -0.197,0.636 z m 0.787,-2.548 0.788,-2.548 0.637,0.197 -0.788,2.548 z m 1.379,-4.459 0.197,-0.636 0.637,0.196 -0.197,0.637 z m 0.788,-2.547 0.787,-2.548 0.637,0.197 -0.787,2.548 z m 1.378,-4.459 0.197,-0.637 0.637,0.197 -0.197,0.637 z m 0.734,-2.544 0.65,-2.586 0.647,0.162 -0.65,2.587 z m 1.138,-4.526 0.162,-0.646 0.647,0.162 -0.163,0.647 z m 0.65,-2.586 0.65,-2.586 0.646,0.162 -0.65,2.587 z m 1.137,-4.526 0.163,-0.646 0.646,0.162 -0.162,0.647 z m 0.65,-2.586 0.65,-2.586 0.647,0.162 -0.65,2.586 z m 1.138,-4.526 0.163,-0.647 0.646,0.163 -0.162,0.647 z m 0.57,-2.586 0.513,-2.617 0.654,0.128 -0.513,2.617 z m 0.897,-4.58 0.128,-0.654 0.655,0.128 -0.128,0.655 z m 0.513,-2.617 0.513,-2.616 0.654,0.128 -0.513,2.617 z m 0.897,-4.579 0.128,-0.654 0.655,0.128 -0.128,0.654 z m 0.513,-2.617 0.513,-2.617 0.654,0.128 -0.513,2.617 z m 0.897,-4.58 0.128,-0.654 0.655,0.128 -0.129,0.655 z m 0.43,-2.613 0.373,-2.64 0.66,0.093 -0.373,2.641 z m 0.653,-4.62 0.093,-0.661 0.66,0.094 -0.093,0.66 z m 0.373,-2.641 0.373,-2.64 0.66,0.093 -0.373,2.64 z m 0.653,-4.621 0.093,-0.66 0.66,0.094 -0.093,0.66 z m 0.373,-2.64 0.373,-2.64 0.66,0.093 -0.373,2.64 z m 0.653,-4.621 0.093,-0.66 0.66,0.093 -0.093,0.661 z m 0.303,-2.63 0.229,-2.657 0.665,0.058 -0.23,2.656 z m 0.401,-4.649 0.057,-0.664 0.665,0.057 -0.058,0.664 z m 0.229,-2.657 0.229,-2.657 0.665,0.057 -0.23,2.657 z m 0.401,-4.65 0.057,-0.664 0.665,0.058 -0.058,0.664 z m 0.229,-2.656 0.229,-2.657 0.665,0.057 -0.23,2.657 z m 0.401,-4.65 0.057,-0.664 0.665,0.057 -0.058,0.665 z m 0.185,-2.64 0.078,-2.666 0.667,0.02 -0.078,2.665 z m 0.137,-4.665 0.02,-0.666 0.666,0.019 -0.019,0.667 z m 0.078,-2.665 0.079,-2.666 0.666,0.02 -0.078,2.665 z m 0.137,-4.665 0.02,-0.666 0.666,0.019 -0.019,0.667 z m 0.079,-2.666 0.078,-2.665 0.666,0.02 -0.078,2.665 z m 0.137,-4.664 0.019,-0.667 0.666,0.02 -0.019,0.666 z m 0.067,-2.643 -0.101,-2.665 0.666,-0.025 0.101,2.665 z m -0.176,-4.664 -0.026,-0.666 0.667,-0.025 0.025,0.666 z m -0.101,-2.664 -0.101,-2.665 0.666,-0.025 0.101,2.664 z m -0.237,-4.634 -0.074,-0.663 0.662,-0.074 0.075,0.662 z m -0.297,-2.651 -0.297,-2.65 0.662,-0.074 0.298,2.65 z m -0.52,-4.637 -0.074,-0.663 0.662,-0.074 0.075,0.663 z m -0.297,-2.65 -0.057,-0.508 0.003,0.023 -0.391,-2.12 0.656,-0.121 0.393,2.132 0.058,0.519 z m -0.808,-4.571 -0.121,-0.656 0.655,-0.121 0.121,0.656 z m -0.484,-2.623 -0.485,-2.622 0.656,-0.121 0.484,2.622 z m -0.847,-4.566 -0.165,-0.646 0.646,-0.165 0.165,0.646 z m -0.661,-2.583 -0.661,-2.584 0.646,-0.165 0.661,2.584 z m -1.157,-4.521 -0.165,-0.646 0.646,-0.165 0.165,0.646 z m -0.661,-2.584 -0.365,-1.429 0.006,0.021 -0.37,-1.133 0.634,-0.207 0.373,1.143 0.368,1.44 z m -1.349,-4.442 -0.206,-0.634 0.633,-0.207 0.207,0.634 z m -0.827,-2.535 -0.826,-2.536 0.633,-0.206 0.827,2.535 z m -1.446,-4.437 -0.207,-0.634 0.634,-0.207 0.206,0.634 z m -0.909,-2.484 -0.982,-2.48 0.62,-0.245 0.982,2.48 z m -1.718,-4.339 -0.245,-0.62 0.62,-0.245 0.245,0.62 z m -0.981,-2.48 -0.982,-2.479 0.62,-0.245 0.982,2.479 z m -1.803,-4.281 -0.282,-0.604 0.605,-0.281 0.281,0.604 z m -1.126,-2.417 -1.125,-2.418 0.604,-0.281 1.126,2.418 z m -1.969,-4.231 -0.282,-0.604 0.605,-0.282 0.281,0.605 z m -1.126,-2.417 -0.098,-0.212 0.008,0.016 -1.148,-2.145 0.588,-0.314 1.152,2.153 0.103,0.22 z m -2.182,-4.104 -0.315,-0.587 0.588,-0.315 0.315,0.588 z m -1.259,-2.351 -1.259,-2.351 0.588,-0.314 1.259,2.351 z m -2.203,-4.114 -0.168,-0.315 0.008,0.015 -0.16,-0.264 0.57,-0.345 0.165,0.271 0.173,0.324 z m -1.356,-2.274 -1.383,-2.281 0.57,-0.345 1.383,2.28 z m -2.419,-3.991 -0.346,-0.57 0.57,-0.346 0.346,0.57 z m -1.383,-2.281 -1.373,-2.265 0.01,0.014 -0.01,-0.014 0.551,-0.374 0.015,0.021 1.378,2.273 z m -2.496,-3.921 -0.374,-0.552 0.552,-0.374 0.374,0.552 z m -1.496,-2.207 -1.497,-2.207 0.552,-0.374 1.497,2.207 z m -2.619,-3.862 -0.374,-0.552 0.552,-0.374 0.374,0.551 z m -1.497,-2.208 -0.248,-0.366 0.01,0.014 -1.337,-1.778 0.533,-0.401 1.341,1.785 0.253,0.372 z m -2.777,-3.729 -0.4,-0.533 0.533,-0.401 0.4,0.533 z m -1.602,-2.132 -1.603,-2.131 0.533,-0.401 1.603,2.132 z m -2.804,-3.73 -0.401,-0.533 0.533,-0.4 0.4,0.533 z m -1.652,-2.073 -1.701,-2.054 0.514,-0.425 1.701,2.054 z m -2.976,-3.594 -0.425,-0.514 0.513,-0.425 0.425,0.514 z m -1.701,-2.054 -1.7,-2.054 0.513,-0.425 1.701,2.054 z m -2.994,-3.559 -0.447,-0.494 0.493,-0.448 0.448,0.494 z m -1.791,-1.975 -1.792,-1.975 0.494,-0.448 1.792,1.975 z m -3.136,-3.457 -0.448,-0.493 0.494,-0.448 0.448,0.493 z m -1.792,-1.975 -1.429,-1.575 0.01,0.011 -0.379,-0.384 0.473,-0.469 0.385,0.389 1.434,1.58 z m -3.206,-3.369 -0.469,-0.474 0.474,-0.469 0.469,0.474 z m -1.876,-1.895 -1.877,-1.894 0.474,-0.469 1.876,1.894 z m -3.284,-3.315 -0.469,-0.474 0.473,-0.469 0.469,0.474 z m -1.877,-1.895 -0.383,-0.387 0.01,0.01 -1.556,-1.443 0.453,-0.489 1.562,1.448 0.388,0.392 z m -3.396,-3.18 -0.488,-0.453 0.453,-0.489 0.489,0.454 z m -1.955,-1.813 -1.956,-1.813 0.454,-0.488 1.955,1.813 z m -3.422,-3.172 -0.489,-0.454 0.453,-0.488 0.489,0.453 z m -1.97,-1.776 -2.03,-1.73 0.433,-0.507 2.029,1.73 z m -3.552,-3.028 -0.507,-0.432 0.433,-0.507 0.507,0.432 z m -2.029,-1.73 -2.029,-1.73 0.432,-0.507 2.03,1.73 z m -3.551,-3.027 -0.334,-0.285 0.01,0.009 -0.179,-0.141 0.412,-0.524 0.184,0.144 0.339,0.289 z m -2.077,-1.651 -2.098,-1.646 0.412,-0.525 2.098,1.646 z m -3.672,-2.88 -0.524,-0.412 0.411,-0.524 0.525,0.411 z m -2.098,-1.646 -2.098,-1.646 0.411,-0.524 2.099,1.645 z m -3.68,-2.847 -0.54,-0.39 0.39,-0.541 0.54,0.39 z m -2.162,-1.56 -2.163,-1.56 0.39,-0.541 2.162,1.56 z m -3.785,-2.73 -0.541,-0.39 0.39,-0.541 0.541,0.39 z m -2.163,-1.56 -2.163,-1.56 0.39,-0.54 2.163,1.56 z m -3.817,-2.66 -0.556,-0.368 0.368,-0.556 0.556,0.368 z m -2.223,-1.473 -2.224,-1.472 0.368,-0.556 2.224,1.473 z m -3.891,-2.576 -0.556,-0.368 0.368,-0.556 0.556,0.368 z m -2.223,-1.473 -1.456,-0.963 0.012,0.007 -0.788,-0.478 0.346,-0.57 0.793,0.481 1.461,0.967 z m -3.942,-2.472 -0.57,-0.345 0.346,-0.57 0.57,0.345 z m -2.28,-1.383 -2.28,-1.383 0.346,-0.57 2.28,1.383 z m -3.99,-2.42 -0.57,-0.346 0.346,-0.57 0.57,0.346 z m -2.28,-1.383 -0.672,-0.408 0.011,0.007 -1.645,-0.911 0.323,-0.583 1.651,0.914 0.678,0.411 z m -4.056,-2.281 -0.583,-0.323 0.323,-0.583 0.583,0.323 z m -2.333,-1.291 -2.333,-1.292 0.323,-0.583 2.333,1.292 z m -4.082,-2.261 -0.584,-0.322 0.323,-0.584 0.583,0.323 z m -2.324,-1.281 -2.382,-1.198 0.299,-0.595 2.383,1.197 z m -4.169,-2.096 -0.596,-0.299 0.3,-0.596 0.595,0.3 z m -2.383,-1.198 -2.382,-1.197 0.299,-0.596 2.383,1.198 z m -4.169,-2.096 -0.596,-0.299 0.299,-0.596 0.596,0.3 z m -2.388,-1.156 -2.428,-1.102 0.275,-0.607 2.429,1.101 z m -4.25,-1.927 -0.607,-0.276 0.275,-0.607 0.607,0.275 z m -2.429,-1.102 -2.428,-1.101 0.275,-0.607 2.429,1.101 z m -4.25,-1.927 -0.607,-0.275 0.275,-0.607 0.608,0.275 z m -2.445,-1.029 -2.471,-1.001 0.25,-0.618 2.472,1.001 z m -4.325,-1.753 -0.617,-0.25 0.25,-0.618 0.618,0.251 z m -2.471,-1.001 -2.471,-1.002 0.25,-0.618 2.471,1.002 z m -4.325,-1.753 -0.077,-0.031 0.013,0.005 -0.55,-0.197 0.225,-0.628 0.556,0.199 0.083,0.034 z m -2.497,-0.897 -2.51,-0.899 0.225,-0.628 2.51,0.899 z m -4.393,-1.573 -0.628,-0.225 0.225,-0.628 0.628,0.225 z m -2.511,-0.899 -2.51,-0.899 0.224,-0.628 2.511,0.899 z m -4.389,-1.541 -0.637,-0.198 0.198,-0.636 0.637,0.198 z m -2.546,-0.792 -2.547,-0.793 0.199,-0.636 2.546,0.792 z m -4.456,-1.387 -0.637,-0.198 0.198,-0.637 0.637,0.198 z m -2.546,-0.793 -2.547,-0.792 0.198,-0.637 2.547,0.793 z m -4.46,-1.321 -0.645,-0.171 0.171,-0.645 0.645,0.171 z m -2.578,-0.683 -2.578,-0.682 0.171,-0.645 2.578,0.683 z m -4.511,-1.194 -0.645,-0.171 0.171,-0.644 0.644,0.17 z m -2.578,-0.682 -2.324,-0.616 0.014,0.004 -0.256,-0.056 0.142,-0.652 0.263,0.058 2.331,0.617 z m -4.521,-1.094 -0.651,-0.142 0.142,-0.652 0.652,0.142 z m -2.605,-0.569 -2.605,-0.568 0.142,-0.651 2.605,0.568 z m -4.559,-0.994 -0.652,-0.142 0.142,-0.651 0.652,0.142 z m -2.606,-0.568 -1.576,-0.344 0.015,0.003 -1.039,-0.178 0.113,-0.657 1.046,0.179 1.583,0.346 z m -4.571,-0.856 -0.657,-0.112 0.112,-0.657 0.657,0.112 z m -2.628,-0.449 -2.629,-0.45 0.113,-0.657 2.628,0.449 z m -4.6,-0.787 -0.657,-0.113 0.112,-0.657 0.657,0.112 z m -2.629,-0.45 -0.798,-0.137 0.016,0.003 -1.843,-0.228 0.081,-0.662 1.851,0.229 0.806,0.138 z m -4.61,-0.607 -0.662,-0.082 0.082,-0.661 0.661,0.081 z m -2.647,-0.327 -2.647,-0.327 0.082,-0.661 2.647,0.326 z m -4.631,-0.572 -0.662,-0.082 0.082,-0.661 0.661,0.082 z m -2.631,-0.325 -2.659,-0.199 0.05,-0.665 2.659,0.2 z m -4.654,-0.349 -0.665,-0.049 0.05,-0.665 0.665,0.05 z m -2.659,-0.199 -2.659,-0.199 0.05,-0.665 2.659,0.199 z m -4.654,-0.349 -0.664,-0.05 0.05,-0.664 0.664,0.049 z m -2.644,-0.157 -2.666,-0.068 0.017,-0.666 2.666,0.067 z m -4.665,-0.118 -0.667,-0.017 0.017,-0.666 0.666,0.016 z m -2.666,-0.068 -0.331,-0.008 0.017,-0.666 0.331,0.008 z m -0.322,-0.341 2.564,4.066 -7.896,-4.201 8.099,-3.796 z"
         fill="#920000"
         id="path17" />
      <text
         font-family="'Calibri Light', 'Calibri Light_MSFontService', sans-serif"
         font-weight="300"
         font-size="13px"
         transform="rotate(48.230696,53.020251,1142.8031)"
         id="text17">A</text>
      <text
         font-family="'Calibri Light', 'Calibri Light_MSFontService', sans-serif"
         font-weight="300"
         font-size="13px"
         transform="rotate(48.230696,48.816484,1151.3835)"
         id="text18">ll</text>
      <text
         font-family="'Calibri Light', 'Calibri Light_MSFontService', sans-serif"
         font-weight="300"
         font-size="13px"
         transform="rotate(48.230696,45.112217,1161.0797)"
         id="text19">O</text>
      <text
         font-family="'Calibri Light', 'Calibri Light_MSFontService', sans-serif"
         font-weight="300"
         font-size="13px"
         transform="rotate(48.230696,40.179988,1171.0279)"
         id="text20">wners</text>
      <path
         d="M 0.340021,5.3231 1.16714,663.751 H 0.500473 L -0.326646,5.32394 Z M 0.00669981,5.33333 -3.98995,8.00502 0,0 4.01005,7.99497 Z"
         transform="matrix(-1,0,0,1,301.334,167.5)"
         id="path20" />
      <path
         d="m 300.5,831.167 627.882,0.296 -10e-4,0.667 -627.881,-0.297 z m 627.885,0.629 -2.665,-4.001 7.998,4.004 -8.002,3.996 z"
         id="path21" />
      <text
         font-family="'Calibri Light', 'Calibri Light_MSFontService', sans-serif"
         font-weight="300"
         font-size="13px"
         transform="translate(942.443,829)"
         id="text21">Object</text>
      <text
         font-family="'Calibri Light', 'Calibri Light_MSFontService', sans-serif"
         font-weight="300"
         font-size="13px"
         transform="translate(942.443,845)"
         id="text22">L</text>
      <text
         font-family="'Calibri Light', 'Calibri Light_MSFontService', sans-serif"
         font-weight="300"
         font-size="13px"
         transform="translate(948.11,845)"
         id="text23">ifetime</text>
      <text
         font-family="'Calibri Light', 'Calibri Light_MSFontService', sans-serif"
         font-weight="300"
         font-size="13px"
         transform="translate(282.797,141)"
         id="text24">Object</text>
      <text
         font-family="'Calibri Light', 'Calibri Light_MSFontService', sans-serif"
         font-weight="300"
         font-size="13px"
         transform="translate(284.63,157)"
         id="text25">S</text>
      <text
         font-family="'Calibri Light', 'Calibri Light_MSFontService', sans-serif"
         font-weight="300"
         font-size="13px"
         transform="translate(290.63,157)"
         id="text26">pace</text>
      <path
         d="M 0.0167422,-0.332913 2.68004,-0.198975 2.64656,0.46685 -0.0167422,0.332913 Z M 4.67752,-0.0985218 7.34082,0.0354158 7.30733,0.701241 4.64403,0.567303 Z M 9.35325,0.311328 11.9913,0.701086 11.8938,1.36059 9.25581,0.970835 Z m 4.61655,0.682077 1.0906,0.161125 1.5498,0.37529 -0.1569,0.64794 -1.5351,-0.37172 0.0297,0.00578 -1.0755,-0.15891 z m 4.5842,1.007115 2.5917,0.6276 -0.1569,0.64794 -2.5917,-0.6276 z m 4.5469,1.16284 2.528,0.84863 -0.2121,0.632 -2.5281,-0.84862 z m 4.424,1.4851 2.1165,0.71046 0.4241,0.18265 -0.2637,0.61229 -0.4114,-0.17718 0.0257,0.00985 -2.1033,-0.70607 z m 4.3775,1.68418 2.4492,1.05477 -0.2637,0.6123 -2.4492,-1.05477 z m 4.2861,1.84585 0.4168,0.17951 1.9791,1.04845 -0.312,0.58911 -1.9673,-1.04217 0.0242,0.01159 -0.4045,-0.17419 z m 4.1633,2.16421 2.3564,1.2483 -0.3121,0.5891 -2.3564,-1.2483 z m 4.0917,2.2923 2.2498,1.4316 -0.3579,0.5625 -2.2498,-1.4316 z m 3.9372,2.5053 1.2062,0.7676 1.0085,0.7613 -0.4017,0.5321 -0.9978,-0.7533 0.0219,0.0152 -1.195,-0.7604 z m 3.8109,2.7339 2.1283,1.6067 -0.4017,0.5321 -2.1283,-1.6067 z m 3.717,2.8639 1.9898,1.7753 -0.4438,0.4974 -1.9898,-1.7753 z m 3.4822,3.1068 1.5252,1.3607 0.4471,0.4733 -0.4845,0.4579 -0.4374,-0.463 0.0204,0.0198 -1.5146,-1.3513 z m 3.3458,3.2878 1.8313,1.9384 -0.4846,0.4579 -1.8313,-1.9384 z m 3.2108,3.4269 1.6486,2.0961 -0.524,0.4121 -1.6486,-2.096 z m 2.885,3.6681 1.29,1.64 0.33,0.5162 -0.5617,0.3591 -0.3212,-0.5024 0.0188,0.0265 -1.2799,-1.6273 z m 2.6974,3.8412 1.4365,2.2467 -0.5617,0.3591 -1.4365,-2.2467 z m 2.4847,3.989 1.1895,2.3866 -0.5966,0.2974 -1.1895,-2.3866 z m 2.0817,4.1767 0.6369,1.2779 0.4323,1.2025 -0.6273,0.2256 -0.4257,-1.1841 0.0153,0.0359 -0.6282,-1.2605 z m 1.7459,4.3625 0.9022,2.5094 -0.6274,0.2256 -0.9022,-2.5094 z m 1.4029,4.4869 0.5714,2.6048 -0.6512,0.1428 -0.5713,-2.6047 z m 0.9999,4.5583 0.0254,0.1157 0.0659,0.883 -0.6648,0.0496 -0.0641,-0.8594 0.0068,0.0466 -0.0203,-0.0926 z m -0.2411,1.0235 3.7904,-2.9571 -3.3933,8.2757 -4.5845,-7.68 z"
         fill="#008080"
         transform="matrix(0,1,1,0,318.5,175.5)"
         id="path26" />
      <path
         d="m 629.26,487.409 2.658,-0.217 0.054,0.665 -2.658,0.216 z m 4.651,-0.38 0.664,-0.054 0.055,0.665 -0.665,0.054 z m 2.593,-0.298 2.593,-0.621 0.156,0.648 -2.594,0.622 z m 4.538,-1.088 0.648,-0.155 0.156,0.648 -0.649,0.156 z m 2.505,-0.748 2.482,-0.975 0.243,0.62 -2.482,0.975 z m 4.343,-1.707 0.621,-0.244 0.243,0.621 -0.62,0.244 z m 2.374,-1.109 2.342,-1.275 0.319,0.585 -2.342,1.276 z m 4.098,-2.232 0.586,-0.319 0.318,0.586 -0.585,0.319 z m 2.23,-1.386 2.186,-1.528 0.381,0.547 -2.185,1.527 z m 3.825,-2.673 0.547,-0.382 0.381,0.546 -0.546,0.382 z m 2.089,-1.598 2.022,-1.739 0.435,0.506 -2.023,1.738 z m 3.539,-3.042 0.505,-0.435 0.435,0.506 -0.506,0.434 z m 1.958,-1.762 1.856,-1.915 0.479,0.464 -1.856,1.915 z m 3.247,-3.352 0.464,-0.479 0.479,0.464 -0.464,0.479 z m 1.855,-1.915 0.058,-0.06 -0.019,0.022 1.634,-2.002 0.517,0.421 -1.644,2.013 -0.067,0.069 z m 2.938,-3.59 0.421,-0.516 0.517,0.421 -0.422,0.517 z m 1.686,-2.065 0.665,-0.815 -0.016,0.021 0.918,-1.329 0.549,0.379 -0.926,1.34 -0.673,0.825 z m 2.704,-3.768 0.379,-0.549 0.548,0.379 -0.379,0.549 z m 1.515,-2.194 1.26,-1.823 -0.014,0.021 0.227,-0.389 0.576,0.335 -0.233,0.401 -1.267,1.834 z m 2.479,-3.92 0.336,-0.576 0.576,0.336 -0.336,0.576 z m 1.342,-2.304 1.342,-2.305 0.576,0.336 -1.342,2.304 z m 2.261,-4.051 0.29,-0.6 0.6,0.291 -0.29,0.6 z m 1.163,-2.4 1.163,-2.399 0.6,0.291 -1.163,2.399 z m 2.035,-4.199 0.141,-0.29 -0.01,0.024 0.126,-0.321 0.62,0.244 -0.131,0.333 -0.146,0.301 z m 0.99,-2.448 0.978,-2.481 0.62,0.245 -0.977,2.481 z m 1.711,-4.342 0.245,-0.62 0.62,0.245 -0.245,0.62 z m 0.91,-2.477 0.783,-2.549 0.638,0.196 -0.783,2.549 z m 1.37,-4.461 0.196,-0.637 0.637,0.196 -0.195,0.637 z m 0.783,-2.549 0.231,-0.75 -0.007,0.026 0.407,-1.838 0.651,0.144 -0.41,1.851 -0.234,0.763 z m 1.064,-4.514 0.144,-0.651 0.651,0.144 -0.144,0.651 z m 0.577,-2.604 0.52,-2.349 -0.005,0.027 0.035,-0.258 0.661,0.089 -0.037,0.273 -0.523,2.362 z m 0.818,-4.562 0.089,-0.66 0.661,0.089 -0.089,0.66 z m 0.357,-2.642 0.358,-2.643 0.66,0.089 -0.357,2.643 z m 0.567,-4.601 0.031,-0.666 0.666,0.031 -0.031,0.666 z m 0.123,-2.664 0.122,-2.663 0.666,0.03 -0.122,2.664 z m 0.214,-4.661 0.031,-0.666 0.666,0.03 -0.031,0.666 z m -0.062,-2.625 -0.173,-2.661 0.665,-0.044 0.174,2.661 z m -0.303,-4.657 -0.043,-0.665 0.665,-0.044 0.043,0.665 z m -0.172,-2.62 -0.501,-2.619 0.655,-0.125 0.501,2.619 z m -0.876,-4.583 -0.125,-0.655 0.654,-0.125 0.126,0.654 z m -0.501,-2.62 -0.316,-1.65 0.009,0.037 -0.295,-0.941 0.637,-0.2 0.3,0.96 0.32,1.669 z m -1.2,-4.463 -0.199,-0.636 0.636,-0.199 0.199,0.636 z m -0.797,-2.544 -0.798,-2.545 0.636,-0.199 0.798,2.545 z m -1.499,-4.377 -0.266,-0.611 0.612,-0.266 0.265,0.611 z m -1.063,-2.446 -1.063,-2.445 0.612,-0.266 1.062,2.446 z m -1.86,-4.28 -0.266,-0.611 0.612,-0.266 0.265,0.612 z m -1.212,-2.335 -1.299,-2.329 0.583,-0.325 1.298,2.329 z m -2.272,-4.076 -0.325,-0.582 0.582,-0.325 0.325,0.582 z m -1.299,-2.329 -0.127,-0.228 0.016,0.026 -1.36,-1.984 0.549,-0.377 1.37,1.997 0.134,0.241 z m -2.603,-3.835 -0.377,-0.55 0.55,-0.377 0.377,0.55 z m -1.508,-2.199 -1.419,-2.07 0.017,0.023 -0.099,-0.121 0.514,-0.424 0.109,0.133 1.428,2.082 z m -2.773,-3.712 -0.424,-0.514 0.515,-0.424 0.424,0.515 z m -1.696,-2.058 -1.695,-2.058 0.515,-0.424 1.695,2.058 z m -2.967,-3.602 -0.129,-0.157 0.019,0.021 -0.324,-0.331 0.477,-0.466 0.333,0.341 0.139,0.168 z m -1.832,-1.897 -1.864,-1.907 0.477,-0.466 1.864,1.907 z m -3.262,-3.338 -0.465,-0.477 0.476,-0.466 0.466,0.477 z m -1.844,-1.887 -2.016,-1.745 0.436,-0.504 2.016,1.745 z m -3.528,-3.054 -0.504,-0.437 0.436,-0.504 0.504,0.437 z m -2.016,-1.746 -1.869,-1.618 0.021,0.017 -0.157,-0.114 0.393,-0.539 0.168,0.123 1.88,1.627 z m -3.62,-2.894 -0.539,-0.393 0.393,-0.539 0.539,0.393 z m -2.154,-1.572 -2.155,-1.572 0.393,-0.539 2.155,1.572 z m -3.77,-2.751 -0.253,-0.185 0.023,0.016 -0.302,-0.184 0.346,-0.57 0.315,0.191 0.264,0.193 z m -2.241,-1.391 -2.279,-1.385 0.346,-0.57 2.279,1.385 z m -3.988,-2.423 -0.57,-0.347 0.346,-0.569 0.57,0.346 z m -2.279,-1.385 -0.117,-0.071 0.025,0.014 -2.268,-1.12 0.295,-0.598 2.282,1.126 0.129,0.079 z m -4.153,-2.063 -0.598,-0.295 0.295,-0.598 0.598,0.295 z m -2.391,-1.181 -2.315,-1.144 0.027,0.013 -0.078,-0.031 0.239,-0.622 0.093,0.036 2.329,1.15 z m -4.233,-1.88 -0.622,-0.24 0.24,-0.622 0.622,0.24 z m -2.488,-0.958 -2.489,-0.958 0.24,-0.623 2.488,0.958 z m -4.355,-1.677 -0.277,-0.107 0.031,0.011 -0.357,-0.1 0.178,-0.642 0.373,0.104 0.291,0.112 z m -2.53,-0.731 -2.57,-0.713 0.179,-0.643 2.569,0.714 z m -4.497,-1.248 -0.642,-0.179 0.178,-0.642 0.643,0.178 z m -2.537,-0.7 -2.629,-0.446 0.111,-0.657 2.629,0.446 z m -4.601,-0.78 -0.657,-0.111 0.111,-0.657 0.657,0.111 z m -2.629,-0.445 -2.145,-0.364 0.037,0.004 -0.491,-0.028 0.038,-0.665 0.509,0.029 2.163,0.366 z m -4.596,-0.503 -0.665,-0.038 0.038,-0.666 0.666,0.038 z m -1.68,-0.431 2.431,4.147 -7.756,-4.454 8.217,-3.533 z"
         fill="#920000"
         id="path27" />
      <path
         d="m 505.5,450.667 c 0,-2.301 1.866,-4.167 4.167,-4.167 h 58.666 c 2.302,0 4.167,1.866 4.167,4.167 v 16.666 c 0,2.302 -1.865,4.167 -4.167,4.167 h -58.666 c -2.301,0 -4.167,-1.865 -4.167,-4.167 z"
         stroke="#000000"
         stroke-width="0.666667"
         stroke-miterlimit="8"
         fill="#ffffff"
         fill-rule="evenodd"
         id="path28" />
      <text
         font-family="'Calibri Light', 'Calibri Light_MSFontService', sans-serif"
         font-weight="300"
         font-size="13px"
         id="text28"
         x="521.52667"
         y="463.16666">Extend</text>
      <path
         d="m 432.5,268.833 c 0,-1.288 1.045,-2.333 2.333,-2.333 h 79.334 c 1.288,0 2.333,1.045 2.333,2.333 v 9.334 c 0,1.288 -1.045,2.333 -2.333,2.333 h -79.334 c -1.288,0 -2.333,-1.045 -2.333,-2.333 z"
         stroke="#454545"
         stroke-width="0.666667"
         stroke-miterlimit="8"
         fill="#f2f2f2"
         fill-rule="evenodd"
         id="path29" />
      <text
         fill="#454545"
         font-family="'Calibri Light', 'Calibri Light_MSFontService', sans-serif"
         font-weight="300"
         font-size="12px"
         transform="translate(432.794,277)"
         id="text29">assign &amp; position</text>
      <path
         d="m 384.5,247.667 c 0,-2.301 1.866,-4.167 4.167,-4.167 h 58.666 c 2.302,0 4.167,1.866 4.167,4.167 v 16.666 c 0,2.302 -1.865,4.167 -4.167,4.167 h -58.666 c -2.301,0 -4.167,-1.865 -4.167,-4.167 z"
         stroke="#000000"
         stroke-width="0.666667"
         stroke-miterlimit="8"
         fill="#ffffff"
         fill-rule="evenodd"
         id="path30" />
      <text
         font-family="'Calibri Light', 'Calibri Light_MSFontService', sans-serif"
         font-weight="300"
         font-size="13px"
         id="text30"
         x="397.47"
         y="260.66666">Initialize</text>
      <path
         d="m 497.5,601 c 0,-1.381 1.119,-2.5 2.5,-2.5 h 48 c 1.381,0 2.5,1.119 2.5,2.5 v 10 c 0,1.381 -1.119,2.5 -2.5,2.5 h -48 c -1.381,0 -2.5,-1.119 -2.5,-2.5 z"
         stroke="#454545"
         stroke-width="0.666667"
         stroke-miterlimit="8"
         fill="#f2f2f2"
         fill-rule="evenodd"
         id="path31" />
      <text
         fill="#454545"
         font-family="'Calibri Light', 'Calibri Light_MSFontService', sans-serif"
         font-weight="300"
         font-size="12px"
         transform="translate(500.044,609)"
         id="text31">first write</text>
      <path
         d="m 588.5,251.5 c 0,-2.209 1.791,-4 4,-4 h 59 c 2.209,0 4,1.791 4,4 v 16 c 0,2.209 -1.791,4 -4,4 h -59 c -2.209,0 -4,-1.791 -4,-4 z"
         stroke="#000000"
         stroke-width="0.666667"
         stroke-miterlimit="8"
         fill="#ffffff"
         fill-rule="evenodd"
         id="path32" />
      <text
         font-family="'Calibri Light', 'Calibri Light_MSFontService', sans-serif"
         font-weight="300"
         font-size="13px"
         id="text32"
         x="599.216"
         y="263">Reassign</text>
      <path
         d="m 655.5,733.667 c 0,-2.301 1.866,-4.167 4.167,-4.167 h 58.666 c 2.302,0 4.167,1.866 4.167,4.167 v 16.666 c 0,2.302 -1.865,4.167 -4.167,4.167 h -58.666 c -2.301,0 -4.167,-1.865 -4.167,-4.167 z"
         stroke="#000000"
         stroke-width="0.666667"
         stroke-miterlimit="8"
         fill="#ffffff"
         fill-rule="evenodd"
         id="path33" />
      <text
         font-family="'Calibri Light', 'Calibri Light_MSFontService', sans-serif"
         font-weight="300"
         font-size="13px"
         id="text33"
         x="669.96002"
         y="746.16669">Reduce</text>
      <path
         d="m 525.5,479.667 c 0,-2.301 1.866,-4.167 4.167,-4.167 h 95.666 c 2.302,0 4.167,1.866 4.167,4.167 v 16.666 c 0,2.302 -1.865,4.167 -4.167,4.167 h -95.666 c -2.301,0 -4.167,-1.865 -4.167,-4.167 z"
         stroke="#000000"
         stroke-width="0.666667"
         stroke-miterlimit="8"
         fill="#ffffff"
         fill-rule="evenodd"
         id="path34" />
      <text
         font-family="'Calibri Light', 'Calibri Light_MSFontService', sans-serif"
         font-weight="300"
         font-size="13px"
         id="text34"
         x="530.38702"
         y="491">Reallocate</text>
      <text
         font-family="'Calibri Light', 'Calibri Light_MSFontService', sans-serif"
         font-weight="300"
         font-size="13px"
         transform="translate(584.553,491)"
         id="text35">-</text>
      <text
         font-family="'Calibri Light', 'Calibri Light_MSFontService', sans-serif"
         font-weight="300"
         font-size="13px"
         transform="translate(588.553,491)"
         id="text36">Extend</text>
      <path
         d="m 514.5,307.833 c 0,-1.288 1.045,-2.333 2.333,-2.333 h 48.334 c 1.288,0 2.333,1.045 2.333,2.333 v 9.334 c 0,1.288 -1.045,2.333 -2.333,2.333 h -48.334 c -1.288,0 -2.333,-1.045 -2.333,-2.333 z"
         stroke="#454545"
         stroke-width="0.666667"
         stroke-miterlimit="8"
         fill="#f2f2f2"
         fill-rule="evenodd"
         id="path36" />
      <text
         fill="#454545"
         font-family="'Calibri Light', 'Calibri Light_MSFontService', sans-serif"
         font-weight="300"
         font-size="12px"
         transform="translate(515.989,316)"
         id="text37">++,</text>
      <text
         fill="#454545"
         font-family="'Calibri Light', 'Calibri Light_MSFontService', sans-serif"
         font-weight="300"
         font-size="12px"
         transform="translate(533.655,316)"
         id="text38">--</text>
      <text
         fill="#454545"
         font-family="'Calibri Light', 'Calibri Light_MSFontService', sans-serif"
         font-weight="300"
         font-size="12px"
         transform="translate(540.989,316)"
         id="text39">, etc.</text>
      <path
         d="m 532.5,284.667 c 0,-2.301 1.866,-4.167 4.167,-4.167 h 59.666 c 2.302,0 4.167,1.866 4.167,4.167 v 16.666 c 0,2.302 -1.865,4.167 -4.167,4.167 h -59.666 c -2.301,0 -4.167,-1.865 -4.167,-4.167 z"
         stroke="#000000"
         stroke-width="0.666667"
         stroke-miterlimit="8"
         fill="#ffffff"
         fill-rule="evenodd"
         id="path39" />
      <text
         font-family="'Calibri Light', 'Calibri Light_MSFontService', sans-serif"
         font-weight="300"
         font-size="13px"
         id="text40"
         x="538.35101"
         y="296.83334">Reposition</text>
      <path
         d="m 711.5,618.833 c 0,-1.288 1.045,-2.333 2.333,-2.333 h 47.334 c 1.288,0 2.333,1.045 2.333,2.333 v 9.334 c 0,1.288 -1.045,2.333 -2.333,2.333 h -47.334 c -1.288,0 -2.333,-1.045 -2.333,-2.333 z"
         stroke="#454545"
         stroke-width="0.666667"
         stroke-miterlimit="8"
         fill="#f2f2f2"
         fill-rule="evenodd"
         id="path40" />
      <text
         fill="#454545"
         font-family="'Calibri Light', 'Calibri Light_MSFontService', sans-serif"
         font-weight="300"
         font-size="13px"
         transform="translate(712.286,627)"
         id="text41">last write</text>
      <path
         d="m 655.5,597.667 c 0,-2.301 1.866,-4.167 4.167,-4.167 h 58.666 c 2.302,0 4.167,1.866 4.167,4.167 v 16.666 c 0,2.302 -1.865,4.167 -4.167,4.167 h -58.666 c -2.301,0 -4.167,-1.865 -4.167,-4.167 z"
         stroke="#000000"
         stroke-width="0.666667"
         stroke-miterlimit="8"
         fill="#ffffff"
         fill-rule="evenodd"
         id="path41" />
      <text
         font-family="'Calibri Light', 'Calibri Light_MSFontService', sans-serif"
         font-weight="300"
         font-size="13px"
         id="text42"
         x="676.35236"
         y="610.16669">Clear</text>
      <path
         d="M 0.00487856,-0.333298 26.104,0.0487224 52.0036,1.16247 l 25.4911,1.79662 24.8783,2.43074 24.063,3.01612 23.042,3.55285 21.817,4.0406 10.387,2.1885 10.004,2.292 9.596,2.3898 9.163,2.4815 8.704,2.5672 8.221,2.6469 7.711,2.7206 7.176,2.7884 6.616,2.8505 6.032,2.9069 5.421,2.9579 4.787,3.0036 4.126,3.0451 3.442,3.0826 2.731,3.1178 1.992,3.1512 0.41,1.0676 -0.623,0.2388 -0.398,-1.0368 0.03,0.0587 -1.961,-3.1013 0.031,0.0415 -2.7,-3.083 0.028,0.0286 -3.415,-3.0586 0.025,0.0199 -4.104,-3.0282 0.021,0.0142 -4.768,-2.9917 0.018,0.0103 -5.405,-2.9489 0.015,0.0076 -6.018,-2.9001 0.013,0.0058 -6.604,-2.8453 0.011,0.0046 -7.166,-2.7844 0.01,0.0036 -7.702,-2.7173 0.009,0.0029 -8.212,-2.6442 0.008,0.0025 -8.697,-2.565 0.007,0.002 -9.156,-2.4796 0.007,0.0017 -9.59,-2.3882 0.006,0.0014 -9.998,-2.2906 0.006,0.0012 -10.381,-2.1871 0.008,0.0016 -21.808,-4.0389 0.01,0.0017 -23.032,-3.55135 0.009,0.00131 -24.053,-3.01498 0.009,0.00101 -24.8696,-2.42986 0.0089,7.6e-4 -25.482,-1.79598 0.0091,5.1e-4 L 26.0801,0.714976 26.0896,0.715249 -0.00487856,0.333298 Z M 277.502,61.3769 l 3.297,-3.499 -2.095,8.6953 -5.699,-6.8936 z"
         fill="#0000ff"
         transform="matrix(0,1,1,0,318.5,175.5)"
         id="path42" />
      <path
         d="m 298.5,789.5 c -4.694,0 -8.5,-9.003 -8.5,-20.109 V 635.978 c 0,-11.106 -3.806,-20.109 -8.5,-20.109 4.694,0 8.5,-9.003 8.5,-20.109 V 461.609 c 0,-11.106 3.806,-20.109 8.5,-20.109"
         stroke="#454545"
         stroke-width="0.666667"
         stroke-miterlimit="8"
         fill="none"
         fill-rule="evenodd"
         id="path43" />
      <path
         d="m 402.833,268.5 v 2.667 h -0.666 V 268.5 Z m 0,4.667 v 2.666 h -0.666 v -2.666 z m 0,4.666 v 2.667 h -0.666 v -2.667 z m 0,4.667 v 2.667 h -0.666 V 282.5 Z m 0,4.667 v 2.666 h -0.666 v -2.666 z m 0,4.666 v 2.667 h -0.666 v -2.667 z m 0,4.667 v 2.667 h -0.666 V 296.5 Z m 0,4.667 v 2.666 h -0.666 v -2.666 z m 0,4.666 v 2.667 h -0.666 v -2.667 z m 0,4.667 v 2.667 h -0.666 V 310.5 Z m 0,4.667 v 2.666 h -0.666 v -2.666 z m 0,4.666 v 2.667 h -0.666 v -2.667 z m 0,4.667 v 2.667 h -0.666 V 324.5 Z m 0,4.667 v 2.666 h -0.666 v -2.666 z m 0,4.666 v 2.667 h -0.666 v -2.667 z m 0,4.667 v 2.667 h -0.666 V 338.5 Z m 0,4.667 v 2.666 h -0.666 v -2.666 z m 0,4.666 v 2.667 h -0.666 v -2.667 z m 0,4.667 v 2.667 h -0.666 V 352.5 Z m 0,4.667 v 2.666 h -0.666 v -2.666 z m 0,4.666 v 2.667 h -0.666 v -2.667 z m 0,4.667 v 2.667 h -0.666 V 366.5 Z m 0,4.667 v 2.666 h -0.666 v -2.666 z m 0,4.666 v 2.667 h -0.666 v -2.667 z m 0,4.667 v 2.667 h -0.666 V 380.5 Z m 0,4.667 v 2.666 h -0.666 v -2.666 z m 0,4.666 v 2.667 h -0.666 v -2.667 z m 0,4.667 v 2.667 h -0.666 V 394.5 Z m 0,4.667 v 2.666 h -0.666 v -2.666 z m 0,4.666 v 2.667 h -0.666 v -2.667 z m 0,4.667 v 2.667 h -0.666 V 408.5 Z m 0,4.667 v 2.666 h -0.666 v -2.666 z m 0,4.666 v 2.667 h -0.666 v -2.667 z m 0,4.667 v 2.667 h -0.666 V 422.5 Z m 0,4.667 v 2.666 h -0.666 v -2.666 z m 0,4.666 v 2.667 h -0.666 v -2.667 z m -0.333,4.559 4,-2.666 -4,8 -4,-8 z"
         fill="#008080"
         id="path44" />
      <path
         d="m 591.5,587.667 c 0,-2.301 1.866,-4.167 4.167,-4.167 h 59.666 c 2.302,0 4.167,1.866 4.167,4.167 v 16.666 c 0,2.302 -1.865,4.167 -4.167,4.167 h -59.666 c -2.301,0 -4.167,-1.865 -4.167,-4.167 z"
         stroke="#000000"
         stroke-width="0.666667"
         stroke-miterlimit="8"
         fill="#ffffff"
         fill-rule="evenodd"
         id="path45" />
      <text
         font-family="'Calibri Light', 'Calibri Light_MSFontService', sans-serif"
         font-weight="300"
         font-size="13px"
         id="text45"
         x="611.97968"
         y="600.16669">Write</text>
      <path
         d="m 528.5,578.667 c 0,-2.301 1.866,-4.167 4.167,-4.167 h 59.666 c 2.302,0 4.167,1.866 4.167,4.167 v 16.666 c 0,2.302 -1.865,4.167 -4.167,4.167 h -59.666 c -2.301,0 -4.167,-1.865 -4.167,-4.167 z"
         stroke="#000000"
         stroke-width="0.666667"
         stroke-miterlimit="8"
         fill="#ffffff"
         fill-rule="evenodd"
         id="path46" />
      <text
         font-family="'Calibri Light', 'Calibri Light_MSFontService', sans-serif"
         font-weight="300"
         font-size="13px"
         id="text46"
         x="541.01434"
         y="591.5">Initialize</text>
      <text
         font-family="'Calibri Light', 'Calibri Light_MSFontService', sans-serif"
         font-weight="300"
         font-size="13px"
         transform="translate(247.751,435)"
         id="text47">Upper</text>
      <text
         font-family="'Calibri Light', 'Calibri Light_MSFontService', sans-serif"
         font-weight="300"
         font-size="13px"
         transform="translate(247.084,451)"
         id="text48">B</text>
      <text
         font-family="'Calibri Light', 'Calibri Light_MSFontService', sans-serif"
         font-weight="300"
         font-size="13px"
         transform="translate(254.251,451)"
         id="text49">ound</text>
      <text
         font-family="'Calibri Light', 'Calibri Light_MSFontService', sans-serif"
         font-weight="300"
         font-size="13px"
         transform="translate(249.147,782)"
         id="text50">L</text>
      <text
         font-family="'Calibri Light', 'Calibri Light_MSFontService', sans-serif"
         font-weight="300"
         font-size="13px"
         transform="translate(254.813,782)"
         id="text51">ower</text>
      <text
         font-family="'Calibri Light', 'Calibri Light_MSFontService', sans-serif"
         font-weight="300"
         font-size="13px"
         transform="translate(248.227,798)"
         id="text52">B</text>
      <text
         font-family="'Calibri Light', 'Calibri Light_MSFontService', sans-serif"
         font-weight="300"
         font-size="13px"
         transform="translate(255.393,798)"
         id="text53">ound</text>
      <path
         d="M 0.333892,5.33321 0.351496,173.357 -0.315171,173.358 -0.332775,5.33328 Z M 5.58774e-4,5.33333 -3.99916,8.00042 0,0 4.00084,7.99958 Z"
         fill="#0000ff"
         transform="matrix(-1,0,0,1,418.518,268.5)"
         id="path53" />
      <path
         d="M 0.005859,-0.333282 18.1328,-0.0146151 36.1293,0.914657 53.8417,2.41381 71.1286,4.44216 87.8483,6.95904 103.859,9.92383 119.02,13.296 l 14.169,3.7389 13.037,4.0654 11.762,4.3517 5.364,2.2728 4.989,2.328 4.6,2.3799 4.194,2.4272 3.771,2.4701 3.329,2.5085 2.871,2.5432 2.396,2.5745 1.901,2.6027 c 0.009,0.0131 0.018,0.0269 0.026,0.0412 l 1.361,2.5875 c 0.009,0.0172 0.017,0.0352 0.023,0.0538 l 0.83,2.5977 c 0.007,0.0213 0.012,0.0434 0.014,0.0657 l 0.281,2.6027 0.644,5.1951 -0.018,-0.0731 1.881,5.1597 -0.027,-0.0568 3.034,5.0783 -0.03,-0.0416 4.104,4.9562 5.065,4.7635 5.972,4.5681 6.799,4.3297 7.542,4.0488 8.202,3.726 8.78,3.3616 9.275,2.957 9.687,2.51 10.016,2.024 10.263,1.495 10.428,0.927 5.178,0.156 -0.021,0.666 -5.216,-0.158 -10.465,-0.931 -10.299,-1.502 -10.052,-2.031 -9.722,-2.521 -9.31,-2.969 -8.818,-3.3776 -8.242,-3.7457 -7.584,-4.0738 -6.846,-4.3625 -6.024,-4.6122 -5.121,-4.8237 -4.104,-4.9562 c -0.011,-0.0132 -0.021,-0.0271 -0.03,-0.0417 l -3.033,-5.0783 c -0.011,-0.0181 -0.02,-0.0371 -0.027,-0.0568 l -1.881,-5.1597 c -0.008,-0.0237 -0.014,-0.0482 -0.017,-0.0731 l -0.646,-5.2057 -0.281,-2.6027 0.014,0.0657 -0.83,-2.5977 0.022,0.0538 -1.361,-2.5875 0.025,0.0412 -1.851,-2.5417 -2.349,-2.5294 -2.83,-2.5098 -3.294,-2.4833 -3.739,-2.4507 -4.166,-2.4121 -4.576,-2.3679 -4.967,-2.3182 -5.335,-2.2614 -11.73,-4.3405 L 133.019,17.6795 118.875,13.9467 103.738,10.5794 87.7491,7.61828 71.0509,5.10429 53.7855,3.07811 36.0949,1.58044 18.1211,0.651949 -0.005859,0.333282 Z M 300.722,110.925 l -2.544,-4.079 7.875,4.24 -8.117,3.756 z"
         fill="#0000ff"
         transform="matrix(0,1,1,0,423.5,268.5)"
         id="path54" />
      <text
         font-family="'Calibri Light', 'Calibri Light_MSFontService', sans-serif"
         font-weight="300"
         font-size="13px"
         transform="translate(391.459,848)"
         id="text54">C</text>
      <text
         font-family="'Calibri Light', 'Calibri Light_MSFontService', sans-serif"
         font-weight="300"
         font-size="13px"
         transform="translate(398.625,848)"
         id="text55">reate</text>
      <text
         font-family="'Calibri Light', 'Calibri Light_MSFontService', sans-serif"
         font-weight="300"
         font-size="13px"
         transform="translate(391.459,864)"
         id="text56">Object</text>
      <text
         font-family="'Calibri Light', 'Calibri Light_MSFontService', sans-serif"
         font-weight="300"
         font-size="13px"
         transform="translate(604,864)"
         id="text57">Object</text>
      <text
         font-family="'Calibri Light', 'Calibri Light_MSFontService', sans-serif"
         font-weight="300"
         font-size="13px"
         transform="translate(642.333,864)"
         id="text58">I</text>
      <text
         font-family="'Calibri Light', 'Calibri Light_MSFontService', sans-serif"
         font-weight="300"
         font-size="13px"
         transform="translate(645.667,864)"
         id="text59">n</text>
      <text
         font-family="'Calibri Light', 'Calibri Light_MSFontService', sans-serif"
         font-weight="300"
         font-size="13px"
         transform="translate(655.667,864)"
         id="text60">U</text>
      <text
         font-family="'Calibri Light', 'Calibri Light_MSFontService', sans-serif"
         font-weight="300"
         font-size="13px"
         transform="translate(664.167,864)"
         id="text61">se</text>
      <text
         font-family="'Calibri Light', 'Calibri Light_MSFontService', sans-serif"
         font-weight="300"
         font-size="13px"
         transform="translate(837.678,848)"
         id="text62">D</text>
      <text
         font-family="'Calibri Light', 'Calibri Light_MSFontService', sans-serif"
         font-weight="300"
         font-size="13px"
         transform="translate(845.845,848)"
         id="text63">estroy</text>
      <text
         font-family="'Calibri Light', 'Calibri Light_MSFontService', sans-serif"
         font-weight="300"
         font-size="13px"
         transform="translate(844.178,864)"
         id="text64">Object</text>
      <path
         d="m 777.5,831.5 c 0,5.247 -10.062,9.5 -22.475,9.5 h -101.24 c -12.412,0 -22.474,4.253 -22.474,9.5 0,-5.247 -10.063,-9.5 -22.475,-9.5 H 506.975 c -12.413,0 -22.475,-4.253 -22.475,-9.5"
         stroke="#454545"
         stroke-width="0.666667"
         stroke-miterlimit="8"
         fill="none"
         fill-rule="evenodd"
         id="path64" />
      <path
         d="m 675.5,764.667 c 0,-2.301 1.866,-4.167 4.167,-4.167 h 94.666 c 2.302,0 4.167,1.866 4.167,4.167 v 16.666 c 0,2.302 -1.865,4.167 -4.167,4.167 h -94.666 c -2.301,0 -4.167,-1.865 -4.167,-4.167 z"
         stroke="#000000"
         stroke-width="0.666667"
         stroke-miterlimit="8"
         fill="#ffffff"
         fill-rule="evenodd"
         id="path65" />
      <text
         font-family="'Calibri Light', 'Calibri Light_MSFontService', sans-serif"
         font-weight="300"
         font-size="13px"
         id="text65"
         x="678.448"
         y="776">Reallocate</text>
      <text
         font-family="'Calibri Light', 'Calibri Light_MSFontService', sans-serif"
         font-weight="300"
         font-size="13px"
         transform="translate(732.614,776)"
         id="text66">-</text>
      <text
         font-family="'Calibri Light', 'Calibri Light_MSFontService', sans-serif"
         font-weight="300"
         font-size="13px"
         transform="translate(736.614,776)"
         id="text67">Reduce</text>
      <text
         font-family="'Calibri Light', 'Calibri Light_MSFontService', sans-serif"
         font-weight="300"
         font-size="13px"
         transform="translate(237.547,608)"
         id="text68">Object</text>
      <text
         font-family="'Calibri Light', 'Calibri Light_MSFontService', sans-serif"
         font-weight="300"
         font-size="13px"
         transform="translate(244.801,624)"
         id="text69">Size</text>
      <text
         font-family="'Calibri Light', 'Calibri Light_MSFontService', sans-serif"
         font-weight="300"
         font-size="13px"
         transform="translate(554.77,130)"
         id="text70">Memory Bugs Model</text>
      <text
         font-family="'Calibri Light', 'Calibri Light_MSFontService', sans-serif"
         font-weight="300"
         font-size="13px"
         transform="rotate(72.821834,135.01247,827.33944)"
         id="text71">A</text>
      <text
         font-family="'Calibri Light', 'Calibri Light_MSFontService', sans-serif"
         font-weight="300"
         font-size="13px"
         transform="rotate(72.821834,131.37458,832.34102)"
         id="text72">ll</text>
      <text
         font-family="'Calibri Light', 'Calibri Light_MSFontService', sans-serif"
         font-weight="300"
         font-size="13px"
         transform="rotate(72.821834,127.28027,838.14291)"
         id="text73">O</text>
      <text
         font-family="'Calibri Light', 'Calibri Light_MSFontService', sans-serif"
         font-weight="300"
         font-size="13px"
         transform="rotate(72.821834,122.45906,844.37837)"
         id="text74">wners</text>
      <text
         font-family="'Calibri Light', 'Calibri Light_MSFontService', sans-serif"
         font-weight="300"
         font-size="13px"
         transform="rotate(-55.844369,797.56441,-399.0298)"
         id="text75">A</text>
      <text
         font-family="'Calibri Light', 'Calibri Light_MSFontService', sans-serif"
         font-weight="300"
         font-size="13px"
         transform="rotate(-55.844369,794.0092,-406.00267)"
         id="text76">ll</text>
      <text
         font-family="'Calibri Light', 'Calibri Light_MSFontService', sans-serif"
         font-weight="300"
         font-size="13px"
         transform="rotate(-55.844369,788.98808,-414.76993)"
         id="text77">O</text>
      <text
         font-family="'Calibri Light', 'Calibri Light_MSFontService', sans-serif"
         font-weight="300"
         font-size="13px"
         transform="rotate(-55.844369,784.81691,-422.86077)"
         id="text78">wners</text>
      <text
         fill="#7f7f7f"
         font-family="'Calibri Light', 'Calibri Light_MSFontService', sans-serif"
         font-weight="300"
         font-size="12px"
         transform="translate(312.59,820)"
         id="text79">BF, I. Bojanova</text>
      <path
         d="m 371.56,462.828 -2.247,0.413 0.099,-0.034 -2.23,1.205 0.063,-0.044 -2.195,1.945 0.038,-0.039 -2.142,2.631 -2.048,3.232 -1.969,3.819 -1.868,4.351 -1.748,4.83 -1.609,5.255 -1.452,5.625 -2.362,12.157 -1.52,12.997 -0.537,13.418 0.198,3.345 0.582,3.333 0.954,3.323 1.315,3.307 3.672,6.55 -0.028,-0.042 4.993,6.432 6.168,6.189 7.272,5.934 8.275,5.622 9.18,5.257 9.982,4.837 10.684,4.364 11.286,3.838 11.787,3.258 12.188,2.626 12.488,1.941 12.688,1.203 7.457,0.24 -0.022,0.666 -7.498,-0.242 -12.727,-1.208 -12.526,-1.948 -12.225,-2.635 -11.825,-3.27 -11.323,-3.852 -10.723,-4.381 -10.023,-4.859 -9.222,-5.284 -8.323,-5.657 -7.322,-5.979 -6.223,-6.252 -4.993,-6.431 c -0.01,-0.013 -0.019,-0.027 -0.027,-0.042 l -3.709,-6.629 -1.336,-3.369 -0.971,-3.393 -0.591,-3.408 -0.198,-3.411 0.541,-13.469 1.527,-13.046 2.372,-12.197 1.46,-5.654 1.62,-5.286 1.762,-4.866 1.888,-4.394 1.998,-3.87 2.094,-3.296 2.142,-2.631 c 0.011,-0.014 0.024,-0.027 0.037,-0.039 l 2.194,-1.945 c 0.02,-0.016 0.04,-0.031 0.063,-0.043 l 2.229,-1.206 c 0.031,-0.016 0.064,-0.028 0.099,-0.034 l 2.247,-0.414 z m 107.403,143.651 -2.536,-4.084 7.866,4.256 -8.124,3.74 z"
         id="path79" />
      <path
         d="m 484.563,607.827 -2.247,0.432 0.101,-0.037 -2.23,1.257 0.063,-0.046 -2.195,2.028 0.037,-0.039 -2.142,2.744 -2.049,3.372 -1.97,3.985 -1.868,4.54 -1.749,5.039 -1.609,5.482 -1.452,5.868 -2.363,12.682 -1.52,13.558 -0.538,13.997 0.262,3.486 -0.007,-0.048 0.777,3.516 1.262,3.46 1.74,3.446 2.202,3.423 2.649,3.395 3.081,3.358 3.497,3.313 3.896,3.262 4.278,3.202 9.643,6.199 10.966,5.869 12.163,5.486 13.227,5.049 14.156,4.555 14.954,4.006 15.617,3.401 16.148,2.741 16.546,2.025 16.811,1.256 11.612,0.295 -0.017,0.667 -11.645,-0.297 -16.842,-1.259 -16.576,-2.03 -16.179,-2.747 -15.648,-3.408 -14.985,-4.015 -14.19,-4.567 -13.263,-5.064 -12.203,-5.507 -11.013,-5.896 -9.682,-6.226 -4.306,-3.224 -3.927,-3.289 -3.529,-3.346 -3.115,-3.399 -2.685,-3.444 -2.237,-3.484 -1.77,-3.518 -1.287,-3.544 -0.777,-3.516 c -0.003,-0.015 -0.005,-0.031 -0.006,-0.047 l -0.264,-3.56 0.541,-14.047 1.527,-13.605 2.372,-12.72 1.459,-5.896 1.62,-5.513 1.761,-5.074 1.888,-4.581 1.997,-4.036 2.093,-3.437 2.142,-2.743 c 0.011,-0.015 0.023,-0.028 0.037,-0.04 l 2.194,-2.028 c 0.019,-0.018 0.04,-0.033 0.063,-0.046 l 2.229,-1.257 c 0.032,-0.018 0.066,-0.03 0.101,-0.037 l 2.247,-0.431 z m 151.74,149.89 -2.564,-4.066 7.896,4.202 -8.099,3.795 z"
         id="path80" />
      <path
         d="M 3.93263,3.7808 4.90086,6.05831 4.96982,6.26641 4.33699,6.47611 4.27233,6.28099 4.28198,6.30655 3.3191,4.04162 Z M 5.59892,8.16489 5.80863,8.79772 5.1758,9.00742 4.9661,8.37459 Z M 6.3646,10.7379 7.02376,13.1848 7.05587,13.328 6.40536,13.4739 6.3748,13.3376 6.3782,13.3514 5.72088,10.9113 Z M 7.49354,15.2795 7.63943,15.93 6.98892,16.0759 6.84303,15.4254 Z M 8.0682,17.8949 8.56353,20.5151 7.90846,20.639 7.41314,18.0187 Z m 0.86608,4.5951 0.10529,0.6583 -0.6583,0.1053 -0.10529,-0.6583 z m 0.42119,2.6332 0.40658,2.5419 0.01345,0.0998 -0.66069,0.089 -0.0129,-0.0957 0.00119,0.0081 -0.40593,-2.5378 z m 0.68723,4.6237 0.0891,0.6607 -0.66068,0.0891 -0.08907,-0.6607 z m 0.3563,2.6428 0.1225,0.9083 0.1779,1.7521 -0.6633,0.0673 -0.1773,-1.7466 0.00129,0.0108 -0.12174,-0.9028 z m 0.5024,4.6501 0.0673,0.6633 -0.6632,0.0673 -0.0674,-0.6632 z m 0.2693,2.6531 0.2693,2.653 -0.6632,0.0673 -0.2693,-2.653 z m 0.4713,4.6428 0.0674,0.6632 -0.6633,0.0674 -0.0673,-0.6633 z m 0.2084,2.6714 0.1626,2.6617 -0.6654,0.0406 -0.1627,-2.6617 z m 0.2846,4.658 0.0406,0.6654 -0.6654,0.0407 -0.0407,-0.6655 z m 0.1626,2.6617 0.1626,2.6617 -0.6654,0.0406 -0.1627,-2.6617 z m 0.2633,4.6722 0.014,0.6665 -0.6665,0.014 -0.014,-0.6665 z m 0.0559,2.6661 0.0558,2.6661 -0.6665,0.0139 -0.0558,-2.6661 z m 0.0977,4.6656 0.0139,0.6665 -0.6665,0.014 -0.0139,-0.6665 z m 0.0558,2.6661 0.0558,2.6661 -0.6665,0.0139 -0.0558,-2.666 z m 0.0977,4.6657 0.014,0.6665 -0.6666,0.0139 -0.0139,-0.6665 z m 0.0558,2.666 0.0558,2.6661 -0.6665,0.014 -0.0558,-2.6661 z m 0.0977,4.6657 0.014,0.6665 -0.6665,0.014 -0.014,-0.6666 z m 0.0558,2.6661 0.0337,1.6055 -6e-4,-0.0133 0.0647,1.0587 -0.6654,0.0407 -0.0651,-1.0654 -0.0338,-1.6123 z m 0.2198,4.6472 0.0406,0.6654 -0.6654,0.0407 -0.0407,-0.6654 z m 0.1626,2.6617 0.1626,2.6617 -0.6654,0.0407 -0.1626,-2.6617 z m 0.2846,4.658 0.0406,0.6654 -0.6654,0.0407 -0.0407,-0.6654 z m 0.1636,2.6482 0.2693,2.6526 -0.6632,0.068 -0.2693,-2.6533 z m 0.4713,4.6426 0.0674,0.663 -0.6633,0.068 -0.0673,-0.663 z m 0.2694,2.653 0.2693,2.653 -0.6632,0.068 -0.2694,-2.653 z m 0.4713,4.643 0.0153,0.151 -0.0013,-0.011 0.0689,0.51 -0.6607,0.09 -0.0696,-0.516 -0.0158,-0.157 z m 0.3501,2.633 0.3563,2.642 -0.6607,0.089 -0.3563,-2.642 z m 0.659,4.611 0.1053,0.658 -0.6583,0.105 -0.1053,-0.658 z m 0.4212,2.633 0.1813,1.133 -0.0016,-0.009 0.2821,1.493 -0.655,0.123 -0.2831,-1.497 -0.182,-1.138 z m 0.8333,4.582 0.1238,0.655 -0.655,0.124 -0.1239,-0.655 z m 0.535,2.6 0.5835,2.602 -0.6505,0.146 -0.5836,-2.602 z m 1.0782,4.525 0.1735,0.644 -0.6438,0.173 -0.1734,-0.643 z m 0.697,2.554 0.8388,2.532 -0.6328,0.209 -0.8388,-2.531 z m 1.5655,4.364 0.2608,0.614 -0.6135,0.26 -0.2608,-0.613 z M 3.62586,3.91121 2.50539,8.58621 0,0 8.3722,3.14741 Z M 21.3682,139.824 l 1.1204,-4.675 2.5054,8.587 -8.3722,-3.148 z"
         fill="#920000"
         transform="matrix(0,-1,-1,0,775.236,696.494)"
         id="path81" />
      <path
         d="m 432.5,466.833 c 0,-1.288 1.045,-2.333 2.333,-2.333 h 24.334 c 1.288,0 2.333,1.045 2.333,2.333 v 9.334 c 0,1.288 -1.045,2.333 -2.333,2.333 h -24.334 c -1.288,0 -2.333,-1.045 -2.333,-2.333 z"
         stroke="#454545"
         stroke-width="0.666667"
         stroke-miterlimit="8"
         fill="#f2f2f2"
         fill-rule="evenodd"
         id="path82" />
      <text
         fill="#454545"
         font-family="'Calibri Light', 'Calibri Light_MSFontService', sans-serif"
         font-weight="300"
         font-size="12px"
         transform="translate(434.564,475)"
         id="text82">once</text>
      <path
         d="m 384.5,446.667 c 0,-2.301 1.866,-4.167 4.167,-4.167 h 58.666 c 2.302,0 4.167,1.866 4.167,4.167 v 16.666 c 0,2.302 -1.865,4.167 -4.167,4.167 h -58.666 c -2.301,0 -4.167,-1.865 -4.167,-4.167 z"
         stroke="#000000"
         stroke-width="0.666667"
         stroke-miterlimit="8"
         fill="#ffffff"
         fill-rule="evenodd"
         id="path83" />
      <text
         font-family="'Calibri Light', 'Calibri Light_MSFontService', sans-serif"
         font-weight="300"
         font-size="13px"
         id="text83"
         x="397.28467"
         y="459">Allocate</text>
      <path
         d="m 867.5,790 c 0,-1.381 1.119,-2.5 2.5,-2.5 h 23 c 1.381,0 2.5,1.119 2.5,2.5 v 10 c 0,1.381 -1.119,2.5 -2.5,2.5 h -23 c -1.381,0 -2.5,-1.119 -2.5,-2.5 z"
         stroke="#454545"
         stroke-width="0.666667"
         stroke-miterlimit="8"
         fill="#f2f2f2"
         fill-rule="evenodd"
         id="path84" />
      <text
         fill="#454545"
         font-family="'Calibri Light', 'Calibri Light_MSFontService', sans-serif"
         font-weight="300"
         font-size="12px"
         transform="translate(869.17,798)"
         id="text84">once</text>
      <path
         d="m 819.5,768.667 c 0,-2.301 1.866,-4.167 4.167,-4.167 h 58.666 c 2.302,0 4.167,1.866 4.167,4.167 v 16.666 c 0,2.302 -1.865,4.167 -4.167,4.167 h -58.666 c -2.301,0 -4.167,-1.865 -4.167,-4.167 z"
         stroke="#000000"
         stroke-width="0.666667"
         stroke-miterlimit="8"
         fill="#ffffff"
         fill-rule="evenodd"
         id="path85" />
      <text
         font-family="'Calibri Light', 'Calibri Light_MSFontService', sans-serif"
         font-weight="300"
         font-size="13px"
         id="text85"
         x="824.53168"
         y="781.5">Deallocate</text>
      <path
         d="m 536.5,354.833 c 0,-1.288 1.045,-2.333 2.333,-2.333 h 114.334 c 1.288,0 2.333,1.045 2.333,2.333 v 9.334 c 0,1.288 -1.045,2.333 -2.333,2.333 H 538.833 c -1.288,0 -2.333,-1.045 -2.333,-2.333 z"
         stroke="#454545"
         stroke-width="0.666667"
         stroke-miterlimit="8"
         fill="#f2f2f2"
         fill-rule="evenodd"
         id="path86" />
      <text
         fill="#454545"
         font-family="'Calibri Light', 'Calibri Light_MSFontService', sans-serif"
         font-weight="300"
         font-size="12px"
         transform="translate(537.705,363)"
         id="text86">after object is initialized</text>
      <path
         d="m 555.5,333.667 c 0,-2.301 1.866,-4.167 4.167,-4.167 h 76.666 c 2.302,0 4.167,1.866 4.167,4.167 v 16.666 c 0,2.302 -1.865,4.167 -4.167,4.167 h -76.666 c -2.301,0 -4.167,-1.865 -4.167,-4.167 z"
         stroke="#000000"
         stroke-width="0.666667"
         stroke-miterlimit="8"
         fill="#ffffff"
         fill-rule="evenodd"
         id="path87" />
      <text
         font-family="'Calibri Light', 'Calibri Light_MSFontService', sans-serif"
         font-weight="300"
         font-size="13px"
         id="text87"
         x="565.50336"
         y="346.16666">Dereference</text>
      <path
         d="m 781.738,603.768 0.223,-0.305 -0.02,0.031 1.103,-1.922 -0.013,0.024 1.092,-2.31 -0.011,0.026 2.142,-5.725 -0.008,0.024 2.071,-7.103 -0.004,0.016 1.984,-8.366 -0.003,0.012 1.878,-9.516 -0.002,0.01 1.755,-10.549 -10e-4,0.008 1.614,-11.468 -10e-4,0.007 1.456,-12.272 -0.001,0.006 1.28,-12.961 v 0.006 l 1.087,-13.536 -0.001,0.006 0.876,-13.996 v 0.006 l 0.648,-14.34 -10e-4,0.009 0.539,-29.255 0.001,0.02 -0.292,-7.35 0.002,0.026 -0.863,-7.335 0.004,0.024 -1.416,-7.306 0.005,0.023 -1.95,-7.264 0.007,0.022 -2.466,-7.206 0.007,0.02 -2.963,-7.134 0.008,0.018 -3.442,-7.048 0.009,0.017 -3.903,-6.948 0.009,0.016 -4.345,-6.833 0.009,0.015 -4.769,-6.704 0.01,0.014 -5.174,-6.56 0.01,0.012 -5.561,-6.402 0.015,0.017 -12.21,-12.273 0.021,0.02 -13.537,-11.469 0.022,0.017 -14.716,-10.549 0.022,0.014 -15.748,-9.515 0.023,0.012 -16.632,-8.367 0.024,0.011 -17.369,-7.103 0.025,0.009 -17.959,-5.724 0.02,0.005 -9.154,-2.309 0.013,0.003 -9.246,-1.922 0.014,0.003 -9.32,-1.52 0.015,0.002 -9.376,-1.103 0.015,0.001 -9.412,-0.672 0.016,10e-4 -4.099,-0.099 0.016,-0.667 4.107,0.099 9.428,0.674 9.39,1.105 9.334,1.522 9.261,1.925 9.171,2.313 17.981,5.732 17.393,7.113 16.655,8.378 15.77,9.529 14.737,10.565 13.558,11.486 12.227,12.29 5.574,6.417 5.185,6.572 4.779,6.717 4.355,6.848 3.912,6.964 3.451,7.065 2.971,7.154 2.473,7.227 1.956,7.285 1.421,7.33 0.865,7.361 0.293,7.372 -0.539,29.269 -0.648,14.347 -0.876,14.001 -1.088,13.542 -1.281,12.968 -1.457,12.279 -1.615,11.476 -1.756,10.559 -1.88,9.526 -1.987,8.381 -2.077,7.123 -2.151,5.75 -1.103,2.334 -1.119,1.949 -0.234,0.32 z m 0.269,0.197 4.54,1.581 -8.793,1.637 3.967,-8.017 z m -176.175,-310.336 2.569,4.063 -7.901,-4.192 8.094,-3.806 z"
         id="path88" />
      <path
         d="m 779.598,602.251 0.702,-2.102 -0.008,0.028 1.166,-4.842 -0.004,0.016 1.127,-6.007 -10e-4,0.011 1.079,-7.077 -10e-4,0.008 1.022,-8.048 -10e-4,0.007 0.956,-8.923 -10e-4,0.006 0.879,-9.7 -0.001,0.005 0.793,-10.38 v 0.004 l 0.696,-10.963 v 0.004 l 0.592,-11.449 v 0.004 l 0.476,-11.838 v 0.004 l 0.353,-12.129 v 0.006 l 0.293,-24.743 v 0.015 l -0.217,-6.216 0.002,0.023 -0.641,-6.205 0.003,0.022 -1.052,-6.18 0.004,0.021 -1.449,-6.143 0.005,0.019 -1.832,-6.095 0.006,0.018 -2.202,-6.034 0.01,0.026 -5.458,-11.838 0.016,0.03 -6.773,-11.448 0.017,0.026 -7.977,-10.963 0.018,0.023 -9.073,-10.38 0.02,0.021 -10.059,-9.7 0.021,0.019 -10.935,-8.923 0.021,0.016 -11.701,-8.048 0.023,0.015 -12.359,-7.077 0.025,0.013 -12.906,-6.008 0.027,0.012 -13.345,-4.842 0.029,0.009 -13.673,-3.579 0.032,0.007 -13.893,-2.219 0.026,0.003 -6.994,-0.568 0.018,0.001 -1.677,-0.046 0.019,-0.667 1.685,0.046 7.016,0.571 13.921,2.223 13.704,3.587 13.373,4.852 12.932,6.02 12.383,7.09 11.725,8.064 10.956,8.94 10.079,9.719 9.092,10.402 7.996,10.988 6.789,11.477 5.471,11.865 2.21,6.056 1.838,6.114 1.454,6.163 1.056,6.201 0.643,6.226 0.218,6.236 -0.294,24.754 -0.352,12.133 -0.477,11.842 -0.592,11.452 -0.697,10.967 -0.793,10.385 -0.879,9.705 -0.956,8.928 -1.023,8.056 -1.081,7.086 -1.13,6.022 -1.171,4.864 -0.706,2.115 z m 0.317,0.105 4.807,-0.031 -7.737,4.488 1.052,-8.882 z m -134.084,-260.71 2.556,4.072 -7.887,-4.218 8.107,-3.779 z"
         id="path89" />
    </g>
  </g>
</svg>
