<?xml version="1.0" encoding="UTF-8" standalone="no"?>
<!-- Created with Inkscape (http://www.inkscape.org/) -->

<svg
   width="186.17845mm"
   height="127.72071mm"
   viewBox="0 0 186.17844 127.72072"
   version="1.1"
   id="svg1"
   inkscape:version="1.3.2 (091e20e, 2023-11-25, custom)"
   sodipodi:docname="Cause-Consequence.svg"
   xmlns:inkscape="http://www.inkscape.org/namespaces/inkscape"
   xmlns:sodipodi="http://sodipodi.sourceforge.net/DTD/sodipodi-0.dtd"
   xmlns="http://www.w3.org/2000/svg"
   xmlns:svg="http://www.w3.org/2000/svg">
  <sodipodi:namedview
     id="namedview1"
     pagecolor="#ffffff"
     bordercolor="#000000"
     borderopacity="0.25"
     inkscape:showpageshadow="2"
     inkscape:pageopacity="0.0"
     inkscape:pagecheckerboard="0"
     inkscape:deskcolor="#d1d1d1"
     inkscape:document-units="mm"
     inkscape:zoom="1.0146815"
     inkscape:cx="351.83453"
     inkscape:cy="241.94783"
     inkscape:window-width="2560"
     inkscape:window-height="1377"
     inkscape:window-x="-8"
     inkscape:window-y="859"
     inkscape:window-maximized="1"
     inkscape:current-layer="layer1" />
  <defs
     id="defs1">
    <clipPath
       id="clip0">
      <rect
         x="177"
         y="234"
         width="943"
         height="407"
         id="rect1" />
    </clipPath>
    <clipPath
       id="clip0-0">
      <rect
         x="45"
         y="738"
         width="714"
         height="451"
         id="rect1-4" />
    </clipPath>
    <clipPath
       id="clip0-6">
      <rect
         x="158"
         y="966"
         width="714"
         height="497"
         id="rect1-6" />
    </clipPath>
  </defs>
  <g
     inkscape:label="Layer 1"
     inkscape:groupmode="layer"
     id="layer1"
     transform="translate(-12.125474,-84.645992)">
    <g
       clip-path="url(#clip0-6)"
       transform="matrix(0.26458333,0,0,0.26458333,-32.36863,-174.67461)"
       id="g76">
      <text
         fill="#003300"
         font-family="'Calibri Light', 'Calibri Light_MSFontService', sans-serif"
         font-weight="300"
         font-size="16px"
         transform="translate(391.224,1035)"
         id="text1">Consequence from State</text>
      <text
         fill="#003300"
         font-family="'Calibri Light', 'Calibri Light_MSFontService', sans-serif"
         font-weight="300"
         font-size="11px"
         transform="translate(548.871,1038)"
         id="text2">1</text>
      <text
         fill="#a50021"
         font-family="'Calibri Light', 'Calibri Light_MSFontService', sans-serif"
         font-weight="300"
         font-size="16px"
         transform="translate(421.764,1054)"
         id="text3">Cause for</text>
      <text
         fill="#a50021"
         font-family="'Calibri Light', 'Calibri Light_MSFontService', sans-serif"
         font-weight="300"
         font-size="16px"
         transform="translate(485.704,1054)"
         id="text4">State</text>
      <text
         fill="#a50021"
         font-family="'Calibri Light', 'Calibri Light_MSFontService', sans-serif"
         font-weight="300"
         font-size="11px"
         transform="translate(518.331,1057)"
         id="text5">2</text>
      <path
         d="m 703.5,1237.5 84,-134 84,134 z"
         stroke="#7d3368"
         stroke-width="0.666667"
         stroke-linejoin="round"
         stroke-miterlimit="10"
         fill="#dfdaea"
         fill-rule="evenodd"
         id="path5" />
      <text
         font-family="'Calibri Light', 'Calibri Light_MSFontService', sans-serif"
         font-weight="300"
         font-size="16px"
         transform="translate(765.193,1190)"
         id="text6">Failure</text>
      <text
         fill="#7f7f7f"
         font-family="'Calibri Light', 'Calibri Light_MSFontService', sans-serif"
         font-weight="300"
         font-size="13px"
         transform="translate(718.053,1262)"
         id="text7">BF, I. Bojanova</text>
      <text
         fill="#7f7f7f"
         font-family="'Calibri Light', 'Calibri Light_MSFontService', sans-serif"
         font-weight="300"
         font-size="13px"
         transform="translate(797.053,1262)"
         id="text8">, 2014</text>
      <text
         fill="#7f7f7f"
         font-family="'Calibri Light', 'Calibri Light_MSFontService', sans-serif"
         font-weight="300"
         font-size="13px"
         transform="translate(830.72,1262)"
         id="text9">-</text>
      <text
         fill="#7f7f7f"
         font-family="'Calibri Light', 'Calibri Light_MSFontService', sans-serif"
         font-weight="300"
         font-size="13px"
         transform="translate(834.72,1262)"
         id="text10">2023</text>
      <text
         fill="#660066"
         font-family="'Calibri Light', 'Calibri Light_MSFontService', sans-serif"
         font-weight="300"
         font-size="16px"
         transform="translate(623.156,1099)"
         id="text11">Exploitable Error</text>
      <path
         d="m 568.171,1105.76 0.632,-4.11 1.846,-4.07 3.038,-4.05 4.033,-3.91 4.967,-3.77 5.838,-3.58 6.709,-3.38 7.392,-3.2 8.018,-2.94 8.578,-2.63 9.016,-2.32 9.514,-1.94 9.764,-1.63 10.016,-1.12 10.202,-0.76 10.266,-0.25 10.265,0.25 10.201,0.69 10.015,1.07 9.764,1.5 9.514,1.88 9.015,2.19 8.577,2.5 8.079,2.76 7.331,3.01 6.708,3.26 5.838,3.39 4.966,3.58 4.033,3.65 3.056,3.82 0.432,1.38 -0.636,0.2 -0.413,-1.32 0.057,0.11 -3,-3.75 0.037,0.04 -4,-3.63 0.028,0.03 -4.937,-3.56 0.028,0.01 -5.813,-3.37 0.022,0.01 -6.688,-3.25 0.02,0.01 -7.313,-3 0.019,0.01 -8.063,-2.75 h 0.015 l -8.563,-2.5 h 0.015 l -9,-2.18 h 0.014 l -9.5,-1.88 0.014,0.01 -9.75,-1.5 h 0.015 l -10,-1.06 h 0.013 l -10.187,-0.69 h 0.014 l -10.25,-0.25 h 0.016 l -10.25,0.25 h 0.017 l -10.188,0.75 h 0.013 l -10,1.12 h 0.017 l -9.75,1.63 0.012,-0.01 -9.5,1.94 h 0.017 l -9,2.31 h 0.014 l -8.562,2.62 h 0.017 l -8,2.93 h 0.017 l -7.375,3.18 h 0.018 l -6.687,3.37 0.024,-0.01 -5.813,3.56 0.028,-0.02 -4.938,3.75 0.03,-0.03 -4,3.88 0.035,-0.04 -3,4 0.037,-0.06 -1.812,4 0.026,-0.09 -0.625,4.06 z m 220.734,-11.08 -1.463,8.82 -6.181,-6.46 z"
         id="path11" />
      <path
         d="m 276,1179.5 c 0,-41.15 33.355,-74.5 74.5,-74.5 41.145,0 74.5,33.35 74.5,74.5 0,41.15 -33.355,74.5 -74.5,74.5 -41.145,0 -74.5,-33.35 -74.5,-74.5 z"
         fill="#e8effc"
         fill-rule="evenodd"
         id="path12" />
      <text
         font-family="'Calibri Light', 'Calibri Light_MSFontService', sans-serif"
         font-weight="300"
         font-size="16px"
         transform="translate(299.925,1152)"
         id="text12">Improper State</text>
      <text
         font-family="'Calibri Light', 'Calibri Light_MSFontService', sans-serif"
         font-weight="300"
         font-size="11px"
         transform="translate(396.238,1155)"
         id="text13">1</text>
      <text
         font-family="'Calibri Light', 'Calibri Light_MSFontService', sans-serif"
         font-weight="300"
         font-size="16px"
         transform="translate(298.165,1179)"
         id="text14">(</text>
      <text
         fill="#7d3368"
         font-family="'Calibri Light', 'Calibri Light_MSFontService', sans-serif"
         font-weight="300"
         font-size="16px"
         transform="translate(304.498,1179)"
         id="text15">operation</text>
      <text
         fill="#7d3368"
         font-family="'Calibri Light', 'Calibri Light_MSFontService', sans-serif"
         font-weight="300"
         font-size="11px"
         transform="translate(367.032,1182)"
         id="text16">1</text>
      <text
         font-family="'Calibri Light', 'Calibri Light_MSFontService', sans-serif"
         font-weight="300"
         font-size="16px"
         transform="translate(372.365,1179)"
         id="text17">,</text>
      <text
         font-family="'Calibri Light', 'Calibri Light_MSFontService', sans-serif"
         font-weight="300"
         font-size="16px"
         transform="translate(304.498,1198)"
         id="text18">operand</text>
      <text
         font-family="'Calibri Light', 'Calibri Light_MSFontService', sans-serif"
         font-weight="300"
         font-size="11px"
         transform="translate(358.352,1201)"
         id="text19">11</text>
      <text
         font-family="'Calibri Light', 'Calibri Light_MSFontService', sans-serif"
         font-weight="300"
         font-size="16px"
         transform="translate(371.352,1198)"
         id="text20">,</text>
      <text
         font-family="'Calibri Light', 'Calibri Light_MSFontService', sans-serif"
         font-weight="300"
         font-size="16px"
         transform="translate(378.852,1198)"
         id="text21">...</text>
      <text
         font-family="'Calibri Light', 'Calibri Light_MSFontService', sans-serif"
         font-weight="300"
         font-size="16px"
         transform="translate(304.498,1218)"
         id="text22">operand</text>
      <text
         font-family="'Calibri Light', 'Calibri Light_MSFontService', sans-serif"
         font-weight="300"
         font-size="11px"
         transform="translate(358.352,1221)"
         id="text23">1i</text>
      <text
         font-family="'Calibri Light', 'Calibri Light_MSFontService', sans-serif"
         font-weight="300"
         font-size="16px"
         transform="translate(368.352,1218)"
         id="text24">,</text>
      <text
         font-family="'Calibri Light', 'Calibri Light_MSFontService', sans-serif"
         font-weight="300"
         font-size="16px"
         transform="translate(375.852,1218)"
         id="text25">... )</text>
      <path
         d="m 493,1179.5 c 0,-41.15 33.355,-74.5 74.5,-74.5 41.145,0 74.5,33.35 74.5,74.5 0,41.15 -33.355,74.5 -74.5,74.5 -41.145,0 -74.5,-33.35 -74.5,-74.5 z"
         fill="#f4f2f8"
         fill-rule="evenodd"
         id="path25" />
      <text
         font-family="'Calibri Light', 'Calibri Light_MSFontService', sans-serif"
         font-weight="300"
         font-size="16px"
         transform="translate(516.822,1162)"
         id="text26">Improper</text>
      <text
         font-family="'Calibri Light', 'Calibri Light_MSFontService', sans-serif"
         font-weight="300"
         font-size="16px"
         transform="translate(580.509,1162)"
         id="text27">State</text>
      <text
         font-family="'Calibri Light', 'Calibri Light_MSFontService', sans-serif"
         font-weight="300"
         font-size="11px"
         transform="translate(613.135,1165)"
         id="text28">2</text>
      <text
         font-family="'Calibri Light', 'Calibri Light_MSFontService', sans-serif"
         font-weight="300"
         font-size="16px"
         transform="translate(515.062,1189)"
         id="text29">(</text>
      <text
         font-family="'Calibri Light', 'Calibri Light_MSFontService', sans-serif"
         font-weight="300"
         font-size="16px"
         transform="translate(521.396,1189)"
         id="text30">operation</text>
      <text
         font-family="'Calibri Light', 'Calibri Light_MSFontService', sans-serif"
         font-weight="300"
         font-size="11px"
         transform="translate(583.929,1192)"
         id="text31">2</text>
      <text
         font-family="'Calibri Light', 'Calibri Light_MSFontService', sans-serif"
         font-weight="300"
         font-size="16px"
         transform="translate(589.262,1189)"
         id="text32">,</text>
      <text
         font-family="'Calibri Light', 'Calibri Light_MSFontService', sans-serif"
         font-weight="300"
         font-size="16px"
         transform="translate(596.762,1189)"
         id="text33">…,</text>
      <text
         fill="#7d3368"
         font-family="'Calibri Light', 'Calibri Light_MSFontService', sans-serif"
         font-weight="300"
         font-size="16px"
         transform="translate(525.049,1208)"
         id="text34">operand</text>
      <text
         fill="#7d3368"
         font-family="'Calibri Light', 'Calibri Light_MSFontService', sans-serif"
         font-weight="300"
         font-size="11px"
         transform="translate(578.902,1211)"
         id="text35">2j</text>
      <text
         font-family="'Calibri Light', 'Calibri Light_MSFontService', sans-serif"
         font-weight="300"
         font-size="16px"
         transform="translate(589.069,1208)"
         id="text36">,</text>
      <text
         font-family="'Calibri Light', 'Calibri Light_MSFontService', sans-serif"
         font-weight="300"
         font-size="16px"
         transform="translate(596.569,1208)"
         id="text37">... )</text>
      <text
         fill="#7d3368"
         font-family="'Calibri Light', 'Calibri Light_MSFontService', sans-serif"
         font-weight="300"
         font-size="16px"
         transform="translate(396.786,1092)"
         id="text38">Improper Operand</text>
      <text
         fill="#7d3368"
         font-family="'Calibri Light', 'Calibri Light_MSFontService', sans-serif"
         font-weight="300"
         font-size="11px"
         transform="translate(516.492,1095)"
         id="text39">2j</text>
      <path
         d="m 351.171,1105.78 0.632,-4.04 1.846,-4.08 2.976,-3.92 3.971,-3.85 4.966,-3.71 5.775,-3.58 6.648,-3.32 7.33,-3.13 7.891,-2.88 8.517,-2.63 9.015,-2.26 9.389,-1.94 9.639,-1.56 9.953,-1.19 10.078,-0.69 10.203,-0.25 10.141,0.25 10.077,0.69 9.951,1.13 9.702,1.5 9.389,1.88 8.952,2.19 8.516,2.5 7.954,2.82 7.268,3.01 6.647,3.26 5.774,3.45 4.966,3.58 3.973,3.72 2.99,3.88 0.451,1.42 -0.636,0.2 -0.433,-1.36 0.054,0.1 -2.937,-3.81 0.036,0.04 -3.938,-3.69 0.033,0.03 -4.938,-3.56 0.024,0.01 -5.75,-3.43 0.025,0.01 -6.625,-3.25 0.019,0.01 -7.25,-3 0.016,0.01 -7.937,-2.82 0.017,0.01 -8.5,-2.5 h 0.015 l -8.938,-2.19 0.014,0.01 -9.375,-1.88 0.015,0.01 -9.688,-1.5 h 0.014 l -9.938,-1.13 h 0.015 l -10.063,-0.68 h 0.015 l -10.125,-0.25 h 0.016 l -10.187,0.25 h 0.014 l -10.062,0.68 h 0.017 l -9.938,1.19 h 0.014 l -9.625,1.56 h 0.014 l -9.375,1.93 h 0.013 l -9,2.25 h 0.018 l -8.5,2.62 h 0.016 l -7.875,2.87 0.017,-0.01 -7.313,3.13 0.018,-0.01 -6.625,3.31 0.027,-0.01 -5.75,3.56 0.024,-0.01 -4.938,3.68 0.032,-0.02 -3.937,3.81 0.034,-0.04 -2.938,3.87 0.038,-0.06 -1.812,4 0.025,-0.09 -0.625,4 z m 218.692,-10.1 -1.466,8.82 -6.179,-6.47 z"
         id="path39" />
      <text
         font-family="'Calibri Light', 'Calibri Light_MSFontService', sans-serif"
         font-weight="300"
         font-size="15px"
         transform="translate(219.519,1359)"
         id="text40">Intermediate, Propagation</text>
      <text
         font-family="'Calibri Light', 'Calibri Light_MSFontService', sans-serif"
         font-weight="300"
         font-size="15px"
         transform="translate(378.186,1359)"
         id="text41">State</text>
      <text
         font-family="'Calibri Light', 'Calibri Light_MSFontService', sans-serif"
         font-weight="300"
         font-size="15px"
         transform="translate(411.852,1359)"
         id="text42">–</text>
      <text
         font-family="'Calibri Light', 'Calibri Light_MSFontService', sans-serif"
         font-weight="300"
         font-size="15px"
         transform="translate(422.519,1359)"
         id="text43">caused by at least one improper operand</text>
      <text
         font-family="'Calibri Light', 'Calibri Light_MSFontService', sans-serif"
         font-weight="300"
         font-size="15px"
         transform="translate(219.519,1314)"
         id="text44">Initial State</text>
      <text
         font-family="'Calibri Light', 'Calibri Light_MSFontService', sans-serif"
         font-weight="300"
         font-size="15px"
         transform="translate(288.852,1314)"
         id="text45">–</text>
      <text
         font-family="'Calibri Light', 'Calibri Light_MSFontService', sans-serif"
         font-weight="300"
         font-size="15px"
         transform="translate(299.519,1314)"
         id="text46">caused by the</text>
      <text
         font-family="'Calibri Light', 'Calibri Light_MSFontService', sans-serif"
         font-weight="300"
         font-size="15px"
         transform="translate(384.519,1314)"
         id="text47">B</text>
      <text
         font-family="'Calibri Light', 'Calibri Light_MSFontService', sans-serif"
         font-weight="300"
         font-size="15px"
         transform="translate(392.352,1314)"
         id="text48">ug</text>
      <text
         font-family="'Calibri Light', 'Calibri Light_MSFontService', sans-serif"
         font-weight="300"
         font-size="15px"
         transform="translate(410.186,1314)"
         id="text49">–</text>
      <text
         font-family="'Calibri Light', 'Calibri Light_MSFontService', sans-serif"
         font-weight="300"
         font-size="15px"
         transform="translate(420.852,1314)"
         id="text50">the operation is improper</text>
      <text
         font-family="'Calibri Light', 'Calibri Light_MSFontService', sans-serif"
         font-weight="300"
         font-size="15px"
         transform="translate(219.519,1450)"
         id="text51">Failure</text>
      <text
         font-family="'Calibri Light', 'Calibri Light_MSFontService', sans-serif"
         font-weight="300"
         font-size="15px"
         transform="translate(262.519,1450)"
         id="text52">–</text>
      <text
         font-family="'Calibri Light', 'Calibri Light_MSFontService', sans-serif"
         font-weight="300"
         font-size="15px"
         transform="translate(273.186,1450)"
         id="text53">the result of a final error exploit</text>
      <path
         d="m 171,1354.5 c 0,-10.22 8.283,-18.5 18.5,-18.5 10.217,0 18.5,8.28 18.5,18.5 0,10.22 -8.283,18.5 -18.5,18.5 -10.217,0 -18.5,-8.28 -18.5,-18.5 z"
         fill="#f4f2f8"
         fill-rule="evenodd"
         id="path53" />
      <path
         d="m 171,1308.5 c 0,-10.22 8.283,-18.5 18.5,-18.5 10.217,0 18.5,8.28 18.5,18.5 0,10.22 -8.283,18.5 -18.5,18.5 -10.217,0 -18.5,-8.28 -18.5,-18.5 z"
         fill="#e8effc"
         fill-rule="evenodd"
         id="path54" />
      <text
         font-family="'Calibri Light', 'Calibri Light_MSFontService', sans-serif"
         font-weight="300"
         font-size="15px"
         transform="translate(219.519,1405)"
         id="text54">Final State</text>
      <text
         font-family="'Calibri Light', 'Calibri Light_MSFontService', sans-serif"
         font-weight="300"
         font-size="15px"
         transform="translate(284.019,1405)"
         id="text55">–</text>
      <text
         font-family="'Calibri Light', 'Calibri Light_MSFontService', sans-serif"
         font-weight="300"
         font-size="15px"
         transform="translate(294.686,1405)"
         id="text56">results in a final,</text>
      <text
         font-family="'Calibri Light', 'Calibri Light_MSFontService', sans-serif"
         font-weight="300"
         font-size="15px"
         transform="translate(393.686,1405)"
         id="text57">e</text>
      <text
         font-family="'Calibri Light', 'Calibri Light_MSFontService', sans-serif"
         font-weight="300"
         font-size="15px"
         transform="translate(400.853,1405)"
         id="text58">xploitable</text>
      <text
         font-family="'Calibri Light', 'Calibri Light_MSFontService', sans-serif"
         font-weight="300"
         font-size="15px"
         transform="translate(461.686,1405)"
         id="text59">error</text>
      <path
         d="m 171,1400 c 0,-9.94 8.283,-18 18.5,-18 10.217,0 18.5,8.06 18.5,18 0,9.94 -8.283,18 -18.5,18 -10.217,0 -18.5,-8.06 -18.5,-18 z"
         fill="#dfdaea"
         fill-rule="evenodd"
         id="path59" />
      <path
         d="m 168.5,1462.5 21.5,-35 21.5,35 z"
         stroke="#7d3368"
         stroke-width="0.666667"
         stroke-linejoin="round"
         stroke-miterlimit="10"
         fill="#dfdaea"
         fill-rule="evenodd"
         id="path60" />
      <path
         d="m 168.505,1062.17 17.129,0.25 17.01,0.68 16.759,1.19 16.384,1.57 15.758,2 15.197,2.25 14.324,2.63 13.386,2.94 12.325,3.12 11.141,3.38 9.768,3.57 4.327,1.88 3.949,1.88 3.579,1.89 3.147,1.95 2.708,2.01 2.296,1.98 1.302,2.04 -0.562,0.36 -1.275,-2 0.063,0.08 -2.25,-1.94 0.019,0.01 -2.688,-2 0.023,0.02 -3.125,-1.94 0.021,0.01 -3.563,-1.87 h 0.012 l -3.937,-1.87 h 0.01 l -4.312,-1.87 0.018,0.01 -9.75,-3.57 0.018,0.01 -11.125,-3.38 0.015,0.01 -12.313,-3.13 0.011,0.01 -13.375,-2.94 h 0.011 l -14.313,-2.62 h 0.012 l -15.188,-2.25 h 0.007 l -15.75,-2 h 0.01 l -16.375,-1.56 h 0.008 l -16.75,-1.19 h 0.011 l -17,-0.69 h 0.008 l -17.125,-0.25 z m 183.275,34.5 -0.26,8.94 -6.996,-5.58 z"
         id="path61" />
      <text
         fill="#7d3368"
         font-family="'Calibri Light', 'Calibri Light_MSFontService', sans-serif"
         font-weight="300"
         font-size="16px"
         transform="translate(167.754,1092)"
         id="text61">Improper Operation</text>
      <text
         fill="#002060"
         font-family="'Calibri Light', 'Calibri Light_MSFontService', sans-serif"
         font-weight="300"
         font-size="16px"
         transform="translate(179.355,1053)"
         id="text62">Cause for</text>
      <text
         fill="#002060"
         font-family="'Calibri Light', 'Calibri Light_MSFontService', sans-serif"
         font-weight="300"
         font-size="16px"
         transform="translate(243.295,1053)"
         id="text63">State</text>
      <text
         fill="#002060"
         font-family="'Calibri Light', 'Calibri Light_MSFontService', sans-serif"
         font-weight="300"
         font-size="11px"
         transform="translate(275.922,1056)"
         id="text64">1</text>
      <text
         fill="#003300"
         font-family="'Calibri Light', 'Calibri Light_MSFontService', sans-serif"
         font-weight="300"
         font-size="16px"
         transform="translate(591.084,1034)"
         id="text65">Consequence from</text>
      <text
         fill="#003300"
         font-family="'Calibri Light', 'Calibri Light_MSFontService', sans-serif"
         font-weight="300"
         font-size="16px"
         transform="translate(716.104,1034)"
         id="text66">State</text>
      <text
         fill="#003300"
         font-family="'Calibri Light', 'Calibri Light_MSFontService', sans-serif"
         font-weight="300"
         font-size="11px"
         transform="translate(748.731,1037)"
         id="text67">np</text>
      <text
         fill="#a50021"
         font-family="'Calibri Light', 'Calibri Light_MSFontService', sans-serif"
         font-weight="300"
         font-size="16px"
         transform="translate(609.43,1053)"
         id="text68">Cause for</text>
      <text
         fill="#a50021"
         font-family="'Calibri Light', 'Calibri Light_MSFontService', sans-serif"
         font-weight="300"
         font-size="16px"
         transform="translate(673.37,1053)"
         id="text69">the Failure</text>
      <rect
         x="588"
         y="1057"
         width="32"
         height="24"
         fill="#ffffff"
         id="rect69" />
      <text
         font-family="'Calibri Light', 'Calibri Light_MSFontService', sans-serif"
         font-weight="300"
         font-size="24px"
         transform="translate(596.017,1076)"
         id="text70">…</text>
      <text
         fill="#003300"
         font-family="'Calibri Light', 'Calibri Light_MSFontService', sans-serif"
         font-weight="300"
         font-size="16px"
         transform="translate(391.833,991)"
         id="text71">BF</text>
      <text
         font-family="'Calibri Light', 'Calibri Light_MSFontService', sans-serif"
         font-weight="300"
         font-size="16px"
         transform="translate(411.333,991)"
         id="text72">Cause</text>
      <text
         font-family="'Calibri Light', 'Calibri Light_MSFontService', sans-serif"
         font-weight="300"
         font-size="16px"
         transform="translate(449.667,991)"
         id="text73">-</text>
      <text
         font-family="'Calibri Light', 'Calibri Light_MSFontService', sans-serif"
         font-weight="300"
         font-size="16px"
         transform="translate(454.5,991)"
         id="text74">Consequence</text>
      <text
         font-family="'Calibri Light', 'Calibri Light_MSFontService', sans-serif"
         font-weight="300"
         font-size="16px"
         transform="translate(541.167,991)"
         id="text75">-</text>
      <text
         font-family="'Calibri Light', 'Calibri Light_MSFontService', sans-serif"
         font-weight="300"
         font-size="16px"
         transform="translate(546,991)"
         id="text76">Cause Relations</text>
    </g>
  </g>
</svg>
