<?xml version="1.0" encoding="UTF-8" standalone="no"?>
<!-- Created with Inkscape (http://www.inkscape.org/) -->

<svg
   width="140.67818mm"
   height="104.87986mm"
   viewBox="0 0 140.67818 104.87986"
   version="1.1"
   id="svg1"
   xml:space="preserve"
   sodipodi:docname="BF Converging Vulnerabilities Model.svg"
   inkscape:version="1.3 (0e150ed6c4, 2023-07-21)"
   xmlns:inkscape="http://www.inkscape.org/namespaces/inkscape"
   xmlns:sodipodi="http://sodipodi.sourceforge.net/DTD/sodipodi-0.dtd"
   xmlns="http://www.w3.org/2000/svg"
   xmlns:svg="http://www.w3.org/2000/svg"><sodipodi:namedview
     id="namedview1"
     pagecolor="#ffffff"
     bordercolor="#000000"
     borderopacity="0.25"
     inkscape:showpageshadow="2"
     inkscape:pageopacity="0.0"
     inkscape:pagecheckerboard="0"
     inkscape:deskcolor="#d1d1d1"
     inkscape:document-units="mm"
     inkscape:zoom="1.7041198"
     inkscape:cx="188.95385"
     inkscape:cy="-95.943959"
     inkscape:window-width="2560"
     inkscape:window-height="1377"
     inkscape:window-x="-8"
     inkscape:window-y="859"
     inkscape:window-maximized="1"
     inkscape:current-layer="layer1" /><defs
     id="defs1"><clipPath
       clipPathUnits="userSpaceOnUse"
       id="clipPath594"><path
         d="M 0,0 H 717 V 334 H 0 Z"
         id="path592" /></clipPath><clipPath
       id="clip0"><rect
         x="104"
         y="143"
         width="985"
         height="489"
         id="rect685" /></clipPath><clipPath
       id="clip0-9"><rect
         x="122"
         y="272"
         width="912"
         height="352"
         id="rect908" /></clipPath><clipPath
       id="clip0-4"><rect
         x="122"
         y="272"
         width="912"
         height="317"
         id="rect1246" /></clipPath><clipPath
       id="clip0-7"><rect
         x="122"
         y="272"
         width="928"
         height="352"
         id="rect1" /></clipPath><clipPath
       id="clip0-6"><rect
         x="122"
         y="272"
         width="926"
         height="321"
         id="rect1-5" /></clipPath><clipPath
       id="clip0-0"><rect
         x="122"
         y="272"
         width="919"
         height="321"
         id="rect1-4" /></clipPath><clipPath
       id="clip0-90"><rect
         x="121"
         y="270"
         width="913"
         height="355"
         id="rect1-7" /></clipPath><clipPath
       id="clip0-60"><rect
         x="121"
         y="270"
         width="913"
         height="301"
         id="rect1-3" /></clipPath><clipPath
       id="clip0-07"><rect
         x="352"
         y="301"
         width="378"
         height="504"
         id="rect1-8" /></clipPath><clipPath
       id="clip0-98"><rect
         x="121"
         y="270"
         width="913"
         height="301"
         id="rect1-87" /></clipPath><clipPath
       id="clip0-3"><rect
         x="121"
         y="270"
         width="920"
         height="293"
         id="rect1-876" /></clipPath><clipPath
       id="clip0-5"><rect
         x="95"
         y="267"
         width="896"
         height="547"
         id="rect1-2" /></clipPath><clipPath
       id="clip0-63"><rect
         x="95"
         y="267"
         width="864"
         height="433"
         id="rect1-21" /></clipPath><clipPath
       id="clip0-1"><rect
         x="33"
         y="-1"
         width="1182"
         height="611"
         id="rect1-50" /></clipPath><clipPath
       id="clip0-52"><rect
         x="320"
         y="-1"
         width="728"
         height="559"
         id="rect1-9" /></clipPath><clipPath
       id="clip0-68"><rect
         x="320"
         y="-1"
         width="728"
         height="544"
         id="rect1-97" /></clipPath><clipPath
       id="clip0-10"><rect
         x="320"
         y="39"
         width="728"
         height="504"
         id="rect1-6" /></clipPath><clipPath
       id="clip0-37"><rect
         x="270"
         y="350"
         width="728"
         height="440"
         id="rect1-51" /></clipPath><clipPath
       id="clip0-41"><rect
         x="270"
         y="318"
         width="728"
         height="472"
         id="rect1-57" /></clipPath><clipPath
       id="clip0-50"><rect
         x="320"
         y="39"
         width="728"
         height="504"
         id="rect1-98" /></clipPath><clipPath
       id="clip0-48"><rect
         x="320"
         y="71"
         width="728"
         height="472"
         id="rect1-0" /></clipPath><clipPath
       id="clip0-02"><rect
         x="320"
         y="39"
         width="728"
         height="504"
         id="rect1-09" /></clipPath><clipPath
       id="clip0-59"><rect
         x="320"
         y="71"
         width="728"
         height="472"
         id="rect1-04" /></clipPath><clipPath
       id="clip0-16"><rect
         x="320"
         y="71"
         width="728"
         height="472"
         id="rect1-35" /></clipPath><clipPath
       id="clip0-8"><rect
         x="121"
         y="270"
         width="913"
         height="278"
         id="rect1-54" /></clipPath><clipPath
       id="clip0-76"><rect
         x="121"
         y="270"
         width="913"
         height="278"
         id="rect1-06" /></clipPath><clipPath
       id="clip0-106"><rect
         x="121"
         y="270"
         width="913"
         height="278"
         id="rect1-874" /></clipPath><clipPath
       id="clip0-94"><rect
         x="348"
         y="312"
         width="382"
         height="449"
         id="rect1-25" /></clipPath><clipPath
       id="clip0-64"><rect
         x="121"
         y="270"
         width="913"
         height="278"
         id="rect1-62" /></clipPath><clipPath
       id="clip0-47"><rect
         x="95"
         y="267"
         width="896"
         height="547"
         id="rect1-63" /></clipPath><clipPath
       id="clip0-71"><rect
         x="146"
         y="266"
         width="857"
         height="282"
         id="rect1-92" /></clipPath><clipPath
       id="clip0-57"><rect
         x="177"
         y="266"
         width="747"
         height="385"
         id="rect1-22" /></clipPath><clipPath
       id="clip0-102"><rect
         x="186"
         y="271"
         width="702"
         height="380"
         id="rect1-926" /></clipPath><clipPath
       id="clip0-77"><rect
         x="186"
         y="271"
         width="702"
         height="380"
         id="rect1-224" /></clipPath><clipPath
       id="clip0-482"><rect
         x="186"
         y="274"
         width="661"
         height="377"
         id="rect1-08" /></clipPath><clipPath
       id="clip0-04"><rect
         x="167"
         y="266"
         width="819"
         height="282"
         id="rect1-34" /></clipPath><clipPath
       id="clip0-56"><rect
         x="163"
         y="265"
         width="799"
         height="282"
         id="rect1-47" /></clipPath><clipPath
       id="clip0-2"><rect
         x="351"
         y="273"
         width="638"
         height="472"
         id="rect1-1" /></clipPath><clipPath
       id="clip0-93"><rect
         x="351"
         y="241"
         width="638"
         height="504"
         id="rect1-77" /></clipPath><clipPath
       id="clip0-49"><rect
         x="351"
         y="241"
         width="638"
         height="504"
         id="rect1-981" /></clipPath><clipPath
       id="clip0-31"><rect
         x="193"
         y="272"
         width="654"
         height="379"
         id="rect1-05" /></clipPath><clipPath
       id="clip0-938"><rect
         x="193"
         y="272"
         width="654"
         height="379"
         id="rect1-12" /></clipPath><clipPath
       id="clip0-85"><rect
         x="163"
         y="265"
         width="805"
         height="282"
         id="rect1-257" /></clipPath><clipPath
       id="clip0-83"><rect
         x="193"
         y="272"
         width="641"
         height="380"
         id="rect1-068" /></clipPath><clipPath
       id="clip0-44"><rect
         x="163"
         y="265"
         width="805"
         height="282"
         id="rect1-923" /></clipPath><clipPath
       id="clip0-412"><rect
         x="193"
         y="272"
         width="641"
         height="380"
         id="rect1-49" /></clipPath><clipPath
       id="clip0-483"><rect
         x="351"
         y="241"
         width="639"
         height="458"
         id="rect1-357" /></clipPath><clipPath
       id="clip0-32"><rect
         x="351"
         y="241"
         width="639"
         height="458"
         id="rect1-15" /></clipPath><clipPath
       id="clip0-045"><rect
         x="163"
         y="265"
         width="805"
         height="282"
         id="rect1-01" /></clipPath><clipPath
       id="clip0-97"><rect
         x="216"
         y="229"
         width="621"
         height="318"
         id="rect1-03" /></clipPath><clipPath
       id="clip0-87"><rect
         x="216"
         y="229"
         width="621"
         height="318"
         id="rect1-66" /></clipPath><clipPath
       id="clip0-26"><rect
         x="-19"
         y="165"
         width="814"
         height="597"
         id="rect1-73" /></clipPath><clipPath
       id="clip0-89"><rect
         x="77"
         y="89"
         width="762"
         height="777"
         id="rect1-40" /></clipPath><clipPath
       id="clip0-91"><rect
         x="216"
         y="229"
         width="621"
         height="318"
         id="rect1-229" /></clipPath><clipPath
       id="clip0-569"><rect
         x="77"
         y="89"
         width="762"
         height="777"
         id="rect1-639" /></clipPath><clipPath
       id="clip0-15"><rect
         x="78"
         y="188"
         width="853"
         height="609"
         id="rect1-215" /></clipPath><clipPath
       id="clip0-06"><rect
         x="254"
         y="1081"
         width="539"
         height="418"
         id="rect1-342" /></clipPath></defs><g
     inkscape:label="Layer 1"
     inkscape:groupmode="layer"
     id="layer1"
     transform="translate(-118.2492,-199.63622)"><g
       clip-path="url(#clip0-06)"
       transform="matrix(0.26458333,0,0,0.26458333,51.008986,-89.933567)"
       id="g33"><path
         d="m 503,1228.83 c 0,-3.77 3.059,-6.83 6.833,-6.83 h 80.334 c 3.774,0 6.833,3.06 6.833,6.83 v 27.34 c 0,3.77 -3.059,6.83 -6.833,6.83 h -80.334 c -3.774,0 -6.833,-3.06 -6.833,-6.83 z"
         fill="#dfdaea"
         fill-rule="evenodd"
         id="path1" /><text
         font-family="Calibri, Calibri_MSFontService, sans-serif"
         font-weight="400"
         font-size="16px"
         transform="translate(513.623,1248)"
         id="text1">Final Error</text><text
         font-family="Calibri, Calibri_MSFontService, sans-serif"
         font-weight="400"
         font-size="11px"
         transform="translate(584.196,1251)"
         id="text2">i</text><path
         d="m 597.518,1242.17 6.875,0.37 6.849,1.13 6.717,1.76 6.533,2.45 6.339,3.01 6.086,3.51 5.773,4.01 5.336,4.46 4.957,4.83 4.458,5.21 3.893,5.46 3.329,5.71 2.703,5.91 2.013,6.03 c 0.005,0.02 0.009,0.03 0.012,0.05 l 0.959,5.63 -0.657,0.11 -0.959,-5.63 0.012,0.05 -1.987,-5.97 -2.672,-5.84 -3.296,-5.66 -3.857,-5.42 -4.417,-5.16 -4.918,-4.8 -5.289,-4.42 -5.727,-3.98 -6.039,-3.49 -6.286,-2.99 -6.467,-2.43 -6.658,-1.74 -6.776,-1.12 -6.875,-0.38 z m 76.36,57.88 -3.228,8.34 -4.736,-7.59 z"
         id="path2" /><path
         d="m 281,1146.83 c 0,-3.77 3.059,-6.83 6.833,-6.83 h 80.334 c 3.774,0 6.833,3.06 6.833,6.83 v 27.34 c 0,3.77 -3.059,6.83 -6.833,6.83 h -80.334 c -3.774,0 -6.833,-3.06 -6.833,-6.83 z"
         fill="#e8effc"
         fill-rule="evenodd"
         id="path3" /><text
         font-family="Calibri, Calibri_MSFontService, sans-serif"
         font-weight="400"
         font-size="16px"
         transform="translate(312.95,1166)"
         id="text3">Bug</text><text
         font-family="Calibri, Calibri_MSFontService, sans-serif"
         font-weight="400"
         font-size="11px"
         transform="translate(341.117,1169)"
         id="text4">i</text><path
         d="m 0.0322553,0.331769 -4.4999953,0.4375 0.06479,-0.012878 -4.3125,1.312499 0.05018,-0.01983 -4.06253,2 0.0452,-0.02687 -3.625,2.5625 0.0433,-0.03649 -3.0625,3.0625 0.0385,-0.04622 -2.375,3.43752 0.0338,-0.0621 -1.5,3.6251 0.0216,-0.0781 -0.5625,3.75 -0.0075,-0.1353 0.25,0.9375 -0.0702,-0.1324 0.8125,0.9375 -0.0519,-0.0484 1.25,0.9375 -0.0426,-0.0271 1.75,0.9375 2.1614,0.9249 2.666,0.9292 3.1051,0.8687 3.49635,0.9365 3.86217,0.8719 4.305362,0.8734 9.614208,1.623 10.99321,1.6239 12.1155,1.4363 13.2452,1.3744 14.12,1.2496 14.9317,1.062 15.62,0.8747 16.1219,0.7498 16.558,0.5624 33.743,0.4373 33.75,0.4375 16.507,0.5627 16.192,0.7501 15.566,0.8752 15.006,1.1254 14.128,1.1877 13.256,1.3756 12.132,1.5008 11.006,1.5633 9.636,1.6892 4.321,0.8766 3.882,0.8766 3.507,0.8767 3.134,0.8774 2.708,0.9438 2.209,0.9458 1.776,0.9501 c 0.015,0.0079 0.029,0.017 0.042,0.0271 l 1.25,0.9375 c 0.019,0.0143 0.037,0.0305 0.052,0.0484 l 0.813,0.9375 c 0.033,0.0382 0.057,0.0835 0.07,0.1324 l 0.25,0.9375 c 0.012,0.0441 0.014,0.0902 0.008,0.1353 l -0.563,3.75 c -0.004,0.0262 -0.011,0.0517 -0.021,0.0762 l -1.5,3.6875 c -0.009,0.0234 -0.021,0.0456 -0.036,0.0662 l -2.375,3.375 c -0.011,0.0157 -0.023,0.0304 -0.037,0.0439 l -3.062,3.0625 c -0.013,0.0125 -0.026,0.0239 -0.041,0.0343 l -3.625,2.625 c -0.016,0.0118 -0.033,0.0222 -0.052,0.0309 l -4.062,1.9375 c -0.022,0.0103 -0.044,0.0182 -0.068,0.0237 l -2.282,0.5336 -0.152,-0.6491 2.283,-0.5337 -0.068,0.0237 4.062,-1.9375 -0.052,0.0309 3.625,-2.625 -0.04,0.0343 3.063,-3.0625 -0.037,0.0439 2.375,-3.375 -0.036,0.0662 1.5,-3.6875 -0.021,0.0761 0.562,-3.7499 0.008,0.1353 -0.25,-0.9375 0.07,0.1324 -0.812,-0.9375 0.051,0.0484 -1.25,-0.9375 0.043,0.0271 -1.724,-0.9249 -2.166,-0.9292 -2.667,-0.9312 -3.116,-0.8726 -3.493,-0.8733 -3.868,-0.8734 -4.304,-0.8734 L 304.328,50.08 293.334,48.5183 281.216,47.0191 267.972,45.6447 253.85,44.4574 238.856,43.3328 223.297,42.458 207.114,41.7081 190.621,41.1458 156.871,40.7083 123.114,40.2706 106.547,39.708 90.4189,38.9578 74.7888,38.0825 59.8456,37.0195 45.7156,35.7691 32.4608,34.3935 20.3263,32.9548 9.31951,31.3287 -0.316282,29.7017 -4.63592,28.8251 -8.52374,27.947 l -3.50366,-0.9385 -3.1449,-0.8813 -2.709,-0.9458 -2.2136,-0.9501 -1.75,-0.9375 c -0.0149,-0.0079 -0.0291,-0.017 -0.0426,-0.0271 l -1.25,-0.9375 c -0.019,-0.0143 -0.0364,-0.0305 -0.0519,-0.0484 l -0.8125,-0.9375 c -0.0331,-0.0382 -0.0571,-0.0835 -0.0702,-0.1324 l -0.25,-0.9375 c -0.0117,-0.0441 -0.0143,-0.0902 -0.0075,-0.1353 l 0.5625,-3.75 c 0.004,-0.0268 0.0112,-0.053 0.0216,-0.0781 l 1.5,-3.625 c 0.009,-0.0218 0.0203,-0.0426 0.0338,-0.062 l 2.375,-3.43748 c 0.0114,-0.01653 0.0243,-0.03201 0.0385,-0.04622 l 3.0625,-3.0625 c 0.0134,-0.01337 0.0278,-0.02558 0.0433,-0.03649 l 3.625,-2.5625 c 0.0143,-0.01014 0.0294,-0.01911 0.0452,-0.02687 l 4.06247,-2 c 0.01617,-0.00795 0.03294,-0.01459 0.05018,-0.01983 l 4.3125,-1.312501 c 0.02111,-0.006426 0.04283,-0.010743 0.06479,-0.012878 l 4.5000047,-0.4375 z M 322.307,83.2309 l -8.586,-2.5056 7.156,-5.3656 z"
         transform="matrix(-1,0,0,1,596.221,1160.5)"
         id="path4" /><text
         font-family="Calibri, Calibri_MSFontService, sans-serif"
         font-weight="400"
         font-size="14px"
         transform="translate(426.172,1486)"
         id="text5">Final Error</text><path
         d="m 387,1475.83 c 0,-1.56 1.269,-2.83 2.833,-2.83 h 23.334 c 1.564,0 2.833,1.27 2.833,2.83 v 11.34 c 0,1.56 -1.269,2.83 -2.833,2.83 h -23.334 c -1.564,0 -2.833,-1.27 -2.833,-2.83 z"
         fill="#dfdaea"
         fill-rule="evenodd"
         id="path5" /><text
         font-family="Calibri, Calibri_MSFontService, sans-serif"
         font-weight="400"
         font-size="14px"
         transform="translate(320.373,1486)"
         id="text6">Bug</text><text
         font-family="Calibri, Calibri_MSFontService, sans-serif"
         font-weight="400"
         font-size="14px"
         transform="translate(562.256,1486)"
         id="text7">Failure</text><path
         d="m 282,1475.83 c 0,-1.56 1.269,-2.83 2.833,-2.83 h 23.334 c 1.564,0 2.833,1.27 2.833,2.83 v 11.34 c 0,1.56 -1.269,2.83 -2.833,2.83 h -23.334 c -1.564,0 -2.833,-1.27 -2.833,-2.83 z"
         fill="#e8effc"
         fill-rule="evenodd"
         id="path7" /><path
         d="m 375.501,1161.17 29.143,0.08 -0.002,0.67 -29.143,-0.09 z m 27.82,-3.59 7.989,4.02 -8.012,3.98 z"
         id="path8" /><path
         d="M 0.00182979,-0.333328 29.1186,-0.173494 29.1149,0.493163 -0.00182979,0.333328 Z M 27.8054,-3.84742 35.7833,0.19643 27.7615,4.15246 Z"
         transform="matrix(1,0,0,-1,467.5,1242.7)"
         id="path9" /><text
         font-family="Calibri, Calibri_MSFontService, sans-serif"
         font-weight="400"
         font-size="17px"
         transform="translate(394.162,1106)"
         id="text9">BF Converging Vulnerabilities</text><text
         font-family="Calibri, Calibri_MSFontService, sans-serif"
         font-weight="400"
         font-size="17px"
         transform="translate(603.362,1106)"
         id="text10">Model</text><text
         fill="#7f7f7f"
         font-family="Calibri, Calibri_MSFontService, sans-serif"
         font-weight="400"
         font-size="12px"
         transform="translate(656.28,1485)"
         id="text11">BF,</text><text
         fill="#7f7f7f"
         font-family="Calibri, Calibri_MSFontService, sans-serif"
         font-weight="400"
         font-size="12px"
         transform="translate(673.947,1485)"
         id="text12">I.</text><text
         fill="#7f7f7f"
         font-family="Calibri, Calibri_MSFontService, sans-serif"
         font-weight="400"
         font-size="12px"
         transform="translate(682.613,1485)"
         id="text13">Bojanova, 2014</text><text
         fill="#7f7f7f"
         font-family="Calibri, Calibri_MSFontService, sans-serif"
         font-weight="400"
         font-size="12px"
         transform="translate(757.447,1485)"
         id="text14">-</text><text
         fill="#7f7f7f"
         font-family="Calibri, Calibri_MSFontService, sans-serif"
         font-weight="400"
         font-size="12px"
         transform="translate(761.113,1485)"
         id="text15">2023</text><path
         d="m 702.5,1439.5 41.5,-53 41.5,53 z"
         stroke="#7d3368"
         stroke-width="0.666667"
         stroke-linejoin="round"
         stroke-miterlimit="10"
         fill="#dfdaea"
         fill-rule="evenodd"
         id="path15" /><path
         d="m 523.5,1490.5 14.5,-23 14.5,23 z"
         stroke="#7d3368"
         stroke-width="0.666667"
         stroke-linejoin="round"
         stroke-miterlimit="10"
         fill="#dfdaea"
         fill-rule="evenodd"
         id="path16" /><text
         font-family="Calibri, Calibri_MSFontService, sans-serif"
         font-weight="400"
         font-size="16px"
         transform="translate(719.949,1430)"
         id="text16">Failure</text><text
         font-family="Calibri, Calibri_MSFontService, sans-serif"
         font-weight="400"
         font-size="11px"
         transform="translate(767.142,1433)"
         id="text17">K</text><text
         fill="#7d3368"
         font-family="Calibri, Calibri_MSFontService, sans-serif"
         font-weight="400"
         font-size="13px"
         transform="translate(283.57,1138)"
         id="text18">Cause</text><text
         fill="#7d3368"
         font-family="Calibri, Calibri_MSFontService, sans-serif"
         font-weight="400"
         font-size="13px"
         transform="translate(505.317,1218)"
         id="text19">Consequence</text><rect
         x="413"
         y="1273"
         width="53"
         height="24"
         fill="#ffffff"
         id="rect19" /><text
         font-family="Calibri, Calibri_MSFontService, sans-serif"
         font-weight="400"
         font-size="24px"
         transform="translate(431.133,1293)"
         id="text20">…</text><path
         d="m 0.0239619,-0.332471 6.9374981,0.5 6.91644,1.380611 6.7874,2.19726 6.6621,3.07703 6.4041,3.76527 6.0886,4.392 5.8363,5.0814 5.3958,5.5823 5.0175,6.082 4.516,6.4586 3.9536,6.9003 3.3255,7.1502 2.76,7.399 1.9481,7.5963 1.2927,8.7935 -0.6596,0.0968 -1.2789,-8.7249 -1.9269,-7.5287 -2.74,-7.351 -3.2995,-7.0998 -3.9214,-6.8497 -4.484,-6.4164 -4.9825,-6.043 -5.3542,-5.5427 -5.7887,-5.0436 -6.0364,-4.358 L 27.0476,7.42757 20.4597,4.3796 13.7471,2.20186 6.91354,0.832471 l -6.9375019,-0.5 z M 77.451,74.5067 73.9258,82.7269 69.4647,74.9746 Z"
         transform="matrix(1,0,0,-1,596.5,1420.23)"
         id="path20" /><path
         d="m 671,1308.5 v 29 M 657.5,1323 h 27"
         stroke="#44546a"
         stroke-linejoin="round"
         stroke-miterlimit="10"
         fill="none"
         fill-rule="evenodd"
         id="path21" /><path
         d="m 657.5,1323 c 0,-8.01 6.044,-14.5 13.5,-14.5 7.456,0 13.5,6.49 13.5,14.5 0,8.01 -6.044,14.5 -13.5,14.5 -7.456,0 -13.5,-6.49 -13.5,-14.5 z"
         stroke="#44546a"
         stroke-linejoin="round"
         stroke-miterlimit="10"
         fill="none"
         fill-rule="evenodd"
         id="path22" /><path
         d="m 684.522,1323.17 5.625,0.37 5.603,1.07 5.474,1.7 5.408,2.32 5.156,2.89 4.963,3.39 4.711,3.9 4.395,4.26 4.022,4.71 3.701,4.96 3.205,5.27 2.702,5.53 2.199,5.65 1.635,5.85 0.763,5.18 -0.66,0.1 -0.745,-5.11 -1.615,-5.78 -2.176,-5.6 -2.673,-5.47 -3.17,-5.22 -3.673,-4.92 -3.979,-4.67 -4.355,-4.23 -4.664,-3.86 -4.912,-3.36 -5.094,-2.86 -5.342,-2.3 -5.401,-1.68 -5.522,-1.05 -5.625,-0.38 z m 63.116,55.46 -3.365,8.29 -4.611,-7.66 z"
         id="path23" /><path
         d="m 502,1406 c 0,-3.87 3.134,-7 7,-7 h 80 c 3.866,0 7,3.13 7,7 v 28 c 0,3.87 -3.134,7 -7,7 h -80 c -3.866,0 -7,-3.13 -7,-7 z"
         fill="#dfdaea"
         fill-rule="evenodd"
         id="path24" /><text
         font-family="Calibri, Calibri_MSFontService, sans-serif"
         font-weight="400"
         font-size="16px"
         transform="translate(512.847,1426)"
         id="text24">Final Error</text><text
         font-family="Calibri, Calibri_MSFontService, sans-serif"
         font-weight="400"
         font-size="11px"
         transform="translate(583.42,1429)"
         id="text25">j</text><path
         d="m 281,1326.83 c 0,-3.77 3.059,-6.83 6.833,-6.83 h 80.334 c 3.774,0 6.833,3.06 6.833,6.83 v 27.34 c 0,3.77 -3.059,6.83 -6.833,6.83 h -80.334 c -3.774,0 -6.833,-3.06 -6.833,-6.83 z"
         fill="#e8effc"
         fill-rule="evenodd"
         id="path25" /><text
         font-family="Calibri, Calibri_MSFontService, sans-serif"
         font-weight="400"
         font-size="16px"
         transform="translate(312.927,1346)"
         id="text26">Bug</text><text
         font-family="Calibri, Calibri_MSFontService, sans-serif"
         font-weight="400"
         font-size="11px"
         transform="translate(341.093,1349)"
         id="text27">j</text><path
         d="m 0.0322553,0.331769 -4.4999953,0.4375 0.06479,-0.012878 -4.3125,1.312499 0.04644,-0.01802 -4.06249,1.9375 0.052,-0.03089 -3.625,2.625 0.0378,-0.03186 -3.0625,3 0.0393,-0.04629 -2.375,3.37497 0.0354,-0.0644 -1.5,3.6251 0.0216,-0.0781 -0.5625,3.75 -0.0075,-0.1353 0.25,0.9375 -0.0702,-0.1324 0.8125,0.9375 -0.0582,-0.0529 1.3125,0.9375 1.7137,0.9149 2.2134,0.8581 2.6765,0.9335 3.1659,0.8683 3.49805,0.9369 3.9801,0.8078 4.374022,0.8748 9.741478,1.6859 11.11455,1.5609 12.3671,1.4365 13.4329,1.3745 14.3685,1.1869 15.1834,1.0622 15.8089,0.9372 16.3688,0.6873 16.81,0.5624 34.243,0.4373 34.25,0.4375 16.757,0.5627 16.379,0.7501 15.878,0.8752 15.13,1.0628 14.381,1.2504 13.442,1.3755 12.38,1.438 11.133,1.5635 9.76,1.6891 4.379,0.8133 4.011,0.8771 3.576,0.9407 3.13,0.8764 2.707,0.9438 2.261,0.879 1.787,0.9544 1.349,0.9601 c 0.021,0.0152 0.041,0.033 0.058,0.0529 l 0.812,0.9375 c 0.034,0.0382 0.057,0.0835 0.071,0.1324 l 0.25,0.9375 c 0.011,0.0441 0.014,0.0902 0.007,0.1353 l -0.562,3.75 c -0.004,0.0268 -0.012,0.053 -0.022,0.078 l -1.5,3.625 c -0.009,0.0227 -0.021,0.0443 -0.035,0.0644 l -2.375,3.375 c -0.012,0.0166 -0.025,0.0321 -0.04,0.0463 l -3.062,3 c -0.013,0.0125 -0.027,0.0238 -0.041,0.0341 l -3.625,2.5625 c -0.014,0.0101 -0.03,0.0191 -0.045,0.0268 l -4.063,2 c -0.023,0.0117 -0.048,0.0204 -0.074,0.0262 l -2.278,0.5125 -0.147,-0.6504 2.279,-0.5125 -0.074,0.0261 4.062,-2 -0.045,0.0269 3.625,-2.5625 -0.041,0.0341 3.063,-3 -0.04,0.0463 2.375,-3.375 -0.035,0.0644 1.5,-3.625 -0.022,0.078 0.563,-3.75 0.007,0.1353 -0.25,-0.9375 0.071,0.1324 -0.813,-0.9375 0.058,0.0529 -1.276,-0.9149 -1.713,-0.9206 -2.239,-0.871 -2.668,-0.9312 -3.12,-0.8736 -3.549,-0.9343 -3.989,-0.8729 -4.371,-0.8118 -9.74,-1.6858 -11.117,-1.5615 -12.37,-1.437 -13.433,-1.3745 -14.369,-1.2496 -15.12,-1.0622 -15.872,-0.8748 -16.371,-0.7499 -16.743,-0.5623 -34.25,-0.4375 L 125.364,39.9581 108.549,39.3955 92.1678,38.7077 76.3517,37.77 61.1601,36.7072 46.7786,35.5191 33.3365,34.1436 20.9536,32.7051 9.81815,31.141 0.059628,29.4519 -4.31635,28.5767 l -4.01989,-0.8172 -3.50196,-0.9381 -3.2091,-0.8817 -2.6985,-0.9415 -2.2866,-0.8919 -1.7863,-0.9601 -1.3125,-0.9375 c -0.0215,-0.0152 -0.041,-0.033 -0.0582,-0.0529 l -0.8125,-0.9375 c -0.0331,-0.0382 -0.0571,-0.0835 -0.0702,-0.1324 l -0.25,-0.9375 c -0.0117,-0.0441 -0.0143,-0.0902 -0.0075,-0.1353 l 0.5625,-3.75 c 0.004,-0.0268 0.0112,-0.053 0.0216,-0.0781 l 1.5,-3.625 c 0.0094,-0.0226 0.0213,-0.0442 0.0354,-0.0643 l 2.375,-3.37503 c 0.0117,-0.0166 0.0248,-0.03209 0.0393,-0.04629 l 3.0625,-3 c 0.0118,-0.01155 0.0244,-0.02218 0.0378,-0.03186 l 3.625,-2.625 c 0.0164,-0.01186 0.0338,-0.02218 0.052,-0.03089 l 4.06251,-1.9375 c 0.01501,-0.00716 0.03053,-0.01318 0.04644,-0.01802 l 4.3125,-1.312501 c 0.02111,-0.006426 0.04283,-0.010743 0.06479,-0.012878 l 4.5000047,-0.4375 z M 327.732,82.656 l -8.575,-2.5427 7.179,-5.3346 z"
         transform="matrix(-1,0,0,1,597.657,1340.5)"
         id="path27" /><rect
         x="413"
         y="1361"
         width="53"
         height="25"
         fill="#ffffff"
         id="rect27" /><text
         font-family="Calibri, Calibri_MSFontService, sans-serif"
         font-weight="400"
         font-size="24px"
         transform="translate(431.133,1381)"
         id="text28">…</text><path
         d="m 375.501,1341.17 29.143,0.08 -0.002,0.67 -29.143,-0.09 z m 27.82,-3.59 7.989,4.02 -8.012,3.98 z"
         id="path28" /><path
         d="M 0.00182979,-0.333328 29.1186,-0.173494 29.1149,0.493163 -0.00182979,0.333328 Z M 27.8054,-3.84742 35.7833,0.19643 27.7615,4.15246 Z"
         transform="matrix(1,0,0,-1,467.5,1420.7)"
         id="path29" /><text
         fill="#7d3368"
         font-family="Calibri, Calibri_MSFontService, sans-serif"
         font-weight="400"
         font-size="13px"
         transform="translate(283.546,1318)"
         id="text29">Cause</text><text
         fill="#7d3368"
         font-family="Calibri, Calibri_MSFontService, sans-serif"
         font-weight="400"
         font-size="13px"
         transform="translate(504.541,1396)"
         id="text30">Consequence</text><rect
         x="413"
         y="1182"
         width="53"
         height="24"
         fill="#ffffff"
         id="rect30" /><text
         font-family="Calibri, Calibri_MSFontService, sans-serif"
         font-weight="400"
         font-size="24px"
         transform="translate(431.133,1202)"
         id="text31">…</text><text
         font-family="Calibri, Calibri_MSFontService, sans-serif"
         font-weight="400"
         font-size="24px"
         transform="translate(573.628,1162)"
         id="text32">…</text><text
         font-family="Calibri, Calibri_MSFontService, sans-serif"
         font-weight="400"
         font-size="24px"
         transform="translate(573.939,1341)"
         id="text33">…</text></g></g></svg>
