<?xml version="1.0" encoding="UTF-8" standalone="no"?>
<!-- Created with Inkscape (http://www.inkscape.org/) -->

<svg
   width="260.70462mm"
   height="106.38248mm"
   viewBox="0 0 260.7046 106.38249"
   version="1.1"
   id="svg1"
   inkscape:version="1.3.2 (091e20e, 2023-11-25, custom)"
   sodipodi:docname="BF Causation.svg"
   xmlns:inkscape="http://www.inkscape.org/namespaces/inkscape"
   xmlns:sodipodi="http://sodipodi.sourceforge.net/DTD/sodipodi-0.dtd"
   xmlns="http://www.w3.org/2000/svg"
   xmlns:svg="http://www.w3.org/2000/svg">
  <sodipodi:namedview
     id="namedview1"
     pagecolor="#ffffff"
     bordercolor="#000000"
     borderopacity="0.25"
     inkscape:showpageshadow="2"
     inkscape:pageopacity="0.0"
     inkscape:pagecheckerboard="0"
     inkscape:deskcolor="#d1d1d1"
     inkscape:document-units="mm"
     inkscape:zoom="1.0146815"
     inkscape:cx="492.76545"
     inkscape:cy="201.54107"
     inkscape:window-width="2560"
     inkscape:window-height="1377"
     inkscape:window-x="-8"
     inkscape:window-y="859"
     inkscape:window-maximized="1"
     inkscape:current-layer="layer1" />
  <defs
     id="defs1">
    <clipPath
       id="clip0">
      <rect
         x="34"
         y="5"
         width="992"
         height="381"
         id="rect1" />
    </clipPath>
    <clipPath
       id="clip0-5">
      <rect
         x="34"
         y="5"
         width="992"
         height="381"
         id="rect1-5" />
    </clipPath>
    <clipPath
       id="clip0-1">
      <rect
         x="48"
         y="451"
         width="947"
         height="499"
         id="rect1-6" />
    </clipPath>
    <clipPath
       id="clip0-58">
      <rect
         x="6"
         y="1144"
         width="1980"
         height="633"
         id="rect1-51" />
    </clipPath>
    <clipPath
       id="clip0-59">
      <rect
         x="120"
         y="1881"
         width="1066"
         height="1213"
         id="rect1-9" />
    </clipPath>
    <clipPath
       id="clip0-9">
      <rect
         x="177"
         y="186"
         width="943"
         height="455"
         id="rect1-2" />
    </clipPath>
    <clipPath
       id="clip0-52">
      <rect
         x="139"
         y="1987"
         width="842"
         height="172"
         id="rect1-8" />
    </clipPath>
    <clipPath
       id="clip0-8">
      <rect
         x="34"
         y="5"
         width="992"
         height="381"
         id="rect1-7" />
    </clipPath>
    <clipPath
       id="clip0-2">
      <rect
         x="48"
         y="451"
         width="947"
         height="499"
         id="rect1-97" />
    </clipPath>
    <clipPath
       id="clip0-6">
      <rect
         x="177"
         y="186"
         width="943"
         height="455"
         id="rect1-0" />
    </clipPath>
    <clipPath
       id="clip0-60">
      <rect
         x="45"
         y="863"
         width="1055"
         height="417"
         id="rect1-1" />
    </clipPath>
    <clipPath
       id="clip0-23">
      <rect
         x="177"
         y="186"
         width="943"
         height="455"
         id="rect1-4" />
    </clipPath>
    <clipPath
       id="clip0-600">
      <rect
         x="133"
         y="186"
         width="987"
         height="455"
         id="rect1-24" />
    </clipPath>
    <clipPath
       id="clip0-27">
      <rect
         x="-31"
         y="5"
         width="1057"
         height="381"
         id="rect1-10" />
    </clipPath>
    <clipPath
       id="clip0-17">
      <rect
         x="48"
         y="451"
         width="947"
         height="499"
         id="rect1-23" />
    </clipPath>
    <clipPath
       id="clip0-11">
      <rect
         x="127"
         y="18"
         width="986"
         height="424"
         id="rect1-07" />
    </clipPath>
  </defs>
  <g
     inkscape:label="Layer 1"
     inkscape:groupmode="layer"
     id="layer1"
     transform="translate(25.006126,-94.990009)">
    <g
       clip-path="url(#clip0-11)"
       transform="matrix(0.26458333,0,0,0.26458333,-58.738648,86.058255)"
       id="g74">
      <path
         d="m 944.5,405.5 84,-135 84,135 z"
         stroke="#7d3368"
         stroke-width="0.666667"
         stroke-linejoin="round"
         stroke-miterlimit="10"
         fill="#dfdaea"
         fill-rule="evenodd"
         id="path1" />
      <text
         font-family="'Calibri Light', 'Calibri Light_MSFontService', sans-serif"
         font-weight="300"
         font-size="16px"
         transform="translate(1006.77,357)"
         id="text1">Failure</text>
      <text
         fill="#7f7f7f"
         font-family="'Calibri Light', 'Calibri Light_MSFontService', sans-serif"
         font-weight="300"
         font-size="13px"
         transform="translate(959.633,429)"
         id="text2">BF, I. Bojanova</text>
      <text
         fill="#7f7f7f"
         font-family="'Calibri Light', 'Calibri Light_MSFontService', sans-serif"
         font-weight="300"
         font-size="13px"
         transform="translate(1038.63,429)"
         id="text3">,</text>
      <text
         fill="#7f7f7f"
         font-family="'Calibri Light', 'Calibri Light_MSFontService', sans-serif"
         font-weight="300"
         font-size="13px"
         transform="translate(1044.97,429)"
         id="text4">2014</text>
      <text
         fill="#7f7f7f"
         font-family="'Calibri Light', 'Calibri Light_MSFontService', sans-serif"
         font-weight="300"
         font-size="13px"
         transform="translate(1072.3,429)"
         id="text5">-</text>
      <text
         fill="#7f7f7f"
         font-family="'Calibri Light', 'Calibri Light_MSFontService', sans-serif"
         font-weight="300"
         font-size="13px"
         transform="translate(1076.3,429)"
         id="text6">2024</text>
      <path
         d="m 733,346.5 c 0,-41.145 33.355,-74.5 74.5,-74.5 41.145,0 74.5,33.355 74.5,74.5 0,41.145 -33.355,74.5 -74.5,74.5 -41.145,0 -74.5,-33.355 -74.5,-74.5 z"
         fill="#dfdaea"
         fill-rule="evenodd"
         id="path6" />
      <text
         font-family="'Calibri Light', 'Calibri Light_MSFontService', sans-serif"
         font-weight="300"
         font-size="16px"
         transform="translate(758.383,328)"
         id="text7">Improper</text>
      <text
         font-family="'Calibri Light', 'Calibri Light_MSFontService', sans-serif"
         font-weight="300"
         font-size="16px"
         transform="translate(822.07,328)"
         id="text8">State</text>
      <text
         font-family="'Calibri Light', 'Calibri Light_MSFontService', sans-serif"
         font-weight="300"
         font-size="11px"
         transform="translate(854.697,331)"
         id="text9">l</text>
      <text
         font-family="'Calibri Light', 'Calibri Light_MSFontService', sans-serif"
         font-weight="300"
         font-size="16px"
         transform="translate(755.123,355)"
         id="text10">(</text>
      <text
         font-family="'Calibri Light', 'Calibri Light_MSFontService', sans-serif"
         font-weight="300"
         font-size="16px"
         transform="translate(761.457,355)"
         id="text11">operation</text>
      <text
         font-family="'Calibri Light', 'Calibri Light_MSFontService', sans-serif"
         font-weight="300"
         font-size="11px"
         transform="translate(823.99,358)"
         id="text12">l</text>
      <text
         font-family="'Calibri Light', 'Calibri Light_MSFontService', sans-serif"
         font-weight="300"
         font-size="16px"
         transform="translate(826.323,355)"
         id="text13">,</text>
      <text
         font-family="'Calibri Light', 'Calibri Light_MSFontService', sans-serif"
         font-weight="300"
         font-size="16px"
         transform="translate(833.823,355)"
         id="text14">…</text>
      <text
         fill="#7d3368"
         font-family="'Calibri Light', 'Calibri Light_MSFontService', sans-serif"
         font-weight="300"
         font-size="16px"
         transform="translate(766.03,374)"
         id="text15">operand</text>
      <text
         fill="#7d3368"
         font-family="'Calibri Light', 'Calibri Light_MSFontService', sans-serif"
         font-weight="300"
         font-size="11px"
         transform="translate(819.883,377)"
         id="text16">lr</text>
      <text
         font-family="'Calibri Light', 'Calibri Light_MSFontService', sans-serif"
         font-weight="300"
         font-size="16px"
         transform="translate(828.217,374)"
         id="text17">,</text>
      <text
         font-family="'Calibri Light', 'Calibri Light_MSFontService', sans-serif"
         font-weight="300"
         font-size="16px"
         transform="translate(835.717,374)"
         id="text18">... )</text>
      <text
         fill="#660066"
         font-family="'Calibri Light', 'Calibri Light_MSFontService', sans-serif"
         font-weight="300"
         font-size="16px"
         transform="translate(864.412,262)"
         id="text19">Exploitable</text>
      <text
         fill="#660066"
         font-family="'Calibri Light', 'Calibri Light_MSFontService', sans-serif"
         font-weight="300"
         font-size="16px"
         transform="translate(938.512,262)"
         id="text20">Error</text>
      <path
         d="m 808.171,271.892 0.632,-4.11 1.91,-4.074 2.975,-3.988 4.097,-3.844 4.965,-3.772 5.964,-3.578 6.708,-3.386 7.393,-3.132 8.079,-2.944 8.643,-2.63 9.139,-2.254 9.514,-2.002 9.889,-1.565 10.078,-1.19 10.265,-0.688 10.328,-0.25 10.328,0.25 10.264,0.688 10.077,1.127 9.888,1.502 9.515,1.878 9.139,2.253 8.64,2.505 8.08,2.818 7.389,3.07 6.71,3.26 5.96,3.452 4.97,3.584 4.1,3.783 2.99,3.879 0.49,1.496 -0.63,0.21 -0.48,-1.442 0.06,0.098 -2.94,-3.812 0.04,0.041 -4.07,-3.75 0.03,0.026 -4.93,-3.563 0.03,0.018 -5.94,-3.437 0.02,0.011 -6.69,-3.25 0.02,0.008 -7.375,-3.062 0.018,0.007 -8.063,-2.813 0.017,0.006 -8.625,-2.5 0.013,0.003 -9.125,-2.25 0.016,0.004 -9.5,-1.875 0.014,0.002 -9.875,-1.5 0.013,0.002 -10.062,-1.125 0.014,0.001 -10.25,-0.687 h 0.014 l -10.312,-0.25 h 0.016 l -10.312,0.25 h 0.014 l -10.25,0.687 0.017,-0.001 -10.063,1.187 0.013,-0.002 -9.875,1.563 0.017,-0.003 -9.5,2 0.011,-0.003 -9.125,2.25 0.017,-0.005 -8.625,2.625 0.017,-0.005 -8.062,2.937 0.016,-0.006 -7.375,3.125 0.02,-0.009 -6.688,3.375 0.022,-0.012 -5.938,3.562 0.03,-0.02 -4.937,3.75 0.026,-0.022 -4.062,3.812 0.039,-0.044 -2.938,3.938 0.035,-0.058 -1.875,4 0.028,-0.091 -0.625,4.063 z m 222.229,-10.22 -1.44,8.828 -6.2,-6.448 z"
         id="path20" />
      <path
         d="m 175,183.5 c 0,-41.145 33.131,-74.5 74,-74.5 40.869,0 74,33.355 74,74.5 0,41.145 -33.131,74.5 -74,74.5 -40.869,0 -74,-33.355 -74,-74.5 z"
         fill="#e8effc"
         fill-rule="evenodd"
         id="path21" />
      <text
         font-family="'Calibri Light', 'Calibri Light_MSFontService', sans-serif"
         font-weight="300"
         font-size="16px"
         transform="translate(198.165,156)"
         id="text21">Improper State</text>
      <text
         font-family="'Calibri Light', 'Calibri Light_MSFontService', sans-serif"
         font-weight="300"
         font-size="11px"
         transform="translate(294.478,159)"
         id="text22">1</text>
      <text
         font-family="'Calibri Light', 'Calibri Light_MSFontService', sans-serif"
         font-weight="300"
         font-size="16px"
         transform="translate(196.405,183)"
         id="text23">(</text>
      <text
         fill="#7d3368"
         font-family="'Calibri Light', 'Calibri Light_MSFontService', sans-serif"
         font-weight="300"
         font-size="16px"
         transform="translate(202.738,183)"
         id="text24">operation</text>
      <text
         fill="#7d3368"
         font-family="'Calibri Light', 'Calibri Light_MSFontService', sans-serif"
         font-weight="300"
         font-size="11px"
         transform="translate(265.271,186)"
         id="text25">1</text>
      <text
         font-family="'Calibri Light', 'Calibri Light_MSFontService', sans-serif"
         font-weight="300"
         font-size="16px"
         transform="translate(270.605,183)"
         id="text26">,</text>
      <text
         font-family="'Calibri Light', 'Calibri Light_MSFontService', sans-serif"
         font-weight="300"
         font-size="16px"
         transform="translate(202.738,202)"
         id="text27">operand</text>
      <text
         font-family="'Calibri Light', 'Calibri Light_MSFontService', sans-serif"
         font-weight="300"
         font-size="11px"
         transform="translate(256.591,205)"
         id="text28">11</text>
      <text
         font-family="'Calibri Light', 'Calibri Light_MSFontService', sans-serif"
         font-weight="300"
         font-size="16px"
         transform="translate(269.591,202)"
         id="text29">,</text>
      <text
         font-family="'Calibri Light', 'Calibri Light_MSFontService', sans-serif"
         font-weight="300"
         font-size="16px"
         transform="translate(277.091,202)"
         id="text30">...</text>
      <text
         font-family="'Calibri Light', 'Calibri Light_MSFontService', sans-serif"
         font-weight="300"
         font-size="16px"
         transform="translate(202.738,222)"
         id="text31">operand</text>
      <text
         font-family="'Calibri Light', 'Calibri Light_MSFontService', sans-serif"
         font-weight="300"
         font-size="11px"
         transform="translate(256.591,225)"
         id="text32">1i</text>
      <text
         font-family="'Calibri Light', 'Calibri Light_MSFontService', sans-serif"
         font-weight="300"
         font-size="16px"
         transform="translate(266.591,222)"
         id="text33">,</text>
      <text
         font-family="'Calibri Light', 'Calibri Light_MSFontService', sans-serif"
         font-weight="300"
         font-size="16px"
         transform="translate(274.091,222)"
         id="text34">... )</text>
      <path
         d="m 392,183.5 c 0,-41.145 33.131,-74.5 74,-74.5 40.869,0 74,33.355 74,74.5 0,41.145 -33.131,74.5 -74,74.5 -40.869,0 -74,-33.355 -74,-74.5 z"
         fill="#f4f2f8"
         fill-rule="evenodd"
         id="path34" />
      <text
         font-family="'Calibri Light', 'Calibri Light_MSFontService', sans-serif"
         font-weight="300"
         font-size="16px"
         transform="translate(415.062,166)"
         id="text35">Improper</text>
      <text
         font-family="'Calibri Light', 'Calibri Light_MSFontService', sans-serif"
         font-weight="300"
         font-size="16px"
         transform="translate(478.748,166)"
         id="text36">State</text>
      <text
         font-family="'Calibri Light', 'Calibri Light_MSFontService', sans-serif"
         font-weight="300"
         font-size="11px"
         transform="translate(511.375,169)"
         id="text37">2</text>
      <text
         font-family="'Calibri Light', 'Calibri Light_MSFontService', sans-serif"
         font-weight="300"
         font-size="16px"
         transform="translate(413.302,193)"
         id="text38">(</text>
      <text
         font-family="'Calibri Light', 'Calibri Light_MSFontService', sans-serif"
         font-weight="300"
         font-size="16px"
         transform="translate(419.635,193)"
         id="text39">operation</text>
      <text
         font-family="'Calibri Light', 'Calibri Light_MSFontService', sans-serif"
         font-weight="300"
         font-size="11px"
         transform="translate(482.168,196)"
         id="text40">2</text>
      <text
         font-family="'Calibri Light', 'Calibri Light_MSFontService', sans-serif"
         font-weight="300"
         font-size="16px"
         transform="translate(487.502,193)"
         id="text41">,</text>
      <text
         font-family="'Calibri Light', 'Calibri Light_MSFontService', sans-serif"
         font-weight="300"
         font-size="16px"
         transform="translate(495.002,193)"
         id="text42">…,</text>
      <text
         fill="#7d3368"
         font-family="'Calibri Light', 'Calibri Light_MSFontService', sans-serif"
         font-weight="300"
         font-size="16px"
         transform="translate(423.288,212)"
         id="text43">operand</text>
      <text
         fill="#7d3368"
         font-family="'Calibri Light', 'Calibri Light_MSFontService', sans-serif"
         font-weight="300"
         font-size="11px"
         transform="translate(477.142,215)"
         id="text44">2j</text>
      <text
         font-family="'Calibri Light', 'Calibri Light_MSFontService', sans-serif"
         font-weight="300"
         font-size="16px"
         transform="translate(487.308,212)"
         id="text45">,</text>
      <text
         font-family="'Calibri Light', 'Calibri Light_MSFontService', sans-serif"
         font-weight="300"
         font-size="16px"
         transform="translate(494.808,212)"
         id="text46">... )</text>
      <text
         font-family="'Calibri Light', 'Calibri Light_MSFontService', sans-serif"
         font-weight="300"
         font-size="16px"
         transform="translate(326.952,90)"
         id="text47">Results in</text>
      <text
         fill="#7d3368"
         font-family="'Calibri Light', 'Calibri Light_MSFontService', sans-serif"
         font-weight="300"
         font-size="16px"
         transform="translate(293.692,109)"
         id="text48">Improper Operand</text>
      <text
         fill="#7d3368"
         font-family="'Calibri Light', 'Calibri Light_MSFontService', sans-serif"
         font-weight="300"
         font-size="11px"
         transform="translate(413.398,112)"
         id="text49">2j</text>
      <path
         d="m 250.171,110.782 0.632,-4.045 1.846,-4.075 2.976,-3.9253 3.971,-3.8451 4.966,-3.7089 5.775,-3.5782 6.648,-3.3237 7.33,-3.1325 7.891,-2.8809 8.517,-2.6302 9.015,-2.2539 9.389,-1.9403 9.639,-1.5648 9.953,-1.1893 10.078,-0.6886 L 359,67.75 l 10.141,0.2503 10.077,0.6885 9.951,1.1266 9.702,1.5022 9.389,1.8778 8.952,2.191 8.516,2.5048 7.954,2.8184 7.268,3.0073 6.647,3.2608 5.774,3.452 4.966,3.5833 3.973,3.7206 2.99,3.8804 0.451,1.414 -0.636,0.202 -0.433,-1.358 0.054,0.102 -2.938,-3.8122 0.037,0.0399 -3.938,-3.6875 0.033,0.027 -4.938,-3.5625 0.024,0.0158 -5.75,-3.4375 0.025,0.0132 -6.625,-3.25 0.019,0.0087 -7.25,-3 0.016,0.0062 -7.937,-2.8125 0.017,0.0056 -8.5,-2.5 0.015,0.004 -8.938,-2.1875 0.014,0.003 -9.375,-1.875 0.015,0.0026 -9.688,-1.5 0.014,0.0018 -9.938,-1.125 0.015,0.0014 -10.063,-0.6875 0.015,6e-4 -10.125,-0.25 h 0.016 l -10.187,0.25 0.014,-6e-4 -10.062,0.6875 0.017,-0.0016 -9.938,1.1875 0.014,-0.002 -9.625,1.5625 0.014,-0.0026 -9.375,1.9375 0.013,-0.003 -9,2.25 0.018,-0.0049 -8.5,2.625 0.016,-0.0054 -7.875,2.875 0.017,-0.0066 -7.313,3.125 0.018,-0.0084 -6.625,3.3125 0.027,-0.0148 -5.75,3.5625 0.023,-0.0162 -4.937,3.6875 0.032,-0.0276 -3.937,3.8125 0.034,-0.0381 -2.938,3.8752 0.038,-0.064 -1.812,4 0.025,-0.086 -0.625,4 z m 218.692,-10.105 -1.466,8.823 -6.179,-6.466 z"
         id="path49" />
      <text
         font-family="'Calibri Light', 'Calibri Light_MSFontService', sans-serif"
         font-weight="300"
         font-size="15px"
         transform="translate(179.599,342)"
         id="text50">Propagation</text>
      <text
         font-family="'Calibri Light', 'Calibri Light_MSFontService', sans-serif"
         font-weight="300"
         font-size="15px"
         transform="translate(254.599,342)"
         id="text51">State</text>
      <text
         font-family="'Calibri Light', 'Calibri Light_MSFontService', sans-serif"
         font-weight="300"
         font-size="15px"
         transform="translate(288.266,342)"
         id="text52">–</text>
      <text
         font-family="'Calibri Light', 'Calibri Light_MSFontService', sans-serif"
         font-weight="300"
         font-size="15px"
         transform="translate(298.932,342)"
         id="text53">caused by at least one improper operand</text>
      <text
         font-family="'Calibri Light', 'Calibri Light_MSFontService', sans-serif"
         font-weight="300"
         font-size="15px"
         transform="translate(179.599,301)"
         id="text54">Initial State</text>
      <text
         font-family="'Calibri Light', 'Calibri Light_MSFontService', sans-serif"
         font-weight="300"
         font-size="15px"
         transform="translate(248.933,301)"
         id="text55">–</text>
      <text
         font-family="'Calibri Light', 'Calibri Light_MSFontService', sans-serif"
         font-weight="300"
         font-size="15px"
         transform="translate(259.599,301)"
         id="text56">caused by the</text>
      <text
         font-family="'Calibri Light', 'Calibri Light_MSFontService', sans-serif"
         font-weight="300"
         font-size="15px"
         transform="translate(344.599,301)"
         id="text57">B</text>
      <text
         font-family="'Calibri Light', 'Calibri Light_MSFontService', sans-serif"
         font-weight="300"
         font-size="15px"
         transform="translate(352.433,301)"
         id="text58">ug</text>
      <text
         font-family="'Calibri Light', 'Calibri Light_MSFontService', sans-serif"
         font-weight="300"
         font-size="15px"
         transform="translate(370.266,301)"
         id="text59">–</text>
      <text
         font-family="'Calibri Light', 'Calibri Light_MSFontService', sans-serif"
         font-weight="300"
         font-size="15px"
         transform="translate(380.933,301)"
         id="text60">the operation is improper</text>
      <text
         font-family="'Calibri Light', 'Calibri Light_MSFontService', sans-serif"
         font-weight="300"
         font-size="15px"
         transform="translate(179.599,423)"
         id="text61">Failure</text>
      <text
         font-family="'Calibri Light', 'Calibri Light_MSFontService', sans-serif"
         font-weight="300"
         font-size="15px"
         transform="translate(222.599,423)"
         id="text62">–</text>
      <text
         font-family="'Calibri Light', 'Calibri Light_MSFontService', sans-serif"
         font-weight="300"
         font-size="15px"
         transform="translate(233.266,423)"
         id="text63">the result of a final error exploit</text>
      <path
         d="m 131,337 c 0,-9.941 8.283,-18 18.5,-18 10.217,0 18.5,8.059 18.5,18 0,9.941 -8.283,18 -18.5,18 -10.217,0 -18.5,-8.059 -18.5,-18 z"
         fill="#f4f2f8"
         fill-rule="evenodd"
         id="path63" />
      <path
         d="m 131,296 c 0,-9.941 8.283,-18 18.5,-18 10.217,0 18.5,8.059 18.5,18 0,9.941 -8.283,18 -18.5,18 -10.217,0 -18.5,-8.059 -18.5,-18 z"
         fill="#e8effc"
         fill-rule="evenodd"
         id="path64" />
      <text
         font-family="'Calibri Light', 'Calibri Light_MSFontService', sans-serif"
         font-weight="300"
         font-size="15px"
         transform="translate(179.599,388)"
         id="text64">Final State</text>
      <text
         font-family="'Calibri Light', 'Calibri Light_MSFontService', sans-serif"
         font-weight="300"
         font-size="15px"
         transform="translate(244.099,388)"
         id="text65">–</text>
      <text
         font-family="'Calibri Light', 'Calibri Light_MSFontService', sans-serif"
         font-weight="300"
         font-size="15px"
         transform="translate(254.766,388)"
         id="text66">results in</text>
      <text
         font-family="'Calibri Light', 'Calibri Light_MSFontService', sans-serif"
         font-weight="300"
         font-size="15px"
         transform="translate(311.433,388)"
         id="text67">an</text>
      <text
         font-family="'Calibri Light', 'Calibri Light_MSFontService', sans-serif"
         font-weight="300"
         font-size="15px"
         transform="translate(329.266,388)"
         id="text68">e</text>
      <text
         font-family="'Calibri Light', 'Calibri Light_MSFontService', sans-serif"
         font-weight="300"
         font-size="15px"
         transform="translate(336.433,388)"
         id="text69">xploitable</text>
      <text
         font-family="'Calibri Light', 'Calibri Light_MSFontService', sans-serif"
         font-weight="300"
         font-size="15px"
         transform="translate(397.266,388)"
         id="text70">error</text>
      <path
         d="m 131,378 c 0,-9.941 8.283,-18 18.5,-18 10.217,0 18.5,8.059 18.5,18 0,9.941 -8.283,18 -18.5,18 -10.217,0 -18.5,-8.059 -18.5,-18 z"
         fill="#dfdaea"
         fill-rule="evenodd"
         id="path70" />
      <path
         d="m 128.5,435.5 21.5,-34 21.5,34 z"
         stroke="#7d3368"
         stroke-width="0.666667"
         stroke-linejoin="round"
         stroke-miterlimit="10"
         fill="#dfdaea"
         fill-rule="evenodd"
         id="path71" />
      <rect
         x="633"
         y="217"
         width="53"
         height="24"
         fill="#ffffff"
         id="rect71" />
      <text
         font-family="'Calibri Light', 'Calibri Light_MSFontService', sans-serif"
         font-weight="300"
         font-size="24px"
         transform="translate(651.096,237)"
         id="text71">…</text>
      <text
         font-family="'Calibri Light', 'Calibri Light_MSFontService', sans-serif"
         font-weight="300"
         font-size="16px"
         transform="translate(578.324,44)"
         id="text72">BF</text>
      <text
         font-family="'Calibri Light', 'Calibri Light_MSFontService', sans-serif"
         font-weight="300"
         font-size="16px"
         transform="translate(597.824,44)"
         id="text73">Causation</text>
      <path
         d="m 127.507,68.1668 11.382,0.2501 11.325,0.6883 11.137,1.0637 10.889,1.5018 10.512,1.8773 10.075,2.1901 9.576,2.441 8.891,2.7551 8.205,3.0061 7.394,3.196 6.523,3.3868 5.593,3.519 4.474,3.7181 3.309,3.7538 0.51,1.398 -0.626,0.229 -0.489,-1.339 0.063,0.106 -3.25,-3.6875 0.037,0.0359 -4.438,-3.6875 0.036,0.0258 -5.562,-3.5 0.023,0.0137 -6.5,-3.375 0.022,0.0101 -7.375,-3.1875 0.017,0.007 -8.187,-3 0.016,0.0055 -8.875,-2.75 0.016,0.0046 -9.562,-2.4375 0.011,0.0027 -10.062,-2.1875 0.012,0.0024 -10.5,-1.875 0.013,0.0021 -10.875,-1.5 0.014,0.0016 -11.125,-1.0625 0.011,9e-4 -11.312,-0.6875 0.013,5e-4 -11.375,-0.25 z m 122.808,32.2692 -1.103,8.876 -6.439,-6.209 z"
         id="path73" />
      <text
         fill="#7d3368"
         font-family="'Calibri Light', 'Calibri Light_MSFontService', sans-serif"
         font-weight="300"
         font-size="16px"
         transform="translate(147.629,104)"
         id="text74">Bug</text>
    </g>
  </g>
</svg>
