<?xml version="1.0" encoding="UTF-8" standalone="no"?>
<!-- Created with Inkscape (http://www.inkscape.org/) -->

<svg
   version="1.1"
   id="svg574"
   width="912"
   height="309.80402"
   viewBox="0 0 912 309.80402"
   sodipodi:docname="BF Chain.svg"
   inkscape:version="1.3 (0e150ed6c4, 2023-07-21)"
   xmlns:inkscape="http://www.inkscape.org/namespaces/inkscape"
   xmlns:sodipodi="http://sodipodi.sourceforge.net/DTD/sodipodi-0.dtd"
   xmlns="http://www.w3.org/2000/svg"
   xmlns:svg="http://www.w3.org/2000/svg">
  <defs
     id="defs578">
    <clipPath
       clipPathUnits="userSpaceOnUse"
       id="clipPath594">
      <path
         d="M 0,0 H 717 V 334 H 0 Z"
         id="path592" />
    </clipPath>
    <clipPath
       id="clip0">
      <rect
         x="104"
         y="143"
         width="985"
         height="489"
         id="rect685" />
    </clipPath>
    <clipPath
       id="clip0-9">
      <rect
         x="122"
         y="272"
         width="912"
         height="352"
         id="rect908" />
    </clipPath>
    <clipPath
       id="clip0-4">
      <rect
         x="122"
         y="272"
         width="912"
         height="317"
         id="rect1246" />
    </clipPath>
    <clipPath
       id="clip0-7">
      <rect
         x="122"
         y="272"
         width="928"
         height="352"
         id="rect1" />
    </clipPath>
    <clipPath
       id="clip0-6">
      <rect
         x="122"
         y="272"
         width="926"
         height="321"
         id="rect1-5" />
    </clipPath>
    <clipPath
       id="clip0-0">
      <rect
         x="122"
         y="272"
         width="919"
         height="321"
         id="rect1-4" />
    </clipPath>
  </defs>
  <sodipodi:namedview
     id="namedview576"
     pagecolor="#ffffff"
     bordercolor="#000000"
     borderopacity="0.25"
     inkscape:showpageshadow="2"
     inkscape:pageopacity="0.0"
     inkscape:pagecheckerboard="0"
     inkscape:deskcolor="#d1d1d1"
     showgrid="false"
     inkscape:zoom="1.5954864"
     inkscape:cx="455.66042"
     inkscape:cy="155.12511"
     inkscape:window-width="2560"
     inkscape:window-height="1377"
     inkscape:window-x="-8"
     inkscape:window-y="797"
     inkscape:window-maximized="1"
     inkscape:current-layer="g582">
    <inkscape:page
       x="0"
       y="0"
       id="page580"
       width="912"
       height="309.80402"
       margin="0"
       bleed="0" />
  </sodipodi:namedview>
  <g
     id="g582"
     inkscape:groupmode="layer"
     inkscape:label="Page 1"
     transform="matrix(1.3333333,0,0,1.3333333,-22.90448,-67.518958)">
    <g
       clip-path="url(#clip0-0)"
       transform="matrix(0.75000002,0,0,0.75000002,-74.321642,-153.50778)"
       id="g72">
      <path
         d="m 122,382.5 c 0,-37.279 31.788,-67.5 71,-67.5 39.212,0 71,30.221 71,67.5 0,37.279 -31.788,67.5 -71,67.5 -39.212,0 -71,-30.221 -71,-67.5 z"
         fill="#c1d6f7"
         fill-rule="evenodd"
         id="path1" />
      <text
         font-family="Calibri, Calibri_MSFontService, sans-serif"
         font-weight="700"
         font-size="16px"
         transform="translate(161.646,340)"
         id="text1">Improper</text>
      <text
         font-family="Calibri, Calibri_MSFontService, sans-serif"
         font-weight="700"
         font-size="16px"
         transform="translate(169.9,359)"
         id="text2">State 1</text>
      <text
         font-family="Calibri, Calibri_MSFontService, sans-serif"
         font-weight="400"
         font-size="16px"
         transform="translate(152.733,378)"
         id="text3">(</text>
      <text
         fill="#980000"
         font-family="Calibri, Calibri_MSFontService, sans-serif"
         font-weight="400"
         font-size="16px"
         transform="translate(157.566,378)"
         id="text4">operation 1</text>
      <text
         font-family="Calibri, Calibri_MSFontService, sans-serif"
         font-weight="400"
         font-size="16px"
         transform="translate(148.733,398)"
         id="text5">operand 1</text>
      <text
         font-family="Calibri, Calibri_MSFontService, sans-serif"
         font-weight="400"
         font-size="12px"
         transform="translate(215.233,402)"
         id="text6">1</text>
      <text
         font-family="Calibri, Calibri_MSFontService, sans-serif"
         font-weight="400"
         font-size="16px"
         transform="translate(225.233,398)"
         id="text7">...</text>
      <text
         font-family="Calibri, Calibri_MSFontService, sans-serif"
         font-weight="400"
         font-size="16px"
         transform="translate(158.313,417)"
         id="text8">operand 1</text>
      <text
         font-family="Calibri, Calibri_MSFontService, sans-serif"
         font-weight="400"
         font-size="12px"
         transform="translate(224.813,421)"
         id="text9">i</text>
      <text
         font-family="Calibri, Calibri_MSFontService, sans-serif"
         font-weight="400"
         font-size="16px"
         transform="translate(184.566,436)"
         id="text10">...)</text>
      <path
         d="m 123,381.5 c 0,-37.279 31.788,-67.5 71,-67.5 39.212,0 71,30.221 71,67.5 0,37.279 -31.788,67.5 -71,67.5 -39.212,0 -71,-30.221 -71,-67.5 z"
         fill="#e8effc"
         fill-rule="evenodd"
         id="path10" />
      <text
         font-family="Calibri, Calibri_MSFontService, sans-serif"
         font-weight="400"
         font-size="16px"
         transform="translate(163.288,339)"
         id="text11">Improper</text>
      <text
         font-family="Calibri, Calibri_MSFontService, sans-serif"
         font-weight="400"
         font-size="16px"
         transform="translate(171.042,358)"
         id="text12">State 1</text>
      <text
         font-family="Calibri, Calibri_MSFontService, sans-serif"
         font-weight="400"
         font-size="16px"
         transform="translate(153.542,377)"
         id="text13">(</text>
      <text
         fill="#980000"
         font-family="Calibri, Calibri_MSFontService, sans-serif"
         font-weight="400"
         font-size="16px"
         transform="translate(158.375,377)"
         id="text14">operation 1</text>
      <text
         font-family="Calibri, Calibri_MSFontService, sans-serif"
         font-weight="400"
         font-size="16px"
         transform="translate(149.542,397)"
         id="text15">operand 1</text>
      <text
         font-family="Calibri, Calibri_MSFontService, sans-serif"
         font-weight="400"
         font-size="12px"
         transform="translate(216.042,401)"
         id="text16">1</text>
      <text
         font-family="Calibri, Calibri_MSFontService, sans-serif"
         font-weight="400"
         font-size="16px"
         transform="translate(226.042,397)"
         id="text17">...</text>
      <text
         font-family="Calibri, Calibri_MSFontService, sans-serif"
         font-weight="400"
         font-size="16px"
         transform="translate(159.122,416)"
         id="text18">operand 1</text>
      <text
         font-family="Calibri, Calibri_MSFontService, sans-serif"
         font-weight="400"
         font-size="12px"
         transform="translate(225.622,420)"
         id="text19">i</text>
      <text
         font-family="Calibri, Calibri_MSFontService, sans-serif"
         font-weight="400"
         font-size="16px"
         transform="translate(185.375,435)"
         id="text20">...)</text>
      <text
         fill="#980000"
         font-family="Calibri, Calibri_MSFontService, sans-serif"
         font-weight="400"
         font-size="16px"
         transform="translate(457.252,294)"
         id="text21">Improper</text>
      <text
         fill="#980000"
         font-family="Calibri, Calibri_MSFontService, sans-serif"
         font-weight="400"
         font-size="16px"
         transform="translate(457.252,313)"
         id="text22">operand 3</text>
      <text
         fill="#980000"
         font-family="Calibri, Calibri_MSFontService, sans-serif"
         font-weight="400"
         font-size="11px"
         transform="translate(523.752,316)"
         id="text23">k</text>
      <text
         fill="#980000"
         font-family="Calibri, Calibri_MSFontService, sans-serif"
         font-weight="400"
         font-size="16px"
         transform="translate(274.391,294)"
         id="text24">Improper</text>
      <text
         fill="#980000"
         font-family="Calibri, Calibri_MSFontService, sans-serif"
         font-weight="400"
         font-size="16px"
         transform="translate(271.224,313)"
         id="text25">operand</text>
      <text
         fill="#980000"
         font-family="Calibri, Calibri_MSFontService, sans-serif"
         font-weight="400"
         font-size="13px"
         transform="translate(329.558,313)"
         id="text26">2</text>
      <text
         fill="#980000"
         font-family="Calibri, Calibri_MSFontService, sans-serif"
         font-weight="400"
         font-size="9px"
         transform="translate(336.391,315)"
         id="text27">j</text>
      <text
         fill="#980000"
         font-family="Calibri, Calibri_MSFontService, sans-serif"
         font-weight="400"
         font-size="16px"
         transform="translate(634.237,294)"
         id="text28">Improper</text>
      <text
         fill="#980000"
         font-family="Calibri, Calibri_MSFontService, sans-serif"
         font-weight="400"
         font-size="16px"
         transform="translate(634.237,313)"
         id="text29">operand n</text>
      <text
         fill="#980000"
         font-family="Calibri, Calibri_MSFontService, sans-serif"
         font-weight="400"
         font-size="11px"
         transform="translate(700.904,316)"
         id="text30">p</text>
      <path
         d="m 338,382.5 c 0,-37.279 31.788,-67.5 71,-67.5 39.212,0 71,30.221 71,67.5 0,37.279 -31.788,67.5 -71,67.5 -39.212,0 -71,-30.221 -71,-67.5 z"
         fill="#f4f2f8"
         fill-rule="evenodd"
         id="path30" />
      <text
         font-family="Calibri, Calibri_MSFontService, sans-serif"
         font-weight="400"
         font-size="16px"
         transform="translate(378.747,349)"
         id="text31">Improper</text>
      <text
         font-family="Calibri, Calibri_MSFontService, sans-serif"
         font-weight="400"
         font-size="16px"
         transform="translate(386.501,368)"
         id="text32">State 2</text>
      <text
         font-family="Calibri, Calibri_MSFontService, sans-serif"
         font-weight="400"
         font-size="16px"
         transform="translate(369.001,387)"
         id="text33">(operation 2</text>
      <text
         fill="#980000"
         font-family="Calibri, Calibri_MSFontService, sans-serif"
         font-weight="400"
         font-size="16px"
         transform="translate(374.501,407)"
         id="text34">operand 2</text>
      <text
         fill="#980000"
         font-family="Calibri, Calibri_MSFontService, sans-serif"
         font-weight="400"
         font-size="12px"
         transform="translate(441.001,411)"
         id="text35">j</text>
      <text
         font-family="Calibri, Calibri_MSFontService, sans-serif"
         font-weight="400"
         font-size="16px"
         transform="translate(400.834,426)"
         id="text36">...)</text>
      <path
         d="m 575.001,360.604 0.502,-8.279 1.446,-8.24 2.264,-8.049 3.144,-7.921 3.895,-7.603 4.586,-7.349 5.213,-6.909 5.715,-6.406 6.281,-5.967 6.72,-5.339 7.037,-4.711 7.417,-4.024 7.672,-3.207 7.862,-2.39 7.932,-1.511 8.055,-0.503 8.038,0.251 7.904,0.69 7.841,1.192 7.651,1.568 7.402,1.944 7.028,2.259 6.715,2.636 6.279,2.889 5.718,3.141 5.221,3.334 4.601,3.592 3.915,3.726 3.17,3.868 2.305,3.969 0.417,1.631 -0.968,0.248 -0.401,-1.564 0.052,0.127 -2.25,-3.875 0.046,0.066 -3.125,-3.812 0.042,0.045 -3.875,-3.687 0.037,0.032 -4.563,-3.563 0.039,0.027 -5.188,-3.312 0.029,0.017 -5.688,-3.125 0.032,0.016 -6.25,-2.875 0.026,0.011 -6.687,-2.625 0.03,0.01 -7,-2.25 0.025,0.008 -7.375,-1.938 0.027,0.007 -7.625,-1.563 0.025,0.005 -7.812,-1.188 0.032,0.004 -7.875,-0.687 0.027,0.001 -8,-0.25 0.047,-0.001 -8,0.5 0.063,-0.007 -7.875,1.5 0.052,-0.013 -7.813,2.375 0.047,-0.017 -7.625,3.187 0.046,-0.022 -7.375,4 0.04,-0.024 -7,4.688 0.033,-0.024 -6.688,5.312 0.033,-0.029 -6.25,5.938 0.029,-0.03 -5.687,6.375 0.026,-0.031 -5.188,6.875 0.025,-0.037 -4.562,7.313 0.021,-0.037 -3.875,7.562 0.019,-0.043 -3.125,7.875 0.017,-0.049 -2.25,8 0.011,-0.049 -1.437,8.187 0.006,-0.056 -0.5,8.25 z m 173.051,-53.807 -2.064,8.703 -5.724,-6.873 z"
         id="path36" />
      <path
         d="m 0.0639857,0.495889 -3.8749957,0.5 0.10321,-0.024675 -3.875,1.374996 0.08163,-0.03753 -3.81253,2.1875 0.0675,-0.04641 -3.75,3.0625 0.0462,-0.0429 -3.5625,3.75003 0.0307,-0.0355 -3.4375,4.375 0.0276,-0.0388 -3.25,5.0625 0.0172,-0.029 -3.0625,5.5625 0.0156,-0.0307 -2.8125,6.0625 0.0125,-0.0294 -2.5,6.4375 0.0135,-0.0397 -4.125,14 0.0104,-0.0416 -1.5,7.375 0.0046,-0.0261 -1.125,7.5625 0.0034,-0.0291 -0.6875,7.6875 0.0017,-0.0284 -0.25,7.75 -7e-4,-0.0483 0.5,7.75 -0.0075,-0.0597 1.4375,7.6875 -0.0145,-0.0579 2.375,7.5623 -0.0166,-0.045 3.125,7.375 -0.0228,-0.047 3.9375,7.125 -0.0239,-0.039 4.625,6.813 -0.0247,-0.034 5.25,6.5 -0.0317,-0.035 5.875,6 -0.0267,-0.026 6.31247,5.563 -0.03234,-0.026 6.8125,5.062 -0.03826,-0.026 7.1875,4.375 -0.03636,-0.02 7.49999,3.75 -0.0398,-0.018 7.75,3.063 -0.051,-0.017 7.9375,2.187 -0.0487,-0.01 8.0625,1.375 -0.0564,-0.007 1.415,0.079 -0.0555,0.998 -1.4433,-0.08 -8.1151,-1.384 -7.9876,-2.201 -7.7953,-3.081 -7.53811,-3.769 -7.22499,-4.397 -6.84774,-5.089 -6.34196,-5.589 -5.9046,-6.03 -5.278,-6.534 -4.6495,-6.849 -3.9612,-7.168 -3.1446,-7.421 -2.3912,-7.6142 -1.4485,-7.7465 -0.5035,-7.8043 0.2512,-7.7884 0.6901,-7.7162 1.1291,-7.5901 1.5069,-7.409 4.137,-14.0407 2.5134,-6.472 2.8265,-6.0927 3.0789,-5.5923 3.272,-5.0968 3.4667,-4.4122 3.6005,-3.78988 3.8062,-3.10846 3.88729,-2.23039 3.9678,-1.4079297 3.9279243,-0.5068293 z M 37.368,160.948 l 7.7659,4.438 -8.2096,3.55 z"
         transform="matrix(0,1,1,0,409.5,315.5)"
         id="path37" />
      <text
         font-family="Calibri, Calibri_MSFontService, sans-serif"
         font-weight="400"
         font-size="27px"
         transform="translate(565.46,390)"
         id="text37">…</text>
      <path
         d="m 674,382.5 c 0,-37.279 31.788,-67.5 71,-67.5 39.212,0 71,30.221 71,67.5 0,37.279 -31.788,67.5 -71,67.5 -39.212,0 -71,-30.221 -71,-67.5 z"
         fill="#dfdaea"
         fill-rule="evenodd"
         id="path38" />
      <text
         font-family="Calibri, Calibri_MSFontService, sans-serif"
         font-weight="400"
         font-size="16px"
         transform="translate(714.619,338)"
         id="text38">Improper</text>
      <text
         font-family="Calibri, Calibri_MSFontService, sans-serif"
         font-weight="400"
         font-size="16px"
         transform="translate(722.286,357)"
         id="text39">State n</text>
      <text
         font-family="Calibri, Calibri_MSFontService, sans-serif"
         font-weight="400"
         font-size="16px"
         transform="translate(704.786,377)"
         id="text40">(operation n</text>
      <text
         font-family="Calibri, Calibri_MSFontService, sans-serif"
         font-weight="400"
         font-size="16px"
         transform="translate(736.452,396)"
         id="text41">…z</text>
      <text
         fill="#980000"
         font-family="Calibri, Calibri_MSFontService, sans-serif"
         font-weight="400"
         font-size="16px"
         transform="translate(708.539,417)"
         id="text42">operand n</text>
      <text
         fill="#980000"
         font-family="Calibri, Calibri_MSFontService, sans-serif"
         font-weight="400"
         font-size="12px"
         transform="translate(775.206,421)"
         id="text43">p</text>
      <text
         font-family="Calibri, Calibri_MSFontService, sans-serif"
         font-weight="400"
         font-size="16px"
         transform="translate(736.706,437)"
         id="text44">...)</text>
      <path
         d="m 745.006,315.58 0.636,-4.07 1.928,-4.112 2.995,-3.951 4.113,-3.861 4.982,-3.72 5.975,-3.522 6.717,-3.39 7.404,-3.138 8.089,-2.884 8.649,-2.57 9.146,-2.255 9.521,-1.942 9.896,-1.565 10.084,-1.191 10.274,-0.689 10.335,-0.25 10.334,0.25 10.268,0.627 10.084,1.002 9.833,1.44 9.519,1.754 9.144,2.067 8.646,2.318 8.089,2.57 7.401,2.886 6.715,3.012 5.975,3.208 4.981,3.341 4.133,3.497 3.174,4.502 -0.817,0.577 -3.138,-4.45 0.086,0.093 -4.062,-3.437 0.044,0.033 -4.938,-3.312 0.043,0.025 -5.938,-3.187 0.032,0.015 -6.688,-3 0.023,0.01 -7.375,-2.875 0.031,0.011 -8.063,-2.563 0.022,0.006 -8.625,-2.312 0.019,0.005 -9.125,-2.063 0.02,0.004 -9.5,-1.75 0.018,0.003 -9.812,-1.437 0.023,0.003 -10.063,-1 0.019,10e-4 -10.25,-0.625 0.018,0.001 -10.312,-0.25 h 0.024 l -10.312,0.25 0.021,-0.001 -10.25,0.687 0.025,-0.002 -10.062,1.188 0.019,-0.003 -9.875,1.562 0.022,-0.004 -9.5,1.938 0.02,-0.004 -9.125,2.25 0.022,-0.007 -8.625,2.563 0.026,-0.009 -8.063,2.875 0.028,-0.01 -7.375,3.125 0.03,-0.014 -6.688,3.375 0.029,-0.016 -5.938,3.5 0.046,-0.03 -4.938,3.688 0.043,-0.036 -4.062,3.812 0.056,-0.062 -2.938,3.875 0.055,-0.09 -1.875,4 0.041,-0.135 -0.625,4 z m 221.937,-12.964 -1.034,8.884 -6.487,-6.158 z"
         id="path44" />
      <path
         d="M 0.0808875,0.493414 -3.73161,1.11841 l 0.13669,-0.04324 -3.75,1.8125 0.09396,-0.05909 -3.68754,2.9375 0.0563,-0.05243 -3.6249,3.9375 0.0383,-0.04705 -3.5,4.875 0.0262,-0.0405 -3.375,5.8125 0.0174,-0.0326 -3.1875,6.5625 0.0136,-0.0307 -2.9375,7.25 0.0091,-0.0241 -2.7501,7.9375 0.008,-0.0249 -2.4375,8.4375 0.0053,-0.0199 -2.1875,8.9375 0.0052,-0.024 -1.8125,9.375 0.0031,-0.0179 -1.5,9.625 0.0031,-0.0235 -1.0625,9.875 0.0017,-0.0194 -0.6875,10.0625 0.0011,-0.0218 -0.25,10.1252 v -0.025 l 0.25,10.125 -0.0011,-0.022 0.6875,10.063 -0.0017,-0.019 1.0625,9.875 -0.0031,-0.024 1.5,9.625 -0.0031,-0.018 1.8125,9.375 -0.0052,-0.024 2.1875,8.938 -0.0053,-0.02 2.4375,8.437 -0.0084,-0.026 2.75,7.875 -0.0094,-0.025 3,7.313 -0.0128,-0.029 3.1875,6.563 -0.0165,-0.032 3.3125,5.75 -0.0271,-0.042 3.5,4.875 -0.0383,-0.047 3.6249,3.938 -0.0908,-0.078 4.96655,3.305 -0.55394,0.832 -5.01671,-3.338 -3.6863,-4.004 -3.5324,-4.92 -3.3337,-5.787 -3.2021,-6.592 -3.011,-7.34 -2.759,-7.9 -2.4441,-8.461 -2.1929,-8.959 -1.8165,-9.396 -1.5033,-9.646 -1.0648,-9.896 -0.6889,-10.083 -0.2505,-10.148 0.2505,-10.1487 0.6889,-10.0831 1.0648,-9.8965 1.5033,-9.6457 1.8165,-9.396 2.1929,-8.9594 2.444,-8.4599 2.7585,-7.962 2.9486,-7.2775 3.2029,-6.5943 3.3964,-5.8494 3.5319,-4.91929 3.6717,-3.98825 3.76134,-2.99633 3.86549,-1.868326 3.8839825,-0.636718 z M -6.32782,210.026 l 6.3908121,6.257 -8.8405621,1.359 z"
         transform="matrix(0,1,1,0,193.5,315.5)"
         id="path45" />
      <text
         fill="#980000"
         font-family="Calibri, Calibri_MSFontService, sans-serif"
         font-weight="400"
         font-size="16px"
         transform="translate(838.088,294)"
         id="text45">Final</text>
      <text
         fill="#980000"
         font-family="Calibri, Calibri_MSFontService, sans-serif"
         font-weight="400"
         font-size="16px"
         transform="translate(837.001,313)"
         id="text46">Error</text>
      <path
         d="m 898.5,445.5 67.5,-134 67.5,134 z"
         stroke="#7d3368"
         stroke-linejoin="round"
         stroke-miterlimit="10"
         fill="#dfdaea"
         fill-rule="evenodd"
         id="path46" />
      <text
         font-family="Calibri, Calibri_MSFontService, sans-serif"
         font-weight="400"
         font-size="16px"
         transform="translate(943.454,398)"
         id="text47">Failure</text>
      <text
         font-family="Calibri, Calibri_MSFontService, sans-serif"
         font-weight="400"
         font-size="16px"
         transform="translate(278.309,560)"
         id="text48">Intermediate State</text>
      <text
         font-family="Calibri, Calibri_MSFontService, sans-serif"
         font-weight="400"
         font-size="16px"
         transform="translate(404.309,560)"
         id="text49">–</text>
      <text
         font-family="Calibri, Calibri_MSFontService, sans-serif"
         font-weight="400"
         font-size="16px"
         transform="translate(415.975,560)"
         id="text50">caused by</text>
      <text
         font-family="Calibri, Calibri_MSFontService, sans-serif"
         font-weight="400"
         font-size="16px"
         transform="translate(278.309,579)"
         id="text51">at least one operand is improper</text>
      <text
         font-family="Calibri, Calibri_MSFontService, sans-serif"
         font-weight="400"
         font-size="16px"
         transform="translate(278.309,510)"
         id="text52">Initial State</text>
      <text
         font-family="Calibri, Calibri_MSFontService, sans-serif"
         font-weight="400"
         font-size="16px"
         transform="translate(355.642,510)"
         id="text53">–</text>
      <text
         font-family="Calibri, Calibri_MSFontService, sans-serif"
         font-weight="400"
         font-size="16px"
         transform="translate(367.309,510)"
         id="text54">caused by</text>
      <text
         fill="#5a2785"
         font-family="Calibri, Calibri_MSFontService, sans-serif"
         font-weight="400"
         font-size="16px"
         transform="translate(435.642,510)"
         id="text55">the Bug</text>
      <text
         font-family="Calibri, Calibri_MSFontService, sans-serif"
         font-weight="400"
         font-size="16px"
         transform="translate(278.309,529)"
         id="text56">–</text>
      <text
         font-family="Calibri, Calibri_MSFontService, sans-serif"
         font-weight="400"
         font-size="16px"
         transform="translate(289.975,529)"
         id="text57">the operation is improper</text>
      <text
         font-family="Calibri, Calibri_MSFontService, sans-serif"
         font-weight="400"
         font-size="16px"
         transform="translate(709.991,572)"
         id="text58">Failure</text>
      <text
         font-family="Calibri, Calibri_MSFontService, sans-serif"
         font-weight="400"
         font-size="16px"
         transform="translate(757.824,572)"
         id="text59">–</text>
      <text
         font-family="Calibri, Calibri_MSFontService, sans-serif"
         font-weight="400"
         font-size="16px"
         transform="translate(769.491,572)"
         id="text60">caused by a final error</text>
      <path
         d="m 226,562.5 c 0,-10.77 8.73,-19.5 19.5,-19.5 10.77,0 19.5,8.73 19.5,19.5 0,10.77 -8.73,19.5 -19.5,19.5 -10.77,0 -19.5,-8.73 -19.5,-19.5 z"
         fill="#f4f2f8"
         fill-rule="evenodd"
         id="path60" />
      <path
         d="m 226,509 c 0,-11.046 8.73,-20 19.5,-20 10.77,0 19.5,8.954 19.5,20 0,11.046 -8.73,20 -19.5,20 -10.77,0 -19.5,-8.954 -19.5,-20 z"
         fill="#e8effc"
         fill-rule="evenodd"
         id="path61" />
      <path
         d="m 660.5,581.5 19.5,-39 19.5,39 z"
         stroke="#7d3368"
         stroke-linejoin="round"
         stroke-miterlimit="10"
         fill="#dfdaea"
         fill-rule="evenodd"
         id="path62" />
      <text
         font-family="Calibri, Calibri_MSFontService, sans-serif"
         font-weight="400"
         font-size="16px"
         transform="translate(712.506,519)"
         id="text62">Final State</text>
      <text
         font-family="Calibri, Calibri_MSFontService, sans-serif"
         font-weight="400"
         font-size="16px"
         transform="translate(784.172,519)"
         id="text63">–</text>
      <text
         font-family="Calibri, Calibri_MSFontService, sans-serif"
         font-weight="400"
         font-size="16px"
         transform="translate(795.839,519)"
         id="text64">ends with a final error</text>
      <path
         d="m 661,510.5 c 0,-10.77 8.73,-19.5 19.5,-19.5 10.77,0 19.5,8.73 19.5,19.5 0,10.77 -8.73,19.5 -19.5,19.5 -10.77,0 -19.5,-8.73 -19.5,-19.5 z"
         fill="#dfdaea"
         fill-rule="evenodd"
         id="path64" />
      <text
         fill="#7f7f7f"
         font-family="Arial, Arial_MSFontService, sans-serif"
         font-weight="400"
         font-size="11px"
         transform="translate(902.644,473)"
         id="text65">BF,</text>
      <text
         fill="#7f7f7f"
         font-family="Arial, Arial_MSFontService, sans-serif"
         font-weight="400"
         font-size="11px"
         transform="translate(922.311,473)"
         id="text66">I.</text>
      <text
         fill="#7f7f7f"
         font-family="Arial, Arial_MSFontService, sans-serif"
         font-weight="400"
         font-size="11px"
         transform="translate(931.311,473)"
         id="text67">Bojanova</text>
      <text
         fill="#7f7f7f"
         font-family="Arial, Arial_MSFontService, sans-serif"
         font-weight="400"
         font-size="11px"
         transform="translate(976.144,473)"
         id="text68">,</text>
      <text
         fill="#7f7f7f"
         font-family="Arial, Arial_MSFontService, sans-serif"
         font-weight="400"
         font-size="11px"
         transform="translate(982.144,473)"
         id="text69">2014</text>
      <text
         fill="#7f7f7f"
         font-family="Arial, Arial_MSFontService, sans-serif"
         font-weight="400"
         font-size="11px"
         transform="translate(1006.14,473)"
         id="text70">-</text>
      <text
         fill="#7f7f7f"
         font-family="Arial, Arial_MSFontService, sans-serif"
         font-weight="400"
         font-size="11px"
         transform="translate(1009.64,473)"
         id="text71">20</text>
      <text
         fill="#7f7f7f"
         font-family="Arial, Arial_MSFontService, sans-serif"
         font-weight="400"
         font-size="11px"
         transform="translate(1021.64,473)"
         id="text72">23</text>
    </g>
  </g>
</svg>
