<?xml version="1.0" encoding="UTF-8" standalone="no"?>
<!-- Created with Inkscape (http://www.inkscape.org/) -->

<svg
   width="232.21597mm"
   height="123.75196mm"
   viewBox="0 0 232.21596 123.75196"
   version="1.1"
   id="svg1"
   inkscape:version="1.3.2 (091e20e, 2023-11-25, custom)"
   sodipodi:docname="BF Methodology.svg"
   xml:space="preserve"
   xmlns:inkscape="http://www.inkscape.org/namespaces/inkscape"
   xmlns:sodipodi="http://sodipodi.sourceforge.net/DTD/sodipodi-0.dtd"
   xmlns="http://www.w3.org/2000/svg"
   xmlns:svg="http://www.w3.org/2000/svg"><sodipodi:namedview
     id="namedview1"
     pagecolor="#ffffff"
     bordercolor="#000000"
     borderopacity="0.25"
     inkscape:showpageshadow="2"
     inkscape:pageopacity="0.0"
     inkscape:pagecheckerboard="0"
     inkscape:deskcolor="#d1d1d1"
     inkscape:document-units="mm"
     inkscape:zoom="1.0307169"
     inkscape:cx="24.740062"
     inkscape:cy="-215.86917"
     inkscape:window-width="2560"
     inkscape:window-height="1377"
     inkscape:window-x="-8"
     inkscape:window-y="837"
     inkscape:window-maximized="1"
     inkscape:current-layer="layer1" /><defs
     id="defs1" /><g
     inkscape:label="Layer 1"
     inkscape:groupmode="layer"
     id="layer1"
     transform="translate(-98.359414,-205.87888)"><g
       transform="matrix(0.26458333,0,0,0.26458333,52.277817,178.06869)"
       id="g59"><text
         fill="#1d2d35"
         font-family="'Calibri Light', 'Calibri Light_MSFontService', sans-serif"
         font-weight="300"
         font-size="16px"
         transform="translate(501.608,116)"
         id="text1">BF Weakness Class Methodology</text><text
         fill="#7f7f7f"
         font-family="'Calibri Light', 'Calibri Light_MSFontService', sans-serif"
         font-weight="300"
         font-size="12px"
         transform="translate(977.709,445)"
         id="text2">BF,</text><text
         fill="#7f7f7f"
         font-family="'Calibri Light', 'Calibri Light_MSFontService', sans-serif"
         font-weight="300"
         font-size="12px"
         transform="translate(995.376,445)"
         id="text3">I. Bojanova</text><path
         d="m 174.5,151.137 c 0,-4.218 3.419,-7.637 7.637,-7.637 h 196.726 c 4.218,0 7.637,3.419 7.637,7.637 v 40.726 c 0,4.218 -3.419,7.637 -7.637,7.637 H 182.137 c -4.218,0 -7.637,-3.419 -7.637,-7.637 z"
         stroke="#7b7b7b"
         stroke-width="0.666667"
         stroke-miterlimit="8"
         fill="#f2f2f2"
         fill-rule="evenodd"
         id="path3" /><text
         font-family="'Calibri Light', 'Calibri Light_MSFontService', sans-serif"
         font-weight="300"
         font-size="16px"
         transform="translate(187.302,167)"
         id="text4">1.</text><text
         font-family="'Calibri Light', 'Calibri Light_MSFontService', sans-serif"
         font-weight="300"
         font-size="16px"
         transform="translate(202.969,167)"
         id="text5">Related</text><text
         fill="#660066"
         font-family="'Calibri Light', 'Calibri Light_MSFontService', sans-serif"
         font-weight="300"
         font-size="16px"
         transform="translate(254.849,167)"
         id="text6">phases</text><text
         font-family="'Calibri Light', 'Calibri Light_MSFontService', sans-serif"
         font-weight="300"
         font-size="16px"
         transform="translate(302.849,167)"
         id="text7">for specific</text><text
         font-family="'Calibri Light', 'Calibri Light_MSFontService', sans-serif"
         font-weight="300"
         font-size="16px"
         transform="translate(216.636,186)"
         id="text8">types</text><text
         font-family="'Calibri Light', 'Calibri Light_MSFontService', sans-serif"
         font-weight="300"
         font-size="16px"
         transform="translate(254.969,186)"
         id="text9">of bugs/faults</text><path
         d="m 174.5,275.137 c 0,-4.218 3.419,-7.637 7.637,-7.637 h 196.726 c 4.218,0 7.637,3.419 7.637,7.637 v 40.726 c 0,4.218 -3.419,7.637 -7.637,7.637 H 182.137 c -4.218,0 -7.637,-3.419 -7.637,-7.637 z"
         stroke="#7b7b7b"
         stroke-width="0.666667"
         stroke-miterlimit="8"
         fill="#f2f2f2"
         fill-rule="evenodd"
         id="path9" /><text
         font-family="'Calibri Light', 'Calibri Light_MSFontService', sans-serif"
         font-weight="300"
         font-size="16px"
         transform="translate(208.642,291)"
         id="text10">2.</text><text
         fill="#660066"
         font-family="'Calibri Light', 'Calibri Light_MSFontService', sans-serif"
         font-weight="300"
         font-size="16px"
         transform="translate(224.309,291)"
         id="text11">Operations</text><text
         font-family="'Calibri Light', 'Calibri Light_MSFontService', sans-serif"
         font-weight="300"
         font-size="16px"
         transform="translate(298.842,291)"
         id="text12">for each</text><text
         font-family="'Calibri Light', 'Calibri Light_MSFontService', sans-serif"
         font-weight="300"
         font-size="16px"
         transform="translate(198.036,310)"
         id="text13">phase and</text><text
         font-family="'Calibri Light', 'Calibri Light_MSFontService', sans-serif"
         font-weight="300"
         font-size="16px"
         transform="translate(267.702,310)"
         id="text14">their</text><text
         fill="#660066"
         font-family="'Calibri Light', 'Calibri Light_MSFontService', sans-serif"
         font-weight="300"
         font-size="16px"
         transform="translate(301.869,310)"
         id="text15">operands</text><path
         d="m 174.5,399.273 c 0,-4.293 3.48,-7.773 7.773,-7.773 h 196.454 c 4.293,0 7.773,3.48 7.773,7.773 v 41.454 c 0,4.293 -3.48,7.773 -7.773,7.773 H 182.273 c -4.293,0 -7.773,-3.48 -7.773,-7.773 z"
         stroke="#7b7b7b"
         stroke-width="0.666667"
         stroke-miterlimit="8"
         fill="#f2f2f2"
         fill-rule="evenodd"
         id="path15" /><text
         font-family="'Calibri Light', 'Calibri Light_MSFontService', sans-serif"
         font-weight="300"
         font-size="16px"
         transform="translate(218.712,415)"
         id="text16">3. BF</text><text
         fill="#660066"
         font-family="'Calibri Light', 'Calibri Light_MSFontService', sans-serif"
         font-weight="300"
         font-size="16px"
         transform="translate(253.879,415)"
         id="text17">Bugs Model</text><text
         font-family="'Calibri Light', 'Calibri Light_MSFontService', sans-serif"
         font-weight="300"
         font-size="16px"
         transform="translate(333.212,415)"
         id="text18">–</text><text
         font-family="'Calibri Light', 'Calibri Light_MSFontService', sans-serif"
         font-weight="300"
         font-size="16px"
         transform="translate(229.906,434)"
         id="text19">operations flow</text><path
         d="m 174.5,523.273 c 0,-4.293 3.48,-7.773 7.773,-7.773 h 196.454 c 4.293,0 7.773,3.48 7.773,7.773 v 41.454 c 0,4.293 -3.48,7.773 -7.773,7.773 H 182.273 c -4.293,0 -7.773,-3.48 -7.773,-7.773 z"
         stroke="#7b7b7b"
         stroke-width="0.666667"
         stroke-miterlimit="8"
         fill="#f2f2f2"
         fill-rule="evenodd"
         id="path19" /><text
         font-family="'Calibri Light', 'Calibri Light_MSFontService', sans-serif"
         font-weight="300"
         font-size="16px"
         transform="translate(213.946,549)"
         id="text20">12. Semantic Graphs</text><path
         d="m 507.5,151.137 c 0,-4.218 3.419,-7.637 7.637,-7.637 h 195.726 c 4.218,0 7.637,3.419 7.637,7.637 v 40.726 c 0,4.218 -3.419,7.637 -7.637,7.637 H 515.137 c -4.218,0 -7.637,-3.419 -7.637,-7.637 z"
         stroke="#7b7b7b"
         stroke-width="0.666667"
         stroke-miterlimit="8"
         fill="#f2f2f2"
         fill-rule="evenodd"
         id="path20" /><text
         font-family="'Calibri Light', 'Calibri Light_MSFontService', sans-serif"
         font-weight="300"
         font-size="16px"
         transform="translate(562.782,167)"
         id="text21">4.</text><text
         fill="#660066"
         font-family="'Calibri Light', 'Calibri Light_MSFontService', sans-serif"
         font-weight="300"
         font-size="16px"
         transform="translate(578.448,167)"
         id="text22">Bug Causes</text><text
         font-family="'Calibri Light', 'Calibri Light_MSFontService', sans-serif"
         font-weight="300"
         font-size="16px"
         transform="translate(654.615,167)"
         id="text23">–</text><text
         font-family="'Calibri Light', 'Calibri Light_MSFontService', sans-serif"
         font-weight="300"
         font-size="16px"
         transform="translate(546.675,186)"
         id="text24">improper operations</text><path
         d="m 507.5,244.137 c 0,-4.218 3.419,-7.637 7.637,-7.637 h 195.726 c 4.218,0 7.637,3.419 7.637,7.637 v 40.726 c 0,4.218 -3.419,7.637 -7.637,7.637 H 515.137 c -4.218,0 -7.637,-3.419 -7.637,-7.637 z"
         stroke="#7b7b7b"
         stroke-width="0.666667"
         stroke-miterlimit="8"
         fill="#f2f2f2"
         fill-rule="evenodd"
         id="path24" /><text
         font-family="'Calibri Light', 'Calibri Light_MSFontService', sans-serif"
         font-weight="300"
         font-size="16px"
         transform="translate(559.162,260)"
         id="text25">5.</text><text
         fill="#660066"
         font-family="'Calibri Light', 'Calibri Light_MSFontService', sans-serif"
         font-weight="300"
         font-size="16px"
         transform="translate(574.828,260)"
         id="text26">Fault Causes</text><text
         font-family="'Calibri Light', 'Calibri Light_MSFontService', sans-serif"
         font-weight="300"
         font-size="16px"
         transform="translate(658.235,260)"
         id="text27">–</text><text
         font-family="'Calibri Light', 'Calibri Light_MSFontService', sans-serif"
         font-weight="300"
         font-size="16px"
         transform="translate(551.015,279)"
         id="text28">improper operands</text><path
         d="m 507.5,430.273 c 0,-4.293 3.48,-7.773 7.773,-7.773 h 195.454 c 4.293,0 7.773,3.48 7.773,7.773 v 41.454 c 0,4.293 -3.48,7.773 -7.773,7.773 H 515.273 c -4.293,0 -7.773,-3.48 -7.773,-7.773 z"
         stroke="#7b7b7b"
         stroke-width="0.666667"
         stroke-miterlimit="8"
         fill="#f2f2f2"
         fill-rule="evenodd"
         id="path28" /><text
         font-family="'Calibri Light', 'Calibri Light_MSFontService', sans-serif"
         font-weight="300"
         font-size="16px"
         transform="translate(531.311,437)"
         id="text29">6.</text><text
         font-family="'Calibri Light', 'Calibri Light_MSFontService', sans-serif"
         font-weight="300"
         font-size="16px"
         transform="translate(546.978,437)"
         id="text30">Consequences that are</text><text
         fill="#660066"
         font-family="'Calibri Light', 'Calibri Light_MSFontService', sans-serif"
         font-weight="300"
         font-size="16px"
         transform="translate(520.511,456)"
         id="text31">Errors</text><text
         font-family="'Calibri Light', 'Calibri Light_MSFontService', sans-serif"
         font-weight="300"
         font-size="16px"
         transform="translate(562.385,456)"
         id="text32">–</text><text
         font-family="'Calibri Light', 'Calibri Light_MSFontService', sans-serif"
         font-weight="300"
         font-size="16px"
         transform="translate(574.051,456)"
         id="text33">become</text><text
         font-family="'Calibri Light', 'Calibri Light_MSFontService', sans-serif"
         font-weight="300"
         font-size="16px"
         transform="translate(629.398,456)"
         id="text34">fault causes</text><text
         font-family="'Calibri Light', 'Calibri Light_MSFontService', sans-serif"
         font-weight="300"
         font-size="16px"
         transform="translate(544.311,475)"
         id="text35">for other weaknesses</text><path
         d="m 507.5,523.273 c 0,-4.293 3.48,-7.773 7.773,-7.773 h 195.454 c 4.293,0 7.773,3.48 7.773,7.773 v 41.454 c 0,4.293 -3.48,7.773 -7.773,7.773 H 515.273 c -4.293,0 -7.773,-3.48 -7.773,-7.773 z"
         stroke="#7b7b7b"
         stroke-width="0.666667"
         stroke-miterlimit="8"
         fill="#f2f2f2"
         fill-rule="evenodd"
         id="path35" /><text
         font-family="'Calibri Light', 'Calibri Light_MSFontService', sans-serif"
         font-weight="300"
         font-size="16px"
         transform="translate(543.445,539)"
         id="text36">7.</text><text
         font-family="'Calibri Light', 'Calibri Light_MSFontService', sans-serif"
         font-weight="300"
         font-size="16px"
         transform="translate(559.111,539)"
         id="text37">Consequences that</text><text
         font-family="'Calibri Light', 'Calibri Light_MSFontService', sans-serif"
         font-weight="300"
         font-size="16px"
         transform="translate(564.551,558)"
         id="text38">are</text><text
         fill="#660066"
         font-family="'Calibri Light', 'Calibri Light_MSFontService', sans-serif"
         font-weight="300"
         font-size="16px"
         transform="translate(588.818,558)"
         id="text39">Final Errors</text><path
         d="m 840.5,261.137 c 0,-4.218 3.419,-7.637 7.637,-7.637 h 195.723 c 4.22,0 7.64,3.419 7.64,7.637 v 40.726 c 0,4.218 -3.42,7.637 -7.64,7.637 H 848.137 c -4.218,0 -7.637,-3.419 -7.637,-7.637 z"
         stroke="#7b7b7b"
         stroke-width="0.666667"
         stroke-miterlimit="8"
         fill="#f2f2f2"
         fill-rule="evenodd"
         id="path39" /><text
         font-family="'Calibri Light', 'Calibri Light_MSFontService', sans-serif"
         font-weight="300"
         font-size="16px"
         transform="translate(871.461,286)"
         id="text40">9.</text><text
         fill="#660066"
         font-family="'Calibri Light', 'Calibri Light_MSFontService', sans-serif"
         font-weight="300"
         font-size="16px"
         transform="translate(887.127,286)"
         id="text41">Operation Attributes</text><path
         d="m 550.5,337.137 c 0,-4.218 3.419,-7.637 7.637,-7.637 h 195.726 c 4.218,0 7.637,3.419 7.637,7.637 v 40.726 c 0,4.218 -3.419,7.637 -7.637,7.637 H 558.137 c -4.218,0 -7.637,-3.419 -7.637,-7.637 z"
         stroke="#7b7b7b"
         stroke-width="0.666667"
         stroke-miterlimit="8"
         fill="#f2f2f2"
         fill-rule="evenodd"
         id="path41" /><text
         font-family="'Calibri Light', 'Calibri Light_MSFontService', sans-serif"
         font-weight="300"
         font-size="16px"
         transform="translate(581.734,363)"
         id="text42">10.</text><text
         fill="#660066"
         font-family="'Calibri Light', 'Calibri Light_MSFontService', sans-serif"
         font-weight="300"
         font-size="16px"
         transform="translate(605.568,363)"
         id="text43">Operand Attributes</text><path
         d="M 0.0596753,-0.327948 3.97549,0.384595 C 4.00954,0.390792 4.04243,0.402259 4.07296,0.418579 L 7.95814,2.49557 c 0.02242,0.01198 0.04339,0.02649 0.06252,0.04325 l 3.82394,3.35047 c 0.0136,0.01191 0.0261,0.02488 0.0376,0.03884 l 3.732,4.53297 3.6327,5.6564 3.4713,6.651 3.2827,7.5561 3.0654,8.3716 2.8184,9.0971 2.5415,9.7323 2.2342,10.2771 1.8966,10.7313 1.5284,11.0948 1.1298,11.3682 0.7004,11.549 0.2405,11.642 0.4572,11.622 1.3312,11.512 2.147,11.331 2.9044,11.06 3.6037,10.697 4.2445,10.242 4.8268,9.697 5.3504,9.06 5.8153,8.332 6.2209,7.513 6.5675,6.603 6.8545,5.601 7.0815,4.51 7.249,3.329 -0.058,-0.02 8.24,2.081 -0.163,0.646 -8.24,-2.081 c -0.02,-0.005 -0.039,-0.012 -0.058,-0.02 l -7.3283,-3.372 -7.1452,-4.557 -6.9052,-5.647 -6.6083,-6.648 -6.2542,-7.556 -5.8425,-8.375 -5.3732,-9.102 -4.8458,-9.739 -4.2605,-10.285 -3.6167,-10.74 L 45.4364,158.777 43.2823,147.398 41.9472,135.836 41.4896,124.202 41.2502,112.587 40.5518,101.062 39.425,89.7198 37.9005,78.65 36.0089,67.9443 33.7811,57.6941 31.2479,47.9906 28.4403,38.9254 25.3894,30.5902 22.1271,23.0768 18.6858,16.4776 15.0996,10.8848 11.3676,6.35186 11.4052,6.39071 7.58132,3.04024 7.64384,3.08349 3.75866,1.00651 3.85614,1.04049 -0.0596753,0.327948 Z M 114.01,243.562 l 7.529,4.827 -8.379,3.127 z"
         transform="matrix(1,0,0,-1,386.5,419.889)"
         id="path43" /><path
         d="m 386.521,419.167 5.69,0.356 5.684,1.043 5.592,1.683 5.455,2.277 5.274,2.824 5.048,3.326 4.779,3.782 4.464,4.193 4.107,4.558 3.705,4.877 3.258,5.153 2.767,5.381 2.231,5.567 1.65,5.705 1.024,5.8 0.353,5.849 0.349,5.81 1.012,5.728 1.631,5.639 2.207,5.507 2.74,5.327 3.227,5.103 3.67,4.833 4.07,4.516 4.424,4.155 4.734,3.746 4.998,3.294 5.219,2.795 5.394,2.252 5.523,1.662 4.656,0.739 -0.105,0.659 -4.743,-0.759 -5.588,-1.686 -5.452,-2.279 -5.271,-2.826 -5.045,-3.328 -4.777,-3.783 -4.463,-4.195 -4.105,-4.559 -3.703,-4.879 -3.256,-5.155 -2.765,-5.384 -2.229,-5.57 -1.648,-5.709 -1.02,-5.803 -0.349,-5.81 -0.344,-5.773 -1.008,-5.731 -1.629,-5.642 -2.205,-5.51 -2.738,-5.33 -3.225,-5.105 -3.669,-4.835 -4.068,-4.518 -4.422,-4.156 -4.732,-3.748 -4.996,-3.295 -5.216,-2.797 -5.39,-2.254 -5.52,-1.665 -5.606,-1.033 -5.69,-0.356 z m 113.943,119.699 7.575,4.755 -8.349,3.208 z"
         id="path44" /><path
         d="m 280.833,199.5 v 60.972 h -0.666 V 199.5 Z m 3.667,59.638 -4,8 -4,-8 z"
         id="path45" /><path
         d="m 280.833,448.5 v 60.972 h -0.666 V 448.5 Z m 3.667,59.638 -4,8 -4,-8 z"
         id="path46" /><path
         d="m 280.833,323.5 v 60.972 h -0.666 V 323.5 Z m 3.667,59.638 -4,8 -4,-8 z"
         id="path47" /><path
         d="m 840.5,370.137 c 0,-4.218 3.419,-7.637 7.637,-7.637 h 195.723 c 4.22,0 7.64,3.419 7.64,7.637 v 40.726 c 0,4.218 -3.42,7.637 -7.64,7.637 H 848.137 c -4.218,0 -7.637,-3.419 -7.637,-7.637 z"
         stroke="#7b7b7b"
         stroke-width="0.666667"
         stroke-miterlimit="8"
         fill="#f2f2f2"
         fill-rule="evenodd"
         id="path48" /><text
         font-family="'Calibri Light', 'Calibri Light_MSFontService', sans-serif"
         font-weight="300"
         font-size="16px"
         transform="translate(874.177,395)"
         id="text48">11. Semantic Matrices</text><path
         d="m 718.538,171.169 5.414,0.628 c 0.023,0.003 0.046,0.008 0.069,0.015 l 5.371,1.831 c 0.019,0.006 0.037,0.014 0.055,0.024 l 5.286,2.952 c 0.014,0.008 0.028,0.018 0.041,0.028 l 5.16,3.994 5.02,4.983 4.801,5.863 4.542,6.663 4.241,7.382 3.899,8.022 3.517,8.582 3.091,9.063 2.624,9.463 2.115,9.784 1.563,10.024 0.969,10.186 0.333,10.267 0.366,10.244 1.064,10.143 1.716,9.984 2.322,9.745 2.88,9.424 3.393,9.024 3.857,8.543 4.276,7.981 4.648,7.34 4.971,6.617 5.247,5.815 5.475,4.932 5.655,3.969 -0.041,-0.025 5.826,2.952 -0.063,-0.024 5.298,1.435 -0.175,0.644 -5.298,-1.436 c -0.022,-0.006 -0.043,-0.014 -0.063,-0.024 l -5.826,-2.952 c -0.015,-0.007 -0.028,-0.016 -0.041,-0.025 l -5.718,-4.019 -5.524,-4.981 -5.285,-5.86 -5.002,-6.661 -4.671,-7.382 -4.296,-8.022 -3.874,-8.583 -3.407,-9.063 -2.891,-9.465 -2.33,-9.786 -1.722,-10.027 -1.067,-10.189 -0.366,-10.247 -0.33,-10.225 -0.965,-10.146 -1.556,-9.987 -2.106,-9.746 -2.612,-9.426 -3.077,-9.025 -3.499,-8.544 -3.878,-7.981 -4.214,-7.339 -4.507,-6.616 -4.755,-5.812 -4.959,-4.929 -5.159,-3.994 0.042,0.027 -5.286,-2.952 0.055,0.025 -5.371,-1.831 0.069,0.016 -5.413,-0.628 z m 114.21,214.018 7.291,5.18 -8.519,2.725 z"
         id="path49" /><path
         d="m 718.524,264.168 4.998,0.36 5.005,1.058 4.921,1.707 4.799,2.31 4.638,2.864 4.438,3.372 4.2,3.833 3.924,4.249 3.609,4.618 3.254,4.941 2.862,5.219 2.43,5.45 1.958,5.636 1.449,5.777 0.899,5.871 0.31,5.919 0.39,5.882 1.135,5.798 1.829,5.711 2.475,5.576 3.071,5.397 3.619,5.169 4.117,4.896 4.565,4.576 4.963,4.21 5.311,3.797 5.609,3.339 5.857,2.833 6.054,2.283 6.201,1.686 6.027,0.883 -0.097,0.66 -6.105,-0.899 -6.261,-1.706 -6.109,-2.307 -5.908,-2.861 -5.656,-3.369 -5.354,-3.831 -5.004,-4.247 -4.603,-4.618 -4.153,-4.943 -3.652,-5.222 -3.102,-5.455 -2.5,-5.644 -1.848,-5.786 -1.146,-5.882 -0.391,-5.891 -0.303,-5.853 -0.887,-5.81 -1.431,-5.72 -1.938,-5.584 -2.406,-5.401 -2.834,-5.173 -3.223,-4.897 -3.573,-4.576 -3.883,-4.209 -4.154,-3.795 -4.386,-3.335 -4.576,-2.831 -4.729,-2.28 -4.841,-1.685 -4.914,-1.045 -4.998,-0.36 z m 113.852,121.458 7.663,4.613 -8.288,3.362 z"
         id="path50" /><path
         d="M 0.0199504,-0.332736 11.3549,0.346893 22.3713,2.27197 l 10.3023,2.99272 9.2348,3.88377 4.1168,2.22654 3.7083,2.3803 3.2652,2.5171 2.778,2.6336 2.2462,2.7302 c 0.0107,0.0131 0.0205,0.0271 0.0292,0.0417 l 1.6394,2.7665 c 0.0106,0.018 0.0196,0.0369 0.0267,0.0566 l 1.0163,2.8108 c 0.0085,0.0235 0.0143,0.0479 0.0173,0.0727 l 0.3487,2.8329 0.3487,2.8331 -0.0174,-0.0727 1.0163,2.8109 -0.0267,-0.0566 1.6394,2.7665 -0.0292,-0.0416 2.218,2.7 2.724,2.5812 3.2159,2.4785 3.6634,2.351 4.0659,2.1998 9.1692,3.8568 10.2305,2.9716 10.9435,1.9125 4.643,0.2762 -0.04,0.6655 -4.718,-0.2851 -11.0146,-1.9289 -10.303,-2.9973 -9.2279,-3.885 -4.1089,-2.2251 -3.7103,-2.3842 -3.2675,-2.5227 -2.7803,-2.6416 -2.218,-2.7 C 63.5057,38.8671 63.4959,38.8531 63.4873,38.8385 L 61.8478,36.072 C 61.8372,36.054 61.8282,36.035 61.8211,36.0154 L 60.8048,33.2045 C 60.7963,33.181 60.7905,33.1567 60.7875,33.1319 l -0.3487,-2.833 -0.3486,-2.833 0.0173,0.0726 -1.0163,-2.8108 0.0267,0.0566 -1.6394,-2.7666 0.0292,0.0417 -2.1899,-2.6698 -2.7263,-2.5893 -3.2182,-2.484 -3.6654,-2.355 L 41.6498,9.76294 32.4876,5.90486 22.2564,2.92867 11.315,1.01236 -0.0199504,0.332736 Z M 113.793,56.0447 l 7.746,4.4716 -8.225,3.514 z"
         transform="matrix(1,0,0,-1,718.5,451.016)"
         id="path51" /><path
         d="M 0.0257442,-0.332338 5.71549,0.108413 c 0.01623,0.001258 0.03235,0.003704 0.04822,0.007315 l 5.64529,1.284742 5.5987,2.08518 5.4593,2.82015 5.2758,3.49744 5.0486,4.11756 4.7776,4.6809 4.4629,5.1878 4.1042,5.6385 3.7015,6.0329 3.2545,6.3714 2.7631,6.6538 2.2273,6.8803 1.6469,7.0507 1.0217,7.1652 0.3516,7.2235 0.3486,7.1927 1.0134,7.1056 1.634,6.9951 2.2106,6.8278 2.7428,6.605 3.2308,6.325 3.6741,5.989 4.0727,5.595 4.4267,5.146 4.7357,4.64 4.9995,4.078 5.2181,3.459 5.3913,2.786 5.52,2.056 -0.052,-0.015 4.716,0.931 -0.129,0.654 -4.716,-0.931 c -0.018,-0.003 -0.035,-0.008 -0.052,-0.014 l -5.593,-2.089 -5.4538,-2.822 -5.2711,-3.499 -5.0447,-4.118 -4.7744,-4.681 -4.4603,-5.189 -4.102,-5.639 -3.6996,-6.034 -3.2527,-6.372 -2.7614,-6.655 -2.2255,-6.8823 -1.6448,-7.0526 -1.0192,-7.1673 -0.3487,-7.1927 -0.3457,-7.1618 -1.0109,-7.1076 -1.632,-6.9971 -2.2087,-6.8299 -2.7412,-6.6062 -3.229,-6.326 -3.6722,-5.9893 -4.0706,-5.596 L 37.1024,19.0778 32.3699,14.4373 27.3743,10.3588 22.1608,6.89798 16.7747,4.11028 11.261,2.05052 5.61578,0.765774 5.664,0.773089 -0.0257442,0.332338 Z M 114.073,148.719 l 7.466,4.925 -8.419,3.018 z"
         transform="matrix(1,0,0,-1,718.5,544.144)"
         id="path52" /><path
         d="m 718.5,171.167 h 114.872 v 0.666 H 718.5 Z m 113.539,-3.667 8,4 -8,4 z"
         id="path53" /><path
         d="m 386.51,419.167 11.335,0.348 10.999,0.985 10.286,1.531 9.219,1.986 4.107,1.138 3.702,1.217 3.26,1.287 2.775,1.348 2.249,1.4 c 0.014,0.009 0.028,0.019 0.041,0.03 l 1.64,1.417 c 0.02,0.018 0.038,0.038 0.054,0.06 l 1.016,1.44 c 0.025,0.034 0.042,0.073 0.052,0.114 l 0.349,1.451 0.348,1.451 -0.051,-0.114 1.016,1.439 -0.054,-0.06 1.639,1.417 -0.042,-0.031 2.218,1.383 2.722,1.321 3.218,1.27 3.669,1.206 4.072,1.129 9.18,1.978 10.245,1.524 10.96,0.982 4.652,0.142 -0.021,0.666 -4.691,-0.144 -10.998,-0.986 -10.288,-1.533 -9.217,-1.987 -4.102,-1.138 -3.706,-1.219 -3.265,-1.291 -2.782,-1.354 -2.218,-1.383 c -0.015,-0.009 -0.029,-0.019 -0.042,-0.031 l -1.639,-1.416 c -0.021,-0.018 -0.039,-0.038 -0.055,-0.06 l -1.016,-1.44 c -0.024,-0.034 -0.042,-0.073 -0.052,-0.114 l -0.349,-1.451 -0.348,-1.451 0.052,0.114 -1.017,-1.439 0.055,0.06 -1.64,-1.417 0.042,0.03 -2.187,-1.366 -2.729,-1.327 -3.224,-1.274 -3.672,-1.208 -4.068,-1.128 -9.177,-1.979 -10.248,-1.526 -10.959,-0.983 -11.335,-0.348 z m 113.656,27.083 7.873,4.244 -8.119,3.752 z"
         id="path54" /><path
         d="m 840.5,151.137 c 0,-4.218 3.419,-7.637 7.637,-7.637 h 195.723 c 4.22,0 7.64,3.419 7.64,7.637 v 40.726 c 0,4.218 -3.42,7.637 -7.64,7.637 H 848.137 c -4.218,0 -7.637,-3.419 -7.637,-7.637 z"
         stroke="#7b7b7b"
         stroke-width="0.666667"
         stroke-miterlimit="8"
         fill="#f2f2f2"
         fill-rule="evenodd"
         id="path55" /><text
         font-family="'Calibri Light', 'Calibri Light_MSFontService', sans-serif"
         font-weight="300"
         font-size="16px"
         transform="translate(897.511,176)"
         id="text55">8.</text><text
         fill="#660066"
         font-family="'Calibri Light', 'Calibri Light_MSFontService', sans-serif"
         font-weight="300"
         font-size="16px"
         transform="translate(913.177,176)"
         id="text56">Sites</text><text
         font-family="'Calibri Light', 'Calibri Light_MSFontService', sans-serif"
         font-weight="300"
         font-size="16px"
         transform="translate(946.691,176)"
         id="text57">in code</text><path
         d="m 718.519,171.167 5.689,0.316 5.681,0.924 5.588,1.492 5.453,2.018 5.272,2.504 5.047,2.949 4.778,3.354 4.465,3.719 4.108,4.043 3.707,4.327 3.26,4.572 2.769,4.776 2.233,4.941 1.653,5.066 1.026,5.151 0.354,5.196 0.349,5.153 1.01,5.07 1.63,4.994 2.205,4.877 2.737,4.72 3.224,4.522 3.669,4.283 4.068,4.003 4.423,3.684 4.733,3.322 4.999,2.921 5.219,2.479 5.396,1.997 5.526,1.476 4.654,0.655 -0.093,0.66 -4.733,-0.671 -5.586,-1.494 -5.45,-2.021 -5.27,-2.506 -5.045,-2.95 -4.777,-3.356 -4.464,-3.721 -4.107,-4.045 -3.705,-4.329 -3.258,-4.575 -2.768,-4.78 -2.231,-4.945 -1.649,-5.07 -1.022,-5.155 -0.349,-5.153 -0.343,-5.111 -1.006,-5.074 -1.627,-4.999 -2.202,-4.881 -2.735,-4.723 -3.224,-4.525 -3.667,-4.286 -4.067,-4.006 -4.422,-3.685 -4.732,-3.324 -4.997,-2.923 -5.217,-2.481 -5.393,-1.999 -5.524,-1.478 -5.61,-0.916 -5.689,-0.316 z m 113.894,105.734 7.626,4.673 -8.314,3.298 z"
         id="path57" /><path
         d="M 0.0260136,-0.332317 5.71577,0.113075 c 0.01637,0.001282 0.03269,0.003783 0.04869,0.007464 l 5.64524,1.298271 5.5991,2.10723 5.4595,2.84993 5.2759,3.53431 5.0485,4.16092 4.7776,4.7301 4.4627,5.2423 4.1041,5.6976 3.7013,6.0963 3.2543,6.4381 2.7629,6.7235 2.2272,6.9523 1.6467,7.1245 1.0216,7.24 0.3515,7.299 0.3487,7.2684 1.0134,7.181 1.6341,7.0694 2.2107,6.9003 2.743,6.675 3.231,6.392 3.6742,6.052 4.073,5.654 4.4269,5.201 4.7357,4.689 4.9996,4.12 5.2182,3.496 5.3919,2.815 5.519,2.078 -0.052,-0.015 4.716,0.941 -0.13,0.654 -4.717,-0.941 c -0.018,-0.004 -0.035,-0.009 -0.052,-0.015 l -5.593,-2.111 -5.4541,-2.852 -5.2711,-3.535 -5.0446,-4.162 -4.7744,-4.73 -4.4601,-5.243 -4.1019,-5.698 -3.6994,-6.097 -3.2525,-6.44 -2.7613,-6.724 -2.2254,-6.9543 -1.6447,-7.1263 -1.0191,-7.2421 -0.3487,-7.2685 -0.3458,-7.2378 -1.011,-7.1831 -1.632,-7.0712 -2.209,-6.9023 L 52.4976,42.5763 49.2685,36.1834 45.5961,30.1308 41.5253,24.4757 37.1011,19.275 32.3686,14.5855 27.3729,10.464 22.1595,6.96684 16.7736,4.14986 11.2603,2.06852 5.61504,0.770245 5.66374,0.777709 -0.0260136,0.332317 Z M 114.079,150.327 l 7.46,4.935 -8.423,3.007 z"
         transform="matrix(1,0,0,-1,386.5,419.762)"
         id="path58" /><path
         d="M 0.0386754,0.331082 -4.4379,0.854014 -4.36904,0.838442 -8.70499,2.31629 -8.64826,2.29083 -12.703,4.58718 l 0.0471,-0.03227 -3.6328,2.97843 0.04,-0.0388 -3.0703,3.52406 0.0343,-0.047 -2.3672,3.9333 0.0278,-0.0584 -1.5235,4.2062 0.0174,-0.0724 -0.539,4.3426 3e-4,-0.0789 0.2492,2.1798 -0.0152,-0.0682 0.7262,2.1627 -0.024,-0.0546 1.1714,2.1287 -0.027,-0.0415 1.5849,2.0775 1.9397,1.9784 2.291,1.9008 5.5206,3.499 6.53164,2.9563 7.29792,2.2819 7.80694,1.4684 8.0589,0.5178 8.0947,0.4113 7.8767,1.1662 7.3668,1.8133 6.6049,2.3537 5.5919,2.7891 2.3498,1.5335 c 0.0222,0.0145 0.0426,0.0316 0.0607,0.0509 l 2.3741,2.5302 -0.4862,0.4562 -2.3741,-2.5302 0.0607,0.0509 -2.2828,-1.495 -5.5181,-2.7577 -6.5404,-2.3343 -7.305,-1.8011 -7.8129,-1.1599 -8.1037,-0.4118 -8.1394,-0.528 -7.8827,-1.4873 -7.37393,-2.3109 -6.61367,-3.0006 -5.5893,-3.5491 -2.3416,-1.9473 -1.9933,-2.0403 -1.5848,-2.0775 c -0.0101,-0.0132 -0.0191,-0.027 -0.0271,-0.0415 l -1.1714,-2.1287 c -0.0096,-0.0174 -0.0176,-0.0357 -0.0239,-0.0546 l -0.7262,-2.1627 c -0.0074,-0.0222 -0.0125,-0.0451 -0.0152,-0.0683 l -0.2491,-2.1798 c -0.003,-0.0263 -0.0029,-0.0527 4e-4,-0.0789 l 0.539,-4.3426 c 0.0031,-0.0248 0.0089,-0.0491 0.0174,-0.0725 l 1.5235,-4.2062 c 0.0073,-0.0203 0.0166,-0.0398 0.0278,-0.0584 l 2.3672,-3.9333 c 0.01,-0.0167 0.0214,-0.0324 0.0342,-0.0471 l 3.0703,-3.52409 c 0.0123,-0.01403 0.0256,-0.02702 0.04,-0.03881 l 3.6328,-2.97844 c 0.0148,-0.01209 0.0305,-0.02288 0.0471,-0.03227 L -8.97679,1.71073 C -8.95871,1.70049 -8.93974,1.69198 -8.92006,1.68527 L -4.58412,0.207421 C -4.56178,0.199809 -4.53869,0.194588 -4.51525,0.19185 l 4.4765746,-0.522932 z M 62.3223,55.9571 l 0.5215,8.9291 -7.4562,-4.9403 z"
         transform="matrix(-1,0,0,1,718.344,264.5)"
         id="path59" /></g></g></svg>
