<?xml version="1.0" encoding="UTF-8" standalone="no"?>
<!-- Created with Inkscape (http://www.inkscape.org/) -->

<svg
   width="228.77638mm"
   height="123.75196mm"
   viewBox="0 0 228.77638 123.75196"
   version="1.1"
   id="svg1"
   inkscape:version="1.3.2 (091e20e, 2023-11-25, custom)"
   sodipodi:docname="BF Methodology.svg"
   xmlns:inkscape="http://www.inkscape.org/namespaces/inkscape"
   xmlns:sodipodi="http://sodipodi.sourceforge.net/DTD/sodipodi-0.dtd"
   xmlns="http://www.w3.org/2000/svg"
   xmlns:svg="http://www.w3.org/2000/svg">
  <sodipodi:namedview
     id="namedview1"
     pagecolor="#ffffff"
     bordercolor="#000000"
     borderopacity="0.25"
     inkscape:showpageshadow="2"
     inkscape:pageopacity="0.0"
     inkscape:pagecheckerboard="0"
     inkscape:deskcolor="#d1d1d1"
     inkscape:document-units="mm"
     inkscape:zoom="1.0146815"
     inkscape:cx="287.28225"
     inkscape:cy="83.27736"
     inkscape:window-width="2560"
     inkscape:window-height="1377"
     inkscape:window-x="-8"
     inkscape:window-y="859"
     inkscape:window-maximized="1"
     inkscape:current-layer="layer1" />
  <defs
     id="defs1" />
  <g
     inkscape:label="Layer 1"
     inkscape:groupmode="layer"
     id="layer1"
     transform="translate(-28.88368,-126.49977)">
    <g
       transform="matrix(0.26458333,0,0,0.26458333,-17.197917,98.689583)"
       id="g42">
      <text
         fill="#1d2d35"
         font-family="'Calibri Light', 'Calibri Light_MSFontService', sans-serif"
         font-weight="300"
         font-size="16px"
         transform="translate(501.608,116)"
         id="text1">BF Weakness Class Methodology</text>
      <text
         fill="#7f7f7f"
         font-family="'Calibri Light', 'Calibri Light_MSFontService', sans-serif"
         font-weight="300"
         font-size="12px"
         transform="translate(955.584,413)"
         id="text2">BF,</text>
      <text
         fill="#7f7f7f"
         font-family="'Calibri Light', 'Calibri Light_MSFontService', sans-serif"
         font-weight="300"
         font-size="12px"
         transform="translate(973.251,413)"
         id="text3">I.</text>
      <text
         fill="#7f7f7f"
         font-family="'Calibri Light', 'Calibri Light_MSFontService', sans-serif"
         font-weight="300"
         font-size="12px"
         transform="translate(981.918,413)"
         id="text4">Bojanova</text>
      <path
         d="m 174.5,151.137 c 0,-4.218 3.419,-7.637 7.637,-7.637 h 183.726 c 4.218,0 7.637,3.419 7.637,7.637 v 40.726 c 0,4.218 -3.419,7.637 -7.637,7.637 H 182.137 c -4.218,0 -7.637,-3.419 -7.637,-7.637 z"
         stroke="#7b7b7b"
         stroke-width="0.666667"
         stroke-miterlimit="8"
         fill="#f2f2f2"
         fill-rule="evenodd"
         id="path4" />
      <text
         font-family="'Calibri Light', 'Calibri Light_MSFontService', sans-serif"
         font-weight="300"
         font-size="16px"
         transform="translate(183.958,167)"
         id="text5">1. Related phase for specific</text>
      <text
         font-family="'Calibri Light', 'Calibri Light_MSFontService', sans-serif"
         font-weight="300"
         font-size="16px"
         transform="translate(210.212,186)"
         id="text6">types of bugs/faults</text>
      <path
         d="m 174.5,244.273 c 0,-4.293 3.48,-7.773 7.773,-7.773 h 183.454 c 4.293,0 7.773,3.48 7.773,7.773 v 41.454 c 0,4.293 -3.48,7.773 -7.773,7.773 H 182.273 c -4.293,0 -7.773,-3.48 -7.773,-7.773 z"
         stroke="#7b7b7b"
         stroke-width="0.666667"
         stroke-miterlimit="8"
         fill="#f2f2f2"
         fill-rule="evenodd"
         id="path6" />
      <text
         font-family="'Calibri Light', 'Calibri Light_MSFontService', sans-serif"
         font-weight="300"
         font-size="16px"
         transform="translate(202.212,260)"
         id="text7">2. Operations for each</text>
      <text
         font-family="'Calibri Light', 'Calibri Light_MSFontService', sans-serif"
         font-weight="300"
         font-size="16px"
         transform="translate(199.358,279)"
         id="text8">phase and its</text>
      <text
         font-family="'Calibri Light', 'Calibri Light_MSFontService', sans-serif"
         font-weight="300"
         font-size="16px"
         transform="translate(287.692,279)"
         id="text9">operands</text>
      <path
         d="m 174.5,338.137 c 0,-4.218 3.419,-7.637 7.637,-7.637 h 183.726 c 4.218,0 7.637,3.419 7.637,7.637 v 40.726 c 0,4.218 -3.419,7.637 -7.637,7.637 H 182.137 c -4.218,0 -7.637,-3.419 -7.637,-7.637 z"
         stroke="#7b7b7b"
         stroke-width="0.666667"
         stroke-miterlimit="8"
         fill="#f2f2f2"
         fill-rule="evenodd"
         id="path9" />
      <text
         font-family="'Calibri Light', 'Calibri Light_MSFontService', sans-serif"
         font-weight="300"
         font-size="16px"
         transform="translate(212.285,354)"
         id="text10">3. BF Bugs Model</text>
      <text
         font-family="'Calibri Light', 'Calibri Light_MSFontService', sans-serif"
         font-weight="300"
         font-size="16px"
         transform="translate(326.785,354)"
         id="text11">–</text>
      <text
         font-family="'Calibri Light', 'Calibri Light_MSFontService', sans-serif"
         font-weight="300"
         font-size="16px"
         transform="translate(223.472,373)"
         id="text12">operations flow</text>
      <path
         d="m 174.5,432.137 c 0,-4.218 3.419,-7.637 7.637,-7.637 h 183.726 c 4.218,0 7.637,3.419 7.637,7.637 v 40.726 c 0,4.218 -3.419,7.637 -7.637,7.637 H 182.137 c -4.218,0 -7.637,-3.419 -7.637,-7.637 z"
         stroke="#7b7b7b"
         stroke-width="0.666667"
         stroke-miterlimit="8"
         fill="#f2f2f2"
         fill-rule="evenodd"
         id="path12" />
      <text
         font-family="'Calibri Light', 'Calibri Light_MSFontService', sans-serif"
         font-weight="300"
         font-size="16px"
         transform="translate(207.518,457)"
         id="text13">12. Semantic Graphs</text>
      <path
         d="m 507.5,151.137 c 0,-4.218 3.419,-7.637 7.637,-7.637 h 182.726 c 4.218,0 7.637,3.419 7.637,7.637 v 40.726 c 0,4.218 -3.419,7.637 -7.637,7.637 H 515.137 c -4.218,0 -7.637,-3.419 -7.637,-7.637 z"
         stroke="#7b7b7b"
         stroke-width="0.666667"
         stroke-miterlimit="8"
         fill="#f2f2f2"
         fill-rule="evenodd"
         id="path13" />
      <text
         font-family="'Calibri Light', 'Calibri Light_MSFontService', sans-serif"
         font-weight="300"
         font-size="16px"
         transform="translate(556.361,167)"
         id="text14">4. Bug Causes</text>
      <text
         font-family="'Calibri Light', 'Calibri Light_MSFontService', sans-serif"
         font-weight="300"
         font-size="16px"
         transform="translate(648.194,167)"
         id="text15">–</text>
      <text
         font-family="'Calibri Light', 'Calibri Light_MSFontService', sans-serif"
         font-weight="300"
         font-size="16px"
         transform="translate(540.248,186)"
         id="text16">improper operations</text>
      <path
         d="m 507.5,244.137 c 0,-4.218 3.419,-7.637 7.637,-7.637 h 182.726 c 4.218,0 7.637,3.419 7.637,7.637 v 40.726 c 0,4.218 -3.419,7.637 -7.637,7.637 H 515.137 c -4.218,0 -7.637,-3.419 -7.637,-7.637 z"
         stroke="#7b7b7b"
         stroke-width="0.666667"
         stroke-miterlimit="8"
         fill="#f2f2f2"
         fill-rule="evenodd"
         id="path16" />
      <text
         font-family="'Calibri Light', 'Calibri Light_MSFontService', sans-serif"
         font-weight="300"
         font-size="16px"
         transform="translate(552.741,260)"
         id="text17">5. Fault Causes</text>
      <text
         font-family="'Calibri Light', 'Calibri Light_MSFontService', sans-serif"
         font-weight="300"
         font-size="16px"
         transform="translate(651.814,260)"
         id="text18">–</text>
      <text
         font-family="'Calibri Light', 'Calibri Light_MSFontService', sans-serif"
         font-weight="300"
         font-size="16px"
         transform="translate(544.588,279)"
         id="text19">improper operands</text>
      <path
         d="m 507.5,430.273 c 0,-4.293 3.48,-7.773 7.773,-7.773 h 182.454 c 4.293,0 7.773,3.48 7.773,7.773 v 41.454 c 0,4.293 -3.48,7.773 -7.773,7.773 H 515.273 c -4.293,0 -7.773,-3.48 -7.773,-7.773 z"
         stroke="#7b7b7b"
         stroke-width="0.666667"
         stroke-miterlimit="8"
         fill="#f2f2f2"
         fill-rule="evenodd"
         id="path19" />
      <text
         font-family="'Calibri Light', 'Calibri Light_MSFontService', sans-serif"
         font-weight="300"
         font-size="16px"
         transform="translate(528.181,437)"
         id="text20">6. Error Consequences</text>
      <text
         font-family="'Calibri Light', 'Calibri Light_MSFontService', sans-serif"
         font-weight="300"
         font-size="16px"
         transform="translate(676.367,437)"
         id="text21">–</text>
      <text
         font-family="'Calibri Light', 'Calibri Light_MSFontService', sans-serif"
         font-weight="300"
         font-size="16px"
         transform="translate(529.888,456)"
         id="text22">become fault causes for</text>
      <text
         font-family="'Calibri Light', 'Calibri Light_MSFontService', sans-serif"
         font-weight="300"
         font-size="16px"
         transform="translate(548.854,475)"
         id="text23">other weaknesses</text>
      <path
         d="m 507.5,523.273 c 0,-4.293 3.48,-7.773 7.773,-7.773 h 182.454 c 4.293,0 7.773,3.48 7.773,7.773 v 41.454 c 0,4.293 -3.48,7.773 -7.773,7.773 H 515.273 c -4.293,0 -7.773,-3.48 -7.773,-7.773 z"
         stroke="#7b7b7b"
         stroke-width="0.666667"
         stroke-miterlimit="8"
         fill="#f2f2f2"
         fill-rule="evenodd"
         id="path23" />
      <text
         font-family="'Calibri Light', 'Calibri Light_MSFontService', sans-serif"
         font-weight="300"
         font-size="16px"
         transform="translate(565.344,539)"
         id="text24">7. Final Error</text>
      <text
         font-family="'Calibri Light', 'Calibri Light_MSFontService', sans-serif"
         font-weight="300"
         font-size="16px"
         transform="translate(559.858,558)"
         id="text25">Consequences</text>
      <path
         d="m 840.5,244.273 c 0,-4.293 3.48,-7.773 7.773,-7.773 h 182.457 c 4.29,0 7.77,3.48 7.77,7.773 v 41.454 c 0,4.293 -3.48,7.773 -7.77,7.773 H 848.273 c -4.293,0 -7.773,-3.48 -7.773,-7.773 z"
         stroke="#7b7b7b"
         stroke-width="0.666667"
         stroke-miterlimit="8"
         fill="#f2f2f2"
         fill-rule="evenodd"
         id="path25" />
      <text
         font-family="'Calibri Light', 'Calibri Light_MSFontService', sans-serif"
         font-weight="300"
         font-size="16px"
         transform="translate(865.033,270)"
         id="text26">9. Operation Attributes</text>
      <path
         d="m 550.5,337.137 c 0,-4.218 3.419,-7.637 7.637,-7.637 h 182.726 c 4.218,0 7.637,3.419 7.637,7.637 v 40.726 c 0,4.218 -3.419,7.637 -7.637,7.637 H 558.137 c -4.218,0 -7.637,-3.419 -7.637,-7.637 z"
         stroke="#7b7b7b"
         stroke-width="0.666667"
         stroke-miterlimit="8"
         fill="#f2f2f2"
         fill-rule="evenodd"
         id="path26" />
      <text
         font-family="'Calibri Light', 'Calibri Light_MSFontService', sans-serif"
         font-weight="300"
         font-size="16px"
         transform="translate(575.307,363)"
         id="text27">10. Operand Attributes</text>
      <path
         d="M 0.0283538,-0.332125 6.31988,0.204988 C 6.33767,0.206506 6.35531,0.209452 6.37262,0.213794 L 12.6149,1.77942 c 0.0156,0.0039 0.0308,0.00892 0.0457,0.01502 l 6.1438,2.52557 6.0346,3.43565 5.831,4.26024 5.5794,5.0153 5.2797,5.7011 4.9316,6.3182 4.5351,6.8667 4.0899,7.3469 3.5958,7.7586 3.0527,8.1022 2.4605,8.3774 1.819,8.5844 1.1283,8.723 0.388,8.7933 0.3855,8.765 1.1213,8.669 1.8084,8.533 2.4463,8.329 3.0354,8.056 3.5751,7.714 4.0656,7.303 4.5066,6.824 4.8981,6.276 5.2398,5.658 5.5319,4.972 5.773,4.219 5.964,3.396 6.106,2.507 -0.055,-0.017 5.915,1.31 -0.145,0.651 -5.914,-1.31 c -0.019,-0.004 -0.037,-0.01 -0.055,-0.017 l -6.182,-2.544 -6.028,-3.438 -5.825,-4.261 -5.5752,-5.015 -5.2761,-5.701 -4.9288,-6.318 -4.5329,-6.867 -4.0879,-7.348 -3.5941,-7.759 -3.0511,-8.103 -2.4589,-8.379 -1.8173,-8.586 -1.1262,-8.724 L 66.8639,93.6323 66.4808,84.8951 65.3615,76.2248 63.555,67.6901 61.1103,59.3599 58.0766,51.303 54.5032,43.5883 50.4395,36.2845 45.9352,29.4606 41.0399,23.1852 35.8036,17.5269 30.2765,12.5541 24.5089,8.33488 18.551,4.93662 12.4071,2.41104 12.4527,2.42606 6.21044,0.860433 6.26317,0.869239 -0.0283538,0.332125 Z M 126.926,182.312 l 7.468,4.923 -8.419,3.021 z"
         transform="matrix(1,0,0,-1,373.5,358.735)"
         id="path27" />
      <path
         d="m 373.528,358.168 6.292,0.531 c 0.017,0.002 0.035,0.005 0.052,0.009 l 6.242,1.549 c 0.016,0.004 0.031,0.009 0.045,0.015 l 6.144,2.499 6.035,3.4 5.831,4.215 5.579,4.963 5.28,5.642 4.932,6.252 4.535,6.795 4.09,7.27 3.596,7.678 3.053,8.018 2.461,8.29 1.819,8.495 1.128,8.632 0.388,8.702 0.386,8.673 1.121,8.578 1.808,8.443 2.446,8.241 3.036,7.971 3.574,7.633 4.066,7.227 4.506,6.752 4.898,6.21 5.24,5.598 5.531,4.921 5.773,4.174 5.965,3.361 6.106,2.481 -0.055,-0.017 5.914,1.296 -0.143,0.651 -5.913,-1.296 c -0.019,-0.004 -0.037,-0.01 -0.055,-0.017 l -6.182,-2.517 -6.027,-3.402 -5.826,-4.216 -5.575,-4.963 -5.276,-5.642 -4.929,-6.252 -4.533,-6.795 -4.088,-7.271 -3.595,-7.678 -3.051,-8.019 -2.459,-8.292 -1.817,-8.496 -1.126,-8.634 -0.386,-8.674 -0.383,-8.645 -1.119,-8.579 -1.807,-8.444 -2.444,-8.243 -3.034,-7.972 -3.573,-7.634 -4.064,-7.227 -4.504,-6.752 -4.895,-6.21 -5.236,-5.599 -5.527,-4.92 -5.768,-4.176 -5.958,-3.362 -6.144,-2.499 0.046,0.014 -6.243,-1.549 0.052,0.009 -6.291,-0.532 z m 126.892,180.693 7.474,4.914 -8.415,3.031 z"
         id="path28" />
      <path
         d="m 274.833,199.5 v 30.395 h -0.666 V 199.5 Z m 3.667,29.061 -4,8 -4,-8 z"
         id="path29" />
      <path
         d="m 274.833,386.5 v 30.395 h -0.666 V 386.5 Z m 3.667,29.061 -4,8 -4,-8 z"
         id="path30" />
      <path
         d="m 274.833,293.5 v 30.395 h -0.666 V 293.5 Z m 3.667,29.061 -4,8 -4,-8 z"
         id="path31" />
      <path
         d="m 840.5,337.137 c 0,-4.218 3.419,-7.637 7.637,-7.637 h 182.723 c 4.22,0 7.64,3.419 7.64,7.637 v 40.726 c 0,4.218 -3.42,7.637 -7.64,7.637 H 848.137 c -4.218,0 -7.637,-3.419 -7.637,-7.637 z"
         stroke="#7b7b7b"
         stroke-width="0.666667"
         stroke-miterlimit="8"
         fill="#f2f2f2"
         fill-rule="evenodd"
         id="path32" />
      <text
         font-family="'Calibri Light', 'Calibri Light_MSFontService', sans-serif"
         font-weight="300"
         font-size="16px"
         transform="translate(867.75,363)"
         id="text32">11. Semantic Matrices</text>
      <path
         d="m 705.528,171.168 6.292,0.534 c 0.017,0.002 0.035,0.005 0.052,0.009 l 6.243,1.557 c 0.015,0.004 0.03,0.009 0.045,0.015 l 6.144,2.513 6.034,3.417 5.831,4.238 5.58,4.989 5.28,5.672 4.931,6.285 4.535,6.831 4.09,7.308 3.596,7.718 3.053,8.06 2.461,8.334 1.819,8.54 1.128,8.677 0.388,8.748 0.386,8.719 1.121,8.623 1.808,8.489 2.446,8.285 3.036,8.013 3.575,7.674 4.065,7.265 4.507,6.788 4.898,6.242 5.239,5.629 5.532,4.946 5.773,4.197 5.964,3.378 6.106,2.494 -0.054,-0.017 5.914,1.303 -0.144,0.651 -5.914,-1.303 c -0.018,-0.004 -0.037,-0.01 -0.054,-0.017 l -6.182,-2.531 -6.028,-3.419 -5.826,-4.239 -5.575,-4.989 -5.276,-5.671 -4.929,-6.286 -4.533,-6.831 -4.088,-7.309 -3.594,-7.719 -3.051,-8.061 -2.459,-8.335 -1.817,-8.541 -1.126,-8.679 -0.386,-8.72 -0.383,-8.691 -1.119,-8.624 -1.807,-8.49 -2.444,-8.287 -3.034,-8.014 -3.573,-7.674 -4.064,-7.266 -4.504,-6.788 -4.895,-6.242 -5.237,-5.629 -5.527,-4.947 -5.767,-4.197 -5.958,-3.38 -6.144,-2.513 0.045,0.015 -6.242,-1.557 0.052,0.008 -6.291,-0.534 z m 126.895,181.669 7.471,4.918 -8.417,3.026 z"
         id="path33" />
      <path
         d="m 705.514,264.167 6.292,0.267 6.269,0.781 6.169,1.261 6.021,1.705 5.822,2.116 5.576,2.493 5.279,2.836 4.935,3.144 4.541,3.42 4.098,3.661 3.607,3.869 3.065,4.045 2.474,4.187 1.832,4.296 c 0.007,0.015 0.012,0.031 0.016,0.047 l 1.124,4.325 c 0.005,0.018 0.008,0.036 0.009,0.055 l 0.386,4.36 0.385,4.359 -0.009,-0.054 1.124,4.325 -0.016,-0.046 1.813,4.257 2.433,4.116 3.022,3.987 3.562,3.822 4.055,3.622 4.498,3.387 4.893,3.117 5.236,2.813 5.532,2.473 5.777,2.1 5.973,1.692 6.12,1.25 5.849,0.643 -0.073,0.662 -5.91,-0.652 -6.168,-1.262 -6.019,-1.707 -5.822,-2.117 -5.574,-2.495 -5.28,-2.837 -4.935,-3.147 -4.541,-3.423 -4.098,-3.664 -3.607,-3.875 -3.064,-4.05 -2.473,-4.194 -1.812,-4.257 c -0.007,-0.015 -0.012,-0.031 -0.016,-0.047 l -1.124,-4.326 c -0.005,-0.017 -0.008,-0.036 -0.01,-0.054 l -0.385,-4.36 -0.386,-4.359 0.01,0.054 -1.124,-4.326 0.016,0.047 -1.793,-4.218 -2.432,-4.123 -3.021,-3.993 -3.563,-3.827 -4.055,-3.626 -4.498,-3.39 -4.892,-3.119 -5.237,-2.814 -5.531,-2.475 -5.776,-2.102 -5.972,-1.693 -6.118,-1.252 -6.216,-0.777 -6.291,-0.267 z m 126.633,88.989 7.747,4.472 -8.225,3.514 z"
         id="path34" />
      <path
         d="m 0.0141414,-0.333033 6.2915086,0.2671519 6.26945,0.7809841 6.1693,1.260377 6.0204,1.70542 5.8223,2.11622 5.5755,2.49293 5.2796,2.83565 4.9348,3.1445 4.5412,3.4196 4.0983,3.6612 3.6064,3.8694 3.065,4.0446 2.474,4.1869 1.8324,4.2962 c 0.0065,0.0152 0.0118,0.0308 0.0159,0.0468 l 1.1238,4.3255 c 0.0047,0.0179 0.0078,0.0361 0.0094,0.0545 l 0.3855,4.3596 0.3856,4.3597 -0.0094,-0.0544 1.1237,4.3256 -0.0159,-0.0468 1.8128,4.2574 2.433,4.1162 3.0219,3.9868 3.5628,3.8222 4.055,3.6221 4.4981,3.3871 4.892,3.117 5.2366,2.8125 5.5319,2.4733 5.777,2.0998 5.973,1.6921 6.12,1.2503 5.849,0.6423 -0.073,0.6627 -5.91,-0.6519 -6.168,-1.262 -6.019,-1.707 -5.821,-2.1178 -5.5754,-2.4946 -5.2794,-2.8375 -4.9348,-3.1467 -4.5413,-3.4225 -4.0985,-3.6648 -3.6065,-3.8741 -3.0645,-4.0504 -2.4723,-4.194 -1.8128,-4.2573 C 68.3931,55.3646 68.3877,55.349 68.3836,55.333 L 67.2598,51.0074 C 67.2552,50.9895 67.252,50.9714 67.2504,50.953 l -0.3855,-4.3597 -0.3856,-4.3597 0.0095,0.0545 -1.1238,-4.3256 0.0159,0.0468 L 63.5877,33.7907 61.1564,29.6675 58.1351,25.6748 54.5722,21.848 50.517,18.2223 46.0187,14.8323 41.1267,11.713 35.8904,8.89861 30.3593,6.42366 24.583,4.3223 18.6109,2.62863 12.4925,1.37664 6.27737,0.600185 -0.0141414,0.333033 Z M 126.647,88.6565 l 7.747,4.4713 -8.225,3.5144 z"
         transform="matrix(1,0,0,-1,705.5,450.628)"
         id="path35" />
      <path
         d="M 0.0282065,-0.332138 6.31972,0.202164 C 6.33741,0.203667 6.35498,0.206585 6.37221,0.210883 L 12.6145,1.76832 C 12.63,1.77218 12.6452,1.77715 12.66,1.7832 l 6.1439,2.51236 6.0344,3.41762 5.831,4.23792 5.5795,4.9891 5.2797,5.6713 4.9317,6.2852 4.5352,6.8309 4.0899,7.3085 3.5959,7.7182 3.0528,8.06 2.4606,8.3338 1.8191,8.5396 1.1283,8.6776 0.388,8.7476 0.3855,8.7191 1.1214,8.623 1.8082,8.488 2.4463,8.286 3.0353,8.013 3.575,7.674 4.0655,7.265 4.5065,6.788 4.898,6.242 5.2397,5.629 5.5316,4.946 5.773,4.197 5.965,3.378 6.105,2.494 -0.054,-0.017 5.914,1.303 -0.144,0.651 -5.914,-1.303 c -0.018,-0.004 -0.037,-0.01 -0.054,-0.017 l -6.182,-2.531 -6.028,-3.419 -5.826,-4.239 -5.5747,-4.989 -5.2762,-5.671 -4.9289,-6.286 -4.5328,-6.831 -4.0881,-7.309 -3.5941,-7.719 -3.0512,-8.061 -2.4589,-8.335 -1.8174,-8.541 -1.1262,-8.679 L 66.864,93.1424 66.4809,84.4512 65.3617,75.8266 63.5552,67.3368 61.1105,59.0504 58.0769,51.0358 54.5035,43.3616 50.4399,36.0962 45.9357,29.3081 41.0405,23.0656 35.8043,17.437 30.2772,12.4903 24.5095,8.29314 18.5515,4.91262 12.4076,2.40027 12.4531,2.41515 6.21082,0.857721 6.26331,0.86644 -0.0282065,0.332138 Z M 126.923,181.337 l 7.471,4.918 -8.417,3.026 z"
         transform="matrix(1,0,0,-1,705.5,543.755)"
         id="path36" />
      <path
         d="m 705.5,171.167 h 127.727 v 0.666 H 705.5 Z m 126.394,-3.667 8,4 -8,4 z"
         id="path37" />
      <path
         d="m 373.514,358.167 6.292,0.264 6.269,0.773 6.169,1.247 6.02,1.688 5.822,2.093 5.575,2.467 5.28,2.806 4.935,3.111 4.541,3.384 4.098,3.622 3.607,3.829 3.065,4.003 2.474,4.143 1.833,4.251 c 0.006,0.016 0.012,0.031 0.016,0.047 l 1.124,4.28 c 0.005,0.019 0.008,0.037 0.009,0.055 l 0.386,4.314 0.385,4.314 -0.009,-0.055 1.124,4.28 -0.017,-0.047 1.813,4.213 2.433,4.072 3.022,3.944 3.562,3.782 4.055,3.584 4.498,3.351 4.892,3.085 5.237,2.783 5.532,2.447 5.777,2.078 5.973,1.674 6.12,1.237 5.849,0.636 -0.072,0.662 -5.909,-0.644 -6.168,-1.249 -6.019,-1.689 -5.821,-2.096 -5.575,-2.468 -5.279,-2.807 -4.935,-3.114 -4.542,-3.387 -4.098,-3.626 -3.607,-3.833 -3.065,-4.009 -2.472,-4.15 -1.813,-4.212 c -0.007,-0.016 -0.012,-0.032 -0.016,-0.048 l -1.124,-4.28 c -0.005,-0.018 -0.008,-0.036 -0.01,-0.055 l -0.385,-4.313 -0.386,-4.314 0.01,0.055 -1.124,-4.28 0.016,0.047 -1.792,-4.174 -2.431,-4.079 -3.022,-3.951 -3.562,-3.786 -4.056,-3.588 -4.498,-3.354 -4.892,-3.087 -5.236,-2.784 -5.532,-2.449 -5.776,-2.08 -5.972,-1.675 -6.119,-1.239 -6.215,-0.769 -6.292,-0.264 z m 126.631,88.014 7.749,4.467 -8.223,3.519 z"
         id="path38" />
      <path
         d="m 840.5,151.137 c 0,-4.218 3.419,-7.637 7.637,-7.637 h 182.723 c 4.22,0 7.64,3.419 7.64,7.637 v 40.726 c 0,4.218 -3.42,7.637 -7.64,7.637 H 848.137 c -4.218,0 -7.637,-3.419 -7.637,-7.637 z"
         stroke="#7b7b7b"
         stroke-width="0.666667"
         stroke-miterlimit="8"
         fill="#f2f2f2"
         fill-rule="evenodd"
         id="path39" />
      <text
         font-family="'Calibri Light', 'Calibri Light_MSFontService', sans-serif"
         font-weight="300"
         font-size="16px"
         transform="translate(891.083,176)"
         id="text39">8. Sites in code</text>
      <path
         d="m 705.514,171.167 6.292,0.268 6.269,0.784 6.17,1.264 6.02,1.711 5.822,2.123 5.576,2.501 5.28,2.844 4.934,3.155 4.542,3.431 4.098,3.672 3.606,3.882 3.065,4.058 2.474,4.2 1.832,4.31 c 0.007,0.015 0.012,0.03 0.016,0.046 l 1.124,4.34 c 0.005,0.018 0.008,0.036 0.009,0.054 l 0.386,4.374 0.385,4.373 -0.009,-0.054 1.124,4.339 -0.016,-0.046 1.813,4.271 2.433,4.129 3.022,4 3.563,3.834 4.055,3.634 4.498,3.398 4.892,3.127 5.237,2.822 5.531,2.481 5.777,2.106 5.973,1.698 6.12,1.254 5.849,0.645 -0.073,0.662 -5.91,-0.654 -6.168,-1.266 -6.019,-1.712 -5.822,-2.125 -5.575,-2.503 -5.279,-2.846 -4.935,-3.157 -4.541,-3.433 -4.099,-3.677 -3.606,-3.886 -3.065,-4.064 -2.472,-4.207 -1.813,-4.271 c -0.006,-0.015 -0.011,-0.03 -0.015,-0.046 l -1.124,-4.34 c -0.005,-0.018 -0.008,-0.036 -0.01,-0.054 l -0.385,-4.374 -0.386,-4.373 0.01,0.054 -1.124,-4.339 0.016,0.046 -1.793,-4.232 -2.432,-4.137 -3.021,-4.005 -3.563,-3.839 -4.055,-3.638 -4.499,-3.4 -4.892,-3.13 -5.236,-2.823 -5.531,-2.483 -5.776,-2.108 -5.972,-1.699 -6.119,-1.256 -6.215,-0.779 -6.291,-0.268 z m 126.634,89.286 7.746,4.473 -8.226,3.513 z"
         id="path40" />
      <path
         d="m 0.0139296,-0.333042 6.2915004,0.2631448 6.26897,0.7692362 6.1691,1.241411 6.02,1.67977 5.8221,2.08441 5.5752,2.45546 5.2795,2.79301 4.9348,3.0973 4.5411,3.3683 4.0984,3.6063 3.6065,3.8116 3.0653,3.9843 2.4743,4.1245 1.8328,4.2326 c 0.0067,0.0154 0.0121,0.0311 0.0164,0.0473 l 1.1237,4.2607 c 0.0048,0.0181 0.008,0.0365 0.0097,0.0552 l 0.3855,4.2943 0.3856,4.2943 -0.0097,-0.0553 1.1238,4.2607 -0.0164,-0.0472 1.8128,4.1935 2.4326,4.0536 3.0216,3.9266 3.5625,3.7645 4.0548,3.5677 4.4981,3.3361 4.8921,3.0704 5.2366,2.7703 5.5318,2.4362 5.777,2.0684 5.974,1.6668 6.12,1.2317 5.849,0.6327 -0.072,0.6628 -5.909,-0.642 -6.168,-1.243 -6.019,-1.6813 -5.821,-2.086 -5.5746,-2.4571 -5.2793,-2.7949 -4.9349,-3.0996 -4.5413,-3.3712 -4.0987,-3.6099 -3.6067,-3.8163 -3.0648,-3.9902 -2.4727,-4.1318 -1.8128,-4.1935 c -0.0066,-0.0153 -0.0121,-0.0311 -0.0164,-0.0472 l -1.1237,-4.2607 c -0.0048,-0.0181 -0.008,-0.0366 -0.0097,-0.0552 l -0.3856,-4.2943 -0.3855,-4.2943 0.0097,0.0552 -1.1238,-4.2607 0.0164,0.0473 L 63.5888,33.2884 61.1579,29.2275 58.1367,25.295 54.5741,21.5257 50.5189,17.9544 46.0206,14.6153 41.1285,11.5427 35.892,8.77046 30.3608,6.33255 24.5842,4.26263 18.6118,2.5943 12.4931,1.36103 6.27757,0.596187 -0.0139296,0.333042 Z M 126.643,87.2666 l 7.751,4.4644 -8.222,3.5217 z"
         transform="matrix(1,0,0,-1,373.5,358.231)"
         id="path41" />
      <path
         d="M 0.0386753,0.331082 -4.43791,0.854014 -4.36905,0.838442 -8.705,2.31629 -8.64827,2.29083 -12.703,4.58718 l 0.0471,-0.03227 -3.6328,2.97843 0.04,-0.0388 -3.0704,3.52406 0.0343,-0.047 -2.3672,3.9333 0.0278,-0.0584 -1.5234,4.2062 0.0173,-0.0724 -0.539,4.3426 7e-4,-0.0762 0.2307,2.1799 -0.0132,-0.0639 0.6724,2.1628 -0.0213,-0.0524 1.0847,2.1287 -0.0247,-0.041 1.4675,2.0775 -0.0375,-0.0444 3.9659,3.9334 -0.0464,-0.0383 5.1439,3.5241 -0.0419,-0.0244 6.08619,2.9784 6.75323,2.28 7.2239,1.467 7.45648,0.517 7.4949,0.4113 7.2986,1.1667 6.8261,1.8142 6.1203,2.3551 5.1822,2.7911 c 0.0254,0.0137 0.049,0.0306 0.07,0.0504 l 4.2275,3.9715 -0.4565,0.4859 -4.2274,-3.9715 0.07,0.0505 -5.1054,-2.7558 -6.0521,-2.3329 -6.76,-1.8002 L 23.6897,47.308 16.185,46.8962 8.64192,46.3674 1.33743,44.8786 -5.49535,42.5659 -11.5816,39.5875 c -0.0145,-0.0071 -0.0285,-0.0153 -0.0418,-0.0244 l -5.1439,-3.5241 c -0.0165,-0.0114 -0.032,-0.0242 -0.0463,-0.0384 l -3.9658,-3.9333 c -0.0138,-0.0137 -0.0264,-0.0285 -0.0376,-0.0444 l -1.4675,-2.0775 c -0.0092,-0.013 -0.0175,-0.0267 -0.0248,-0.041 l -1.0847,-2.1286 c -0.0086,-0.0168 -0.0157,-0.0344 -0.0213,-0.0524 l -0.6724,-2.1628 c -0.0065,-0.0208 -0.0109,-0.0422 -0.0132,-0.0639 l -0.2307,-2.1798 c -0.0027,-0.0253 -0.0024,-0.0509 7e-4,-0.0761 l 0.5391,-4.3426 c 0.003,-0.0248 0.0089,-0.0491 0.0173,-0.0725 l 1.5235,-4.2062 c 0.0073,-0.0203 0.0167,-0.0398 0.0278,-0.0584 l 2.3672,-3.9333 c 0.01,-0.0167 0.0215,-0.0324 0.0343,-0.0471 l 3.0703,-3.52409 c 0.0122,-0.01402 0.0256,-0.02702 0.04,-0.03881 l 3.6328,-2.97844 c 0.0148,-0.01209 0.0305,-0.02288 0.0471,-0.03227 L -8.97681,1.71073 C -8.95873,1.7005 -8.93974,1.69197 -8.92008,1.68527 L -4.58412,0.207421 C -4.56178,0.199808 -4.5387,0.194588 -4.51526,0.19185 l 4.4765847,-0.522932 z M 56.095,55.9477 l 0.3215,8.9385 -7.3437,-5.1059 z"
         transform="matrix(-1,0,0,1,705.917,264.5)"
         id="path42" />
    </g>
  </g>
</svg>
