<?xml version="1.0" encoding="UTF-8" standalone="no"?>
<!-- Created with Inkscape (http://www.inkscape.org/) -->

<svg
   width="318.14395mm"
   height="256.68433mm"
   viewBox="0 0 318.14396 256.68431"
   version="1.1"
   id="svg1"
   inkscape:version="1.3.2 (091e20e, 2023-11-25, custom)"
   sodipodi:docname="BF Security Concepts Model.svg"
   xml:space="preserve"
   xmlns:inkscape="http://www.inkscape.org/namespaces/inkscape"
   xmlns:sodipodi="http://sodipodi.sourceforge.net/DTD/sodipodi-0.dtd"
   xmlns="http://www.w3.org/2000/svg"
   xmlns:svg="http://www.w3.org/2000/svg"><sodipodi:namedview
     id="namedview1"
     pagecolor="#ffffff"
     bordercolor="#000000"
     borderopacity="0.25"
     inkscape:showpageshadow="2"
     inkscape:pageopacity="0.0"
     inkscape:pagecheckerboard="0"
     inkscape:deskcolor="#d1d1d1"
     inkscape:document-units="mm"
     inkscape:zoom="1.0307169"
     inkscape:cx="601.03798"
     inkscape:cy="485.58436"
     inkscape:window-width="2560"
     inkscape:window-height="1377"
     inkscape:window-x="-8"
     inkscape:window-y="859"
     inkscape:window-maximized="1"
     inkscape:current-layer="layer1" /><defs
     id="defs1" /><g
     inkscape:label="Layer 1"
     inkscape:groupmode="layer"
     id="layer1"
     transform="translate(53.853014,-20.648057)"><g
       transform="matrix(0.26458333,0,0,0.26458333,-42.779944,-471.13458)"
       id="g92"><path
         d="m 349.5,2819.5 20.5,-37 20.5,37 z"
         stroke="#7d3368"
         stroke-width="0.666667"
         stroke-linejoin="round"
         stroke-miterlimit="10"
         fill="#dfdaea"
         fill-rule="evenodd"
         id="path1" /><text
         font-family="'Calibri Light', 'Calibri Light_MSFontService', sans-serif"
         font-weight="300"
         font-size="21px"
         transform="translate(437.157,1873)"
         id="text1">BF Security Concepts Model</text><text
         font-family="'Calibri Light', 'Calibri Light_MSFontService', sans-serif"
         font-weight="300"
         font-size="21px"
         transform="translate(145.771,1933)"
         id="text2">Bug Type</text><text
         font-family="'Calibri Light', 'Calibri Light_MSFontService', sans-serif"
         font-weight="300"
         font-size="21px"
         transform="translate(853.416,1933)"
         id="text3">Error Type</text><text
         font-family="'Calibri Light', 'Calibri Light_MSFontService', sans-serif"
         font-weight="300"
         font-size="14px"
         transform="translate(941.683,1937)"
         id="text4">1</text><path
         d="m 144.5,1954 c 0,-6.35 5.149,-11.5 11.5,-11.5 h 257 c 6.351,0 11.5,5.15 11.5,11.5 v 46 c 0,6.35 -5.149,11.5 -11.5,11.5 H 156 c -6.351,0 -11.5,-5.15 -11.5,-11.5 z"
         stroke="#e8effc"
         stroke-width="0.666667"
         stroke-linejoin="round"
         stroke-miterlimit="10"
         fill="#e8effc"
         fill-rule="evenodd"
         id="path4" /><text
         fill="#660066"
         font-family="'Calibri Light', 'Calibri Light_MSFontService', sans-serif"
         font-weight="300"
         font-size="21px"
         transform="translate(267.498,1984)"
         id="text5">Bug</text><rect
         x="498.5"
         y="1942.5"
         width="280"
         height="69"
         stroke="#000000"
         stroke-width="0.666667"
         stroke-linejoin="round"
         stroke-miterlimit="10"
         fill="none"
         id="rect5" /><text
         fill="#660066"
         font-family="'Calibri Light', 'Calibri Light_MSFontService', sans-serif"
         font-weight="300"
         font-size="21px"
         transform="translate(589.712,1971)"
         id="text6">Operation</text><text
         fill="#660066"
         font-family="'Calibri Light', 'Calibri Light_MSFontService', sans-serif"
         font-weight="300"
         font-size="14px"
         transform="translate(676.085,1975)"
         id="text7">1,</text><text
         font-family="'Calibri Light', 'Calibri Light_MSFontService', sans-serif"
         font-weight="300"
         font-size="21px"
         transform="translate(519.898,1997)"
         id="text8">Operand</text><text
         font-family="'Calibri Light', 'Calibri Light_MSFontService', sans-serif"
         font-weight="300"
         font-size="14px"
         transform="translate(594.812,2001)"
         id="text9">11</text><text
         font-family="'Calibri Light', 'Calibri Light_MSFontService', sans-serif"
         font-weight="300"
         font-size="21px"
         transform="translate(612.312,1997)"
         id="text10">,</text><text
         font-family="'Calibri Light', 'Calibri Light_MSFontService', sans-serif"
         font-weight="300"
         font-size="21px"
         transform="translate(622.312,1997)"
         id="text11">... Operand</text><text
         font-family="'Calibri Light', 'Calibri Light_MSFontService', sans-serif"
         font-weight="300"
         font-size="14px"
         transform="translate(717.558,2001)"
         id="text12">1i</text><text
         font-family="'Calibri Light', 'Calibri Light_MSFontService', sans-serif"
         font-weight="300"
         font-size="21px"
         transform="translate(731.058,1997)"
         id="text13">,</text><text
         font-family="'Calibri Light', 'Calibri Light_MSFontService', sans-serif"
         font-weight="300"
         font-size="21px"
         transform="translate(741.058,1997)"
         id="text14">...</text><path
         d="m 852.5,1954 c 0,-6.35 5.149,-11.5 11.5,-11.5 h 257 c 6.35,0 11.5,5.15 11.5,11.5 v 46 c 0,6.35 -5.15,11.5 -11.5,11.5 H 864 c -6.351,0 -11.5,-5.15 -11.5,-11.5 z"
         stroke="#f4f2f8"
         stroke-width="0.666667"
         stroke-linejoin="round"
         stroke-miterlimit="10"
         fill="#f4f2f8"
         fill-rule="evenodd"
         id="path14" /><text
         fill="#660066"
         font-family="'Calibri Light', 'Calibri Light_MSFontService', sans-serif"
         font-weight="300"
         font-size="21px"
         transform="translate(967.036,1984)"
         id="text15">Error</text><text
         fill="#660066"
         font-family="'Calibri Light', 'Calibri Light_MSFontService', sans-serif"
         font-weight="300"
         font-size="14px"
         transform="translate(1010.28,1988)"
         id="text16">1</text><path
         d="m 424.5,1976.17 h 67.411 v 0.66 H 424.5 Z m 66.078,-3.67 8,4 -8,4 z"
         id="path16" /><path
         d="m 778.5,1976.17 h 67.028 v 0.66 H 778.5 Z m 65.695,-3.67 8,4 -8,4 z"
         id="path17" /><text
         font-family="'Calibri Light', 'Calibri Light_MSFontService', sans-serif"
         font-weight="300"
         font-size="21px"
         transform="translate(145.73,2187)"
         id="text17">Fault Type</text><text
         font-family="'Calibri Light', 'Calibri Light_MSFontService', sans-serif"
         font-weight="300"
         font-size="14px"
         transform="translate(232.844,2191)"
         id="text18">1</text><text
         font-family="'Calibri Light', 'Calibri Light_MSFontService', sans-serif"
         font-weight="300"
         font-size="21px"
         transform="translate(-42.579,2215)"
         id="text19">Weakness Type</text><text
         font-family="'Calibri Light', 'Calibri Light_MSFontService', sans-serif"
         font-weight="300"
         font-size="14px"
         transform="translate(88.661,2219)"
         id="text20">2</text><text
         fill="#660066"
         font-family="'Calibri Light', 'Calibri Light_MSFontService', sans-serif"
         font-weight="300"
         font-size="21px"
         transform="translate(-42.579,2247)"
         id="text21">Weakness</text><text
         fill="#660066"
         font-family="'Calibri Light', 'Calibri Light_MSFontService', sans-serif"
         font-weight="300"
         font-size="14px"
         transform="translate(43.641,2251)"
         id="text22">2</text><text
         font-family="'Calibri Light', 'Calibri Light_MSFontService', sans-serif"
         font-weight="300"
         font-size="21px"
         transform="translate(856.743,2187)"
         id="text23">Error Type</text><text
         font-family="'Calibri Light', 'Calibri Light_MSFontService', sans-serif"
         font-weight="300"
         font-size="14px"
         transform="translate(945.01,2191)"
         id="text24">2</text><path
         d="m 144.5,2207.17 c 0,-6.45 5.224,-11.67 11.667,-11.67 h 256.666 c 6.444,0 11.667,5.22 11.667,11.67 v 46.66 c 0,6.45 -5.223,11.67 -11.667,11.67 H 156.167 c -6.443,0 -11.667,-5.22 -11.667,-11.67 z"
         stroke="#f4f2f8"
         stroke-width="0.666667"
         stroke-linejoin="round"
         stroke-miterlimit="10"
         fill="#f4f2f8"
         fill-rule="evenodd"
         id="path24" /><text
         fill="#660066"
         font-family="'Calibri Light', 'Calibri Light_MSFontService', sans-serif"
         font-weight="300"
         font-size="21px"
         transform="translate(259.201,2237)"
         id="text25">Fault</text><text
         fill="#660066"
         font-family="'Calibri Light', 'Calibri Light_MSFontService', sans-serif"
         font-weight="300"
         font-size="14px"
         transform="translate(301.294,2241)"
         id="text26">1</text><rect
         x="498.5"
         y="2195.5"
         width="280"
         height="70"
         stroke="#000000"
         stroke-width="0.666667"
         stroke-linejoin="round"
         stroke-miterlimit="10"
         fill="none"
         id="rect26" /><text
         font-family="'Calibri Light', 'Calibri Light_MSFontService', sans-serif"
         font-weight="300"
         font-size="21px"
         transform="translate(588.878,2224)"
         id="text27">Operation</text><text
         font-family="'Calibri Light', 'Calibri Light_MSFontService', sans-serif"
         font-weight="300"
         font-size="14px"
         transform="translate(675.252,2228)"
         id="text28">2</text><text
         font-family="'Calibri Light', 'Calibri Light_MSFontService', sans-serif"
         font-weight="300"
         font-size="21px"
         transform="translate(682.418,2224)"
         id="text29">,</text><text
         font-family="'Calibri Light', 'Calibri Light_MSFontService', sans-serif"
         font-weight="300"
         font-size="21px"
         transform="translate(517.732,2250)"
         id="text30">Operand</text><text
         font-family="'Calibri Light', 'Calibri Light_MSFontService', sans-serif"
         font-weight="300"
         font-size="14px"
         transform="translate(592.645,2254)"
         id="text31">21</text><text
         font-family="'Calibri Light', 'Calibri Light_MSFontService', sans-serif"
         font-weight="300"
         font-size="21px"
         transform="translate(610.145,2250)"
         id="text32">, …,</text><text
         fill="#7d3368"
         font-family="'Calibri Light', 'Calibri Light_MSFontService', sans-serif"
         font-weight="300"
         font-size="21px"
         transform="translate(644.645,2250)"
         id="text33">Operand</text><text
         fill="#7d3368"
         font-family="'Calibri Light', 'Calibri Light_MSFontService', sans-serif"
         font-weight="300"
         font-size="14px"
         transform="translate(719.558,2254)"
         id="text34">2j</text><text
         font-family="'Calibri Light', 'Calibri Light_MSFontService', sans-serif"
         font-weight="300"
         font-size="21px"
         transform="translate(733.225,2250)"
         id="text35">,</text><text
         font-family="'Calibri Light', 'Calibri Light_MSFontService', sans-serif"
         font-weight="300"
         font-size="21px"
         transform="translate(743.225,2250)"
         id="text36">...</text><path
         d="m 855.5,2207.17 c 0,-6.45 5.224,-11.67 11.667,-11.67 h 256.663 c 6.45,0 11.67,5.22 11.67,11.67 v 46.66 c 0,6.45 -5.22,11.67 -11.67,11.67 H 867.167 c -6.443,0 -11.667,-5.22 -11.667,-11.67 z"
         stroke="#f4f2f8"
         stroke-width="0.666667"
         stroke-linejoin="round"
         stroke-miterlimit="10"
         fill="#f4f2f8"
         fill-rule="evenodd"
         id="path36" /><text
         fill="#660066"
         font-family="'Calibri Light', 'Calibri Light_MSFontService', sans-serif"
         font-weight="300"
         font-size="21px"
         transform="translate(969.904,2237)"
         id="text37">Error</text><text
         fill="#660066"
         font-family="'Calibri Light', 'Calibri Light_MSFontService', sans-serif"
         font-weight="300"
         font-size="14px"
         transform="translate(1013.15,2241)"
         id="text38">2</text><path
         d="m 424.5,2230.17 h 67.411 v 0.66 H 424.5 Z m 66.078,-3.67 8,4 -8,4 z"
         id="path38" /><path
         d="m 778.5,2230.17 h 69.896 v 0.66 H 778.5 Z m 68.563,-3.67 8,4 -8,4 z"
         id="path39" /><path
         d="M 0.0462914,0.330103 -2.2004,0.645164 -2.11972,0.623263 -4.34884,1.54163 l 0.05956,-0.03195 -2.19397,1.48146 0.04126,-0.0329 -2.14125,2.00433 -2.04256,2.45692 -1.9632,2.90291 -1.8633,3.3084 -1.7439,3.673 -3.0582,8.2847 -2.3565,9.2445 -1.5167,9.8892 -0.5355,10.2098 -0.0031,-0.0659 0.1888,1.2869 -0.0244,-0.0852 0.5626,1.2863 -0.0533,-0.0846 2.2225,2.5682 -0.0606,-0.0548 3.6464,2.5582 -0.0409,-0.0246 5.0226,2.5431 6.32384,2.5105 7.61336,2.4908 8.8523,2.4633 10.0421,2.4296 11.1834,2.3902 12.2764,2.3456 13.3217,2.2956 14.3192,2.2406 15.2689,2.1804 16.1713,2.1152 17.026,2.0449 17.833,1.9696 18.592,1.8892 19.305,1.8038 19.969,1.7133 20.586,1.6178 21.156,1.517 21.678,1.412 22.153,1.301 22.579,1.186 22.96,1.065 23.291,0.939 47.391,1.481 48.15,0.919 48.529,0.315 48.534,0.411 48.159,1.201 47.4,1.937 23.297,1.228 22.964,1.393 22.585,1.55 22.157,1.702 21.683,1.846 21.161,1.984 20.592,2.116 19.974,2.24 19.311,2.359 18.599,2.471 17.84,2.576 17.033,2.675 16.18,2.767 15.278,2.852 14.33,2.932 13.334,3.004 12.291,3.07 11.201,3.13 10.064,3.184 8.88,3.23 7.65,3.273 6.375,3.309 5.05,3.343 c 0.02,0.009 0.03,0.02 0.04,0.032 l 3.65,3.345 c 0.02,0.018 0.04,0.039 0.05,0.061 l 2.22,3.358 c 0.02,0.024 0.03,0.051 0.04,0.078 l 0.57,1.682 c 0,0.022 0.01,0.045 0.01,0.069 l 0.19,1.682 c 0,0.017 0,0.034 0,0.051 l -0.54,13.391 -1.52,12.996 -2.37,12.154 -1.46,5.637 -1.62,5.264 -1.76,4.845 -1.89,4.374 -1.99,3.851 -2.086,3.277 c -0.014,0.022 -0.03,0.042 -0.049,0.061 l -3,2.902 -0.464,-0.479 3,-2.902 -0.049,0.06 2.056,-3.226 1.972,-3.808 1.87,-4.338 1.75,-4.813 1.61,-5.235 1.45,-5.598 2.36,-12.104 1.53,-12.945 0.54,-13.391 v 0.051 l -0.19,-1.683 0.01,0.069 -0.56,-1.682 0.04,0.078 -2.22,-3.358 0.05,0.062 -3.65,-3.345 0.04,0.033 -4.99,-3.307 -6.327,-3.288 -7.616,-3.259 -8.853,-3.222 -10.042,-3.177 -11.183,-3.125 -12.276,-3.067 -13.322,-3.001 -14.318,-2.93 -15.269,-2.85 -16.17,-2.766 -17.025,-2.673 -17.833,-2.575 -18.592,-2.47 -19.304,-2.358 -19.968,-2.24 -20.586,-2.115 -21.155,-1.984 -21.678,-1.846 -22.152,-1.701 -22.579,-1.55 -22.959,-1.392 -23.29,-1.228 -47.389,-1.936 -48.148,-1.201 -48.532,-0.412 -48.538,-0.315 -48.157,-0.918 -47.397,-1.482 -23.296,-0.939 -22.964,-1.065 -22.584,-1.186 -22.156,-1.302 -21.683,-1.412 -21.16,-1.517 -20.591,-1.6186 -19.974,-1.7137 -19.31,-1.8043 -18.598,-1.8898 -17.84,-1.9703 L 103.083,88.9825 86.9045,86.8662 71.6267,84.6844 57.2974,82.4422 43.9638,80.1444 31.6731,77.796 20.4723,75.4017 10.4083,72.9664 1.52736,70.4945 l -7.65213,-2.5048 -6.37893,-2.5354 -5.0226,-2.543 c -0.0141,-0.0072 -0.0278,-0.0154 -0.0408,-0.0245 l -3.6463,-2.5581 c -0.0224,-0.0157 -0.0428,-0.0341 -0.0606,-0.0547 l -2.2226,-2.5682 c -0.022,-0.0253 -0.04,-0.0539 -0.0534,-0.0846 l -0.5626,-1.2862 c -0.0118,-0.0272 -0.0201,-0.0559 -0.0244,-0.0852 l -0.1888,-1.2869 C -24.329,54.9411 -24.33,54.919 -24.3289,54.897 l 0.5424,-10.2759 1.5297,-9.9529 2.3771,-9.3107 3.0814,-8.3398 1.7652,-3.7142 1.892,-3.35478 2.003,-2.95584 2.09928,-2.51702 2.14124,-2.00433 C -6.88471,2.45949 -6.87093,2.4485 -6.85632,2.43864 l 2.19397,-1.481461 c 0.01872,-0.012641 0.03867,-0.023346 0.05956,-0.03195 L -2.37367,0.00685931 C -2.3478,-0.00379922 -2.3207,-0.0111564 -2.29299,-0.0150422 L -0.0462914,-0.330103 Z M 997.666,252.982 l -8.934,0.434 5.013,-7.408 z"
         transform="matrix(-1,0,0,1,1133.23,1976.5)"
         id="path40" /><text
         font-family="'Calibri Light', 'Calibri Light_MSFontService', sans-serif"
         font-weight="300"
         font-size="21px"
         transform="translate(145.771,2438)"
         id="text40">Fault Type</text><text
         font-family="'Calibri Light', 'Calibri Light_MSFontService', sans-serif"
         font-weight="300"
         font-size="14px"
         transform="translate(232.884,2442)"
         id="text41">N</text><text
         font-family="'Calibri Light', 'Calibri Light_MSFontService', sans-serif"
         font-weight="300"
         font-size="14px"
         transform="translate(241.884,2442)"
         id="text42">-</text><text
         font-family="'Calibri Light', 'Calibri Light_MSFontService', sans-serif"
         font-weight="300"
         font-size="14px"
         transform="translate(246.217,2442)"
         id="text43">1</text><text
         font-family="'Calibri Light', 'Calibri Light_MSFontService', sans-serif"
         font-weight="300"
         font-size="21px"
         transform="translate(-42.579,2466)"
         id="text44">Weakness</text><text
         font-family="'Calibri Light', 'Calibri Light_MSFontService', sans-serif"
         font-weight="300"
         font-size="21px"
         transform="translate(48.4743,2466)"
         id="text45">Type</text><text
         font-family="'Calibri Light', 'Calibri Light_MSFontService', sans-serif"
         font-weight="300"
         font-size="14px"
         transform="translate(88.661,2470)"
         id="text46">N</text><text
         fill="#660066"
         font-family="'Calibri Light', 'Calibri Light_MSFontService', sans-serif"
         font-weight="300"
         font-size="21px"
         transform="translate(-42.579,2498)"
         id="text47">Weakness</text><text
         fill="#660066"
         font-family="'Calibri Light', 'Calibri Light_MSFontService', sans-serif"
         font-weight="300"
         font-size="14px"
         transform="translate(43.641,2502)"
         id="text48">N</text><text
         font-family="'Calibri Light', 'Calibri Light_MSFontService', sans-serif"
         font-weight="300"
         font-size="21px"
         transform="translate(856.743,2438)"
         id="text49">Final Error Type</text><path
         d="m 144.5,2459 c 0,-6.35 5.149,-11.5 11.5,-11.5 h 257 c 6.351,0 11.5,5.15 11.5,11.5 v 46 c 0,6.35 -5.149,11.5 -11.5,11.5 H 156 c -6.351,0 -11.5,-5.15 -11.5,-11.5 z"
         stroke="#f4f2f8"
         stroke-width="0.666667"
         stroke-linejoin="round"
         stroke-miterlimit="10"
         fill="#f4f2f8"
         fill-rule="evenodd"
         id="path49" /><text
         fill="#660066"
         font-family="'Calibri Light', 'Calibri Light_MSFontService', sans-serif"
         font-weight="300"
         font-size="21px"
         transform="translate(252.534,2489)"
         id="text50">Fault</text><text
         fill="#660066"
         font-family="'Calibri Light', 'Calibri Light_MSFontService', sans-serif"
         font-weight="300"
         font-size="14px"
         transform="translate(294.628,2493)"
         id="text51">N</text><text
         fill="#660066"
         font-family="'Calibri Light', 'Calibri Light_MSFontService', sans-serif"
         font-weight="300"
         font-size="14px"
         transform="translate(303.628,2493)"
         id="text52">-</text><text
         fill="#660066"
         font-family="'Calibri Light', 'Calibri Light_MSFontService', sans-serif"
         font-weight="300"
         font-size="14px"
         transform="translate(307.961,2493)"
         id="text53">1</text><rect
         x="498.5"
         y="2447.5"
         width="280"
         height="69"
         stroke="#000000"
         stroke-width="0.666667"
         stroke-linejoin="round"
         stroke-miterlimit="10"
         fill="none"
         id="rect53" /><text
         font-family="'Calibri Light', 'Calibri Light_MSFontService', sans-serif"
         font-weight="300"
         font-size="21px"
         transform="translate(587.955,2476)"
         id="text54">Operation</text><text
         font-family="'Calibri Light', 'Calibri Light_MSFontService', sans-serif"
         font-weight="300"
         font-size="14px"
         transform="translate(674.328,2480)"
         id="text55">N</text><text
         font-family="'Calibri Light', 'Calibri Light_MSFontService', sans-serif"
         font-weight="300"
         font-size="21px"
         transform="translate(683.328,2476)"
         id="text56">,</text><text
         font-family="'Calibri Light', 'Calibri Light_MSFontService', sans-serif"
         font-weight="300"
         font-size="21px"
         transform="translate(513.982,2502)"
         id="text57">Operand</text><text
         font-family="'Calibri Light', 'Calibri Light_MSFontService', sans-serif"
         font-weight="300"
         font-size="14px"
         transform="translate(588.895,2506)"
         id="text58">N1</text><text
         font-family="'Calibri Light', 'Calibri Light_MSFontService', sans-serif"
         font-weight="300"
         font-size="21px"
         transform="translate(608.228,2502)"
         id="text59">,</text><text
         font-family="'Calibri Light', 'Calibri Light_MSFontService', sans-serif"
         font-weight="300"
         font-size="21px"
         transform="translate(618.228,2502)"
         id="text60">…,</text><text
         fill="#7d3368"
         font-family="'Calibri Light', 'Calibri Light_MSFontService', sans-serif"
         font-weight="300"
         font-size="21px"
         transform="translate(642.728,2502)"
         id="text61">Operand</text><text
         fill="#7d3368"
         font-family="'Calibri Light', 'Calibri Light_MSFontService', sans-serif"
         font-weight="300"
         font-size="14px"
         transform="translate(717.642,2506)"
         id="text62">NP</text><text
         font-family="'Calibri Light', 'Calibri Light_MSFontService', sans-serif"
         font-weight="300"
         font-size="21px"
         transform="translate(736.975,2502)"
         id="text63">,</text><text
         font-family="'Calibri Light', 'Calibri Light_MSFontService', sans-serif"
         font-weight="300"
         font-size="21px"
         transform="translate(746.975,2502)"
         id="text64">...</text><path
         d="m 855.5,2459 c 0,-6.35 5.149,-11.5 11.5,-11.5 h 257 c 6.35,0 11.5,5.15 11.5,11.5 v 46 c 0,6.35 -5.15,11.5 -11.5,11.5 H 867 c -6.351,0 -11.5,-5.15 -11.5,-11.5 z"
         stroke="#dfdaea"
         stroke-width="0.666667"
         stroke-linejoin="round"
         stroke-miterlimit="10"
         fill="#dfdaea"
         fill-rule="evenodd"
         id="path64" /><text
         fill="#660066"
         font-family="'Calibri Light', 'Calibri Light_MSFontService', sans-serif"
         font-weight="300"
         font-size="21px"
         transform="translate(950.905,2489)"
         id="text65">Final Error</text><path
         d="m 424.5,2482.17 h 67.411 v 0.66 H 424.5 Z m 66.078,-3.67 8,4 -8,4 z"
         id="path65" /><path
         d="m 778.5,2482.17 h 69.896 v 0.66 H 778.5 Z m 68.563,-3.67 8,4 -8,4 z"
         id="path66" /><path
         d="m 0.0508085,0.329438 -2.2470885,0.346563 0.08677,-0.025818 -2.2295,1.010187 0.06116,-0.03601 -2.19434,1.62958 0.04036,-0.03535 -2.1416,2.20472 -2.04467,2.70459 -1.9652,3.1958 -1.8652,3.642 -1.7455,4.043 -3.0603,9.1173 -2.3585,10.1744 -1.518,10.8838 -0.5362,11.2368 0.289,5.6226 0.8391,5.5788 1.353,5.4927 1.8304,5.3622 2.2711,5.1871 2.6753,4.9676 6.42316,9.109 3.65777,4.031 3.921549,3.645 4.139961,3.203 4.32087,2.717 4.46419,2.187 4.57,1.615 4.6386,0.998 4.6704,0.34 4.7267,0.496 c 0.0215,0.002 0.0427,0.006 0.0633,0.013 l 4.6795,1.441 c 0.0179,0.005 0.0353,0.012 0.0521,0.021 l 4.6056,2.324 c 0.0142,0.007 0.0279,0.015 0.0409,0.024 l 4.495,3.145 4.379,3.928 4.1873,4.62 3.9606,5.251 3.6985,5.817 3.4004,6.321 3.0661,6.762 2.6954,7.141 2.2881,7.456 1.8441,7.709 1.3632,7.899 0.8454,8.025 0.052,1.428 -0.6663,0.024 -0.0487,-1.382 -0.8394,-7.982 -1.3546,-7.857 -1.8331,-7.668 -2.2745,-7.417 -2.6788,-7.1 -3.0461,-6.722 -3.3759,-6.279 -3.6681,-5.774 -3.9224,-5.204 -4.1385,-4.572 -4.3159,-3.877 -4.4949,-3.145 0.0409,0.024 -4.6057,-2.324 0.0521,0.021 -4.6795,-1.441 0.0634,0.013 -4.706,-0.494 -4.7623,-0.353 -4.7202,-1.022 -4.6413,-1.644 -4.52565,-2.222 -4.37388,-2.754 -4.185838,-3.242 -3.961522,-3.685 -3.70878,-4.095 -6.46523,-9.177 -2.699,-5.0163 -2.2914,-5.2392 -1.8468,-5.4181 -1.3649,-5.553 -0.8456,-5.6438 -0.2891,-5.6885 0.5419,-11.2971 1.5288,-10.9423 2.3759,-10.2359 3.0803,-9.1694 1.7642,-4.0827 1.8907,-3.6875 2.0015,-3.24873 2.09797,-2.76667 2.1416,-2.20472 C -6.89754,2.74122 -6.88405,2.72941 -6.86966,2.71872 L -4.67532,1.08914 C -4.65627,1.075 -4.63577,1.06293 -4.61416,1.05313 l 2.22951,-1.0101881 c 0.02761,-0.0125103 0.0568,-0.0211976 0.08676,-0.025818 L -0.0508085,-0.329438 Z M 80.4572,198.835 l -3.7111,8.138 -4.2838,-7.852 z"
         transform="matrix(-1,0,0,1,1136.25,2482.5)"
         id="path67" /><path
         d="m -40.5001,2760 c 0,-2.49 2.0148,-4.5 4.5001,-4.5 h 32.99997 c 2.485324,0 4.50008,2.01 4.50008,4.5 v 18 c 0,2.49 -2.014756,4.5 -4.50008,4.5 H -36 c -2.4853,0 -4.5001,-2.01 -4.5001,-4.5 z"
         stroke="#e8effc"
         stroke-width="0.666667"
         stroke-linejoin="round"
         stroke-miterlimit="10"
         fill="#e8effc"
         fill-rule="evenodd"
         id="path68" /><text
         font-family="'Calibri Light', 'Calibri Light_MSFontService', sans-serif"
         font-weight="300"
         font-size="19px"
         transform="translate(5.63055,2776)"
         id="text68">Bug</text><rect
         x="133.5"
         y="2755.5"
         width="42"
         height="27"
         stroke="#000000"
         stroke-width="0.666667"
         stroke-linejoin="round"
         stroke-miterlimit="10"
         fill="none"
         id="rect68" /><text
         font-family="'Calibri Light', 'Calibri Light_MSFontService', sans-serif"
         font-weight="300"
         font-size="19px"
         transform="translate(179.293,2776)"
         id="text69">Operation</text><path
         d="m -38.5001,2797 c 0,-2.49 2.0148,-4.5 4.5001,-4.5 h 32.99997 c 2.48532,0 4.50008,2.01 4.50008,4.5 v 18 c 0,2.49 -2.01476,4.5 -4.50008,4.5 H -34 c -2.4853,0 -4.5001,-2.01 -4.5001,-4.5 z"
         stroke="#f4f2f8"
         stroke-width="0.666667"
         stroke-linejoin="round"
         stroke-miterlimit="10"
         fill="#f4f2f8"
         fill-rule="evenodd"
         id="path69" /><text
         font-family="'Calibri Light', 'Calibri Light_MSFontService', sans-serif"
         font-weight="300"
         font-size="19px"
         transform="translate(7.02929,2813)"
         id="text70">Fault / Error</text><path
         d="m 133.5,2797 c 0,-2.49 2.015,-4.5 4.5,-4.5 h 33 c 2.485,0 4.5,2.01 4.5,4.5 v 18 c 0,2.49 -2.015,4.5 -4.5,4.5 h -33 c -2.485,0 -4.5,-2.01 -4.5,-4.5 z"
         stroke="#dfdaea"
         stroke-width="0.666667"
         stroke-linejoin="round"
         stroke-miterlimit="10"
         fill="#dfdaea"
         fill-rule="evenodd"
         id="path70" /><text
         font-family="'Calibri Light', 'Calibri Light_MSFontService', sans-serif"
         font-weight="300"
         font-size="19px"
         transform="translate(179.293,2813)"
         id="text71">Final Error</text><text
         font-family="'Calibri Light', 'Calibri Light_MSFontService', sans-serif"
         font-weight="300"
         font-size="19px"
         transform="translate(396.017,2813)"
         id="text72">Failure</text><path
         d="M 0.0672737,0.326474 -1.61457,0.673036 -1.50922,0.631714 -3.17789,1.64191 -3.11574,1.59338 -4.7581,3.22295 l 0.03483,-0.0406 -1.60289,2.20472 -1.52986,2.70396 -1.47172,3.19747 -1.39706,3.6446 -1.3075,4.046 -2.2918,9.1221 -1.7666,10.1809 -1.1371,10.8906 -0.4019,11.2443 0.2086,2.794 -0.0068,-0.0468 0.619,2.8251 1.0035,2.7722 1.3834,2.7614 -0.0258,-0.043 3.8947,5.5228 -0.0341,-0.0409 5.26925,5.3901 6.50751,5.1856 7.67467,4.9728 8.73557,4.7129 9.6898,4.4068 10.5378,4.055 11.2794,3.659 11.9147,3.217 12.4439,2.732 12.867,2.202 13.1841,1.627 13.3955,1.009 13.5,0.346 13.52,0.494 13.435,1.443 13.221,2.327 12.904,3.15 12.48,3.907 11.951,4.604 11.316,5.236 10.577,5.805 9.731,6.313 8.78,6.758 7.724,7.14 6.563,7.461 5.293,7.72 c 0.009,0.013 0.017,0.026 0.024,0.041 l 3.895,7.877 1.414,4.028 1.025,4.043 c 0.003,0.015 0.006,0.031 0.008,0.046 l 0.152,1.435 -0.663,0.07 -0.152,-1.435 0.008,0.047 -1.007,-3.985 -1.383,-3.953 -3.894,-7.878 0.023,0.041 -5.244,-7.657 -6.514,-7.412 -7.678,-7.101 -8.737,-6.726 -9.689,-6.288 -10.536,-5.785 -11.276,-5.219 -11.91,-4.589 -12.439,-3.897 -12.861,-3.14 -13.178,-2.321 -13.387,-1.44 -13.513,-0.494 -13.533,-0.347 L 99.4348,119.784 86.22,118.152 73.3224,115.944 60.8477,113.205 48.9011,109.978 37.588,106.307 27.0136,102.237 17.2832,97.8099 8.50161,93.0698 0.773942,88.0587 -5.79467,82.818 -11.0639,77.4278 c -0.0124,-0.0127 -0.0238,-0.0263 -0.034,-0.0409 l -3.8947,-5.5228 c -0.0096,-0.0137 -0.0182,-0.0281 -0.0257,-0.043 l -1.4142,-2.8334 -1.0276,-2.8557 -0.619,-2.8251 c -0.0034,-0.0154 -0.0057,-0.031 -0.0068,-0.0467 l -0.21,-2.8671 0.4051,-11.2897 1.1433,-10.9354 1.7768,-10.2293 2.3041,-9.1647 1.3193,-4.0797 1.41405,-3.6848 1.49722,-3.24716 1.57065,-2.7673 1.60289,-2.20472 c 0.0105,-0.01444 0.02216,-0.02803 0.03483,-0.04061 L -3.5853,1.12013 C -3.56658,1.10155 -3.54571,1.08526 -3.52315,1.0716 L -1.85447,0.0614109 C -1.82196,0.0417312 -1.78633,0.0277574 -1.74912,0.0200881 L -0.0672737,-0.326474 Z M 273.937,198.608 l -3.167,8.365 -4.791,-7.553 z"
         transform="matrix(-1,0,0,1,1136.27,2482.5)"
         id="path72" /><text
         font-family="'Calibri Light', 'Calibri Light_MSFontService', sans-serif"
         font-weight="300"
         font-size="21px"
         transform="translate(948.052,2727)"
         id="text73">…</text><path
         d="M 0.0463672,0.330093 -2.20035,0.645682 -2.11956,0.623717 -4.3487,1.54363 -4.2891,1.51161 -6.48309,2.99554 -6.44185,2.9626 l -2.14126,2.00768 -2.04259,2.46106 -1.9633,2.90786 -1.8633,3.3139 -1.7439,3.6792 -3.0583,8.2985 -2.3565,9.2599 -1.5167,9.9057 -0.5356,10.2266 -0.0031,-0.0659 0.1894,1.2891 -0.0245,-0.0852 0.5641,1.2885 -0.0534,-0.0846 2.2288,2.5725 -0.0607,-0.0547 3.6564,2.5625 -0.0408,-0.0245 5.0365,2.5474 6.34142,2.5149 7.6345,2.495 8.87688,2.4675 10.0699,2.4338 11.2143,2.3943 12.3105,2.3495 13.3585,2.2996 14.3588,2.2444 15.3113,2.1841 16.2155,2.1188 17.073,2.0484 17.883,1.9729 18.644,1.8924 19.358,1.8068 20.024,1.7162 20.643,1.6206 21.215,1.5197 21.738,1.414 22.214,1.304 22.642,1.187 23.023,1.067 23.356,0.941 47.522,1.483 48.283,0.92 48.663,0.316 48.668,0.406 48.293,1.185 47.53,1.911 23.362,1.212 23.028,1.373 22.647,1.53 22.218,1.679 21.743,1.821 21.219,1.957 20.649,2.088 20.03,2.21 19.364,2.328 18.65,2.437 17.889,2.542 17.081,2.638 16.224,2.73 15.321,2.814 14.369,2.892 13.371,2.964 12.325,3.029 11.232,3.088 10.092,3.141 8.904,3.187 7.671,3.229 6.388,3.264 5.07,3.298 c 0.01,0.01 0.03,0.02 0.04,0.032 l 3.66,3.3 c 0.02,0.018 0.04,0.038 0.05,0.061 l 2.23,3.313 c 0.02,0.024 0.03,0.051 0.04,0.078 l 0.56,1.66 c 0.01,0.022 0.02,0.045 0.02,0.069 l 0.19,1.66 c 0,0.017 0,0.034 0,0.051 l -0.54,13.212 -1.52,12.823 -2.38,11.992 -1.46,5.562 -1.61,5.194 -1.76,4.78 -1.89,4.316 -1.99,3.8 -2.09,3.233 c -0.01,0.022 -0.03,0.043 -0.05,0.061 l -2.984,2.846 -0.46,-0.483 2.984,-2.846 -0.05,0.061 2.06,-3.182 1.97,-3.757 1.87,-4.279 1.75,-4.748 1.61,-5.165 1.45,-5.522 2.36,-11.942 1.52,-12.771 0.54,-13.212 0.01,0.052 -0.19,-1.66 0.01,0.069 -0.56,-1.659 0.04,0.079 -2.23,-3.313 0.05,0.062 -3.66,-3.3 0.05,0.032 -5.01,-3.263 -6.347,-3.244 -7.637,-3.215 -8.878,-3.179 -10.07,-3.134 -11.214,-3.083 -12.31,-3.026 -13.358,-2.961 -14.359,-2.89 -15.311,-2.812 -16.215,-2.729 -17.072,-2.637 -17.882,-2.541 -18.644,-2.436 -19.357,-2.327 -20.024,-2.21 -20.643,-2.087 -21.214,-1.957 -21.737,-1.821 -22.213,-1.678 -22.642,-1.529 -23.023,-1.374 -23.354,-1.211 -47.52,-1.911 -48.281,-1.184 -48.667,-0.407 -48.672,-0.315 -48.291,-0.92 -47.528,-1.484 -23.36,-0.941 -23.027,-1.067 -22.647,-1.188 -22.218,-1.303 -21.742,-1.415 -21.219,-1.52 -20.648,-1.6211 -20.029,-1.7166 -19.364,-1.8074 -18.649,-1.893 -17.889,-1.9736 -17.08,-2.0493 -16.2237,-2.1198 -15.32,-2.1855 -14.369,-2.246 L 44.1519,80.278 31.8272,77.9256 20.5955,75.5273 10.5036,73.0879 1.59817,70.6117 -6.07506,68.1026 -12.4715,65.563 -17.508,63.0156 c -0.0142,-0.0072 -0.0278,-0.0153 -0.0409,-0.0244 l -3.6564,-2.5625 c -0.0223,-0.0157 -0.0427,-0.0341 -0.0606,-0.0547 l -2.2287,-2.5726 c -0.022,-0.0253 -0.04,-0.0539 -0.0535,-0.0846 l -0.5641,-1.2885 c -0.0119,-0.0272 -0.0201,-0.0558 -0.0244,-0.0852 L -24.326,55.054 c -0.0032,-0.0218 -0.0042,-0.0439 -0.0031,-0.0659 l 0.5424,-10.2927 1.5296,-9.9692 2.3771,-9.326 3.0814,-8.3536 1.7653,-3.7204 1.892,-3.36031 2.0029,-2.96074 2.0993,-2.5212 2.14126,-2.00768 C -6.88497,2.46421 -6.87121,2.45321 -6.85659,2.44333 L -4.6626,0.959391 c 0.01872,-0.012666 0.03869,-0.023396 0.05959,-0.03202 l 2.22914,-0.91990868 c 0.0259,-0.0106875 0.05304,-0.01806832 0.08079,-0.02196542 L -0.0463672,-0.330093 Z M 1000.54,251.281 l -8.94,0.394 5.046,-7.385 z"
         transform="matrix(-1,0,0,1,1136.1,2230.5)"
         id="path73" /><text
         font-family="'Calibri Light', 'Calibri Light_MSFontService', sans-serif"
         font-weight="300"
         font-size="21px"
         transform="translate(-42.579,1960)"
         id="text74">Weakness Type</text><text
         font-family="'Calibri Light', 'Calibri Light_MSFontService', sans-serif"
         font-weight="300"
         font-size="14px"
         transform="translate(88.661,1964)"
         id="text75">1</text><text
         fill="#660066"
         font-family="'Calibri Light', 'Calibri Light_MSFontService', sans-serif"
         font-weight="300"
         font-size="21px"
         transform="translate(-42.579,1992)"
         id="text76">Weakness</text><text
         fill="#660066"
         font-family="'Calibri Light', 'Calibri Light_MSFontService', sans-serif"
         font-weight="300"
         font-size="14px"
         transform="translate(43.641,1996)"
         id="text77">1</text><text
         font-family="'Calibri Light', 'Calibri Light_MSFontService', sans-serif"
         font-weight="300"
         font-size="21px"
         transform="translate(742.626,2695)"
         id="text78">Failure Type</text><text
         font-family="'Calibri Light', 'Calibri Light_MSFontService', sans-serif"
         font-weight="300"
         font-size="14px"
         transform="translate(844.926,2699)"
         id="text79">1</text><text
         font-family="'Calibri Light', 'Calibri Light_MSFontService', sans-serif"
         font-weight="300"
         font-size="21px"
         transform="translate(932.328,2695)"
         id="text80">Failure</text><text
         font-family="'Calibri Light', 'Calibri Light_MSFontService', sans-serif"
         font-weight="300"
         font-size="21px"
         transform="translate(994.441,2695)"
         id="text81">Type</text><text
         font-family="'Calibri Light', 'Calibri Light_MSFontService', sans-serif"
         font-weight="300"
         font-size="14px"
         transform="translate(1034.63,2699)"
         id="text82">F</text><text
         font-family="'Calibri Light', 'Calibri Light_MSFontService', sans-serif"
         font-weight="300"
         font-size="21px"
         transform="translate(500.168,1934)"
         id="text83">Improper Operation</text><text
         font-family="'Calibri Light', 'Calibri Light_MSFontService', sans-serif"
         font-weight="300"
         font-size="21px"
         transform="translate(501.411,2186)"
         id="text84">Improper Operand</text><text
         font-family="'Calibri Light', 'Calibri Light_MSFontService', sans-serif"
         font-weight="300"
         font-size="21px"
         transform="translate(500.693,2439)"
         id="text85">Improper Operand</text><rect
         x="263"
         y="2343"
         width="60"
         height="24"
         fill="#ffffff"
         id="rect85" /><text
         font-family="'Calibri Light', 'Calibri Light_MSFontService', sans-serif"
         font-weight="300"
         font-size="21px"
         transform="translate(285.988,2362)"
         id="text86">…</text><path
         d="m 997.5,2802.5 61.23,-113 66.77,113 z"
         stroke="#7d3368"
         stroke-width="0.666667"
         stroke-linejoin="round"
         stroke-miterlimit="10"
         fill="#dfdaea"
         fill-rule="evenodd"
         id="path86" /><text
         fill="#660066"
         font-family="'Calibri Light', 'Calibri Light_MSFontService', sans-serif"
         font-weight="300"
         font-size="21px"
         transform="translate(1029.41,2775)"
         id="text87">Failure</text><text
         fill="#660066"
         font-family="'Calibri Light', 'Calibri Light_MSFontService', sans-serif"
         font-weight="300"
         font-size="14px"
         transform="translate(1086.69,2779)"
         id="text88">F</text><path
         d="m 803.5,2802.5 61.23,-113 66.77,113 z"
         stroke="#7d3368"
         stroke-width="0.666667"
         stroke-linejoin="round"
         stroke-miterlimit="10"
         fill="#dfdaea"
         fill-rule="evenodd"
         id="path88" /><text
         fill="#660066"
         font-family="'Calibri Light', 'Calibri Light_MSFontService', sans-serif"
         font-weight="300"
         font-size="21px"
         transform="translate(835.056,2775)"
         id="text89">Failure</text><text
         fill="#660066"
         font-family="'Calibri Light', 'Calibri Light_MSFontService', sans-serif"
         font-weight="300"
         font-size="14px"
         transform="translate(892.336,2779)"
         id="text90">1</text><text
         fill="#7f7f7f"
         font-family="'Calibri Light', 'Calibri Light_MSFontService', sans-serif"
         font-weight="300"
         font-size="16px"
         transform="translate(1015.4,2826)"
         id="text91">BF, I. Bojanova</text><path
         d="m 0.0102984,-0.333174 7.2765516,0.224917 7.23945,0.656817 7.1247,1.05986 6.9533,1.4341 13.1569,3.87336 6.1084,2.38771 5.7016,2.64481 5.2473,2.8766 4.7366,3.0804 4.1693,3.2565 3.5454,3.4057 2.8646,3.5285 c 0.0158,0.0195 0.0293,0.0408 0.0404,0.0633 l 2.1761,4.4415 -0.5987,0.2933 -2.1761,-4.4415 0.0405,0.0633 -2.8088,-3.4678 -3.4939,-3.361 -4.1224,-3.223 L 58.498,15.4096 53.2906,12.5532 47.6268,9.92446 41.5728,7.5554 28.4696,3.69543 21.5529,2.26782 14.466,1.2125 7.26625,0.558092 -0.0102984,0.333174 Z M 79.5913,30.4568 77.7177,39.2026 71.8452,32.4562 Z"
         fill="#0037a4"
         transform="matrix(0,1,1,0,104.5,1899.5)"
         id="path91" /><path
         d="M 0.0141883,-0.333031 2.67844,-0.219525 2.65006,0.446537 -0.0141883,0.333031 Z M 4.67663,-0.134395 7.01802,-0.0346438 7.36588,0.00776813 7.28308,0.669273 6.98964,0.631419 4.64825,0.531667 Z M 9.35039,0.256157 11.9964,0.587343 11.9136,1.24885 9.2676,0.917663 Z M 13.9809,0.835732 13.9943,0.837402 16.619,1.3748 16.485,2.02787 13.9115,1.49891 13.8981,1.49724 Z m 4.5973,0.940988 2.2811,0.46796 0.3493,0.09836 -0.1823,0.64124 -0.3009,-0.08654 -2.2812,-0.46796 z m 4.5541,1.11339 2.565,0.72942 L 25.515,4.26077 22.95,3.53135 Z m 4.5103,1.28845 2.5052,0.91397 -0.2285,0.62629 -2.5051,-0.91397 z m 4.3841,1.59944 2.0109,0.73368 0.5022,0.22441 -0.273,0.60823 -0.4577,-0.20636 -2.0109,-0.73367 z m 4.3378,1.77697 2.4329,1.09184 -0.273,0.60823 -2.4329,-1.09184 z m 4.2659,1.94853 2.3473,1.2654 -0.3163,0.5868 -2.3474,-1.2654 z m 4.1078,2.2144 1.3786,0.7432 0.9485,0.6055 -0.3591,0.5616 -0.9057,-0.5803 -1.3787,-0.7432 z m 4.012,2.4262 2.2466,1.4368 -0.3592,0.5616 -2.2466,-1.4367 z m 3.8959,2.611 2.1274,1.6079 -0.402,0.5319 -2.1274,-1.6079 z m 3.7229,2.8139 0.2918,0.2205 1.7346,1.5539 -0.445,0.4963 -1.6916,-1.5183 -0.2918,-0.2206 z m 3.5155,3.1096 1.3362,1.1982 0.615,0.6603 -0.4886,0.4536 -0.5715,-0.6176 -1.3362,-1.1982 z m 3.312,3.3242 1.8144,1.9542 -0.4886,0.4536 -1.8144,-1.9542 z m 3.0664,3.5553 1.6065,2.1284 -0.5321,0.4016 -1.6065,-2.1284 z m 2.7643,3.8022 1.3522,2.2984 -0.5746,0.3381 -1.3522,-2.2984 z m 2.3666,4.0227 4e-4,8e-4 1.0607,2.4922 -0.6137,0.2605 -1.0221,-2.4155 -4e-4,-8e-4 z m 1.8425,4.3341 0.1953,0.4602 c 0.0082,0.0195 0.0146,0.0397 0.0191,0.0604 l 0.4542,2.1185 -0.6519,0.1398 -0.4542,-2.1186 0.0191,0.0604 -0.1953,-0.4602 z m 4.3064,1.7762 -2.7378,8.515 -5.1693,-7.2992 z"
         fill="#008080"
         transform="matrix(0,1,1,0,92.5001,2155.5)"
         id="path92" /></g></g></svg>
