<?xml version="1.0" encoding="UTF-8" standalone="no"?>
<!-- Created with Inkscape (http://www.inkscape.org/) -->

<svg
   width="318.11493mm"
   height="257.35495mm"
   viewBox="0 0 318.11493 257.35493"
   version="1.1"
   id="svg1"
   inkscape:version="1.3.2 (091e20e, 2023-11-25, custom)"
   sodipodi:docname="BF Security Concepts.svg"
   xmlns:inkscape="http://www.inkscape.org/namespaces/inkscape"
   xmlns:sodipodi="http://sodipodi.sourceforge.net/DTD/sodipodi-0.dtd"
   xmlns="http://www.w3.org/2000/svg"
   xmlns:svg="http://www.w3.org/2000/svg">
  <sodipodi:namedview
     id="namedview1"
     pagecolor="#ffffff"
     bordercolor="#000000"
     borderopacity="0.25"
     inkscape:showpageshadow="2"
     inkscape:pageopacity="0.0"
     inkscape:pagecheckerboard="0"
     inkscape:deskcolor="#d1d1d1"
     inkscape:document-units="mm"
     inkscape:zoom="1.0146815"
     inkscape:cx="775.61281"
     inkscape:cy="505.08458"
     inkscape:window-width="1440"
     inkscape:window-height="2497"
     inkscape:window-x="2552"
     inkscape:window-y="-8"
     inkscape:window-maximized="1"
     inkscape:current-layer="layer1" />
  <defs
     id="defs1" />
  <g
     inkscape:label="Layer 1"
     inkscape:groupmode="layer"
     id="layer1"
     transform="translate(100.02788,26.723346)">
    <g
       transform="matrix(0.26458333,0,0,0.26458333,-90.266188,-492.8414)"
       id="g96">
      <path
         d="m 354.5,2722.5 20.5,-37 20.5,37 z"
         stroke="#7d3368"
         stroke-width="0.666667"
         stroke-linejoin="round"
         stroke-miterlimit="10"
         fill="#dfdaea"
         fill-rule="evenodd"
         id="path1" />
      <text
         font-family="'Calibri Light', 'Calibri Light_MSFontService', sans-serif"
         font-weight="300"
         font-size="21px"
         transform="translate(442.113,1776)"
         id="text1">BF</text>
      <text
         font-family="'Calibri Light', 'Calibri Light_MSFontService', sans-serif"
         font-weight="300"
         font-size="21px"
         transform="translate(468.28,1776)"
         id="text2">Security</text>
      <text
         font-family="'Calibri Light', 'Calibri Light_MSFontService', sans-serif"
         font-weight="300"
         font-size="21px"
         transform="translate(541.78,1776)"
         id="text3">Concepts Model</text>
      <text
         font-family="'Calibri Light', 'Calibri Light_MSFontService', sans-serif"
         font-weight="300"
         font-size="21px"
         transform="translate(150.727,1837)"
         id="text4">Bug Type</text>
      <text
         font-family="'Calibri Light', 'Calibri Light_MSFontService', sans-serif"
         font-weight="300"
         font-size="21px"
         transform="translate(858.373,1837)"
         id="text5">Error Type</text>
      <text
         font-family="'Calibri Light', 'Calibri Light_MSFontService', sans-serif"
         font-weight="300"
         font-size="14px"
         transform="translate(946.639,1841)"
         id="text6">1</text>
      <path
         d="m 149.5,1857 c 0,-6.35 5.149,-11.5 11.5,-11.5 h 257 c 6.351,0 11.5,5.15 11.5,11.5 v 46 c 0,6.35 -5.149,11.5 -11.5,11.5 H 161 c -6.351,0 -11.5,-5.15 -11.5,-11.5 z"
         stroke="#e8effc"
         stroke-width="0.666667"
         stroke-linejoin="round"
         stroke-miterlimit="10"
         fill="#e8effc"
         fill-rule="evenodd"
         id="path6" />
      <text
         fill="#660066"
         font-family="'Calibri Light', 'Calibri Light_MSFontService', sans-serif"
         font-weight="300"
         font-size="21px"
         transform="translate(272.454,1887)"
         id="text7">Bug</text>
      <rect
         x="503.5"
         y="1845.5"
         width="280"
         height="69"
         stroke="#000000"
         stroke-width="0.666667"
         stroke-linejoin="round"
         stroke-miterlimit="10"
         fill="none"
         id="rect7" />
      <text
         fill="#660066"
         font-family="'Calibri Light', 'Calibri Light_MSFontService', sans-serif"
         font-weight="300"
         font-size="21px"
         transform="translate(594.668,1874)"
         id="text8">Operation</text>
      <text
         fill="#660066"
         font-family="'Calibri Light', 'Calibri Light_MSFontService', sans-serif"
         font-weight="300"
         font-size="14px"
         transform="translate(681.042,1878)"
         id="text9">1,</text>
      <text
         font-family="'Calibri Light', 'Calibri Light_MSFontService', sans-serif"
         font-weight="300"
         font-size="21px"
         transform="translate(524.855,1900)"
         id="text10">Operand</text>
      <text
         font-family="'Calibri Light', 'Calibri Light_MSFontService', sans-serif"
         font-weight="300"
         font-size="14px"
         transform="translate(599.768,1904)"
         id="text11">11</text>
      <text
         font-family="'Calibri Light', 'Calibri Light_MSFontService', sans-serif"
         font-weight="300"
         font-size="21px"
         transform="translate(617.268,1900)"
         id="text12">,</text>
      <text
         font-family="'Calibri Light', 'Calibri Light_MSFontService', sans-serif"
         font-weight="300"
         font-size="21px"
         transform="translate(627.268,1900)"
         id="text13">... Operand</text>
      <text
         font-family="'Calibri Light', 'Calibri Light_MSFontService', sans-serif"
         font-weight="300"
         font-size="14px"
         transform="translate(722.515,1904)"
         id="text14">1i</text>
      <text
         font-family="'Calibri Light', 'Calibri Light_MSFontService', sans-serif"
         font-weight="300"
         font-size="21px"
         transform="translate(736.015,1900)"
         id="text15">,</text>
      <text
         font-family="'Calibri Light', 'Calibri Light_MSFontService', sans-serif"
         font-weight="300"
         font-size="21px"
         transform="translate(746.015,1900)"
         id="text16">...</text>
      <path
         d="m 857.5,1857 c 0,-6.35 5.149,-11.5 11.5,-11.5 h 257 c 6.35,0 11.5,5.15 11.5,11.5 v 46 c 0,6.35 -5.15,11.5 -11.5,11.5 H 869 c -6.351,0 -11.5,-5.15 -11.5,-11.5 z"
         stroke="#f4f2f8"
         stroke-width="0.666667"
         stroke-linejoin="round"
         stroke-miterlimit="10"
         fill="#f4f2f8"
         fill-rule="evenodd"
         id="path16" />
      <text
         fill="#660066"
         font-family="'Calibri Light', 'Calibri Light_MSFontService', sans-serif"
         font-weight="300"
         font-size="21px"
         transform="translate(971.993,1887)"
         id="text17">Error</text>
      <text
         fill="#660066"
         font-family="'Calibri Light', 'Calibri Light_MSFontService', sans-serif"
         font-weight="300"
         font-size="14px"
         transform="translate(1015.24,1891)"
         id="text18">1</text>
      <path
         d="m 429.5,1880.17 h 67.411 v 0.66 H 429.5 Z m 66.078,-3.67 8,4 -8,4 z"
         id="path18" />
      <path
         d="m 783.5,1880.17 h 67.028 v 0.66 H 783.5 Z m 65.695,-3.67 8,4 -8,4 z"
         id="path19" />
      <text
         font-family="'Calibri Light', 'Calibri Light_MSFontService', sans-serif"
         font-weight="300"
         font-size="21px"
         transform="translate(150.687,2090)"
         id="text19">Fault Type</text>
      <text
         font-family="'Calibri Light', 'Calibri Light_MSFontService', sans-serif"
         font-weight="300"
         font-size="14px"
         transform="translate(237.8,2094)"
         id="text20">1</text>
      <text
         font-family="'Calibri Light', 'Calibri Light_MSFontService', sans-serif"
         font-weight="300"
         font-size="21px"
         transform="translate(-37.6226,2118)"
         id="text21">Weakness Type</text>
      <text
         font-family="'Calibri Light', 'Calibri Light_MSFontService', sans-serif"
         font-weight="300"
         font-size="14px"
         transform="translate(93.6174,2122)"
         id="text22">2</text>
      <text
         fill="#660066"
         font-family="'Calibri Light', 'Calibri Light_MSFontService', sans-serif"
         font-weight="300"
         font-size="21px"
         transform="translate(-37.6226,2150)"
         id="text23">Weakness</text>
      <text
         fill="#660066"
         font-family="'Calibri Light', 'Calibri Light_MSFontService', sans-serif"
         font-weight="300"
         font-size="14px"
         transform="translate(48.5974,2154)"
         id="text24">2</text>
      <text
         font-family="'Calibri Light', 'Calibri Light_MSFontService', sans-serif"
         font-weight="300"
         font-size="21px"
         transform="translate(861.7,2090)"
         id="text25">Error Type</text>
      <text
         font-family="'Calibri Light', 'Calibri Light_MSFontService', sans-serif"
         font-weight="300"
         font-size="14px"
         transform="translate(949.966,2094)"
         id="text26">2</text>
      <path
         d="m 149.5,2110.17 c 0,-6.45 5.224,-11.67 11.667,-11.67 h 256.666 c 6.444,0 11.667,5.22 11.667,11.67 v 46.66 c 0,6.45 -5.223,11.67 -11.667,11.67 H 161.167 c -6.443,0 -11.667,-5.22 -11.667,-11.67 z"
         stroke="#f4f2f8"
         stroke-width="0.666667"
         stroke-linejoin="round"
         stroke-miterlimit="10"
         fill="#f4f2f8"
         fill-rule="evenodd"
         id="path26" />
      <text
         fill="#660066"
         font-family="'Calibri Light', 'Calibri Light_MSFontService', sans-serif"
         font-weight="300"
         font-size="21px"
         transform="translate(264.157,2140)"
         id="text27">Fault</text>
      <text
         fill="#660066"
         font-family="'Calibri Light', 'Calibri Light_MSFontService', sans-serif"
         font-weight="300"
         font-size="14px"
         transform="translate(306.251,2144)"
         id="text28">1</text>
      <rect
         x="503.5"
         y="2098.5"
         width="280"
         height="70"
         stroke="#000000"
         stroke-width="0.666667"
         stroke-linejoin="round"
         stroke-miterlimit="10"
         fill="none"
         id="rect28" />
      <text
         font-family="'Calibri Light', 'Calibri Light_MSFontService', sans-serif"
         font-weight="300"
         font-size="21px"
         transform="translate(593.835,2127)"
         id="text29">Operation</text>
      <text
         font-family="'Calibri Light', 'Calibri Light_MSFontService', sans-serif"
         font-weight="300"
         font-size="14px"
         transform="translate(680.208,2131)"
         id="text30">2</text>
      <text
         font-family="'Calibri Light', 'Calibri Light_MSFontService', sans-serif"
         font-weight="300"
         font-size="21px"
         transform="translate(687.375,2127)"
         id="text31">,</text>
      <text
         font-family="'Calibri Light', 'Calibri Light_MSFontService', sans-serif"
         font-weight="300"
         font-size="21px"
         transform="translate(522.688,2153)"
         id="text32">Operand</text>
      <text
         font-family="'Calibri Light', 'Calibri Light_MSFontService', sans-serif"
         font-weight="300"
         font-size="14px"
         transform="translate(597.602,2157)"
         id="text33">21</text>
      <text
         font-family="'Calibri Light', 'Calibri Light_MSFontService', sans-serif"
         font-weight="300"
         font-size="21px"
         transform="translate(615.102,2153)"
         id="text34">, …,</text>
      <text
         fill="#7d3368"
         font-family="'Calibri Light', 'Calibri Light_MSFontService', sans-serif"
         font-weight="300"
         font-size="21px"
         transform="translate(649.602,2153)"
         id="text35">Operand</text>
      <text
         fill="#7d3368"
         font-family="'Calibri Light', 'Calibri Light_MSFontService', sans-serif"
         font-weight="300"
         font-size="14px"
         transform="translate(724.515,2157)"
         id="text36">2j</text>
      <text
         font-family="'Calibri Light', 'Calibri Light_MSFontService', sans-serif"
         font-weight="300"
         font-size="21px"
         transform="translate(738.182,2153)"
         id="text37">,</text>
      <text
         font-family="'Calibri Light', 'Calibri Light_MSFontService', sans-serif"
         font-weight="300"
         font-size="21px"
         transform="translate(748.182,2153)"
         id="text38">...</text>
      <path
         d="m 860.5,2110.17 c 0,-6.45 5.224,-11.67 11.667,-11.67 h 256.663 c 6.45,0 11.67,5.22 11.67,11.67 v 46.66 c 0,6.45 -5.22,11.67 -11.67,11.67 H 872.167 c -6.443,0 -11.667,-5.22 -11.667,-11.67 z"
         stroke="#f4f2f8"
         stroke-width="0.666667"
         stroke-linejoin="round"
         stroke-miterlimit="10"
         fill="#f4f2f8"
         fill-rule="evenodd"
         id="path38" />
      <text
         fill="#660066"
         font-family="'Calibri Light', 'Calibri Light_MSFontService', sans-serif"
         font-weight="300"
         font-size="21px"
         transform="translate(974.861,2140)"
         id="text39">Error</text>
      <text
         fill="#660066"
         font-family="'Calibri Light', 'Calibri Light_MSFontService', sans-serif"
         font-weight="300"
         font-size="14px"
         transform="translate(1018.11,2144)"
         id="text40">2</text>
      <path
         d="m 429.5,2133.17 h 67.411 v 0.66 H 429.5 Z m 66.078,-3.67 8,4 -8,4 z"
         id="path40" />
      <path
         d="m 783.5,2133.17 h 69.896 v 0.66 H 783.5 Z m 68.563,-3.67 8,4 -8,4 z"
         id="path41" />
      <path
         d="M 0.0462914,0.330103 -2.2004,0.645164 -2.11972,0.623263 -4.34884,1.54163 l 0.05956,-0.03195 -2.19397,1.48146 0.04126,-0.0329 -2.14125,2.00433 -2.04256,2.45692 -1.9632,2.90291 -1.8633,3.3084 -1.7439,3.673 -3.0582,8.2847 -2.3565,9.2445 -1.5167,9.8892 -0.5355,10.2098 -0.0031,-0.0659 0.1888,1.2869 -0.0244,-0.0852 0.5626,1.2863 -0.0533,-0.0846 2.2225,2.5682 -0.0606,-0.0548 3.6464,2.5582 -0.0409,-0.0246 5.0226,2.5431 6.32384,2.5105 7.61336,2.4908 8.8523,2.4633 10.0421,2.4296 11.1834,2.3902 12.2764,2.3456 13.3217,2.2956 14.3192,2.2406 15.2689,2.1804 16.1713,2.1152 17.026,2.0449 17.833,1.9696 18.592,1.8892 19.305,1.8038 19.969,1.7133 20.586,1.6178 21.156,1.517 21.678,1.412 22.153,1.301 22.579,1.186 22.96,1.065 23.291,0.939 47.391,1.481 48.15,0.919 48.529,0.315 48.534,0.411 48.159,1.201 47.4,1.937 23.297,1.228 22.964,1.393 22.585,1.55 22.157,1.702 21.683,1.846 21.161,1.984 20.592,2.116 19.974,2.24 19.311,2.359 18.599,2.471 17.84,2.576 17.033,2.675 16.18,2.767 15.278,2.852 14.33,2.932 13.334,3.004 12.291,3.07 11.201,3.13 10.064,3.184 8.88,3.23 7.65,3.273 6.375,3.309 5.05,3.343 c 0.02,0.009 0.03,0.02 0.04,0.032 l 3.65,3.345 c 0.02,0.018 0.04,0.039 0.05,0.061 l 2.22,3.358 c 0.02,0.024 0.03,0.051 0.04,0.078 l 0.57,1.682 c 0,0.022 0.01,0.045 0.01,0.069 l 0.19,1.682 c 0,0.017 0,0.034 0,0.051 l -0.54,13.391 -1.52,12.996 -2.37,12.154 -1.46,5.637 -1.62,5.264 -1.76,4.845 -1.89,4.374 -1.99,3.851 -2.086,3.277 c -0.014,0.022 -0.03,0.042 -0.049,0.061 l -3,2.902 -0.464,-0.479 3,-2.902 -0.049,0.06 2.056,-3.226 1.972,-3.808 1.87,-4.338 1.75,-4.813 1.61,-5.235 1.45,-5.598 2.36,-12.104 1.53,-12.945 0.54,-13.391 v 0.051 l -0.19,-1.683 0.01,0.069 -0.56,-1.682 0.04,0.078 -2.22,-3.358 0.05,0.062 -3.65,-3.345 0.04,0.033 -4.99,-3.307 -6.327,-3.288 -7.616,-3.259 -8.853,-3.222 -10.042,-3.177 -11.183,-3.125 -12.276,-3.067 -13.322,-3.001 -14.318,-2.93 -15.269,-2.85 -16.17,-2.766 -17.025,-2.673 -17.833,-2.575 -18.592,-2.47 -19.304,-2.358 -19.968,-2.24 -20.586,-2.115 -21.155,-1.984 -21.678,-1.846 -22.152,-1.701 -22.579,-1.55 -22.959,-1.392 -23.29,-1.228 -47.389,-1.936 -48.148,-1.201 -48.532,-0.412 -48.538,-0.315 -48.157,-0.918 -47.397,-1.482 -23.296,-0.939 -22.964,-1.065 -22.584,-1.186 -22.156,-1.302 -21.683,-1.412 -21.16,-1.517 -20.591,-1.6186 -19.974,-1.7137 -19.31,-1.8043 -18.598,-1.8898 -17.84,-1.9703 L 103.083,88.9825 86.9045,86.8662 71.6267,84.6844 57.2974,82.4422 43.9638,80.1444 31.6731,77.796 20.4723,75.4017 10.4083,72.9664 1.52736,70.4945 l -7.65213,-2.5048 -6.37893,-2.5354 -5.0226,-2.543 c -0.0141,-0.0072 -0.0278,-0.0154 -0.0408,-0.0245 l -3.6463,-2.5581 c -0.0224,-0.0157 -0.0428,-0.0341 -0.0606,-0.0547 l -2.2226,-2.5682 c -0.022,-0.0253 -0.04,-0.0539 -0.0534,-0.0846 l -0.5626,-1.2862 c -0.0118,-0.0272 -0.0201,-0.0559 -0.0244,-0.0852 l -0.1888,-1.2869 C -24.329,54.9411 -24.33,54.919 -24.3289,54.897 l 0.5424,-10.2759 1.5297,-9.9529 2.3771,-9.3107 3.0814,-8.3398 1.7652,-3.7142 1.892,-3.35478 2.003,-2.95584 2.09928,-2.51702 2.14124,-2.00433 C -6.88471,2.45949 -6.87093,2.4485 -6.85632,2.43864 l 2.19397,-1.481461 c 0.01872,-0.012641 0.03867,-0.023346 0.05956,-0.03195 L -2.37367,0.00685931 C -2.3478,-0.00379922 -2.3207,-0.0111564 -2.29299,-0.0150422 L -0.0462914,-0.330103 Z M 997.666,252.982 l -8.934,0.434 5.013,-7.408 z"
         transform="matrix(-1,0,0,1,1138.23,1880.5)"
         id="path42" />
      <text
         font-family="'Calibri Light', 'Calibri Light_MSFontService', sans-serif"
         font-weight="300"
         font-size="21px"
         transform="translate(150.727,2342)"
         id="text42">Fault Type</text>
      <text
         font-family="'Calibri Light', 'Calibri Light_MSFontService', sans-serif"
         font-weight="300"
         font-size="14px"
         transform="translate(237.84,2346)"
         id="text43">N</text>
      <text
         font-family="'Calibri Light', 'Calibri Light_MSFontService', sans-serif"
         font-weight="300"
         font-size="14px"
         transform="translate(246.84,2346)"
         id="text44">-</text>
      <text
         font-family="'Calibri Light', 'Calibri Light_MSFontService', sans-serif"
         font-weight="300"
         font-size="14px"
         transform="translate(251.174,2346)"
         id="text45">1</text>
      <text
         font-family="'Calibri Light', 'Calibri Light_MSFontService', sans-serif"
         font-weight="300"
         font-size="21px"
         transform="translate(-37.6226,2369)"
         id="text46">Weakness</text>
      <text
         font-family="'Calibri Light', 'Calibri Light_MSFontService', sans-serif"
         font-weight="300"
         font-size="21px"
         transform="translate(53.4308,2369)"
         id="text47">Type</text>
      <text
         font-family="'Calibri Light', 'Calibri Light_MSFontService', sans-serif"
         font-weight="300"
         font-size="14px"
         transform="translate(93.6174,2373)"
         id="text48">N</text>
      <text
         fill="#660066"
         font-family="'Calibri Light', 'Calibri Light_MSFontService', sans-serif"
         font-weight="300"
         font-size="21px"
         transform="translate(-37.6226,2401)"
         id="text49">Weakness</text>
      <text
         fill="#660066"
         font-family="'Calibri Light', 'Calibri Light_MSFontService', sans-serif"
         font-weight="300"
         font-size="14px"
         transform="translate(48.5974,2405)"
         id="text50">N</text>
      <text
         font-family="'Calibri Light', 'Calibri Light_MSFontService', sans-serif"
         font-weight="300"
         font-size="21px"
         transform="translate(861.7,2342)"
         id="text51">Final Error Type</text>
      <path
         d="m 149.5,2362 c 0,-6.35 5.149,-11.5 11.5,-11.5 h 257 c 6.351,0 11.5,5.15 11.5,11.5 v 46 c 0,6.35 -5.149,11.5 -11.5,11.5 H 161 c -6.351,0 -11.5,-5.15 -11.5,-11.5 z"
         stroke="#f4f2f8"
         stroke-width="0.666667"
         stroke-linejoin="round"
         stroke-miterlimit="10"
         fill="#f4f2f8"
         fill-rule="evenodd"
         id="path51" />
      <text
         fill="#660066"
         font-family="'Calibri Light', 'Calibri Light_MSFontService', sans-serif"
         font-weight="300"
         font-size="21px"
         transform="translate(257.491,2392)"
         id="text52">Fault</text>
      <text
         fill="#660066"
         font-family="'Calibri Light', 'Calibri Light_MSFontService', sans-serif"
         font-weight="300"
         font-size="14px"
         transform="translate(299.584,2396)"
         id="text53">N</text>
      <text
         fill="#660066"
         font-family="'Calibri Light', 'Calibri Light_MSFontService', sans-serif"
         font-weight="300"
         font-size="14px"
         transform="translate(308.584,2396)"
         id="text54">-</text>
      <text
         fill="#660066"
         font-family="'Calibri Light', 'Calibri Light_MSFontService', sans-serif"
         font-weight="300"
         font-size="14px"
         transform="translate(312.917,2396)"
         id="text55">1</text>
      <rect
         x="503.5"
         y="2350.5"
         width="280"
         height="69"
         stroke="#000000"
         stroke-width="0.666667"
         stroke-linejoin="round"
         stroke-miterlimit="10"
         fill="none"
         id="rect55" />
      <text
         font-family="'Calibri Light', 'Calibri Light_MSFontService', sans-serif"
         font-weight="300"
         font-size="21px"
         transform="translate(592.911,2379)"
         id="text56">Operation</text>
      <text
         font-family="'Calibri Light', 'Calibri Light_MSFontService', sans-serif"
         font-weight="300"
         font-size="14px"
         transform="translate(679.285,2383)"
         id="text57">N</text>
      <text
         font-family="'Calibri Light', 'Calibri Light_MSFontService', sans-serif"
         font-weight="300"
         font-size="21px"
         transform="translate(688.285,2379)"
         id="text58">,</text>
      <text
         font-family="'Calibri Light', 'Calibri Light_MSFontService', sans-serif"
         font-weight="300"
         font-size="21px"
         transform="translate(518.938,2405)"
         id="text59">Operand</text>
      <text
         font-family="'Calibri Light', 'Calibri Light_MSFontService', sans-serif"
         font-weight="300"
         font-size="14px"
         transform="translate(593.852,2409)"
         id="text60">N1</text>
      <text
         font-family="'Calibri Light', 'Calibri Light_MSFontService', sans-serif"
         font-weight="300"
         font-size="21px"
         transform="translate(613.185,2405)"
         id="text61">,</text>
      <text
         font-family="'Calibri Light', 'Calibri Light_MSFontService', sans-serif"
         font-weight="300"
         font-size="21px"
         transform="translate(623.185,2405)"
         id="text62">…,</text>
      <text
         fill="#7d3368"
         font-family="'Calibri Light', 'Calibri Light_MSFontService', sans-serif"
         font-weight="300"
         font-size="21px"
         transform="translate(647.685,2405)"
         id="text63">Operand</text>
      <text
         fill="#7d3368"
         font-family="'Calibri Light', 'Calibri Light_MSFontService', sans-serif"
         font-weight="300"
         font-size="14px"
         transform="translate(722.598,2409)"
         id="text64">NP</text>
      <text
         font-family="'Calibri Light', 'Calibri Light_MSFontService', sans-serif"
         font-weight="300"
         font-size="21px"
         transform="translate(741.932,2405)"
         id="text65">,</text>
      <text
         font-family="'Calibri Light', 'Calibri Light_MSFontService', sans-serif"
         font-weight="300"
         font-size="21px"
         transform="translate(751.932,2405)"
         id="text66">...</text>
      <path
         d="m 860.5,2362 c 0,-6.35 5.149,-11.5 11.5,-11.5 h 257 c 6.35,0 11.5,5.15 11.5,11.5 v 46 c 0,6.35 -5.15,11.5 -11.5,11.5 H 872 c -6.351,0 -11.5,-5.15 -11.5,-11.5 z"
         stroke="#dfdaea"
         stroke-width="0.666667"
         stroke-linejoin="round"
         stroke-miterlimit="10"
         fill="#dfdaea"
         fill-rule="evenodd"
         id="path66" />
      <text
         fill="#660066"
         font-family="'Calibri Light', 'Calibri Light_MSFontService', sans-serif"
         font-weight="300"
         font-size="21px"
         transform="translate(955.861,2392)"
         id="text67">Final Error</text>
      <path
         d="m 429.5,2385.17 h 67.411 v 0.66 H 429.5 Z m 66.078,-3.67 8,4 -8,4 z"
         id="path67" />
      <path
         d="m 783.5,2385.17 h 69.896 v 0.66 H 783.5 Z m 68.563,-3.67 8,4 -8,4 z"
         id="path68" />
      <path
         d="m 0.0508085,0.329438 -2.2470885,0.346563 0.08677,-0.025818 -2.2295,1.010187 0.06116,-0.03601 -2.19434,1.62958 0.04036,-0.03535 -2.1416,2.20472 -2.04467,2.70459 -1.9652,3.1958 -1.8652,3.642 -1.7455,4.043 -3.0603,9.1173 -2.3585,10.1744 -1.518,10.8838 -0.5362,11.2368 0.289,5.6226 0.8391,5.5788 1.353,5.4927 1.8304,5.3622 2.2711,5.1871 2.6753,4.9676 6.42316,9.109 3.65777,4.031 3.921549,3.645 4.139961,3.203 4.32087,2.717 4.46419,2.187 4.57,1.615 4.6386,0.998 4.6704,0.34 4.7267,0.496 c 0.0215,0.002 0.0427,0.006 0.0633,0.013 l 4.6795,1.441 c 0.0179,0.005 0.0353,0.012 0.0521,0.021 l 4.6056,2.324 c 0.0142,0.007 0.0279,0.015 0.0409,0.024 l 4.495,3.145 4.379,3.928 4.1873,4.62 3.9606,5.251 3.6985,5.817 3.4004,6.321 3.0661,6.762 2.6954,7.141 2.2881,7.456 1.8441,7.709 1.3632,7.899 0.8454,8.025 0.052,1.428 -0.6663,0.024 -0.0487,-1.382 -0.8394,-7.982 -1.3546,-7.857 -1.8331,-7.668 -2.2745,-7.417 -2.6788,-7.1 -3.0461,-6.722 -3.3759,-6.279 -3.6681,-5.774 -3.9224,-5.204 -4.1385,-4.572 -4.3159,-3.877 -4.4949,-3.145 0.0409,0.024 -4.6057,-2.324 0.0521,0.021 -4.6795,-1.441 0.0634,0.013 -4.706,-0.494 -4.7623,-0.353 -4.7202,-1.022 -4.6413,-1.644 -4.52565,-2.222 -4.37388,-2.754 -4.185838,-3.242 -3.961522,-3.685 -3.70878,-4.095 -6.46523,-9.177 -2.699,-5.0163 -2.2914,-5.2392 -1.8468,-5.4181 -1.3649,-5.553 -0.8456,-5.6438 -0.2891,-5.6885 0.5419,-11.2971 1.5288,-10.9423 2.3759,-10.2359 3.0803,-9.1694 1.7642,-4.0827 1.8907,-3.6875 2.0015,-3.24873 2.09797,-2.76667 2.1416,-2.20472 C -6.89754,2.74122 -6.88405,2.72941 -6.86966,2.71872 L -4.67532,1.08914 C -4.65627,1.075 -4.63577,1.06293 -4.61416,1.05313 l 2.22951,-1.0101881 c 0.02761,-0.0125103 0.0568,-0.0211976 0.08676,-0.025818 L -0.0508085,-0.329438 Z M 80.4572,198.835 l -3.7111,8.138 -4.2838,-7.852 z"
         transform="matrix(-1,0,0,1,1140.25,2385.5)"
         id="path69" />
      <path
         d="m -35.5001,2663 c 0,-2.49 2.0148,-4.5 4.5001,-4.5 H 1.99997 c 2.48532,0 4.50008,2.01 4.50008,4.5 v 18 c 0,2.49 -2.01476,4.5 -4.50008,4.5 H -31 c -2.4853,0 -4.5001,-2.01 -4.5001,-4.5 z"
         stroke="#e8effc"
         stroke-width="0.666667"
         stroke-linejoin="round"
         stroke-miterlimit="10"
         fill="#e8effc"
         fill-rule="evenodd"
         id="path70" />
      <text
         font-family="'Calibri Light', 'Calibri Light_MSFontService', sans-serif"
         font-weight="300"
         font-size="19px"
         transform="translate(10.587,2680)"
         id="text70">Bug</text>
      <rect
         x="138.5"
         y="2658.5"
         width="42"
         height="27"
         stroke="#000000"
         stroke-width="0.666667"
         stroke-linejoin="round"
         stroke-miterlimit="10"
         fill="none"
         id="rect70" />
      <text
         font-family="'Calibri Light', 'Calibri Light_MSFontService', sans-serif"
         font-weight="300"
         font-size="19px"
         transform="translate(184.25,2680)"
         id="text71">Operation</text>
      <path
         d="m -33.5001,2700 c 0,-2.49 2.0148,-4.5 4.5001,-4.5 H 3.99997 c 2.48532,0 4.50008,2.01 4.50008,4.5 v 18 c 0,2.49 -2.01476,4.5 -4.50008,4.5 H -29 c -2.4853,0 -4.5001,-2.01 -4.5001,-4.5 z"
         stroke="#f4f2f8"
         stroke-width="0.666667"
         stroke-linejoin="round"
         stroke-miterlimit="10"
         fill="#f4f2f8"
         fill-rule="evenodd"
         id="path71" />
      <text
         font-family="'Calibri Light', 'Calibri Light_MSFontService', sans-serif"
         font-weight="300"
         font-size="19px"
         transform="translate(11.9857,2717)"
         id="text72">Fault / Error</text>
      <path
         d="m 138.5,2700 c 0,-2.49 2.015,-4.5 4.5,-4.5 h 33 c 2.485,0 4.5,2.01 4.5,4.5 v 18 c 0,2.49 -2.015,4.5 -4.5,4.5 h -33 c -2.485,0 -4.5,-2.01 -4.5,-4.5 z"
         stroke="#dfdaea"
         stroke-width="0.666667"
         stroke-linejoin="round"
         stroke-miterlimit="10"
         fill="#dfdaea"
         fill-rule="evenodd"
         id="path72" />
      <text
         font-family="'Calibri Light', 'Calibri Light_MSFontService', sans-serif"
         font-weight="300"
         font-size="19px"
         transform="translate(184.25,2717)"
         id="text73">Final Error</text>
      <text
         font-family="'Calibri Light', 'Calibri Light_MSFontService', sans-serif"
         font-weight="300"
         font-size="19px"
         transform="translate(400.974,2717)"
         id="text74">Failure</text>
      <path
         d="M 0.0508069,0.329439 -2.19635,0.676001 -2.10959,0.650184 -4.33916,1.66038 -4.278,1.62437 l -2.19442,1.62958 0.04037,-0.03536 -2.14168,2.20473 -2.04467,2.70459 -1.9654,3.19579 -1.8652,3.642 -1.7456,4.0431 -3.0605,9.1172 -2.3585,10.1744 -1.5181,10.8838 -0.5362,11.2368 0.213,2.7895 -0.0071,-0.0477 0.632,2.8251 1.0242,2.7715 1.4122,2.761 1.7884,2.745 2.1524,2.7228 5.3538,5.3613 6.644,5.1859 7.83572,4.9733 8.91878,4.7131 9.8932,4.4072 10.7587,4.055 11.5158,3.659 12.1645,3.218 12.7047,2.732 13.1367,2.202 13.4605,1.627 13.6764,1.009 13.783,0.346 13.803,0.494 13.714,1.443 13.497,2.327 13.173,3.149 12.74,3.908 12.2,4.603 11.553,5.236 10.797,5.805 9.934,6.313 8.963,6.757 7.886,7.139 6.699,7.461 5.404,7.72 2.189,3.949 1.818,3.982 1.438,4.016 1.046,4.043 c 0.004,0.016 0.007,0.031 0.008,0.048 l 0.156,1.436 -0.663,0.072 -0.155,-1.437 0.008,0.048 -1.027,-3.985 -1.418,-3.964 -1.794,-3.936 -2.152,-3.89 -5.354,-7.657 -6.651,-7.411 -7.839,-7.102 -8.92,-6.727 -9.892,-6.288 -10.757,-5.785 -11.512,-5.219 -12.16,-4.59 -12.7,-3.896 -13.131,-3.141 -13.454,-2.321 -13.668,-1.44 -13.796,-0.494 -13.816,-0.347 -13.7065,-1.012 -13.4906,-1.632 -13.1666,-2.207 -12.7351,-2.74 -12.1959,-3.226 -11.5491,-3.671 -10.7949,-4.07 -9.9333,-4.4268 -8.96462,-4.7397 -7.88874,-5.0107 -6.70554,-5.2404 -5.4051,-5.419 -2.188,-2.7724 -1.8234,-2.8055 -1.4439,-2.8337 -1.0493,-2.8564 -0.6319,-2.825 c -0.0036,-0.0157 -0.0059,-0.0317 -0.0071,-0.0477 l -0.2143,-2.8716 0.5419,-11.2971 1.529,-10.9423 2.376,-10.2359 3.0804,-9.1694 1.7643,-4.0827 1.8908,-3.6875 2.0016,-3.24873 2.09797,-2.76667 2.14169,-2.20473 C -6.89778,2.74124 -6.88425,2.72939 -6.86988,2.71872 L -4.67546,1.08914 C -4.65641,1.07499 -4.63591,1.06292 -4.6143,1.05313 l 2.22958,-1.0101898 c 0.02761,-0.0125114 0.0568,-0.0211957 0.08676,-0.0258165 L -0.0508069,-0.329439 Z M 273.92,198.601 l -3.15,8.372 -4.807,-7.543 z"
         transform="matrix(-1,0,0,1,1140.27,2385.5)"
         id="path74" />
      <text
         font-family="'Calibri Light', 'Calibri Light_MSFontService', sans-serif"
         font-weight="300"
         font-size="21px"
         transform="translate(953.009,2630)"
         id="text75">…</text>
      <path
         d="M 0.0463672,0.330093 -2.20035,0.645682 -2.11956,0.623717 -4.3487,1.54363 -4.2891,1.51161 -6.48309,2.99554 -6.44185,2.9626 l -2.14126,2.00768 -2.04259,2.46106 -1.9633,2.90786 -1.8633,3.3139 -1.7439,3.6792 -3.0583,8.2985 -2.3565,9.2599 -1.5167,9.9057 -0.5356,10.2266 -0.0031,-0.0659 0.1894,1.2891 -0.0245,-0.0852 0.5641,1.2885 -0.0534,-0.0846 2.2288,2.5725 -0.0607,-0.0547 3.6564,2.5625 -0.0408,-0.0245 5.0365,2.5474 6.34142,2.5149 7.6345,2.495 8.87688,2.4675 10.0699,2.4338 11.2143,2.3943 12.3105,2.3495 13.3585,2.2996 14.3588,2.2444 15.3113,2.1841 16.2155,2.1188 17.073,2.0484 17.883,1.9729 18.644,1.8924 19.358,1.8068 20.024,1.7162 20.643,1.6206 21.215,1.5197 21.738,1.414 22.214,1.304 22.642,1.187 23.023,1.067 23.356,0.941 47.522,1.483 48.283,0.92 48.663,0.316 48.668,0.406 48.293,1.185 47.53,1.911 23.362,1.212 23.028,1.373 22.647,1.53 22.218,1.679 21.743,1.821 21.219,1.957 20.649,2.088 20.03,2.21 19.364,2.328 18.65,2.437 17.889,2.542 17.081,2.638 16.224,2.73 15.321,2.814 14.369,2.892 13.371,2.964 12.325,3.029 11.232,3.088 10.092,3.141 8.904,3.187 7.671,3.229 6.388,3.264 5.07,3.298 c 0.01,0.01 0.03,0.02 0.04,0.032 l 3.66,3.3 c 0.02,0.018 0.04,0.038 0.05,0.061 l 2.23,3.313 c 0.02,0.024 0.03,0.051 0.04,0.078 l 0.56,1.66 c 0.01,0.022 0.02,0.045 0.02,0.069 l 0.19,1.66 c 0,0.017 0,0.034 0,0.051 l -0.54,13.212 -1.52,12.823 -2.38,11.992 -1.46,5.562 -1.61,5.194 -1.76,4.78 -1.89,4.316 -1.99,3.8 -2.09,3.233 c -0.01,0.022 -0.03,0.043 -0.05,0.061 l -2.984,2.846 -0.46,-0.483 2.984,-2.846 -0.05,0.061 2.06,-3.182 1.97,-3.757 1.87,-4.279 1.75,-4.748 1.61,-5.165 1.45,-5.522 2.36,-11.942 1.52,-12.771 0.54,-13.212 0.01,0.052 -0.19,-1.66 0.01,0.069 -0.56,-1.659 0.04,0.079 -2.23,-3.313 0.05,0.062 -3.66,-3.3 0.05,0.032 -5.01,-3.263 -6.347,-3.244 -7.637,-3.215 -8.878,-3.179 -10.07,-3.134 -11.214,-3.083 -12.31,-3.026 -13.358,-2.961 -14.359,-2.89 -15.311,-2.812 -16.215,-2.729 -17.072,-2.637 -17.882,-2.541 -18.644,-2.436 -19.357,-2.327 -20.024,-2.21 -20.643,-2.087 -21.214,-1.957 -21.737,-1.821 -22.213,-1.678 -22.642,-1.529 -23.023,-1.374 -23.354,-1.211 -47.52,-1.911 -48.281,-1.184 -48.667,-0.407 -48.672,-0.315 -48.291,-0.92 -47.528,-1.484 -23.36,-0.941 -23.027,-1.067 -22.647,-1.188 -22.218,-1.303 -21.742,-1.415 -21.219,-1.52 -20.648,-1.6211 -20.029,-1.7166 -19.364,-1.8074 -18.649,-1.893 -17.889,-1.9736 -17.08,-2.0493 -16.2237,-2.1198 -15.32,-2.1855 -14.369,-2.246 L 44.1519,80.278 31.8272,77.9256 20.5955,75.5273 10.5036,73.0879 1.59817,70.6117 -6.07506,68.1026 -12.4715,65.563 -17.508,63.0156 c -0.0142,-0.0072 -0.0278,-0.0153 -0.0409,-0.0244 l -3.6564,-2.5625 c -0.0223,-0.0157 -0.0427,-0.0341 -0.0606,-0.0547 l -2.2287,-2.5726 c -0.022,-0.0253 -0.04,-0.0539 -0.0535,-0.0846 l -0.5641,-1.2885 c -0.0119,-0.0272 -0.0201,-0.0558 -0.0244,-0.0852 L -24.326,55.054 c -0.0032,-0.0218 -0.0042,-0.0439 -0.0031,-0.0659 l 0.5424,-10.2927 1.5296,-9.9692 2.3771,-9.326 3.0814,-8.3536 1.7653,-3.7204 1.892,-3.36031 2.0029,-2.96074 2.0993,-2.5212 2.14126,-2.00768 C -6.88497,2.46421 -6.87121,2.45321 -6.85659,2.44333 L -4.6626,0.959391 c 0.01872,-0.012666 0.03869,-0.023396 0.05959,-0.03202 l 2.22914,-0.91990868 c 0.0259,-0.0106875 0.05304,-0.01806832 0.08079,-0.02196542 L -0.0463672,-0.330093 Z M 1000.54,251.281 l -8.94,0.394 5.046,-7.385 z"
         transform="matrix(-1,0,0,1,1141.1,2133.5)"
         id="path75" />
      <text
         fill="#7f7f7f"
         font-family="'Calibri Light', 'Calibri Light_MSFontService', sans-serif"
         font-weight="300"
         font-size="19px"
         transform="translate(955.142,2731)"
         id="text76">BF, I. Bojanova</text>
      <text
         fill="#7f7f7f"
         font-family="'Calibri Light', 'Calibri Light_MSFontService', sans-serif"
         font-weight="300"
         font-size="19px"
         transform="translate(1062.44,2731)"
         id="text77">, 2014</text>
      <text
         fill="#7f7f7f"
         font-family="'Calibri Light', 'Calibri Light_MSFontService', sans-serif"
         font-weight="300"
         font-size="19px"
         transform="translate(1109.1,2731)"
         id="text78">-</text>
      <text
         fill="#7f7f7f"
         font-family="'Calibri Light', 'Calibri Light_MSFontService', sans-serif"
         font-weight="300"
         font-size="19px"
         transform="translate(1114.77,2731)"
         id="text79">2024</text>
      <text
         font-family="'Calibri Light', 'Calibri Light_MSFontService', sans-serif"
         font-weight="300"
         font-size="21px"
         transform="translate(-37.6226,1864)"
         id="text80">Weakness Type</text>
      <text
         font-family="'Calibri Light', 'Calibri Light_MSFontService', sans-serif"
         font-weight="300"
         font-size="14px"
         transform="translate(93.6174,1868)"
         id="text81">1</text>
      <text
         fill="#660066"
         font-family="'Calibri Light', 'Calibri Light_MSFontService', sans-serif"
         font-weight="300"
         font-size="21px"
         transform="translate(-37.6226,1896)"
         id="text82">Weakness</text>
      <text
         fill="#660066"
         font-family="'Calibri Light', 'Calibri Light_MSFontService', sans-serif"
         font-weight="300"
         font-size="14px"
         transform="translate(48.5974,1900)"
         id="text83">1</text>
      <text
         font-family="'Calibri Light', 'Calibri Light_MSFontService', sans-serif"
         font-weight="300"
         font-size="21px"
         transform="translate(747.583,2598)"
         id="text84">Failure Type</text>
      <text
         font-family="'Calibri Light', 'Calibri Light_MSFontService', sans-serif"
         font-weight="300"
         font-size="14px"
         transform="translate(849.883,2602)"
         id="text85">1</text>
      <text
         font-family="'Calibri Light', 'Calibri Light_MSFontService', sans-serif"
         font-weight="300"
         font-size="21px"
         transform="translate(937.284,2598)"
         id="text86">Failure</text>
      <text
         font-family="'Calibri Light', 'Calibri Light_MSFontService', sans-serif"
         font-weight="300"
         font-size="21px"
         transform="translate(999.397,2598)"
         id="text87">Type</text>
      <text
         font-family="'Calibri Light', 'Calibri Light_MSFontService', sans-serif"
         font-weight="300"
         font-size="14px"
         transform="translate(1039.58,2602)"
         id="text88">F</text>
      <text
         font-family="'Calibri Light', 'Calibri Light_MSFontService', sans-serif"
         font-weight="300"
         font-size="21px"
         transform="translate(505.125,1837)"
         id="text89">Improper Operation</text>
      <text
         font-family="'Calibri Light', 'Calibri Light_MSFontService', sans-serif"
         font-weight="300"
         font-size="21px"
         transform="translate(506.367,2090)"
         id="text90">Improper Operand</text>
      <text
         font-family="'Calibri Light', 'Calibri Light_MSFontService', sans-serif"
         font-weight="300"
         font-size="21px"
         transform="translate(505.65,2342)"
         id="text91">Improper Operand</text>
      <rect
         x="268"
         y="2246"
         width="60"
         height="25"
         fill="#ffffff"
         id="rect91" />
      <text
         font-family="'Calibri Light', 'Calibri Light_MSFontService', sans-serif"
         font-weight="300"
         font-size="21px"
         transform="translate(290.945,2266)"
         id="text92">…</text>
      <path
         d="m 1002.5,2705.5 61.23,-113 66.77,113 z"
         stroke="#7d3368"
         stroke-width="0.666667"
         stroke-linejoin="round"
         stroke-miterlimit="10"
         fill="#dfdaea"
         fill-rule="evenodd"
         id="path92" />
      <text
         fill="#660066"
         font-family="'Calibri Light', 'Calibri Light_MSFontService', sans-serif"
         font-weight="300"
         font-size="21px"
         transform="translate(1034.37,2678)"
         id="text93">Failure</text>
      <text
         fill="#660066"
         font-family="'Calibri Light', 'Calibri Light_MSFontService', sans-serif"
         font-weight="300"
         font-size="14px"
         transform="translate(1091.65,2682)"
         id="text94">F</text>
      <path
         d="m 808.5,2705.5 61.23,-113 66.77,113 z"
         stroke="#7d3368"
         stroke-width="0.666667"
         stroke-linejoin="round"
         stroke-miterlimit="10"
         fill="#dfdaea"
         fill-rule="evenodd"
         id="path94" />
      <text
         fill="#660066"
         font-family="'Calibri Light', 'Calibri Light_MSFontService', sans-serif"
         font-weight="300"
         font-size="21px"
         transform="translate(840.012,2678)"
         id="text95">Failure</text>
      <text
         fill="#660066"
         font-family="'Calibri Light', 'Calibri Light_MSFontService', sans-serif"
         font-weight="300"
         font-size="14px"
         transform="translate(897.292,2682)"
         id="text96">1</text>
    </g>
  </g>
</svg>
