<?xml version="1.0" encoding="UTF-8" standalone="no"?>
<!-- Created with Inkscape (http://www.inkscape.org/) -->

<svg
   width="264.86865mm"
   height="142.58148mm"
   viewBox="0 0 264.86865 142.58148"
   version="1.1"
   id="svg1"
   inkscape:version="1.3.2 (091e20e, 2023-11-25, custom)"
   sodipodi:docname="BF Weakness States.svg"
   xml:space="preserve"
   xmlns:inkscape="http://www.inkscape.org/namespaces/inkscape"
   xmlns:sodipodi="http://sodipodi.sourceforge.net/DTD/sodipodi-0.dtd"
   xmlns="http://www.w3.org/2000/svg"
   xmlns:svg="http://www.w3.org/2000/svg"><sodipodi:namedview
     id="namedview1"
     pagecolor="#ffffff"
     bordercolor="#000000"
     borderopacity="0.25"
     inkscape:showpageshadow="2"
     inkscape:pageopacity="0.0"
     inkscape:pagecheckerboard="0"
     inkscape:deskcolor="#d1d1d1"
     inkscape:document-units="mm"
     inkscape:zoom="1.0307169"
     inkscape:cx="237.21354"
     inkscape:cy="-134.37249"
     inkscape:window-width="2560"
     inkscape:window-height="1377"
     inkscape:window-x="-8"
     inkscape:window-y="859"
     inkscape:window-maximized="1"
     inkscape:current-layer="layer1" /><defs
     id="defs1" /><g
     inkscape:label="Layer 1"
     inkscape:groupmode="layer"
     id="layer1"
     transform="translate(-42.329062,-184.5391)"><g
       transform="matrix(0.26458333,0,0,0.26458333,24.02741,-9.1648367)"
       id="g82"><text
         font-family="'Calibri Light', 'Calibri Light_MSFontService', sans-serif"
         font-weight="300"
         font-size="16px"
         transform="translate(298.927,798)"
         id="text1">Consequence</text><text
         fill="#7d3368"
         font-family="'Calibri Light', 'Calibri Light_MSFontService', sans-serif"
         font-weight="300"
         font-size="16px"
         transform="translate(326.083,834)"
         id="text2">Error</text><text
         fill="#7d3368"
         font-family="'Calibri Light', 'Calibri Light_MSFontService', sans-serif"
         font-weight="300"
         font-size="16px"
         transform="translate(800.117,832)"
         id="text3">Error</text><text
         font-family="'Calibri Light', 'Calibri Light_MSFontService', sans-serif"
         font-weight="300"
         font-size="16px"
         transform="translate(496.765,1011)"
         id="text4">Consequence</text><text
         fill="#7d3368"
         font-family="'Calibri Light', 'Calibri Light_MSFontService', sans-serif"
         font-weight="300"
         font-size="16px"
         transform="translate(508.104,1047)"
         id="text5">Final Error</text><text
         font-family="'Calibri Light', 'Calibri Light_MSFontService', sans-serif"
         font-weight="300"
         font-size="16px"
         transform="translate(772.96,798)"
         id="text6">Consequence</text><text
         fill="#7d3368"
         font-family="'Calibri Light', 'Calibri Light_MSFontService', sans-serif"
         font-weight="300"
         font-size="16px"
         transform="translate(980.555,1046)"
         id="text7">Final Error</text><text
         font-family="'Calibri Light', 'Calibri Light_MSFontService', sans-serif"
         font-weight="300"
         font-size="16px"
         transform="translate(970.125,1011)"
         id="text8">Consequence</text><text
         fill="#7f7f7f"
         font-family="'Calibri Light', 'Calibri Light_MSFontService', sans-serif"
         font-weight="300"
         font-size="13px"
         transform="translate(937.107,1198)"
         id="text9">BF, I. Bojanova</text><path
         d="m 159,880 c 0,-40.869 33.355,-74 74.5,-74 41.145,0 74.5,33.131 74.5,74 0,40.869 -33.355,74 -74.5,74 -41.145,0 -74.5,-33.131 -74.5,-74 z"
         fill="#e8effc"
         fill-rule="evenodd"
         id="path9" /><text
         font-family="'Calibri Light', 'Calibri Light_MSFontService', sans-serif"
         font-weight="300"
         font-size="16px"
         transform="translate(182.927,853)"
         id="text10">Improper State</text><text
         font-family="'Calibri Light', 'Calibri Light_MSFontService', sans-serif"
         font-weight="300"
         font-size="11px"
         transform="translate(279.241,856)"
         id="text11">1</text><text
         font-family="'Calibri Light', 'Calibri Light_MSFontService', sans-serif"
         font-weight="300"
         font-size="16px"
         transform="translate(181.167,880)"
         id="text12">(</text><text
         fill="#7d3368"
         font-family="'Calibri Light', 'Calibri Light_MSFontService', sans-serif"
         font-weight="300"
         font-size="16px"
         transform="translate(187.501,880)"
         id="text13">operation</text><text
         fill="#7d3368"
         font-family="'Calibri Light', 'Calibri Light_MSFontService', sans-serif"
         font-weight="300"
         font-size="11px"
         transform="translate(250.034,883)"
         id="text14">1</text><text
         font-family="'Calibri Light', 'Calibri Light_MSFontService', sans-serif"
         font-weight="300"
         font-size="16px"
         transform="translate(255.367,880)"
         id="text15">,</text><text
         font-family="'Calibri Light', 'Calibri Light_MSFontService', sans-serif"
         font-weight="300"
         font-size="16px"
         transform="translate(187.501,899)"
         id="text16">operand</text><text
         font-family="'Calibri Light', 'Calibri Light_MSFontService', sans-serif"
         font-weight="300"
         font-size="11px"
         transform="translate(241.354,902)"
         id="text17">11</text><text
         font-family="'Calibri Light', 'Calibri Light_MSFontService', sans-serif"
         font-weight="300"
         font-size="16px"
         transform="translate(254.354,899)"
         id="text18">,</text><text
         font-family="'Calibri Light', 'Calibri Light_MSFontService', sans-serif"
         font-weight="300"
         font-size="16px"
         transform="translate(261.854,899)"
         id="text19">...</text><text
         font-family="'Calibri Light', 'Calibri Light_MSFontService', sans-serif"
         font-weight="300"
         font-size="16px"
         transform="translate(187.501,919)"
         id="text20">operand</text><text
         font-family="'Calibri Light', 'Calibri Light_MSFontService', sans-serif"
         font-weight="300"
         font-size="11px"
         transform="translate(241.354,922)"
         id="text21">1i</text><text
         font-family="'Calibri Light', 'Calibri Light_MSFontService', sans-serif"
         font-weight="300"
         font-size="16px"
         transform="translate(251.354,919)"
         id="text22">,</text><text
         font-family="'Calibri Light', 'Calibri Light_MSFontService', sans-serif"
         font-weight="300"
         font-size="16px"
         transform="translate(258.854,919)"
         id="text23">... )</text><text
         font-family="'Calibri Light', 'Calibri Light_MSFontService', sans-serif"
         font-weight="300"
         font-size="15px"
         transform="translate(156.926,1258)"
         id="text24">Improper</text><text
         font-family="'Calibri Light', 'Calibri Light_MSFontService', sans-serif"
         font-weight="300"
         font-size="15px"
         transform="translate(215.592,1258)"
         id="text25">State</text><text
         font-family="'Calibri Light', 'Calibri Light_MSFontService', sans-serif"
         font-weight="300"
         font-size="15px"
         transform="translate(249.259,1258)"
         id="text26">caused by a Fault</text><text
         font-family="'Calibri Light', 'Calibri Light_MSFontService', sans-serif"
         font-weight="300"
         font-size="15px"
         transform="translate(353.926,1258)"
         id="text27">–</text><text
         font-family="'Calibri Light', 'Calibri Light_MSFontService', sans-serif"
         font-weight="300"
         font-size="15px"
         transform="translate(364.592,1258)"
         id="text28">an operand is improper</text><text
         font-family="'Calibri Light', 'Calibri Light_MSFontService', sans-serif"
         font-weight="300"
         font-size="15px"
         transform="translate(156.926,1217)"
         id="text29">Improper State</text><text
         font-family="'Calibri Light', 'Calibri Light_MSFontService', sans-serif"
         font-weight="300"
         font-size="15px"
         transform="translate(249.259,1217)"
         id="text30">caused by a</text><text
         font-family="'Calibri Light', 'Calibri Light_MSFontService', sans-serif"
         font-weight="300"
         font-size="15px"
         transform="translate(321.426,1217)"
         id="text31">B</text><text
         font-family="'Calibri Light', 'Calibri Light_MSFontService', sans-serif"
         font-weight="300"
         font-size="15px"
         transform="translate(329.259,1217)"
         id="text32">ug</text><text
         font-family="'Calibri Light', 'Calibri Light_MSFontService', sans-serif"
         font-weight="300"
         font-size="15px"
         transform="translate(347.093,1217)"
         id="text33">–</text><text
         font-family="'Calibri Light', 'Calibri Light_MSFontService', sans-serif"
         font-weight="300"
         font-size="15px"
         transform="translate(357.759,1217)"
         id="text34">the operation is improper</text><path
         d="m 109,1253 c 0,-9.94 8.059,-18 18,-18 9.941,0 18,8.06 18,18 0,9.94 -8.059,18 -18,18 -9.941,0 -18,-8.06 -18,-18 z"
         fill="#f4f2f8"
         fill-rule="evenodd"
         id="path34" /><path
         d="m 109,1212 c 0,-9.94 8.059,-18 18,-18 9.941,0 18,8.06 18,18 0,9.94 -8.059,18 -18,18 -9.941,0 -18,-8.06 -18,-18 z"
         fill="#e8effc"
         fill-rule="evenodd"
         id="path35" /><text
         font-family="'Calibri Light', 'Calibri Light_MSFontService', sans-serif"
         font-weight="300"
         font-size="16px"
         transform="translate(506.283,743)"
         id="text35">BF Weakness States</text><text
         fill="#7d3368"
         font-family="'Calibri Light', 'Calibri Light_MSFontService', sans-serif"
         font-weight="300"
         font-size="16px"
         transform="translate(113.125,834)"
         id="text36">Bug</text><text
         font-family="'Calibri Light', 'Calibri Light_MSFontService', sans-serif"
         font-weight="300"
         font-size="16px"
         transform="translate(106.125,798)"
         id="text37">Cause</text><path
         d="m 633,878.5 c 0,-41.145 33.355,-74.5 74.5,-74.5 41.145,0 74.5,33.355 74.5,74.5 0,41.145 -33.355,74.5 -74.5,74.5 -41.145,0 -74.5,-33.355 -74.5,-74.5 z"
         fill="#f4f2f8"
         fill-rule="evenodd"
         id="path37" /><text
         font-family="'Calibri Light', 'Calibri Light_MSFontService', sans-serif"
         font-weight="300"
         font-size="16px"
         transform="translate(656.961,861)"
         id="text38">Improper State</text><text
         font-family="'Calibri Light', 'Calibri Light_MSFontService', sans-serif"
         font-weight="300"
         font-size="11px"
         transform="translate(753.274,864)"
         id="text39">2</text><text
         font-family="'Calibri Light', 'Calibri Light_MSFontService', sans-serif"
         font-weight="300"
         font-size="16px"
         transform="translate(655.201,888)"
         id="text40">(</text><text
         font-family="'Calibri Light', 'Calibri Light_MSFontService', sans-serif"
         font-weight="300"
         font-size="16px"
         transform="translate(661.534,888)"
         id="text41">operation</text><text
         font-family="'Calibri Light', 'Calibri Light_MSFontService', sans-serif"
         font-weight="300"
         font-size="11px"
         transform="translate(724.068,891)"
         id="text42">2</text><text
         font-family="'Calibri Light', 'Calibri Light_MSFontService', sans-serif"
         font-weight="300"
         font-size="16px"
         transform="translate(729.401,888)"
         id="text43">, …,</text><text
         fill="#7d3368"
         font-family="'Calibri Light', 'Calibri Light_MSFontService', sans-serif"
         font-weight="300"
         font-size="16px"
         transform="translate(665.188,907)"
         id="text44">operand</text><text
         fill="#7d3368"
         font-family="'Calibri Light', 'Calibri Light_MSFontService', sans-serif"
         font-weight="300"
         font-size="11px"
         transform="translate(719.041,910)"
         id="text45">2j</text><text
         font-family="'Calibri Light', 'Calibri Light_MSFontService', sans-serif"
         font-weight="300"
         font-size="16px"
         transform="translate(729.208,907)"
         id="text46">, ... )</text><text
         fill="#7d3368"
         font-family="'Calibri Light', 'Calibri Light_MSFontService', sans-serif"
         font-weight="300"
         font-size="16px"
         transform="translate(584.085,832)"
         id="text47">Fault</text><path
         d="m 357,1093 c 0,-40.87 33.355,-74 74.5,-74 41.145,0 74.5,33.13 74.5,74 0,40.87 -33.355,74 -74.5,74 -41.145,0 -74.5,-33.13 -74.5,-74 z"
         fill="#e8effc"
         fill-rule="evenodd"
         id="path47" /><text
         font-family="'Calibri Light', 'Calibri Light_MSFontService', sans-serif"
         font-weight="300"
         font-size="16px"
         transform="translate(380.819,1066)"
         id="text48">Improper State</text><text
         font-family="'Calibri Light', 'Calibri Light_MSFontService', sans-serif"
         font-weight="300"
         font-size="11px"
         transform="translate(477.132,1069)"
         id="text49">1</text><text
         font-family="'Calibri Light', 'Calibri Light_MSFontService', sans-serif"
         font-weight="300"
         font-size="16px"
         transform="translate(379.059,1093)"
         id="text50">(</text><text
         fill="#7d3368"
         font-family="'Calibri Light', 'Calibri Light_MSFontService', sans-serif"
         font-weight="300"
         font-size="16px"
         transform="translate(385.392,1093)"
         id="text51">operation</text><text
         fill="#7d3368"
         font-family="'Calibri Light', 'Calibri Light_MSFontService', sans-serif"
         font-weight="300"
         font-size="11px"
         transform="translate(447.925,1096)"
         id="text52">1</text><text
         font-family="'Calibri Light', 'Calibri Light_MSFontService', sans-serif"
         font-weight="300"
         font-size="16px"
         transform="translate(453.259,1093)"
         id="text53">,</text><text
         font-family="'Calibri Light', 'Calibri Light_MSFontService', sans-serif"
         font-weight="300"
         font-size="16px"
         transform="translate(385.392,1112)"
         id="text54">operand</text><text
         font-family="'Calibri Light', 'Calibri Light_MSFontService', sans-serif"
         font-weight="300"
         font-size="11px"
         transform="translate(439.245,1115)"
         id="text55">11</text><text
         font-family="'Calibri Light', 'Calibri Light_MSFontService', sans-serif"
         font-weight="300"
         font-size="16px"
         transform="translate(452.245,1112)"
         id="text56">,</text><text
         font-family="'Calibri Light', 'Calibri Light_MSFontService', sans-serif"
         font-weight="300"
         font-size="16px"
         transform="translate(459.745,1112)"
         id="text57">...</text><text
         font-family="'Calibri Light', 'Calibri Light_MSFontService', sans-serif"
         font-weight="300"
         font-size="16px"
         transform="translate(385.392,1132)"
         id="text58">operand</text><text
         font-family="'Calibri Light', 'Calibri Light_MSFontService', sans-serif"
         font-weight="300"
         font-size="11px"
         transform="translate(439.245,1135)"
         id="text59">1i</text><text
         font-family="'Calibri Light', 'Calibri Light_MSFontService', sans-serif"
         font-weight="300"
         font-size="16px"
         transform="translate(449.245,1132)"
         id="text60">,</text><text
         font-family="'Calibri Light', 'Calibri Light_MSFontService', sans-serif"
         font-weight="300"
         font-size="16px"
         transform="translate(456.745,1132)"
         id="text61">... )</text><text
         fill="#7d3368"
         font-family="'Calibri Light', 'Calibri Light_MSFontService', sans-serif"
         font-weight="300"
         font-size="16px"
         transform="translate(311.221,1047)"
         id="text62">Bug</text><text
         font-family="'Calibri Light', 'Calibri Light_MSFontService', sans-serif"
         font-weight="300"
         font-size="16px"
         transform="translate(303.773,1011)"
         id="text63">Cause</text><text
         font-family="'Calibri Light', 'Calibri Light_MSFontService', sans-serif"
         font-weight="300"
         font-size="16px"
         transform="translate(580.706,798)"
         id="text64">Cause</text><path
         d="m 830,1092 c 0,-40.87 33.355,-74 74.5,-74 41.145,0 74.5,33.13 74.5,74 0,40.87 -33.355,74 -74.5,74 -41.145,0 -74.5,-33.13 -74.5,-74 z"
         fill="#dfdaea"
         fill-rule="evenodd"
         id="path64" /><text
         font-family="'Calibri Light', 'Calibri Light_MSFontService', sans-serif"
         font-weight="300"
         font-size="16px"
         transform="translate(853.882,1074)"
         id="text65">Improper State</text><text
         font-family="'Calibri Light', 'Calibri Light_MSFontService', sans-serif"
         font-weight="300"
         font-size="11px"
         transform="translate(950.196,1077)"
         id="text66">2</text><text
         font-family="'Calibri Light', 'Calibri Light_MSFontService', sans-serif"
         font-weight="300"
         font-size="16px"
         transform="translate(852.122,1101)"
         id="text67">(</text><text
         font-family="'Calibri Light', 'Calibri Light_MSFontService', sans-serif"
         font-weight="300"
         font-size="16px"
         transform="translate(858.456,1101)"
         id="text68">operation</text><text
         font-family="'Calibri Light', 'Calibri Light_MSFontService', sans-serif"
         font-weight="300"
         font-size="11px"
         transform="translate(920.989,1104)"
         id="text69">2</text><text
         font-family="'Calibri Light', 'Calibri Light_MSFontService', sans-serif"
         font-weight="300"
         font-size="16px"
         transform="translate(926.322,1101)"
         id="text70">, …,</text><text
         fill="#7d3368"
         font-family="'Calibri Light', 'Calibri Light_MSFontService', sans-serif"
         font-weight="300"
         font-size="16px"
         transform="translate(862.109,1120)"
         id="text71">operand</text><text
         fill="#7d3368"
         font-family="'Calibri Light', 'Calibri Light_MSFontService', sans-serif"
         font-weight="300"
         font-size="11px"
         transform="translate(915.962,1123)"
         id="text72">2j</text><text
         font-family="'Calibri Light', 'Calibri Light_MSFontService', sans-serif"
         font-weight="300"
         font-size="16px"
         transform="translate(926.129,1120)"
         id="text73">, ... )</text><text
         fill="#7d3368"
         font-family="'Calibri Light', 'Calibri Light_MSFontService', sans-serif"
         font-weight="300"
         font-size="16px"
         transform="translate(780.46,1046)"
         id="text74">Fault</text><text
         font-family="'Calibri Light', 'Calibri Light_MSFontService', sans-serif"
         font-weight="300"
         font-size="16px"
         transform="translate(776.647,1011)"
         id="text75">Cause</text><path
         d="m 69.1716,827.81 0.3291,-1.906 0.9741,-1.919 1.5487,-1.862 2.0751,-1.8 2.5598,-1.73 3.0048,-1.651 3.4103,-1.561 3.7796,-1.457 8.4839,-2.544 9.467,-1.961 10.122,-1.261 10.449,-0.447 10.45,0.439 10.121,1.238 9.466,1.924 8.484,2.497 3.779,1.43 3.41,1.532 3.005,1.62 2.588,1.717 1.235,1.575 -0.524,0.412 -1.202,-1.533 0.078,0.072 -2.531,-1.679 0.026,0.016 -2.98,-1.608 0.021,0.011 -3.39,-1.523 0.019,0.008 -3.758,-1.422 0.024,0.008 -8.458,-2.489 0.028,0.007 -9.44,-1.919 0.026,0.004 -10.095,-1.235 0.027,0.002 -10.423,-0.437 h 0.029 l -10.422,0.445 0.027,-0.002 -10.095,1.258 0.026,-0.004 -9.4396,1.955 0.0282,-0.007 -8.4577,2.536 0.0242,-0.009 -3.7583,1.45 0.0188,-0.008 -3.3899,1.551 0.0218,-0.011 -2.9806,1.638 0.0261,-0.016 -2.5305,1.71 0.0317,-0.024 -2.0393,1.769 0.0378,-0.039 -1.5074,1.812 0.041,-0.062 -0.9344,1.841 0.0312,-0.094 -0.3206,1.856 z m 111.1264,-9.203 0.953,8.893 -7.687,-4.573 z"
         id="path75" /><path
         d="m 286.172,828.81 0.329,-1.906 0.974,-1.919 1.549,-1.862 2.075,-1.8 2.559,-1.73 3.005,-1.651 3.41,-1.561 3.78,-1.457 8.484,-2.544 9.467,-1.961 10.122,-1.261 10.449,-0.447 10.45,0.439 10.121,1.238 9.466,1.924 8.484,2.497 3.779,1.43 3.41,1.532 3.005,1.62 2.588,1.717 1.235,1.575 -0.524,0.412 -1.202,-1.533 0.078,0.072 -2.531,-1.679 0.026,0.016 -2.98,-1.608 0.021,0.011 -3.39,-1.523 0.019,0.008 -3.758,-1.422 0.024,0.008 -8.458,-2.489 0.028,0.007 -9.44,-1.919 0.026,0.004 -10.095,-1.235 0.027,0.002 -10.423,-0.437 h 0.029 l -10.422,0.445 0.027,-0.002 -10.095,1.258 0.026,-0.004 -9.44,1.955 0.029,-0.007 -8.458,2.536 0.024,-0.009 -3.758,1.45 0.019,-0.008 -3.39,1.551 0.022,-0.011 -2.981,1.638 0.026,-0.016 -2.53,1.71 0.031,-0.024 -2.039,1.769 0.038,-0.039 -1.508,1.812 0.041,-0.062 -0.934,1.841 0.031,-0.094 -0.32,1.856 z m 111.126,-9.203 0.953,8.893 -7.687,-4.573 z"
         id="path76" /><path
         d="m 544.172,826.81 0.329,-1.906 0.974,-1.919 1.549,-1.862 2.075,-1.8 2.559,-1.73 3.005,-1.651 3.41,-1.561 3.78,-1.457 8.484,-2.544 9.467,-1.961 10.122,-1.261 10.449,-0.447 10.45,0.439 10.121,1.238 9.466,1.924 8.484,2.497 3.779,1.43 3.411,1.532 3.004,1.62 2.588,1.717 1.235,1.575 -0.524,0.412 -1.202,-1.533 0.078,0.072 -2.531,-1.679 0.026,0.016 -2.98,-1.608 0.021,0.011 -3.39,-1.523 0.019,0.008 -3.758,-1.422 0.024,0.008 -8.458,-2.489 0.028,0.007 -9.44,-1.919 0.026,0.004 -10.095,-1.235 0.027,0.002 -10.423,-0.437 h 0.029 l -10.422,0.445 0.027,-0.002 -10.095,1.258 0.026,-0.004 -9.44,1.955 0.029,-0.007 -8.458,2.536 0.024,-0.009 -3.758,1.45 0.019,-0.008 -3.39,1.551 0.022,-0.011 -2.981,1.638 0.026,-0.016 -2.53,1.71 0.031,-0.024 -2.039,1.769 0.038,-0.039 -1.508,1.812 0.041,-0.062 -0.934,1.841 0.031,-0.094 -0.32,1.856 z m 111.126,-9.203 0.953,8.893 -7.687,-4.573 z"
         id="path77" /><path
         d="m 761.172,827.81 0.329,-1.906 0.974,-1.919 1.549,-1.862 2.075,-1.8 2.559,-1.73 3.005,-1.651 3.41,-1.561 3.78,-1.457 8.484,-2.544 9.467,-1.961 10.122,-1.261 10.449,-0.447 10.45,0.439 10.121,1.238 9.466,1.924 8.484,2.497 3.779,1.43 3.411,1.532 3.004,1.62 2.588,1.717 1.235,1.575 -0.524,0.412 -1.202,-1.533 0.078,0.072 -2.531,-1.679 0.026,0.016 -2.98,-1.608 0.021,0.011 -3.39,-1.523 0.019,0.008 -3.758,-1.422 0.024,0.008 -8.458,-2.489 0.028,0.007 -9.44,-1.919 0.026,0.004 -10.095,-1.235 0.027,0.002 -10.423,-0.437 h 0.029 l -10.422,0.445 0.027,-0.002 -10.095,1.258 0.026,-0.004 -9.44,1.955 0.029,-0.007 -8.458,2.536 0.024,-0.009 -3.758,1.45 0.019,-0.008 -3.39,1.551 0.022,-0.011 -2.981,1.638 0.026,-0.016 -2.53,1.71 0.031,-0.024 -2.039,1.769 0.038,-0.039 -1.508,1.812 0.041,-0.062 -0.934,1.841 0.031,-0.094 -0.32,1.856 z m 111.126,-9.203 0.953,8.893 -7.687,-4.573 z"
         id="path78" /><path
         d="m 267.172,1041.81 0.329,-1.91 0.974,-1.92 1.549,-1.86 2.075,-1.8 2.559,-1.73 3.005,-1.65 3.41,-1.56 3.78,-1.46 8.484,-2.54 9.467,-1.96 10.122,-1.26 10.449,-0.45 10.45,0.44 10.121,1.24 9.466,1.92 8.484,2.5 3.779,1.43 3.41,1.53 3.005,1.62 2.588,1.72 1.235,1.57 -0.524,0.41 -1.202,-1.53 0.078,0.07 -2.531,-1.67 0.026,0.01 -2.98,-1.61 0.021,0.01 -3.39,-1.52 0.019,0.01 -3.758,-1.42 h 0.024 l -8.458,-2.48 h 0.028 l -9.44,-1.92 0.026,0.01 -10.095,-1.24 0.027,0.01 -10.423,-0.44 h 0.029 l -10.422,0.44 h 0.027 l -10.095,1.26 0.026,-0.01 -9.44,1.96 0.029,-0.01 -8.458,2.54 0.024,-0.01 -3.758,1.45 0.019,-0.01 -3.39,1.55 0.022,-0.01 -2.981,1.64 0.026,-0.02 -2.53,1.71 0.031,-0.02 -2.039,1.77 0.038,-0.04 -1.508,1.81 0.041,-0.06 -0.934,1.84 0.031,-0.09 -0.32,1.85 z m 111.126,-9.2 0.953,8.89 -7.687,-4.57 z"
         id="path79" /><path
         d="m 484.172,1041.81 0.329,-1.91 0.974,-1.92 1.549,-1.86 2.075,-1.8 2.559,-1.73 3.005,-1.65 3.41,-1.56 3.78,-1.46 8.484,-2.54 9.467,-1.96 10.122,-1.26 10.449,-0.45 10.45,0.44 10.121,1.24 9.466,1.92 8.484,2.5 3.779,1.43 3.411,1.53 3.004,1.62 2.588,1.72 1.235,1.57 -0.524,0.41 -1.202,-1.53 0.078,0.07 -2.531,-1.67 0.026,0.01 -2.98,-1.61 0.021,0.01 -3.39,-1.52 0.019,0.01 -3.758,-1.42 h 0.024 l -8.458,-2.48 h 0.028 l -9.44,-1.92 0.026,0.01 -10.095,-1.24 0.027,0.01 -10.423,-0.44 h 0.029 l -10.422,0.44 h 0.027 l -10.095,1.26 0.026,-0.01 -9.44,1.96 0.029,-0.01 -8.458,2.54 0.024,-0.01 -3.758,1.45 0.019,-0.01 -3.39,1.55 0.022,-0.01 -2.981,1.64 0.026,-0.02 -2.53,1.71 0.031,-0.02 -2.039,1.77 0.038,-0.04 -1.508,1.81 0.041,-0.06 -0.934,1.84 0.031,-0.09 -0.32,1.85 z m 111.126,-9.2 0.953,8.89 -7.687,-4.57 z"
         id="path80" /><path
         d="m 741.172,1040.81 0.329,-1.91 0.974,-1.92 1.549,-1.86 2.075,-1.8 2.559,-1.73 3.005,-1.65 3.41,-1.56 3.78,-1.46 8.484,-2.54 9.467,-1.96 10.122,-1.26 10.449,-0.45 10.45,0.44 10.121,1.24 9.466,1.92 8.484,2.5 3.779,1.43 3.411,1.53 3.004,1.62 2.588,1.72 1.235,1.57 -0.524,0.41 -1.202,-1.53 0.078,0.07 -2.531,-1.67 0.026,0.01 -2.98,-1.61 0.021,0.01 -3.39,-1.52 0.019,0.01 -3.758,-1.42 h 0.024 l -8.458,-2.48 h 0.028 l -9.44,-1.92 0.026,0.01 -10.095,-1.24 0.027,0.01 -10.423,-0.44 h 0.029 l -10.422,0.44 h 0.027 l -10.095,1.26 0.026,-0.01 -9.44,1.96 0.029,-0.01 -8.458,2.54 0.024,-0.01 -3.758,1.45 0.019,-0.01 -3.39,1.55 0.022,-0.01 -2.981,1.64 0.026,-0.02 -2.53,1.71 0.031,-0.02 -2.039,1.77 0.038,-0.04 -1.508,1.81 0.041,-0.06 -0.934,1.84 0.031,-0.09 -0.32,1.85 z m 111.126,-9.2 0.953,8.89 -7.687,-4.57 z"
         id="path81" /><path
         d="m 958.172,1041.81 0.329,-1.91 0.974,-1.92 1.549,-1.86 2.075,-1.8 2.559,-1.73 3.005,-1.65 3.41,-1.56 3.78,-1.46 8.484,-2.54 9.467,-1.96 10.126,-1.26 10.45,-0.45 10.44,0.44 10.13,1.24 9.46,1.92 8.49,2.5 3.78,1.43 3.41,1.53 3,1.62 2.59,1.72 1.23,1.57 -0.52,0.41 -1.2,-1.53 0.07,0.07 -2.53,-1.67 0.03,0.01 -2.98,-1.61 0.02,0.01 -3.39,-1.52 0.02,0.01 -3.76,-1.42 h 0.03 l -8.46,-2.48 h 0.03 l -9.44,-1.92 0.02,0.01 -10.09,-1.24 0.02,0.01 -10.42,-0.44 h 0.03 l -10.42,0.44 h 0.02 l -10.09,1.26 0.026,-0.01 -9.44,1.96 0.029,-0.01 -8.458,2.54 0.024,-0.01 -3.758,1.45 0.019,-0.01 -3.39,1.55 0.022,-0.01 -2.981,1.64 0.026,-0.02 -2.53,1.71 0.031,-0.02 -2.039,1.77 0.038,-0.04 -1.508,1.81 0.041,-0.06 -0.934,1.84 0.031,-0.09 -0.32,1.85 z m 111.128,-9.2 0.95,8.89 -7.69,-4.57 z"
         id="path82" /></g></g></svg>
