<?xml version="1.0" encoding="UTF-8" standalone="no"?>
<!-- Created with Inkscape (http://www.inkscape.org/) -->

<svg
   width="238.61006mm"
   height="134.37939mm"
   viewBox="0 0 238.61007 134.37938"
   version="1.1"
   id="svg1"
   inkscape:version="1.3.2 (091e20e, 2023-11-25, custom)"
   sodipodi:docname="BF Weakness.svg"
   xml:space="preserve"
   xmlns:inkscape="http://www.inkscape.org/namespaces/inkscape"
   xmlns:sodipodi="http://sodipodi.sourceforge.net/DTD/sodipodi-0.dtd"
   xmlns="http://www.w3.org/2000/svg"
   xmlns:svg="http://www.w3.org/2000/svg"><sodipodi:namedview
     id="namedview1"
     pagecolor="#ffffff"
     bordercolor="#000000"
     borderopacity="0.25"
     inkscape:showpageshadow="2"
     inkscape:pageopacity="0.0"
     inkscape:pagecheckerboard="0"
     inkscape:deskcolor="#d1d1d1"
     inkscape:document-units="mm"
     inkscape:zoom="1.0307169"
     inkscape:cx="-203.25659"
     inkscape:cy="-83.922172"
     inkscape:window-width="2560"
     inkscape:window-height="1377"
     inkscape:window-x="-8"
     inkscape:window-y="859"
     inkscape:window-maximized="1"
     inkscape:current-layer="layer1" /><defs
     id="defs1" /><g
     inkscape:label="Layer 1"
     inkscape:groupmode="layer"
     id="layer1"
     transform="translate(-159.11522,-171.3918)"><g
       transform="matrix(0.26458333,0,0,0.26458333,126.57147,143.84619)"
       id="g73"><path
         d="m 251.171,214.779 0.329,-1.98 0.971,-1.994 1.546,-1.936 2.073,-1.873 2.558,-1.802 3.004,-1.719 3.408,-1.625 3.778,-1.517 8.479,-2.648 9.462,-2.042 10.116,-1.313 10.444,-0.465 10.443,0.435 10.115,1.228 9.46,1.909 8.478,2.477 3.777,1.419 3.408,1.519 3.003,1.608 2.587,1.704 1.204,1.538 -0.525,0.411 -1.171,-1.495 0.08,0.073 -2.529,-1.666 0.026,0.016 -2.979,-1.595 0.022,0.01 -3.388,-1.51 0.018,0.008 -3.756,-1.412 0.024,0.008 -8.452,-2.469 0.027,0.007 -9.433,-1.904 0.025,0.004 -10.088,-1.225 0.026,0.002 -10.415,-0.433 h 0.029 l -10.416,0.463 0.028,-0.002 -10.088,1.309 0.027,-0.004 -9.433,2.035 0.029,-0.008 -8.453,2.64 0.025,-0.009 -3.756,1.509 0.02,-0.008 -3.388,1.614 0.022,-0.011 -2.979,1.705 0.027,-0.017 -2.529,1.781 0.031,-0.025 -2.038,1.841 0.037,-0.039 -1.506,1.887 0.039,-0.062 -0.934,1.916 0.029,-0.091 -0.32,1.932 z m 111.01,-10.167 0.999,8.888 -7.71,-4.534 z"
         id="path1" /><path
         d="m 809.172,296.81 0.329,-1.906 0.974,-1.919 1.549,-1.862 2.075,-1.8 2.559,-1.73 3.005,-1.651 3.41,-1.561 3.78,-1.457 8.484,-2.544 9.467,-1.961 10.122,-1.261 10.449,-0.447 10.45,0.439 10.121,1.238 9.466,1.924 8.484,2.497 3.779,1.43 3.411,1.531 3.004,1.621 2.588,1.717 1.235,1.575 -0.524,0.412 -1.202,-1.533 0.078,0.072 -2.531,-1.679 0.026,0.016 -2.98,-1.608 0.021,0.011 -3.39,-1.523 0.019,0.008 -3.758,-1.423 0.024,0.009 -8.458,-2.489 0.028,0.007 -9.44,-1.919 0.026,0.004 -10.095,-1.235 0.027,0.002 -10.423,-0.437 h 0.029 l -10.422,0.445 0.027,-0.002 -10.095,1.258 0.026,-0.004 -9.44,1.955 0.029,-0.007 -8.458,2.536 0.024,-0.009 -3.758,1.45 0.019,-0.008 -3.39,1.551 0.022,-0.011 -2.981,1.638 0.026,-0.016 -2.53,1.71 0.031,-0.024 -2.039,1.769 0.038,-0.039 -1.508,1.812 0.041,-0.062 -0.934,1.841 0.031,-0.094 -0.32,1.856 z m 111.126,-9.203 0.953,8.893 -7.687,-4.573 z"
         id="path2" /><text
         font-family="'Calibri Light', 'Calibri Light_MSFontService', sans-serif"
         font-weight="300"
         font-size="16px"
         transform="translate(249.519,164)"
         id="text2">Results in</text><text
         fill="#7d3368"
         font-family="'Calibri Light', 'Calibri Light_MSFontService', sans-serif"
         font-weight="300"
         font-size="16px"
         transform="translate(314.206,164)"
         id="text3">Error</text><text
         fill="#7d3368"
         font-family="'Calibri Light', 'Calibri Light_MSFontService', sans-serif"
         font-weight="300"
         font-size="11px"
         transform="translate(346.559,167)"
         id="text4">1</text><text
         fill="#7d3368"
         font-family="'Calibri Light', 'Calibri Light_MSFontService', sans-serif"
         font-weight="300"
         font-size="16px"
         transform="translate(355.559,164)"
         id="text5">–</text><text
         fill="#7d3368"
         font-family="'Calibri Light', 'Calibri Light_MSFontService', sans-serif"
         font-weight="300"
         font-size="16px"
         transform="translate(242.773,183)"
         id="text6">Improper Operand</text><text
         fill="#7d3368"
         font-family="'Calibri Light', 'Calibri Light_MSFontService', sans-serif"
         font-weight="300"
         font-size="11px"
         transform="translate(362.479,186)"
         id="text7">2j</text><path
         d="m 854.5,422.5 85,-151 85,151 z"
         stroke="#7d3368"
         stroke-width="0.666667"
         stroke-linejoin="round"
         stroke-miterlimit="10"
         fill="#dfdaea"
         fill-rule="evenodd"
         id="path7" /><text
         font-family="'Calibri Light', 'Calibri Light_MSFontService', sans-serif"
         font-weight="300"
         font-size="16px"
         transform="translate(917.754,370)"
         id="text8">Failure</text><text
         fill="#7f7f7f"
         font-family="'Calibri Light', 'Calibri Light_MSFontService', sans-serif"
         font-weight="300"
         font-size="13px"
         transform="translate(898.108,444)"
         id="text9">BF, I. Bojanova</text><path
         d="m 682,347.5 c 0,-41.145 33.355,-74.5 74.5,-74.5 41.145,0 74.5,33.355 74.5,74.5 0,41.145 -33.355,74.5 -74.5,74.5 -41.145,0 -74.5,-33.355 -74.5,-74.5 z"
         fill="#dfdaea"
         fill-rule="evenodd"
         id="path9" /><text
         font-family="'Calibri Light', 'Calibri Light_MSFontService', sans-serif"
         font-weight="300"
         font-size="16px"
         transform="translate(705.211,329)"
         id="text10">Improper</text><text
         font-family="'Calibri Light', 'Calibri Light_MSFontService', sans-serif"
         font-weight="300"
         font-size="16px"
         transform="translate(768.898,329)"
         id="text11">State</text><text
         font-family="'Calibri Light', 'Calibri Light_MSFontService', sans-serif"
         font-weight="300"
         font-size="11px"
         transform="translate(801.524,332)"
         id="text12">n</text><text
         font-family="'Calibri Light', 'Calibri Light_MSFontService', sans-serif"
         font-weight="300"
         font-size="16px"
         transform="translate(703.538,356)"
         id="text13">(</text><text
         font-family="'Calibri Light', 'Calibri Light_MSFontService', sans-serif"
         font-weight="300"
         font-size="16px"
         transform="translate(709.871,356)"
         id="text14">operation</text><text
         font-family="'Calibri Light', 'Calibri Light_MSFontService', sans-serif"
         font-weight="300"
         font-size="11px"
         transform="translate(772.404,359)"
         id="text15">n</text><text
         font-family="'Calibri Light', 'Calibri Light_MSFontService', sans-serif"
         font-weight="300"
         font-size="16px"
         transform="translate(777.904,356)"
         id="text16">,</text><text
         font-family="'Calibri Light', 'Calibri Light_MSFontService', sans-serif"
         font-weight="300"
         font-size="16px"
         transform="translate(785.404,356)"
         id="text17">…</text><text
         fill="#7d3368"
         font-family="'Calibri Light', 'Calibri Light_MSFontService', sans-serif"
         font-weight="300"
         font-size="16px"
         transform="translate(712.858,375)"
         id="text18">operand</text><text
         fill="#7d3368"
         font-family="'Calibri Light', 'Calibri Light_MSFontService', sans-serif"
         font-weight="300"
         font-size="11px"
         transform="translate(766.711,378)"
         id="text19">nr</text><text
         font-family="'Calibri Light', 'Calibri Light_MSFontService', sans-serif"
         font-weight="300"
         font-size="16px"
         transform="translate(778.211,375)"
         id="text20">,</text><text
         font-family="'Calibri Light', 'Calibri Light_MSFontService', sans-serif"
         font-weight="300"
         font-size="16px"
         transform="translate(785.711,375)"
         id="text21">... )</text><path
         d="m 123,266 c 0,-40.869 33.355,-74 74.5,-74 41.145,0 74.5,33.131 74.5,74 0,40.869 -33.355,74 -74.5,74 -41.145,0 -74.5,-33.131 -74.5,-74 z"
         fill="#e8effc"
         fill-rule="evenodd"
         id="path21" /><text
         font-family="'Calibri Light', 'Calibri Light_MSFontService', sans-serif"
         font-weight="300"
         font-size="16px"
         transform="translate(146.579,239)"
         id="text22">Improper State</text><text
         font-family="'Calibri Light', 'Calibri Light_MSFontService', sans-serif"
         font-weight="300"
         font-size="11px"
         transform="translate(242.892,242)"
         id="text23">1</text><text
         font-family="'Calibri Light', 'Calibri Light_MSFontService', sans-serif"
         font-weight="300"
         font-size="16px"
         transform="translate(144.819,266)"
         id="text24">(</text><text
         fill="#7d3368"
         font-family="'Calibri Light', 'Calibri Light_MSFontService', sans-serif"
         font-weight="300"
         font-size="16px"
         transform="translate(151.152,266)"
         id="text25">operation</text><text
         fill="#7d3368"
         font-family="'Calibri Light', 'Calibri Light_MSFontService', sans-serif"
         font-weight="300"
         font-size="11px"
         transform="translate(213.686,269)"
         id="text26">1</text><text
         font-family="'Calibri Light', 'Calibri Light_MSFontService', sans-serif"
         font-weight="300"
         font-size="16px"
         transform="translate(219.019,266)"
         id="text27">,</text><text
         font-family="'Calibri Light', 'Calibri Light_MSFontService', sans-serif"
         font-weight="300"
         font-size="16px"
         transform="translate(151.152,285)"
         id="text28">operand</text><text
         font-family="'Calibri Light', 'Calibri Light_MSFontService', sans-serif"
         font-weight="300"
         font-size="11px"
         transform="translate(205.006,288)"
         id="text29">11</text><text
         font-family="'Calibri Light', 'Calibri Light_MSFontService', sans-serif"
         font-weight="300"
         font-size="16px"
         transform="translate(218.006,285)"
         id="text30">,</text><text
         font-family="'Calibri Light', 'Calibri Light_MSFontService', sans-serif"
         font-weight="300"
         font-size="16px"
         transform="translate(225.506,285)"
         id="text31">...</text><text
         font-family="'Calibri Light', 'Calibri Light_MSFontService', sans-serif"
         font-weight="300"
         font-size="16px"
         transform="translate(151.152,305)"
         id="text32">operand</text><text
         font-family="'Calibri Light', 'Calibri Light_MSFontService', sans-serif"
         font-weight="300"
         font-size="11px"
         transform="translate(205.006,308)"
         id="text33">1i</text><text
         font-family="'Calibri Light', 'Calibri Light_MSFontService', sans-serif"
         font-weight="300"
         font-size="16px"
         transform="translate(215.006,305)"
         id="text34">,</text><text
         font-family="'Calibri Light', 'Calibri Light_MSFontService', sans-serif"
         font-weight="300"
         font-size="16px"
         transform="translate(222.506,305)"
         id="text35">... )</text><path
         d="m 340,266 c 0,-40.869 33.355,-74 74.5,-74 41.145,0 74.5,33.131 74.5,74 0,40.869 -33.355,74 -74.5,74 -41.145,0 -74.5,-33.131 -74.5,-74 z"
         fill="#f4f2f8"
         fill-rule="evenodd"
         id="path35" /><text
         font-family="'Calibri Light', 'Calibri Light_MSFontService', sans-serif"
         font-weight="300"
         font-size="16px"
         transform="translate(363.476,248)"
         id="text36">Improper</text><text
         font-family="'Calibri Light', 'Calibri Light_MSFontService', sans-serif"
         font-weight="300"
         font-size="16px"
         transform="translate(427.163,248)"
         id="text37">State</text><text
         font-family="'Calibri Light', 'Calibri Light_MSFontService', sans-serif"
         font-weight="300"
         font-size="11px"
         transform="translate(459.789,251)"
         id="text38">2</text><text
         font-family="'Calibri Light', 'Calibri Light_MSFontService', sans-serif"
         font-weight="300"
         font-size="16px"
         transform="translate(361.716,275)"
         id="text39">(</text><text
         font-family="'Calibri Light', 'Calibri Light_MSFontService', sans-serif"
         font-weight="300"
         font-size="16px"
         transform="translate(368.049,275)"
         id="text40">operation</text><text
         font-family="'Calibri Light', 'Calibri Light_MSFontService', sans-serif"
         font-weight="300"
         font-size="11px"
         transform="translate(430.583,278)"
         id="text41">2</text><text
         font-family="'Calibri Light', 'Calibri Light_MSFontService', sans-serif"
         font-weight="300"
         font-size="16px"
         transform="translate(435.916,275)"
         id="text42">,</text><text
         font-family="'Calibri Light', 'Calibri Light_MSFontService', sans-serif"
         font-weight="300"
         font-size="16px"
         transform="translate(443.416,275)"
         id="text43">…,</text><text
         fill="#7d3368"
         font-family="'Calibri Light', 'Calibri Light_MSFontService', sans-serif"
         font-weight="300"
         font-size="16px"
         transform="translate(371.703,294)"
         id="text44">operand</text><text
         fill="#7d3368"
         font-family="'Calibri Light', 'Calibri Light_MSFontService', sans-serif"
         font-weight="300"
         font-size="11px"
         transform="translate(425.556,297)"
         id="text45">2j</text><text
         font-family="'Calibri Light', 'Calibri Light_MSFontService', sans-serif"
         font-weight="300"
         font-size="16px"
         transform="translate(435.723,294)"
         id="text46">,</text><text
         font-family="'Calibri Light', 'Calibri Light_MSFontService', sans-serif"
         font-weight="300"
         font-size="16px"
         transform="translate(443.223,294)"
         id="text47">... )</text><text
         font-family="'Calibri Light', 'Calibri Light_MSFontService', sans-serif"
         font-weight="300"
         font-size="15px"
         transform="translate(171.451,599)"
         id="text48">Intermediate State</text><text
         font-family="'Calibri Light', 'Calibri Light_MSFontService', sans-serif"
         font-weight="300"
         font-size="15px"
         transform="translate(171.451,558)"
         id="text49">Initial State</text><text
         font-family="'Calibri Light', 'Calibri Light_MSFontService', sans-serif"
         font-weight="300"
         font-size="15px"
         transform="translate(609.746,596)"
         id="text50">Failure</text><path
         d="m 123,594 c 0,-9.941 8.283,-18 18.5,-18 10.217,0 18.5,8.059 18.5,18 0,9.941 -8.283,18 -18.5,18 -10.217,0 -18.5,-8.059 -18.5,-18 z"
         fill="#f4f2f8"
         fill-rule="evenodd"
         id="path50" /><path
         d="m 123,553 c 0,-9.941 8.283,-18 18.5,-18 10.217,0 18.5,8.059 18.5,18 0,9.941 -8.283,18 -18.5,18 -10.217,0 -18.5,-8.059 -18.5,-18 z"
         fill="#e8effc"
         fill-rule="evenodd"
         id="path51" /><text
         font-family="'Calibri Light', 'Calibri Light_MSFontService', sans-serif"
         font-weight="300"
         font-size="15px"
         transform="translate(613.079,556)"
         id="text51">Final State</text><path
         d="m 561,551 c 0,-9.941 8.283,-18 18.5,-18 10.217,0 18.5,8.059 18.5,18 0,9.941 -8.283,18 -18.5,18 -10.217,0 -18.5,-8.059 -18.5,-18 z"
         fill="#dfdaea"
         fill-rule="evenodd"
         id="path52" /><path
         d="m 558.5,608.5 21.5,-34 21.5,34 z"
         stroke="#7d3368"
         stroke-width="0.666667"
         stroke-linejoin="round"
         stroke-miterlimit="10"
         fill="#dfdaea"
         fill-rule="evenodd"
         id="path53" /><rect
         x="572"
         y="259"
         width="52"
         height="25"
         fill="#ffffff"
         id="rect53" /><text
         font-family="'Calibri Light', 'Calibri Light_MSFontService', sans-serif"
         font-weight="300"
         font-size="24px"
         transform="translate(589.744,279)"
         id="text53">…</text><text
         font-family="'Calibri Light', 'Calibri Light_MSFontService', sans-serif"
         font-weight="300"
         font-size="16px"
         transform="translate(522.277,115)"
         id="text54">BF Security Weakness</text><text
         font-family="'Calibri Light', 'Calibri Light_MSFontService', sans-serif"
         font-weight="300"
         font-size="16px"
         transform="translate(831.65,247)"
         id="text55">Results in</text><text
         fill="#7d3368"
         font-family="'Calibri Light', 'Calibri Light_MSFontService', sans-serif"
         font-weight="300"
         font-size="16px"
         transform="translate(829.063,266)"
         id="text56">Final Error</text><text
         font-family="'Calibri Light', 'Calibri Light_MSFontService', sans-serif"
         font-weight="300"
         font-size="15px"
         transform="translate(122.377,481)"
         id="text57">Improper State</text><text
         font-family="'Calibri Light', 'Calibri Light_MSFontService', sans-serif"
         font-weight="300"
         font-size="15px"
         transform="translate(214.711,481)"
         id="text58">–</text><text
         font-family="'Calibri Light', 'Calibri Light_MSFontService', sans-serif"
         font-weight="300"
         font-size="15px"
         transform="translate(225.377,481)"
         id="text59">an</text><text
         font-family="'Calibri Light', 'Calibri Light_MSFontService', sans-serif"
         font-style="italic"
         font-weight="300"
         font-size="15px"
         transform="translate(243.211,481)"
         id="text60">(operation, operand</text><text
         font-family="'Calibri Light', 'Calibri Light_MSFontService', sans-serif"
         font-style="italic"
         font-weight="300"
         font-size="10px"
         transform="translate(361.211,484)"
         id="text61">1</text><text
         font-family="'Calibri Light', 'Calibri Light_MSFontService', sans-serif"
         font-style="italic"
         font-weight="300"
         font-size="15px"
         transform="translate(366.211,481)"
         id="text62">, …,</text><text
         font-family="'Calibri Light', 'Calibri Light_MSFontService', sans-serif"
         font-style="italic"
         font-weight="300"
         font-size="15px"
         transform="translate(390.211,481)"
         id="text63">operand</text><text
         font-family="'Calibri Light', 'Calibri Light_MSFontService', sans-serif"
         font-style="italic"
         font-weight="300"
         font-size="10px"
         transform="translate(439.544,484)"
         id="text64">n</text><text
         font-family="'Calibri Light', 'Calibri Light_MSFontService', sans-serif"
         font-style="italic"
         font-weight="300"
         font-size="15px"
         transform="translate(444.544,481)"
         id="text65">)</text><text
         font-family="'Calibri Light', 'Calibri Light_MSFontService', sans-serif"
         font-weight="300"
         font-size="15px"
         transform="translate(452.211,481)"
         id="text66">tuple with</text><text
         fill="#202124"
         font-family="'Calibri Light', 'Calibri Light_MSFontService', sans-serif"
         font-weight="300"
         font-size="15px"
         transform="translate(515.211,481)"
         id="text67">at least one</text><text
         font-family="'Calibri Light', 'Calibri Light_MSFontService', sans-serif"
         font-weight="300"
         font-size="15px"
         transform="translate(587.044,481)"
         id="text68">improper element</text><text
         font-family="'Cambria Math', 'Cambria Math_MSFontService', sans-serif"
         font-weight="400"
         font-size="19px"
         transform="translate(122.377,507)"
         id="text69">↷</text><text
         font-family="'Calibri Light', 'Calibri Light_MSFontService', sans-serif"
         font-weight="300"
         font-size="15px"
         transform="translate(144.211,507)"
         id="text70">Transition</text><text
         font-family="'Calibri Light', 'Calibri Light_MSFontService', sans-serif"
         font-weight="300"
         font-size="15px"
         transform="translate(206.377,507)"
         id="text71">–</text><text
         font-family="'Calibri Light', 'Calibri Light_MSFontService', sans-serif"
         font-weight="300"
         font-size="15px"
         transform="translate(217.044,507)"
         id="text72">Erroneous result</text><text
         font-family="'Calibri Light', 'Calibri Light_MSFontService', sans-serif"
         font-weight="300"
         font-size="15px"
         transform="translate(317.877,507)"
         id="text73">from the operation over the operands</text></g></g></svg>
