<?xml version="1.0" encoding="UTF-8" standalone="no"?>
<!-- Created with Inkscape (http://www.inkscape.org/) -->

<svg
   width="277.8125mm"
   height="166.95152mm"
   viewBox="0 0 277.8125 166.95152"
   version="1.1"
   id="svg1"
   inkscape:version="1.3.2 (091e20e, 2023-11-25, custom)"
   sodipodi:docname="DVL.svg"
   xmlns:inkscape="http://www.inkscape.org/namespaces/inkscape"
   xmlns:sodipodi="http://sodipodi.sourceforge.net/DTD/sodipodi-0.dtd"
   xmlns="http://www.w3.org/2000/svg"
   xmlns:svg="http://www.w3.org/2000/svg">
  <sodipodi:namedview
     id="namedview1"
     pagecolor="#ffffff"
     bordercolor="#000000"
     borderopacity="0.25"
     inkscape:showpageshadow="2"
     inkscape:pageopacity="0.0"
     inkscape:pagecheckerboard="0"
     inkscape:deskcolor="#d1d1d1"
     inkscape:document-units="mm"
     inkscape:zoom="1.0289025"
     inkscape:cx="286.22731"
     inkscape:cy="133.63754"
     inkscape:window-width="2560"
     inkscape:window-height="1377"
     inkscape:window-x="-8"
     inkscape:window-y="859"
     inkscape:window-maximized="1"
     inkscape:current-layer="layer1" />
  <defs
     id="defs1">
    <clipPath
       id="clip0">
      <rect
         x="356"
         y="415"
         width="3571"
         height="3658"
         id="rect1" />
    </clipPath>
    <clipPath
       id="clip0-0">
      <rect
         x="356"
         y="415"
         width="3571"
         height="3658"
         id="rect1-9" />
    </clipPath>
    <clipPath
       id="clip0-4">
      <rect
         x="356"
         y="415"
         width="4501"
         height="3658"
         id="rect1-5" />
    </clipPath>
  </defs>
  <g
     inkscape:label="Layer 1"
     inkscape:groupmode="layer"
     id="layer1"
     transform="translate(-245.93062,-499.47172)">
    <g
       transform="matrix(0.26458333,0,0,0.26458333,245.93062,497.13401)"
       id="g62">
      <text
         font-family="Calibri, Calibri_MSFontService, sans-serif"
         font-weight="400"
         font-size="19px"
         transform="translate(441.086,22)"
         id="text1">Bugs Framework (BF)</text>
      <text
         font-family="Calibri, Calibri_MSFontService, sans-serif"
         font-weight="400"
         font-size="16px"
         transform="translate(399.213,65)"
         id="text2">Input/Output Check (_INP) Class Type</text>
      <text
         fill="#660066"
         font-family="Calibri, Calibri_MSFontService, sans-serif"
         font-weight="400"
         font-size="16px"
         transform="translate(434.466,84)"
         id="text3">Data Validation (DVL) Class</text>
      <text
         font-family="Calibri, Calibri_MSFontService, sans-serif"
         font-weight="400"
         font-size="16px"
         transform="translate(148.645,115)"
         id="text4">Causes</text>
      <path
         d="M 0,143.667 C 0,137.224 5.22352,132 11.667,132 h 326.666 c 6.443,0 11.667,5.224 11.667,11.667 v 46.666 C 350,196.776 344.776,202 338.333,202 H 11.667 C 5.22352,202 0,196.776 0,190.333 Z"
         fill="#e8effc"
         fill-rule="evenodd"
         id="path4" />
      <text
         font-family="Calibri, Calibri_MSFontService, sans-serif"
         font-weight="400"
         font-size="16px"
         transform="translate(5.48231,152)"
         id="text5">Code Bug</text>
      <text
         fill="#660066"
         font-family="Calibri, Calibri_MSFontService, sans-serif"
         font-weight="400"
         font-size="16px"
         transform="translate(250.316,171)"
         id="text6">Missing Code</text>
      <text
         fill="#660066"
         font-family="Calibri, Calibri_MSFontService, sans-serif"
         font-weight="400"
         font-size="16px"
         transform="translate(233.242,190)"
         id="text7">Erroneous Code</text>
      <path
         d="M 0.0140301,-0.333038 10.7223,0.118078 l 4.9478,0.519287 4.4296,0.673515 3.7501,0.7981 2.9052,0.89433 c 0.0185,0.00572 0.0365,0.01303 0.0538,0.02187 l 1.8511,0.94837 c 0.0505,0.02586 0.0936,0.06418 0.1251,0.11132 L 29.44,5.064 30.0951,6.04312 29.97,5.9318 31.8212,6.88017 31.7674,6.8583 l 2.8764,0.88685 3.7021,0.7871 4.395,0.66802 4.9116,0.51579 4.0268,0.16899 -0.0281,0.66605 -4.0683,-0.172 L 42.6406,9.85936 38.207,9.18429 34.4474,8.38223 31.571,7.49537 C 31.5525,7.48966 31.5345,7.48234 31.5172,7.4735 L 29.666,6.52514 C 29.6156,6.49927 29.5725,6.46096 29.541,6.41382 L 28.8859,5.43469 28.2309,4.45556 28.356,4.56689 26.5048,3.61852 26.5586,3.64039 23.7109,2.76102 19.9994,1.96996 15.6004,1.30038 10.6943,0.784153 -0.0140301,0.333038 Z M 50.5014,6.16551 58.326,10.4987 50.1647,14.1584 Z"
         transform="matrix(1,0,0,-1,350.5,166.999)"
         id="path7" />
      <path
         d="M 0,228.667 C 0,222.224 5.22352,217 11.667,217 h 326.666 c 6.443,0 11.667,5.224 11.667,11.667 v 46.666 C 350,281.776 344.776,287 338.333,287 H 11.667 C 5.22352,287 0,281.776 0,275.333 Z"
         fill="#e8effc"
         fill-rule="evenodd"
         id="path8" />
      <text
         font-family="Calibri, Calibri_MSFontService, sans-serif"
         font-weight="400"
         font-size="16px"
         transform="translate(5.48231,237)"
         id="text8">Specification Bug</text>
      <text
         fill="#660066"
         font-family="Calibri, Calibri_MSFontService, sans-serif"
         font-weight="400"
         font-size="16px"
         transform="translate(182.082,256)"
         id="text9">Under</text>
      <text
         fill="#660066"
         font-family="Calibri, Calibri_MSFontService, sans-serif"
         font-weight="400"
         font-size="16px"
         transform="translate(222.582,256)"
         id="text10">-</text>
      <text
         fill="#660066"
         font-family="Calibri, Calibri_MSFontService, sans-serif"
         font-weight="400"
         font-size="16px"
         transform="translate(227.416,256)"
         id="text11">Restrictive Policy</text>
      <text
         fill="#660066"
         font-family="Calibri, Calibri_MSFontService, sans-serif"
         font-weight="400"
         font-size="16px"
         transform="translate(191.402,275)"
         id="text12">Over</text>
      <text
         fill="#660066"
         font-family="Calibri, Calibri_MSFontService, sans-serif"
         font-weight="400"
         font-size="16px"
         transform="translate(222.582,275)"
         id="text13">-</text>
      <text
         fill="#660066"
         font-family="Calibri, Calibri_MSFontService, sans-serif"
         font-weight="400"
         font-size="16px"
         transform="translate(227.416,275)"
         id="text14">Restrictive Policy</text>
      <path
         d="M 0.0332904,-0.331667 2.76376,-0.0576013 c 0.02067,0.0020753 0.04106,0.0060674 0.06099,0.0119446 L 5.53386,0.753215 c 0.01743,0.005141 0.0344,0.011693 0.05077,0.019603 l 2.66639,1.288692 2.64278,1.76672 2.5486,2.1875 2.435,2.57197 4.4424,6.1449 c 0.0097,0.0135 0.0184,0.0276 0.026,0.0424 l 3.7308,7.2306 2.8942,8.1113 1.8631,8.6722 0.6616,8.9555 0.655,8.91 1.8446,8.5847 2.8645,8.0284 3.7131,7.1897 -0.026,-0.0424 4.4143,6.1111 2.382,2.5144 2.492,2.1396 2.5706,1.7194 -0.0812,-0.0396 1.6883,0.5566 -0.2088,0.6331 -1.6882,-0.5566 C 50.0869,93.4835 50.0596,93.4702 50.0345,93.4534 L 47.4004,91.6857 44.8587,89.4986 42.4206,86.9165 38.0063,80.8054 C 37.9965,80.792 37.9878,80.7778 37.9802,80.7631 l -3.7485,-7.2716 -2.8884,-8.1124 -1.8577,-8.6756 -0.655,-8.91 -0.6485,-8.8646 -1.8392,-8.5882 -2.8587,-8.0294 -3.7309,-7.2306 0.0261,0.0423 L 15.3931,9.04579 13.0079,6.5213 10.5227,4.38208 7.96092,2.66175 5.29453,1.37306 5.3453,1.39266 2.63619,0.593788 2.69718,0.605732 -0.0332904,0.331667 Z M 51.7078,89.5215 l 6.6182,6.0166 -8.7842,1.6845 z"
         transform="matrix(1,0,0,-1,350.5,252.038)"
         id="path14" />
      <path
         d="M 0,320.667 C 0,310.358 8.35752,302 18.667,302 h 312.666 c 10.309,0 18.667,8.358 18.667,18.667 v 74.666 C 350,405.642 341.642,414 331.333,414 H 18.667 C 8.35752,414 0,405.642 0,395.333 Z"
         fill="#f4f2f8"
         fill-rule="evenodd"
         id="path15" />
      <text
         font-family="Calibri, Calibri_MSFontService, sans-serif"
         font-weight="400"
         font-size="16px"
         transform="translate(7.53228,324)"
         id="text15">Data Fault</text>
      <text
         fill="#660066"
         font-family="Calibri, Calibri_MSFontService, sans-serif"
         font-weight="400"
         font-size="16px"
         transform="translate(234.952,343)"
         id="text16">Corrupted Data</text>
      <text
         fill="#660066"
         font-family="Calibri, Calibri_MSFontService, sans-serif"
         font-weight="400"
         font-size="16px"
         transform="translate(236.006,362)"
         id="text17">Tampered Data</text>
      <text
         fill="#660066"
         font-family="Calibri, Calibri_MSFontService, sans-serif"
         font-weight="400"
         font-size="16px"
         transform="translate(193.439,382)"
         id="text18">Corrupted Policy Data</text>
      <text
         fill="#660066"
         font-family="Calibri, Calibri_MSFontService, sans-serif"
         font-weight="400"
         font-size="16px"
         transform="translate(194.492,401)"
         id="text19">Tampered Policy Data</text>
      <path
         d="M 0.0690601,-0.326101 2.79954,0.252147 C 2.83745,0.260175 2.87367,0.274753 2.90657,0.295222 L 5.61569,1.98075 C 5.63823,1.99477 5.65901,2.01144 5.6776,2.03039 l 2.6664,2.719 c 0.01245,0.01269 0.02386,0.02637 0.03413,0.04088 l 2.60237,3.67864 2.5366,4.59599 2.4224,5.4011 2.29,6.1345 2.1381,6.7955 1.9657,7.3839 1.7724,7.8991 1.5581,8.341 1.3227,8.7095 1.8532,18.225 0.6565,18.8215 0.6551,18.799 1.8496,18.187 1.3187,8.682 1.5537,8.318 1.7669,7.874 1.9584,7.357 2.1282,6.765 2.2763,6.098 2.4019,5.357 2.5046,4.539 2.5825,3.648 -0.0674,-0.071 2.2674,1.765 -0.4095,0.526 -2.2674,-1.765 c -0.0258,-0.02 -0.0485,-0.044 -0.0673,-0.07 l -2.6221,-3.711 -2.5291,-4.589 -2.4182,-5.396 -2.2876,-6.131 -2.1366,-6.794 -1.9646,-7.382 -1.7717,-7.898 -1.5576,-8.34 -1.3228,-8.715 L 29.485,119.598 28.83,100.799 28.1764,82.0219 26.3273,63.8296 25.0085,55.1424 23.4552,46.8249 21.689,38.9514 19.7317,31.5961 17.6049,24.8336 15.3311,18.7387 12.9333,13.3868 10.4362,8.85392 7.83388,5.17528 7.86801,5.21616 5.20161,2.49717 5.26351,2.5468 2.55439,0.861274 2.66142,0.904349 -0.0690601,0.326101 Z M 53.2503,194.21 l 5.0757,7.365 -8.9371,-0.358 z"
         transform="matrix(1,0,0,-1,350.5,358.075)"
         id="path19" />
      <text
         font-family="Calibri, Calibri_MSFontService, sans-serif"
         font-weight="400"
         font-size="16px"
         transform="translate(824.224,115)"
         id="text20">Consequences</text>
      <path
         d="m 700,140.167 c 0,-4.511 3.656,-8.167 8.167,-8.167 h 333.663 c 4.51,0 8.17,3.656 8.17,8.167 v 32.666 c 0,4.511 -3.66,8.167 -8.17,8.167 H 708.167 C 703.656,181 700,177.344 700,172.833 Z"
         fill="#f4f2f8"
         fill-rule="evenodd"
         id="path20" />
      <text
         font-family="Calibri, Calibri_MSFontService, sans-serif"
         font-weight="400"
         font-size="16px"
         transform="translate(704.37,151)"
         id="text21">Data Error</text>
      <text
         fill="#660066"
         font-family="Calibri, Calibri_MSFontService, sans-serif"
         font-weight="400"
         font-size="16px"
         transform="translate(961.71,170)"
         id="text22">Invalid Data</text>
      <path
         d="m 642.5,156.167 h 10.708 4.927 4.415 3.73 2.877 1.851 0.655 0.655 1.851 2.877 3.731 4.414 4.927 4.041 v 0.666 h -4.041 -4.927 -4.414 -3.731 -2.877 -1.851 -0.655 -0.655 -1.851 -2.877 -3.73 -4.415 -4.927 -10.708 z m 50.326,-3.667 8,4 -8,4 z"
         id="path22" />
      <path
         d="M 700,218.167 C 700,205.925 709.924,196 722.167,196 h 305.663 c 12.25,0 22.17,9.925 22.17,22.167 v 88.666 c 0,12.242 -9.92,22.167 -22.17,22.167 H 722.167 C 709.924,329 700,319.075 700,306.833 Z"
         fill="#dfdaea"
         fill-rule="evenodd"
         id="path23" />
      <text
         font-family="Calibri, Calibri_MSFontService, sans-serif"
         font-weight="400"
         font-size="16px"
         transform="translate(708.47,219)"
         id="text23">Injection Final Error</text>
      <text
         fill="#660066"
         font-family="Calibri, Calibri_MSFontService, sans-serif"
         font-weight="400"
         font-size="16px"
         transform="translate(933.39,238)"
         id="text24">Query Injection</text>
      <text
         fill="#660066"
         font-family="Calibri, Calibri_MSFontService, sans-serif"
         font-weight="400"
         font-size="16px"
         transform="translate(906.303,257)"
         id="text25">Command Injection</text>
      <text
         fill="#660066"
         font-family="Calibri, Calibri_MSFontService, sans-serif"
         font-weight="400"
         font-size="16px"
         transform="translate(892.036,277)"
         id="text26">Source Code Injection</text>
      <text
         fill="#660066"
         font-family="Calibri, Calibri_MSFontService, sans-serif"
         font-weight="400"
         font-size="16px"
         transform="translate(905.403,296)"
         id="text27">Parameter Injection</text>
      <text
         fill="#660066"
         font-family="Calibri, Calibri_MSFontService, sans-serif"
         font-weight="400"
         font-size="16px"
         transform="translate(950.636,315)"
         id="text28">File Injection</text>
      <path
         d="m 642.537,156.169 2.73,0.304 c 0.023,0.002 0.045,0.007 0.067,0.014 l 2.709,0.887 c 0.019,0.006 0.037,0.014 0.054,0.023 l 2.667,1.43 c 0.014,0.008 0.028,0.017 0.041,0.027 l 2.602,1.935 2.548,2.427 2.434,2.853 2.3,3.24 2.147,3.588 3.747,8.056 2.891,8.996 1.861,9.617 0.661,9.93 0.655,9.89 1.846,9.537 2.866,8.918 3.716,7.987 2.116,3.536 2.268,3.194 2.392,2.805 2.493,2.376 2.571,1.909 -0.083,-0.045 1.739,0.645 -0.232,0.625 -1.739,-0.645 c -0.029,-0.011 -0.057,-0.026 -0.083,-0.045 l -2.633,-1.961 -2.541,-2.426 -2.428,-2.852 -2.296,-3.238 -2.149,-3.597 -3.746,-8.064 -2.886,-8.996 -1.856,-9.619 -0.655,-9.89 -0.65,-9.847 -1.841,-9.54 -2.862,-8.919 -3.714,-7.995 -2.119,-3.544 -2.263,-3.193 -2.387,-2.803 -2.486,-2.375 -2.602,-1.935 0.041,0.026 -2.666,-1.43 0.054,0.023 -2.709,-0.887 0.067,0.015 -2.731,-0.305 z m 51.834,100.176 6.455,6.192 -8.826,1.449 z"
         id="path28" />
      <text
         font-family="Calibri, Calibri_MSFontService, sans-serif"
         font-weight="400"
         font-size="16px"
         transform="translate(485.254,115)"
         id="text29">Operations</text>
      <rect
         x="408.5"
         y="132.5"
         width="234"
         height="49"
         stroke="#000000"
         stroke-width="0.666667"
         stroke-linejoin="round"
         stroke-miterlimit="10"
         fill="none"
         id="rect29" />
      <text
         fill="#660066"
         font-family="Calibri, Calibri_MSFontService, sans-serif"
         font-weight="400"
         font-size="16px"
         transform="translate(495.124,152)"
         id="text30">Validate</text>
      <text
         fill="#660066"
         font-family="Calibri, Calibri_MSFontService, sans-serif"
         font-weight="400"
         font-size="16px"
         transform="translate(496.197,171)"
         id="text31">Sanitize</text>
      <text
         font-family="Calibri, Calibri_MSFontService, sans-serif"
         font-weight="400"
         font-size="16px"
         transform="translate(489.764,216)"
         id="text32">Operands</text>
      <rect
         x="408.5"
         y="233.5"
         width="234"
         height="27"
         stroke="#000000"
         stroke-width="0.666667"
         stroke-linejoin="round"
         stroke-miterlimit="10"
         fill="none"
         id="rect32" />
      <text
         fill="#660066"
         font-family="Calibri, Calibri_MSFontService, sans-serif"
         font-weight="400"
         font-size="16px"
         transform="translate(506.104,253)"
         id="text33">Data</text>
      <text
         fill="#7f7f7f"
         font-family="Calibri, Calibri_MSFontService, sans-serif"
         font-weight="400"
         font-size="13px"
         transform="translate(960.6,433)"
         id="text34">BF, I. Bojanova</text>
      <text
         font-family="Calibri, Calibri_MSFontService, sans-serif"
         font-weight="400"
         font-size="16px"
         transform="translate(488.838,449)"
         id="text35">Attributes</text>
      <text
         font-family="Calibri, Calibri_MSFontService, sans-serif"
         font-weight="400"
         font-size="16px"
         transform="translate(2.09974,486)"
         id="text36">Mechanism</text>
      <text
         fill="#660066"
         font-family="Calibri, Calibri_MSFontService, sans-serif"
         font-weight="400"
         font-size="16px"
         transform="translate(2.09974,505)"
         id="text37">Safelist</text>
      <text
         fill="#660066"
         font-family="Calibri, Calibri_MSFontService, sans-serif"
         font-weight="400"
         font-size="16px"
         transform="translate(2.09974,524)"
         id="text38">Denylist</text>
      <text
         fill="#660066"
         font-family="Calibri, Calibri_MSFontService, sans-serif"
         font-weight="400"
         font-size="16px"
         transform="translate(2.09974,544)"
         id="text39">Format</text>
      <text
         fill="#660066"
         font-family="Calibri, Calibri_MSFontService, sans-serif"
         font-weight="400"
         font-size="16px"
         transform="translate(2.09974,563)"
         id="text40">Length</text>
      <text
         font-family="Calibri, Calibri_MSFontService, sans-serif"
         font-weight="400"
         font-size="16px"
         transform="translate(269.816,486)"
         id="text41">Source Code</text>
      <text
         fill="#660066"
         font-family="Calibri, Calibri_MSFontService, sans-serif"
         font-weight="400"
         font-size="16px"
         transform="translate(269.816,505)"
         id="text42">Codebase</text>
      <text
         fill="#660066"
         font-family="Calibri, Calibri_MSFontService, sans-serif"
         font-weight="400"
         font-size="16px"
         transform="translate(269.816,524)"
         id="text43">Third</text>
      <text
         fill="#660066"
         font-family="Calibri, Calibri_MSFontService, sans-serif"
         font-weight="400"
         font-size="16px"
         transform="translate(303.263,524)"
         id="text44">-</text>
      <text
         fill="#660066"
         font-family="Calibri, Calibri_MSFontService, sans-serif"
         font-weight="400"
         font-size="16px"
         transform="translate(308.096,524)"
         id="text45">Party</text>
      <text
         fill="#660066"
         font-family="Calibri, Calibri_MSFontService, sans-serif"
         font-weight="400"
         font-size="16px"
         transform="translate(269.816,544)"
         id="text46">Standard Library</text>
      <text
         fill="#660066"
         font-family="Calibri, Calibri_MSFontService, sans-serif"
         font-weight="400"
         font-size="16px"
         transform="translate(269.816,563)"
         id="text47">Compiler/Interpreter</text>
      <text
         font-family="Calibri, Calibri_MSFontService, sans-serif"
         font-weight="400"
         font-size="16px"
         transform="translate(537.533,486)"
         id="text48">Execution Space</text>
      <text
         fill="#660066"
         font-family="Calibri, Calibri_MSFontService, sans-serif"
         font-weight="400"
         font-size="16px"
         transform="translate(537.533,505)"
         id="text49">Local</text>
      <text
         fill="#660066"
         font-family="Calibri, Calibri_MSFontService, sans-serif"
         font-weight="400"
         font-size="16px"
         transform="translate(537.533,524)"
         id="text50">Admin</text>
      <text
         fill="#660066"
         font-family="Calibri, Calibri_MSFontService, sans-serif"
         font-weight="400"
         font-size="16px"
         transform="translate(537.533,544)"
         id="text51">Bare</text>
      <text
         fill="#660066"
         font-family="Calibri, Calibri_MSFontService, sans-serif"
         font-weight="400"
         font-size="16px"
         transform="translate(567.153,544)"
         id="text52">-</text>
      <text
         fill="#660066"
         font-family="Calibri, Calibri_MSFontService, sans-serif"
         font-weight="400"
         font-size="16px"
         transform="translate(571.986,544)"
         id="text53">Metal</text>
      <text
         font-family="Calibri, Calibri_MSFontService, sans-serif"
         font-weight="400"
         font-size="16px"
         transform="translate(805.249,486)"
         id="text54">Data State</text>
      <text
         fill="#660066"
         font-family="Calibri, Calibri_MSFontService, sans-serif"
         font-weight="400"
         font-size="16px"
         transform="translate(805.249,505)"
         id="text55">Entered</text>
      <text
         fill="#660066"
         font-family="Calibri, Calibri_MSFontService, sans-serif"
         font-weight="400"
         font-size="16px"
         transform="translate(805.249,524)"
         id="text56">Stored</text>
      <text
         fill="#660066"
         font-family="Calibri, Calibri_MSFontService, sans-serif"
         font-weight="400"
         font-size="16px"
         transform="translate(805.249,544)"
         id="text57">In Use</text>
      <text
         fill="#660066"
         font-family="Calibri, Calibri_MSFontService, sans-serif"
         font-weight="400"
         font-size="16px"
         transform="translate(805.249,563)"
         id="text58">Transferred</text>
      <path
         d="M 0,616.5 C 0,614.015 2.01475,612 4.50007,612 H 37.4999 C 39.9852,612 42,614.015 42,616.5 v 18 c 0,2.485 -2.0148,4.5 -4.5001,4.5 H 4.50007 C 2.01475,639 0,636.985 0,634.5 Z"
         fill="#e8effc"
         fill-rule="evenodd"
         id="path58" />
      <text
         font-family="Calibri, Calibri_MSFontService, sans-serif"
         font-weight="400"
         font-size="16px"
         transform="translate(44.0945,632)"
         id="text59">Bug</text>
      <path
         d="m 262,616.5 c 0,-2.485 2.015,-4.5 4.5,-4.5 h 33 c 2.485,0 4.5,2.015 4.5,4.5 v 18 c 0,2.485 -2.015,4.5 -4.5,4.5 h -33 c -2.485,0 -4.5,-2.015 -4.5,-4.5 z"
         fill="#f4f2f8"
         fill-rule="evenodd"
         id="path59" />
      <text
         font-family="Calibri, Calibri_MSFontService, sans-serif"
         font-weight="400"
         font-size="16px"
         transform="translate(306.562,632)"
         id="text60">Fault/Error</text>
      <path
         d="m 525,616.5 c 0,-2.485 2.015,-4.5 4.5,-4.5 h 33 c 2.485,0 4.5,2.015 4.5,4.5 v 18 c 0,2.485 -2.015,4.5 -4.5,4.5 h -33 c -2.485,0 -4.5,-2.015 -4.5,-4.5 z"
         fill="#dfdaea"
         fill-rule="evenodd"
         id="path60" />
      <text
         font-family="Calibri, Calibri_MSFontService, sans-serif"
         font-weight="400"
         font-size="16px"
         transform="translate(569.029,632)"
         id="text61">Final Error</text>
      <rect
         x="787.5"
         y="612.5"
         width="42"
         height="27"
         stroke="#000000"
         stroke-width="0.666667"
         stroke-linejoin="round"
         stroke-miterlimit="10"
         fill="none"
         id="rect61" />
      <text
         font-family="Calibri, Calibri_MSFontService, sans-serif"
         font-weight="400"
         font-size="16px"
         transform="translate(831.496,632)"
         id="text62">Operation/Operand</text>
    </g>
  </g>
</svg>
