<?xml version="1.0" encoding="UTF-8" standalone="no"?>
<!-- Created with Inkscape (http://www.inkscape.org/) -->

<svg
   width="225.64548mm"
   height="114.36065mm"
   viewBox="0 0 225.64548 114.36065"
   version="1.1"
   id="svg1"
   xml:space="preserve"
   sodipodi:docname="Heartbleed Chains.svg"
   inkscape:version="1.3 (0e150ed6c4, 2023-07-21)"
   xmlns:inkscape="http://www.inkscape.org/namespaces/inkscape"
   xmlns:sodipodi="http://sodipodi.sourceforge.net/DTD/sodipodi-0.dtd"
   xmlns="http://www.w3.org/2000/svg"
   xmlns:svg="http://www.w3.org/2000/svg"><sodipodi:namedview
     id="namedview1"
     pagecolor="#ffffff"
     bordercolor="#000000"
     borderopacity="0.25"
     inkscape:showpageshadow="2"
     inkscape:pageopacity="0.0"
     inkscape:pagecheckerboard="0"
     inkscape:deskcolor="#d1d1d1"
     inkscape:document-units="mm"
     inkscape:zoom="1.7041198"
     inkscape:cx="467.69012"
     inkscape:cy="303.67583"
     inkscape:window-width="2560"
     inkscape:window-height="1377"
     inkscape:window-x="-8"
     inkscape:window-y="859"
     inkscape:window-maximized="1"
     inkscape:current-layer="layer1" /><defs
     id="defs1"><clipPath
       clipPathUnits="userSpaceOnUse"
       id="clipPath594"><path
         d="M 0,0 H 717 V 334 H 0 Z"
         id="path592" /></clipPath><clipPath
       id="clip0"><rect
         x="104"
         y="143"
         width="985"
         height="489"
         id="rect685" /></clipPath><clipPath
       id="clip0-9"><rect
         x="122"
         y="272"
         width="912"
         height="352"
         id="rect908" /></clipPath><clipPath
       id="clip0-4"><rect
         x="122"
         y="272"
         width="912"
         height="317"
         id="rect1246" /></clipPath><clipPath
       id="clip0-7"><rect
         x="122"
         y="272"
         width="928"
         height="352"
         id="rect1" /></clipPath><clipPath
       id="clip0-6"><rect
         x="122"
         y="272"
         width="926"
         height="321"
         id="rect1-5" /></clipPath><clipPath
       id="clip0-0"><rect
         x="122"
         y="272"
         width="919"
         height="321"
         id="rect1-4" /></clipPath><clipPath
       id="clip0-90"><rect
         x="121"
         y="270"
         width="913"
         height="355"
         id="rect1-7" /></clipPath><clipPath
       id="clip0-60"><rect
         x="121"
         y="270"
         width="913"
         height="301"
         id="rect1-3" /></clipPath><clipPath
       id="clip0-07"><rect
         x="352"
         y="301"
         width="378"
         height="504"
         id="rect1-8" /></clipPath><clipPath
       id="clip0-98"><rect
         x="121"
         y="270"
         width="913"
         height="301"
         id="rect1-87" /></clipPath><clipPath
       id="clip0-3"><rect
         x="121"
         y="270"
         width="920"
         height="293"
         id="rect1-876" /></clipPath><clipPath
       id="clip0-5"><rect
         x="95"
         y="267"
         width="896"
         height="547"
         id="rect1-2" /></clipPath><clipPath
       id="clip0-63"><rect
         x="95"
         y="267"
         width="864"
         height="433"
         id="rect1-21" /></clipPath><clipPath
       id="clip0-1"><rect
         x="33"
         y="-1"
         width="1182"
         height="611"
         id="rect1-50" /></clipPath><clipPath
       id="clip0-52"><rect
         x="320"
         y="-1"
         width="728"
         height="559"
         id="rect1-9" /></clipPath><clipPath
       id="clip0-68"><rect
         x="320"
         y="-1"
         width="728"
         height="544"
         id="rect1-97" /></clipPath><clipPath
       id="clip0-10"><rect
         x="320"
         y="39"
         width="728"
         height="504"
         id="rect1-6" /></clipPath><clipPath
       id="clip0-37"><rect
         x="270"
         y="350"
         width="728"
         height="440"
         id="rect1-51" /></clipPath><clipPath
       id="clip0-41"><rect
         x="270"
         y="318"
         width="728"
         height="472"
         id="rect1-57" /></clipPath><clipPath
       id="clip0-50"><rect
         x="320"
         y="39"
         width="728"
         height="504"
         id="rect1-98" /></clipPath><clipPath
       id="clip0-48"><rect
         x="320"
         y="71"
         width="728"
         height="472"
         id="rect1-0" /></clipPath><clipPath
       id="clip0-02"><rect
         x="320"
         y="39"
         width="728"
         height="504"
         id="rect1-09" /></clipPath><clipPath
       id="clip0-59"><rect
         x="320"
         y="71"
         width="728"
         height="472"
         id="rect1-04" /></clipPath><clipPath
       id="clip0-16"><rect
         x="320"
         y="71"
         width="728"
         height="472"
         id="rect1-35" /></clipPath><clipPath
       id="clip0-8"><rect
         x="121"
         y="270"
         width="913"
         height="278"
         id="rect1-54" /></clipPath><clipPath
       id="clip0-76"><rect
         x="121"
         y="270"
         width="913"
         height="278"
         id="rect1-06" /></clipPath><clipPath
       id="clip0-106"><rect
         x="121"
         y="270"
         width="913"
         height="278"
         id="rect1-874" /></clipPath><clipPath
       id="clip0-94"><rect
         x="348"
         y="312"
         width="382"
         height="449"
         id="rect1-25" /></clipPath><clipPath
       id="clip0-64"><rect
         x="121"
         y="270"
         width="913"
         height="278"
         id="rect1-62" /></clipPath><clipPath
       id="clip0-47"><rect
         x="95"
         y="267"
         width="896"
         height="547"
         id="rect1-63" /></clipPath><clipPath
       id="clip0-71"><rect
         x="146"
         y="266"
         width="857"
         height="282"
         id="rect1-92" /></clipPath><clipPath
       id="clip0-57"><rect
         x="177"
         y="266"
         width="747"
         height="385"
         id="rect1-22" /></clipPath><clipPath
       id="clip0-102"><rect
         x="186"
         y="271"
         width="702"
         height="380"
         id="rect1-926" /></clipPath><clipPath
       id="clip0-77"><rect
         x="186"
         y="271"
         width="702"
         height="380"
         id="rect1-224" /></clipPath><clipPath
       id="clip0-482"><rect
         x="186"
         y="274"
         width="661"
         height="377"
         id="rect1-08" /></clipPath><clipPath
       id="clip0-04"><rect
         x="167"
         y="266"
         width="819"
         height="282"
         id="rect1-34" /></clipPath><clipPath
       id="clip0-56"><rect
         x="163"
         y="265"
         width="799"
         height="282"
         id="rect1-47" /></clipPath><clipPath
       id="clip0-2"><rect
         x="351"
         y="273"
         width="638"
         height="472"
         id="rect1-1" /></clipPath><clipPath
       id="clip0-93"><rect
         x="351"
         y="241"
         width="638"
         height="504"
         id="rect1-77" /></clipPath><clipPath
       id="clip0-49"><rect
         x="351"
         y="241"
         width="638"
         height="504"
         id="rect1-981" /></clipPath><clipPath
       id="clip0-31"><rect
         x="193"
         y="272"
         width="654"
         height="379"
         id="rect1-05" /></clipPath><clipPath
       id="clip0-938"><rect
         x="193"
         y="272"
         width="654"
         height="379"
         id="rect1-12" /></clipPath><clipPath
       id="clip0-85"><rect
         x="163"
         y="265"
         width="805"
         height="282"
         id="rect1-257" /></clipPath><clipPath
       id="clip0-83"><rect
         x="193"
         y="272"
         width="641"
         height="380"
         id="rect1-068" /></clipPath><clipPath
       id="clip0-44"><rect
         x="163"
         y="265"
         width="805"
         height="282"
         id="rect1-923" /></clipPath><clipPath
       id="clip0-412"><rect
         x="193"
         y="272"
         width="641"
         height="380"
         id="rect1-49" /></clipPath><clipPath
       id="clip0-483"><rect
         x="351"
         y="241"
         width="639"
         height="458"
         id="rect1-357" /></clipPath><clipPath
       id="clip0-32"><rect
         x="351"
         y="241"
         width="639"
         height="458"
         id="rect1-15" /></clipPath><clipPath
       id="clip0-045"><rect
         x="163"
         y="265"
         width="805"
         height="282"
         id="rect1-01" /></clipPath><clipPath
       id="clip0-97"><rect
         x="216"
         y="229"
         width="621"
         height="318"
         id="rect1-03" /></clipPath><clipPath
       id="clip0-87"><rect
         x="216"
         y="229"
         width="621"
         height="318"
         id="rect1-66" /></clipPath><clipPath
       id="clip0-26"><rect
         x="-19"
         y="165"
         width="814"
         height="597"
         id="rect1-73" /></clipPath><clipPath
       id="clip0-89"><rect
         x="77"
         y="89"
         width="762"
         height="777"
         id="rect1-40" /></clipPath><clipPath
       id="clip0-91"><rect
         x="216"
         y="229"
         width="621"
         height="318"
         id="rect1-229" /></clipPath><clipPath
       id="clip0-569"><rect
         x="77"
         y="89"
         width="762"
         height="777"
         id="rect1-639" /></clipPath><clipPath
       id="clip0-15"><rect
         x="78"
         y="188"
         width="853"
         height="609"
         id="rect1-215" /></clipPath><clipPath
       id="clip0-06"><rect
         x="254"
         y="1081"
         width="539"
         height="418"
         id="rect1-342" /></clipPath><clipPath
       id="clip0-30"><rect
         x="351"
         y="241"
         width="639"
         height="458"
         id="rect1-42" /></clipPath><clipPath
       id="clip0-12"><rect
         x="78"
         y="188"
         width="853"
         height="609"
         id="rect1-02" /></clipPath><clipPath
       id="clip0-79"><rect
         x="83"
         y="188"
         width="846"
         height="539"
         id="rect1-778" /></clipPath><clipPath
       id="clip0-73"><rect
         x="83"
         y="194"
         width="846"
         height="533"
         id="rect1-52" /></clipPath><clipPath
       id="clip0-23"><rect
         x="194"
         y="23"
         width="771"
         height="791"
         id="rect1-150" /></clipPath><clipPath
       id="clip0-39"><rect
         x="194"
         y="48"
         width="771"
         height="766"
         id="rect1-025" /></clipPath><clipPath
       id="clip0-419"><rect
         x="194"
         y="48"
         width="771"
         height="766"
         id="rect1-779" /></clipPath><clipPath
       id="clip0-906"><rect
         x="214"
         y="227"
         width="675"
         height="300"
         id="rect1-59" /></clipPath><clipPath
       id="clip0-078"><rect
         x="77"
         y="118"
         width="763"
         height="748"
         id="rect1-88" /></clipPath><clipPath
       id="clip0-042"><rect
         x="-21"
         y="196"
         width="816"
         height="562"
         id="rect1-501" /></clipPath><clipPath
       id="clip0-604"><rect
         x="783"
         y="154"
         width="601"
         height="303"
         id="rect1-504" /></clipPath><clipPath
       id="clip0-38"><rect
         x="82"
         y="118"
         width="758"
         height="748"
         id="rect1-032" /></clipPath><clipPath
       id="clip0-25"><rect
         x="214"
         y="227"
         width="675"
         height="300"
         id="rect1-64" /></clipPath><clipPath
       id="clip0-65"><rect
         x="18"
         y="-1"
         width="1173"
         height="1915"
         id="rect1-36" /></clipPath><clipPath
       id="clip0-711"><rect
         x="95"
         y="267"
         width="856"
         height="440"
         id="rect1-10" /></clipPath><clipPath
       id="clip0-84"><rect
         x="121"
         y="270"
         width="913"
         height="285"
         id="rect1-89" /></clipPath><clipPath
       id="clip0-09"><rect
         x="121"
         y="270"
         width="913"
         height="285"
         id="rect1-56" /></clipPath><clipPath
       id="clip0-126"><rect
         x="95"
         y="267"
         width="856"
         height="440"
         id="rect1-122" /></clipPath></defs><g
     inkscape:label="Layer 1"
     inkscape:groupmode="layer"
     id="layer1"
     transform="translate(-44.378726,-93.610424)"><g
       clip-path="url(#clip0-126)"
       transform="matrix(0.26458333,0,0,0.26458333,18.44956,22.80684)"
       id="g47"><path
         d="m 510,631.5 c 0,-37.279 32.235,-67.5 72,-67.5 39.764,0 72,30.221 72,67.5 0,37.279 -32.236,67.5 -72,67.5 -39.765,0 -72,-30.221 -72,-67.5 z"
         fill="#dfdaea"
         fill-rule="evenodd"
         id="path1" /><path
         d="m 98,383 c 0,-37.003 32.235,-67 72,-67 39.764,0 72,29.997 72,67 0,37.003 -32.236,67 -72,67 -39.765,0 -72,-29.997 -72,-67 z"
         fill="#e8effc"
         fill-rule="evenodd"
         id="path2" /><text
         font-family="'Calibri Light', 'Calibri Light_MSFontService', sans-serif"
         font-weight="300"
         font-size="15px"
         transform="translate(157.232,370)"
         id="text2">DVR</text><text
         font-family="'Calibri Light', 'Calibri Light_MSFontService', sans-serif"
         font-weight="300"
         font-size="15px"
         transform="translate(104.152,387)"
         id="text3">(</text><text
         fill="#7d3368"
         font-family="'Calibri Light', 'Calibri Light_MSFontService', sans-serif"
         font-weight="300"
         font-size="15px"
         transform="translate(108.485,387)"
         id="text4">Verify: Missing Code</text><text
         font-family="'Calibri Light', 'Calibri Light_MSFontService', sans-serif"
         font-weight="300"
         font-size="15px"
         transform="translate(228.152,387)"
         id="text5">,</text><text
         font-family="'Calibri Light', 'Calibri Light_MSFontService', sans-serif"
         font-weight="300"
         font-size="15px"
         transform="translate(153.819,405)"
         id="text6">Data)</text><path
         d="m 0.0452396,0.330249 -4.5624996,0.625 0.08297,-0.022557 -4.5,1.874998 0.05579,-0.02974 -4.4375,2.9375 0.0427,-0.03356 -4.3125,4 0.0289,-0.03037 -4.1875,4.99998 0.0199,-0.0264 -4,5.875 0.0141,-0.0225 -3.8125,6.6875 0.011,-0.0211 -3.5625,7.4375 0.0082,-0.0185 -3.25,8 0.0067,-0.018 -2.9375,8.625 0.0048,-0.0153 -2.625,9.125 0.0045,-0.0174 -2.1875,9.5 0.003,-0.0143 -1.8125,9.8125 0.0027,-0.0174 -1.3125,10.0625 0.0018,-0.0168 -0.8125,10.25 9e-4,-0.0182 -0.25,10.3124 v -0.016 l 0.25,10.312 -9e-4,-0.018 0.8125,10.25 -0.0018,-0.017 1.3125,10.063 -0.0027,-0.018 1.8125,9.813 -0.003,-0.014 2.1875,9.5 -0.0045,-0.018 2.625,9.125 -0.0048,-0.015 2.9375,8.625 -0.0063,-0.017 3.25,8.062 -0.009,-0.02 3.5625,7.375 -0.0106,-0.02 3.8125,6.687 -0.0131,-0.021 4,5.938 -0.0223,-0.03 4.1875,4.938 -0.0274,-0.029 4.375,4.063 -0.0428,-0.034 4.4375,2.938 -0.07938,-0.039 2.58729,0.855 -0.20923,0.633 -2.62956,-0.869 -4.49742,-2.977 -4.4096,-4.095 -4.2122,-4.966 -4.0173,-5.964 -3.8243,-6.708 -3.5723,-7.395 -3.2576,-8.081 -2.943,-8.642 -2.6297,-9.141 -2.1912,-9.516 -1.8154,-9.828 -1.3147,-10.08 -0.8139,-10.267 -0.2504,-10.33 0.2504,-10.3297 0.8139,-10.2676 1.3147,-10.0796 1.8154,-9.8283 2.1912,-9.5158 2.6297,-9.1414 2.9432,-8.6417 3.2574,-8.0183 3.572,-7.4573 3.825,-6.7094 4.0168,-5.8997 4.2116,-5.02882 4.3479,-4.0328 4.48668,-2.97006 4.56933,-1.903886 4.6054504,-0.630883 z M -6.75731,214.465 l 6.8203021,5.787 -8.7213721,1.984 z"
         transform="matrix(0,1,1,0,393.5,316.5)"
         id="path6" /><path
         d="m 0.0458561,0.330164 -4.4999961,0.625 0.08235,-0.022472 -4.5,1.874998 0.05848,-0.03154 -4.43749,3 0.0419,-0.03352 -4.3125,4.0625 0.0283,-0.03017 -4.1875,5.06254 0.0205,-0.0276 -4,6 0.0128,-0.021 -3.8125,6.75 0.0109,-0.0209 -3.5625,7.5 0.0087,-0.02 -3.25,8.1875 0.006,-0.0162 -2.9375,8.6875 0.0054,-0.0178 -2.5625,9.25 0.0038,-0.0151 -2.1875,9.625 0.0029,-0.0141 -1.8125,9.9375 0.0027,-0.0172 -1.3125,10.1875 0.0017,-0.0166 -0.8125,10.375 9e-4,-0.018 -0.25,10.437 v -0.015 l 0.25,10.437 -9e-4,-0.018 0.8125,10.375 -0.0017,-0.017 1.3125,10.188 -0.0027,-0.017 1.8125,9.937 -0.0029,-0.014 2.1875,9.625 -0.0039,-0.016 2.5625,9.188 -0.0051,-0.017 2.9375,8.75 -0.007,-0.019 3.3125,8.188 -0.0074,-0.017 3.5,7.438 -0.0107,-0.021 3.8125,6.812 -0.0144,-0.023 4,5.937 -0.0196,-0.026 4.1875,5.063 -0.0283,-0.031 4.3125,4.063 -0.0419,-0.034 4.43749,3 -0.08164,-0.04 2.59133,0.861 -0.21011,0.632 -2.63491,-0.875 -4.49786,-3.04 -4.3471,-4.096 -4.2112,-5.091 -4.0168,-5.962 -3.825,-6.835 -3.5089,-7.456 -3.3198,-8.206 -2.9435,-8.768 -2.5669,-9.203 -2.1909,-9.64 -1.8154,-9.953 -1.3147,-10.205 -0.8138,-10.392 -0.2504,-10.455 0.2504,-10.454 0.8138,-10.3923 1.3147,-10.2044 1.8154,-9.9532 2.1908,-9.6396 2.5671,-9.2665 2.9432,-8.7045 3.2572,-8.2056 3.5723,-7.5206 3.8243,-6.771 4.0164,-6.0245 4.2117,-5.09172 4.3471,-4.09516 4.48747,-3.03377 4.57055,-1.904394 4.5426239,-0.63092 z M -6.74266,217.22 l 6.8056521,5.804 -8.7263621,1.962 z"
         transform="matrix(0,1,1,0,170.5,316.5)"
         id="path7" /><path
         d="m 321,383 c 0,-37.003 32.236,-67 72,-67 39.764,0 72,29.997 72,67 0,37.003 -32.236,67 -72,67 -39.764,0 -72,-29.997 -72,-67 z"
         fill="#f4f2f8"
         fill-rule="evenodd"
         id="path8" /><text
         font-family="'Calibri Light', 'Calibri Light_MSFontService', sans-serif"
         font-weight="300"
         font-size="15px"
         transform="translate(377.93,362)"
         id="text8">MAD</text><text
         font-family="'Calibri Light', 'Calibri Light_MSFontService', sans-serif"
         font-weight="300"
         font-size="15px"
         transform="translate(355.763,379)"
         id="text9">(Reposition,</text><text
         fill="#7d3368"
         font-family="'Calibri Light', 'Calibri Light_MSFontService', sans-serif"
         font-weight="300"
         font-size="15px"
         transform="translate(338.77,397)"
         id="text10">Data: Wrong Size</text><text
         font-family="'Calibri Light', 'Calibri Light_MSFontService', sans-serif"
         font-weight="300"
         font-size="15px"
         transform="translate(439.603,397)"
         id="text11">,</text><text
         font-family="'Calibri Light', 'Calibri Light_MSFontService', sans-serif"
         font-weight="300"
         font-size="15px"
         transform="translate(334.27,415)"
         id="text12">Type, Address, Size)</text><text
         fill="#7d3368"
         font-family="'Calibri Light', 'Calibri Light_MSFontService', sans-serif"
         font-weight="300"
         font-size="15px"
         transform="translate(253.629,293)"
         id="text13">Inconsistent</text><text
         fill="#7d3368"
         font-family="'Calibri Light', 'Calibri Light_MSFontService', sans-serif"
         font-weight="300"
         font-size="15px"
         transform="translate(272.962,310)"
         id="text14">Value</text><path
         d="m 496,632 c 0,-37.003 32.235,-67 72,-67 39.764,0 72,29.997 72,67 0,37.003 -32.236,67 -72,67 -39.765,0 -72,-29.997 -72,-67 z"
         fill="#e8effc"
         fill-rule="evenodd"
         id="path14" /><text
         font-family="'Calibri Light', 'Calibri Light_MSFontService', sans-serif"
         font-weight="300"
         font-size="15px"
         transform="translate(553.833,611)"
         id="text15">MUS</text><text
         font-family="'Calibri Light', 'Calibri Light_MSFontService', sans-serif"
         font-weight="300"
         font-size="15px"
         transform="translate(504.667,628)"
         id="text16">(</text><text
         fill="#7d3368"
         font-family="'Calibri Light', 'Calibri Light_MSFontService', sans-serif"
         font-weight="300"
         font-size="15px"
         transform="translate(509,628)"
         id="text17">Clear: Missing Code</text><text
         font-family="'Calibri Light', 'Calibri Light_MSFontService', sans-serif"
         font-weight="300"
         font-size="15px"
         transform="translate(624.333,628)"
         id="text18">,</text><text
         font-family="'Calibri Light', 'Calibri Light_MSFontService', sans-serif"
         font-weight="300"
         font-size="15px"
         transform="translate(533.08,646)"
         id="text19">Data, Type,</text><text
         font-family="'Calibri Light', 'Calibri Light_MSFontService', sans-serif"
         font-weight="300"
         font-size="15px"
         transform="translate(527.333,664)"
         id="text20">Address, Size)</text><path
         d="m 568.17,565.045 0.63,-4.73 1.903,-4.693 2.97,-4.612 4.094,-4.473 5.028,-4.336 5.9,-4.143 6.71,-3.888 7.458,-3.698 8.08,-3.32 8.643,-3.068 9.142,-2.63 9.578,-2.254 9.829,-1.878 10.143,-1.315 10.266,-0.814 10.321,-0.312 h -0.008 l 10.312,-0.563 -0.03,0.003 10.25,-1.5 -0.031,0.007 10.125,-2.5 -0.031,0.009 9.813,-3.438 -0.024,0.009 9.563,-4.187 -0.026,0.013 9.063,-4.938 -0.022,0.013 8.687,-5.625 -0.023,0.016 8.063,-6.25 -0.021,0.018 7.375,-6.75 -0.02,0.02 6.688,-7.25 -0.02,0.023 5.875,-7.687 -0.018,0.026 5,-8 -0.017,0.03 4.063,-8.313 -0.016,0.037 2.938,-8.437 -0.011,0.039 1.875,-8.625 -0.007,0.047 0.142,-2.002 0.665,0.048 -0.144,2.025 -1.884,8.668 -2.951,8.475 -4.079,8.346 -5.017,8.028 -5.894,7.712 -6.707,7.272 -7.396,6.769 -8.084,6.267 -8.71,5.639 -9.087,4.951 -9.587,4.198 -9.839,3.447 -10.156,2.508 -10.281,1.504 -10.332,0.564 -10.316,0.312 h 0.016 l -10.25,0.812 0.016,-0.002 -10.125,1.313 0.02,-0.003 -9.812,1.875 0.013,-0.003 -9.562,2.25 0.016,-0.004 -9.125,2.625 0.019,-0.007 -8.625,3.063 0.015,-0.006 -8.062,3.313 0.021,-0.01 -7.437,3.687 0.019,-0.01 -6.688,3.875 0.025,-0.015 -5.875,4.125 0.026,-0.021 -5,4.313 0.028,-0.028 -4.063,4.438 0.035,-0.045 -2.938,4.563 0.029,-0.055 -1.875,4.625 0.021,-0.082 -0.625,4.688 z m 216.45,-134.849 4.557,-7.696 3.423,8.263 z"
         id="path20" /><text
         fill="#7d3368"
         font-family="'Calibri Light', 'Calibri Light_MSFontService', sans-serif"
         font-weight="300"
         font-size="15px"
         transform="translate(675.288,293)"
         id="text21">Buffer</text><text
         fill="#7d3368"
         font-family="'Calibri Light', 'Calibri Light_MSFontService', sans-serif"
         font-weight="300"
         font-size="15px"
         transform="translate(662.288,310)"
         id="text22">Over</text><text
         fill="#7d3368"
         font-family="'Calibri Light', 'Calibri Light_MSFontService', sans-serif"
         font-weight="300"
         font-size="15px"
         transform="translate(690.621,310)"
         id="text23">-</text><text
         fill="#7d3368"
         font-family="'Calibri Light', 'Calibri Light_MSFontService', sans-serif"
         font-weight="300"
         font-size="15px"
         transform="translate(695.121,310)"
         id="text24">Read</text><text
         fill="#7d3368"
         font-family="'Calibri Light', 'Calibri Light_MSFontService', sans-serif"
         font-weight="300"
         font-size="15px"
         transform="translate(619.659,547)"
         id="text25">Not Cleared</text><text
         fill="#7d3368"
         font-family="'Calibri Light', 'Calibri Light_MSFontService', sans-serif"
         font-weight="300"
         font-size="15px"
         transform="translate(619.659,564)"
         id="text26">Object</text><text
         fill="#7d3368"
         font-family="'Calibri Light', 'Calibri Light_MSFontService', sans-serif"
         font-weight="300"
         font-size="15px"
         transform="translate(471.366,293)"
         id="text27">Over Bounds</text><text
         fill="#7d3368"
         font-family="'Calibri Light', 'Calibri Light_MSFontService', sans-serif"
         font-weight="300"
         font-size="15px"
         transform="translate(487.779,310)"
         id="text28">Pointer</text><path
         d="m 789,393.5 v 29 M 775.5,408 h 27"
         stroke="#44546a"
         stroke-linejoin="round"
         stroke-miterlimit="10"
         fill="none"
         fill-rule="evenodd"
         id="path28" /><path
         d="m 775.5,408 c 0,-8.008 6.044,-14.5 13.5,-14.5 7.456,0 13.5,6.492 13.5,14.5 0,8.008 -6.044,14.5 -13.5,14.5 -7.456,0 -13.5,-6.492 -13.5,-14.5 z"
         stroke="#44546a"
         stroke-linejoin="round"
         stroke-miterlimit="10"
         fill="none"
         fill-rule="evenodd"
         id="path29" /><path
         d="m 0.0368105,0.331295 -4.5000005,0.5 0.0686,-0.015067 -4.5,1.500002 0.05362,-0.02328 -4.37503,2.375 0.0391,-0.02489 -4.3125,3.1875 0.0339,-0.02876 -4.125,4 0.0216,-0.0229 -4,4.6875 0.0187,-0.0242 -3.75,5.3125 0.0141,-0.0216 -3.5,5.875 0.0112,-0.0204 -3.25,6.4375 0.0089,-0.0192 -2.9375,6.875 0.0078,-0.0199 -2.5625,7.25 0.0061,-0.0192 -2.1875,7.625 0.0049,-0.019 -1.75,7.8125 0.0037,-0.0193 -1.3125,8.0625 0.0027,-0.0204 -0.8125,8.125 0.0015,-0.0231 -0.25,8.25 -0.0012,-0.0403 0.75,8.25 -0.0089,-0.0518 2.0625,8.125 -0.0165,-0.049 3.4375,8.063 -0.0188,-0.038 4.5625,7.813 -0.0206,-0.031 5.6875,7.625 -0.0232,-0.028 6.75,7.25 -0.0208,-0.021 7.625,6.875 -0.021,-0.017 8.43749,6.437 -0.02261,-0.015 9.187496,5.875 -0.021653,-0.013 9.874977,5.312 -0.0207,-0.01 10.375,4.688 -0.0221,-0.009 10.875,4 -0.0242,-0.008 11.25,3.187 -0.0235,-0.005 11.5,2.375 -0.025,-0.005 11.6875,1.5 -0.0285,-0.002 5.0412,0.21 -0.0278,0.667 -5.0555,-0.212 -11.7143,-1.503 -11.5242,-2.38 -11.2739,-3.194 -10.8982,-4.009 -10.3965,-4.697 -9.89619,-5.324 -9.20972,-5.889 -8.45939,-6.454 -7.6459,-6.894 -6.7723,-7.274 -5.7096,-7.655 -4.5825,-7.846 -3.4558,-8.106 -2.0754,-8.1756 -0.7542,-8.2963 0.251,-8.2818 0.8146,-8.1467 1.3158,-8.0824 1.7543,-7.8317 2.193,-7.6441 2.5694,-7.2696 2.9458,-6.8945 3.2601,-6.4574 3.5125,-5.8961 3.7663,-5.3355 4.0202,-4.7111 4.1522,-4.02651 4.3492,-3.21456 4.42116,-2.40008 4.56133,-1.520445 4.5350995,-0.5039 z M 69.8134,171.408 l 7.8262,4.331 -8.1599,3.662 z"
         transform="matrix(0,1,1,0,613.5,316.5)"
         id="path30" /><text
         font-family="'Calibri Light', 'Calibri Light_MSFontService', sans-serif"
         font-weight="300"
         font-size="15px"
         transform="translate(437.098,632)"
         id="text30">…</text><path
         d="m 802.53,408.168 7.59,0.69 7.548,1.95 7.481,3.08 7.224,4.272 7.028,5.271 6.648,6.147 6.396,7.022 5.891,7.834 5.451,8.459 4.887,9.021 4.322,9.584 3.696,9.961 2.944,10.337 2.193,10.587 1.379,10.777 0.151,4.127 -0.666,0.025 -0.151,-4.112 0.002,0.03 -1.375,-10.75 0.005,0.025 -2.188,-10.562 0.006,0.023 -2.938,-10.312 0.009,0.025 -3.688,-9.938 0.009,0.021 -4.313,-9.562 0.011,0.021 -4.875,-9 0.013,0.022 -5.438,-8.437 0.014,0.019 -5.875,-7.812 0.02,0.024 -6.375,-7 0.02,0.02 -6.625,-6.125 0.027,0.022 -7,-5.25 0.03,0.02 -7.188,-4.25 0.043,0.022 -7.437,-3.063 0.043,0.015 -7.5,-1.938 0.053,0.01 -7.562,-0.688 z m 84.444,107.653 -3.704,8.141 -4.29,-7.849 z"
         id="path31" /><path
         d="m 544,381.5 c 0,-36.175 30.892,-65.5 69,-65.5 38.108,0 69,29.325 69,65.5 0,36.175 -30.892,65.5 -69,65.5 -38.108,0 -69,-29.325 -69,-65.5 z"
         fill="#dfdaea"
         fill-rule="evenodd"
         id="path32" /><text
         font-family="'Calibri Light', 'Calibri Light_MSFontService', sans-serif"
         font-weight="300"
         font-size="15px"
         transform="translate(598.772,354)"
         id="text32">MUS</text><text
         font-family="'Calibri Light', 'Calibri Light_MSFontService', sans-serif"
         font-weight="300"
         font-size="15px"
         transform="translate(559.272,371)"
         id="text33">(Read, Data, Type,</text><text
         fill="#7d3368"
         font-family="'Calibri Light', 'Calibri Light_MSFontService', sans-serif"
         font-weight="300"
         font-size="15px"
         transform="translate(571.605,389)"
         id="text34">Address: Over</text><text
         fill="#7d3368"
         font-family="'Calibri Light', 'Calibri Light_MSFontService', sans-serif"
         font-weight="300"
         font-size="15px"
         transform="translate(565.852,407)"
         id="text35">Bounds Pointer</text><text
         font-family="'Calibri Light', 'Calibri Light_MSFontService', sans-serif"
         font-weight="300"
         font-size="15px"
         transform="translate(656.352,407)"
         id="text36">,</text><text
         font-family="'Calibri Light', 'Calibri Light_MSFontService', sans-serif"
         font-weight="300"
         font-size="15px"
         transform="translate(599.352,424)"
         id="text37">Size)</text><path
         d="m 816.5,658.5 67,-135 67,135 z"
         stroke="#7d3368"
         stroke-width="0.666667"
         stroke-linejoin="round"
         stroke-miterlimit="10"
         fill="#dfdaea"
         fill-rule="evenodd"
         id="path37" /><text
         font-family="'Calibri Light', 'Calibri Light_MSFontService', sans-serif"
         font-weight="300"
         font-size="15px"
         transform="translate(848.037,611)"
         id="text38">Information</text><text
         font-family="'Calibri Light', 'Calibri Light_MSFontService', sans-serif"
         font-weight="300"
         font-size="15px"
         transform="translate(855.951,628)"
         id="text39">Exposure</text><text
         font-family="'Calibri Light', 'Calibri Light_MSFontService', sans-serif"
         font-weight="300"
         font-size="13px"
         transform="translate(165.642,602)"
         id="text40">Fault</text><text
         font-family="'Calibri Light', 'Calibri Light_MSFontService', sans-serif"
         font-weight="300"
         font-size="13px"
         transform="translate(165.642,560)"
         id="text41">Bug</text><text
         font-family="'Calibri Light', 'Calibri Light_MSFontService', sans-serif"
         font-weight="300"
         font-size="13px"
         transform="translate(165.642,687)"
         id="text42">Failure</text><path
         d="m 117,596 c 0,-11.046 8.73,-20 19.5,-20 10.77,0 19.5,8.954 19.5,20 0,11.046 -8.73,20 -19.5,20 -10.77,0 -19.5,-8.954 -19.5,-20 z"
         fill="#f4f2f8"
         fill-rule="evenodd"
         id="path42" /><path
         d="m 117,553.5 c 0,-10.77 8.73,-19.5 19.5,-19.5 10.77,0 19.5,8.73 19.5,19.5 0,10.77 -8.73,19.5 -19.5,19.5 -10.77,0 -19.5,-8.73 -19.5,-19.5 z"
         fill="#e8effc"
         fill-rule="evenodd"
         id="path43" /><path
         d="m 119.5,699.5 17.5,-35 17.5,35 z"
         stroke="#7d3368"
         stroke-width="0.666667"
         stroke-miterlimit="8"
         fill="#dfdaea"
         fill-rule="evenodd"
         id="path44" /><text
         font-family="'Calibri Light', 'Calibri Light_MSFontService', sans-serif"
         font-weight="300"
         font-size="13px"
         transform="translate(165.642,644)"
         id="text44">Final Error</text><path
         d="m 117,639 c 0,-11.046 8.954,-20 20,-20 11.046,0 20,8.954 20,20 0,11.046 -8.954,20 -20,20 -11.046,0 -20,-8.954 -20,-20 z"
         fill="#dfdaea"
         fill-rule="evenodd"
         id="path45" /><text
         fill="#7f7f7f"
         font-family="'Calibri Light', 'Calibri Light_MSFontService', sans-serif"
         font-weight="300"
         font-size="13px"
         transform="translate(815.784,695)"
         id="text45">BF, I.</text><text
         fill="#7f7f7f"
         font-family="'Calibri Light', 'Calibri Light_MSFontService', sans-serif"
         font-weight="300"
         font-size="13px"
         transform="translate(845.117,695)"
         id="text46">Bojanova</text><text
         fill="#7f7f7f"
         font-family="'Calibri Light', 'Calibri Light_MSFontService', sans-serif"
         font-weight="300"
         font-size="13px"
         transform="translate(894.784,695)"
         id="text47">, 2023</text></g></g></svg>
