<?xml version="1.0" encoding="UTF-8" standalone="no"?>
<!-- Created with Inkscape (http://www.inkscape.org/) -->

<svg
   width="204.52292mm"
   height="135.8284mm"
   viewBox="0 0 204.52292 135.8284"
   version="1.1"
   id="svg1"
   inkscape:version="1.3.2 (091e20e, 2023-11-25, custom)"
   sodipodi:docname="MUS narrow.svg"
   xmlns:inkscape="http://www.inkscape.org/namespaces/inkscape"
   xmlns:sodipodi="http://sodipodi.sourceforge.net/DTD/sodipodi-0.dtd"
   xmlns="http://www.w3.org/2000/svg"
   xmlns:svg="http://www.w3.org/2000/svg">
  <sodipodi:namedview
     id="namedview1"
     pagecolor="#ffffff"
     bordercolor="#000000"
     borderopacity="0.25"
     inkscape:showpageshadow="2"
     inkscape:pageopacity="0.0"
     inkscape:pagecheckerboard="0"
     inkscape:deskcolor="#d1d1d1"
     inkscape:document-units="mm"
     inkscape:zoom="1.0146815"
     inkscape:cx="355.77665"
     inkscape:cy="-135.5105"
     inkscape:window-width="2560"
     inkscape:window-height="1377"
     inkscape:window-x="-8"
     inkscape:window-y="859"
     inkscape:window-maximized="1"
     inkscape:current-layer="layer1" />
  <defs
     id="defs1">
    <clipPath
       id="clip0">
      <rect
         x="-15"
         y="688"
         width="1214"
         height="975"
         id="rect1" />
    </clipPath>
    <clipPath
       id="clip0-0">
      <rect
         x="-15"
         y="688"
         width="1214"
         height="975"
         id="rect1-2" />
    </clipPath>
    <clipPath
       id="clip0-5">
      <rect
         x="77"
         y="89"
         width="762"
         height="805"
         id="rect1-9" />
    </clipPath>
    <clipPath
       id="clip0-50">
      <rect
         x="219"
         y="229"
         width="618"
         height="343"
         id="rect1-0" />
    </clipPath>
    <clipPath
       id="clip0-8">
      <rect
         x="-14"
         y="165"
         width="810"
         height="619"
         id="rect1-5" />
    </clipPath>
    <clipPath
       id="clip0-51">
      <rect
         x="-8"
         y="-1"
         width="1058"
         height="936"
         id="rect1-4" />
    </clipPath>
    <clipPath
       id="clip0-57">
      <rect
         x="-8"
         y="-1"
         width="1058"
         height="724"
         id="rect1-54" />
    </clipPath>
    <clipPath
       id="clip0-513">
      <rect
         x="-15"
         y="688"
         width="1214"
         height="975"
         id="rect1-04" />
    </clipPath>
    <clipPath
       id="clip0-06">
      <rect
         x="-35"
         y="1385"
         width="1301"
         height="1322"
         id="rect1-40" />
    </clipPath>
    <clipPath
       id="clip0-7">
      <rect
         x="-35"
         y="1324"
         width="1301"
         height="1383"
         id="rect1-05" />
    </clipPath>
    <clipPath
       id="clip0-3">
      <rect
         x="35"
         y="62"
         width="982"
         height="352"
         id="rect1-6" />
    </clipPath>
    <clipPath
       id="clip0-4">
      <rect
         x="-35"
         y="1324"
         width="1301"
         height="1383"
         id="rect1-7" />
    </clipPath>
    <clipPath
       id="clip0-1">
      <rect
         x="76"
         y="1337"
         width="1066"
         height="1204"
         id="rect1-8" />
    </clipPath>
    <clipPath
       id="clip0-19">
      <rect
         x="-39"
         y="600"
         width="1970"
         height="678"
         id="rect1-049" />
    </clipPath>
    <clipPath
       id="clip0-2">
      <rect
         x="-17"
         y="634"
         width="1214"
         height="1038"
         id="rect1-91" />
    </clipPath>
    <clipPath
       id="clip0-08">
      <rect
         x="76"
         y="1337"
         width="1066"
         height="1374"
         id="rect1-29" />
    </clipPath>
    <clipPath
       id="clip0-6">
      <rect
         x="-39"
         y="600"
         width="1980"
         height="678"
         id="rect1-96" />
    </clipPath>
    <clipPath
       id="clip0-38">
      <rect
         x="76"
         y="1337"
         width="1066"
         height="1339"
         id="rect1-84" />
    </clipPath>
    <clipPath
       id="clip0-20">
      <rect
         x="-15"
         y="688"
         width="1214"
         height="975"
         id="rect1-26" />
    </clipPath>
    <clipPath
       id="clip0-069">
      <rect
         x="-14"
         y="1880"
         width="1213"
         height="1038"
         id="rect1-03" />
    </clipPath>
    <clipPath
       id="clip0-03">
      <rect
         x="35"
         y="62"
         width="982"
         height="352"
         id="rect1-3" />
    </clipPath>
    <clipPath
       id="clip0-69">
      <rect
         x="76"
         y="1337"
         width="1066"
         height="1339"
         id="rect1-09" />
    </clipPath>
    <clipPath
       id="clip0-28">
      <rect
         x="-38"
         y="600"
         width="1979"
         height="658"
         id="rect1-92" />
    </clipPath>
    <clipPath
       id="clip0-22">
      <rect
         x="76"
         y="1337"
         width="1066"
         height="1339"
         id="rect1-79" />
    </clipPath>
    <clipPath
       id="clip0-13">
      <rect
         x="35"
         y="62"
         width="982"
         height="352"
         id="rect1-30" />
    </clipPath>
    <clipPath
       id="clip0-9">
      <rect
         x="-14"
         y="1880"
         width="1213"
         height="1038"
         id="rect1-544" />
    </clipPath>
    <clipPath
       id="clip0-65">
      <rect
         x="35"
         y="62"
         width="982"
         height="352"
         id="rect1-045" />
    </clipPath>
    <clipPath
       id="clip0-47">
      <rect
         x="35"
         y="62"
         width="982"
         height="352"
         id="rect1-59" />
    </clipPath>
    <clipPath
       id="clip0-64">
      <rect
         x="-38"
         y="600"
         width="1979"
         height="658"
         id="rect1-52" />
    </clipPath>
    <clipPath
       id="clip0-80">
      <rect
         x="76"
         y="1337"
         width="1066"
         height="1339"
         id="rect1-48" />
    </clipPath>
    <clipPath
       id="clip0-35">
      <rect
         x="-14"
         y="1880"
         width="1213"
         height="1038"
         id="rect1-21" />
    </clipPath>
    <clipPath
       id="clip0-17">
      <rect
         x="-15"
         y="688"
         width="1214"
         height="975"
         id="rect1-71" />
    </clipPath>
    <clipPath
       id="clip0-25">
      <rect
         x="-15"
         y="688"
         width="1214"
         height="869"
         id="rect1-67" />
    </clipPath>
    <clipPath
       id="clip0-16">
      <rect
         x="-15"
         y="688"
         width="1214"
         height="869"
         id="rect1-87" />
    </clipPath>
    <clipPath
       id="clip0-95">
      <rect
         x="-24"
         y="2049"
         width="1213"
         height="869"
         id="rect1-27" />
    </clipPath>
    <clipPath
       id="clip0-92">
      <rect
         x="-36"
         y="14"
         width="1472"
         height="1045"
         id="rect1-527" />
    </clipPath>
    <clipPath
       id="clip0-01">
      <rect
         x="-36"
         y="14"
         width="1472"
         height="1045"
         id="rect1-484" />
    </clipPath>
    <clipPath
       id="clip0-85">
      <rect
         x="-36"
         y="30"
         width="1472"
         height="1029"
         id="rect1-99" />
    </clipPath>
    <clipPath
       id="clip0-78">
      <rect
         x="-15"
         y="688"
         width="1214"
         height="821"
         id="rect1-60" />
    </clipPath>
    <clipPath
       id="clip0-46">
      <rect
         x="64"
         y="88"
         width="1139"
         height="779"
         id="rect1-39" />
    </clipPath>
    <clipPath
       id="clip0-161">
      <rect
         x="70"
         y="88"
         width="1133"
         height="779"
         id="rect1-1" />
    </clipPath>
    <clipPath
       id="clip0-651">
      <rect
         x="70"
         y="88"
         width="1133"
         height="779"
         id="rect1-23" />
    </clipPath>
    <clipPath
       id="clip0-77">
      <rect
         x="76"
         y="1337"
         width="1066"
         height="1175"
         id="rect1-293" />
    </clipPath>
    <clipPath
       id="clip0-464">
      <rect
         x="-38"
         y="600"
         width="1980"
         height="623"
         id="rect1-405" />
    </clipPath>
    <clipPath
       id="clip0-258">
      <rect
         x="-38"
         y="600"
         width="1980"
         height="623"
         id="rect1-848" />
    </clipPath>
    <clipPath
       id="clip0-48">
      <rect
         x="76"
         y="1337"
         width="1066"
         height="1175"
         id="rect1-51" />
    </clipPath>
    <clipPath
       id="clip0-34">
      <rect
         x="76"
         y="1337"
         width="1066"
         height="1223"
         id="rect1-13" />
    </clipPath>
    <clipPath
       id="clip0-33">
      <rect
         x="-38"
         y="600"
         width="1980"
         height="633"
         id="rect1-78" />
    </clipPath>
    <clipPath
       id="clip0-26">
      <rect
         x="25"
         y="62"
         width="992"
         height="382"
         id="rect1-512" />
    </clipPath>
    <clipPath
       id="clip0-98">
      <rect
         x="25"
         y="62"
         width="992"
         height="382"
         id="rect1-45" />
    </clipPath>
    <clipPath
       id="clip0-286">
      <rect
         x="133"
         y="102"
         width="778"
         height="527"
         id="rect1-83" />
    </clipPath>
  </defs>
  <g
     inkscape:label="Layer 1"
     inkscape:groupmode="layer"
     id="layer1"
     transform="translate(46.883167,-156.21802)">
    <g
       clip-path="url(#clip0-286)"
       transform="matrix(0.26458333,0,0,0.26458333,-83.395667,126.41726)"
       id="g52">
      <text
         font-family="Calibri, Calibri_MSFontService, sans-serif"
         font-weight="400"
         font-size="16px"
         transform="translate(237.902,123)"
         id="text1">Causes</text>
      <path
         d="M 138,147.167 C 138,138.79 144.79,132 153.167,132 h 228.666 c 8.377,0 15.167,6.79 15.167,15.167 v 60.666 C 397,216.21 390.21,223 381.833,223 H 153.167 C 144.79,223 138,216.21 138,207.833 Z"
         fill="#e8effc"
         fill-rule="evenodd"
         id="path1" />
      <text
         font-family="Calibri, Calibri_MSFontService, sans-serif"
         font-weight="400"
         font-size="16px"
         transform="translate(144.894,153)"
         id="text2">Code Defect Bug</text>
      <text
         fill="#660066"
         font-family="Calibri, Calibri_MSFontService, sans-serif"
         font-weight="400"
         font-size="16px"
         transform="translate(296.395,172)"
         id="text3">Missing Code</text>
      <text
         fill="#660066"
         font-family="Calibri, Calibri_MSFontService, sans-serif"
         font-weight="400"
         font-size="16px"
         transform="translate(233.041,191)"
         id="text4">Mismatched Operation</text>
      <text
         fill="#660066"
         font-family="Calibri, Calibri_MSFontService, sans-serif"
         font-weight="400"
         font-size="16px"
         transform="translate(279.321,211)"
         id="text5">Erroneous Code</text>
      <path
         d="m 397.514,177.167 10.75,0.437 4.961,0.565 4.385,0.626 3.773,0.817 2.902,0.882 c 0.017,0.005 0.035,0.012 0.052,0.02 l 1.875,0.938 c 0.054,0.027 0.101,0.069 0.133,0.121 l 0.625,1 0.625,1 -0.133,-0.121 1.875,0.937 -0.052,-0.02 2.875,0.875 3.723,0.805 4.352,0.621 4.928,0.561 4.016,0.163 -0.028,0.666 -4.064,-0.166 -4.947,-0.564 -4.398,-0.629 -3.776,-0.82 -2.875,-0.875 c -0.018,-0.005 -0.036,-0.012 -0.053,-0.02 l -1.875,-0.938 c -0.054,-0.027 -0.101,-0.069 -0.133,-0.121 l -0.625,-1 -0.625,-1 0.133,0.121 -1.875,-0.937 0.053,0.02 -2.849,-0.868 -3.727,-0.808 -4.365,-0.624 -4.913,-0.56 -10.75,-0.438 z m 50.482,6.509 7.83,4.323 -8.156,3.671 z"
         id="path5" />
      <path
         d="M 138,249.667 C 138,243.223 143.223,238 149.667,238 h 235.666 c 6.444,0 11.667,5.223 11.667,11.667 v 46.666 C 397,302.777 391.777,308 385.333,308 H 149.667 C 143.223,308 138,302.777 138,296.333 Z"
         fill="#f4f2f8"
         fill-rule="evenodd"
         id="path6" />
      <text
         font-family="Calibri, Calibri_MSFontService, sans-serif"
         font-weight="400"
         font-size="16px"
         transform="translate(143.87,258)"
         id="text6">Data Fault</text>
      <text
         fill="#660066"
         font-family="Calibri, Calibri_MSFontService, sans-serif"
         font-weight="400"
         font-size="16px"
         transform="translate(262.136,277)"
         id="text7">Forbidden Address</text>
      <text
         fill="#660066"
         font-family="Calibri, Calibri_MSFontService, sans-serif"
         font-weight="400"
         font-size="16px"
         transform="translate(311.956,296)"
         id="text8">Wrong Size</text>
      <path
         d="M 0.0301786,-0.331964 2.78018,-0.0819644 c 0.01769,0.0016087 0.03522,0.0046264 0.05243,0.0090302 L 5.52011,0.614566 C 5.53795,0.61913 5.55538,0.625162 5.57222,0.632604 L 8.25972,1.8201 10.9205,3.40107 c 0.0159,0.00947 0.031,0.02023 0.0451,0.03221 l 4.9375,4.1875 c 0.0161,0.01365 0.0309,0.02882 0.0441,0.04526 l 4.375,5.43746 c 0.0105,0.013 0.0199,0.0268 0.0283,0.0412 l 3.75,6.4375 c 0.0083,0.0141 0.0154,0.0288 0.0215,0.044 l 2.875,7.1875 1.8893,7.7323 c 0.0043,0.0174 0.0071,0.035 0.0085,0.0528 l 0.625,7.9375 0.625,7.9375 -0.0085,-0.0528 1.875,7.6875 2.8607,7.1427 -0.0215,-0.044 3.75,6.4375 -0.0295,-0.0426 4.375,5.375 -0.041,-0.0422 4.9375,4.25 -0.0521,-0.0368 2.625,1.5 -0.0725,-0.0307 1.6126,0.4681 -0.1859,0.6402 -1.6125,-0.4681 C 50.1318,83.2503 50.1075,83.24 50.0846,83.2269 l -2.625,-1.5 C 47.4411,81.7163 47.4237,81.704 47.4075,81.6901 l -4.9375,-4.25 c -0.0149,-0.0128 -0.0286,-0.0269 -0.041,-0.0422 l -4.375,-5.375 c -0.011,-0.0134 -0.0208,-0.0276 -0.0295,-0.0426 l -3.75,-6.4375 C 34.2662,65.5287 34.2591,65.514 34.253,65.4988 l -2.8893,-7.2323 -1.875,-7.6875 c -0.0043,-0.0174 -0.0071,-0.035 -0.0085,-0.0528 l -0.625,-7.9375 -0.625,-7.9375 0.0085,0.0528 -1.8607,-7.6427 -2.875,-7.1875 0.0215,0.044 -3.75,-6.4375 0.0283,0.0412 -4.375,-5.43754 0.0441,0.04526 -4.9375,-4.1875 0.0451,0.03221 L 7.99028,2.4299 5.30278,1.2424 5.35489,1.26043 2.66739,0.572934 l 0.05243,0.00903 -2.7499986,-0.25 z M 51.5501,79.2008 l 6.7758,5.8386 -8.7363,1.9175 z"
         transform="matrix(1,0,0,-1,397.5,273.539)"
         id="path8" />
      <path
         d="m 138,331.167 c 0,-4.511 3.656,-8.167 8.167,-8.167 h 242.666 c 4.511,0 8.167,3.656 8.167,8.167 v 32.666 c 0,4.511 -3.656,8.167 -8.167,8.167 H 146.167 C 141.656,372 138,368.344 138,363.833 Z"
         fill="#f4f2f8"
         fill-rule="evenodd"
         id="path9" />
      <text
         font-family="Calibri, Calibri_MSFontService, sans-serif"
         font-weight="400"
         font-size="16px"
         transform="translate(142.844,342)"
         id="text9">Type Fault</text>
      <text
         fill="#660066"
         font-family="Calibri, Calibri_MSFontService, sans-serif"
         font-weight="400"
         font-size="16px"
         transform="translate(290.338,361)"
         id="text10">Casted Pointer</text>
      <path
         d="M 0.0523717,-0.329193 2.80237,0.108307 C 2.83702,0.113819 2.87059,0.12477 2.90183,0.140751 L 5.58933,1.51575 C 5.60874,1.52568 5.62714,1.5375 5.64424,1.55103 l 2.68751,2.125 c 0.01504,0.01189 0.02902,0.02506 0.0418,0.03936 l 2.62505,2.9375 2.5258,3.65791 2.4523,4.2734 2.2628,4.8371 2.133,5.3936 2.0055,5.8902 1.7555,6.2675 2.88,13.4577 1.8796,14.4643 0.6274,14.9039 0.625,14.875 1.8726,14.4085 2.8704,13.411 1.745,6.23 1.9946,5.857 2.1194,5.36 2.242,4.794 2.4247,4.225 2.4852,3.602 2.5992,2.904 -0.0809,-0.066 1.9945,1.162 -0.3355,0.576 -1.9944,-1.161 c -0.0303,-0.018 -0.0575,-0.04 -0.0809,-0.066 l -2.6508,-2.971 -2.5148,-3.648 -2.4503,-4.275 -2.258,-4.831 -2.1306,-5.39 -2.0054,-5.893 -1.755,-6.27 -2.8796,-13.464 -1.8774,-14.4665 -0.625,-14.875 -0.6226,-14.8461 -1.8704,-14.4107 -2.87,-13.4173 -1.7445,-6.2325 -1.9945,-5.8598 -2.117,-5.3564 -2.2372,-4.7879 -2.4227,-4.2266 -2.4742,-3.59209 -2.62495,-2.9375 0.0418,0.03936 -2.6875,-2.125 0.05492,0.03528 -2.6875,-1.375001 0.09946,0.032444 -2.7500017,-0.4375 z M 52.6668,152.654 l 5.6593,6.926 -8.9366,0.372 z"
         transform="matrix(1,0,0,-1,397.5,348.08)"
         id="path10" />
      <path
         d="M 138,416.167 C 138,400.059 151.059,387 167.167,387 H 367.833 C 383.941,387 397,400.059 397,416.167 V 532.833 C 397,548.941 383.941,562 367.833,562 H 167.167 C 151.059,562 138,548.941 138,532.833 Z"
         fill="#f4f2f8"
         fill-rule="evenodd"
         id="path11" />
      <text
         font-family="Calibri, Calibri_MSFontService, sans-serif"
         font-weight="400"
         font-size="16px"
         transform="translate(148.995,412)"
         id="text11">Address Fault</text>
      <text
         fill="#660066"
         font-family="Calibri, Calibri_MSFontService, sans-serif"
         font-weight="400"
         font-size="16px"
         transform="translate(294.135,431)"
         id="text12">NULL Pointer</text>
      <text
         fill="#660066"
         font-family="Calibri, Calibri_MSFontService, sans-serif"
         font-weight="400"
         font-size="16px"
         transform="translate(298.301,450)"
         id="text13">Wild Pointer</text>
      <text
         fill="#660066"
         font-family="Calibri, Calibri_MSFontService, sans-serif"
         font-weight="400"
         font-size="16px"
         transform="translate(271.635,470)"
         id="text14">Dangling Pointer</text>
      <text
         fill="#660066"
         font-family="Calibri, Calibri_MSFontService, sans-serif"
         font-weight="400"
         font-size="16px"
         transform="translate(262.801,489)"
         id="text15">Untrusted Pointer</text>
      <text
         fill="#660066"
         font-family="Calibri, Calibri_MSFontService, sans-serif"
         font-weight="400"
         font-size="16px"
         transform="translate(244.788,508)"
         id="text16">Over Bounds Pointer</text>
      <text
         fill="#660066"
         font-family="Calibri, Calibri_MSFontService, sans-serif"
         font-weight="400"
         font-size="16px"
         transform="translate(235.468,527)"
         id="text17">Under Bounds Pointer</text>
      <text
         fill="#660066"
         font-family="Calibri, Calibri_MSFontService, sans-serif"
         font-weight="400"
         font-size="16px"
         transform="translate(228.848,546)"
         id="text18">Wrong Position Pointer</text>
      <path
         d="m 0.0450377,-0.330277 1.3750023,0.1875 c 0.0321,0.004378 0.0634,0.013415 0.09289,0.026821 l 1.375,0.625 C 2.9084,0.518345 2.92788,0.529701 2.94606,0.542921 l 1.375,0.999999 c 0.01816,0.01321 0.03496,0.02824 0.0501,0.04482 l 1.3125,1.4375 2.71379,3.84521 c 0.00964,0.01368 0.01821,0.02801 0.02569,0.04298 l 2.62496,5.24997 2.513,6.5294 2.4439,7.6432 2.2552,8.7054 2.1279,9.6997 2.0018,10.4462 1.752,11.2615 1.5636,11.82 1.3135,12.3835 1.0632,12.8197 0.813,13.07 0.6255,26.763 0.625,26.75 0.812,13.112 1.062,12.743 1.3118,12.367 1.5615,11.867 1.7488,11.179 1.9981,10.49 2.1231,9.615 2.2472,8.676 2.4323,7.607 2.4936,6.482 2.612,5.22 -0.0458,-0.068 2.6935,3.118 -0.5045,0.436 -2.6936,-3.119 c -0.0181,-0.021 -0.0335,-0.044 -0.0458,-0.068 l -2.638,-5.28 -2.5064,-6.518 -2.4427,-7.643 -2.2528,-8.699 -2.1269,-9.635 -2.0019,-10.511 -1.7512,-11.195 -1.5635,-11.883 -1.3132,-12.383 -1.063,-12.757 -0.813,-13.138 -0.625,-26.75 -0.6245,-26.737 -0.812,-13.055 L 26.356,90.7227 25.0445,78.3562 23.4831,66.5512 21.7351,55.3127 19.7369,44.8839 17.6148,35.2086 15.37,26.539 12.9389,18.9322 10.4519,12.4616 7.82686,7.21157 7.85255,7.25455 5.19134,3.47476 l -1.3125,-1.4375 0.0501,0.04482 -1.375,-1 0.05813,0.03388 -1.375,-0.625004 0.09289,0.026821 -1.3749977,-0.1875 z M 54.2271,278.664 l 4.099,7.95 -8.8192,-1.49 z"
         transform="matrix(1,0,0,-1,397.5,475.114)"
         id="path18" />
      <path
         d="m 138,585.167 c 0,-4.511 3.656,-8.167 8.167,-8.167 h 242.666 c 4.511,0 8.167,3.656 8.167,8.167 v 32.666 c 0,4.511 -3.656,8.167 -8.167,8.167 H 146.167 C 141.656,626 138,622.344 138,617.833 Z"
         fill="#f4f2f8"
         fill-rule="evenodd"
         id="path19" />
      <text
         font-family="Calibri, Calibri_MSFontService, sans-serif"
         font-weight="400"
         font-size="16px"
         transform="translate(142.844,596)"
         id="text19">Size Fault</text>
      <text
         fill="#660066"
         font-family="Calibri, Calibri_MSFontService, sans-serif"
         font-weight="400"
         font-size="16px"
         transform="translate(248.764,615)"
         id="text20">Not Enough Memory</text>
      <path
         d="M 0.0738737,-0.325044 1.44887,-0.0125443 c 0.03728,0.00847279 0.07283,0.0232985 0.10509,0.0438238 l 1.375,0.8750005 c 0.0226,0.014385 0.0434,0.03145 0.06192,0.050812 l 1.375,1.437498 c 0.01402,0.01466 0.02668,0.03057 0.0378,0.04752 l 1.3125,2 1.39004,2.58778 1.32516,3.08881 1.31823,3.5143 1.31709,4.0131 1.2545,4.5147 1.2517,4.8814 1.2516,5.319 1.1894,5.7589 1.1263,6.0691 1.1257,6.5039 2.1261,13.8814 2.001,15.1318 1.7509,16.1954 1.5631,17.1303 1.3129,17.818 1.0629,18.506 0.8127,18.88 0.6253,38.634 0.625,38.562 0.8122,18.929 1.0623,18.432 1.3121,17.807 1.5621,17.12 1.7494,16.182 1.9991,15.117 2.124,13.868 1.1239,6.494 1.1243,6.058 1.1862,5.744 1.2481,5.303 1.2484,4.869 1.2483,4.493 1.308,3.986 1.3079,3.486 1.3068,3.049 -0.0364,-0.064 1.8852,2.604 -0.54,0.39 -1.8852,-2.604 c -0.0145,-0.02 -0.0267,-0.041 -0.0364,-0.064 l -1.3182,-3.076 -1.3171,-3.514 -1.317,-4.014 -1.2517,-4.507 -1.2516,-4.881 -1.2519,-5.322 -1.1888,-5.756 -1.1258,-6.067 -1.126,-6.506 L 37.982,349.106 35.9811,333.973 34.2305,317.78 32.6676,300.649 31.3547,282.832 30.292,264.389 29.4792,245.443 28.8542,206.88 28.2295,168.264 27.4172,149.394 26.3551,130.899 25.043,113.093 23.4811,95.9733 21.732,79.7937 19.733,64.6755 17.609,50.8068 16.4848,44.3108 15.3611,38.2549 14.1755,32.5138 12.9271,27.2078 11.6788,22.3392 10.4333,17.8539 9.12539,13.867 7.81862,10.3813 6.51878,7.34511 5.15882,4.80789 l -1.3125,-2 0.0378,0.04752 -1.375,-1.4375 0.06192,0.05081 -1.375,-0.875 0.10509,0.043824 -1.3750037,-0.3125 z M 55.1987,405.268 l 3.1269,8.38 -8.58,-2.526 z"
         transform="matrix(1,0,0,-1,397.5,602.148)"
         id="path20" />
      <text
         font-family="Calibri, Calibri_MSFontService, sans-serif"
         font-weight="400"
         font-size="16px"
         transform="translate(731.51,123)"
         id="text21">Consequences</text>
      <path
         d="m 653,140.167 c 0,-4.511 3.656,-8.167 8.167,-8.167 h 241.666 c 4.511,0 8.167,3.656 8.167,8.167 v 32.666 c 0,4.511 -3.656,8.167 -8.167,8.167 H 661.167 C 656.656,181 653,177.344 653,172.833 Z"
         fill="#f4f2f8"
         fill-rule="evenodd"
         id="path21" />
      <text
         font-family="Calibri, Calibri_MSFontService, sans-serif"
         font-weight="400"
         font-size="16px"
         transform="translate(657.364,151)"
         id="text22">Data Error</text>
      <text
         fill="#660066"
         font-family="Calibri, Calibri_MSFontService, sans-serif"
         font-weight="400"
         font-size="16px"
         transform="translate(772.058,170)"
         id="text23">Uninitialized Object</text>
      <path
         d="M 0.022934,-0.332543 5.46043,0.0424566 10.8117,1.04742 l 4.9764,1.57228 4.413,2.01464 3.7898,2.39655 c 0.0164,0.01043 0.032,0.0223 0.0464,0.03545 l 2.875,2.625 c 0.0207,0.01897 0.039,0.0405 0.0544,0.06407 l 1.875,2.87499 c 0.0224,0.0344 0.0383,0.0726 0.0468,0.1127 l 0.625,2.9375 0.625,2.9375 -0.0468,-0.1127 1.875,2.875 -0.0544,-0.0641 2.875,2.625 -0.0465,-0.0354 3.75,2.375 4.3353,1.9784 4.8995,1.5479 -0.0473,-0.0113 4.0727,0.6595 -0.1065,0.6581 -4.0728,-0.6595 c -0.016,-0.0025 -0.0318,-0.0063 -0.0473,-0.0112 l -4.9755,-1.5771 -4.4148,-2.0216 -3.75,-2.375 c -0.0164,-0.0104 -0.032,-0.0223 -0.0464,-0.0354 l -2.875,-2.625 c -0.0207,-0.019 -0.039,-0.0405 -0.0544,-0.0641 l -1.875,-2.875 C 29.5109,18.8352 29.495,18.797 29.4865,18.7569 l -0.625,-2.9375 -0.625,-2.9375 0.0468,0.1127 -1.875,-2.875 0.0544,0.0641 -2.875,-2.62504 0.0464,0.03545 L 19.9239,5.24066 15.5869,3.2553 10.6883,1.70258 5.41457,0.707543 -0.022934,0.332543 Z M 50.7991,26.6649 l 7.5272,4.8313 -8.3813,3.123 z"
         transform="matrix(1,0,0,-1,595.5,187.996)"
         id="path23" />
      <path
         d="M 653,239.001 C 653,215.252 672.252,196 696.001,196 H 867.999 C 891.748,196 911,215.252 911,239.001 V 431.999 C 911,455.748 891.748,475 867.999,475 H 696.001 C 672.252,475 653,455.748 653,431.999 Z"
         fill="#dfdaea"
         fill-rule="evenodd"
         id="path24" />
      <text
         font-family="Calibri, Calibri_MSFontService, sans-serif"
         font-weight="400"
         font-size="16px"
         transform="translate(667.628,225)"
         id="text24">Memory Corruption/Disclosure</text>
      <text
         font-family="Calibri, Calibri_MSFontService, sans-serif"
         font-weight="400"
         font-size="16px"
         transform="translate(667.628,244)"
         id="text25">Final Exploitable</text>
      <text
         font-family="Calibri, Calibri_MSFontService, sans-serif"
         font-weight="400"
         font-size="16px"
         transform="translate(777.434,244)"
         id="text26">Error</text>
      <text
         fill="#660066"
         font-family="Calibri, Calibri_MSFontService, sans-serif"
         font-weight="400"
         font-size="16px"
         transform="translate(765.174,263)"
         id="text27">Not Cleared Object</text>
      <text
         fill="#660066"
         font-family="Calibri, Calibri_MSFontService, sans-serif"
         font-weight="400"
         font-size="16px"
         transform="translate(720.901,283)"
         id="text28">NULL Pointer Dereference</text>
      <text
         fill="#660066"
         font-family="Calibri, Calibri_MSFontService, sans-serif"
         font-weight="400"
         font-size="16px"
         transform="translate(689.568,302)"
         id="text29">Untrusted Pointer Dereference</text>
      <text
         fill="#660066"
         font-family="Calibri, Calibri_MSFontService, sans-serif"
         font-weight="400"
         font-size="16px"
         transform="translate(772.034,321)"
         id="text30">Object Corruption</text>
      <text
         fill="#660066"
         font-family="Calibri, Calibri_MSFontService, sans-serif"
         font-weight="400"
         font-size="16px"
         transform="translate(789.614,340)"
         id="text31">Type Confusion</text>
      <text
         fill="#660066"
         font-family="Calibri, Calibri_MSFontService, sans-serif"
         font-weight="400"
         font-size="16px"
         transform="translate(795.681,359)"
         id="text32">Use After Free</text>
      <text
         fill="#660066"
         font-family="Calibri, Calibri_MSFontService, sans-serif"
         font-weight="400"
         font-size="16px"
         transform="translate(786.228,379)"
         id="text33">Buffer Overflow</text>
      <text
         fill="#660066"
         font-family="Calibri, Calibri_MSFontService, sans-serif"
         font-weight="400"
         font-size="16px"
         transform="translate(776.908,398)"
         id="text34">Buffer Underflow</text>
      <text
         fill="#660066"
         font-family="Calibri, Calibri_MSFontService, sans-serif"
         font-weight="400"
         font-size="16px"
         transform="translate(777.448,417)"
         id="text35">Buffer Over</text>
      <text
         fill="#660066"
         font-family="Calibri, Calibri_MSFontService, sans-serif"
         font-weight="400"
         font-size="16px"
         transform="translate(851.908,417)"
         id="text36">-</text>
      <text
         fill="#660066"
         font-family="Calibri, Calibri_MSFontService, sans-serif"
         font-weight="400"
         font-size="16px"
         transform="translate(856.741,417)"
         id="text37">Read</text>
      <text
         fill="#660066"
         font-family="Calibri, Calibri_MSFontService, sans-serif"
         font-weight="400"
         font-size="16px"
         transform="translate(768.128,436)"
         id="text38">Buffer Under</text>
      <text
         fill="#660066"
         font-family="Calibri, Calibri_MSFontService, sans-serif"
         font-weight="400"
         font-size="16px"
         transform="translate(851.908,436)"
         id="text39">-</text>
      <text
         fill="#660066"
         font-family="Calibri, Calibri_MSFontService, sans-serif"
         font-weight="400"
         font-size="16px"
         transform="translate(856.741,436)"
         id="text40">Read</text>
      <text
         fill="#660066"
         font-family="Calibri, Calibri_MSFontService, sans-serif"
         font-weight="400"
         font-size="16px"
         transform="translate(674.261,455)"
         id="text41">Uninitialized Pointer Dereference</text>
      <path
         d="m 595.552,188.171 2.75,0.437 c 0.031,0.005 0.061,0.014 0.089,0.027 l 2.687,1.25 c 0.019,0.009 0.037,0.02 0.055,0.032 l 2.687,1.938 c 0.016,0.011 0.03,0.023 0.044,0.037 l 2.625,2.688 2.529,3.409 2.453,3.961 2.264,4.462 2.134,5.02 2.006,5.389 1.757,5.833 2.88,12.458 1.881,13.404 0.628,13.781 0.625,13.75 1.872,13.282 2.869,12.471 1.744,5.728 1.994,5.356 2.119,4.986 2.241,4.417 2.424,3.913 2.484,3.352 2.596,2.653 -0.084,-0.063 1.921,1.01 -0.31,0.59 -1.921,-1.009 c -0.031,-0.017 -0.059,-0.038 -0.083,-0.063 l -2.655,-2.722 -2.515,-3.398 -2.452,-3.962 -2.259,-4.458 -2.131,-5.014 -2.006,-5.394 -1.756,-5.772 -2.881,-12.528 -1.877,-13.344 -0.625,-13.75 -0.623,-13.719 -1.869,-13.346 -2.87,-12.417 -1.743,-5.792 -1.994,-5.361 -2.116,-4.98 -2.236,-4.413 -2.422,-3.914 -2.47,-3.341 -2.625,-2.687 0.043,0.037 -2.687,-1.937 0.054,0.032 -2.688,-1.25 0.089,0.027 -2.75,-0.438 z m 52.424,141.07 5.85,6.766 -8.922,0.621 z"
         id="path41" />
      <text
         font-family="Calibri, Calibri_MSFontService, sans-serif"
         font-weight="400"
         font-size="16px"
         transform="translate(485.254,123)"
         id="text42">Operations</text>
      <rect
         x="455.5"
         y="132.5"
         width="140"
         height="112"
         stroke="#000000"
         stroke-width="0.666667"
         stroke-linejoin="round"
         stroke-miterlimit="10"
         fill="none"
         id="rect42" />
      <text
         fill="#660066"
         font-family="Calibri, Calibri_MSFontService, sans-serif"
         font-weight="400"
         font-size="16px"
         transform="translate(470.864,152)"
         id="text43">Initialize Object</text>
      <text
         fill="#660066"
         font-family="Calibri, Calibri_MSFontService, sans-serif"
         font-weight="400"
         font-size="16px"
         transform="translate(481.251,171)"
         id="text44">Dereference</text>
      <text
         fill="#660066"
         font-family="Calibri, Calibri_MSFontService, sans-serif"
         font-weight="400"
         font-size="16px"
         transform="translate(504.991,190)"
         id="text45">Read</text>
      <text
         fill="#660066"
         font-family="Calibri, Calibri_MSFontService, sans-serif"
         font-weight="400"
         font-size="16px"
         transform="translate(503.171,210)"
         id="text46">Write</text>
      <text
         fill="#660066"
         font-family="Calibri, Calibri_MSFontService, sans-serif"
         font-weight="400"
         font-size="16px"
         transform="translate(504.517,229)"
         id="text47">Clear</text>
      <text
         font-family="Calibri, Calibri_MSFontService, sans-serif"
         font-weight="400"
         font-size="16px"
         transform="translate(489.764,286)"
         id="text48">Operands</text>
      <rect
         x="455.5"
         y="296.5"
         width="140"
         height="90"
         stroke="#000000"
         stroke-width="0.666667"
         stroke-linejoin="round"
         stroke-miterlimit="10"
         fill="none"
         id="rect48" />
      <text
         fill="#660066"
         font-family="Calibri, Calibri_MSFontService, sans-serif"
         font-weight="400"
         font-size="16px"
         transform="translate(506.101,316)"
         id="text49">Data</text>
      <text
         fill="#660066"
         font-family="Calibri, Calibri_MSFontService, sans-serif"
         font-weight="400"
         font-size="16px"
         transform="translate(505.881,335)"
         id="text50">Type</text>
      <text
         fill="#660066"
         font-family="Calibri, Calibri_MSFontService, sans-serif"
         font-weight="400"
         font-size="16px"
         transform="translate(495.207,354)"
         id="text51">Address</text>
      <text
         fill="#660066"
         font-family="Calibri, Calibri_MSFontService, sans-serif"
         font-weight="400"
         font-size="16px"
         transform="translate(508.694,374)"
         id="text52">Size</text>
    </g>
  </g>
</svg>
