<?xml version="1.0" encoding="UTF-8" standalone="no"?>
<!-- Created with Inkscape (http://www.inkscape.org/) -->

<svg
   width="277.8125mm"
   height="217.48694mm"
   viewBox="0 0 277.8125 217.48693"
   version="1.1"
   id="svg1"
   inkscape:version="1.3.2 (091e20e, 2023-11-25, custom)"
   sodipodi:docname="MUS.svg"
   xmlns:inkscape="http://www.inkscape.org/namespaces/inkscape"
   xmlns:sodipodi="http://sodipodi.sourceforge.net/DTD/sodipodi-0.dtd"
   xmlns="http://www.w3.org/2000/svg"
   xmlns:svg="http://www.w3.org/2000/svg">
  <sodipodi:namedview
     id="namedview1"
     pagecolor="#ffffff"
     bordercolor="#000000"
     borderopacity="0.25"
     inkscape:showpageshadow="2"
     inkscape:pageopacity="0.0"
     inkscape:pagecheckerboard="0"
     inkscape:deskcolor="#d1d1d1"
     inkscape:document-units="mm"
     inkscape:zoom="1.0289025"
     inkscape:cx="86.013979"
     inkscape:cy="288.17113"
     inkscape:window-width="2560"
     inkscape:window-height="1377"
     inkscape:window-x="-8"
     inkscape:window-y="859"
     inkscape:window-maximized="1"
     inkscape:current-layer="layer1" />
  <defs
     id="defs1">
    <clipPath
       id="clip0">
      <rect
         x="356"
         y="415"
         width="3571"
         height="3658"
         id="rect1" />
    </clipPath>
    <clipPath
       id="clip0-0">
      <rect
         x="356"
         y="415"
         width="3571"
         height="3658"
         id="rect1-9" />
    </clipPath>
    <clipPath
       id="clip0-4">
      <rect
         x="356"
         y="415"
         width="4501"
         height="3658"
         id="rect1-5" />
    </clipPath>
  </defs>
  <g
     inkscape:label="Layer 1"
     inkscape:groupmode="layer"
     id="layer1"
     transform="translate(-298.84729,-458.68234)">
    <g
       transform="matrix(0.26458333,0,0,0.26458333,298.84729,456.34463)"
       id="g85">
      <text
         font-family="Calibri, Calibri_MSFontService, sans-serif"
         font-weight="400"
         font-size="19px"
         transform="translate(441.086,22)"
         id="text1">Bugs Framework (BF)</text>
      <text
         font-family="Calibri, Calibri_MSFontService, sans-serif"
         font-weight="400"
         font-size="16px"
         transform="translate(356.313,65)"
         id="text2">Memory Corruption/Disclosure (_MEM) Class Type</text>
      <text
         fill="#660066"
         font-family="Calibri, Calibri_MSFontService, sans-serif"
         font-weight="400"
         font-size="16px"
         transform="translate(438.726,84)"
         id="text3">Memory Use (MUS) Class</text>
      <text
         font-family="Calibri, Calibri_MSFontService, sans-serif"
         font-weight="400"
         font-size="16px"
         transform="translate(148.645,115)"
         id="text4">Causes</text>
      <path
         d="M 0,143.667 C 0,137.224 5.22352,132 11.667,132 h 326.666 c 6.443,0 11.667,5.224 11.667,11.667 v 46.666 C 350,196.776 344.776,202 338.333,202 H 11.667 C 5.22352,202 0,196.776 0,190.333 Z"
         fill="#e8effc"
         fill-rule="evenodd"
         id="path4" />
      <text
         font-family="Calibri, Calibri_MSFontService, sans-serif"
         font-weight="400"
         font-size="16px"
         transform="translate(5.48231,152)"
         id="text5">Code Bug</text>
      <text
         fill="#660066"
         font-family="Calibri, Calibri_MSFontService, sans-serif"
         font-weight="400"
         font-size="16px"
         transform="translate(250.316,171)"
         id="text6">Missing Code</text>
      <text
         fill="#660066"
         font-family="Calibri, Calibri_MSFontService, sans-serif"
         font-weight="400"
         font-size="16px"
         transform="translate(233.242,190)"
         id="text7">Erroneous Code</text>
      <path
         d="m 350.514,167.167 5.44,0.236 5.296,0.669 4.954,1.04 4.443,1.35 3.764,1.601 c 0.015,0.007 0.03,0.015 0.044,0.023 l 2.877,1.774 c 0.023,0.014 0.044,0.031 0.063,0.051 l 1.852,1.897 c 0.035,0.036 0.061,0.079 0.077,0.127 l 0.655,1.958 0.655,1.958 -0.077,-0.127 1.851,1.897 -0.064,-0.051 2.877,1.774 -0.045,-0.023 3.731,1.589 4.381,1.331 4.898,1.028 4.025,0.433 -0.071,0.662 -4.091,-0.443 -4.955,-1.042 -4.448,-1.356 -3.731,-1.589 c -0.015,-0.006 -0.03,-0.014 -0.044,-0.023 l -2.877,-1.774 c -0.023,-0.014 -0.044,-0.031 -0.063,-0.05 l -1.851,-1.897 c -0.036,-0.036 -0.062,-0.08 -0.078,-0.127 l -0.655,-1.959 -0.655,-1.958 0.077,0.127 -1.851,-1.896 0.064,0.05 -2.877,-1.773 0.045,0.023 -3.697,-1.577 -4.386,-1.336 -4.9,-1.031 -5.242,-0.664 -5.439,-0.236 z m 50.61,16.783 7.702,4.547 -8.259,3.433 z"
         id="path7" />
      <path
         d="M 0,228.667 C 0,222.224 5.22352,217 11.667,217 h 326.666 c 6.443,0 11.667,5.224 11.667,11.667 v 46.666 C 350,281.776 344.776,287 338.333,287 H 11.667 C 5.22352,287 0,281.776 0,275.333 Z"
         fill="#f4f2f8"
         fill-rule="evenodd"
         id="path8" />
      <text
         font-family="Calibri, Calibri_MSFontService, sans-serif"
         font-weight="400"
         font-size="16px"
         transform="translate(5.48231,237)"
         id="text8">Data Fault</text>
      <text
         fill="#660066"
         font-family="Calibri, Calibri_MSFontService, sans-serif"
         font-weight="400"
         font-size="16px"
         transform="translate(215.082,256)"
         id="text9">Forbidden Address</text>
      <text
         fill="#660066"
         font-family="Calibri, Calibri_MSFontService, sans-serif"
         font-weight="400"
         font-size="16px"
         transform="translate(264.902,275)"
         id="text10">Wrong Size</text>
      <path
         d="m 0.022377,-0.332581 2.730473,0.183714 2.75138,0.541083 c 0.01886,0.003728 0.0374,0.009091 0.05534,0.016012 L 10.8283,2.44081 c 0.0209,0.00808 0.041,0.01825 0.0599,0.03037 l 4.9269,3.15832 c 0.0167,0.01069 0.0324,0.02282 0.0469,0.03629 l 4.4143,4.09644 c 0.0136,0.01261 0.0261,0.02631 0.0374,0.04101 l 3.7308,4.84696 c 0.0114,0.0147 0.0215,0.0304 0.0302,0.0468 l 2.8764,5.4098 c 0.0094,0.0176 0.0171,0.0359 0.0232,0.0549 l 1.8511,5.785 c 0.0068,0.0213 0.0115,0.0431 0.0139,0.0653 l 0.655,5.9727 0.6551,5.9726 -0.0139,-0.0652 1.8512,5.785 -0.0232,-0.0549 2.8764,5.4098 -0.0301,-0.0468 3.7308,4.8469 -0.0374,-0.041 4.4143,4.0964 -0.0468,-0.0363 4.9269,3.1584 -0.0752,-0.0359 4.1834,1.384 -0.2094,0.633 -4.1834,-1.384 C 47.4865,61.5979 47.4613,61.5859 47.4378,61.5708 L 42.5109,58.4125 C 42.4942,58.4018 42.4785,58.3897 42.464,58.3762 l -4.4143,-4.0964 c -0.0136,-0.0126 -0.0261,-0.0264 -0.0374,-0.041 l -3.7308,-4.847 C 34.2701,49.3771 34.26,49.3614 34.2513,49.345 l -2.8764,-5.4098 c -0.0094,-0.0176 -0.0171,-0.036 -0.0232,-0.0549 l -1.8512,-5.785 C 29.4937,38.074 29.4891,38.0522 29.4867,38.03 l -0.6551,-5.9727 -0.655,-5.9726 0.0139,0.0652 -1.8512,-5.785 0.0232,0.0549 -2.8764,-5.4098 0.0301,0.0468 -3.7308,-4.8469 0.0374,0.041 L 15.4085,6.15446 15.4554,6.19075 10.5284,3.03243 10.5883,3.0628 5.31962,1.03021 5.37495,1.04623 2.7081,0.516296 -0.022377,0.332581 Z M 51.3168,58.4857 58.326,64.042 49.6755,66.3156 Z"
         transform="matrix(1,0,0,-1,350.5,252.542)"
         id="path10" />
      <path
         d="M 0,310.167 C 0,305.656 3.65634,302 8.16667,302 H 341.833 c 4.511,0 8.167,3.656 8.167,8.167 v 32.666 c 0,4.511 -3.656,8.167 -8.167,8.167 H 8.16667 C 3.65634,351 0,347.344 0,342.833 Z"
         fill="#f4f2f8"
         fill-rule="evenodd"
         id="path11" />
      <text
         font-family="Calibri, Calibri_MSFontService, sans-serif"
         font-weight="400"
         font-size="16px"
         transform="translate(4.45722,321)"
         id="text11">Type Fault</text>
      <text
         fill="#660066"
         font-family="Calibri, Calibri_MSFontService, sans-serif"
         font-weight="400"
         font-size="16px"
         transform="translate(243.451,340)"
         id="text12">Casted Pointer</text>
      <path
         d="M 0.0480256,-0.329855 2.7785,0.06769 C 2.80708,0.0718517 2.835,0.0797122 2.86156,0.091072 L 5.57067,1.24987 c 0.0212,0.00907 0.04138,0.0203 0.06026,0.03354 l 2.66639,1.86931 c 0.01453,0.01018 0.02825,0.02153 0.04097,0.0339 l 2.60231,2.52906 2.5446,3.16856 2.4293,3.72286 2.2956,4.2268 2.1426,4.681 1.9692,5.0849 1.7754,5.4388 2.8832,11.7303 1.8572,12.5492 0.6582,12.9564 0.655,12.9244 1.848,12.4866 2.8704,11.6755 1.7625,5.398 1.9555,5.05 2.1246,4.642 2.2718,4.184 2.3963,3.673 2.4977,3.111 2.5746,2.499 -0.0822,-0.059 1.9107,0.964 -0.3002,0.595 -1.9107,-0.963 c -0.0302,-0.016 -0.0579,-0.035 -0.0822,-0.059 l -2.63,-2.559 -2.5361,-3.165 -2.4238,-3.719 -2.2921,-4.225 -2.1401,-4.679 L 35.998,111.966 34.2219,106.52 31.3394,94.783 29.4851,82.2327 28.8301,69.3082 28.1782,56.4156 26.3331,43.928 23.4635,32.2454 21.7002,26.8405 19.7464,21.7922 17.6242,17.152 15.356,12.9712 12.9651,9.30135 10.476,6.19377 7.87366,3.6647 7.91462,3.6986 5.24823,1.82929 5.30849,1.86282 2.59938,0.704019 2.68244,0.727401 -0.0480256,0.329855 Z M 52.369,131.911 l 5.957,6.672 -8.9117,0.762 z"
         transform="matrix(1,0,0,-1,350.5,327.083)"
         id="path12" />
      <path
         d="M 0,395.167 C 0,379.059 13.0585,366 29.167,366 H 320.833 C 336.941,366 350,379.059 350,395.167 V 511.833 C 350,527.941 336.941,541 320.833,541 H 29.167 C 13.0585,541 0,527.941 0,511.833 Z"
         fill="#f4f2f8"
         fill-rule="evenodd"
         id="path13" />
      <text
         font-family="Calibri, Calibri_MSFontService, sans-serif"
         font-weight="400"
         font-size="16px"
         transform="translate(10.6073,391)"
         id="text13">Address Fault</text>
      <text
         fill="#660066"
         font-family="Calibri, Calibri_MSFontService, sans-serif"
         font-weight="400"
         font-size="16px"
         transform="translate(247.081,410)"
         id="text14">NULL Pointer</text>
      <text
         fill="#660066"
         font-family="Calibri, Calibri_MSFontService, sans-serif"
         font-weight="400"
         font-size="16px"
         transform="translate(251.247,429)"
         id="text15">Wild Pointer</text>
      <text
         fill="#660066"
         font-family="Calibri, Calibri_MSFontService, sans-serif"
         font-weight="400"
         font-size="16px"
         transform="translate(224.581,449)"
         id="text16">Dangling Pointer</text>
      <text
         fill="#660066"
         font-family="Calibri, Calibri_MSFontService, sans-serif"
         font-weight="400"
         font-size="16px"
         transform="translate(215.747,468)"
         id="text17">Untrusted Pointer</text>
      <text
         fill="#660066"
         font-family="Calibri, Calibri_MSFontService, sans-serif"
         font-weight="400"
         font-size="16px"
         transform="translate(197.734,487)"
         id="text18">Over Bounds Pointer</text>
      <text
         fill="#660066"
         font-family="Calibri, Calibri_MSFontService, sans-serif"
         font-weight="400"
         font-size="16px"
         transform="translate(188.414,506)"
         id="text19">Under Bounds Pointer</text>
      <text
         fill="#660066"
         font-family="Calibri, Calibri_MSFontService, sans-serif"
         font-weight="400"
         font-size="16px"
         transform="translate(181.794,525)"
         id="text20">Wrong Position Pointer</text>
      <path
         d="M 0.0464991,-0.330074 1.41308,-0.137557 c 0.02816,0.003966 0.05569,0.011519 0.08193,0.022474 L 2.85892,0.454362 C 2.88883,0.466851 2.91676,0.483634 2.94183,0.504185 L 5.65096,2.72522 c 0.02101,0.01723 0.03985,0.03697 0.05607,0.05877 l 2.66641,3.58285 c 0.00977,0.01313 0.01853,0.02692 0.02628,0.04134 l 2.60228,4.84742 2.5307,6.0436 2.4182,7.1059 2.287,8.0739 2.1359,8.9462 1.9641,9.7224 1.7711,10.4019 1.5571,10.9847 1.3219,11.4705 1.0652,11.8592 0.7874,12.1511 0.6556,24.785 0.655,24.771 0.7862,12.13 1.0638,11.843 1.3199,11.454 1.5546,10.967 1.7679,10.382 1.9596,9.701 2.1299,8.922 2.2784,8.043 2.405,7.069 2.5088,5.993 2.5885,4.818 -0.0504,-0.07 2.6122,2.789 -0.4866,0.456 -2.6122,-2.789 c -0.0198,-0.021 -0.0367,-0.045 -0.0504,-0.07 l -2.6161,-4.877 -2.525,-6.036 -2.4152,-7.101 -2.2854,-8.071 -2.135,-8.944 -1.9634,-9.721 -1.7707,-10.401 -1.5568,-10.984 -1.3216,-11.47 -1.0651,-11.859 -0.7873,-12.156 -0.655,-24.772 L 28.1753,108.058 27.3892,95.9236 26.3257,84.081 25.0061,72.6277 23.4518,61.6614 21.6844,51.2796 19.7254,41.58 17.5965,32.6607 15.3197,24.6198 12.9177,17.5565 10.4147,11.5709 7.81234,6.72351 7.83862,6.76485 5.17222,3.18201 5.22829,3.24078 2.51916,1.01974 2.60207,1.06956 1.23816,0.500117 1.32008,0.522591 -0.0464991,0.330074 Z M 53.9996,257.788 l 4.3264,7.829 -8.8585,-1.236 z"
         transform="matrix(1,0,0,-1,350.5,454.117)"
         id="path20" />
      <path
         d="M 0,564.167 C 0,559.656 3.65634,556 8.16667,556 H 341.833 c 4.511,0 8.167,3.656 8.167,8.167 v 32.666 c 0,4.511 -3.656,8.167 -8.167,8.167 H 8.16667 C 3.65634,605 0,601.344 0,596.833 Z"
         fill="#f4f2f8"
         fill-rule="evenodd"
         id="path21" />
      <text
         font-family="Calibri, Calibri_MSFontService, sans-serif"
         font-weight="400"
         font-size="16px"
         transform="translate(4.45722,575)"
         id="text21">Size Fault</text>
      <text
         fill="#660066"
         font-family="Calibri, Calibri_MSFontService, sans-serif"
         font-weight="400"
         font-size="16px"
         transform="translate(201.877,594)"
         id="text22">Not Enough Memory</text>
      <path
         d="M 0.0679592,-0.326332 1.43453,-0.0417417 c 0.03791,0.007895 0.07416,0.0223366 0.10711,0.04267515 L 2.90554,0.842722 C 2.92832,0.856783 2.94932,0.87353 2.9681,0.892616 L 4.32666,2.27363 C 4.33912,2.28629 4.35054,2.29994 4.36083,2.31442 L 5.71138,4.21668 7.07066,6.65299 8.40893,9.56701 9.727,12.943 l 1.2969,3.8216 1.2741,4.2503 1.2491,4.6618 1.2218,5.0557 1.1919,5.432 2.2837,11.9196 2.1341,13.2146 1.9627,14.3633 1.7702,15.3689 1.5564,16.2312 1.3212,16.949 1.0648,17.525 0.7871,17.956 0.6553,36.627 0.655,36.62 0.7865,17.941 1.0641,17.513 1.3203,16.938 1.5552,16.219 1.7686,15.356 1.9607,14.348 2.1312,13.197 2.2802,11.901 1.1886,5.417 1.2181,5.041 1.2444,4.644 1.2678,4.229 1.2882,3.797 1.3053,3.344 1.319,2.873 -0.0385,-0.064 1.8149,2.366 -0.5289,0.405 -1.8149,-2.365 c -0.0152,-0.02 -0.0281,-0.042 -0.0385,-0.064 l -1.3341,-2.909 -1.3156,-3.372 -1.2955,-3.819 -1.2731,-4.248 -1.2485,-4.661 -1.2213,-5.054 -1.1921,-5.434 -2.2836,-11.921 -2.1336,-13.213 -1.9624,-14.362 -1.77,-15.368 -1.5562,-16.231 -1.3211,-16.949 -1.0647,-17.524 -0.7871,-17.959 -0.655,-36.62 -0.6548,-36.61 -0.7864,-17.945 -1.064,-17.513 L 25.0042,107.325 23.4492,91.1071 21.6808,75.7522 19.7205,61.4048 17.5898,48.2094 15.3096,36.3073 14.1209,30.889 12.9032,25.8492 11.6594,21.2063 10.3926,16.9788 9.10595,13.1854 7.80301,9.84505 6.48824,6.97739 5.16778,4.60262 3.81723,2.70036 3.8514,2.74115 2.49284,1.36014 2.5554,1.41004 1.1915,0.568247 1.29861,0.610923 -0.0679592,0.326332 Z M 55.0383,384.333 l 3.2877,8.318 -8.6271,-2.361 z"
         transform="matrix(1,0,0,-1,350.5,581.151)"
         id="path22" />
      <text
         font-family="Calibri, Calibri_MSFontService, sans-serif"
         font-weight="400"
         font-size="16px"
         transform="translate(824.224,115)"
         id="text23">Consequences</text>
      <path
         d="m 700,140.167 c 0,-4.511 3.656,-8.167 8.167,-8.167 h 333.663 c 4.51,0 8.17,3.656 8.17,8.167 v 32.666 c 0,4.511 -3.66,8.167 -8.17,8.167 H 708.167 C 703.656,181 700,177.344 700,172.833 Z"
         fill="#f4f2f8"
         fill-rule="evenodd"
         id="path23" />
      <text
         font-family="Calibri, Calibri_MSFontService, sans-serif"
         font-weight="400"
         font-size="16px"
         transform="translate(704.37,151)"
         id="text24">Data Error</text>
      <text
         fill="#660066"
         font-family="Calibri, Calibri_MSFontService, sans-serif"
         font-weight="400"
         font-size="16px"
         transform="translate(910.563,170)"
         id="text25">Uninitialized Object</text>
      <path
         d="M 0.0216297,-0.332631 5.46122,0.0210855 10.7704,1.02586 l 4.9651,1.56286 4.4525,2.0293 3.7719,2.4061 c 0.0167,0.01065 0.0323,0.02275 0.0469,0.03618 l 2.8764,2.66057 c 0.0202,0.01869 0.038,0.03983 0.053,0.06291 l 1.8512,2.84512 c 0.0217,0.0334 0.0373,0.0704 0.046,0.1092 l 0.655,2.9374 0.655,2.9374 -0.0459,-0.1093 1.8511,2.8451 -0.053,-0.0629 2.8764,2.6606 -0.0468,-0.0362 3.7308,2.3837 4.3732,1.9923 4.8888,1.5386 -0.0469,-0.0111 4.0777,0.6606 -0.1066,0.6581 -4.0777,-0.6606 C 47.5486,30.4692 47.5329,30.4655 47.5176,30.4606 L 42.5524,28.8927 38.097,26.8557 34.3662,24.472 c -0.0167,-0.0107 -0.0323,-0.0228 -0.0469,-0.0362 l -2.8764,-2.6606 c -0.0202,-0.0187 -0.038,-0.0398 -0.0531,-0.0629 L 29.5387,18.8672 C 29.517,18.8338 29.5014,18.7968 29.4927,18.758 l -0.655,-2.9374 -0.655,-2.9374 0.0459,0.1093 -1.8512,-2.8451 0.0531,0.0629 L 23.5541,7.54972 23.6009,7.5859 19.9112,5.22451 15.535,3.22453 10.6462,1.68084 5.41796,0.686347 -0.0216297,0.332631 Z M 50.785,26.6864 l 7.5411,4.8097 -8.3723,3.147 z"
         transform="matrix(1,0,0,-1,642.5,187.996)"
         id="path25" />
      <path
         d="M 700,239.167 C 700,215.327 719.327,196 743.167,196 h 263.663 c 23.84,0 43.17,19.327 43.17,43.167 v 172.666 c 0,23.84 -19.33,43.167 -43.17,43.167 H 743.167 C 719.327,455 700,435.673 700,411.833 Z"
         fill="#dfdaea"
         fill-rule="evenodd"
         id="path26" />
      <text
         font-family="Calibri, Calibri_MSFontService, sans-serif"
         font-weight="400"
         font-size="16px"
         transform="translate(714.62,225)"
         id="text26">Memory Corruption/Disclosure Final Error</text>
      <text
         fill="#660066"
         font-family="Calibri, Calibri_MSFontService, sans-serif"
         font-weight="400"
         font-size="16px"
         transform="translate(903.666,244)"
         id="text27">Not Cleared Object</text>
      <text
         fill="#660066"
         font-family="Calibri, Calibri_MSFontService, sans-serif"
         font-weight="400"
         font-size="16px"
         transform="translate(859.393,263)"
         id="text28">NULL Pointer Dereference</text>
      <text
         fill="#660066"
         font-family="Calibri, Calibri_MSFontService, sans-serif"
         font-weight="400"
         font-size="16px"
         transform="translate(828.06,283)"
         id="text29">Untrusted Pointer Dereference</text>
      <text
         fill="#660066"
         font-family="Calibri, Calibri_MSFontService, sans-serif"
         font-weight="400"
         font-size="16px"
         transform="translate(910.526,302)"
         id="text30">Object Corruption</text>
      <text
         fill="#660066"
         font-family="Calibri, Calibri_MSFontService, sans-serif"
         font-weight="400"
         font-size="16px"
         transform="translate(928.106,321)"
         id="text31">Type Confusion</text>
      <text
         fill="#660066"
         font-family="Calibri, Calibri_MSFontService, sans-serif"
         font-weight="400"
         font-size="16px"
         transform="translate(894.08,340)"
         id="text32">Use After Deallocate</text>
      <text
         fill="#660066"
         font-family="Calibri, Calibri_MSFontService, sans-serif"
         font-weight="400"
         font-size="16px"
         transform="translate(924.72,359)"
         id="text33">Buffer Overflow</text>
      <text
         fill="#660066"
         font-family="Calibri, Calibri_MSFontService, sans-serif"
         font-weight="400"
         font-size="16px"
         transform="translate(915.4,379)"
         id="text34">Buffer Underflow</text>
      <text
         fill="#660066"
         font-family="Calibri, Calibri_MSFontService, sans-serif"
         font-weight="400"
         font-size="16px"
         transform="translate(915.94,398)"
         id="text35">Buffer Over</text>
      <text
         fill="#660066"
         font-family="Calibri, Calibri_MSFontService, sans-serif"
         font-weight="400"
         font-size="16px"
         transform="translate(990.4,398)"
         id="text36">-</text>
      <text
         fill="#660066"
         font-family="Calibri, Calibri_MSFontService, sans-serif"
         font-weight="400"
         font-size="16px"
         transform="translate(995.233,398)"
         id="text37">Read</text>
      <text
         fill="#660066"
         font-family="Calibri, Calibri_MSFontService, sans-serif"
         font-weight="400"
         font-size="16px"
         transform="translate(906.62,417)"
         id="text38">Buffer Under</text>
      <text
         fill="#660066"
         font-family="Calibri, Calibri_MSFontService, sans-serif"
         font-weight="400"
         font-size="16px"
         transform="translate(990.4,417)"
         id="text39">-</text>
      <text
         fill="#660066"
         font-family="Calibri, Calibri_MSFontService, sans-serif"
         font-weight="400"
         font-size="16px"
         transform="translate(995.233,417)"
         id="text40">Read</text>
      <text
         fill="#660066"
         font-family="Calibri, Calibri_MSFontService, sans-serif"
         font-weight="400"
         font-size="16px"
         transform="translate(812.753,436)"
         id="text41">Uninitialized Pointer Dereference</text>
      <path
         d="m 642.548,188.17 2.73,0.395 c 0.029,0.004 0.056,0.012 0.083,0.023 l 2.709,1.15 c 0.021,0.009 0.041,0.02 0.06,0.033 l 2.666,1.855 c 0.015,0.01 0.029,0.022 0.041,0.034 l 2.603,2.51 2.545,3.144 2.429,3.695 2.296,4.195 2.142,4.646 1.97,5.047 1.775,5.397 2.883,11.642 1.858,12.455 0.658,12.858 0.655,12.827 1.848,12.391 2.87,11.587 1.763,5.357 1.955,5.011 2.125,4.607 2.271,4.152 2.397,3.645 2.497,3.088 2.575,2.479 -0.083,-0.058 1.905,0.952 -0.298,0.596 -1.905,-0.952 c -0.03,-0.015 -0.058,-0.034 -0.082,-0.058 l -2.63,-2.54 -2.537,-3.141 -2.424,-3.691 -2.292,-4.193 -2.14,-4.644 -1.968,-5.045 -1.776,-5.405 -2.882,-11.648 -1.855,-12.456 -0.655,-12.827 -0.652,-12.794 -1.845,-12.393 -2.869,-11.593 -1.763,-5.364 -1.954,-5.01 -2.122,-4.605 -2.268,-4.149 -2.391,-3.642 -2.489,-3.083 -2.602,-2.51 0.041,0.033 -2.667,-1.855 0.06,0.033 -2.709,-1.15 0.083,0.023 -2.731,-0.394 z m 52.306,131.205 5.972,6.658 -8.91,0.783 z"
         id="path41" />
      <text
         font-family="Calibri, Calibri_MSFontService, sans-serif"
         font-weight="400"
         font-size="16px"
         transform="translate(485.254,115)"
         id="text42">Operations</text>
      <rect
         x="408.5"
         y="132.5"
         width="234"
         height="112"
         stroke="#000000"
         stroke-width="0.666667"
         stroke-linejoin="round"
         stroke-miterlimit="10"
         fill="none"
         id="rect42" />
      <text
         fill="#660066"
         font-family="Calibri, Calibri_MSFontService, sans-serif"
         font-weight="400"
         font-size="16px"
         transform="translate(470.864,152)"
         id="text43">Initialize Object</text>
      <text
         fill="#660066"
         font-family="Calibri, Calibri_MSFontService, sans-serif"
         font-weight="400"
         font-size="16px"
         transform="translate(481.251,171)"
         id="text44">Dereference</text>
      <text
         fill="#660066"
         font-family="Calibri, Calibri_MSFontService, sans-serif"
         font-weight="400"
         font-size="16px"
         transform="translate(504.991,190)"
         id="text45">Read</text>
      <text
         fill="#660066"
         font-family="Calibri, Calibri_MSFontService, sans-serif"
         font-weight="400"
         font-size="16px"
         transform="translate(503.171,210)"
         id="text46">Write</text>
      <text
         fill="#660066"
         font-family="Calibri, Calibri_MSFontService, sans-serif"
         font-weight="400"
         font-size="16px"
         transform="translate(504.517,229)"
         id="text47">Clear</text>
      <text
         font-family="Calibri, Calibri_MSFontService, sans-serif"
         font-weight="400"
         font-size="16px"
         transform="translate(489.764,279)"
         id="text48">Operands</text>
      <rect
         x="408.5"
         y="296.5"
         width="234"
         height="90"
         stroke="#000000"
         stroke-width="0.666667"
         stroke-linejoin="round"
         stroke-miterlimit="10"
         fill="none"
         id="rect48" />
      <text
         fill="#660066"
         font-family="Calibri, Calibri_MSFontService, sans-serif"
         font-weight="400"
         font-size="16px"
         transform="translate(506.101,316)"
         id="text49">Data</text>
      <text
         fill="#660066"
         font-family="Calibri, Calibri_MSFontService, sans-serif"
         font-weight="400"
         font-size="16px"
         transform="translate(505.881,335)"
         id="text50">Type</text>
      <text
         fill="#660066"
         font-family="Calibri, Calibri_MSFontService, sans-serif"
         font-weight="400"
         font-size="16px"
         transform="translate(495.207,354)"
         id="text51">Address</text>
      <text
         fill="#660066"
         font-family="Calibri, Calibri_MSFontService, sans-serif"
         font-weight="400"
         font-size="16px"
         transform="translate(508.694,374)"
         id="text52">Size</text>
      <text
         fill="#7f7f7f"
         font-family="Calibri, Calibri_MSFontService, sans-serif"
         font-weight="400"
         font-size="13px"
         transform="translate(960.6,624)"
         id="text53">BF, I. Bojanova</text>
      <text
         font-family="Calibri, Calibri_MSFontService, sans-serif"
         font-weight="400"
         font-size="16px"
         transform="translate(488.838,640)"
         id="text54">Attributes</text>
      <text
         font-family="Calibri, Calibri_MSFontService, sans-serif"
         font-weight="400"
         font-size="16px"
         transform="translate(2.09974,677)"
         id="text55">Mechanism</text>
      <text
         fill="#660066"
         font-family="Calibri, Calibri_MSFontService, sans-serif"
         font-weight="400"
         font-size="16px"
         transform="translate(2.09974,696)"
         id="text56">Direct</text>
      <text
         fill="#660066"
         font-family="Calibri, Calibri_MSFontService, sans-serif"
         font-weight="400"
         font-size="16px"
         transform="translate(2.09974,715)"
         id="text57">Sequential</text>
      <text
         font-family="Calibri, Calibri_MSFontService, sans-serif"
         font-weight="400"
         font-size="16px"
         transform="translate(180.577,677)"
         id="text58">Source Code</text>
      <text
         fill="#660066"
         font-family="Calibri, Calibri_MSFontService, sans-serif"
         font-weight="400"
         font-size="16px"
         transform="translate(180.577,696)"
         id="text59">Codebase</text>
      <text
         fill="#660066"
         font-family="Calibri, Calibri_MSFontService, sans-serif"
         font-weight="400"
         font-size="16px"
         transform="translate(180.577,715)"
         id="text60">Third</text>
      <text
         fill="#660066"
         font-family="Calibri, Calibri_MSFontService, sans-serif"
         font-weight="400"
         font-size="16px"
         transform="translate(214.024,715)"
         id="text61">-</text>
      <text
         fill="#660066"
         font-family="Calibri, Calibri_MSFontService, sans-serif"
         font-weight="400"
         font-size="16px"
         transform="translate(218.857,715)"
         id="text62">Party</text>
      <text
         fill="#660066"
         font-family="Calibri, Calibri_MSFontService, sans-serif"
         font-weight="400"
         font-size="16px"
         transform="translate(180.577,735)"
         id="text63">Standard Library</text>
      <text
         fill="#660066"
         font-family="Calibri, Calibri_MSFontService, sans-serif"
         font-weight="400"
         font-size="16px"
         transform="translate(180.577,754)"
         id="text64">Compiler/Interpreter</text>
      <text
         font-family="Calibri, Calibri_MSFontService, sans-serif"
         font-weight="400"
         font-size="16px"
         transform="translate(359.055,677)"
         id="text65">Execution Space</text>
      <text
         fill="#660066"
         font-family="Calibri, Calibri_MSFontService, sans-serif"
         font-weight="400"
         font-size="16px"
         transform="translate(359.055,696)"
         id="text66">Userland</text>
      <text
         fill="#660066"
         font-family="Calibri, Calibri_MSFontService, sans-serif"
         font-weight="400"
         font-size="16px"
         transform="translate(359.055,715)"
         id="text67">Kernel</text>
      <text
         fill="#660066"
         font-family="Calibri, Calibri_MSFontService, sans-serif"
         font-weight="400"
         font-size="16px"
         transform="translate(359.055,735)"
         id="text68">Bare</text>
      <text
         fill="#660066"
         font-family="Calibri, Calibri_MSFontService, sans-serif"
         font-weight="400"
         font-size="16px"
         transform="translate(388.675,735)"
         id="text69">-</text>
      <text
         fill="#660066"
         font-family="Calibri, Calibri_MSFontService, sans-serif"
         font-weight="400"
         font-size="16px"
         transform="translate(393.508,735)"
         id="text70">Metal</text>
      <text
         font-family="Calibri, Calibri_MSFontService, sans-serif"
         font-weight="400"
         font-size="16px"
         transform="translate(537.533,677)"
         id="text71">Address Kind</text>
      <text
         fill="#660066"
         font-family="Calibri, Calibri_MSFontService, sans-serif"
         font-weight="400"
         font-size="16px"
         transform="translate(537.533,696)"
         id="text72">Huge</text>
      <text
         fill="#660066"
         font-family="Calibri, Calibri_MSFontService, sans-serif"
         font-weight="400"
         font-size="16px"
         transform="translate(537.533,715)"
         id="text73">Moderate</text>
      <text
         fill="#660066"
         font-family="Calibri, Calibri_MSFontService, sans-serif"
         font-weight="400"
         font-size="16px"
         transform="translate(537.533,735)"
         id="text74">Little</text>
      <text
         font-family="Calibri, Calibri_MSFontService, sans-serif"
         font-weight="400"
         font-size="16px"
         transform="translate(716.01,677)"
         id="text75">Address State</text>
      <text
         fill="#660066"
         font-family="Calibri, Calibri_MSFontService, sans-serif"
         font-weight="400"
         font-size="16px"
         transform="translate(716.01,696)"
         id="text76">Stack</text>
      <text
         fill="#660066"
         font-family="Calibri, Calibri_MSFontService, sans-serif"
         font-weight="400"
         font-size="16px"
         transform="translate(716.01,715)"
         id="text77">Heap</text>
      <text
         fill="#660066"
         font-family="Calibri, Calibri_MSFontService, sans-serif"
         font-weight="400"
         font-size="16px"
         transform="translate(716.01,735)"
         id="text78">/other/</text>
      <text
         font-family="Calibri, Calibri_MSFontService, sans-serif"
         font-weight="400"
         font-size="16px"
         transform="translate(894.488,677)"
         id="text79">Size Kind</text>
      <text
         fill="#660066"
         font-family="Calibri, Calibri_MSFontService, sans-serif"
         font-weight="400"
         font-size="16px"
         transform="translate(894.488,696)"
         id="text80">Actual</text>
      <text
         fill="#660066"
         font-family="Calibri, Calibri_MSFontService, sans-serif"
         font-weight="400"
         font-size="16px"
         transform="translate(894.488,715)"
         id="text81">Used</text>
      <path
         d="M 0,807.5 C 0,805.015 2.01475,803 4.50007,803 H 37.4999 C 39.9852,803 42,805.015 42,807.5 v 18 c 0,2.485 -2.0148,4.5 -4.5001,4.5 H 4.50007 C 2.01475,830 0,827.985 0,825.5 Z"
         fill="#e8effc"
         fill-rule="evenodd"
         id="path81" />
      <text
         font-family="Calibri, Calibri_MSFontService, sans-serif"
         font-weight="400"
         font-size="16px"
         transform="translate(44.0945,823)"
         id="text82">Bug</text>
      <path
         d="m 262,807.5 c 0,-2.485 2.015,-4.5 4.5,-4.5 h 33 c 2.485,0 4.5,2.015 4.5,4.5 v 18 c 0,2.485 -2.015,4.5 -4.5,4.5 h -33 c -2.485,0 -4.5,-2.015 -4.5,-4.5 z"
         fill="#f4f2f8"
         fill-rule="evenodd"
         id="path82" />
      <text
         font-family="Calibri, Calibri_MSFontService, sans-serif"
         font-weight="400"
         font-size="16px"
         transform="translate(306.562,823)"
         id="text83">Fault/Error</text>
      <path
         d="m 525,807.5 c 0,-2.485 2.015,-4.5 4.5,-4.5 h 33 c 2.485,0 4.5,2.015 4.5,4.5 v 18 c 0,2.485 -2.015,4.5 -4.5,4.5 h -33 c -2.485,0 -4.5,-2.015 -4.5,-4.5 z"
         fill="#dfdaea"
         fill-rule="evenodd"
         id="path83" />
      <text
         font-family="Calibri, Calibri_MSFontService, sans-serif"
         font-weight="400"
         font-size="16px"
         transform="translate(569.029,823)"
         id="text84">Final Error</text>
      <rect
         x="787.5"
         y="803.5"
         width="42"
         height="27"
         stroke="#000000"
         stroke-width="0.666667"
         stroke-linejoin="round"
         stroke-miterlimit="10"
         fill="none"
         id="rect84" />
      <text
         font-family="Calibri, Calibri_MSFontService, sans-serif"
         font-weight="400"
         font-size="16px"
         transform="translate(831.496,823)"
         id="text85">Operation/Operand</text>
    </g>
  </g>
</svg>
