<?xml version="1.0" encoding="UTF-8" standalone="no"?>
<!-- Created with Inkscape (http://www.inkscape.org/) -->

<svg
   width="277.8125mm"
   height="202.40569mm"
   viewBox="0 0 277.81251 202.40569"
   version="1.1"
   id="svg1"
   inkscape:version="1.3.2 (091e20e, 2023-11-25, custom)"
   sodipodi:docname="TCM.svg"
   xmlns:inkscape="http://www.inkscape.org/namespaces/inkscape"
   xmlns:sodipodi="http://sodipodi.sourceforge.net/DTD/sodipodi-0.dtd"
   xmlns="http://www.w3.org/2000/svg"
   xmlns:svg="http://www.w3.org/2000/svg">
  <sodipodi:namedview
     id="namedview1"
     pagecolor="#ffffff"
     bordercolor="#000000"
     borderopacity="0.25"
     inkscape:showpageshadow="2"
     inkscape:pageopacity="0.0"
     inkscape:pagecheckerboard="0"
     inkscape:deskcolor="#d1d1d1"
     inkscape:document-units="mm"
     inkscape:zoom="1.0146815"
     inkscape:cx="525.28796"
     inkscape:cy="381.89322"
     inkscape:window-width="2560"
     inkscape:window-height="1377"
     inkscape:window-x="-8"
     inkscape:window-y="859"
     inkscape:window-maximized="1"
     inkscape:current-layer="layer1" />
  <defs
     id="defs1">
    <clipPath
       id="clip0">
      <rect
         x="-149"
         y="-84"
         width="1602"
         height="927"
         id="rect1" />
    </clipPath>
    <clipPath
       id="clip0-3">
      <rect
         x="235"
         y="-274"
         width="818"
         height="1766"
         id="rect1-3" />
    </clipPath>
    <clipPath
       id="clip0-9">
      <rect
         x="100"
         y="-246"
         width="975"
         height="1736"
         id="rect1-1" />
    </clipPath>
    <clipPath
       id="clip0-6">
      <rect
         x="100"
         y="-246"
         width="1140"
         height="1423"
         id="rect1-5" />
    </clipPath>
    <clipPath
       id="clip0-5">
      <rect
         x="127"
         y="18"
         width="986"
         height="424"
         id="rect1-7" />
    </clipPath>
    <clipPath
       id="clip0-61">
      <rect
         x="84"
         y="516"
         width="1057"
         height="382"
         id="rect1-0" />
    </clipPath>
    <clipPath
       id="clip0-95">
      <rect
         x="-8"
         y="-1"
         width="1058"
         height="838"
         id="rect1-18" />
    </clipPath>
    <clipPath
       id="clip0-32">
      <rect
         x="-8"
         y="-1"
         width="1058"
         height="647"
         id="rect1-33" />
    </clipPath>
    <clipPath
       id="clip0-8">
      <rect
         x="-8"
         y="-1"
         width="1062"
         height="780"
         id="rect1-4" />
    </clipPath>
  </defs>
  <g
     inkscape:label="Layer 1"
     inkscape:groupmode="layer"
     id="layer1"
     transform="translate(33.812014,-26.545799)">
    <g
       clip-path="url(#clip0-8)"
       transform="matrix(0.26458333,0,0,0.26458333,-33.812014,24.208086)"
       id="g73">
      <text
         font-family="Calibri, Calibri_MSFontService, sans-serif"
         font-weight="400"
         font-size="19px"
         transform="translate(441.086,22)"
         id="text1">Bugs Framework (BF)</text>
      <text
         font-family="Calibri, Calibri_MSFontService, sans-serif"
         font-weight="400"
         font-size="16px"
         transform="translate(430.32,65)"
         id="text2">Data Type (_DAT) Class Type</text>
      <text
         fill="#660066"
         font-family="Calibri, Calibri_MSFontService, sans-serif"
         font-weight="400"
         font-size="16px"
         transform="translate(421.96,84)"
         id="text3">Type Computation (TCM) Class</text>
      <text
         font-family="Calibri, Calibri_MSFontService, sans-serif"
         font-weight="400"
         font-size="16px"
         transform="translate(148.645,115)"
         id="text4">Causes</text>
      <path
         d="M 0,143.667 C 0,137.224 5.22352,132 11.667,132 h 326.666 c 6.443,0 11.667,5.224 11.667,11.667 v 46.666 C 350,196.776 344.776,202 338.333,202 H 11.667 C 5.22352,202 0,196.776 0,190.333 Z"
         fill="#e8effc"
         fill-rule="evenodd"
         id="path4" />
      <text
         font-family="Calibri, Calibri_MSFontService, sans-serif"
         font-weight="400"
         font-size="16px"
         transform="translate(5.48231,152)"
         id="text5">Code Bug</text>
      <text
         fill="#660066"
         font-family="Calibri, Calibri_MSFontService, sans-serif"
         font-weight="400"
         font-size="16px"
         transform="translate(256.542,171)"
         id="text6">Wrong Code</text>
      <text
         fill="#660066"
         font-family="Calibri, Calibri_MSFontService, sans-serif"
         font-weight="400"
         font-size="16px"
         transform="translate(233.242,190)"
         id="text7">Erroneous Code</text>
      <path
         d="m 0.0135547,-0.333058 10.7500453,0.4375 4.9616,0.564367 4.3844,0.626211 3.7735,0.81671 2.9015,0.88188 c 0.0178,0.00544 0.0352,0.01238 0.052,0.02075 l 1.875,0.9375 c 0.0548,0.02743 0.1011,0.06946 0.1336,0.12147 l 0.625,1 0.625,1 -0.1336,-0.12147 1.875,0.9375 -0.052,-0.02075 2.875,0.875 3.7235,0.80562 4.3515,0.62079 4.9281,0.56129 4.0157,0.1628 -0.0271,0.66609 -4.064,-0.1665 -4.9469,-0.56372 -4.3985,-0.62921 -3.7765,-0.81938 -2.875,-0.875 C 31.5726,7.50095 31.5552,7.494 31.5384,7.48564 l -1.875,-0.9375 C 29.6086,6.52071 29.5623,6.47868 29.5298,6.42667 l -0.625,-1 -0.625,-1 0.1336,0.12147 -1.875,-0.9375 0.052,0.02075 L 23.7419,2.76327 20.0154,1.95498 15.6498,1.33119 10.7364,0.770558 -0.0135547,0.333058 Z M 50.4955,6.17619 58.326,10.4987 50.1697,14.1695 Z"
         transform="matrix(1,0,0,-1,350.5,166.999)"
         id="path7" />
      <path
         d="M 0,239.167 C 0,226.925 9.92453,217 22.167,217 h 305.666 c 12.242,0 22.167,9.925 22.167,22.167 v 88.666 C 350,340.075 340.075,350 327.833,350 H 22.167 C 9.92453,350 0,340.075 0,327.833 Z"
         fill="#f4f2f8"
         fill-rule="evenodd"
         id="path8" />
      <text
         font-family="Calibri, Calibri_MSFontService, sans-serif"
         font-weight="400"
         font-size="16px"
         transform="translate(8.55727,240)"
         id="text8">Name Fault</text>
      <text
         fill="#660066"
         font-family="Calibri, Calibri_MSFontService, sans-serif"
         font-weight="400"
         font-size="16px"
         transform="translate(182.051,259)"
         id="text9">Wrong Object Resolved</text>
      <text
         fill="#660066"
         font-family="Calibri, Calibri_MSFontService, sans-serif"
         font-weight="400"
         font-size="16px"
         transform="translate(168.384,278)"
         id="text10">Wrong Function Resolved</text>
      <text
         fill="#660066"
         font-family="Calibri, Calibri_MSFontService, sans-serif"
         font-weight="400"
         font-size="16px"
         transform="translate(130.284,298)"
         id="text11">Wrong Generic Function Bound</text>
      <text
         fill="#660066"
         font-family="Calibri, Calibri_MSFontService, sans-serif"
         font-weight="400"
         font-size="16px"
         transform="translate(107.437,317)"
         id="text12">Wrong Overridden Function Bound</text>
      <text
         fill="#660066"
         font-family="Calibri, Calibri_MSFontService, sans-serif"
         font-weight="400"
         font-size="16px"
         transform="translate(105.104,336)"
         id="text13">Wrong Overloaded Function Bound</text>
      <path
         d="M 0.0450377,-0.330277 2.79504,0.0447233 C 2.8216,0.0483454 2.84762,0.055157 2.87255,0.0650131 L 5.56005,1.12751 C 5.57911,1.13505 5.5974,1.1443 5.61476,1.1552 l 2.6875,1.6875 c 0.0152,0.00955 0.02961,0.02031 0.04308,0.03218 l 2.62496,2.3125 c 0.012,0.01052 0.0232,0.02196 0.0335,0.03408 l 2.5,2.9375 2.4539,3.39584 2.2681,3.9028 2.1348,4.2683 3.7625,9.6531 2.8864,10.7849 1.8819,11.4697 0.629,11.9114 0.625,11.875 1.871,11.4011 2.8681,10.7178 3.7386,9.5901 2.1125,4.222 2.239,3.792 2.4223,3.414 2.4796,2.849 2.5938,2.281 -0.0844,-0.054 1.8139,0.81 -0.2718,0.609 -1.8139,-0.81 c -0.0307,-0.014 -0.0592,-0.032 -0.0844,-0.054 l -2.6562,-2.344 -2.5204,-2.901 -2.4527,-3.461 -2.261,-3.833 -2.1375,-4.278 L 34.2405,97.7111 31.3586,86.9289 29.4796,75.455 28.8546,63.58 28.2336,51.7414 26.3655,40.3361 23.5019,29.621 19.7644,20.0241 17.6492,15.7924 15.4173,11.9452 12.9962,8.59104 l -2.5,-2.9375 0.0335,0.03408 -2.62504,-2.3125 0.04308,0.03218 -2.6875,-1.6875 0.05471,0.02769 -2.6875,-1.062503 0.07751,0.02029 -2.7499977,-0.375 z M 52.1835,120.533 l 6.1426,6.501 -8.8867,1.013 z"
         transform="matrix(1,0,0,-1,350.5,283.534)"
         id="path13" />
      <path
         d="M 0,376.667 C 0,370.224 5.22352,365 11.667,365 h 326.666 c 6.443,0 11.667,5.224 11.667,11.667 v 46.666 C 350,429.776 344.776,435 338.333,435 H 11.667 C 5.22352,435 0,429.776 0,423.333 Z"
         fill="#f4f2f8"
         fill-rule="evenodd"
         id="path14" />
      <text
         font-family="Calibri, Calibri_MSFontService, sans-serif"
         font-weight="400"
         font-size="16px"
         transform="translate(5.48231,385)"
         id="text14">Data Fault</text>
      <text
         fill="#660066"
         font-family="Calibri, Calibri_MSFontService, sans-serif"
         font-weight="400"
         font-size="16px"
         transform="translate(225.076,404)"
         id="text15">Wrong Argument</text>
      <text
         fill="#660066"
         font-family="Calibri, Calibri_MSFontService, sans-serif"
         font-weight="400"
         font-size="16px"
         transform="translate(203.922,423)"
         id="text16">Reference vs. Object</text>
      <path
         d="m 0.0808452,-0.323381 2.7500048,0.6875 c 0.0443,0.011077 0.08586,0.03114 0.12209,0.058945 l 2.6875,2.062496 c 0.01988,0.01526 0.03797,0.03271 0.05394,0.05202 l 2.6875,3.25 c 0.01153,0.01395 0.02193,0.02883 0.03105,0.04446 l 2.62497,4.49996 2.5156,5.5301 2.4461,6.5209 2.2567,7.3947 2.1288,8.2011 2.0027,8.9484 1.7525,9.5124 1.5641,10.0718 1.3139,10.5725 1.8763,22.0128 0.6261,22.7063 0.625,22.688 1.8739,21.981 1.3112,10.549 1.5611,10.053 1.7484,9.491 1.9975,8.925 2.1223,8.176 2.2462,7.362 2.4308,6.48 2.4914,5.479 2.6094,4.47 -0.0582,-0.074 2.4651,2.345 -0.4593,0.483 -2.4652,-2.344 c -0.0228,-0.022 -0.0424,-0.047 -0.0582,-0.074 l -2.6406,-4.53 -2.5086,-5.521 -2.4442,-6.52 -2.2538,-7.388 -2.1277,-8.199 -2.0025,-8.95 -1.7516,-9.509 -1.5639,-10.072 -1.3138,-10.576 -1.8761,-22.019 -0.625,-22.687 L 28.2304,99.1533 26.3567,77.1661 25.0456,66.6136 23.4847,56.5604 21.7372,47.0728 19.7399,38.1462 17.6187,29.9723 15.3754,22.617 12.9465,16.1379 10.4621,10.668 7.83707,6.16796 7.86812,6.21242 5.18062,2.96242 5.23456,3.01444 2.54706,0.951936 2.66915,1.01088 -0.0808452,0.323381 Z M 53.7532,235.883 l 4.5728,7.687 -8.8933,-0.954 z"
         transform="matrix(1,0,0,-1,350.5,400.07)"
         id="path16" />
      <path
         d="M 0,461.667 C 0,455.224 5.22352,450 11.667,450 h 326.666 c 6.443,0 11.667,5.224 11.667,11.667 v 46.666 C 350,514.776 344.776,520 338.333,520 H 11.667 C 5.22352,520 0,514.776 0,508.333 Z"
         fill="#f4f2f8"
         fill-rule="evenodd"
         id="path17" />
      <text
         font-family="Calibri, Calibri_MSFontService, sans-serif"
         font-weight="400"
         font-size="16px"
         transform="translate(5.48231,470)"
         id="text17">Type Fault</text>
      <text
         fill="#660066"
         font-family="Calibri, Calibri_MSFontService, sans-serif"
         font-weight="400"
         font-size="16px"
         transform="translate(259.269,489)"
         id="text18">Wrong Type</text>
      <text
         fill="#660066"
         font-family="Calibri, Calibri_MSFontService, sans-serif"
         font-weight="400"
         font-size="16px"
         transform="translate(150.702,508)"
         id="text19">Wrong Object Type Resolved</text>
      <path
         d="M 0.0596285,-0.327957 1.43463,-0.0779566 c 0.03107,0.0056499 0.06119,0.0156895 0.08944,0.0298142 l 1.375,0.6875004 c 0.02475,0.012374 0.04786,0.027782 0.0688,0.045868 l 1.375,1.187504 C 4.35632,1.88433 4.36881,1.897 4.38023,1.9106 l 1.3125,1.5625 1.39445,2.02556 1.33131,2.46831 1.32107,2.82953 1.31864,3.2016 2.5078,7.4582 2.4426,8.7667 2.2541,10.0163 2.1271,11.0728 2.0015,12.0081 1.7515,12.8849 1.5633,13.5692 1.3133,14.1947 1.0631,14.632 0.8128,15.069 0.6255,30.636 0.625,30.687 0.812,14.989 1.0622,14.681 1.3119,14.119 1.5618,13.617 1.7491,12.806 1.9985,12.053 2.1235,10.991 2.2479,9.99 2.4334,8.734 2.4949,7.421 1.3047,3.167 1.3064,2.798 1.3039,2.42 -0.0576,-0.077 1.5339,1.537 -0.4718,0.471 -1.5339,-1.537 c -0.0229,-0.023 -0.0423,-0.049 -0.0576,-0.078 l -1.3211,-2.454 -1.3186,-2.827 -1.3203,-3.208 -2.5051,-7.454 -2.4416,-8.766 -2.2521,-10.01 -2.1265,-11.009 -2.0015,-12.072 -1.7509,-12.82 -1.5632,-13.632 -1.3131,-14.131 -1.0628,-14.694 -0.813,-15.011 -0.625,-30.688 L 28.2296,133.705 27.4175,118.649 26.3556,104.031 25.0439,89.8506 23.4822,76.2949 21.7337,63.4298 19.7351,51.4379 17.6123,40.3857 15.3664,30.402 12.934,21.6687 10.4418,14.2519 9.13544,11.0785 7.83151,8.28303 6.53782,5.87634 5.18226,3.9019 3.86976,2.3394 l 0.03737,0.03787 -1.375,-1.1875 0.0688,0.04587 -1.375,-0.687498 0.08944,0.029815 -1.3749985,-0.25 z M 54.5313,320.51 l 3.7947,8.099 -8.7563,-1.824 z"
         transform="matrix(1,0,0,-1,350.5,485.109)"
         id="path19" />
      <text
         font-family="Calibri, Calibri_MSFontService, sans-serif"
         font-weight="400"
         font-size="16px"
         transform="translate(824.224,115)"
         id="text20">Consequences</text>
      <path
         d="M 700,154.167 C 700,141.925 709.924,132 722.167,132 h 305.663 c 12.25,0 22.17,9.925 22.17,22.167 v 88.666 c 0,12.242 -9.92,22.167 -22.17,22.167 H 722.167 C 709.924,265 700,255.075 700,242.833 Z"
         fill="#f4f2f8"
         fill-rule="evenodd"
         id="path20" />
      <text
         font-family="Calibri, Calibri_MSFontService, sans-serif"
         font-weight="400"
         font-size="16px"
         transform="translate(708.47,155)"
         id="text21">Data Error</text>
      <text
         fill="#660066"
         font-family="Calibri, Calibri_MSFontService, sans-serif"
         font-weight="400"
         font-size="16px"
         transform="translate(946.81,174)"
         id="text22">Wrong Result</text>
      <text
         fill="#660066"
         font-family="Calibri, Calibri_MSFontService, sans-serif"
         font-weight="400"
         font-size="16px"
         transform="translate(949.603,193)"
         id="text23">Under Range</text>
      <text
         fill="#660066"
         font-family="Calibri, Calibri_MSFontService, sans-serif"
         font-weight="400"
         font-size="16px"
         transform="translate(958.923,213)"
         id="text24">Over Range</text>
      <text
         fill="#660066"
         font-family="Calibri, Calibri_MSFontService, sans-serif"
         font-weight="400"
         font-size="16px"
         transform="translate(955.636,232)"
         id="text25">Flipped Sign</text>
      <text
         fill="#660066"
         font-family="Calibri, Calibri_MSFontService, sans-serif"
         font-weight="400"
         font-size="16px"
         transform="translate(947.19,251)"
         id="text26">Wrap Around</text>
      <path
         d="m 642.531,156.168 5.437,0.5 c 0.017,0.002 0.033,0.004 0.05,0.008 l 5.312,1.313 c 0.017,0.004 0.033,0.009 0.049,0.016 l 4.937,2.062 c 0.016,0.007 0.031,0.015 0.046,0.024 l 4.375,2.688 c 0.015,0.008 0.028,0.019 0.041,0.03 l 3.75,3.187 c 0.016,0.014 0.031,0.028 0.044,0.045 l 2.875,3.562 c 0.015,0.019 0.028,0.039 0.039,0.06 l 1.875,3.75 c 0.015,0.031 0.025,0.064 0.031,0.097 l 0.625,3.938 0.625,3.937 -0.031,-0.097 1.875,3.75 -0.039,-0.06 2.875,3.563 -0.044,-0.045 3.75,3.188 -0.041,-0.03 4.375,2.687 -0.046,-0.024 4.938,2.063 -0.059,-0.018 4.1,0.873 -0.139,0.652 -4.1,-0.873 c -0.021,-0.005 -0.04,-0.011 -0.059,-0.019 l -4.938,-2.062 c -0.016,-0.007 -0.031,-0.015 -0.046,-0.024 l -4.375,-2.687 c -0.014,-0.009 -0.028,-0.019 -0.041,-0.03 l -3.75,-3.188 c -0.016,-0.013 -0.031,-0.028 -0.044,-0.045 l -2.875,-3.562 c -0.015,-0.019 -0.028,-0.039 -0.039,-0.06 l -1.875,-3.75 c -0.015,-0.031 -0.025,-0.064 -0.031,-0.097 l -0.625,-3.938 -0.625,-3.937 0.031,0.097 -1.875,-3.75 0.039,0.06 -2.875,-3.563 0.044,0.045 -3.75,-3.187 0.041,0.03 -4.375,-2.688 0.046,0.024 -4.937,-2.063 0.048,0.016 -5.312,-1.312 0.049,0.008 -5.437,-0.5 z m 50.934,37.246 7.361,5.081 -8.481,2.84 z"
         id="path26" />
      <path
         d="m 700,288.167 c 0,-4.511 3.656,-8.167 8.167,-8.167 h 333.663 c 4.51,0 8.17,3.656 8.17,8.167 v 32.666 c 0,4.511 -3.66,8.167 -8.17,8.167 H 708.167 C 703.656,329 700,325.344 700,320.833 Z"
         fill="#dfdaea"
         fill-rule="evenodd"
         id="path27" />
      <text
         font-family="Calibri, Calibri_MSFontService, sans-serif"
         font-weight="400"
         font-size="16px"
         transform="translate(704.37,299)"
         id="text27">Type Compute Final Error</text>
      <text
         fill="#660066"
         font-family="Calibri, Calibri_MSFontService, sans-serif"
         font-weight="400"
         font-size="16px"
         transform="translate(969.843,318)"
         id="text28">Undefined</text>
      <path
         d="m 642.552,156.171 2.75,0.437 c 0.031,0.005 0.061,0.014 0.089,0.027 l 2.687,1.25 c 0.021,0.01 0.04,0.022 0.059,0.035 l 2.687,2 c 0.014,0.011 0.027,0.022 0.04,0.035 l 2.625,2.687 2.529,3.41 2.453,3.96 2.265,4.526 2.133,4.955 2.006,5.454 1.757,5.832 2.88,12.521 1.881,13.404 0.628,13.843 0.625,13.813 1.872,13.344 2.869,12.471 1.744,5.728 1.994,5.419 2.119,4.985 2.241,4.417 2.425,3.978 2.481,3.285 2.598,2.655 -0.08,-0.06 1.939,1.051 -0.317,0.586 -1.94,-1.051 c -0.029,-0.016 -0.056,-0.036 -0.079,-0.06 l -2.653,-2.72 -2.519,-3.34 -2.45,-4.022 -2.259,-4.458 -2.131,-5.015 -2.006,-5.456 -1.756,-5.772 -2.881,-12.529 -1.877,-13.406 -0.625,-13.812 -0.623,-13.782 -1.869,-13.346 -2.87,-12.479 -1.743,-5.793 -1.994,-5.421 -2.117,-4.92 -2.235,-4.474 -2.422,-3.915 -2.47,-3.34 -2.625,-2.688 0.039,0.035 -2.687,-2 0.058,0.035 -2.688,-1.25 0.089,0.027 -2.75,-0.438 z m 52.474,141.552 5.8,6.809 -8.927,0.555 z"
         id="path28" />
      <text
         font-family="Calibri, Calibri_MSFontService, sans-serif"
         font-weight="400"
         font-size="16px"
         transform="translate(485.254,115)"
         id="text29">Operations</text>
      <rect
         x="408.5"
         y="132.5"
         width="234"
         height="49"
         stroke="#000000"
         stroke-width="0.666667"
         stroke-linejoin="round"
         stroke-miterlimit="10"
         fill="none"
         id="rect29" />
      <text
         fill="#660066"
         font-family="Calibri, Calibri_MSFontService, sans-serif"
         font-weight="400"
         font-size="16px"
         transform="translate(491.511,152)"
         id="text30">Calculate</text>
      <text
         fill="#660066"
         font-family="Calibri, Calibri_MSFontService, sans-serif"
         font-weight="400"
         font-size="16px"
         transform="translate(493.817,171)"
         id="text31">Evaluate</text>
      <text
         font-family="Calibri, Calibri_MSFontService, sans-serif"
         font-weight="400"
         font-size="16px"
         transform="translate(489.764,216)"
         id="text32">Operands</text>
      <rect
         x="408.5"
         y="233.5"
         width="234"
         height="69"
         stroke="#000000"
         stroke-width="0.666667"
         stroke-linejoin="round"
         stroke-miterlimit="10"
         fill="none"
         id="rect32" />
      <text
         fill="#660066"
         font-family="Calibri, Calibri_MSFontService, sans-serif"
         font-weight="400"
         font-size="16px"
         transform="translate(501.767,253)"
         id="text33">Name</text>
      <text
         fill="#660066"
         font-family="Calibri, Calibri_MSFontService, sans-serif"
         font-weight="400"
         font-size="16px"
         transform="translate(506.101,272)"
         id="text34">Data</text>
      <text
         fill="#660066"
         font-family="Calibri, Calibri_MSFontService, sans-serif"
         font-weight="400"
         font-size="16px"
         transform="translate(505.881,291)"
         id="text35">Type</text>
      <text
         font-family="Calibri, Calibri_MSFontService, sans-serif"
         font-weight="400"
         font-size="16px"
         transform="translate(488.838,555)"
         id="text36">Attributes</text>
      <text
         font-family="Calibri, Calibri_MSFontService, sans-serif"
         font-weight="400"
         font-size="16px"
         transform="translate(2.09974,592)"
         id="text37">Name State</text>
      <text
         fill="#660066"
         font-family="Calibri, Calibri_MSFontService, sans-serif"
         font-weight="400"
         font-size="16px"
         transform="translate(2.09974,611)"
         id="text38">Resolved</text>
      <text
         fill="#660066"
         font-family="Calibri, Calibri_MSFontService, sans-serif"
         font-weight="400"
         font-size="16px"
         transform="translate(2.09974,630)"
         id="text39">Bound</text>
      <text
         font-family="Calibri, Calibri_MSFontService, sans-serif"
         font-weight="400"
         font-size="16px"
         transform="translate(180.577,592)"
         id="text40">Data Kind</text>
      <text
         fill="#660066"
         font-family="Calibri, Calibri_MSFontService, sans-serif"
         font-weight="400"
         font-size="16px"
         transform="translate(180.577,611)"
         id="text41">Numeric</text>
      <text
         fill="#660066"
         font-family="Calibri, Calibri_MSFontService, sans-serif"
         font-weight="400"
         font-size="16px"
         transform="translate(180.577,630)"
         id="text42">Text</text>
      <text
         fill="#660066"
         font-family="Calibri, Calibri_MSFontService, sans-serif"
         font-weight="400"
         font-size="16px"
         transform="translate(180.577,650)"
         id="text43">Pointer</text>
      <text
         fill="#660066"
         font-family="Calibri, Calibri_MSFontService, sans-serif"
         font-weight="400"
         font-size="16px"
         transform="translate(180.577,669)"
         id="text44">Boolean</text>
      <text
         font-family="Calibri, Calibri_MSFontService, sans-serif"
         font-weight="400"
         font-size="16px"
         transform="translate(359.055,592)"
         id="text45">Type Kind</text>
      <text
         fill="#660066"
         font-family="Calibri, Calibri_MSFontService, sans-serif"
         font-weight="400"
         font-size="16px"
         transform="translate(359.055,611)"
         id="text46">Primitive</text>
      <text
         fill="#660066"
         font-family="Calibri, Calibri_MSFontService, sans-serif"
         font-weight="400"
         font-size="16px"
         transform="translate(359.055,630)"
         id="text47">Structure</text>
      <text
         font-family="Calibri, Calibri_MSFontService, sans-serif"
         font-weight="400"
         font-size="16px"
         transform="translate(537.533,592)"
         id="text48">Mechanism</text>
      <text
         fill="#660066"
         font-family="Calibri, Calibri_MSFontService, sans-serif"
         font-weight="400"
         font-size="16px"
         transform="translate(537.533,611)"
         id="text49">Function</text>
      <text
         fill="#660066"
         font-family="Calibri, Calibri_MSFontService, sans-serif"
         font-weight="400"
         font-size="16px"
         transform="translate(537.533,630)"
         id="text50">Operator</text>
      <text
         fill="#660066"
         font-family="Calibri, Calibri_MSFontService, sans-serif"
         font-weight="400"
         font-size="16px"
         transform="translate(537.533,650)"
         id="text51">Method</text>
      <text
         fill="#660066"
         font-family="Calibri, Calibri_MSFontService, sans-serif"
         font-weight="400"
         font-size="16px"
         transform="translate(537.533,669)"
         id="text52">Lambda Expression</text>
      <text
         fill="#660066"
         font-family="Calibri, Calibri_MSFontService, sans-serif"
         font-weight="400"
         font-size="16px"
         transform="translate(537.533,688)"
         id="text53">Procedure</text>
      <text
         font-family="Calibri, Calibri_MSFontService, sans-serif"
         font-weight="400"
         font-size="16px"
         transform="translate(716.01,592)"
         id="text54">Source Code</text>
      <text
         fill="#660066"
         font-family="Calibri, Calibri_MSFontService, sans-serif"
         font-weight="400"
         font-size="16px"
         transform="translate(716.01,611)"
         id="text55">Codebase</text>
      <text
         fill="#660066"
         font-family="Calibri, Calibri_MSFontService, sans-serif"
         font-weight="400"
         font-size="16px"
         transform="translate(716.01,630)"
         id="text56">Third</text>
      <text
         fill="#660066"
         font-family="Calibri, Calibri_MSFontService, sans-serif"
         font-weight="400"
         font-size="16px"
         transform="translate(749.457,630)"
         id="text57">-</text>
      <text
         fill="#660066"
         font-family="Calibri, Calibri_MSFontService, sans-serif"
         font-weight="400"
         font-size="16px"
         transform="translate(754.291,630)"
         id="text58">Party</text>
      <text
         fill="#660066"
         font-family="Calibri, Calibri_MSFontService, sans-serif"
         font-weight="400"
         font-size="16px"
         transform="translate(716.01,650)"
         id="text59">Standard Library</text>
      <text
         fill="#660066"
         font-family="Calibri, Calibri_MSFontService, sans-serif"
         font-weight="400"
         font-size="16px"
         transform="translate(716.01,669)"
         id="text60">Compiler/Interpreter</text>
      <text
         font-family="Calibri, Calibri_MSFontService, sans-serif"
         font-weight="400"
         font-size="16px"
         transform="translate(894.488,592)"
         id="text61">Execution Space</text>
      <text
         fill="#660066"
         font-family="Calibri, Calibri_MSFontService, sans-serif"
         font-weight="400"
         font-size="16px"
         transform="translate(894.488,611)"
         id="text62">Local</text>
      <text
         fill="#660066"
         font-family="Calibri, Calibri_MSFontService, sans-serif"
         font-weight="400"
         font-size="16px"
         transform="translate(894.488,630)"
         id="text63">Admin</text>
      <text
         fill="#660066"
         font-family="Calibri, Calibri_MSFontService, sans-serif"
         font-weight="400"
         font-size="16px"
         transform="translate(894.488,650)"
         id="text64">Bare</text>
      <text
         fill="#660066"
         font-family="Calibri, Calibri_MSFontService, sans-serif"
         font-weight="400"
         font-size="16px"
         transform="translate(924.108,650)"
         id="text65">-</text>
      <text
         fill="#660066"
         font-family="Calibri, Calibri_MSFontService, sans-serif"
         font-weight="400"
         font-size="16px"
         transform="translate(928.942,650)"
         id="text66">Metal</text>
      <path
         d="M 0,749.667 C 0,747.089 2.08938,745 4.66676,745 H 37.3332 C 39.9106,745 42,747.089 42,749.667 v 18.666 C 42,770.911 39.9106,773 37.3332,773 H 4.66676 C 2.08938,773 0,770.911 0,768.333 Z"
         fill="#e8effc"
         fill-rule="evenodd"
         id="path66" />
      <text
         font-family="Calibri, Calibri_MSFontService, sans-serif"
         font-weight="400"
         font-size="16px"
         transform="translate(44.0945,765)"
         id="text67">Bug</text>
      <path
         d="m 262,749.667 c 0,-2.578 2.089,-4.667 4.667,-4.667 h 32.666 c 2.578,0 4.667,2.089 4.667,4.667 v 18.666 c 0,2.578 -2.089,4.667 -4.667,4.667 H 266.667 C 264.089,773 262,770.911 262,768.333 Z"
         fill="#f4f2f8"
         fill-rule="evenodd"
         id="path67" />
      <text
         font-family="Calibri, Calibri_MSFontService, sans-serif"
         font-weight="400"
         font-size="16px"
         transform="translate(306.562,765)"
         id="text68">Fault/Error</text>
      <path
         d="m 525,749.667 c 0,-2.578 2.089,-4.667 4.667,-4.667 h 32.666 c 2.578,0 4.667,2.089 4.667,4.667 v 18.666 c 0,2.578 -2.089,4.667 -4.667,4.667 H 529.667 C 527.089,773 525,770.911 525,768.333 Z"
         fill="#dfdaea"
         fill-rule="evenodd"
         id="path68" />
      <text
         font-family="Calibri, Calibri_MSFontService, sans-serif"
         font-weight="400"
         font-size="16px"
         transform="translate(569.029,765)"
         id="text69">Final Error</text>
      <rect
         x="787.5"
         y="745.5"
         width="42"
         height="28"
         stroke="#000000"
         stroke-width="0.666667"
         stroke-linejoin="round"
         stroke-miterlimit="10"
         fill="none"
         id="rect69" />
      <text
         font-family="Calibri, Calibri_MSFontService, sans-serif"
         font-weight="400"
         font-size="16px"
         transform="translate(831.496,765)"
         id="text70">Operation/Operand</text>
      <text
         fill="#7f7f7f"
         font-family="Calibri, Calibri_MSFontService, sans-serif"
         font-weight="400"
         font-size="13px"
         transform="translate(799.251,355)"
         id="text71">Bugs Framework (BF), I. Bojanova, 2014</text>
      <text
         fill="#7f7f7f"
         font-family="Calibri, Calibri_MSFontService, sans-serif"
         font-weight="400"
         font-size="13px"
         transform="translate(1014.08,355)"
         id="text72">-</text>
      <text
         fill="#7f7f7f"
         font-family="Calibri, Calibri_MSFontService, sans-serif"
         font-weight="400"
         font-size="13px"
         transform="translate(1018.08,355)"
         id="text73">2024</text>
    </g>
  </g>
</svg>
