<?xml version="1.0" encoding="UTF-8" standalone="no"?>
<!-- Created with Inkscape (http://www.inkscape.org/) -->

<svg
   version="1.1"
   id="svg574"
   width="963.49194"
   height="478.41"
   viewBox="0 0 963.49193 478.41001"
   sodipodi:docname="ConvergingChains.svg"
   inkscape:version="1.3 (0e150ed6c4, 2023-07-21)"
   xmlns:inkscape="http://www.inkscape.org/namespaces/inkscape"
   xmlns:sodipodi="http://sodipodi.sourceforge.net/DTD/sodipodi-0.dtd"
   xmlns="http://www.w3.org/2000/svg"
   xmlns:svg="http://www.w3.org/2000/svg">
  <defs
     id="defs578">
    <clipPath
       clipPathUnits="userSpaceOnUse"
       id="clipPath594">
      <path
         d="M 0,0 H 717 V 334 H 0 Z"
         id="path592" />
    </clipPath>
    <clipPath
       id="clip0">
      <rect
         x="104"
         y="143"
         width="985"
         height="489"
         id="rect685" />
    </clipPath>
    <clipPath
       id="clip0-4">
      <rect
         x="104"
         y="143"
         width="985"
         height="516"
         id="rect1" />
    </clipPath>
    <clipPath
       id="clip0-3">
      <rect
         x="104"
         y="143"
         width="985"
         height="489"
         id="rect1-8" />
    </clipPath>
  </defs>
  <sodipodi:namedview
     id="namedview576"
     pagecolor="#ffffff"
     bordercolor="#000000"
     borderopacity="0.25"
     inkscape:showpageshadow="2"
     inkscape:pageopacity="0.0"
     inkscape:pagecheckerboard="0"
     inkscape:deskcolor="#d1d1d1"
     showgrid="false"
     inkscape:zoom="1.5954864"
     inkscape:cx="436.23061"
     inkscape:cy="-35.412398"
     inkscape:window-width="2560"
     inkscape:window-height="1377"
     inkscape:window-x="-8"
     inkscape:window-y="797"
     inkscape:window-maximized="1"
     inkscape:current-layer="g582">
    <inkscape:page
       x="0"
       y="0"
       id="page580"
       width="963.49194"
       height="478.41"
       margin="0"
       bleed="0" />
  </sodipodi:namedview>
  <g
     id="g582"
     inkscape:groupmode="layer"
     inkscape:label="Page 1"
     transform="matrix(1.3333333,0,0,1.3333333,-41.606451,-558.46779)">
    <g
       clip-path="url(#clip0-3)"
       transform="matrix(0.75000002,0,0,0.75000002,-46.795163,311.15836)"
       id="g29">
      <path
         d="m 736.5,621.5 19,-37 19,37 z"
         stroke="#7d3368"
         stroke-linejoin="round"
         stroke-miterlimit="10"
         fill="#dfdaea"
         fill-rule="evenodd"
         id="path1" />
      <path
         d="m 918.5,331.5 66.5,-133 66.5,133 z"
         stroke="#7d3368"
         stroke-linejoin="round"
         stroke-miterlimit="10"
         fill="#dfdaea"
         fill-rule="evenodd"
         id="path2" />
      <path
         d="m 135,270.5 c 0,-37.279 31.564,-67.5 70.5,-67.5 38.936,0 70.5,30.221 70.5,67.5 0,37.279 -31.564,67.5 -70.5,67.5 -38.936,0 -70.5,-30.221 -70.5,-67.5 z"
         fill="#e8effc"
         fill-rule="evenodd"
         id="path3" />
      <path
         d="M 0.0514496,0.497346 -5.38605,1.05985 l 0.10334,-0.02191 -5.37499,1.75 0.0772,-0.03252 -5.25,2.75 0.0609,-0.03771 -5.1875,3.75 0.0491,-0.04044 -5,4.68753 0.0346,-0.0359 -4.75,5.4375 0.0272,-0.0341 -4.5625,6.25 0.0226,-0.0336 -4.25,6.9375 0.0178,-0.0317 -3.875,7.5 0.0139,-0.0291 -3.5,8 0.0123,-0.0309 -3.0625,8.5 0.0091,-0.0277 -2.625,8.875 0.0076,-0.0291 -2.125,9.1875 0.0061,-0.0305 -1.5625,9.375 0.0041,-0.0299 -1,9.5 0.0024,-0.0361 -0.3125,9.6253 -7e-4,-0.049 0.625,9.625 -0.0067,-0.055 1.6875,9.5 -0.0134,-0.056 2.8125,9.375 -0.0171,-0.048 3.8125,9.187 -0.021,-0.044 4.75,8.875 -0.0219,-0.037 5.5,8.437 -0.0252,-0.035 6.3125,8.063 -0.0282,-0.033 7,7.5 -0.0307,-0.03 7.625,6.875 -0.0314,-0.026 8.18749,6.25 -0.03317,-0.024 8.562504,5.5 -0.04169,-0.024 8.999996,4.625 -0.04068,-0.018 9.25005,3.75 -0.0497,-0.018 9.5625,2.75 -0.0488,-0.011 9.625,1.75 -0.0632,-0.007 3.0831,0.161 -0.0523,0.999 -3.1151,-0.163 -9.681,-1.761 -9.6119,-2.764 -9.29511,-3.768 -9.04135,-4.646 -8.59982,-5.524 -8.21982,-6.275 -7.6562,-6.903 -7.0295,-7.532 -6.3392,-8.096 -5.5236,-8.474 -4.7718,-8.916 -3.8317,-9.233 -2.8281,-9.428 -1.6975,-9.555 -0.6283,-9.677 0.3139,-9.6678 1.0034,-9.533 1.5676,-9.4052 2.1319,-9.2174 2.6334,-8.9034 3.073,-8.5294 3.5132,-8.03 3.8907,-7.5305 4.2701,-6.9703 4.5874,-6.284 4.7807,-5.4727 5.0415,-4.72635 5.2424,-3.7897 5.319,-2.78617 5.46551,-1.7794602 5.4903404,-0.5679658 z M 38.3987,200.847 l 7.7795,4.414 -8.1986,3.575 z"
         transform="matrix(0,1,1,0,206.5,203.5)"
         id="path4" />
      <path
         d="M 0.0378656,-0.498564 5.00632,-0.121213 10.008,0.89178 l 4.8698,1.70759 4.7964,2.27198 4.6065,2.77657 4.414,3.34198 4.1562,3.7784 3.903,4.1548 3.5888,4.5331 3.2106,4.8475 2.8323,5.1611 2.3917,5.3498 1.9516,5.5401 1.4492,5.6705 0.8823,5.7985 0.3139,5.7742 0.3125,5.75 -0.0067,-0.0586 1,5.75 -0.0122,-0.0531 1.625,5.625 -0.0165,-0.0478 2.1875,5.4375 -0.0177,-0.0391 2.6875,5.3125 -0.0216,-0.0384 3.1875,5.125 -0.0252,-0.0367 3.625,4.8125 -0.0283,-0.0343 4.0625,4.4996 -0.0255,-0.026 4.3125,4.125 -0.0333,-0.029 4.6875,3.75 -0.0337,-0.025 4.9375,3.313 -0.0444,-0.027 5.1875,2.75 -0.0392,-0.018 5.3125,2.25 -0.0468,-0.018 5.4378,1.688 -0.06,-0.015 5.562,1 -0.054,-0.006 5.562,0.375 -0.062,-10e-4 5.563,-0.312 -0.055,0.006 5.562,-0.938 -0.043,0.01 5.5,-1.438 -0.05,0.016 5.313,-2 -0.039,0.016 5.125,-2.437 -0.041,0.022 4.938,-2.938 -0.029,0.019 4.687,-3.25 -0.037,0.029 4.375,-3.688 -0.029,0.026 4,-3.937 -0.032,0.034 3.625,-4.3122 -0.023,0.03 3.187,-4.4375 -0.029,0.0455 2.688,-4.75 -0.02,0.0393 2.187,-4.8125 -0.02,0.0524 1.625,-5 -0.018,0.0735 0.58,-3.5324 0.987,0.1621 -0.586,3.5698 -1.646,5.0628 -2.208,4.8582 -2.712,4.7927 -3.214,4.475 -3.652,4.3453 -4.031,3.967 -4.408,3.715 -4.721,3.274 -4.972,2.958 -5.165,2.457 -5.357,2.016 -5.547,1.45 -5.611,0.946 -5.621,0.315 -5.621,-0.379 -5.62,-1.01 -5.491,-1.704 -5.3555,-2.268 -5.2296,-2.772 -4.9764,-3.339 -4.7211,-3.777 -4.3418,-4.153 -4.0896,-4.5299 -3.6518,-4.8481 -3.2109,-5.1626 -2.7072,-5.3514 -2.2049,-5.4809 -1.6396,-5.6756 -1.0098,-5.8059 -0.3141,-5.7795 -0.3125,-5.75 0.005,0.0481 -0.875,-5.75 0.0099,0.0486 -1.4375,-5.625 0.0128,0.0423 -1.9375,-5.5 0.0151,0.038 -2.375,-5.3125 0.0182,0.0364 -2.8125,-5.125 0.0214,0.0356 -3.1875,-4.8125 0.0249,0.0343 -3.5625,-4.5 0.0276,0.0319 -3.875,-4.125 0.0281,0.0277 -4.125,-3.75 0.0345,0.0286 -4.375,-3.31247 0.0437,0.0296 -4.5625,-2.75 0.0441,0.02364 -4.75,-2.25 0.0486,0.01996 -4.81255,-1.6875 0.0662,0.01822 -4.9375,-1 0.06138,0.008514 -4.9374956,-0.375 z M 167.397,76.2977 l 4.842,-7.5201 3.111,8.386 z"
         transform="matrix(1,0,0,-1,812.5,267.278)"
         id="path5" />
      <path
         d="m 411.001,249.825 0.564,-9.842 1.697,-9.741 2.701,-9.611 3.706,-9.358 4.582,-9.039 5.335,-8.662 6.15,-8.221 6.778,-7.719 7.344,-7.03 7.907,-6.338 8.287,-5.651 8.731,-4.711 8.983,-3.832 9.239,-2.828 9.369,-1.761 9.43,-0.628 9.415,0.314 9.341,0.877 9.218,1.38 8.964,1.943 8.716,2.32 8.279,2.823 7.902,3.198 7.342,3.514 6.78,3.83 6.16,4.085 5.35,4.343 4.601,4.538 3.731,4.68 2.736,4.836 0.939,3.287 -0.962,0.275 -0.922,-3.23 0.046,0.109 -2.688,-4.75 0.045,0.065 -3.688,-4.625 0.04,0.044 -4.563,-4.5 0.036,0.032 -5.312,-4.312 0.039,0.028 -6.125,-4.062 0.03,0.019 -6.75,-3.813 0.03,0.016 -7.312,-3.5 0.028,0.012 -7.875,-3.187 0.026,0.01 -8.25,-2.813 0.033,0.01 -8.688,-2.313 0.023,0.006 -8.937,-1.938 0.031,0.006 -9.187,-1.375 0.027,0.004 -9.312,-0.875 0.03,0.002 -9.375,-0.313 0.05,-0.001 -9.375,0.625 0.059,-0.007 -9.313,1.75 0.054,-0.014 -9.187,2.813 0.05,-0.018 -8.938,3.812 0.041,-0.02 -8.687,4.688 0.044,-0.027 -8.25,5.625 0.031,-0.023 -7.875,6.312 0.033,-0.029 -7.312,7 0.03,-0.031 -6.75,7.688 0.024,-0.031 -6.125,8.188 0.026,-0.037 -5.313,8.625 0.02,-0.037 -4.562,9 0.019,-0.042 -3.688,9.313 0.017,-0.049 -2.688,9.563 0.012,-0.05 -1.688,9.688 0.007,-0.058 -0.563,9.813 z m 203.464,-60.946 -2.384,8.621 -5.466,-7.08 z"
         id="path6" />
      <text
         font-family="Calibri, Calibri_MSFontService, sans-serif"
         font-weight="400"
         font-size="27px"
         transform="translate(401.639,279)"
         id="text6">…</text>
      <path
         d="m 581.003,453.188 0.632,-5.366 1.845,-5.344 2.978,-5.259 3.98,-5.118 4.979,-4.915 5.787,-4.655 6.659,-4.46 7.343,-4.143 7.904,-3.826 8.53,-3.45 9.027,-3.009 9.402,-2.57 9.652,-2.068 9.967,-1.567 10.094,-0.941 10.203,-0.313 -0.016,10e-4 10.188,-0.625 -0.064,0.008 10.062,-1.937 -0.053,0.013 9.875,-3.062 -0.05,0.018 9.687,-4.187 -0.044,0.021 9.375,-5.187 -0.038,0.023 8.937,-6.062 -0.035,0.026 8.5,-6.937 -0.032,0.028 7.938,-7.687 -0.029,0.03 7.312,-8.375 -0.026,0.033 6.562,-8.938 -0.024,0.036 5.75,-9.437 -0.019,0.035 4.937,-9.813 -0.019,0.045 3.937,-10.188 -0.015,0.045 2.938,-10.437 -0.012,0.051 1.813,-10.625 -0.007,0.055 0.236,-4.029 0.999,0.059 -0.238,4.056 -1.822,10.678 -2.951,10.486 -3.954,10.232 -4.958,9.853 -5.772,9.473 -6.587,8.972 -7.341,8.406 -7.967,7.717 -8.534,6.965 -8.975,6.088 -9.416,5.21 -9.734,4.208 -9.927,3.078 -10.122,1.949 -10.227,0.628 -10.195,0.312 0.031,-10e-4 -10.063,0.937 0.032,-0.004 -9.938,1.563 0.027,-0.005 -9.625,2.062 0.027,-0.007 -9.375,2.563 0.027,-0.008 -9,3 0.029,-0.011 -8.5,3.438 0.03,-0.014 -7.875,3.813 0.028,-0.015 -7.312,4.125 0.032,-0.02 -6.625,4.438 0.035,-0.026 -5.75,4.625 0.038,-0.034 -4.937,4.875 0.043,-0.049 -3.937,5.063 0.04,-0.061 -2.937,5.188 0.037,-0.084 -1.812,5.25 0.024,-0.104 -0.625,5.312 z m 212.974,-162.935 4.461,-7.753 3.526,8.22 z"
         id="path7" />
      <path
         d="m 511,519.5 c 0,-37.279 31.564,-67.5 70.5,-67.5 38.936,0 70.5,30.221 70.5,67.5 0,37.279 -31.564,67.5 -70.5,67.5 -38.936,0 -70.5,-30.221 -70.5,-67.5 z"
         fill="#dfdaea"
         fill-rule="evenodd"
         id="path8" />
      <text
         font-family="Calibri, Calibri_MSFontService, sans-serif"
         font-weight="400"
         font-size="27px"
         transform="translate(370.12,531)"
         id="text8">…</text>
      <path
         d="m 540,264 c 0,-37.003 31.788,-67 71,-67 39.212,0 71,29.997 71,67 0,37.003 -31.788,67 -71,67 -39.212,0 -71,-29.997 -71,-67 z"
         fill="#dfdaea"
         fill-rule="evenodd"
         id="path9" />
      <path
         d="m 379.001,501.037 0.564,-9.716 1.697,-9.68 2.765,-9.487 3.705,-9.294 4.583,-8.979 5.462,-8.6 6.149,-8.095 6.841,-7.656 7.406,-6.968 7.97,-6.275 8.349,-5.587 8.793,-4.711 9.046,-3.769 9.302,-2.828 9.494,-1.698 9.49,-0.628 9.479,0.314 9.405,0.94 9.279,1.442 9.093,2.007 8.717,2.508 8.402,2.948 7.904,3.324 7.407,3.704 6.843,4.08 6.158,4.273 5.476,4.595 4.601,4.79 3.727,4.928 2.796,5.083 1.053,3.803 -0.964,0.267 -1.037,-3.747 0.043,0.107 -2.75,-5 0.04,0.061 -3.688,-4.875 0.038,0.045 -4.562,-4.75 0.039,0.036 -5.437,-4.562 0.036,0.028 -6.125,-4.25 0.029,0.018 -6.813,-4.062 0.033,0.018 -7.375,-3.688 0.03,0.014 -7.875,-3.313 0.028,0.011 -8.375,-2.937 0.027,0.008 -8.687,-2.5 0.03,0.008 -9.062,-2 0.031,0.006 -9.25,-1.437 0.027,0.003 -9.375,-0.938 0.033,0.003 -9.437,-0.313 0.049,-10e-4 -9.437,0.625 0.055,-0.006 -9.438,1.687 0.058,-0.014 -9.25,2.813 0.046,-0.017 -9,3.75 0.044,-0.021 -8.75,4.688 0.042,-0.025 -8.312,5.562 0.031,-0.023 -7.938,6.25 0.034,-0.028 -7.375,6.937 0.03,-0.031 -6.813,7.625 0.026,-0.031 -6.125,8.063 0.024,-0.034 -5.438,8.562 0.023,-0.041 -4.562,8.938 0.019,-0.042 -3.687,9.25 0.015,-0.046 -2.75,9.438 0.013,-0.054 -1.688,9.625 0.007,-0.057 -0.563,9.687 z m 205.175,-57.118 -2.523,8.581 -5.351,-7.167 z"
         id="path10" />
      <text
         fill="#980000"
         font-family="Calibri, Calibri_MSFontService, sans-serif"
         font-weight="400"
         font-size="21px"
         transform="translate(618.302,431)"
         id="text10">Final Error ’</text>
      <path
         d="m 799,253.5 v 29 M 785.5,268 h 27"
         stroke="#44546a"
         stroke-linejoin="round"
         stroke-miterlimit="10"
         fill="none"
         fill-rule="evenodd"
         id="path11" />
      <path
         d="m 785.5,268 c 0,-8.008 6.044,-14.5 13.5,-14.5 7.456,0 13.5,6.492 13.5,14.5 0,8.008 -6.044,14.5 -13.5,14.5 -7.456,0 -13.5,-6.492 -13.5,-14.5 z"
         stroke="#44546a"
         stroke-linejoin="round"
         stroke-miterlimit="10"
         fill="none"
         fill-rule="evenodd"
         id="path12" />
      <path
         d="m 6.68418,-0.127131 3.43072,0.1917818 10.1104,1.5699292 9.8583,2.51168 9.6658,3.45206 9.3513,4.20498 8.9122,5.0209 8.4712,5.7102 7.9065,6.3378 7.2807,6.8413 6.5296,7.3458 5.7772,7.7868 4.9004,8.1044 3.9615,8.3622 2.893,8.6187 1.826,8.7494 0.629,8.8103 -0.314,8.7929 -0.878,8.718 -1.38,8.595 -1.944,8.341 -2.321,8.091 -2.8232,7.78 -3.1378,7.342 -3.5782,6.905 -3.7693,6.282 -4.1491,5.721 -4.2814,5.037 -4.5428,4.227 -4.741,3.477 -4.8206,2.537 -4.9014,1.592 -4.9748,0.559 -0.1117,-0.994 4.9245,-0.553 -0.0986,0.021 4.8125,-1.563 -0.0785,0.034 4.75,-2.5 -0.0628,0.039 4.6875,-3.438 -0.0449,0.037 4.5,-4.187 -0.0404,0.042 4.25,-5 -0.0238,0.03 4.125,-5.687 -0.0239,0.036 3.75,-6.25 -0.0152,0.027 3.5625,-6.875 -0.0159,0.034 3.125,-7.312 -0.0102,0.025 2.8125,-7.75 -0.011,0.033 2.313,-8.062 -0.006,0.024 1.937,-8.313 -0.007,0.035 1.375,-8.563 -0.003,0.029 0.875,-8.687 -0.003,0.032 0.313,-8.7499 10e-4,0.0535 -0.625,-8.75 0.009,0.0665 -1.812,-8.6875 0.015,0.057 -2.875,-8.5625 0.022,0.0549 -3.9374,-8.3125 0.024,0.0447 -4.875,-8.0625 0.0263,0.0392 -5.75,-7.75 0.0279,0.0343 -6.5,-7.3125 0.0313,0.0322 -7.25,-6.8125 0.0297,0.0257 -7.875,-6.3125 0.0332,0.0245 -8.4375,-5.6875 0.0341,0.021 -8.875,-5 0.0403,0.0204 -9.3125,-4.18748 0.0369,0.01485 -9.625,-3.4375 0.0448,0.01365 -9.8125,-2.5 0.0467,0.00956 L 9.98578,1.05658 10.0346,1.06172 6.62837,0.871311 Z M 7.76428,4.44027 0,0 8.21078,-3.54726 Z"
         transform="matrix(0,-1,-1,0,798.491,253.076)"
         id="path13" />
      <text
         fill="#980000"
         font-family="Calibri, Calibri_MSFontService, sans-serif"
         font-weight="400"
         font-size="21px"
         transform="translate(658.254,174)"
         id="text13">Final Error</text>
      <path
         d="m 104,519.5 c 0,-37.279 31.788,-67.5 71,-67.5 39.212,0 71,30.221 71,67.5 0,37.279 -31.788,67.5 -71,67.5 -39.212,0 -71,-30.221 -71,-67.5 z"
         fill="#e8effc"
         fill-rule="evenodd"
         id="path14" />
      <path
         d="M 0.0565959,0.496787 -4.8809,1.05929 -4.76857,1.0331 l -4.875,1.75 0.07673,-0.03511 -4.87496,2.75 0.0666,-0.04506 -4.6875,3.75 0.0437,-0.03929 -4.5625,4.62496 0.0358,-0.0404 -4.3125,5.4375 0.0223,-0.0305 -4.1875,6.1875 0.0232,-0.0377 -3.8125,6.875 0.0143,-0.028 -3.5625,7.5 0.0129,-0.0294 -3.1875,8 0.0098,-0.027 -2.8125,8.4375 0.0085,-0.028 -2.375,8.8125 0.0063,-0.0262 -1.9375,9.125 0.0051,-0.0281 -1.4375,9.375 0.0037,-0.0299 -0.875,9.5 0.0018,-0.0296 -0.3125,9.5622 -6e-4,-0.045 0.5625,9.562 -0.0068,-0.058 1.6875,9.5 -0.0125,-0.053 2.75,9.375 -0.0162,-0.047 3.6875,9.125 -0.0209,-0.045 4.625,8.813 -0.021,-0.037 5.375,8.438 -0.0262,-0.037 6.1875,8 -0.0268,-0.032 6.8125,7.437 -0.0278,-0.028 7.375,6.875 -0.0335,-0.028 7.9375,6.187 -0.03294,-0.023 8.375,5.5 -0.04081,-0.025 8.75005,4.625 -0.0453,-0.021 9.0625,3.688 -0.0459,-0.016 9.25,2.75 -0.0513,-0.013 9.4375,1.75 -0.0624,-0.007 2.7858,0.16 -0.0576,0.999 -2.8172,-0.163 -9.4944,-1.76 -9.2988,-2.765 -9.1082,-3.706 -8.79303,-4.648 -8.41178,-5.524 -7.97089,-6.213 -7.4056,-6.904 -6.8399,-7.467 -6.2142,-8.035 -5.3985,-8.474 -4.6463,-8.853 -3.706,-9.171 -2.7647,-9.425 -1.6974,-9.556 -0.5656,-9.614 0.3138,-9.6006 0.8777,-9.5298 1.4419,-9.404 1.9433,-9.1522 2.3823,-8.8396 2.8217,-8.465 3.1988,-8.0283 3.5761,-7.5287 3.8309,-6.9082 4.2105,-6.2215 4.3411,-5.4735 4.6021,-4.66517 4.742,-3.79358 4.947,-2.79064 4.96952,-1.7839244 4.9951841,-0.5690726 z M 40.81,199.966 l 7.7564,4.454 -8.217,3.532 z"
         transform="matrix(0,1,1,0,175.5,452.5)"
         id="path15" />
      <text
         font-family="Calibri, Calibri_MSFontService, sans-serif"
         font-weight="400"
         font-size="21px"
         transform="translate(787.887,508)"
         id="text15">Initial State</text>
      <text
         font-family="Calibri, Calibri_MSFontService, sans-serif"
         font-weight="400"
         font-size="21px"
         transform="translate(890.887,508)"
         id="text16">–</text>
      <text
         font-family="Calibri, Calibri_MSFontService, sans-serif"
         font-weight="400"
         font-size="21px"
         transform="translate(906.387,508)"
         id="text17">caused by Bug</text>
      <text
         font-family="Calibri, Calibri_MSFontService, sans-serif"
         font-weight="400"
         font-size="21px"
         transform="translate(787.887,612)"
         id="text18">Failure</text>
      <path
         d="m 736,501 c 0,-11.046 8.73,-20 19.5,-20 10.77,0 19.5,8.954 19.5,20 0,11.046 -8.73,20 -19.5,20 -10.77,0 -19.5,-8.954 -19.5,-20 z"
         fill="#e8effc"
         fill-rule="evenodd"
         id="path18" />
      <text
         font-family="Calibri, Calibri_MSFontService, sans-serif"
         font-weight="400"
         font-size="21px"
         transform="translate(787.887,561)"
         id="text19">Final State</text>
      <text
         font-family="Calibri, Calibri_MSFontService, sans-serif"
         font-weight="400"
         font-size="21px"
         transform="translate(883.387,561)"
         id="text20">–</text>
      <text
         font-family="Calibri, Calibri_MSFontService, sans-serif"
         font-weight="400"
         font-size="21px"
         transform="translate(898.887,561)"
         id="text21">ends in a Final Error</text>
      <path
         d="m 736,551 c 0,-11.046 8.73,-20 19.5,-20 10.77,0 19.5,8.954 19.5,20 0,11.046 -8.73,20 -19.5,20 -10.77,0 -19.5,-8.954 -19.5,-20 z"
         fill="#dfdaea"
         fill-rule="evenodd"
         id="path21" />
      <text
         fill="#7f7f7f"
         font-family="Arial, Arial_MSFontService, sans-serif"
         font-weight="400"
         font-size="11px"
         transform="translate(909.387,376)"
         id="text22">BF,</text>
      <text
         fill="#7f7f7f"
         font-family="Arial, Arial_MSFontService, sans-serif"
         font-weight="400"
         font-size="11px"
         transform="translate(929.054,376)"
         id="text23">I.</text>
      <text
         fill="#7f7f7f"
         font-family="Arial, Arial_MSFontService, sans-serif"
         font-weight="400"
         font-size="11px"
         transform="translate(938.054,376)"
         id="text24">Bojanova</text>
      <text
         fill="#7f7f7f"
         font-family="Arial, Arial_MSFontService, sans-serif"
         font-weight="400"
         font-size="11px"
         transform="translate(982.887,376)"
         id="text25">,</text>
      <text
         fill="#7f7f7f"
         font-family="Arial, Arial_MSFontService, sans-serif"
         font-weight="400"
         font-size="11px"
         transform="translate(988.887,376)"
         id="text26">2014</text>
      <text
         fill="#7f7f7f"
         font-family="Arial, Arial_MSFontService, sans-serif"
         font-weight="400"
         font-size="11px"
         transform="translate(1012.89,376)"
         id="text27">-</text>
      <text
         fill="#7f7f7f"
         font-family="Arial, Arial_MSFontService, sans-serif"
         font-weight="400"
         font-size="11px"
         transform="translate(1016.39,376)"
         id="text28">20</text>
      <text
         fill="#7f7f7f"
         font-family="Arial, Arial_MSFontService, sans-serif"
         font-weight="400"
         font-size="11px"
         transform="translate(1028.39,376)"
         id="text29">23</text>
    </g>
  </g>
</svg>
