<?xml version="1.0" encoding="UTF-8" standalone="no"?>
<!-- Created with Inkscape (http://www.inkscape.org/) -->

<svg
   width="194.46875mm"
   height="148.06082mm"
   viewBox="0 0 194.46875 148.06082"
   version="1.1"
   id="svg5"
   inkscape:export-filename="DVL.png"
   inkscape:export-xdpi="96"
   inkscape:export-ydpi="96"
   inkscape:version="1.2.2 (b0a8486541, 2022-12-01)"
   sodipodi:docname="DVL.svg"
   xmlns:inkscape="http://www.inkscape.org/namespaces/inkscape"
   xmlns:sodipodi="http://sodipodi.sourceforge.net/DTD/sodipodi-0.dtd"
   xmlns="http://www.w3.org/2000/svg"
   xmlns:svg="http://www.w3.org/2000/svg">
  <sodipodi:namedview
     id="namedview7"
     pagecolor="#ffffff"
     bordercolor="#000000"
     borderopacity="0.25"
     inkscape:showpageshadow="2"
     inkscape:pageopacity="0.0"
     inkscape:pagecheckerboard="0"
     inkscape:deskcolor="#d1d1d1"
     inkscape:document-units="mm"
     showgrid="false"
     inkscape:zoom="0.914906"
     inkscape:cx="108.20784"
     inkscape:cy="388.018"
     inkscape:window-width="2560"
     inkscape:window-height="1377"
     inkscape:window-x="-8"
     inkscape:window-y="797"
     inkscape:window-maximized="1"
     inkscape:current-layer="layer1" />
  <defs
     id="defs2">
    <clipPath
       id="clip0">
      <rect
         x="-7"
         y="0"
         width="742"
         height="574"
         id="rect9" />
    </clipPath>
  </defs>
  <g
     inkscape:label="Layer 1"
     inkscape:groupmode="layer"
     id="layer1"
     transform="translate(-76.280719,-45.695007)">
    <g
       clip-path="url(#clip0)"
       transform="matrix(0.26458333,0,0,0.26458333,76.280719,43.516587)"
       id="g158">
      <text
         font-family="Calibri, Calibri_MSFontService, sans-serif"
         font-weight="400"
         font-size="15px"
         transform="translate(236.954,19)"
         id="text18">BF Input/Output Check Bugs (_INP) Cluster<tspan
   fill="#7d3368"
   font-size="15px"
   x="31"
   y="25"
   id="tspan14">Data Validation Bugs (DVL) Class</tspan><tspan
   font-size="15px"
   x="-138.80299"
   y="63"
   id="tspan16">Causes</tspan></text>
      <path
         d="M 0,108.5 C 0,102.701 4.70106,98 10.5001,98 H 234.5 c 5.799,0 10.5,4.701 10.5,10.5 v 42 c 0,5.799 -4.701,10.5 -10.5,10.5 H 10.5001 C 4.70106,161 0,156.299 0,150.5 Z"
         fill="#e8effc"
         fill-rule="evenodd"
         id="path20" />
      <text
         fill="#7d3368"
         font-family="Calibri, Calibri_MSFontService, sans-serif"
         font-weight="400"
         font-size="15px"
         transform="translate(5.1748,116)"
         id="text26">Code Defect Bug<tspan
   fill="#000000"
   font-size="15px"
   x="148.16701"
   y="17"
   id="tspan22">Missing Code</tspan><tspan
   fill="#000000"
   font-size="15px"
   x="132"
   y="35"
   id="tspan24">Erroneous Code</tspan></text>
      <path
         d="m 0.0194114,-0.332768 7.4999986,0.4375 3.52189,0.439509 3.0879,0.629159 2.6428,0.69164 2.041,0.82614 c 0.0208,0.00846 0.0407,0.019 0.0594,0.03147 l 1.3125,0.875 c 0.0483,0.03218 0.0873,0.07639 0.1132,0.12828 l 0.4375,0.875 0.4375,0.875 -0.1132,-0.12828 1.3125,0.875 -0.0594,-0.03147 2,0.8125 2.584,0.67386 3.0447,0.62086 4.2649,0.44131 -0.0689,0.6631 L 29.8083,8.9516 26.728,8.32246 24.062,7.62132 l -2,-0.8125 C 22.0412,6.80036 22.0213,6.78982 22.0026,6.77735 l -1.3125,-0.875 C 20.6418,5.87017 20.6028,5.82596 20.5769,5.77407 l -0.4375,-0.875 -0.4375,-0.875 0.1132,0.12828 -1.3125,-0.875 L 18.562,3.30882 16.603,2.50996 13.9958,1.8266 10.9587,1.20576 7.48059,0.770268 -0.0194114,0.332768 Z M 33.0675,5.00217 40.8281,9.44882 32.6144,12.9893 Z"
         transform="matrix(1,0,0,-1,245.5,129.949)"
         id="path28" />
      <path
         d="M 0,186.5 C 0,180.701 4.70106,176 10.5001,176 H 234.5 c 5.799,0 10.5,4.701 10.5,10.5 v 42 c 0,5.799 -4.701,10.5 -10.5,10.5 H 10.5001 C 4.70106,239 0,234.299 0,228.5 Z"
         fill="#e8effc"
         fill-rule="evenodd"
         id="path30" />
      <text
         fill="#7d3368"
         font-family="Calibri, Calibri_MSFontService, sans-serif"
         font-weight="400"
         font-size="15px"
         transform="translate(5.1748,195)"
         id="text44">Specification Defect Bug<tspan
   fill="#000000"
   font-size="15px"
   x="84.666702"
   y="17"
   id="tspan32">Under</tspan><tspan
   fill="#000000"
   font-size="15px"
   x="121.833"
   y="17"
   id="tspan34">-</tspan><tspan
   fill="#000000"
   font-size="15px"
   x="126.333"
   y="17"
   id="tspan36">Restrictive Policy</tspan><tspan
   fill="#000000"
   font-size="15px"
   x="93"
   y="35"
   id="tspan38">Over</tspan><tspan
   fill="#000000"
   font-size="15px"
   x="121.833"
   y="35"
   id="tspan40">-</tspan><tspan
   fill="#000000"
   font-size="15px"
   x="126.333"
   y="35"
   id="tspan42">Restrictive Policy</tspan></text>
      <path
         d="M 0.0426571,-0.330593 1.98016,-0.0805926 c 0.02782,0.0035899 0.05509,0.010682 0.08114,0.0211004 l 1.875,0.7500002 c 0.01899,0.007598 0.03727,0.01694 0.05455,0.027886 l 1.875,1.187496 c 0.01562,0.0099 0.0304,0.02108 0.04417,0.03342 l 1.81249,1.625 1.83698,2.02435 1.70981,2.33985 3.0867,5.72599 2.6414,6.6602 2.0122,7.5369 1.3193,7.969 0.4415,8.2867 0.4375,8.25 1.3085,7.9008 1.993,7.4053 2.6134,6.6523 3.045,5.5874 1.6664,2.3413 1.7842,1.9029 -0.0775,-0.0614 1.4815,0.8502 -0.3318,0.5782 -1.4815,-0.8502 c -0.0288,-0.0165 -0.0549,-0.0372 -0.0775,-0.0614 l -1.8408,-1.9721 -1.7086,-2.4087 -3.08,-5.6626 -2.6366,-6.7227 -2.007,-7.4697 -1.3165,-7.9742 -0.4375,-8.25 -0.4335,-8.2133 -1.3057,-7.906 L 16.3776,20.5603 13.769,13.9705 10.7307,8.32149 9.0655,6.03634 7.27748,4.06069 l -1.8125,-1.625 0.04417,0.03342 -1.875,-1.1875 0.05455,0.02788 -1.875,-0.749998 0.08114,0.021101 -1.9374971,-0.25 z M 35.4404,81.0495 l 5.3877,7.1395 -8.9442,0.0264 z"
         transform="matrix(1,0,0,-1,245.5,208.689)"
         id="path46" />
      <path
         d="M 0,271.834 C 0,262.537 7.53664,255 16.8336,255 H 228.166 c 9.297,0 16.834,7.537 16.834,16.834 v 67.332 C 245,348.463 237.463,356 228.166,356 H 16.8336 C 7.53664,356 0,348.463 0,339.166 Z"
         fill="#f4f2f8"
         fill-rule="evenodd"
         id="path48" />
      <text
         fill="#7d3368"
         font-family="Calibri, Calibri_MSFontService, sans-serif"
         font-weight="400"
         font-size="15px"
         transform="translate(7.01974,275)"
         id="text58">Data Fault<tspan
   fill="#000000"
   font-size="15px"
   x="131.16701"
   y="17"
   id="tspan50">Corrupted Data</tspan><tspan
   fill="#000000"
   font-size="15px"
   x="131.16701"
   y="35"
   id="tspan52">Tampered Data</tspan><tspan
   fill="#000000"
   font-size="15px"
   x="93.166702"
   y="53"
   id="tspan54">Corrupted Policy Data</tspan><tspan
   fill="#000000"
   font-size="15px"
   x="93.166702"
   y="70"
   id="tspan56">Tampered Policy Data</tspan></text>
      <path
         d="M 0.0929367,-0.320115 2.03044,0.242385 C 2.07242,0.254573 2.1116,0.274902 2.14573,0.30221 l 1.875,1.5 C 4.0437,1.82059 4.06414,1.84192 4.08151,1.86566 l 1.875,2.5625 1.83715,3.41413 1.82475,4.21281 1.69739,5.0258 1.5679,5.6424 1.5029,6.2614 1.3776,6.8244 1.2518,7.2593 1.0642,7.6985 0.9384,8.0068 1.3137,16.8254 0.4384,17.33 0.4375,17.3129 1.3116,16.795 0.9363,7.987 1.0616,7.68 1.2483,7.239 1.3732,6.804 1.4974,6.238 1.5596,5.613 1.6821,4.983 1.8026,4.162 -0.0311,-0.057 2.4405,3.557 -0.5497,0.377 -2.4404,-3.556 c -0.0122,-0.018 -0.0226,-0.037 -0.0311,-0.057 l -1.8224,-4.213 -1.6929,-5.017 -1.5654,-5.637 -1.5026,-6.262 -1.3768,-6.821 -1.2517,-7.261 -1.0634,-7.695 -0.9387,-8.013 -1.3134,-16.83 L 20.1043,92.9459 19.6677,75.6509 18.3564,58.8513 17.4198,50.8581 16.359,43.1816 15.1108,35.9409 13.7384,29.1403 12.2413,22.9017 10.6842,17.2941 9.00659,12.3199 7.20634,8.15771 5.41849,4.82184 l -1.875,-2.5625 0.06078,0.06345 -1.875,-1.5 0.11529,0.059825 -1.9374967,-0.5625 z M 37.4501,177.545 l 3.378,8.282 -8.6523,-2.267 z"
         transform="matrix(1,0,0,-1,245.5,306.327)"
         id="path60" />
      <text
         font-family="Calibri, Calibri_MSFontService, sans-serif"
         font-weight="400"
         font-size="15px"
         transform="translate(565.84,82)"
         id="text62">Consequences</text>
      <path
         d="m 490,105.333 c 0,-4.05 3.283,-7.333 7.333,-7.333 h 230.334 c 4.05,0 7.333,3.283 7.333,7.333 v 29.334 c 0,4.05 -3.283,7.333 -7.333,7.333 H 497.333 c -4.05,0 -7.333,-3.283 -7.333,-7.333 z"
         fill="#f4f2f8"
         fill-rule="evenodd"
         id="path64" />
      <text
         fill="#7d3368"
         font-family="Calibri, Calibri_MSFontService, sans-serif"
         font-weight="400"
         font-size="15px"
         transform="translate(494.191,115)"
         id="text68">Data Error<tspan
   fill="#000000"
   font-size="15px"
   x="158.33299"
   y="17"
   id="tspan66">Invalid Data</tspan></text>
      <path
         d="m 456.167,120.167 h 4.333 3.063 2.625 2 1.312 0.438 0.437 1.313 2 2.625 3.062 3.5 7.453 v 0.666 h -7.453 -3.5 -3.062 -2.625 -2 -1.313 -0.437 -0.438 -1.312 -2 -2.625 -3.063 -4.333 z m 1.333,4.333 -8,-4 8,-4 z"
         id="path70" />
      <path
         d="m 490,177 c 0,-11.046 8.954,-20 20,-20 h 205 c 11.046,0 20,8.954 20,20 v 80 c 0,11.046 -8.954,20 -20,20 H 510 c -11.046,0 -20,-8.954 -20,-20 z"
         fill="#dfdaea"
         fill-rule="evenodd"
         id="path72" />
      <text
         fill="#7d3368"
         font-family="Calibri, Calibri_MSFontService, sans-serif"
         font-weight="400"
         font-size="15px"
         transform="translate(497.881,178)"
         id="text84">Injection Final Error<tspan
   fill="#000000"
   font-size="15px"
   x="129.66701"
   y="17"
   id="tspan74">Query Injection</tspan><tspan
   fill="#000000"
   font-size="15px"
   x="105.167"
   y="35"
   id="tspan76">Command Injection</tspan><tspan
   fill="#000000"
   font-size="15px"
   x="91.833298"
   y="53"
   id="tspan78">Source Code Injection</tspan><tspan
   fill="#000000"
   font-size="15px"
   x="103.333"
   y="70"
   id="tspan80">Parameter Injection</tspan><tspan
   fill="#000000"
   font-size="15px"
   x="145.66701"
   y="88"
   id="tspan82">File Injection</tspan></text>
      <path
         d="m 455.565,123.356 1.617,1.052 c 0.029,0.019 0.056,0.043 0.078,0.07 l 1.812,2.25 1.706,2.589 3.084,6.286 2.64,7.474 2.01,8.282 1.318,8.842 0.441,9.158 0.437,9.125 1.309,8.779 1.995,8.221 2.615,7.342 3.047,6.215 1.667,2.526 1.794,2.224 1.784,1.719 -0.04,-0.033 1.875,1.312 -0.05,-0.029 1.875,0.875 -0.106,-0.029 1.891,0.2 -0.071,0.663 -1.891,-0.2 c -0.036,-0.004 -0.072,-0.014 -0.105,-0.029 l -1.875,-0.875 c -0.018,-0.009 -0.035,-0.018 -0.051,-0.029 l -1.875,-1.313 c -0.014,-0.01 -0.027,-0.021 -0.04,-0.033 l -1.841,-1.781 -1.831,-2.276 -1.708,-2.599 -3.077,-6.285 -2.635,-7.408 -2.006,-8.279 -1.316,-8.846 -0.437,-9.125 -0.435,-9.092 -1.306,-8.783 -1.991,-8.218 -2.61,-7.401 -3.041,-6.214 -1.669,-2.536 -1.813,-2.25 0.078,0.07 -1.616,-1.052 z m -0.886,4.437 -5.179,-7.293 8.941,0.233 z"
         id="path86" />
      <text
         font-family="Calibri, Calibri_MSFontService, sans-serif"
         font-weight="400"
         font-size="15px"
         transform="translate(330.704,82)"
         id="text88">Operations</text>
      <rect
         x="286.5"
         y="98.500099"
         width="163"
         height="44"
         stroke="#000000"
         stroke-width="0.666667"
         stroke-linejoin="round"
         stroke-miterlimit="10"
         fill="none"
         id="rect90" />
      <text
         font-family="Calibri, Calibri_MSFontService, sans-serif"
         font-weight="400"
         font-size="15px"
         transform="translate(339.287,116)"
         id="text96">Validate<tspan
   font-size="15px"
   x="1.41333"
   y="17"
   id="tspan92">Sanitize</tspan><tspan
   font-size="15px"
   x="-4.5"
   y="60"
   id="tspan94">Operands</tspan></text>
      <rect
         x="286.5"
         y="192.5"
         width="163"
         height="25"
         stroke="#000000"
         stroke-width="0.666667"
         stroke-linejoin="round"
         stroke-miterlimit="10"
         fill="none"
         id="rect98" />
      <text
         font-family="Calibri, Calibri_MSFontService, sans-serif"
         font-weight="400"
         font-size="15px"
         transform="translate(349.787,211)"
         id="text140">Data<tspan
   font-size="15px"
   x="-15.9998"
   y="179"
   id="tspan100">Attributes</tspan><tspan
   fill="#7d3368"
   font-size="15px"
   x="-347.68701"
   y="214"
   id="tspan102">Execution Space</tspan><tspan
   font-size="15px"
   x="-229.687"
   y="231"
   id="tspan104">Local</tspan><tspan
   font-size="15px"
   x="-238.187"
   y="249"
   id="tspan106">Admin</tspan><tspan
   font-size="15px"
   x="-266.354"
   y="267"
   id="tspan108">Bare</tspan>-Metal<tspan
   fill="#7d3368"
   font-size="15px"
   x="-156.086"
   y="214"
   id="tspan110">Mechanism</tspan><tspan
   font-size="15px"
   x="-50.419601"
   y="231"
   id="tspan112">Safelist</tspan><tspan
   font-size="15px"
   x="-55.5863"
   y="249"
   id="tspan114">Denylist</tspan><tspan
   font-size="15px"
   x="-50.752998"
   y="267"
   id="tspan116">Format</tspan><tspan
   font-size="15px"
   x="-48.252998"
   y="284"
   id="tspan118">Length</tspan><tspan
   fill="#7d3368"
   font-size="15px"
   x="35.514801"
   y="214"
   id="tspan120">Source Code</tspan><tspan
   font-size="15px"
   x="125.681"
   y="231"
   id="tspan122">Codebase</tspan><tspan
   font-size="15px"
   x="118.348"
   y="249"
   id="tspan124">Third Party</tspan><tspan
   font-size="15px"
   x="130.181"
   y="267"
   id="tspan126">Standard</tspan><tspan
   font-size="15px"
   x="129.84801"
   y="284"
   id="tspan128">Compiler</tspan><tspan
   fill="#7d3368"
   font-size="15px"
   x="227.116"
   y="214"
   id="tspan130">State</tspan><tspan
   font-size="15px"
   x="328.28299"
   y="231"
   id="tspan132">Entered</tspan><tspan
   font-size="15px"
   x="336.116"
   y="249"
   id="tspan134">Stored</tspan><tspan
   font-size="15px"
   x="338.44901"
   y="267"
   id="tspan136">In Use</tspan><tspan
   font-size="15px"
   x="305.616"
   y="284"
   id="tspan138">Transferred</tspan></text>
      <path
         d="M 0,546.167 C 0,543.866 1.86552,542 4.16675,542 H 37.8333 C 40.1345,542 42,543.866 42,546.167 v 16.666 C 42,565.134 40.1345,567 37.8333,567 H 4.16675 C 1.86552,567 0,565.134 0,562.833 Z"
         fill="#e8effc"
         fill-rule="evenodd"
         id="path142" />
      <text
         font-family="Calibri, Calibri_MSFontService, sans-serif"
         font-weight="400"
         font-size="15px"
         transform="translate(44.0945,561)"
         id="text144">Bug</text>
      <path
         d="m 184,546.167 c 0,-2.301 1.866,-4.167 4.167,-4.167 h 33.666 c 2.301,0 4.167,1.866 4.167,4.167 v 16.666 c 0,2.301 -1.866,4.167 -4.167,4.167 H 188.167 C 185.866,567 184,565.134 184,562.833 Z"
         fill="#f4f2f8"
         fill-rule="evenodd"
         id="path146" />
      <text
         font-family="Calibri, Calibri_MSFontService, sans-serif"
         font-weight="400"
         font-size="15px"
         transform="translate(227.822,561)"
         id="text148">Fault/Error</text>
      <path
         d="m 367,546.167 c 0,-2.301 1.866,-4.167 4.167,-4.167 h 33.666 c 2.301,0 4.167,1.866 4.167,4.167 v 16.666 c 0,2.301 -1.866,4.167 -4.167,4.167 H 371.167 C 368.866,567 367,565.134 367,562.833 Z"
         fill="#dfdaea"
         fill-rule="evenodd"
         id="path150" />
      <text
         font-family="Calibri, Calibri_MSFontService, sans-serif"
         font-weight="400"
         font-size="15px"
         transform="translate(411.549,561)"
         id="text152">Final Error</text>
      <rect
         x="551.5"
         y="542.5"
         width="42"
         height="25"
         stroke="#000000"
         stroke-width="0.666667"
         stroke-linejoin="round"
         stroke-miterlimit="10"
         fill="none"
         id="rect154" />
      <text
         font-family="Calibri, Calibri_MSFontService, sans-serif"
         font-weight="400"
         font-size="15px"
         transform="translate(595.276,561)"
         id="text156">Operation/Operand</text>
    </g>
  </g>
</svg>
