<?xml version="1.0" encoding="UTF-8" standalone="no"?>
<!-- Created with Inkscape (http://www.inkscape.org/) -->

<svg
   width="194.46875mm"
   height="168.86406mm"
   viewBox="0 0 194.46875 168.86408"
   version="1.1"
   id="svg5"
   inkscape:export-filename="_MEM-MUS.png"
   inkscape:export-xdpi="96"
   inkscape:export-ydpi="96"
   inkscape:version="1.2.2 (b0a8486541, 2022-12-01)"
   sodipodi:docname="_MEM-MDL.svg"
   xmlns:inkscape="http://www.inkscape.org/namespaces/inkscape"
   xmlns:sodipodi="http://sodipodi.sourceforge.net/DTD/sodipodi-0.dtd"
   xmlns="http://www.w3.org/2000/svg"
   xmlns:svg="http://www.w3.org/2000/svg">
  <sodipodi:namedview
     id="namedview7"
     pagecolor="#ffffff"
     bordercolor="#000000"
     borderopacity="0.25"
     inkscape:showpageshadow="2"
     inkscape:pageopacity="0.0"
     inkscape:pagecheckerboard="0"
     inkscape:deskcolor="#d1d1d1"
     inkscape:document-units="mm"
     showgrid="false"
     inkscape:zoom="0.914906"
     inkscape:cx="-66.673516"
     inkscape:cy="134.44004"
     inkscape:window-width="2560"
     inkscape:window-height="1377"
     inkscape:window-x="-8"
     inkscape:window-y="797"
     inkscape:window-maximized="1"
     inkscape:current-layer="layer1" />
  <defs
     id="defs2">
    <clipPath
       id="clip0">
      <rect
         x="-7"
         y="0"
         width="742"
         height="574"
         id="rect9" />
    </clipPath>
    <clipPath
       id="clip0-5">
      <rect
         x="-7"
         y="0"
         width="742"
         height="543"
         id="rect555" />
    </clipPath>
    <clipPath
       id="clip0-8">
      <rect
         x="-7"
         y="0"
         width="742"
         height="612"
         id="rect846" />
    </clipPath>
    <clipPath
       id="clip0-4">
      <rect
         x="-7"
         y="0"
         width="742"
         height="659"
         id="rect1187" />
    </clipPath>
    <clipPath
       id="clip0-9">
      <rect
         x="-7"
         y="0"
         width="742"
         height="653"
         id="rect1522" />
    </clipPath>
    <clipPath
       id="clip0-0">
      <rect
         x="-7"
         y="0"
         width="742"
         height="697"
         id="rect1851" />
    </clipPath>
    <clipPath
       id="clip0-58">
      <rect
         x="-7"
         y="0"
         width="742"
         height="807"
         id="rect2206" />
    </clipPath>
    <clipPath
       id="clip0-2">
      <rect
         x="-7"
         y="0"
         width="742"
         height="612"
         id="rect2595" />
    </clipPath>
    <clipPath
       id="clip0-7">
      <rect
         x="-7"
         y="0"
         width="742"
         height="769"
         id="rect2938" />
    </clipPath>
    <clipPath
       id="clip0-6">
      <rect
         x="-7"
         y="0"
         width="742"
         height="653"
         id="rect3327" />
    </clipPath>
  </defs>
  <g
     inkscape:label="Layer 1"
     inkscape:groupmode="layer"
     id="layer1"
     transform="translate(-121.95812,-112.52877)">
    <g
       clip-path="url(#clip0-6)"
       transform="matrix(0.26458333,0,0,0.26458333,121.95812,110.25152)"
       id="g3490">
      <text
         font-family="Calibri, Calibri_MSFontService, sans-serif"
         font-weight="400"
         font-size="15px"
         transform="translate(264.954,19)"
         id="text3336">BF Memory Bugs (_MEM) Cluster<tspan
   fill="#7d3368"
   font-size="15px"
   x="-17.75"
   y="25"
   id="tspan3332">Memory Deallocation Bugs (MDL) Class</tspan><tspan
   font-size="15px"
   x="-166.80299"
   y="63"
   id="tspan3334">Causes</tspan></text>
      <path
         d="M 0,111.667 C 0,104.119 6.11885,98 13.6668,98 H 231.333 c 7.548,0 13.667,6.119 13.667,13.667 v 54.666 C 245,173.881 238.881,180 231.333,180 H 13.6668 C 6.11885,180 0,173.881 0,166.333 Z"
         fill="#e8effc"
         fill-rule="evenodd"
         id="path3338" />
      <text
         fill="#7d3368"
         font-family="Calibri, Calibri_MSFontService, sans-serif"
         font-weight="400"
         font-size="15px"
         transform="translate(6.09722,117)"
         id="text3346">Code Defect Bug<tspan
   fill="#000000"
   font-size="15px"
   x="146.33299"
   y="17"
   id="tspan3340">Missing Code</tspan><tspan
   fill="#000000"
   font-size="15px"
   x="87.666702"
   y="35"
   id="tspan3342">Mismatched Operation</tspan><tspan
   fill="#000000"
   font-size="15px"
   x="130.16701"
   y="53"
   id="tspan3344">Erroneous Code</tspan></text>
      <path
         d="m 0.0194114,-0.332768 7.4999986,0.4375 3.52189,0.439509 3.0879,0.629159 2.6428,0.69164 2.041,0.82614 c 0.0208,0.00846 0.0407,0.019 0.0594,0.03147 l 1.3125,0.875 c 0.0483,0.03218 0.0873,0.07639 0.1132,0.12828 l 0.4375,0.875 0.4375,0.875 -0.1132,-0.12828 1.3125,0.875 -0.0594,-0.03147 2,0.8125 2.584,0.67386 3.0447,0.62086 4.2649,0.44131 -0.0689,0.6631 L 29.8083,8.9516 26.728,8.32246 24.062,7.62132 l -2,-0.8125 C 22.0412,6.80036 22.0213,6.78982 22.0026,6.77735 l -1.3125,-0.875 C 20.6418,5.87017 20.6028,5.82596 20.5769,5.77407 l -0.4375,-0.875 -0.4375,-0.875 0.1132,0.12828 -1.3125,-0.875 L 18.562,3.30882 16.603,2.50996 13.9958,1.8266 10.9587,1.20576 7.48059,0.770268 -0.0194114,0.332768 Z M 33.0675,5.00217 40.8281,9.44882 32.6144,12.9893 Z"
         transform="matrix(1,0,0,-1,245.5,138.949)"
         id="path3348" />
      <path
         d="M 0,208.667 C 0,201.119 6.11885,195 13.6668,195 H 231.333 c 7.548,0 13.667,6.119 13.667,13.667 v 54.666 C 245,270.881 238.881,277 231.333,277 H 13.6668 C 6.11885,277 0,270.881 0,263.333 Z"
         fill="#f4f2f8"
         fill-rule="evenodd"
         id="path3350" />
      <text
         fill="#7d3368"
         font-family="Calibri, Calibri_MSFontService, sans-serif"
         font-weight="400"
         font-size="15px"
         transform="translate(6.09722,214)"
         id="text3358">Address Fault<tspan
   fill="#000000"
   font-size="15px"
   x="151"
   y="17"
   id="tspan3352">Wild Pointer</tspan><tspan
   fill="#000000"
   font-size="15px"
   x="126.667"
   y="35"
   id="tspan3354">Dangling Pointer</tspan><tspan
   fill="#000000"
   font-size="15px"
   x="87"
   y="53"
   id="tspan3356">Wrong Position Pointer</tspan></text>
      <path
         d="M 0.0530775,-0.32908 1.99058,-0.0165804 c 0.0304,0.0049031 0.05998,0.01399785 0.08788,0.0270193 l 1.875,0.8750001 c 0.02191,0.010226 0.04266,0.022813 0.06185,0.037526 l 1.875,1.437495 c 0.01593,0.01222 0.0307,0.02582 0.04419,0.0407 l 1.8125,2 1.83299,2.46244 1.70581,2.8399 1.5771,3.2771 1.5076,3.6419 2.6342,8.15 2.0083,9.0932 1.3173,9.6518 0.4402,10.0304 0.4375,10 1.3098,9.6573 1.9952,9.0355 2.6165,8.0311 1.491,3.6008 1.5549,3.233 1.6746,2.8507 1.79,2.3417 -0.0662,-0.066 1.6818,1.25 -0.3976,0.535 -1.6818,-1.249 c -0.025,-0.019 -0.0473,-0.041 -0.0662,-0.066 l -1.835,-2.408 -1.7004,-2.8996 -1.5701,-3.267 -1.509,-3.6492 -2.6335,-8.0939 -2.0048,-9.0896 -1.3152,-9.7176 -0.4375,-10 -0.4348,-9.9696 -1.3077,-9.5982 -1.9917,-9.0318 -2.6158,-8.1 L 12.2621,13.2694 10.7142,10.0465 9.04501,7.2614 7.253,4.84884 l -1.8125,-2 0.04419,0.0407 -1.875,-1.4375 0.06185,0.03752 -1.875,-0.874999 0.08788,0.027019 -1.9374975,-0.3125 z M 35.9048,99.6193 l 4.9233,7.4677 -8.9278,-0.542 z"
         transform="matrix(1,0,0,-1,245.5,236.587)"
         id="path3360" />
      <path
         d="M 0,306.667 C 0,299.119 6.11885,293 13.6668,293 H 231.333 c 7.548,0 13.667,6.119 13.667,13.667 v 54.666 C 245,368.881 238.881,375 231.333,375 H 13.6668 C 6.11885,375 0,368.881 0,361.333 Z"
         fill="#f4f2f8"
         fill-rule="evenodd"
         id="path3362" />
      <text
         fill="#7d3368"
         font-family="Calibri, Calibri_MSFontService, sans-serif"
         font-weight="400"
         font-size="15px"
         transform="translate(6.09722,312)"
         id="text3370">Data Fault<tspan
   fill="#000000"
   font-size="15px"
   x="108.667"
   y="17"
   id="tspan3364">Hardcoded Address</tspan><tspan
   fill="#000000"
   font-size="15px"
   x="113.333"
   y="35"
   id="tspan3366">Forbidden Address</tspan><tspan
   fill="#000000"
   font-size="15px"
   x="125"
   y="53"
   id="tspan3368">Wrong Size Used</tspan></text>
      <path
         d="m 0.0929367,-0.320115 1.9375033,0.5625 c 0.0502,0.014576 0.09628,0.040758 0.1345,0.07643 l 1.875,1.749995 c 0.018,0.01681 0.0341,0.03556 0.04797,0.05591 l 1.875,2.75 c 0.00927,0.01359 0.01755,0.02791 0.02471,0.04272 l 1.8125,3.75 1.82273,4.64846 1.69555,5.4603 1.5675,6.268 1.5023,6.8847 1.3772,7.511 1.2514,8.0086 1.0639,8.4474 0.9383,8.8816 1.3135,18.4488 0.4382,19.1407 0.4375,19.125 1.3118,18.422 0.9365,8.863 1.0617,8.431 1.2486,7.991 1.3736,7.491 1.4978,6.864 1.5602,6.24 1.6825,5.42 1.8044,4.602 -0.0257,-0.052 2.5817,4.236 -0.5693,0.347 -2.5816,-4.236 c -0.0101,-0.017 -0.0187,-0.034 -0.0258,-0.052 l -1.8205,-4.648 -1.6925,-5.455 -1.5648,-6.26 -1.5022,-6.886 -1.3764,-7.509 -1.2514,-8.009 -1.0633,-8.444 -0.9385,-8.887 -1.3132,-18.453 -0.4375,-19.125 -0.4368,-19.1093 -1.3115,-18.4262 -0.9367,-8.8684 -1.0611,-8.4276 -1.2486,-7.9914 -1.3728,-7.489 -1.4977,-6.8653 -1.5575,-6.232 -1.67945,-5.4147 -1.80227,-4.60154 -1.8125,-3.75 0.02471,0.04272 -1.875,-2.75 0.04797,0.05591 -1.875,-1.750005 0.1345,0.07643 -1.9374967,-0.5625 z M 37.713,196.34 l 3.1151,8.384 -8.5765,-2.538 z"
         transform="matrix(1,0,0,-1,245.5,334.224)"
         id="path3372" />
      <path
         d="M 0,398.333 C 0,394.283 3.28327,391 7.33339,391 H 237.667 c 4.05,0 7.333,3.283 7.333,7.333 v 29.334 c 0,4.05 -3.283,7.333 -7.333,7.333 H 7.33339 C 3.28327,435 0,431.717 0,427.667 Z"
         fill="#f4f2f8"
         fill-rule="evenodd"
         id="path3374" />
      <text
         fill="#7d3368"
         font-family="Calibri, Calibri_MSFontService, sans-serif"
         font-weight="400"
         font-size="15px"
         transform="translate(4.25228,408)"
         id="text3378">Size Fault<tspan
   fill="#000000"
   font-size="15px"
   x="45.333302"
   y="17"
   id="tspan3376">Not Enough Memory Allocated</tspan></text>
      <path
         d="m 0.065372,-0.32686 0.937498,0.1875 c 0.03947,0.007892 0.07717,0.022864 0.1113,0.0441939 l 1,0.6250001 C 2.13861,0.54511 2.16097,0.563492 2.18068,0.58452 l 0.9375,1 c 0.01176,0.01254 0.02254,0.026 0.03223,0.0402 l 0.9375,1.375 1.89871,3.85317 1.82806,5.22471 1.81868,6.4571 1.69194,7.5802 1.5651,8.5753 1.5014,9.5706 1.3761,10.3829 1.2508,11.0689 1.0633,11.6947 0.9379,12.2548 0.7504,12.6929 0.5627,12.943 0.4378,26.446 0.4375,26.438 0.5622,12.929 0.7498,12.682 0.9371,12.244 1.0621,11.683 1.2492,11.055 1.3742,10.369 1.4989,9.554 1.5611,8.555 1.6849,7.549 1.8081,6.42 1.8063,5.168 -0.0398,-0.079 1.3041,1.901 -0.5497,0.378 -1.3042,-1.901 c -0.0167,-0.025 -0.03,-0.051 -0.0398,-0.079 l -1.8187,-5.207 -1.8169,-6.455 -1.6901,-7.576 -1.5639,-8.57 -1.5011,-9.571 L 25.1063,228.85 23.8555,217.78 22.7926,206.088 21.8547,193.832 21.1045,181.139 20.5417,168.193 20.1042,141.756 19.667,115.327 19.1047,102.395 18.3551,89.7129 17.418,77.4677 16.3563,65.7874 15.1071,54.7313 13.7332,44.3642 12.2346,34.8098 10.6747,26.2601 8.99164,18.7153 7.18532,12.2974 5.38838,7.14711 3.53709,3.37528 l -0.9375,-1.375 0.03223,0.0402 -0.9375,-1 0.06651,0.05469 -0.999996,-0.625004 0.111294,0.044194 -0.9375,-0.1875 z M 38.6625,274.786 l 2.1656,8.679 -8.2419,-3.475 z"
         transform="matrix(1,0,0,-1,245.5,412.965)"
         id="path3380" />
      <text
         font-family="Calibri, Calibri_MSFontService, sans-serif"
         font-weight="400"
         font-size="15px"
         transform="translate(565.84,82)"
         id="text3382">Consequences</text>
      <path
         d="m 490,105.333 c 0,-4.05 3.283,-7.333 7.333,-7.333 h 230.334 c 4.05,0 7.333,3.283 7.333,7.333 v 29.334 c 0,4.05 -3.283,7.333 -7.333,7.333 H 497.333 c -4.05,0 -7.333,-3.283 -7.333,-7.333 z"
         fill="#f4f2f8"
         fill-rule="evenodd"
         id="path3384" />
      <text
         fill="#7d3368"
         font-family="Calibri, Calibri_MSFontService, sans-serif"
         font-weight="400"
         font-size="15px"
         transform="translate(494.191,115)"
         id="text3388">Address Error<tspan
   fill="#000000"
   font-size="15px"
   x="150.83299"
   y="17"
   id="tspan3386">NULL Pointer</tspan></text>
      <path
         d="M 6.68881,0.0835678 11.0351,0.543518 14.1292,1.1734 16.772,1.86504 18.813,2.69118 c 0.0208,0.00846 0.0407,0.019 0.0594,0.03147 l 1.3125,0.875 c 0.0483,0.03218 0.0873,0.07639 0.1132,0.12828 l 0.4375,0.875 0.4375,0.875 -0.1132,-0.12828 1.3125,0.875 -0.0594,-0.03147 2,0.8125 2.584,0.67386 3.0447,0.62086 3.4746,0.43334 7.4293,0.38419 L 40.8111,9.7817 33.3337,9.39326 29.8083,8.9516 26.728,8.32246 24.062,7.62132 l -2,-0.8125 C 22.0412,6.80036 22.0213,6.78982 22.0026,6.77735 l -1.3125,-0.875 C 20.6418,5.87017 20.6028,5.82596 20.5769,5.77407 l -0.4375,-0.875 -0.4375,-0.875 0.1132,0.12828 -1.3125,-0.875 L 18.562,3.30882 16.603,2.50996 13.9958,1.8266 10.9649,1.20648 6.61865,0.746532 Z M 7.73545,4.4903 0,0 8.23351,-3.49418 Z"
         transform="matrix(1,0,0,-1,449.5,129.949)"
         id="path3390" />
      <path
         d="m 490,164.5 c 0,-4.142 3.358,-7.5 7.5,-7.5 h 230 c 4.142,0 7.5,3.358 7.5,7.5 v 30 c 0,4.142 -3.358,7.5 -7.5,7.5 h -230 c -4.142,0 -7.5,-3.358 -7.5,-7.5 z"
         fill="#f4f2f8"
         fill-rule="evenodd"
         id="path3392" />
      <text
         fill="#7d3368"
         font-family="Calibri, Calibri_MSFontService, sans-serif"
         font-weight="400"
         font-size="15px"
         transform="translate(494.191,175)"
         id="text3396">Size Error<tspan
   fill="#000000"
   font-size="15px"
   x="45.333302"
   y="17"
   id="tspan3394">Not Enough Memory Allocated</tspan></text>
      <path
         d="m 456.056,131.133 4.616,2.769 c 0.025,0.015 0.048,0.033 0.068,0.055 l 3.063,3.187 c 0.012,0.013 0.024,0.027 0.034,0.042 l 2.625,3.813 c 0.011,0.015 0.02,0.031 0.028,0.048 l 2,4.313 c 0.007,0.015 0.013,0.031 0.018,0.048 l 1.312,4.562 c 0.006,0.02 0.01,0.041 0.012,0.062 l 0.437,4.687 0.438,4.688 -0.012,-0.062 1.313,4.563 -0.019,-0.05 2,4.25 -0.027,-0.047 2.625,3.813 -0.034,-0.042 3.062,3.187 -0.046,-0.04 3.5,2.5 -0.06,-0.034 3.688,1.625 -0.089,-0.025 3.766,0.519 -0.091,0.66 -3.766,-0.519 c -0.031,-0.004 -0.061,-0.012 -0.089,-0.025 l -3.687,-1.625 c -0.021,-0.009 -0.041,-0.02 -0.06,-0.034 l -3.5,-2.5 c -0.016,-0.012 -0.032,-0.025 -0.046,-0.04 l -3.063,-3.188 c -0.012,-0.013 -0.024,-0.027 -0.034,-0.041 l -2.625,-3.813 c -0.01,-0.015 -0.019,-0.031 -0.027,-0.047 l -2,-4.25 c -0.008,-0.016 -0.014,-0.033 -0.019,-0.05 l -1.312,-4.562 c -0.006,-0.02 -0.01,-0.041 -0.012,-0.061 l -0.437,-4.688 -0.438,-4.687 0.012,0.061 -1.313,-4.563 0.018,0.048 -2,-4.312 0.028,0.049 -2.625,-3.813 0.034,0.042 -3.062,-3.188 0.069,0.055 -4.616,-2.768 z m -0.046,4.501 -6.51,-6.134 8.813,-1.528 z"
         id="path3398" />
      <path
         d="M 490,230.667 C 490,223.119 496.119,217 503.667,217 h 217.666 c 7.548,0 13.667,6.119 13.667,13.667 v 54.666 C 735,292.881 728.881,299 721.333,299 H 503.667 C 496.119,299 490,292.881 490,285.333 Z"
         fill="#dfdaea"
         fill-rule="evenodd"
         id="path3400" />
      <text
         fill="#7d3368"
         font-family="Calibri, Calibri_MSFontService, sans-serif"
         font-weight="400"
         font-size="15px"
         transform="translate(496.036,236)"
         id="text3408">Memory Final Error<tspan
   fill="#000000"
   font-size="15px"
   x="143.66701"
   y="17"
   id="tspan3402">Memory Leak</tspan><tspan
   fill="#000000"
   font-size="15px"
   x="152.66701"
   y="35"
   id="tspan3404">Double Free</tspan><tspan
   fill="#000000"
   font-size="15px"
   x="118"
   y="53"
   id="tspan3406">Object Corruption</tspan></text>
      <path
         d="m 455.271,132.965 1.958,1.856 c 0.021,0.019 0.04,0.042 0.055,0.067 l 1.812,2.937 1.703,3.466 1.573,3.961 1.505,4.326 1.381,4.767 1.253,5.075 2.004,10.895 1.316,11.71 0.44,12.088 0.437,12.062 1.311,11.6 1.996,10.915 1.246,4.979 1.372,4.738 1.495,4.36 1.556,3.858 1.678,3.416 1.797,2.909 1.794,2.348 -0.038,-0.042 1.875,1.75 -0.063,-0.046 1.875,1.063 -0.109,-0.039 1.891,0.321 -0.111,0.658 -1.891,-0.322 c -0.038,-0.006 -0.075,-0.019 -0.109,-0.038 l -1.875,-1.063 c -0.023,-0.013 -0.044,-0.028 -0.063,-0.046 l -1.875,-1.75 c -0.014,-0.013 -0.026,-0.027 -0.037,-0.042 l -1.832,-2.402 -1.828,-2.966 -1.697,-3.459 -1.569,-3.892 -1.505,-4.39 -1.378,-4.762 -1.254,-5.021 -2.004,-10.96 -1.314,-11.65 -0.438,-12.063 -0.435,-12.037 -1.309,-11.665 -1.996,-10.855 -1.247,-5.05 -1.369,-4.733 -1.495,-4.299 -1.552,-3.914 -1.672,-3.409 -1.813,-2.937 0.055,0.067 -1.959,-1.856 z m -1.345,4.308 -4.426,-7.773 8.874,1.123 z"
         id="path3410" />
      <text
         font-family="Calibri, Calibri_MSFontService, sans-serif"
         font-weight="400"
         font-size="15px"
         transform="translate(330.704,82)"
         id="text3412">Operations</text>
      <rect
         x="286.5"
         y="98.500099"
         width="163"
         height="63"
         stroke="#000000"
         stroke-width="0.666667"
         stroke-linejoin="round"
         stroke-miterlimit="10"
         fill="none"
         id="rect3414" />
      <text
         font-family="Calibri, Calibri_MSFontService, sans-serif"
         font-weight="400"
         font-size="15px"
         transform="translate(332.204,116)"
         id="text3422">Deallocate<tspan
   font-size="15px"
   x="9.4200096"
   y="17"
   id="tspan3416">Reduce</tspan><tspan
   font-size="15px"
   x="-23.8333"
   y="35"
   id="tspan3418">Reallocate</tspan>-Reduce<tspan
   font-size="15px"
   x="2.5833099"
   y="79"
   id="tspan3420">Operands</tspan></text>
      <rect
         x="286.5"
         y="211.5"
         width="163"
         height="63"
         stroke="#000000"
         stroke-width="0.666667"
         stroke-linejoin="round"
         stroke-miterlimit="10"
         fill="none"
         id="rect3424" />
      <text
         font-family="Calibri, Calibri_MSFontService, sans-serif"
         font-weight="400"
         font-size="15px"
         transform="translate(349.79,230)"
         id="text3472">Data<tspan
   font-size="15px"
   x="-9.9200096"
   y="17"
   id="tspan3426">Address</tspan><tspan
   font-size="15px"
   x="2.3333099"
   y="35"
   id="tspan3428">Size</tspan><tspan
   font-size="15px"
   x="-16.003099"
   y="239"
   id="tspan3430">Attributes</tspan><tspan
   fill="#7d3368"
   font-size="15px"
   x="-347.69101"
   y="274"
   id="tspan3432">Execution Space</tspan><tspan
   font-size="15px"
   x="-290.85699"
   y="291"
   id="tspan3434">Userland</tspan><tspan
   font-size="15px"
   x="-276.19101"
   y="309"
   id="tspan3436">Kernel</tspan><tspan
   font-size="15px"
   x="-304.69101"
   y="327"
   id="tspan3438">Bare</tspan>-Metal<tspan
   fill="#7d3368"
   font-size="15px"
   x="-194.41"
   y="274"
   id="tspan3440">Mechanism</tspan><tspan
   font-size="15px"
   x="-128.41"
   y="291"
   id="tspan3442">Implicit</tspan><tspan
   font-size="15px"
   x="-126.576"
   y="309"
   id="tspan3444">Explicit</tspan><tspan
   fill="#7d3368"
   font-size="15px"
   x="-41.129002"
   y="274"
   id="tspan3446">Source Code</tspan><tspan
   font-size="15px"
   x="10.7043"
   y="291"
   id="tspan3448">Codebase</tspan><tspan
   font-size="15px"
   x="3.3710001"
   y="309"
   id="tspan3450">Third Party</tspan><tspan
   font-size="15px"
   x="15.2043"
   y="327"
   id="tspan3452">Standard</tspan><tspan
   font-size="15px"
   x="14.871"
   y="344"
   id="tspan3454">Compiler</tspan><tspan
   fill="#7d3368"
   font-size="15px"
   x="112.152"
   y="274"
   id="tspan3456">Location</tspan><tspan
   font-size="15px"
   x="190.819"
   y="291"
   id="tspan3458">Stack</tspan><tspan
   font-size="15px"
   x="190.985"
   y="309"
   id="tspan3460">Heap</tspan><tspan
   font-size="15px"
   x="178.15199"
   y="327"
   id="tspan3462">/other/</tspan><tspan
   fill="#7d3368"
   font-size="15px"
   x="265.43301"
   y="274"
   id="tspan3464">Ownership</tspan><tspan
   font-size="15px"
   x="343.26599"
   y="291"
   id="tspan3466">None</tspan><tspan
   font-size="15px"
   x="340.26599"
   y="309"
   id="tspan3468">Single</tspan><tspan
   font-size="15px"
   x="333.93301"
   y="327"
   id="tspan3470">Shared</tspan></text>
      <path
         d="M 0,624.333 C 0,621.94 1.94014,620 4.33343,620 H 37.6666 C 40.0599,620 42,621.94 42,624.333 v 17.334 C 42,644.06 40.0599,646 37.6666,646 H 4.33343 C 1.94014,646 0,644.06 0,641.667 Z"
         fill="#e8effc"
         fill-rule="evenodd"
         id="path3474" />
      <text
         font-family="Calibri, Calibri_MSFontService, sans-serif"
         font-weight="400"
         font-size="15px"
         transform="translate(44.0945,639)"
         id="text3476">Bug</text>
      <path
         d="m 184,624.333 c 0,-2.393 1.94,-4.333 4.333,-4.333 h 33.334 c 2.393,0 4.333,1.94 4.333,4.333 v 17.334 c 0,2.393 -1.94,4.333 -4.333,4.333 H 188.333 C 185.94,646 184,644.06 184,641.667 Z"
         fill="#f4f2f8"
         fill-rule="evenodd"
         id="path3478" />
      <text
         font-family="Calibri, Calibri_MSFontService, sans-serif"
         font-weight="400"
         font-size="15px"
         transform="translate(227.822,639)"
         id="text3480">Fault/Error</text>
      <path
         d="m 367,624.333 c 0,-2.393 1.94,-4.333 4.333,-4.333 h 33.334 c 2.393,0 4.333,1.94 4.333,4.333 v 17.334 c 0,2.393 -1.94,4.333 -4.333,4.333 H 371.333 C 368.94,646 367,644.06 367,641.667 Z"
         fill="#dfdaea"
         fill-rule="evenodd"
         id="path3482" />
      <text
         font-family="Calibri, Calibri_MSFontService, sans-serif"
         font-weight="400"
         font-size="15px"
         transform="translate(411.549,639)"
         id="text3484">Final Error</text>
      <rect
         x="551.5"
         y="620.5"
         width="42"
         height="26"
         stroke="#000000"
         stroke-width="0.666667"
         stroke-linejoin="round"
         stroke-miterlimit="10"
         fill="none"
         id="rect3486" />
      <text
         font-family="Calibri, Calibri_MSFontService, sans-serif"
         font-weight="400"
         font-size="15px"
         transform="translate(595.276,639)"
         id="text3488">Operation/Operand</text>
    </g>
  </g>
</svg>
