<?xml version="1.0" encoding="UTF-8" standalone="no"?>
<!-- Created with Inkscape (http://www.inkscape.org/) -->

<svg
   width="194.46875mm"
   height="209.60989mm"
   viewBox="0 0 194.46875 209.60991"
   version="1.1"
   id="svg5"
   inkscape:export-filename="_DAT-TCM.png"
   inkscape:export-xdpi="96"
   inkscape:export-ydpi="96"
   inkscape:version="1.2.2 (b0a8486541, 2022-12-01)"
   sodipodi:docname="_MEM-MAD.svg"
   xmlns:inkscape="http://www.inkscape.org/namespaces/inkscape"
   xmlns:sodipodi="http://sodipodi.sourceforge.net/DTD/sodipodi-0.dtd"
   xmlns="http://www.w3.org/2000/svg"
   xmlns:svg="http://www.w3.org/2000/svg">
  <sodipodi:namedview
     id="namedview7"
     pagecolor="#ffffff"
     bordercolor="#000000"
     borderopacity="0.25"
     inkscape:showpageshadow="2"
     inkscape:pageopacity="0.0"
     inkscape:pagecheckerboard="0"
     inkscape:deskcolor="#d1d1d1"
     inkscape:document-units="mm"
     showgrid="false"
     inkscape:zoom="0.914906"
     inkscape:cx="124.60296"
     inkscape:cy="125.69597"
     inkscape:window-width="2560"
     inkscape:window-height="1377"
     inkscape:window-x="-8"
     inkscape:window-y="797"
     inkscape:window-maximized="1"
     inkscape:current-layer="layer1" />
  <defs
     id="defs2">
    <clipPath
       id="clip0">
      <rect
         x="-7"
         y="0"
         width="742"
         height="574"
         id="rect9" />
    </clipPath>
    <clipPath
       id="clip0-5">
      <rect
         x="-7"
         y="0"
         width="742"
         height="543"
         id="rect555" />
    </clipPath>
    <clipPath
       id="clip0-8">
      <rect
         x="-7"
         y="0"
         width="742"
         height="612"
         id="rect846" />
    </clipPath>
    <clipPath
       id="clip0-4">
      <rect
         x="-7"
         y="0"
         width="742"
         height="659"
         id="rect1187" />
    </clipPath>
    <clipPath
       id="clip0-9">
      <rect
         x="-7"
         y="0"
         width="742"
         height="653"
         id="rect1522" />
    </clipPath>
    <clipPath
       id="clip0-0">
      <rect
         x="-7"
         y="0"
         width="742"
         height="697"
         id="rect1851" />
    </clipPath>
    <clipPath
       id="clip0-58">
      <rect
         x="-7"
         y="0"
         width="742"
         height="807"
         id="rect2206" />
    </clipPath>
  </defs>
  <g
     inkscape:label="Layer 1"
     inkscape:groupmode="layer"
     id="layer1"
     transform="translate(-71.547314,-114.89573)">
    <g
       clip-path="url(#clip0-58)"
       transform="matrix(0.26458333,0,0,0.26458333,71.547314,112.61848)"
       id="g2389">
      <text
         font-family="Calibri, Calibri_MSFontService, sans-serif"
         font-weight="400"
         font-size="15px"
         transform="translate(264.954,19)"
         id="text2215">BF Memory Bugs (_MEM) Cluster<tspan
   fill="#7d3368"
   font-size="15px"
   x="-14.5"
   y="25"
   id="tspan2211">Memory Addressing Bugs (MAD) Class</tspan><tspan
   font-size="15px"
   x="-166.80299"
   y="63"
   id="tspan2213">Causes</tspan></text>
      <path
         d="M 0,111.667 C 0,104.119 6.11885,98 13.6668,98 H 231.333 c 7.548,0 13.667,6.119 13.667,13.667 v 54.666 C 245,173.881 238.881,180 231.333,180 H 13.6668 C 6.11885,180 0,173.881 0,166.333 Z"
         fill="#e8effc"
         fill-rule="evenodd"
         id="path2217" />
      <text
         fill="#7d3368"
         font-family="Calibri, Calibri_MSFontService, sans-serif"
         font-weight="400"
         font-size="15px"
         transform="translate(6.09722,117)"
         id="text2225">Code Defect Bug<tspan
   fill="#000000"
   font-size="15px"
   x="146.33299"
   y="17"
   id="tspan2219">Missing Code</tspan><tspan
   fill="#000000"
   font-size="15px"
   x="87.666702"
   y="35"
   id="tspan2221">Mismatched Operation</tspan><tspan
   fill="#000000"
   font-size="15px"
   x="130.16701"
   y="53"
   id="tspan2223">Erroneous Code</tspan></text>
      <path
         d="m 0.0194114,-0.332768 7.4999986,0.4375 3.52189,0.439509 3.0879,0.629159 2.6428,0.69164 2.041,0.82614 c 0.0208,0.00846 0.0407,0.019 0.0594,0.03147 l 1.3125,0.875 c 0.0483,0.03218 0.0873,0.07639 0.1132,0.12828 l 0.4375,0.875 0.4375,0.875 -0.1132,-0.12828 1.3125,0.875 -0.0594,-0.03147 2,0.8125 2.584,0.67386 3.0447,0.62086 4.2649,0.44131 -0.0689,0.6631 L 29.8083,8.9516 26.728,8.32246 24.062,7.62132 l -2,-0.8125 C 22.0412,6.80036 22.0213,6.78982 22.0026,6.77735 l -1.3125,-0.875 C 20.6418,5.87017 20.6028,5.82596 20.5769,5.77407 l -0.4375,-0.875 -0.4375,-0.875 0.1132,0.12828 -1.3125,-0.875 L 18.562,3.30882 16.603,2.50996 13.9958,1.8266 10.9587,1.20576 7.48059,0.770268 -0.0194114,0.332768 Z M 33.0675,5.00217 40.8281,9.44882 32.6144,12.9893 Z"
         transform="matrix(1,0,0,-1,245.5,138.949)"
         id="path2227" />
      <path
         d="M 0,221.334 C 0,206.79 11.79,195 26.3337,195 H 218.666 C 233.21,195 245,206.79 245,221.334 V 326.666 C 245,341.21 233.21,353 218.666,353 H 26.3337 C 11.79,353 0,341.21 0,326.666 Z"
         fill="#f4f2f8"
         fill-rule="evenodd"
         id="path2229" />
      <text
         fill="#7d3368"
         font-family="Calibri, Calibri_MSFontService, sans-serif"
         font-weight="400"
         font-size="15px"
         transform="translate(9.7873,218)"
         id="text2245">Address Fault<tspan
   fill="#000000"
   font-size="15px"
   x="139.83299"
   y="17"
   id="tspan2231">NULL Pointer</tspan><tspan
   fill="#000000"
   font-size="15px"
   x="143.66701"
   y="35"
   id="tspan2233">Wild Pointer</tspan><tspan
   fill="#000000"
   font-size="15px"
   x="119.333"
   y="53"
   id="tspan2235">Dangling Pointer</tspan><tspan
   fill="#000000"
   font-size="15px"
   x="110.833"
   y="70"
   id="tspan2237">Untrusted Pointer</tspan><tspan
   fill="#000000"
   font-size="15px"
   x="86.166702"
   y="88"
   id="tspan2239">Under Bounds Pointer</tspan><tspan
   fill="#000000"
   font-size="15px"
   x="79.666702"
   y="105"
   id="tspan2241">Wrong Position Pointer</tspan><tspan
   fill="#000000"
   font-size="15px"
   x="94.5"
   y="123"
   id="tspan2243">Over Bounds Pointer</tspan></text>
      <path
         d="m 0.0734203,-0.325147 1.9374997,0.4375 c 0.03721,0.008402 0.0727,0.023131 0.10493,0.043541 l 1.875,1.187496 c 0.02229,0.01412 0.04283,0.03084 0.06118,0.0498 l 1.875,1.9375 c 0.01359,0.01404 0.02591,0.02924 0.03683,0.04543 l 1.8125,2.6875 1.82726,3.27402 1.70198,3.90426 1.5708,4.396 1.505,4.9527 1.3786,5.2624 1.2531,5.7004 2.0034,12.2679 1.3152,13.1455 0.439,13.5224 0.4375,13.5 1.311,13.04 1.9973,12.2298 1.2466,5.669 1.3721,5.301 1.4959,4.86 1.5578,4.361 1.6792,3.854 1.798,3.221 -0.0453,-0.063 2.0707,2.261 -0.4917,0.45 -2.0706,-2.26 c -0.0175,-0.019 -0.0327,-0.041 -0.0453,-0.063 l -1.827,-3.279 -1.6958,-3.896 -1.5672,-4.389 -1.5041,-4.89 -1.3779,-5.324 -1.2534,-5.706 -2.0027,-12.2702 -1.314,-13.085 -0.4375,-13.5 L 19.6683,59.0332 18.3585,45.9287 16.3619,33.6966 15.115,28.022 13.7436,22.7844 12.2486,17.8621 10.6944,13.5081 9.02138,9.66236 7.22364,6.43638 l -1.8125,-2.6875 0.03683,0.04543 -1.875,-1.9375 0.06118,0.0498 -1.875,-1.187504 0.10493,0.043541 -1.9375003,-0.4375 z M 36.7293,136.932 l 4.0988,7.95 -8.8191,-1.491 z"
         transform="matrix(1,0,0,-1,245.5,274.382)"
         id="path2247" />
      <path
         d="M 0,382.5 C 0,375.044 6.04424,369 13.5002,369 H 231.5 c 7.456,0 13.5,6.044 13.5,13.5 v 54 c 0,7.456 -6.044,13.5 -13.5,13.5 H 13.5002 C 6.04424,450 0,443.956 0,436.5 Z"
         fill="#f4f2f8"
         fill-rule="evenodd"
         id="path2249" />
      <text
         fill="#7d3368"
         font-family="Calibri, Calibri_MSFontService, sans-serif"
         font-weight="400"
         font-size="15px"
         transform="translate(6.09722,388)"
         id="text2257">Data Fault<tspan
   fill="#000000"
   font-size="15px"
   x="108.667"
   y="17"
   id="tspan2251">Hardcoded Address</tspan><tspan
   fill="#000000"
   font-size="15px"
   x="148.83299"
   y="35"
   id="tspan2253">Wrong Index</tspan><tspan
   fill="#000000"
   font-size="15px"
   x="125"
   y="53"
   id="tspan2255">Wrong Size Used</tspan></text>
      <path
         d="m 0.065372,-0.32686 0.937498,0.1875 c 0.03947,0.007892 0.07717,0.022864 0.1113,0.0441939 l 1,0.6250001 C 2.13861,0.54511 2.16097,0.563492 2.18068,0.58452 l 0.9375,1 0.96556,1.34673 c 0.01055,0.01476 0.01987,0.03037 0.02788,0.04664 l 1.875,3.8125 1.82764,5.16101 1.81863,6.3316 1.69231,7.5188 1.5651,8.5129 1.5014,9.4455 1.3762,10.258 1.2508,11.0067 1.0632,11.5696 0.9379,12.0672 0.7504,12.5683 0.5628,12.818 0.4378,26.134 0.4375,26.125 0.5622,12.803 0.7497,12.495 0.9371,12.119 1.0621,11.558 1.2493,10.993 1.3742,10.243 1.4988,9.43 1.5611,8.492 1.6849,7.487 1.8077,6.293 1.8064,5.106 -0.0408,-0.079 1.2791,1.835 -0.547,0.382 -1.2791,-1.836 c -0.0171,-0.024 -0.0308,-0.051 -0.0408,-0.079 l -1.8186,-5.145 -1.8173,-6.331 -1.6901,-7.513 -1.5639,-8.508 -1.5012,-9.445 L 25.1063,226.35 23.8556,215.343 22.7927,203.776 21.8548,191.645 21.1045,179.14 20.5417,166.318 20.1042,140.193 19.667,114.077 19.1048,101.27 18.3552,88.7133 17.4181,76.6555 16.3563,65.1001 15.1071,54.1068 13.7333,43.8648 12.2347,34.4353 10.6748,25.9482 8.99211,18.467 7.18574,12.1736 5.38838,7.08461 3.51338,3.27211 3.54126,3.31875 2.63182,2.04048 l -0.9375,-1 0.06651,0.05469 -0.999996,-0.625004 0.111294,0.044194 -0.9375,-0.1875 z M 38.6194,271.648 l 2.2087,8.667 -8.259,-3.433 z"
         transform="matrix(1,0,0,-1,245.5,409.815)"
         id="path2259" />
      <path
         d="M 0,473.333 C 0,469.283 3.28327,466 7.33339,466 H 237.667 c 4.05,0 7.333,3.283 7.333,7.333 v 29.334 c 0,4.05 -3.283,7.333 -7.333,7.333 H 7.33339 C 3.28327,510 0,506.717 0,502.667 Z"
         fill="#f4f2f8"
         fill-rule="evenodd"
         id="path2261" />
      <text
         fill="#7d3368"
         font-family="Calibri, Calibri_MSFontService, sans-serif"
         font-weight="400"
         font-size="15px"
         transform="translate(4.25228,483)"
         id="text2265">Size Fault<tspan
   fill="#000000"
   font-size="15px"
   x="45.333302"
   y="17"
   id="tspan2263">Not Enough Memory Allocated</tspan></text>
      <path
         d="M 0.0858876,-0.322078 1.02339,-0.0720783 c 0.04123,0.0109957 0.07997,0.0298068 0.11411,0.0554116 l 1,0.7499997 c 0.02734,0.020508 0.05138,0.045108 0.07124,0.072921 l 0.9375,1.312496 0.96009,1.78634 0.95005,2.2136 0.94503,2.6442 0.94232,3.07701 0.87965,3.5168 0.93811,3.8774 0.87749,4.2612 1.68932,9.5718 1.5642,10.9483 1.5008,12.0685 1.3757,13.1314 1.2505,14.0677 1.063,14.8181 0.9377,15.5039 0.7503,16.067 0.5626,16.379 0.4377,33.507 0.4375,33.5 0.5623,16.368 0.7499,16.058 0.9372,15.433 1.0623,14.872 1.2495,13.994 1.3745,13.182 1.4993,12.056 1.5616,10.869 1.6859,9.552 0.8732,4.241 0.935,3.864 0.8744,3.497 0.9328,3.046 -0.0175,-0.045 1.6673,3.514 -0.6023,0.286 -1.6674,-3.515 c -0.0069,-0.014 -0.0128,-0.029 -0.0175,-0.045 l -0.9422,-3.079 -0.8756,-3.503 -0.94,-3.886 -0.8768,-4.259 -1.6891,-9.573 L 27.9817,315.104 26.481,303.035 25.1055,289.842 23.855,275.836 22.7923,260.958 21.8545,245.516 21.1044,229.449 20.5417,213.067 20.1042,179.567 19.6669,146.074 19.1045,129.703 18.3548,113.645 17.4175,98.1488 16.3555,83.342 15.106,69.2847 13.7317,56.1661 12.2325,44.1096 10.6717,33.1829 8.98601,23.6297 8.11351,19.3909 7.17662,15.5183 6.30627,12.0351 5.37359,8.98711 4.44362,6.38131 3.51867,4.21991 2.60376,2.50625 1.66626,1.19375 1.7375,1.26667 l -1,-0.750003 0.114112,0.055411 -0.9374996,-0.25 z M 39.2722,350.247 l 1.5559,8.808 -7.9798,-4.04 z"
         transform="matrix(1,0,0,-1,245.5,488.555)"
         id="path2267" />
      <path
         d="M 0,536.5 C 0,530.701 4.70106,526 10.5001,526 H 234.5 c 5.799,0 10.5,4.701 10.5,10.5 v 42 c 0,5.799 -4.701,10.5 -10.5,10.5 H 10.5001 C 4.70106,589 0,584.299 0,578.5 Z"
         fill="#f4f2f8"
         fill-rule="evenodd"
         id="path2269" />
      <text
         fill="#7d3368"
         font-family="Calibri, Calibri_MSFontService, sans-serif"
         font-weight="400"
         font-size="15px"
         transform="translate(5.1748,544)"
         id="text2275">Type Fault<tspan
   fill="#000000"
   font-size="15px"
   x="118.5"
   y="17"
   id="tspan2271">Wrong Index Type</tspan><tspan
   fill="#000000"
   font-size="15px"
   x="139.83299"
   y="35"
   id="tspan2273">Casted Pointer</tspan></text>
      <path
         d="M 0.105409,-0.316228 1.04291,-0.00372773 C 1.08856,0.0114895 1.13037,0.036409 1.16548,0.0693209 l 1,0.9374991 c 0.02103,0.01971 0.03941,0.04207 0.05469,0.06651 l 0.9375,1.5 0.95829,2.10124 0.94795,2.65082 0.94287,3.14131 0.94128,3.7012 0.87823,4.2014 0.9379,4.627 0.87677,5.0719 0.81384,5.5081 0.875,5.9376 0.8133,6.3185 0.7507,6.6929 1.5002,14.3776 1.3756,15.693 1.2503,16.7543 1.0628,17.6928 0.9377,18.503 0.7502,19.066 0.5626,19.628 0.4376,39.944 0.4375,39.937 0.5624,19.619 0.7499,19.122 0.9373,18.434 1.0623,17.747 1.2497,16.745 1.3747,15.62 1.4994,14.433 0.7498,6.684 0.8118,6.307 0.8741,5.869 0.8126,5.5 0.8738,5.118 0.9356,4.615 0.8744,4.122 0.9345,3.674 0.9337,3.112 -0.0262,-0.063 1.0073,1.86 -0.5862,0.318 -1.0073,-1.861 c -0.0109,-0.02 -0.0196,-0.041 -0.0262,-0.063 l -0.9413,-3.138 -0.9405,-3.701 -0.8756,-4.128 -0.9394,-4.635 -0.8762,-5.132 -0.8124,-5.5 -0.8759,-5.881 L 28.7312,382.6 27.981,375.909 26.4804,361.467 25.1051,345.837 23.8548,329.082 22.7921,311.329 21.8544,292.888 21.1043,273.76 20.5417,254.129 20.1042,214.191 19.6668,174.26 19.1044,154.638 18.3546,135.579 17.4173,117.082 16.3551,99.3998 15.1054,82.6541 13.731,66.9721 12.2312,52.5996 11.4819,45.9176 10.6702,39.6111 9.79525,33.6737 8.98404,28.1818 8.11081,23.1287 7.17371,18.5057 6.30194,14.3321 5.36822,10.6583 4.43609,7.54961 3.50904,4.95043 2.59233,2.92667 l -0.9375,-1.5 0.05469,0.06651 -1,-0.937501 0.122571,0.073049 -0.9375,-0.3125 z M 39.7222,419.471 l 1.1059,8.875 -7.764,-4.44 z"
         transform="matrix(1,0,0,-1,245.5,557.846)"
         id="path2277" />
      <text
         font-family="Calibri, Calibri_MSFontService, sans-serif"
         font-weight="400"
         font-size="15px"
         transform="translate(565.84,82)"
         id="text2279">Consequences</text>
      <path
         d="M 490,124.167 C 490,109.715 501.715,98 516.167,98 H 708.833 C 723.285,98 735,109.715 735,124.167 V 228.833 C 735,243.285 723.285,255 708.833,255 H 516.167 C 501.715,255 490,243.285 490,228.833 Z"
         fill="#f4f2f8"
         fill-rule="evenodd"
         id="path2281" />
      <text
         fill="#7d3368"
         font-family="Calibri, Calibri_MSFontService, sans-serif"
         font-weight="400"
         font-size="15px"
         transform="translate(499.726,120)"
         id="text2297">Address Error<tspan
   fill="#000000"
   font-size="15px"
   x="139.83299"
   y="17"
   id="tspan2283">NULL Pointer</tspan><tspan
   fill="#000000"
   font-size="15px"
   x="143.66701"
   y="35"
   id="tspan2285">Wild Pointer</tspan><tspan
   fill="#000000"
   font-size="15px"
   x="119.333"
   y="53"
   id="tspan2287">Dangling Pointer</tspan><tspan
   fill="#000000"
   font-size="15px"
   x="110.833"
   y="70"
   id="tspan2289">Untrusted Pointer</tspan><tspan
   fill="#000000"
   font-size="15px"
   x="86.166702"
   y="88"
   id="tspan2291">Under Bounds Pointer</tspan><tspan
   fill="#000000"
   font-size="15px"
   x="94.5"
   y="105"
   id="tspan2293">Over Bounds Pointer</tspan><tspan
   fill="#000000"
   font-size="15px"
   x="79.666702"
   y="123"
   id="tspan2295">Wrong Position Pointer</tspan></text>
      <path
         d="m 456.088,130.994 4.576,2.591 c 0.025,0.014 0.049,0.032 0.069,0.052 l 3.063,3 c 0.013,0.012 0.024,0.026 0.035,0.04 l 2.625,3.563 c 0.011,0.015 0.021,0.031 0.03,0.048 l 2,4 c 0.008,0.017 0.015,0.034 0.02,0.051 l 1.313,4.25 c 0.006,0.022 0.011,0.044 0.013,0.066 l 0.437,4.437 0.438,4.438 -0.013,-0.066 1.312,4.25 -0.02,-0.051 2,4 -0.03,-0.048 2.625,3.562 -0.035,-0.04 3.062,3 -0.046,-0.038 3.5,2.375 -0.061,-0.033 3.687,1.5 -0.082,-0.021 3.766,0.494 -0.087,0.661 -3.766,-0.494 c -0.028,-0.004 -0.056,-0.011 -0.082,-0.022 l -3.688,-1.5 c -0.021,-0.009 -0.042,-0.02 -0.061,-0.033 l -3.5,-2.375 c -0.017,-0.011 -0.032,-0.024 -0.046,-0.038 l -3.063,-3 c -0.012,-0.012 -0.024,-0.026 -0.035,-0.04 l -2.625,-3.563 c -0.011,-0.015 -0.021,-0.031 -0.03,-0.048 l -2,-4 c -0.008,-0.017 -0.015,-0.034 -0.02,-0.051 l -1.312,-4.25 c -0.007,-0.021 -0.011,-0.043 -0.014,-0.066 l -0.437,-4.437 -0.438,-4.438 0.014,0.066 -1.313,-4.25 0.02,0.051 -2,-4 0.03,0.048 -2.625,-3.562 0.035,0.04 -3.062,-3 0.069,0.052 -4.577,-2.591 z m 0.05,4.501 -6.638,-5.995 8.779,-1.713 z"
         id="path2299" />
      <path
         d="m 490,278.333 c 0,-4.05 3.283,-7.333 7.333,-7.333 h 230.334 c 4.05,0 7.333,3.283 7.333,7.333 v 29.334 c 0,4.05 -3.283,7.333 -7.333,7.333 H 497.333 c -4.05,0 -7.333,-3.283 -7.333,-7.333 z"
         fill="#f4f2f8"
         fill-rule="evenodd"
         id="path2301" />
      <text
         fill="#7d3368"
         font-family="Calibri, Calibri_MSFontService, sans-serif"
         font-weight="400"
         font-size="15px"
         transform="translate(494.191,288)"
         id="text2305">Data Error<tspan
   fill="#000000"
   font-size="15px"
   x="117"
   y="17"
   id="tspan2303">Forbidden Address</tspan></text>
      <path
         d="m 454.97,133.455 2.292,2.901 c 0.014,0.018 0.027,0.038 0.037,0.06 l 1.813,3.687 1.699,4.402 1.57,5.021 1.503,5.511 1.378,6.014 1.253,6.385 2.002,13.891 1.315,14.831 0.439,15.27 0.437,15.25 1.312,14.793 1.997,13.794 1.248,6.421 1.372,5.99 1.497,5.486 1.559,4.925 1.681,4.356 1.8,3.66 1.799,2.975 -0.029,-0.041 1.875,2.25 -0.065,-0.06 1.875,1.312 -0.112,-0.05 1.891,0.467 -0.16,0.647 -1.89,-0.467 c -0.04,-0.01 -0.078,-0.027 -0.112,-0.05 l -1.875,-1.313 c -0.024,-0.017 -0.046,-0.037 -0.065,-0.06 l -1.875,-2.25 c -0.01,-0.012 -0.02,-0.026 -0.029,-0.041 l -1.826,-3.025 -1.824,-3.715 -1.695,-4.394 -1.566,-4.95 -1.503,-5.513 -1.378,-6.011 -1.252,-6.454 -2.002,-13.831 -1.314,-14.832 -0.438,-15.25 -0.436,-15.23 -1.31,-14.794 -1.998,-13.859 -1.247,-6.364 -1.372,-5.987 -1.497,-5.489 -1.555,-4.979 -1.676,-4.348 -1.812,-3.687 0.037,0.059 -2.291,-2.901 z m -1.717,4.164 -3.753,-8.119 8.747,1.869 z"
         id="path2307" />
      <path
         d="m 490,338.333 c 0,-4.05 3.283,-7.333 7.333,-7.333 h 230.334 c 4.05,0 7.333,3.283 7.333,7.333 v 29.334 c 0,4.05 -3.283,7.333 -7.333,7.333 H 497.333 c -4.05,0 -7.333,-3.283 -7.333,-7.333 z"
         fill="#f4f2f8"
         fill-rule="evenodd"
         id="path2309" />
      <text
         fill="#7d3368"
         font-family="Calibri, Calibri_MSFontService, sans-serif"
         font-weight="400"
         font-size="15px"
         transform="translate(494.191,348)"
         id="text2313">Type Error<tspan
   fill="#000000"
   font-size="15px"
   x="141.66701"
   y="17"
   id="tspan2311">Casted Pointer</tspan></text>
      <path
         d="m 454.564,133.996 2.728,4.969 c 0.009,0.015 0.016,0.031 0.022,0.048 l 1.812,5.062 1.695,5.959 1.566,6.829 1.502,7.509 1.377,8.198 1.252,8.758 1.063,9.259 0.938,9.631 1.314,20.198 0.438,20.89 0.437,20.875 1.312,20.172 0.937,9.677 1.062,9.182 1.249,8.741 1.373,8.179 1.498,7.49 1.561,6.804 1.683,5.92 1.806,5.042 1.804,4.103 -0.023,-0.043 1.875,3 -0.047,-0.059 1.875,1.875 -0.131,-0.081 1.891,0.622 -0.209,0.634 -1.891,-0.622 c -0.049,-0.017 -0.094,-0.044 -0.131,-0.081 l -1.875,-1.875 c -0.018,-0.018 -0.034,-0.038 -0.047,-0.059 l -1.875,-3 c -0.009,-0.014 -0.016,-0.028 -0.023,-0.043 l -1.821,-4.147 -1.819,-5.083 -1.692,-5.954 -1.564,-6.822 -1.502,-7.51 -1.376,-8.196 -1.252,-8.759 -1.063,-9.193 -0.938,-9.698 -1.313,-20.202 -0.438,-20.875 -0.437,-20.861 -1.311,-20.177 -0.937,-9.619 -1.061,-9.241 -1.249,-8.742 -1.373,-8.177 -1.498,-7.491 -1.559,-6.796 -1.68,-5.916 -1.813,-5.063 0.022,0.048 -2.729,-4.969 z m -2.132,3.954 -2.932,-8.45 8.519,2.724 z"
         id="path2315" />
      <text
         font-family="Calibri, Calibri_MSFontService, sans-serif"
         font-weight="400"
         font-size="15px"
         transform="translate(330.704,82)"
         id="text2317">Operations</text>
      <rect
         x="286.5"
         y="98.500099"
         width="163"
         height="63"
         stroke="#000000"
         stroke-width="0.666667"
         stroke-linejoin="round"
         stroke-miterlimit="10"
         fill="none"
         id="rect2319" />
      <text
         font-family="Calibri, Calibri_MSFontService, sans-serif"
         font-weight="400"
         font-size="15px"
         transform="translate(338.867,116)"
         id="text2327">Initialize<tspan
   font-size="15px"
   x="-6.7466698"
   y="17"
   id="tspan2321">Reposition</tspan><tspan
   font-size="15px"
   x="-0.91333002"
   y="35"
   id="tspan2323">Reassign</tspan><tspan
   font-size="15px"
   x="-4.08002"
   y="79"
   id="tspan2325">Operands</tspan></text>
      <rect
         x="286.5"
         y="211.5"
         width="163"
         height="82"
         stroke="#000000"
         stroke-width="0.666667"
         stroke-linejoin="round"
         stroke-miterlimit="10"
         fill="none"
         id="rect2329" />
      <text
         font-family="Calibri, Calibri_MSFontService, sans-serif"
         font-weight="400"
         font-size="15px"
         transform="translate(349.79,230)"
         id="text2371">Data<tspan
   font-size="15px"
   x="-0.5"
   y="17"
   id="tspan2331">Type</tspan><tspan
   font-size="15px"
   x="-9.9200096"
   y="35"
   id="tspan2333">Address</tspan><tspan
   font-size="15px"
   x="2.3333099"
   y="53"
   id="tspan2335">Size</tspan><tspan
   font-size="15px"
   x="-16.003099"
   y="394"
   id="tspan2337">Attributes</tspan><tspan
   fill="#7d3368"
   font-size="15px"
   x="-347.69101"
   y="428"
   id="tspan2339">Execution Space</tspan><tspan
   font-size="15px"
   x="-252.524"
   y="445"
   id="tspan2341">Userland</tspan><tspan
   font-size="15px"
   x="-237.85699"
   y="463"
   id="tspan2343">Kernel</tspan><tspan
   font-size="15px"
   x="-266.35699"
   y="481"
   id="tspan2345">Bare</tspan>-Metal<tspan
   fill="#7d3368"
   font-size="15px"
   x="-156.09"
   y="428"
   id="tspan2347">Mechanism</tspan><tspan
   font-size="15px"
   x="-43.5896"
   y="445"
   id="tspan2349">Direct</tspan><tspan
   font-size="15px"
   x="-70.5896"
   y="463"
   id="tspan2351">Sequential</tspan><tspan
   fill="#7d3368"
   font-size="15px"
   x="35.511398"
   y="428"
   id="tspan2353">Source Code</tspan><tspan
   font-size="15px"
   x="125.678"
   y="445"
   id="tspan2355">Codebase</tspan><tspan
   font-size="15px"
   x="118.345"
   y="463"
   id="tspan2357">Third Party</tspan><tspan
   font-size="15px"
   x="130.17799"
   y="481"
   id="tspan2359">Standard</tspan><tspan
   font-size="15px"
   x="129.845"
   y="498"
   id="tspan2361">Compiler</tspan><tspan
   fill="#7d3368"
   font-size="15px"
   x="227.112"
   y="428"
   id="tspan2363">Location</tspan><tspan
   font-size="15px"
   x="344.112"
   y="445"
   id="tspan2365">Stack</tspan><tspan
   font-size="15px"
   x="344.27899"
   y="463"
   id="tspan2367">Heap</tspan><tspan
   font-size="15px"
   x="331.44601"
   y="481"
   id="tspan2369">/other/</tspan></text>
      <path
         d="M 0,779.167 C 0,776.866 1.86552,775 4.16675,775 H 37.8333 C 40.1345,775 42,776.866 42,779.167 v 16.666 C 42,798.134 40.1345,800 37.8333,800 H 4.16675 C 1.86552,800 0,798.134 0,795.833 Z"
         fill="#e8effc"
         fill-rule="evenodd"
         id="path2373" />
      <text
         font-family="Calibri, Calibri_MSFontService, sans-serif"
         font-weight="400"
         font-size="15px"
         transform="translate(44.0945,794)"
         id="text2375">Bug</text>
      <path
         d="m 184,779.167 c 0,-2.301 1.866,-4.167 4.167,-4.167 h 33.666 c 2.301,0 4.167,1.866 4.167,4.167 v 16.666 c 0,2.301 -1.866,4.167 -4.167,4.167 H 188.167 C 185.866,800 184,798.134 184,795.833 Z"
         fill="#f4f2f8"
         fill-rule="evenodd"
         id="path2377" />
      <text
         font-family="Calibri, Calibri_MSFontService, sans-serif"
         font-weight="400"
         font-size="15px"
         transform="translate(227.822,794)"
         id="text2379">Fault/Error</text>
      <path
         d="m 367,779.167 c 0,-2.301 1.866,-4.167 4.167,-4.167 h 33.666 c 2.301,0 4.167,1.866 4.167,4.167 v 16.666 c 0,2.301 -1.866,4.167 -4.167,4.167 H 371.167 C 368.866,800 367,798.134 367,795.833 Z"
         fill="#dfdaea"
         fill-rule="evenodd"
         id="path2381" />
      <text
         font-family="Calibri, Calibri_MSFontService, sans-serif"
         font-weight="400"
         font-size="15px"
         transform="translate(411.549,794)"
         id="text2383">Final Error</text>
      <rect
         x="551.5"
         y="775.5"
         width="42"
         height="25"
         stroke="#000000"
         stroke-width="0.666667"
         stroke-linejoin="round"
         stroke-miterlimit="10"
         fill="none"
         id="rect2385" />
      <text
         font-family="Calibri, Calibri_MSFontService, sans-serif"
         font-weight="400"
         font-size="15px"
         transform="translate(595.276,794)"
         id="text2387">Operation/Operand</text>
    </g>
  </g>
</svg>
