<?xml version="1.0" encoding="UTF-8" standalone="no"?>
<!-- Created with Inkscape (http://www.inkscape.org/) -->

<svg
   width="194.46875mm"
   height="158.01614mm"
   viewBox="0 0 194.46875 158.01615"
   version="1.1"
   id="svg5"
   inkscape:export-filename="DVR.png"
   inkscape:export-xdpi="96"
   inkscape:export-ydpi="96"
   inkscape:version="1.2.2 (b0a8486541, 2022-12-01)"
   sodipodi:docname="DCL.svg"
   xmlns:inkscape="http://www.inkscape.org/namespaces/inkscape"
   xmlns:sodipodi="http://sodipodi.sourceforge.net/DTD/sodipodi-0.dtd"
   xmlns="http://www.w3.org/2000/svg"
   xmlns:svg="http://www.w3.org/2000/svg">
  <sodipodi:namedview
     id="namedview7"
     pagecolor="#ffffff"
     bordercolor="#000000"
     borderopacity="0.25"
     inkscape:showpageshadow="2"
     inkscape:pageopacity="0.0"
     inkscape:pagecheckerboard="0"
     inkscape:deskcolor="#d1d1d1"
     inkscape:document-units="mm"
     showgrid="false"
     inkscape:zoom="0.914906"
     inkscape:cx="357.41377"
     inkscape:cy="126.78898"
     inkscape:window-width="2560"
     inkscape:window-height="1377"
     inkscape:window-x="-8"
     inkscape:window-y="797"
     inkscape:window-maximized="1"
     inkscape:current-layer="layer1" />
  <defs
     id="defs2">
    <clipPath
       id="clip0">
      <rect
         x="-7"
         y="0"
         width="742"
         height="574"
         id="rect9" />
    </clipPath>
    <clipPath
       id="clip0-5">
      <rect
         x="-7"
         y="0"
         width="742"
         height="543"
         id="rect555" />
    </clipPath>
    <clipPath
       id="clip0-8">
      <rect
         x="-7"
         y="0"
         width="742"
         height="612"
         id="rect846" />
    </clipPath>
  </defs>
  <g
     inkscape:label="Layer 1"
     inkscape:groupmode="layer"
     id="layer1"
     transform="translate(-10.21314,-114.65129)">
    <g
       clip-path="url(#clip0-8)"
       transform="matrix(0.26458333,0,0,0.26458333,10.21314,112.37404)"
       id="g1009">
      <text
         font-family="Calibri, Calibri_MSFontService, sans-serif"
         font-weight="400"
         font-size="15px"
         transform="translate(264.204,19)"
         id="text855">BF Data Type Bugs (_DAT) Cluster<tspan
   fill="#7d3368"
   font-size="15px"
   x="15.4166"
   y="25"
   id="tspan851">Declaration Bugs (DCL) Class</tspan><tspan
   font-size="15px"
   x="-166.05299"
   y="63"
   id="tspan853">Causes</tspan></text>
      <path
         d="M 0,111.667 C 0,104.119 6.11885,98 13.6668,98 H 231.333 c 7.548,0 13.667,6.119 13.667,13.667 v 54.666 C 245,173.881 238.881,180 231.333,180 H 13.6668 C 6.11885,180 0,173.881 0,166.333 Z"
         fill="#e8effc"
         fill-rule="evenodd"
         id="path857" />
      <text
         fill="#7d3368"
         font-family="Calibri, Calibri_MSFontService, sans-serif"
         font-weight="400"
         font-size="15px"
         transform="translate(6.09722,117)"
         id="text865">Code Defect Bug<tspan
   fill="#000000"
   font-size="15px"
   x="146.33299"
   y="17"
   id="tspan859">Missing Code</tspan><tspan
   fill="#000000"
   font-size="15px"
   x="151"
   y="35"
   id="tspan861">Wrong Code</tspan><tspan
   fill="#000000"
   font-size="15px"
   x="130.16701"
   y="53"
   id="tspan863">Erroneous Code</tspan></text>
      <path
         d="m 0.0163737,-0.332931 3.8124963,0.1875 3.72683,0.629285 3.5305,0.944166 3.1023,1.26336 2.6591,1.45375 c 0.0158,0.00867 0.0309,0.01859 0.0451,0.0297 l 2,1.5625 C 18.9159,5.75542 18.9365,5.77649 18.9542,5.8 l 1.3125,1.75 c 0.0266,0.03554 0.0459,0.07606 0.0567,0.11916 l 0.4375,1.75 0.4375,1.75004 -0.0603,-0.1238 1.3125,1.6875 -0.0529,-0.0541 2,1.625 -0.0501,-0.0337 2.625,1.4375 3.0229,1.1691 -0.0486,-0.0147 4.3292,0.9557 -0.1437,0.651 -4.3293,-0.9557 c -0.0165,-0.0037 -0.0328,-0.0086 -0.0486,-0.0147 l -3.1021,-1.2059 -2.625,-1.4375 c -0.0177,-0.0097 -0.0344,-0.021 -0.0501,-0.0337 l -2,-1.625 C 21.9577,13.1803 21.9399,13.1621 21.9244,13.1421 L 20.6119,11.4546 C 20.5834,11.418 20.5629,11.3759 20.5516,11.3308 L 20.1141,9.58084 19.6766,7.83084 19.7333,7.95 18.4208,6.2 l 0.0615,0.06267 -2,-1.5625 0.0451,0.0297 L 13.9365,3.30862 10.9138,2.07198 7.4443,1.14115 3.79613,0.520431 -0.0163737,0.332931 Z M 33.3322,14.018 l 7.4959,4.8796 -8.4012,3.069 z"
         transform="matrix(1,0,0,-1,245.5,139.398)"
         id="path867" />
      <path
         d="M 0,211.834 C 0,202.537 7.53664,195 16.8336,195 H 228.166 c 9.297,0 16.834,7.537 16.834,16.834 v 67.332 C 245,288.463 237.463,296 228.166,296 H 16.8336 C 7.53664,296 0,288.463 0,279.166 Z"
         fill="#e8effc"
         fill-rule="evenodd"
         id="path869" />
      <text
         fill="#7d3368"
         font-family="Calibri, Calibri_MSFontService, sans-serif"
         font-weight="400"
         font-size="15px"
         transform="translate(7.01974,215)"
         id="text879">Specification Defect Bug<tspan
   fill="#000000"
   font-size="15px"
   x="123.5"
   y="17"
   id="tspan871">Missing Modifier</tspan><tspan
   fill="#000000"
   font-size="15px"
   x="128.16701"
   y="35"
   id="tspan873">Wrong Modifier</tspan><tspan
   fill="#000000"
   font-size="15px"
   x="113.667"
   y="53"
   id="tspan875">Anonymous Scope</tspan><tspan
   fill="#000000"
   font-size="15px"
   x="144.16701"
   y="70"
   id="tspan877">Wrong Scope</tspan></text>
      <path
         d="M 0.0633406,-0.32726 2.00084,0.0477401 c 0.03546,0.0068638 0.06957,0.0194443 0.101,0.0372525 l 1.875,1.0624974 c 0.02102,0.01192 0.04068,0.02608 0.05865,0.04225 l 1.875,1.6875 C 5.9248,2.89011 5.93798,2.90422 5.94985,2.91937 l 1.8125,2.3125 1.83034,2.83756 1.70541,3.40647 1.5728,3.8352 1.5059,4.2655 2.6321,9.5852 2.0062,10.6515 1.316,11.3985 0.4395,11.7758 0.4375,11.75 1.3105,11.3492 1.9965,10.6015 2.6188,9.5357 1.4929,4.228 1.5566,3.797 1.6772,3.352 1.7946,2.781 -0.055,-0.065 1.8965,1.738 -0.4505,0.492 -1.8964,-1.739 c -0.0211,-0.019 -0.0395,-0.041 -0.055,-0.065 l -1.8304,-2.844 -1.6978,-3.398 -1.5684,-3.828 -1.5071,-4.272 L 23.8599,96.8117 21.8564,86.1632 20.5419,74.7624 20.1044,63.0124 19.6689,51.2882 18.3599,39.9367 16.3661,29.3382 13.7482,19.7984 12.2541,15.5639 10.7019,11.7741 9.03231,8.43057 7.23765,5.64313 l -1.8125,-2.3125 0.03936,0.04213 -1.875,-1.6875 0.05865,0.04225 -1.875,-1.062503 0.101,0.037253 -1.9375006,-0.375 z M 36.3701,118.23 l 4.458,7.754 -8.8781,-1.086 z"
         transform="matrix(1,0,0,-1,245.5,246.484)"
         id="path881" />
      <path
         d="M 0,319.333 C 0,315.283 3.28327,312 7.33339,312 H 237.667 c 4.05,0 7.333,3.283 7.333,7.333 v 29.334 c 0,4.05 -3.283,7.333 -7.333,7.333 H 7.33339 C 3.28327,356 0,352.717 0,348.667 Z"
         fill="#f4f2f8"
         fill-rule="evenodd"
         id="path883" />
      <text
         fill="#7d3368"
         font-family="Calibri, Calibri_MSFontService, sans-serif"
         font-weight="400"
         font-size="15px"
         transform="translate(4.25228,329)"
         id="text887">Type Fault<tspan
   fill="#000000"
   font-size="15px"
   x="99.333298"
   y="17"
   id="tspan885">Wrong Type Resolved</tspan></text>
      <path
         d="m 0.102334,-0.317236 1.937496,0.625 c 0.0466,0.015031 0.08932,0.040144 0.12511,0.073551 l 1.875,1.749995 C 4.06042,2.15043 4.0784,2.17204 4.09347,2.19565 l 1.875,2.9375 1.83347,3.91312 1.823,4.90003 1.69466,5.7089 1.567,6.5169 1.5023,7.2604 1.3769,7.8222 1.2514,8.3836 1.0638,8.8846 0.9381,9.256 1.3135,19.3235 0.4382,20.0156 0.4375,20 1.3118,19.297 0.9365,9.239 1.0619,8.869 1.2487,8.365 1.3736,7.804 1.498,7.177 1.5603,6.491 1.683,5.67 1.8053,4.854 -0.0245,-0.052 2.6535,4.546 -0.5757,0.336 -2.6536,-4.546 c -0.0097,-0.017 -0.0179,-0.034 -0.0245,-0.052 l -1.8197,-4.896 -1.692,-5.705 -1.5647,-6.509 -1.502,-7.198 -1.3764,-7.821 -1.2513,-8.385 -1.0631,-8.881 -0.9385,-9.261 -1.3132,-19.328 -0.4375,-20 -0.4368,-19.9844 -1.3115,-19.3015 -0.9369,-9.244 -1.0612,-8.8654 -1.2486,-8.3664 -1.3731,-7.8028 -1.4977,-7.2396 -1.558,-6.4831 -1.68034,-5.6661 -1.802,-4.84997 -1.79153,-3.83689 -1.875,-2.9375 0.05353,0.06435 -1.875,-1.750005 0.12511,0.073551 -1.937504,-0.625 z M 37.8448,205.741 l 2.9833,8.432 -8.5356,-2.672 z"
         transform="matrix(1,0,0,-1,245.5,334.673)"
         id="path889" />
      <text
         font-family="Calibri, Calibri_MSFontService, sans-serif"
         font-weight="400"
         font-size="15px"
         transform="translate(565.84,82)"
         id="text891">Consequences</text>
      <path
         d="m 490,108.5 c 0,-5.799 4.701,-10.5 10.5,-10.5 h 224 c 5.799,0 10.5,4.701 10.5,10.5 v 42 c 0,5.799 -4.701,10.5 -10.5,10.5 h -224 c -5.799,0 -10.5,-4.701 -10.5,-10.5 z"
         fill="#f4f2f8"
         fill-rule="evenodd"
         id="path893" />
      <text
         fill="#7d3368"
         font-family="Calibri, Calibri_MSFontService, sans-serif"
         font-weight="400"
         font-size="15px"
         transform="translate(495.113,116)"
         id="text899">Name Error<tspan
   fill="#000000"
   font-size="15px"
   x="56"
   y="17"
   id="tspan895">Missing Overridden Function</tspan><tspan
   fill="#000000"
   font-size="15px"
   x="54.166698"
   y="35"
   id="tspan897">Missing Overloaded Function</tspan></text>
      <path
         d="m 456.189,120.584 4.346,0.46 3.094,0.629 2.643,0.692 2.041,0.826 c 0.021,0.009 0.041,0.019 0.059,0.032 l 1.313,0.875 c 0.048,0.032 0.087,0.076 0.113,0.128 l 0.438,0.875 0.437,0.875 -0.113,-0.128 1.312,0.875 -0.059,-0.032 2,0.813 2.584,0.674 3.045,0.62 3.474,0.434 7.43,0.384 -0.035,0.666 -7.477,-0.389 -3.526,-0.441 -3.08,-0.629 -2.666,-0.702 -2,-0.812 c -0.021,-0.009 -0.041,-0.019 -0.059,-0.032 l -1.313,-0.875 c -0.048,-0.032 -0.087,-0.076 -0.113,-0.128 l -0.438,-0.875 -0.437,-0.875 0.113,0.128 -1.312,-0.875 0.059,0.032 -1.959,-0.799 -2.607,-0.683 -3.031,-0.62 -4.346,-0.46 z m 1.047,4.406 -7.736,-4.49 8.234,-3.494 z"
         id="path901" />
      <path
         d="m 490,196 c 0,-11.046 8.954,-20 20,-20 h 205 c 11.046,0 20,8.954 20,20 v 80 c 0,11.046 -8.954,20 -20,20 H 510 c -11.046,0 -20,-8.954 -20,-20 z"
         fill="#f4f2f8"
         fill-rule="evenodd"
         id="path903" />
      <text
         fill="#7d3368"
         font-family="Calibri, Calibri_MSFontService, sans-serif"
         font-weight="400"
         font-size="15px"
         transform="translate(497.881,197)"
         id="text915">Type Error<tspan
   fill="#000000"
   font-size="15px"
   x="149"
   y="17"
   id="tspan905">Wrong Type</tspan><tspan
   fill="#000000"
   font-size="15px"
   x="122"
   y="35"
   id="tspan907">Incomplete Type</tspan><tspan
   fill="#000000"
   font-size="15px"
   x="99.333298"
   y="53"
   id="tspan909">Wrong Generic Type</tspan><tspan
   fill="#000000"
   font-size="15px"
   x="113.667"
   y="70"
   id="tspan911">Confused Subtype</tspan><tspan
   fill="#000000"
   font-size="15px"
   x="86"
   y="88"
   id="tspan913">Wrong Argument Type</tspan></text>
      <path
         d="m 455.389,123.738 1.823,1.505 c 0.025,0.02 0.047,0.044 0.064,0.071 l 1.813,2.687 1.703,3.088 1.576,3.59 1.506,3.952 2.633,8.836 2.007,9.904 1.317,10.525 0.44,10.903 0.437,10.875 1.31,10.472 1.996,9.85 2.618,8.784 1.491,3.85 1.557,3.549 1.676,3.1 1.793,2.594 1.792,2.098 -0.04,-0.04 1.875,1.563 -0.057,-0.038 1.875,1 -0.107,-0.036 1.891,0.286 -0.099,0.659 -1.891,-0.285 c -0.038,-0.006 -0.074,-0.018 -0.107,-0.036 l -1.875,-1 c -0.02,-0.011 -0.039,-0.023 -0.057,-0.038 l -1.875,-1.562 c -0.014,-0.012 -0.028,-0.026 -0.04,-0.04 l -1.833,-2.152 -1.832,-2.656 -1.699,-3.15 -1.568,-3.576 -1.509,-3.9 -2.632,-8.841 -2.004,-9.9 -1.315,-10.528 -0.438,-10.875 -0.435,-10.847 -1.308,-10.475 -1.993,-9.846 -2.617,-8.789 -1.494,-3.923 -1.549,-3.535 -1.672,-3.037 -1.812,-2.688 0.064,0.071 -1.823,-1.505 z m -1.173,4.362 -4.716,-7.6 8.91,0.788 z"
         id="path917" />
      <path
         d="M 490,325.667 C 490,318.119 496.119,312 503.667,312 h 217.666 c 7.548,0 13.667,6.119 13.667,13.667 v 54.666 C 735,387.881 728.881,394 721.333,394 H 503.667 C 496.119,394 490,387.881 490,380.333 Z"
         fill="#dfdaea"
         fill-rule="evenodd"
         id="path919" />
      <text
         fill="#7d3368"
         font-family="Calibri, Calibri_MSFontService, sans-serif"
         font-weight="400"
         font-size="15px"
         transform="translate(496.036,331)"
         id="text927">Access Final Error<tspan
   fill="#000000"
   font-size="15px"
   x="99.5"
   y="17"
   id="tspan921">Wrong Access Object</tspan><tspan
   fill="#000000"
   font-size="15px"
   x="109.833"
   y="35"
   id="tspan923">Wrong Access Type</tspan><tspan
   fill="#000000"
   font-size="15px"
   x="87"
   y="53"
   id="tspan925">Wrong Access Function</tspan></text>
      <path
         d="m 454.441,124.996 0.986,1.023 c 0.029,0.029 0.051,0.063 0.067,0.1 l 1.813,4.25 1.821,5.336 1.694,6.207 1.566,7.142 1.502,7.821 1.377,8.509 1.251,9.133 1.063,9.634 0.938,10.068 1.314,21.073 0.438,21.764 0.437,21.75 1.312,21.048 0.937,10.053 1.062,9.619 1.249,9.116 1.374,8.492 1.498,7.803 1.561,7.117 1.683,6.171 1.807,5.292 1.803,4.227 1.854,3.085 -0.046,-0.061 1.875,1.938 -0.134,-0.085 1.891,0.634 -0.211,0.632 -1.891,-0.633 c -0.051,-0.017 -0.097,-0.046 -0.134,-0.085 l -1.875,-1.937 c -0.018,-0.018 -0.033,-0.039 -0.046,-0.06 l -1.896,-3.166 -1.821,-4.273 -1.819,-5.333 -1.692,-6.204 -1.564,-7.133 -1.501,-7.822 -1.377,-8.508 -1.251,-9.134 -1.063,-9.631 -0.938,-10.072 -1.313,-21.077 -0.438,-21.75 -0.437,-21.736 -1.311,-21.052 -0.937,-10.057 -1.062,-9.616 -1.248,-9.117 -1.374,-8.491 -1.498,-7.804 -1.559,-7.108 -1.681,-6.168 -1.804,-5.289 -1.812,-4.25 0.067,0.1 -0.987,-1.022 z m -2.136,3.997 -2.805,-8.493 8.477,2.852 z"
         id="path929" />
      <text
         font-family="Calibri, Calibri_MSFontService, sans-serif"
         font-weight="400"
         font-size="15px"
         transform="translate(330.704,82)"
         id="text931">Operations</text>
      <rect
         x="286.5"
         y="98.500099"
         width="163"
         height="44"
         stroke="#000000"
         stroke-width="0.666667"
         stroke-linejoin="round"
         stroke-miterlimit="10"
         fill="none"
         id="rect933" />
      <text
         font-family="Calibri, Calibri_MSFontService, sans-serif"
         font-weight="400"
         font-size="15px"
         transform="translate(341.037,116)"
         id="text939">Declare<tspan
   font-size="15px"
   x="3.0866699"
   y="17"
   id="tspan935">Define</tspan><tspan
   font-size="15px"
   x="-6.25003"
   y="60"
   id="tspan937">Operands</tspan></text>
      <rect
         x="286.5"
         y="192.5"
         width="163"
         height="44"
         stroke="#000000"
         stroke-width="0.666667"
         stroke-linejoin="round"
         stroke-miterlimit="10"
         fill="none"
         id="rect941" />
      <text
         font-family="Calibri, Calibri_MSFontService, sans-serif"
         font-weight="400"
         font-size="15px"
         transform="translate(345.954,211)"
         id="text991">Name<tspan
   font-size="15px"
   x="3.3333099"
   y="17"
   id="tspan943">Type</tspan><tspan
   font-size="15px"
   x="-12.1665"
   y="217"
   id="tspan945">Attributes</tspan><tspan
   fill="#7d3368"
   font-size="15px"
   x="-343.854"
   y="252"
   id="tspan947">Execution Space</tspan><tspan
   font-size="15px"
   x="-264.18701"
   y="269"
   id="tspan949">Local</tspan><tspan
   font-size="15px"
   x="-272.68701"
   y="287"
   id="tspan951">Admin</tspan><tspan
   font-size="15px"
   x="-300.854"
   y="305"
   id="tspan953">Bare</tspan>-Metal<tspan
   fill="#7d3368"
   font-size="15px"
   x="-190.573"
   y="252"
   id="tspan955">Mechanism</tspan><tspan
   font-size="15px"
   x="-120.573"
   y="269"
   id="tspan957">Simple</tspan><tspan
   font-size="15px"
   x="-132.573"
   y="287"
   id="tspan959">Generics</tspan><tspan
   font-size="15px"
   x="-143.407"
   y="305"
   id="tspan961">Overriding</tspan><tspan
   font-size="15px"
   x="-152.907"
   y="322"
   id="tspan963">Overloading</tspan><tspan
   fill="#7d3368"
   font-size="15px"
   x="-37.2924"
   y="252"
   id="tspan965">Source Code</tspan><tspan
   font-size="15px"
   x="14.541"
   y="269"
   id="tspan967">Codebase</tspan><tspan
   font-size="15px"
   x="7.2076402"
   y="287"
   id="tspan969">Third Party</tspan><tspan
   font-size="15px"
   x="19.041"
   y="305"
   id="tspan971">Standard</tspan><tspan
   font-size="15px"
   x="18.7076"
   y="322"
   id="tspan973">Compiler</tspan><tspan
   fill="#7d3368"
   font-size="15px"
   x="115.988"
   y="252"
   id="tspan975">Entity</tspan><tspan
   font-size="15px"
   x="186.82201"
   y="269"
   id="tspan977">Object</tspan><tspan
   font-size="15px"
   x="174.32201"
   y="287"
   id="tspan979">Function</tspan><tspan
   font-size="15px"
   x="165.98801"
   y="305"
   id="tspan981">Data Type</tspan><tspan
   font-size="15px"
   x="156.655"
   y="322"
   id="tspan983">Namespace</tspan><tspan
   fill="#7d3368"
   font-size="15px"
   x="269.26901"
   y="252"
   id="tspan985">Type Kind</tspan><tspan
   font-size="15px"
   x="326.103"
   y="269"
   id="tspan987">Primitive</tspan><tspan
   font-size="15px"
   x="323.76901"
   y="287"
   id="tspan989">Structure</tspan></text>
      <path
         d="M 0,584.167 C 0,581.866 1.86552,580 4.16675,580 H 37.8333 C 40.1345,580 42,581.866 42,584.167 v 16.666 C 42,603.134 40.1345,605 37.8333,605 H 4.16675 C 1.86552,605 0,603.134 0,600.833 Z"
         fill="#e8effc"
         fill-rule="evenodd"
         id="path993" />
      <text
         font-family="Calibri, Calibri_MSFontService, sans-serif"
         font-weight="400"
         font-size="15px"
         transform="translate(44.0945,598)"
         id="text995">Bug</text>
      <path
         d="m 184,584.167 c 0,-2.301 1.866,-4.167 4.167,-4.167 h 33.666 c 2.301,0 4.167,1.866 4.167,4.167 v 16.666 c 0,2.301 -1.866,4.167 -4.167,4.167 H 188.167 C 185.866,605 184,603.134 184,600.833 Z"
         fill="#f4f2f8"
         fill-rule="evenodd"
         id="path997" />
      <text
         font-family="Calibri, Calibri_MSFontService, sans-serif"
         font-weight="400"
         font-size="15px"
         transform="translate(227.822,598)"
         id="text999">Fault/Error</text>
      <path
         d="m 367,584.167 c 0,-2.301 1.866,-4.167 4.167,-4.167 h 33.666 c 2.301,0 4.167,1.866 4.167,4.167 v 16.666 c 0,2.301 -1.866,4.167 -4.167,4.167 H 371.167 C 368.866,605 367,603.134 367,600.833 Z"
         fill="#dfdaea"
         fill-rule="evenodd"
         id="path1001" />
      <text
         font-family="Calibri, Calibri_MSFontService, sans-serif"
         font-weight="400"
         font-size="15px"
         transform="translate(411.549,598)"
         id="text1003">Final Error</text>
      <rect
         x="551.5"
         y="580.5"
         width="42"
         height="25"
         stroke="#000000"
         stroke-width="0.666667"
         stroke-linejoin="round"
         stroke-miterlimit="10"
         fill="none"
         id="rect1005" />
      <text
         font-family="Calibri, Calibri_MSFontService, sans-serif"
         font-weight="400"
         font-size="15px"
         transform="translate(595.276,598)"
         id="text1007">Operation/Operand</text>
    </g>
  </g>
</svg>
