<?xml version="1.0" encoding="UTF-8" standalone="no"?>
<!-- Created with Inkscape (http://www.inkscape.org/) -->

<svg
   width="194.46875mm"
   height="158.01614mm"
   viewBox="0 0 194.46875 158.01616"
   version="1.1"
   id="svg5"
   inkscape:export-filename="_MEM-MAD.png"
   inkscape:export-xdpi="96"
   inkscape:export-ydpi="96"
   inkscape:version="1.2.2 (b0a8486541, 2022-12-01)"
   sodipodi:docname="_MEM-MAL.svg"
   xmlns:inkscape="http://www.inkscape.org/namespaces/inkscape"
   xmlns:sodipodi="http://sodipodi.sourceforge.net/DTD/sodipodi-0.dtd"
   xmlns="http://www.w3.org/2000/svg"
   xmlns:svg="http://www.w3.org/2000/svg">
  <sodipodi:namedview
     id="namedview7"
     pagecolor="#ffffff"
     bordercolor="#000000"
     borderopacity="0.25"
     inkscape:showpageshadow="2"
     inkscape:pageopacity="0.0"
     inkscape:pagecheckerboard="0"
     inkscape:deskcolor="#d1d1d1"
     inkscape:document-units="mm"
     showgrid="false"
     inkscape:zoom="0.914906"
     inkscape:cx="264.50805"
     inkscape:cy="87.440677"
     inkscape:window-width="2560"
     inkscape:window-height="1377"
     inkscape:window-x="-8"
     inkscape:window-y="797"
     inkscape:window-maximized="1"
     inkscape:current-layer="layer1" />
  <defs
     id="defs2">
    <clipPath
       id="clip0">
      <rect
         x="-7"
         y="0"
         width="742"
         height="574"
         id="rect9" />
    </clipPath>
    <clipPath
       id="clip0-5">
      <rect
         x="-7"
         y="0"
         width="742"
         height="543"
         id="rect555" />
    </clipPath>
    <clipPath
       id="clip0-8">
      <rect
         x="-7"
         y="0"
         width="742"
         height="612"
         id="rect846" />
    </clipPath>
    <clipPath
       id="clip0-4">
      <rect
         x="-7"
         y="0"
         width="742"
         height="659"
         id="rect1187" />
    </clipPath>
    <clipPath
       id="clip0-9">
      <rect
         x="-7"
         y="0"
         width="742"
         height="653"
         id="rect1522" />
    </clipPath>
    <clipPath
       id="clip0-0">
      <rect
         x="-7"
         y="0"
         width="742"
         height="697"
         id="rect1851" />
    </clipPath>
    <clipPath
       id="clip0-58">
      <rect
         x="-7"
         y="0"
         width="742"
         height="807"
         id="rect2206" />
    </clipPath>
    <clipPath
       id="clip0-2">
      <rect
         x="-7"
         y="0"
         width="742"
         height="612"
         id="rect2595" />
    </clipPath>
  </defs>
  <g
     inkscape:label="Layer 1"
     inkscape:groupmode="layer"
     id="layer1"
     transform="translate(-34.464839,-124.95873)">
    <g
       clip-path="url(#clip0-2)"
       transform="matrix(0.26458333,0,0,0.26458333,34.464839,122.68148)"
       id="g2754">
      <text
         font-family="Calibri, Calibri_MSFontService, sans-serif"
         font-weight="400"
         font-size="15px"
         transform="translate(264.954,19)"
         id="text2604">BF Memory Bugs (_MEM) Cluster<tspan
   fill="#7d3368"
   font-size="15px"
   x="-10.0833"
   y="25"
   id="tspan2600">Memory Allocation Bugs (MAL) Class</tspan><tspan
   font-size="15px"
   x="-166.80299"
   y="63"
   id="tspan2602">Causes</tspan></text>
      <path
         d="M 0,111.667 C 0,104.119 6.11885,98 13.6668,98 H 231.333 c 7.548,0 13.667,6.119 13.667,13.667 v 54.666 C 245,173.881 238.881,180 231.333,180 H 13.6668 C 6.11885,180 0,173.881 0,166.333 Z"
         fill="#e8effc"
         fill-rule="evenodd"
         id="path2606" />
      <text
         fill="#7d3368"
         font-family="Calibri, Calibri_MSFontService, sans-serif"
         font-weight="400"
         font-size="15px"
         transform="translate(6.09722,117)"
         id="text2614">Code Defect Bug<tspan
   fill="#000000"
   font-size="15px"
   x="146.33299"
   y="17"
   id="tspan2608">Missing Code</tspan><tspan
   fill="#000000"
   font-size="15px"
   x="87.666702"
   y="35"
   id="tspan2610">Mismatched Operation</tspan><tspan
   fill="#000000"
   font-size="15px"
   x="130.16701"
   y="53"
   id="tspan2612">Erroneous Code</tspan></text>
      <path
         d="m 0.0194114,-0.332768 7.4999986,0.4375 3.52189,0.439509 3.0879,0.629159 2.6428,0.69164 2.041,0.82614 c 0.0208,0.00846 0.0407,0.019 0.0594,0.03147 l 1.3125,0.875 c 0.0483,0.03218 0.0873,0.07639 0.1132,0.12828 l 0.4375,0.875 0.4375,0.875 -0.1132,-0.12828 1.3125,0.875 -0.0594,-0.03147 2,0.8125 2.584,0.67386 3.0447,0.62086 4.2649,0.44131 -0.0689,0.6631 L 29.8083,8.9516 26.728,8.32246 24.062,7.62132 l -2,-0.8125 C 22.0412,6.80036 22.0213,6.78982 22.0026,6.77735 l -1.3125,-0.875 C 20.6418,5.87017 20.6028,5.82596 20.5769,5.77407 l -0.4375,-0.875 -0.4375,-0.875 0.1132,0.12828 -1.3125,-0.875 L 18.562,3.30882 16.603,2.50996 13.9958,1.8266 10.9587,1.20576 7.48059,0.770268 -0.0194114,0.332768 Z M 33.0675,5.00217 40.8281,9.44882 32.6144,12.9893 Z"
         transform="matrix(1,0,0,-1,245.5,138.949)"
         id="path2616" />
      <path
         d="M 0,208.667 C 0,201.119 6.11885,195 13.6668,195 H 231.333 c 7.548,0 13.667,6.119 13.667,13.667 v 54.666 C 245,270.881 238.881,277 231.333,277 H 13.6668 C 6.11885,277 0,270.881 0,263.333 Z"
         fill="#f4f2f8"
         fill-rule="evenodd"
         id="path2618" />
      <text
         fill="#7d3368"
         font-family="Calibri, Calibri_MSFontService, sans-serif"
         font-weight="400"
         font-size="15px"
         transform="translate(6.09722,214)"
         id="text2626">Address Fault<tspan
   fill="#000000"
   font-size="15px"
   x="151"
   y="17"
   id="tspan2620">Wild Pointer</tspan><tspan
   fill="#000000"
   font-size="15px"
   x="126.667"
   y="35"
   id="tspan2622">Dangling Pointer</tspan><tspan
   fill="#000000"
   font-size="15px"
   x="87"
   y="53"
   id="tspan2624">Wrong Position Pointer</tspan></text>
      <path
         d="M 0.0530775,-0.32908 1.99058,-0.0165804 c 0.0304,0.0049031 0.05998,0.01399785 0.08788,0.0270193 l 1.875,0.8750001 c 0.02191,0.010226 0.04266,0.022813 0.06185,0.037526 l 1.875,1.437495 c 0.01593,0.01222 0.0307,0.02582 0.04419,0.0407 l 1.8125,2 1.83299,2.46244 1.70581,2.8399 1.5771,3.2771 1.5076,3.6419 2.6342,8.15 2.0083,9.0932 1.3173,9.6518 0.4402,10.0304 0.4375,10 1.3098,9.6573 1.9952,9.0355 2.6165,8.0311 1.491,3.6008 1.5549,3.233 1.6746,2.8507 1.79,2.3417 -0.0662,-0.066 1.6818,1.25 -0.3976,0.535 -1.6818,-1.249 c -0.025,-0.019 -0.0473,-0.041 -0.0662,-0.066 l -1.835,-2.408 -1.7004,-2.8996 -1.5701,-3.267 -1.509,-3.6492 -2.6335,-8.0939 -2.0048,-9.0896 -1.3152,-9.7176 -0.4375,-10 -0.4348,-9.9696 -1.3077,-9.5982 -1.9917,-9.0318 -2.6158,-8.1 L 12.2621,13.2694 10.7142,10.0465 9.04501,7.2614 7.253,4.84884 l -1.8125,-2 0.04419,0.0407 -1.875,-1.4375 0.06185,0.03752 -1.875,-0.874999 0.08788,0.027019 -1.9374975,-0.3125 z M 35.9048,99.6193 l 4.9233,7.4677 -8.9278,-0.542 z"
         transform="matrix(1,0,0,-1,245.5,236.587)"
         id="path2628" />
      <path
         d="M 0,309.834 C 0,300.537 7.53664,293 16.8336,293 H 228.166 c 9.297,0 16.834,7.537 16.834,16.834 v 67.332 C 245,386.463 237.463,394 228.166,394 H 16.8336 C 7.53664,394 0,386.463 0,377.166 Z"
         fill="#f4f2f8"
         fill-rule="evenodd"
         id="path2630" />
      <text
         fill="#7d3368"
         font-family="Calibri, Calibri_MSFontService, sans-serif"
         font-weight="400"
         font-size="15px"
         transform="translate(7.01974,313)"
         id="text2640">Data Fault<tspan
   fill="#000000"
   font-size="15px"
   x="106.833"
   y="17"
   id="tspan2632">Hardcoded Address</tspan><tspan
   fill="#000000"
   font-size="15px"
   x="111.5"
   y="35"
   id="tspan2634">Forbidden Address</tspan><tspan
   fill="#000000"
   font-size="15px"
   x="91"
   y="53"
   id="tspan2636">Single Owned Address</tspan><tspan
   fill="#000000"
   font-size="15px"
   x="123.167"
   y="70"
   id="tspan2638">Wrong Size Used</tspan></text>
      <path
         d="m 0.102334,-0.317236 1.937496,0.625 c 0.0466,0.015031 0.08932,0.040144 0.12511,0.073551 l 1.875,1.749995 C 4.06042,2.15043 4.0784,2.17204 4.09347,2.19565 l 1.875,2.9375 1.83347,3.91312 1.823,4.90003 1.69466,5.7089 1.567,6.5169 1.5023,7.2604 1.3769,7.8222 1.2514,8.3836 1.0638,8.8846 0.9381,9.256 1.3135,19.3235 0.4382,20.0156 0.4375,20 1.3118,19.297 0.9365,9.239 1.0619,8.869 1.2487,8.365 1.3736,7.804 1.498,7.177 1.5603,6.491 1.683,5.67 1.8053,4.854 -0.0245,-0.052 2.6535,4.546 -0.5757,0.336 -2.6536,-4.546 c -0.0097,-0.017 -0.0179,-0.034 -0.0245,-0.052 l -1.8197,-4.896 -1.692,-5.705 -1.5647,-6.509 -1.502,-7.198 -1.3764,-7.821 -1.2513,-8.385 -1.0631,-8.881 -0.9385,-9.261 -1.3132,-19.328 -0.4375,-20 -0.4368,-19.9844 -1.3115,-19.3015 -0.9369,-9.244 -1.0612,-8.8654 -1.2486,-8.3664 -1.3731,-7.8028 -1.4977,-7.2396 -1.558,-6.4831 -1.68034,-5.6661 -1.802,-4.84997 -1.79153,-3.83689 -1.875,-2.9375 0.05353,0.06435 -1.875,-1.750005 0.12511,0.073551 -1.937504,-0.625 z M 37.8448,205.741 l 2.9833,8.432 -8.5356,-2.672 z"
         transform="matrix(1,0,0,-1,245.5,343.673)"
         id="path2642" />
      <text
         font-family="Calibri, Calibri_MSFontService, sans-serif"
         font-weight="400"
         font-size="15px"
         transform="translate(565.84,82)"
         id="text2644">Consequences</text>
      <path
         d="m 490,108.5 c 0,-5.799 4.701,-10.5 10.5,-10.5 h 224 c 5.799,0 10.5,4.701 10.5,10.5 v 42 c 0,5.799 -4.701,10.5 -10.5,10.5 h -224 c -5.799,0 -10.5,-4.701 -10.5,-10.5 z"
         fill="#f4f2f8"
         fill-rule="evenodd"
         id="path2646" />
      <text
         fill="#7d3368"
         font-family="Calibri, Calibri_MSFontService, sans-serif"
         font-weight="400"
         font-size="15px"
         transform="translate(495.113,116)"
         id="text2652">Address Error<tspan
   fill="#000000"
   font-size="15px"
   x="149"
   y="17"
   id="tspan2648">NULL Pointer</tspan><tspan
   fill="#000000"
   font-size="15px"
   x="152.83299"
   y="35"
   id="tspan2650">Wild Pointer</tspan></text>
      <path
         d="m 456.167,129.167 h 4.333 3.063 2.625 2 1.312 0.438 0.437 1.313 2 2.625 3.062 3.5 7.453 v 0.666 h -7.453 -3.5 -3.062 -2.625 -2 -1.313 -0.437 -0.438 -1.312 -2 -2.625 -3.063 -4.333 z m 1.333,4.333 -8,-4 8,-4 z"
         id="path2654" />
      <path
         d="m 490,183.333 c 0,-4.05 3.283,-7.333 7.333,-7.333 h 230.334 c 4.05,0 7.333,3.283 7.333,7.333 v 29.334 c 0,4.05 -3.283,7.333 -7.333,7.333 H 497.333 c -4.05,0 -7.333,-3.283 -7.333,-7.333 z"
         fill="#f4f2f8"
         fill-rule="evenodd"
         id="path2656" />
      <text
         fill="#7d3368"
         font-family="Calibri, Calibri_MSFontService, sans-serif"
         font-weight="400"
         font-size="15px"
         transform="translate(494.191,194)"
         id="text2660">Size Error<tspan
   fill="#000000"
   font-size="15px"
   x="45.333302"
   y="17"
   id="tspan2658">Not Enough Memory Allocated</tspan></text>
      <path
         d="m 455.82,131.657 1.306,0.535 c 0.04,0.016 0.077,0.04 0.108,0.07 l 3.5,3.438 c 0.015,0.015 0.028,0.031 0.04,0.048 l 3.063,4.438 2.649,5.29 2.017,5.853 1.323,6.353 0.444,6.483 0.438,6.437 1.306,6.205 1.989,5.836 2.608,5.208 3.038,4.397 -0.043,-0.05 3.5,3.375 -0.057,-0.045 3.687,2.25 -0.078,-0.035 1.875,0.563 -0.066,-0.013 1.891,0.166 -0.059,0.664 -1.891,-0.166 c -0.022,-0.002 -0.045,-0.006 -0.066,-0.013 l -1.875,-0.562 c -0.028,-0.008 -0.054,-0.02 -0.078,-0.035 l -3.688,-2.25 c -0.02,-0.013 -0.04,-0.028 -0.057,-0.045 l -3.5,-3.375 c -0.016,-0.015 -0.031,-0.032 -0.043,-0.05 l -3.087,-4.478 -2.642,-5.292 -2.011,-5.913 -1.319,-6.296 -0.437,-6.438 -0.431,-6.392 -1.302,-6.272 -1.983,-5.772 -2.601,-5.21 -3.062,-4.437 0.04,0.048 -3.5,-3.437 0.108,0.071 -1.306,-0.535 z m -0.367,4.518 -5.953,-6.675 8.912,-0.757 z"
         id="path2662" />
      <path
         d="M 490,252.834 C 490,243.537 497.537,236 506.834,236 h 211.332 c 9.297,0 16.834,7.537 16.834,16.834 v 67.332 C 735,329.463 727.463,337 718.166,337 H 506.834 C 497.537,337 490,329.463 490,320.166 Z"
         fill="#dfdaea"
         fill-rule="evenodd"
         id="path2664" />
      <text
         fill="#7d3368"
         font-family="Calibri, Calibri_MSFontService, sans-serif"
         font-weight="400"
         font-size="15px"
         transform="translate(496.958,256)"
         id="text2674">Memory Final Error<tspan
   fill="#000000"
   font-size="15px"
   x="114.167"
   y="17"
   id="tspan2666">Memory Overflow</tspan><tspan
   fill="#000000"
   font-size="15px"
   x="141.83299"
   y="35"
   id="tspan2668">Memory Leak</tspan><tspan
   fill="#000000"
   font-size="15px"
   x="150.83299"
   y="53"
   id="tspan2670">Double Free</tspan><tspan
   fill="#000000"
   font-size="15px"
   x="116.167"
   y="70"
   id="tspan2672">Object Corruption</tspan></text>
      <path
         d="m 455.031,133.364 2.225,2.673 c 0.016,0.019 0.03,0.04 0.041,0.062 l 1.813,3.562 1.7,4.279 1.569,4.768 1.504,5.326 1.379,5.764 1.252,6.135 2.003,13.33 1.315,14.269 0.439,14.708 0.437,14.688 1.312,14.229 1.997,13.294 1.247,6.107 1.373,5.74 1.496,5.299 1.559,4.736 1.68,4.232 1.8,3.534 1.798,2.848 -0.032,-0.042 1.874,2.124 -0.058,-0.052 1.875,1.312 -0.12,-0.052 1.891,0.418 -0.144,0.651 -1.89,-0.418 c -0.043,-0.009 -0.084,-0.027 -0.12,-0.052 l -1.875,-1.313 c -0.021,-0.015 -0.041,-0.033 -0.058,-0.052 l -1.875,-2.125 c -0.012,-0.014 -0.023,-0.028 -0.032,-0.043 l -1.828,-2.902 -1.825,-3.59 -1.695,-4.269 -1.566,-4.764 -1.504,-5.325 -1.377,-5.761 -1.253,-6.142 -2.002,-13.332 -1.314,-14.271 -0.438,-14.687 -0.436,-14.667 -1.31,-14.231 -1.997,-13.295 -1.248,-6.114 -1.371,-5.737 -1.496,-5.299 -1.556,-4.731 -1.675,-4.222 -1.812,-3.563 0.041,0.062 -2.226,-2.672 z m -1.648,4.194 -3.883,-8.058 8.776,1.728 z"
         id="path2676" />
      <text
         font-family="Calibri, Calibri_MSFontService, sans-serif"
         font-weight="400"
         font-size="15px"
         transform="translate(330.704,82)"
         id="text2678">Operations</text>
      <rect
         x="286.5"
         y="98.500099"
         width="163"
         height="63"
         stroke="#000000"
         stroke-width="0.666667"
         stroke-linejoin="round"
         stroke-miterlimit="10"
         fill="none"
         id="rect2680" />
      <text
         font-family="Calibri, Calibri_MSFontService, sans-serif"
         font-weight="400"
         font-size="15px"
         transform="translate(339.62,116)"
         id="text2688">Allocate<tspan
   font-size="15px"
   x="3.5799899"
   y="17"
   id="tspan2682">Extend</tspan><tspan
   font-size="15px"
   x="-29.6667"
   y="35"
   id="tspan2684">Reallocate</tspan>-Extend<tspan
   font-size="15px"
   x="-4.8333402"
   y="79"
   id="tspan2686">Operands</tspan></text>
      <rect
         x="286.5"
         y="211.5"
         width="163"
         height="44"
         stroke="#000000"
         stroke-width="0.666667"
         stroke-linejoin="round"
         stroke-miterlimit="10"
         fill="none"
         id="rect2690" />
      <text
         font-family="Calibri, Calibri_MSFontService, sans-serif"
         font-weight="400"
         font-size="15px"
         transform="translate(349.79,230)"
         id="text2736">Data<tspan
   font-size="15px"
   x="-9.9200096"
   y="17"
   id="tspan2692">Address</tspan><tspan
   font-size="15px"
   x="-16.003099"
   y="198"
   id="tspan2694">Attributes</tspan><tspan
   fill="#7d3368"
   font-size="15px"
   x="-347.69101"
   y="233"
   id="tspan2696">Execution Space</tspan><tspan
   font-size="15px"
   x="-290.85699"
   y="250"
   id="tspan2698">Userland</tspan><tspan
   font-size="15px"
   x="-276.19101"
   y="268"
   id="tspan2700">Kernel</tspan><tspan
   font-size="15px"
   x="-304.69101"
   y="286"
   id="tspan2702">Bare</tspan>-Metal<tspan
   fill="#7d3368"
   font-size="15px"
   x="-194.41"
   y="233"
   id="tspan2704">Mechanism</tspan><tspan
   font-size="15px"
   x="-128.41"
   y="250"
   id="tspan2706">Implicit</tspan><tspan
   font-size="15px"
   x="-126.576"
   y="268"
   id="tspan2708">Explicit</tspan><tspan
   fill="#7d3368"
   font-size="15px"
   x="-41.129002"
   y="233"
   id="tspan2710">Source Code</tspan><tspan
   font-size="15px"
   x="10.7043"
   y="250"
   id="tspan2712">Codebase</tspan><tspan
   font-size="15px"
   x="3.3710001"
   y="268"
   id="tspan2714">Third Party</tspan><tspan
   font-size="15px"
   x="15.2043"
   y="286"
   id="tspan2716">Standard</tspan><tspan
   font-size="15px"
   x="14.871"
   y="303"
   id="tspan2718">Compiler</tspan><tspan
   fill="#7d3368"
   font-size="15px"
   x="112.152"
   y="233"
   id="tspan2720">Location</tspan><tspan
   font-size="15px"
   x="190.819"
   y="250"
   id="tspan2722">Stack</tspan><tspan
   font-size="15px"
   x="190.985"
   y="268"
   id="tspan2724">Heap</tspan><tspan
   font-size="15px"
   x="178.15199"
   y="286"
   id="tspan2726">/other/</tspan><tspan
   fill="#7d3368"
   font-size="15px"
   x="265.43301"
   y="233"
   id="tspan2728">Ownership</tspan><tspan
   font-size="15px"
   x="343.26599"
   y="250"
   id="tspan2730">None</tspan><tspan
   font-size="15px"
   x="340.26599"
   y="268"
   id="tspan2732">Single</tspan><tspan
   font-size="15px"
   x="333.93301"
   y="286"
   id="tspan2734">Shared</tspan></text>
      <path
         d="M 0,584.167 C 0,581.866 1.86552,580 4.16675,580 H 37.8333 C 40.1345,580 42,581.866 42,584.167 v 16.666 C 42,603.134 40.1345,605 37.8333,605 H 4.16675 C 1.86552,605 0,603.134 0,600.833 Z"
         fill="#e8effc"
         fill-rule="evenodd"
         id="path2738" />
      <text
         font-family="Calibri, Calibri_MSFontService, sans-serif"
         font-weight="400"
         font-size="15px"
         transform="translate(44.0945,598)"
         id="text2740">Bug</text>
      <path
         d="m 184,584.167 c 0,-2.301 1.866,-4.167 4.167,-4.167 h 33.666 c 2.301,0 4.167,1.866 4.167,4.167 v 16.666 c 0,2.301 -1.866,4.167 -4.167,4.167 H 188.167 C 185.866,605 184,603.134 184,600.833 Z"
         fill="#f4f2f8"
         fill-rule="evenodd"
         id="path2742" />
      <text
         font-family="Calibri, Calibri_MSFontService, sans-serif"
         font-weight="400"
         font-size="15px"
         transform="translate(227.822,598)"
         id="text2744">Fault/Error</text>
      <path
         d="m 367,584.167 c 0,-2.301 1.866,-4.167 4.167,-4.167 h 33.666 c 2.301,0 4.167,1.866 4.167,4.167 v 16.666 c 0,2.301 -1.866,4.167 -4.167,4.167 H 371.167 C 368.866,605 367,603.134 367,600.833 Z"
         fill="#dfdaea"
         fill-rule="evenodd"
         id="path2746" />
      <text
         font-family="Calibri, Calibri_MSFontService, sans-serif"
         font-weight="400"
         font-size="15px"
         transform="translate(411.549,598)"
         id="text2748">Final Error</text>
      <rect
         x="551.5"
         y="580.5"
         width="42"
         height="25"
         stroke="#000000"
         stroke-width="0.666667"
         stroke-linejoin="round"
         stroke-miterlimit="10"
         fill="none"
         id="rect2750" />
      <text
         font-family="Calibri, Calibri_MSFontService, sans-serif"
         font-weight="400"
         font-size="15px"
         transform="translate(595.276,598)"
         id="text2752">Operation/Operand</text>
    </g>
  </g>
</svg>
