<?xml version="1.0" encoding="UTF-8" standalone="no"?>
<!-- Created with Inkscape (http://www.inkscape.org/) -->

<svg
   width="207.32854mm"
   height="284.45016mm"
   viewBox="0 0 207.32854 284.45018"
   version="1.1"
   id="svg5"
   inkscape:export-filename="CVE-2021-21834.png"
   inkscape:export-xdpi="96"
   inkscape:export-ydpi="96"
   xml:space="preserve"
   inkscape:version="1.2.2 (b0a8486541, 2022-12-01)"
   sodipodi:docname="CWE-468 Example 1.svg"
   xmlns:inkscape="http://www.inkscape.org/namespaces/inkscape"
   xmlns:sodipodi="http://sodipodi.sourceforge.net/DTD/sodipodi-0.dtd"
   xmlns="http://www.w3.org/2000/svg"
   xmlns:svg="http://www.w3.org/2000/svg"><sodipodi:namedview
     id="namedview7"
     pagecolor="#ffffff"
     bordercolor="#000000"
     borderopacity="0.25"
     inkscape:showpageshadow="2"
     inkscape:pageopacity="0.0"
     inkscape:pagecheckerboard="0"
     inkscape:deskcolor="#d1d1d1"
     inkscape:document-units="mm"
     showgrid="false"
     inkscape:zoom="0.914906"
     inkscape:cx="-30.604237"
     inkscape:cy="534.48114"
     inkscape:window-width="2560"
     inkscape:window-height="1377"
     inkscape:window-x="-8"
     inkscape:window-y="797"
     inkscape:window-maximized="1"
     inkscape:current-layer="layer1" /><defs
     id="defs2"><clipPath
       id="clip0"><rect
         x="-25"
         y="0"
         width="785"
         height="1091"
         id="rect9" /></clipPath><clipPath
       id="clip0-8"><rect
         x="-25"
         y="0"
         width="785"
         height="524"
         id="rect520" /></clipPath><clipPath
       id="clip0-3"><rect
         x="-25"
         y="0"
         width="785"
         height="1091"
         id="rect699" /></clipPath><clipPath
       id="clip0-0"><rect
         x="-25"
         y="0"
         width="785"
         height="1091"
         id="rect1109" /></clipPath><clipPath
       id="clip0-4"><rect
         x="-25"
         y="0"
         width="934"
         height="905"
         id="rect1519" /></clipPath><clipPath
       id="clip0-42"><rect
         x="-7"
         y="0"
         width="952"
         height="590"
         id="rect1929" /></clipPath><clipPath
       id="clip0-1"><rect
         x="-25"
         y="0"
         width="785"
         height="1091"
         id="rect2197" /></clipPath><clipPath
       id="clip0-6"><rect
         x="-25"
         y="0"
         width="785"
         height="1091"
         id="rect2806" /></clipPath></defs><g
     inkscape:label="Layer 1"
     inkscape:groupmode="layer"
     id="layer1"
     transform="translate(-112.25963,-7.0361211)"><g
       clip-path="url(#clip0-6)"
       transform="matrix(0.26458333,0,0,0.26458333,118.57327,4.7220505)"
       id="g3075"><text
         font-family="Calibri, Calibri_MSFontService, sans-serif"
         font-weight="400"
         font-size="15px"
         transform="translate(249.871,19)"
         id="text2821">BF Description of CWE<tspan
   font-size="15px"
   x="136"
   y="0"
   id="tspan2811">-</tspan>468 Example 1<tspan
   fill="#7d3368"
   font-size="15px"
   x="14.75"
   y="56"
   id="tspan2813">Type Conversion (TCV) Weakness</tspan><tspan
   font-size="15px"
   x="-247.771"
   y="82"
   id="tspan2815">Code Defect Bug</tspan><tspan
   font-size="15px"
   x="83.666397"
   y="82"
   id="tspan2817">Operation</tspan><tspan
   font-size="15px"
   x="242.168"
   y="82"
   id="tspan2819">Type Error</tspan></text><path
         d="m 0.500053,114.833 c 0,-4.05 3.283267,-7.333 7.333387,-7.333 H 238.167 c 4.05,0 7.333,3.283 7.333,7.333 v 29.334 c 0,4.05 -3.283,7.333 -7.333,7.333 H 7.83344 c -4.05012,0 -7.333387,-3.283 -7.333387,-7.333 z"
         stroke="#e8effc"
         stroke-width="0.666667"
         stroke-linejoin="round"
         stroke-miterlimit="10"
         fill="#e8effc"
         fill-rule="evenodd"
         id="path2823" /><text
         font-family="Calibri, Calibri_MSFontService, sans-serif"
         font-weight="400"
         font-size="15px"
         transform="translate(81.6512,134)"
         id="text2825">Wrong Code</text><rect
         x="286.5"
         y="107.5"
         width="163"
         height="44"
         stroke="#000000"
         stroke-width="0.666667"
         stroke-linejoin="round"
         stroke-miterlimit="10"
         fill="none"
         id="rect2827" /><text
         font-family="Calibri, Calibri_MSFontService, sans-serif"
         font-weight="400"
         font-size="15px"
         transform="translate(351.037,134)"
         id="text2829">Cast</text><path
         d="m 490.5,114.833 c 0,-4.05 3.283,-7.333 7.333,-7.333 h 230.334 c 4.05,0 7.333,3.283 7.333,7.333 v 29.334 c 0,4.05 -3.283,7.333 -7.333,7.333 H 497.833 c -4.05,0 -7.333,-3.283 -7.333,-7.333 z"
         stroke="#f4f2f8"
         stroke-width="0.666667"
         stroke-linejoin="round"
         stroke-miterlimit="10"
         fill="#f4f2f8"
         fill-rule="evenodd"
         id="path2831" /><text
         font-family="Calibri, Calibri_MSFontService, sans-serif"
         font-weight="400"
         font-size="15px"
         transform="translate(572.423,126)"
         id="text2835">Wrong Type<tspan
   font-size="15px"
   x="-29.833401"
   y="17"
   id="tspan2833">(( int instead of char ))</tspan></text><path
         d="m 245.5,129.167 h 34.161 v 0.666 H 245.5 Z m 32.828,-3.667 8,4 -8,4 z"
         id="path2837" /><path
         d="m 449.5,129.167 h 34.162 v 0.666 H 449.5 Z m 32.828,-3.667 8,4 -8,4 z"
         id="path2839" /><text
         fill="#7d3368"
         font-family="Calibri, Calibri_MSFontService, sans-serif"
         font-weight="400"
         font-size="15px"
         transform="translate(2.09974,186)"
         id="text2867">Mechanism<tspan
   fill="#000000"
   font-size="15px"
   x="19.200001"
   y="17"
   id="tspan2841">Pass In</tspan><tspan
   font-size="15px"
   x="146.98199"
   y="0"
   id="tspan2843">Source Code</tspan><tspan
   fill="#000000"
   font-size="15px"
   x="166.18201"
   y="17"
   id="tspan2845">Codebase</tspan><tspan
   font-size="15px"
   x="293.96301"
   y="0"
   id="tspan2847">Execution Space</tspan><tspan
   fill="#000000"
   font-size="15px"
   x="313.16299"
   y="17"
   id="tspan2849">Local</tspan><tspan
   font-size="15px"
   x="440.94501"
   y="0"
   id="tspan2851">Data Kind</tspan><tspan
   fill="#000000"
   font-size="15px"
   x="460.14499"
   y="17"
   id="tspan2853">Pointer</tspan><tspan
   font-size="15px"
   x="587.927"
   y="0"
   id="tspan2855">Type Kind</tspan><tspan
   fill="#000000"
   font-size="15px"
   x="607.12701"
   y="17"
   id="tspan2857">Primitive</tspan><tspan
   font-size="15px"
   x="260.521"
   y="78"
   id="tspan2859">Name Resolution (NRS) Weakness</tspan><tspan
   fill="#000000"
   font-size="15px"
   x="0"
   y="104"
   id="tspan2861">Type Fault</tspan><tspan
   fill="#000000"
   font-size="15px"
   x="331.43701"
   y="104"
   id="tspan2863">Operation</tspan><tspan
   fill="#000000"
   font-size="15px"
   x="489.939"
   y="104"
   id="tspan2865">Name Error</tspan></text><path
         d="m 0.500053,303.833 c 0,-4.05 3.283267,-7.333 7.333387,-7.333 H 238.167 c 4.05,0 7.333,3.283 7.333,7.333 v 29.334 c 0,4.05 -3.283,7.333 -7.333,7.333 H 7.83344 c -4.05012,0 -7.333387,-3.283 -7.333387,-7.333 z"
         stroke="#f4f2f8"
         stroke-width="0.666667"
         stroke-linejoin="round"
         stroke-miterlimit="10"
         fill="#f4f2f8"
         fill-rule="evenodd"
         id="path2869" /><text
         font-family="Calibri, Calibri_MSFontService, sans-serif"
         font-weight="400"
         font-size="15px"
         transform="translate(50.9845,323)"
         id="text2871">Wrong Argument Type</text><rect
         x="286.5"
         y="296.5"
         width="163"
         height="44"
         stroke="#000000"
         stroke-width="0.666667"
         stroke-linejoin="round"
         stroke-miterlimit="10"
         fill="none"
         id="rect2873" /><text
         font-family="Calibri, Calibri_MSFontService, sans-serif"
         font-weight="400"
         font-size="15px"
         transform="translate(352.954,323)"
         id="text2875">Call</text><path
         d="m 490.5,303.833 c 0,-4.05 3.283,-7.333 7.333,-7.333 h 230.334 c 4.05,0 7.333,3.283 7.333,7.333 v 29.334 c 0,4.05 -3.283,7.333 -7.333,7.333 H 497.833 c -4.05,0 -7.333,-3.283 -7.333,-7.333 z"
         stroke="#f4f2f8"
         stroke-width="0.666667"
         stroke-linejoin="round"
         stroke-miterlimit="10"
         fill="#f4f2f8"
         fill-rule="evenodd"
         id="path2877" /><text
         font-family="Calibri, Calibri_MSFontService, sans-serif"
         font-weight="400"
         font-size="15px"
         transform="translate(503.59,315)"
         id="text2881">Wrong Overloaded Function Bound<tspan
   font-size="15px"
   x="-5.8333402"
   y="17"
   id="tspan2879">(( +(int*,int) instead of +(char*,int) ))</tspan></text><path
         d="m 245.5,318.167 h 34.161 v 0.666 H 245.5 Z m 32.828,-3.667 8,4 -8,4 z"
         id="path2883" /><path
         d="m 449.5,318.167 h 34.162 v 0.666 H 449.5 Z m 32.828,-3.667 8,4 -8,4 z"
         id="path2885" /><path
         d="m 0.0368105,0.331295 -2.2500005,0.25 0.0764,-0.017777 -2.25,0.812502 0.05217,-0.02411 -2.1875,1.25 0.04652,-0.0321 -2.125,1.75 -2.0352,2.09985 -1.9764,2.53543 -3.6025,5.96731 -3.0411,7.1458 -2.3624,7.9024 -1.491,8.5244 -0.5581,8.7762 -0.0099,-0.1042 0.5625,2.1875 -0.0561,-0.117 1.6875,2.25 -0.0592,-0.0609 2.75,2.1875 -0.0416,-0.0282 3.8125,2.1875 4.7235,2.1738 5.78755,2.1147 6.674,2.1204 7.55172,2.1218 8.48843,2.0595 9.2418,1.9981 10.0551,1.936 10.8083,1.9367 11.5571,1.8741 12.1831,1.8118 12.8725,1.8121 13.4325,1.6869 14.059,1.6246 14.622,1.5621 15.059,1.4372 15.56,1.3748 15.936,1.3123 16.373,1.2498 33.808,2.1247 34.933,1.7498 35.808,1.2498 36.37,0.8123 36.62,0.25 36.625,0.25 36.38,0.8125 35.817,1.2502 34.88,1.7502 33.817,2.1254 16.379,1.25 16.002,1.313 15.502,1.375 15.128,1.438 14.566,1.563 14.065,1.625 13.441,1.688 12.88,1.813 12.19,1.813 11.567,1.875 10.818,1.939 10.066,1.938 9.258,2.002 8.508,2.064 7.574,2.128 6.698,2.128 5.826,2.13 4.775,2.198 3.839,2.201 c 0.015,0.008 0.029,0.018 0.042,0.028 l 2.75,2.188 c 0.022,0.017 0.042,0.038 0.059,0.06 l 1.688,2.25 c 0.026,0.035 0.045,0.075 0.056,0.117 l 0.562,2.188 c 0.009,0.034 0.012,0.069 0.01,0.104 l -0.562,8.813 -1.505,8.599 -2.384,7.975 -3.075,7.223 -3.646,6.041 -2.023,2.596 -2.086,2.152 c -0.019,0.019 -0.04,0.037 -0.064,0.051 l -2.628,1.624 -0.35,-0.567 2.628,-1.624 -0.064,0.051 2.039,-2.098 1.977,-2.529 3.604,-5.959 3.05,-7.152 2.366,-7.9 1.495,-8.526 0.563,-8.812 0.01,0.104 -0.563,-2.187 0.056,0.116 -1.687,-2.25 0.059,0.061 -2.75,-2.187 0.042,0.028 -3.786,-2.174 -4.726,-2.177 -5.799,-2.12 -6.676,-2.122 -7.551,-2.122 -8.492,-2.061 -9.243,-1.998 -10.058,-1.937 -10.807,-1.936 -11.558,-1.875 -12.185,-1.812 -12.87,-1.812 -13.434,-1.687 -14.06,-1.625 -14.559,-1.562 -15.122,-1.437 -15.498,-1.375 -15.998,-1.312 -16.371,-1.25 -33.808,-2.1246 -34.87,-1.7498 -35.808,-1.2499 -36.37,-0.8124 -36.625,-0.25 -36.63,-0.2501 -36.38,-0.8126 L 258.671,92.5204 223.729,90.7702 189.912,88.6449 173.535,87.3947 157.596,86.082 142.031,84.7068 126.965,83.2689 112.337,81.7061 98.271,80.0807 84.8285,78.3926 71.951,76.5797 59.7591,74.7665 48.1912,72.8906 37.3745,70.9523 27.3046,69.0133 18.0464,67.0114 9.53483,64.9459 1.96155,62.8177 l -6.701,-2.1296 -5.83745,-2.1353 -4.7765,-2.2012 -3.8125,-2.1875 c -0.0145,-0.0083 -0.0285,-0.0178 -0.0416,-0.0282 l -2.75,-2.1875 c -0.0222,-0.0177 -0.0421,-0.0382 -0.0592,-0.0609 l -1.6875,-2.25 c -0.0262,-0.0349 -0.0453,-0.0747 -0.0561,-0.117 l -0.5625,-2.1875 c -0.0088,-0.034 -0.0121,-0.0692 -0.0099,-0.1042 l 0.5669,-8.8488 1.509,-8.6006 2.3876,-7.9726 3.0839,-7.2292 3.6475,-6.03269 2.0236,-2.58957 2.0898,-2.15015 2.125,-1.75 c 0.01455,-0.01198 0.03015,-0.02275 0.04652,-0.0321 l 2.1875,-1.250004 c 0.01665,-0.009516 0.03413,-0.01759 0.05217,-0.024104 l 2.25,-0.8125 c 0.02467,-0.0089103 0.05033,-0.0148795 0.0764,-0.0177766 L -0.0368105,-0.331295 Z M 743.814,189.807 l -8.906,-0.831 6.008,-6.626 z"
         transform="matrix(-1,0,0,1,735.408,129.5)"
         id="path2887" /><text
         fill="#7d3368"
         font-family="Calibri, Calibri_MSFontService, sans-serif"
         font-weight="400"
         font-size="15px"
         transform="translate(2.09974,375)"
         id="text2919">Mechanism<tspan
   fill="#000000"
   font-size="15px"
   x="19.200001"
   y="17"
   id="tspan2889">Ad</tspan><tspan
   fill="#000000"
   font-size="15px"
   x="35.366699"
   y="17"
   id="tspan2891">-</tspan><tspan
   fill="#000000"
   font-size="15px"
   x="39.866699"
   y="17"
   id="tspan2893">hoc Bind</tspan><tspan
   font-size="15px"
   x="146.98199"
   y="0"
   id="tspan2895">Source Code</tspan><tspan
   fill="#000000"
   font-size="15px"
   x="166.18201"
   y="17"
   id="tspan2897">Codebase</tspan><tspan
   font-size="15px"
   x="293.96301"
   y="0"
   id="tspan2899">Execution Space</tspan><tspan
   fill="#000000"
   font-size="15px"
   x="313.16299"
   y="17"
   id="tspan2901">Local</tspan><tspan
   font-size="15px"
   x="440.94501"
   y="0"
   id="tspan2903">Name Kind</tspan><tspan
   fill="#000000"
   font-size="15px"
   x="460.14499"
   y="17"
   id="tspan2905">Object</tspan><tspan
   font-size="15px"
   x="587.927"
   y="0"
   id="tspan2907">Type Kind</tspan><tspan
   fill="#000000"
   font-size="15px"
   x="607.12701"
   y="17"
   id="tspan2909">Primitive</tspan><tspan
   font-size="15px"
   x="254.854"
   y="78"
   id="tspan2911">Type Computation (TCM) Weakness</tspan><tspan
   fill="#000000"
   font-size="15px"
   x="0"
   y="104"
   id="tspan2913">Name Fault</tspan><tspan
   fill="#000000"
   font-size="15px"
   x="331.43701"
   y="104"
   id="tspan2915">Operation</tspan><tspan
   fill="#000000"
   font-size="15px"
   x="489.939"
   y="104"
   id="tspan2917">Data Error</tspan></text><path
         d="m 0.500053,492.833 c 0,-4.05 3.283267,-7.333 7.333387,-7.333 H 238.167 c 4.05,0 7.333,3.283 7.333,7.333 v 29.334 c 0,4.05 -3.283,7.333 -7.333,7.333 H 7.83344 c -4.05012,0 -7.333387,-3.283 -7.333387,-7.333 z"
         stroke="#f4f2f8"
         stroke-width="0.666667"
         stroke-linejoin="round"
         stroke-miterlimit="10"
         fill="#f4f2f8"
         fill-rule="evenodd"
         id="path2921" /><text
         font-family="Calibri, Calibri_MSFontService, sans-serif"
         font-weight="400"
         font-size="15px"
         transform="translate(13.6512,512)"
         id="text2923">Wrong Overloaded Function Bound</text><rect
         x="286.5"
         y="485.5"
         width="163"
         height="44"
         stroke="#000000"
         stroke-width="0.666667"
         stroke-linejoin="round"
         stroke-miterlimit="10"
         fill="none"
         id="rect2925" /><text
         font-family="Calibri, Calibri_MSFontService, sans-serif"
         font-weight="400"
         font-size="15px"
         transform="translate(336.454,512)"
         id="text2927">Calculate</text><path
         d="m 490.5,492.833 c 0,-4.05 3.283,-7.333 7.333,-7.333 h 230.334 c 4.05,0 7.333,3.283 7.333,7.333 v 29.334 c 0,4.05 -3.283,7.333 -7.333,7.333 H 497.833 c -4.05,0 -7.333,-3.283 -7.333,-7.333 z"
         stroke="#f4f2f8"
         stroke-width="0.666667"
         stroke-linejoin="round"
         stroke-miterlimit="10"
         fill="#f4f2f8"
         fill-rule="evenodd"
         id="path2929" /><text
         font-family="Calibri, Calibri_MSFontService, sans-serif"
         font-weight="400"
         font-size="15px"
         transform="translate(568.427,503)"
         id="text2933">Wrong Result<tspan
   font-size="15px"
   x="-19.42"
   y="17"
   id="tspan2931">(( Pointer position ))</tspan></text><path
         d="m 245.5,507.167 h 34.161 v 0.666 H 245.5 Z m 32.828,-3.667 8,4 -8,4 z"
         id="path2935" /><path
         d="m 449.5,507.167 h 34.162 v 0.666 H 449.5 Z m 32.828,-3.667 8,4 -8,4 z"
         id="path2937" /><path
         d="m 0.0368105,0.331295 -2.2500005,0.25 0.0764,-0.017777 -2.25,0.812502 0.05217,-0.02411 -2.1875,1.25 0.04652,-0.0321 -2.125,1.75 -2.0352,2.09985 -1.9764,2.53543 -3.6025,5.96731 -3.0411,7.1458 -2.3624,7.9024 -1.491,8.5244 -0.5581,8.7762 -0.0099,-0.1042 0.5625,2.1875 -0.0561,-0.117 1.6875,2.25 -0.0592,-0.0609 2.75,2.1875 -0.0416,-0.0282 3.8125,2.1875 4.7235,2.1738 5.78755,2.1147 6.674,2.1204 7.55172,2.1218 8.48843,2.0595 9.2418,1.9981 10.0551,1.936 10.8083,1.9367 11.5571,1.8741 12.1831,1.8118 12.8725,1.8121 13.4325,1.6869 14.059,1.6246 14.622,1.5621 15.059,1.4372 15.56,1.3748 15.936,1.3123 16.373,1.2498 33.808,2.1247 34.933,1.7498 35.808,1.2498 36.37,0.8123 36.62,0.25 36.625,0.25 36.38,0.8125 35.817,1.2502 34.88,1.7502 33.817,2.1254 16.379,1.25 16.002,1.313 15.502,1.375 15.128,1.438 14.566,1.563 14.065,1.625 13.441,1.688 12.88,1.813 12.19,1.813 11.567,1.875 10.818,1.939 10.066,1.938 9.258,2.002 8.508,2.064 7.574,2.128 6.698,2.128 5.826,2.13 4.775,2.198 3.839,2.201 c 0.015,0.008 0.029,0.018 0.042,0.028 l 2.75,2.188 c 0.022,0.017 0.042,0.038 0.059,0.06 l 1.688,2.25 c 0.026,0.035 0.045,0.075 0.056,0.117 l 0.562,2.188 c 0.009,0.034 0.012,0.069 0.01,0.104 l -0.562,8.813 -1.505,8.599 -2.384,7.975 -3.075,7.223 -3.646,6.041 -2.023,2.596 -2.086,2.152 c -0.019,0.019 -0.04,0.037 -0.064,0.051 l -2.628,1.624 -0.35,-0.567 2.628,-1.624 -0.064,0.051 2.039,-2.098 1.977,-2.529 3.604,-5.959 3.05,-7.152 2.366,-7.9 1.495,-8.526 0.563,-8.812 0.01,0.104 -0.563,-2.187 0.056,0.116 -1.687,-2.25 0.059,0.061 -2.75,-2.187 0.042,0.028 -3.786,-2.174 -4.726,-2.177 -5.799,-2.12 -6.676,-2.122 -7.551,-2.122 -8.492,-2.061 -9.243,-1.998 -10.058,-1.937 -10.807,-1.936 -11.558,-1.875 -12.185,-1.812 -12.87,-1.812 -13.434,-1.687 -14.06,-1.625 -14.559,-1.562 -15.122,-1.437 -15.498,-1.375 -15.998,-1.312 -16.371,-1.25 -33.808,-2.1246 -34.87,-1.7498 -35.808,-1.2499 -36.37,-0.8124 -36.625,-0.25 -36.63,-0.2501 -36.38,-0.8126 L 258.671,92.5204 223.729,90.7702 189.912,88.6449 173.535,87.3947 157.596,86.082 142.031,84.7068 126.965,83.2689 112.337,81.7061 98.271,80.0807 84.8285,78.3926 71.951,76.5797 59.7591,74.7665 48.1912,72.8906 37.3745,70.9523 27.3046,69.0133 18.0464,67.0114 9.53483,64.9459 1.96155,62.8177 l -6.701,-2.1296 -5.83745,-2.1353 -4.7765,-2.2012 -3.8125,-2.1875 c -0.0145,-0.0083 -0.0285,-0.0178 -0.0416,-0.0282 l -2.75,-2.1875 c -0.0222,-0.0177 -0.0421,-0.0382 -0.0592,-0.0609 l -1.6875,-2.25 c -0.0262,-0.0349 -0.0453,-0.0747 -0.0561,-0.117 l -0.5625,-2.1875 c -0.0088,-0.034 -0.0121,-0.0692 -0.0099,-0.1042 l 0.5669,-8.8488 1.509,-8.6006 2.3876,-7.9726 3.0839,-7.2292 3.6475,-6.03269 2.0236,-2.58957 2.0898,-2.15015 2.125,-1.75 c 0.01455,-0.01198 0.03015,-0.02275 0.04652,-0.0321 l 2.1875,-1.250004 c 0.01665,-0.009516 0.03413,-0.01759 0.05217,-0.024104 l 2.25,-0.8125 c 0.02467,-0.0089103 0.05033,-0.0148795 0.0764,-0.0177766 L -0.0368105,-0.331295 Z M 743.814,189.807 l -8.906,-0.831 6.008,-6.626 z"
         transform="matrix(-1,0,0,1,735.408,318.5)"
         id="path2939" /><text
         fill="#7d3368"
         font-family="Calibri, Calibri_MSFontService, sans-serif"
         font-weight="400"
         font-size="15px"
         transform="translate(2.09974,564)"
         id="text2967">Mechanism<tspan
   fill="#000000"
   font-size="15px"
   x="19.200001"
   y="17"
   id="tspan2941">Operator</tspan><tspan
   font-size="15px"
   x="146.98199"
   y="0"
   id="tspan2943">Source Code</tspan><tspan
   fill="#000000"
   font-size="15px"
   x="166.18201"
   y="17"
   id="tspan2945">Codebase</tspan><tspan
   font-size="15px"
   x="293.96301"
   y="0"
   id="tspan2947">Execution Space</tspan><tspan
   fill="#000000"
   font-size="15px"
   x="313.16299"
   y="17"
   id="tspan2949">Local</tspan><tspan
   font-size="15px"
   x="440.94501"
   y="0"
   id="tspan2951">Data Kind</tspan><tspan
   fill="#000000"
   font-size="15px"
   x="460.14499"
   y="17"
   id="tspan2953">Pointer</tspan><tspan
   font-size="15px"
   x="587.927"
   y="0"
   id="tspan2955">Type Kind</tspan><tspan
   fill="#000000"
   font-size="15px"
   x="607.12701"
   y="17"
   id="tspan2957">Primitive</tspan><tspan
   font-size="15px"
   x="248.688"
   y="78"
   id="tspan2959">Memory Addressing (MAD) Weakness</tspan><tspan
   fill="#000000"
   font-size="15px"
   x="0"
   y="104"
   id="tspan2961">Data Fault</tspan><tspan
   fill="#000000"
   font-size="15px"
   x="331.43701"
   y="104"
   id="tspan2963">Operation</tspan><tspan
   fill="#000000"
   font-size="15px"
   x="489.939"
   y="104"
   id="tspan2965">Address Error</tspan></text><path
         d="m 0.500053,681.833 c 0,-4.05 3.283267,-7.333 7.333387,-7.333 H 238.167 c 4.05,0 7.333,3.283 7.333,7.333 v 29.334 c 0,4.05 -3.283,7.333 -7.333,7.333 H 7.83344 c -4.05012,0 -7.333387,-3.283 -7.333387,-7.333 z"
         stroke="#f4f2f8"
         stroke-width="0.666667"
         stroke-linejoin="round"
         stroke-miterlimit="10"
         fill="#f4f2f8"
         fill-rule="evenodd"
         id="path2969" /><text
         font-family="Calibri, Calibri_MSFontService, sans-serif"
         font-weight="400"
         font-size="15px"
         transform="translate(80.5678,701)"
         id="text2971">Wrong Index</text><rect
         x="286.5"
         y="674.5"
         width="163"
         height="44"
         stroke="#000000"
         stroke-width="0.666667"
         stroke-linejoin="round"
         stroke-miterlimit="10"
         fill="none"
         id="rect2973" /><text
         font-family="Calibri, Calibri_MSFontService, sans-serif"
         font-weight="400"
         font-size="15px"
         transform="translate(332.12,701)"
         id="text2975">Reposition</text><path
         d="m 490.5,681.833 c 0,-4.05 3.283,-7.333 7.333,-7.333 h 230.334 c 4.05,0 7.333,3.283 7.333,7.333 v 29.334 c 0,4.05 -3.283,7.333 -7.333,7.333 H 497.833 c -4.05,0 -7.333,-3.283 -7.333,-7.333 z"
         stroke="#f4f2f8"
         stroke-width="0.666667"
         stroke-linejoin="round"
         stroke-miterlimit="10"
         fill="#f4f2f8"
         fill-rule="evenodd"
         id="path2977" /><text
         font-family="Calibri, Calibri_MSFontService, sans-serif"
         font-weight="400"
         font-size="15px"
         transform="translate(547.007,701)"
         id="text2979">Over Bounds Pointer</text><path
         d="m 245.5,696.167 h 34.161 v 0.666 H 245.5 Z m 32.828,-3.667 8,4 -8,4 z"
         id="path2981" /><path
         d="m 449.5,696.167 h 34.162 v 0.666 H 449.5 Z m 32.828,-3.667 8,4 -8,4 z"
         id="path2983" /><path
         d="m 0.0368105,0.331295 -2.2500005,0.25 0.0764,-0.017777 -2.25,0.812502 0.05217,-0.02411 -2.1875,1.25 0.04652,-0.0321 -2.125,1.75 -2.0352,2.09985 -1.9764,2.53543 -3.6025,5.96731 -3.0411,7.1458 -2.3624,7.9024 -1.491,8.5244 -0.5581,8.7762 -0.0099,-0.1042 0.5625,2.1875 -0.0561,-0.117 1.6875,2.25 -0.0592,-0.0609 2.75,2.1875 -0.0416,-0.0282 3.8125,2.1875 4.7235,2.1738 5.78755,2.1147 6.674,2.1204 7.55172,2.1218 8.48843,2.0595 9.2418,1.9981 10.0551,1.936 10.8083,1.9367 11.5571,1.8741 12.1831,1.8118 12.8725,1.8121 13.4325,1.6869 14.059,1.6246 14.622,1.5621 15.059,1.4372 15.56,1.3748 15.936,1.3123 16.373,1.2498 33.808,2.1247 34.933,1.7498 35.808,1.2498 36.37,0.8123 36.62,0.25 36.625,0.25 36.38,0.8125 35.817,1.2502 34.88,1.7502 33.817,2.1254 16.379,1.25 16.002,1.313 15.502,1.375 15.128,1.438 14.566,1.563 14.065,1.625 13.441,1.688 12.88,1.813 12.19,1.813 11.567,1.875 10.818,1.939 10.066,1.938 9.258,2.002 8.508,2.064 7.574,2.128 6.698,2.128 5.826,2.13 4.775,2.198 3.839,2.201 c 0.015,0.008 0.029,0.018 0.042,0.028 l 2.75,2.188 c 0.022,0.017 0.042,0.038 0.059,0.06 l 1.688,2.25 c 0.026,0.035 0.045,0.075 0.056,0.117 l 0.562,2.188 c 0.009,0.034 0.012,0.069 0.01,0.104 l -0.562,8.813 -1.505,8.599 -2.384,7.975 -3.075,7.223 -3.646,6.041 -2.023,2.596 -2.086,2.152 c -0.019,0.019 -0.04,0.037 -0.064,0.051 l -2.628,1.624 -0.35,-0.567 2.628,-1.624 -0.064,0.051 2.039,-2.098 1.977,-2.529 3.604,-5.959 3.05,-7.152 2.366,-7.9 1.495,-8.526 0.563,-8.812 0.01,0.104 -0.563,-2.187 0.056,0.116 -1.687,-2.25 0.059,0.061 -2.75,-2.187 0.042,0.028 -3.786,-2.174 -4.726,-2.177 -5.799,-2.12 -6.676,-2.122 -7.551,-2.122 -8.492,-2.061 -9.243,-1.998 -10.058,-1.937 -10.807,-1.936 -11.558,-1.875 -12.185,-1.812 -12.87,-1.812 -13.434,-1.687 -14.06,-1.625 -14.559,-1.562 -15.122,-1.437 -15.498,-1.375 -15.998,-1.312 -16.371,-1.25 -33.808,-2.1246 -34.87,-1.7498 -35.808,-1.2499 -36.37,-0.8124 -36.625,-0.25 -36.63,-0.2501 -36.38,-0.8126 L 258.671,92.5204 223.729,90.7702 189.912,88.6449 173.535,87.3947 157.596,86.082 142.031,84.7068 126.965,83.2689 112.337,81.7061 98.271,80.0807 84.8285,78.3926 71.951,76.5797 59.7591,74.7665 48.1912,72.8906 37.3745,70.9523 27.3046,69.0133 18.0464,67.0114 9.53483,64.9459 1.96155,62.8177 l -6.701,-2.1296 -5.83745,-2.1353 -4.7765,-2.2012 -3.8125,-2.1875 c -0.0145,-0.0083 -0.0285,-0.0178 -0.0416,-0.0282 l -2.75,-2.1875 c -0.0222,-0.0177 -0.0421,-0.0382 -0.0592,-0.0609 l -1.6875,-2.25 c -0.0262,-0.0349 -0.0453,-0.0747 -0.0561,-0.117 l -0.5625,-2.1875 c -0.0088,-0.034 -0.0121,-0.0692 -0.0099,-0.1042 l 0.5669,-8.8488 1.509,-8.6006 2.3876,-7.9726 3.0839,-7.2292 3.6475,-6.03269 2.0236,-2.58957 2.0898,-2.15015 2.125,-1.75 c 0.01455,-0.01198 0.03015,-0.02275 0.04652,-0.0321 l 2.1875,-1.250004 c 0.01665,-0.009516 0.03413,-0.01759 0.05217,-0.024104 l 2.25,-0.8125 c 0.02467,-0.0089103 0.05033,-0.0148795 0.0764,-0.0177766 L -0.0368105,-0.331295 Z M 743.814,189.807 l -8.906,-0.831 6.008,-6.626 z"
         transform="matrix(-1,0,0,1,735.408,507.5)"
         id="path2985" /><text
         fill="#7d3368"
         font-family="Calibri, Calibri_MSFontService, sans-serif"
         font-weight="400"
         font-size="15px"
         transform="translate(2.09974,753)"
         id="text3015">Mechanism<tspan
   fill="#000000"
   font-size="15px"
   x="19.200001"
   y="17"
   id="tspan2987">Direct</tspan><tspan
   font-size="15px"
   x="146.98199"
   y="0"
   id="tspan2989">Source Code</tspan><tspan
   fill="#000000"
   font-size="15px"
   x="166.18201"
   y="17"
   id="tspan2991">Codebase</tspan><tspan
   font-size="15px"
   x="293.96301"
   y="0"
   id="tspan2993">Execution Space</tspan><tspan
   fill="#000000"
   font-size="15px"
   x="313.16299"
   y="17"
   id="tspan2995">Userland</tspan><tspan
   font-size="15px"
   x="440.94501"
   y="0"
   id="tspan2997">Address State</tspan><tspan
   fill="#000000"
   font-size="15px"
   x="460.14499"
   y="17"
   id="tspan2999">Stack</tspan><tspan
   font-size="15px"
   x="587.927"
   y="0"
   id="tspan3001">Size Kind</tspan><tspan
   fill="#000000"
   font-size="15px"
   x="607.12701"
   y="17"
   id="tspan3003">Actual</tspan><tspan
   font-size="15px"
   x="271.021"
   y="78"
   id="tspan3005">Memory Use (MUS) Weakness</tspan><tspan
   fill="#000000"
   font-size="15px"
   x="0"
   y="104"
   id="tspan3007">Address Fault</tspan><tspan
   fill="#000000"
   font-size="15px"
   x="331.43701"
   y="104"
   id="tspan3009">Operation</tspan><tspan
   fill="#000000"
   font-size="15px"
   x="489.939"
   y="104"
   id="tspan3011">Memory Corruption/Disclosure Final</tspan><tspan
   fill="#000000"
   font-size="15px"
   x="489.939"
   y="121"
   id="tspan3013">Error</tspan></text><path
         d="m 0.500053,870.833 c 0,-4.05 3.283267,-7.333 7.333387,-7.333 H 238.167 c 4.05,0 7.333,3.283 7.333,7.333 v 29.334 c 0,4.05 -3.283,7.333 -7.333,7.333 H 7.83344 c -4.05012,0 -7.333387,-3.283 -7.333387,-7.333 z"
         stroke="#f4f2f8"
         stroke-width="0.666667"
         stroke-linejoin="round"
         stroke-miterlimit="10"
         fill="#f4f2f8"
         fill-rule="evenodd"
         id="path3017" /><text
         font-family="Calibri, Calibri_MSFontService, sans-serif"
         font-weight="400"
         font-size="15px"
         transform="translate(57.0679,890)"
         id="text3019">Over Bounds Pointer</text><rect
         x="286.5"
         y="863.5"
         width="163"
         height="44"
         stroke="#000000"
         stroke-width="0.666667"
         stroke-linejoin="round"
         stroke-miterlimit="10"
         fill="none"
         id="rect3021" /><text
         font-family="Calibri, Calibri_MSFontService, sans-serif"
         font-weight="400"
         font-size="15px"
         transform="translate(348.704,890)"
         id="text3023">Read</text><path
         d="m 490.5,870.833 c 0,-4.05 3.283,-7.333 7.333,-7.333 h 230.334 c 4.05,0 7.333,3.283 7.333,7.333 v 29.334 c 0,4.05 -3.283,7.333 -7.333,7.333 H 497.833 c -4.05,0 -7.333,-3.283 -7.333,-7.333 z"
         stroke="#dfdaea"
         stroke-width="0.666667"
         stroke-linejoin="round"
         stroke-miterlimit="10"
         fill="#dfdaea"
         fill-rule="evenodd"
         id="path3025" /><text
         font-family="Calibri, Calibri_MSFontService, sans-serif"
         font-weight="400"
         font-size="15px"
         transform="translate(561.007,890)"
         id="text3027">Buffer Overflow</text><path
         d="m 245.5,885.167 h 34.161 v 0.666 H 245.5 Z m 32.828,-3.667 8,4 -8,4 z"
         id="path3029" /><path
         d="m 449.5,885.167 h 34.162 v 0.666 H 449.5 Z m 32.828,-3.667 8,4 -8,4 z"
         id="path3031" /><path
         d="m 0.0368105,0.331295 -2.2500005,0.25 0.0764,-0.017777 -2.25,0.812502 0.05217,-0.02411 -2.1875,1.25 0.04652,-0.0321 -2.125,1.75 -2.0352,2.09985 -1.9764,2.53543 -3.6025,5.96731 -3.0411,7.1458 -2.3624,7.9024 -1.491,8.5244 -0.5581,8.7762 -0.0099,-0.1042 0.5625,2.1875 -0.0561,-0.117 1.6875,2.25 -0.0592,-0.0609 2.75,2.1875 -0.0416,-0.0282 3.8125,2.1875 4.7235,2.1738 5.78755,2.1147 6.674,2.1204 7.55172,2.1218 8.48843,2.0595 9.2418,1.9981 10.0551,1.936 10.8083,1.9367 11.5571,1.8741 12.1831,1.8118 12.8725,1.8121 13.4325,1.6869 14.059,1.6246 14.622,1.5621 15.059,1.4372 15.56,1.3748 15.936,1.3123 16.373,1.2498 33.808,2.1247 34.933,1.7498 35.808,1.2498 36.37,0.8123 36.62,0.25 36.625,0.25 36.38,0.8125 35.817,1.2502 34.88,1.7502 33.817,2.1254 16.379,1.25 16.002,1.313 15.502,1.375 15.128,1.438 14.566,1.563 14.065,1.625 13.441,1.688 12.88,1.813 12.19,1.813 11.567,1.875 10.818,1.939 10.066,1.938 9.258,2.002 8.508,2.064 7.574,2.128 6.698,2.128 5.826,2.13 4.775,2.198 3.839,2.201 c 0.015,0.008 0.029,0.018 0.042,0.028 l 2.75,2.188 c 0.022,0.017 0.042,0.038 0.059,0.06 l 1.688,2.25 c 0.026,0.035 0.045,0.075 0.056,0.117 l 0.562,2.188 c 0.009,0.034 0.012,0.069 0.01,0.104 l -0.562,8.813 -1.505,8.599 -2.384,7.975 -3.075,7.223 -3.646,6.041 -2.023,2.596 -2.086,2.152 c -0.019,0.019 -0.04,0.037 -0.064,0.051 l -2.628,1.624 -0.35,-0.567 2.628,-1.624 -0.064,0.051 2.039,-2.098 1.977,-2.529 3.604,-5.959 3.05,-7.152 2.366,-7.9 1.495,-8.526 0.563,-8.812 0.01,0.104 -0.563,-2.187 0.056,0.116 -1.687,-2.25 0.059,0.061 -2.75,-2.187 0.042,0.028 -3.786,-2.174 -4.726,-2.177 -5.799,-2.12 -6.676,-2.122 -7.551,-2.122 -8.492,-2.061 -9.243,-1.998 -10.058,-1.937 -10.807,-1.936 -11.558,-1.875 -12.185,-1.812 -12.87,-1.812 -13.434,-1.687 -14.06,-1.625 -14.559,-1.562 -15.122,-1.437 -15.498,-1.375 -15.998,-1.312 -16.371,-1.25 -33.808,-2.1246 -34.87,-1.7498 -35.808,-1.2499 -36.37,-0.8124 -36.625,-0.25 -36.63,-0.2501 -36.38,-0.8126 L 258.671,92.5204 223.729,90.7702 189.912,88.6449 173.535,87.3947 157.596,86.082 142.031,84.7068 126.965,83.2689 112.337,81.7061 98.271,80.0807 84.8285,78.3926 71.951,76.5797 59.7591,74.7665 48.1912,72.8906 37.3745,70.9523 27.3046,69.0133 18.0464,67.0114 9.53483,64.9459 1.96155,62.8177 l -6.701,-2.1296 -5.83745,-2.1353 -4.7765,-2.2012 -3.8125,-2.1875 c -0.0145,-0.0083 -0.0285,-0.0178 -0.0416,-0.0282 l -2.75,-2.1875 c -0.0222,-0.0177 -0.0421,-0.0382 -0.0592,-0.0609 l -1.6875,-2.25 c -0.0262,-0.0349 -0.0453,-0.0747 -0.0561,-0.117 l -0.5625,-2.1875 c -0.0088,-0.034 -0.0121,-0.0692 -0.0099,-0.1042 l 0.5669,-8.8488 1.509,-8.6006 2.3876,-7.9726 3.0839,-7.2292 3.6475,-6.03269 2.0236,-2.58957 2.0898,-2.15015 2.125,-1.75 c 0.01455,-0.01198 0.03015,-0.02275 0.04652,-0.0321 l 2.1875,-1.250004 c 0.01665,-0.009516 0.03413,-0.01759 0.05217,-0.024104 l 2.25,-0.8125 c 0.02467,-0.0089103 0.05033,-0.0148795 0.0764,-0.0177766 L -0.0368105,-0.331295 Z M 743.814,189.807 l -8.906,-0.831 6.008,-6.626 z"
         transform="matrix(-1,0,0,1,735.408,696.5)"
         id="path3033" /><text
         fill="#7d3368"
         font-family="Calibri, Calibri_MSFontService, sans-serif"
         font-weight="400"
         font-size="15px"
         transform="translate(2.09974,942)"
         id="text3057">Mechanism<tspan
   fill="#000000"
   font-size="15px"
   x="19.200001"
   y="17"
   id="tspan3035">Direct</tspan><tspan
   font-size="15px"
   x="122.485"
   y="0"
   id="tspan3037">Source Code</tspan><tspan
   fill="#000000"
   font-size="15px"
   x="141.685"
   y="17"
   id="tspan3039">Codebase</tspan><tspan
   font-size="15px"
   x="244.96899"
   y="0"
   id="tspan3041">Execution Space</tspan><tspan
   fill="#000000"
   font-size="15px"
   x="264.16901"
   y="17"
   id="tspan3043">Userland</tspan><tspan
   font-size="15px"
   x="367.45401"
   y="0"
   id="tspan3045">Address Kind</tspan><tspan
   fill="#000000"
   font-size="15px"
   x="386.65399"
   y="17"
   id="tspan3047">Litle</tspan><tspan
   font-size="15px"
   x="489.93799"
   y="0"
   id="tspan3049">Address State</tspan><tspan
   fill="#000000"
   font-size="15px"
   x="509.138"
   y="17"
   id="tspan3051">Stack</tspan><tspan
   font-size="15px"
   x="612.42297"
   y="0"
   id="tspan3053">Size Kind</tspan><tspan
   fill="#000000"
   font-size="15px"
   x="631.62299"
   y="17"
   id="tspan3055">Actual</tspan></text><path
         d="m 0.500053,1062.67 c 0,-2.3 1.865517,-4.17 4.166747,-4.17 h 33.6665 c 2.3012,0 4.1667,1.87 4.1667,4.17 v 16.66 c 0,2.3 -1.8655,4.17 -4.1667,4.17 H 4.6668 c -2.30123,0 -4.166747,-1.87 -4.166747,-4.17 z"
         stroke="#e8effc"
         stroke-width="0.666667"
         stroke-linejoin="round"
         stroke-miterlimit="10"
         fill="#e8effc"
         fill-rule="evenodd"
         id="path3059" /><text
         font-family="Calibri, Calibri_MSFontService, sans-serif"
         font-weight="400"
         font-size="15px"
         transform="translate(44.0945,1077)"
         id="text3061">Bug</text><path
         d="m 184.5,1062.67 c 0,-2.3 1.866,-4.17 4.167,-4.17 h 33.666 c 2.302,0 4.167,1.87 4.167,4.17 v 16.66 c 0,2.3 -1.865,4.17 -4.167,4.17 h -33.666 c -2.301,0 -4.167,-1.87 -4.167,-4.17 z"
         stroke="#f4f2f8"
         stroke-width="0.666667"
         stroke-linejoin="round"
         stroke-miterlimit="10"
         fill="#f4f2f8"
         fill-rule="evenodd"
         id="path3063" /><text
         font-family="Calibri, Calibri_MSFontService, sans-serif"
         font-weight="400"
         font-size="15px"
         transform="translate(227.822,1077)"
         id="text3065">Fault / Error</text><path
         d="m 367.5,1062.67 c 0,-2.3 1.866,-4.17 4.167,-4.17 h 33.666 c 2.302,0 4.167,1.87 4.167,4.17 v 16.66 c 0,2.3 -1.865,4.17 -4.167,4.17 h -33.666 c -2.301,0 -4.167,-1.87 -4.167,-4.17 z"
         stroke="#dfdaea"
         stroke-width="0.666667"
         stroke-linejoin="round"
         stroke-miterlimit="10"
         fill="#dfdaea"
         fill-rule="evenodd"
         id="path3067" /><text
         font-family="Calibri, Calibri_MSFontService, sans-serif"
         font-weight="400"
         font-size="15px"
         transform="translate(411.549,1077)"
         id="text3069">Final Error</text><rect
         x="551.5"
         y="1058.5"
         width="42"
         height="25"
         stroke="#000000"
         stroke-width="0.666667"
         stroke-linejoin="round"
         stroke-miterlimit="10"
         fill="none"
         id="rect3071" /><text
         font-family="Calibri, Calibri_MSFontService, sans-serif"
         font-weight="400"
         font-size="15px"
         transform="translate(595.276,1077)"
         id="text3073">Operation / Operand</text></g></g></svg>
