<?xml version="1.0" encoding="UTF-8" standalone="no"?>
<!-- Created with Inkscape (http://www.inkscape.org/) -->

<svg
   width="277.8125mm"
   height="183.88486mm"
   viewBox="0 0 277.8125 183.88486"
   version="1.1"
   id="svg1"
   inkscape:version="1.3.2 (091e20e, 2023-11-25, custom)"
   sodipodi:docname="DCL.svg"
   xmlns:inkscape="http://www.inkscape.org/namespaces/inkscape"
   xmlns:sodipodi="http://sodipodi.sourceforge.net/DTD/sodipodi-0.dtd"
   xmlns="http://www.w3.org/2000/svg"
   xmlns:svg="http://www.w3.org/2000/svg">
  <sodipodi:namedview
     id="namedview1"
     pagecolor="#ffffff"
     bordercolor="#000000"
     borderopacity="0.25"
     inkscape:showpageshadow="2"
     inkscape:pageopacity="0.0"
     inkscape:pagecheckerboard="0"
     inkscape:deskcolor="#d1d1d1"
     inkscape:document-units="mm"
     inkscape:zoom="1.0146815"
     inkscape:cx="315.86265"
     inkscape:cy="183.80151"
     inkscape:window-width="2560"
     inkscape:window-height="1377"
     inkscape:window-x="-8"
     inkscape:window-y="859"
     inkscape:window-maximized="1"
     inkscape:current-layer="layer1" />
  <defs
     id="defs1" />
  <g
     inkscape:label="Layer 1"
     inkscape:groupmode="layer"
     id="layer1"
     transform="translate(-21.43125,-99.968963)">
    <g
       transform="matrix(0.26458333,0,0,0.26458333,21.43125,97.63125)"
       id="g69">
      <text
         font-family="Calibri, Calibri_MSFontService, sans-serif"
         font-weight="400"
         font-size="19px"
         transform="translate(441.086,22)"
         id="text1">Bugs Framework (BF)</text>
      <text
         font-family="Calibri, Calibri_MSFontService, sans-serif"
         font-weight="400"
         font-size="16px"
         transform="translate(430.32,65)"
         id="text2">Data Type (_DAT) Class Type</text>
      <text
         fill="#660066"
         font-family="Calibri, Calibri_MSFontService, sans-serif"
         font-weight="400"
         font-size="16px"
         transform="translate(446.666,84)"
         id="text3">Declaration (DCL) Class</text>
      <text
         font-family="Calibri, Calibri_MSFontService, sans-serif"
         font-weight="400"
         font-size="16px"
         transform="translate(148.645,115)"
         id="text4">Causes</text>
      <path
         d="M 0,147.167 C 0,138.791 6.79052,132 15.167,132 h 319.666 c 8.376,0 15.167,6.791 15.167,15.167 v 60.666 C 350,216.209 343.209,223 334.833,223 H 15.167 C 6.79052,223 0,216.209 0,207.833 Z"
         fill="#e8effc"
         fill-rule="evenodd"
         id="path4" />
      <text
         font-family="Calibri, Calibri_MSFontService, sans-serif"
         font-weight="400"
         font-size="16px"
         transform="translate(6.5073,153)"
         id="text5">Code Bug</text>
      <text
         fill="#660066"
         font-family="Calibri, Calibri_MSFontService, sans-serif"
         font-weight="400"
         font-size="16px"
         transform="translate(249.341,172)"
         id="text6">Missing Code</text>
      <text
         fill="#660066"
         font-family="Calibri, Calibri_MSFontService, sans-serif"
         font-weight="400"
         font-size="16px"
         transform="translate(255.567,191)"
         id="text7">Wrong Code</text>
      <text
         fill="#660066"
         font-family="Calibri, Calibri_MSFontService, sans-serif"
         font-weight="400"
         font-size="16px"
         transform="translate(232.267,211)"
         id="text8">Erroneous Code</text>
      <path
         d="m 0.0144367,-0.333021 5.4395833,0.2358108 5.29608,0.6687432 4.9537,1.040007 4.4428,1.3504 3.7644,1.60138 c 0.0153,0.00653 0.0301,0.01421 0.0443,0.02295 l 2.8764,1.7737 c 0.0232,0.01431 0.0446,0.03141 0.0636,0.05091 l 1.8512,1.89674 c 0.0351,0.03597 0.0616,0.07941 0.0776,0.12708 l 0.655,1.9582 0.655,1.9583 -0.0775,-0.1271 1.8511,1.8968 -0.0636,-0.051 2.8765,1.7738 -0.0444,-0.023 3.7309,1.5892 4.3807,1.3308 4.8985,1.0282 4.025,0.4327 -0.0716,0.6628 L 47.5491,20.4213 42.5937,19.3785 38.1458,18.0232 34.415,16.434 C 34.3997,16.4275 34.3848,16.4198 34.3707,16.4111 L 31.4942,14.6374 C 31.471,14.6231 31.4497,14.606 31.4306,14.5865 l -1.8511,-1.8967 c -0.0351,-0.036 -0.0617,-0.0795 -0.0776,-0.1271 L 28.8469,10.6044 28.1918,8.64618 28.2694,8.77326 26.4182,6.87652 26.4818,6.92743 23.6054,5.15372 23.6497,5.17667 19.9525,3.59974 15.5667,2.26395 10.6665,1.23293 5.42514,0.568831 -0.0144367,0.333021 Z M 50.624,16.4499 l 7.702,4.5475 -8.2592,3.433 z"
         transform="matrix(1,0,0,-1,350.5,177.497)"
         id="path8" />
      <path
         d="M 0,256.667 C 0,246.358 8.35752,238 18.667,238 h 312.666 c 10.309,0 18.667,8.358 18.667,18.667 v 74.666 C 350,341.642 341.642,350 331.333,350 H 18.667 C 8.35752,350 0,341.642 0,331.333 Z"
         fill="#e8effc"
         fill-rule="evenodd"
         id="path9" />
      <text
         font-family="Calibri, Calibri_MSFontService, sans-serif"
         font-weight="400"
         font-size="16px"
         transform="translate(7.53228,260)"
         id="text9">Specification Bug</text>
      <text
         fill="#660066"
         font-family="Calibri, Calibri_MSFontService, sans-serif"
         font-weight="400"
         font-size="16px"
         transform="translate(225.532,279)"
         id="text10">Missing Modifier</text>
      <text
         fill="#660066"
         font-family="Calibri, Calibri_MSFontService, sans-serif"
         font-weight="400"
         font-size="16px"
         transform="translate(231.759,298)"
         id="text11">Wrong Modifier</text>
      <text
         fill="#660066"
         font-family="Calibri, Calibri_MSFontService, sans-serif"
         font-weight="400"
         font-size="16px"
         transform="translate(214.966,318)"
         id="text12">Anonymous Scope</text>
      <text
         fill="#660066"
         font-family="Calibri, Calibri_MSFontService, sans-serif"
         font-weight="400"
         font-size="16px"
         transform="translate(249.059,337)"
         id="text13">Wrong Scope</text>
      <path
         d="M 0.0476694,-0.329907 2.77813,0.0646266 C 2.80654,0.0687311 2.8343,0.076487 2.86072,0.0877019 L 5.56983,1.23773 C 5.59096,1.2467 5.6111,1.25782 5.62995,1.27094 l 2.66639,1.85514 c 0.01455,0.01013 0.02827,0.0214 0.04103,0.0337 l 2.60233,2.50991 2.5447,3.1447 2.4294,3.69481 2.2958,4.1951 2.1427,4.6456 1.9694,5.0467 1.7754,5.3978 2.8833,11.6417 1.8573,12.4546 0.6583,12.8587 0.655,12.8266 1.8479,12.3914 2.8703,11.5866 1.7624,5.357 1.9554,5.011 2.1246,4.607 2.2716,4.152 2.3962,3.645 2.4976,3.088 2.5744,2.479 -0.0824,-0.058 1.9049,0.952 -0.298,0.596 -1.9049,-0.952 c -0.0302,-0.015 -0.058,-0.035 -0.0824,-0.058 l -2.6301,-2.54 -2.5362,-3.141 -2.424,-3.691 -2.2921,-4.193 -2.1403,-4.644 -1.9676,-5.045 -1.7762,-5.405 L 31.3396,94.0657 29.4852,81.61 28.8302,68.7834 28.1783,55.989 26.3333,43.5964 23.4638,32.0026 21.7006,26.6389 19.7469,21.6291 17.6247,17.0242 15.3567,12.8753 12.9659,9.23343 10.4769,6.14954 7.87456,3.63963 7.91559,3.67333 5.2492,1.81818 5.30932,1.85139 2.60021,0.701366 2.6828,0.724441 -0.0476694,0.329907 Z M 52.3533,130.875 l 5.9727,6.658 -8.9099,0.783 z"
         transform="matrix(1,0,0,-1,350.5,294.033)"
         id="path13" />
      <path
         d="M 0,373.167 C 0,368.656 3.65634,365 8.16667,365 H 341.833 c 4.511,0 8.167,3.656 8.167,8.167 v 32.666 c 0,4.511 -3.656,8.167 -8.167,8.167 H 8.16667 C 3.65634,414 0,410.344 0,405.833 Z"
         fill="#f4f2f8"
         fill-rule="evenodd"
         id="path14" />
      <text
         font-family="Calibri, Calibri_MSFontService, sans-serif"
         font-weight="400"
         font-size="16px"
         transform="translate(4.45722,384)"
         id="text14">Name Fault</text>
      <text
         fill="#660066"
         font-family="Calibri, Calibri_MSFontService, sans-serif"
         font-weight="400"
         font-size="16px"
         transform="translate(252.184,403)"
         id="text15">Wrong Name</text>
      <path
         d="M 0.0792798,-0.323768 2.80975,0.344831 C 2.85126,0.354996 2.89043,0.37305 2.92513,0.398009 L 5.63424,2.3469 c 0.02202,0.01584 0.04201,0.0343 0.05955,0.05499 l 2.6664,3.14384 c 0.01111,0.0131 0.02116,0.02699 0.03012,0.04164 l 2.60229,4.25343 2.5334,5.3081 2.42,6.2396 2.2884,7.0882 2.1368,7.8531 1.9647,8.5338 1.7717,9.1299 1.5575,9.641 1.3222,10.0672 1.8527,21.0679 0.6562,21.7554 0.655,21.737 1.85,21.035 1.3192,10.043 1.5543,9.621 1.7674,9.108 1.9592,8.51 2.1292,7.825 2.2775,7.055 2.4036,6.199 2.507,5.255 2.5857,4.223 -0.0586,-0.072 2.4415,2.246 -0.4514,0.491 -2.4415,-2.246 c -0.0227,-0.021 -0.0425,-0.045 -0.0586,-0.072 l -2.6189,-4.283 -2.5268,-5.301 -2.4165,-6.235 -2.2863,-7.085 -2.1356,-7.851 -1.9639,-8.532 -1.7712,-9.129 -1.5571,-9.64 -1.3223,-10.072 -1.8523,-21.073 -0.655,-21.737 L 28.1759,94.828 26.3263,73.7885 25.007,63.7408 23.4531,54.1205 21.6862,45.0132 19.7279,36.5048 17.5999,28.6814 15.3244,21.6295 12.9243,15.4359 10.4239,10.1887 7.82163,5.9353 7.85176,5.97694 5.18537,2.8331 5.24492,2.88809 2.53581,0.939189 2.65119,0.992367 -0.0792798,0.323768 Z M 53.6378,225.454 l 4.6882,7.617 -8.9066,-0.82 z"
         transform="matrix(1,0,0,-1,350.5,389.571)"
         id="path15" />
      <path
         d="M 0,437.167 C 0,432.656 3.65634,429 8.16667,429 H 341.833 c 4.511,0 8.167,3.656 8.167,8.167 v 32.666 c 0,4.511 -3.656,8.167 -8.167,8.167 H 8.16667 C 3.65634,478 0,474.344 0,469.833 Z"
         fill="#f4f2f8"
         fill-rule="evenodd"
         id="path16" />
      <text
         font-family="Calibri, Calibri_MSFontService, sans-serif"
         font-weight="400"
         font-size="16px"
         transform="translate(4.45722,448)"
         id="text16">Type Fault</text>
      <text
         fill="#660066"
         font-family="Calibri, Calibri_MSFontService, sans-serif"
         font-weight="400"
         font-size="16px"
         transform="translate(198.511,467)"
         id="text17">Wrong Type Resolved</text>
      <path
         d="M 0.0518869,-0.32927 1.41845,-0.113925 c 0.03085,0.004861 0.06087,0.0140356 0.08916,0.0272502 L 2.87151,0.550293 C 2.89355,0.560585 2.91441,0.573271 2.93369,0.5881 L 4.29225,1.63309 C 4.30649,1.64404 4.31981,1.65612 4.3321,1.66922 l 1.35055,1.43942 1.36523,1.85071 1.3431,2.21221 2.61782,5.45074 2.5286,6.7553 2.4168,7.9445 2.2861,9.028 2.1353,10.0042 1.9636,10.8728 1.7708,11.6332 1.5569,12.2852 1.3216,12.8287 1.0651,13.2638 0.7873,13.59 0.6555,27.721 0.655,27.709 0.7863,13.571 1.0639,13.249 1.32,12.813 1.5548,12.269 1.7682,11.616 1.96,10.854 2.1303,9.981 2.2791,9.001 2.4058,7.909 2.5102,6.708 2.5906,5.395 1.311,2.159 -0.0655,-0.078 1.3973,1.223 -0.439,0.502 -1.3973,-1.223 c -0.0258,-0.023 -0.0478,-0.049 -0.0656,-0.078 l -1.342,-2.216 -2.6139,-5.45 -2.5236,-6.748 -2.4143,-7.939 -2.2848,-9.025 -2.1344,-10.003 -1.963,-10.871 -1.7704,-11.633 -1.5566,-12.284 -1.3214,-12.829 -1.065,-13.263 -0.7872,-13.594 -0.655,-27.71 L 28.1753,120.866 27.3891,107.291 26.3253,94.0425 25.0055,81.2293 23.4509,68.9606 21.6831,57.3456 19.7236,46.4935 17.5941,36.5137 15.3163,27.5161 12.913,19.6112 10.4078,12.9108 7.82094,7.51725 6.51099,5.35455 5.19648,3.5648 3.84593,2.12538 3.88579,2.16152 2.52723,1.11653 2.58941,1.15433 1.22551,0.517365 1.31468,0.544615 -0.0518869,0.32927 Z M 54.228,289.163 l 4.098,7.95 -8.819,-1.492 z"
         transform="matrix(1,0,0,-1,350.5,453.613)"
         id="path17" />
      <text
         font-family="Calibri, Calibri_MSFontService, sans-serif"
         font-weight="400"
         font-size="16px"
         transform="translate(824.224,115)"
         id="text18">Consequences</text>
      <path
         d="m 700,140.167 c 0,-4.511 3.656,-8.167 8.167,-8.167 h 333.663 c 4.51,0 8.17,3.656 8.17,8.167 v 32.666 c 0,4.511 -3.66,8.167 -8.17,8.167 H 708.167 C 703.656,181 700,177.344 700,172.833 Z"
         fill="#f4f2f8"
         fill-rule="evenodd"
         id="path18" />
      <text
         font-family="Calibri, Calibri_MSFontService, sans-serif"
         font-weight="400"
         font-size="16px"
         transform="translate(704.37,151)"
         id="text19">Name Error</text>
      <text
         fill="#660066"
         font-family="Calibri, Calibri_MSFontService, sans-serif"
         font-weight="400"
         font-size="16px"
         transform="translate(848.69,170)"
         id="text20">Missing Overloaded Function</text>
      <path
         d="m 642.5,156.167 h 10.708 4.927 4.415 3.73 2.877 1.851 0.655 0.655 1.851 2.877 3.731 4.414 4.927 4.041 v 0.666 h -4.041 -4.927 -4.414 -3.731 -2.877 -1.851 -0.655 -0.655 -1.851 -2.877 -3.73 -4.415 -4.927 -10.708 z m 50.326,-3.667 8,4 -8,4 z"
         id="path20" />
      <path
         d="M 700,214.667 C 700,204.358 708.358,196 718.667,196 h 312.663 c 10.31,0 18.67,8.358 18.67,18.667 v 74.666 c 0,10.309 -8.36,18.667 -18.67,18.667 H 718.667 C 708.358,308 700,299.642 700,289.333 Z"
         fill="#f4f2f8"
         fill-rule="evenodd"
         id="path21" />
      <text
         font-family="Calibri, Calibri_MSFontService, sans-serif"
         font-weight="400"
         font-size="16px"
         transform="translate(707.445,218)"
         id="text21">Type Error</text>
      <text
         fill="#660066"
         font-family="Calibri, Calibri_MSFontService, sans-serif"
         font-weight="400"
         font-size="16px"
         transform="translate(957.231,237)"
         id="text22">Wrong Type</text>
      <text
         fill="#660066"
         font-family="Calibri, Calibri_MSFontService, sans-serif"
         font-weight="400"
         font-size="16px"
         transform="translate(927.065,256)"
         id="text23">Incomplete Type</text>
      <text
         fill="#660066"
         font-family="Calibri, Calibri_MSFontService, sans-serif"
         font-weight="400"
         font-size="16px"
         transform="translate(903.065,276)"
         id="text24">Wrong Generic Type</text>
      <text
         fill="#660066"
         font-family="Calibri, Calibri_MSFontService, sans-serif"
         font-weight="400"
         font-size="16px"
         transform="translate(888.765,295)"
         id="text25">Wrong Argument Type</text>
      <path
         d="m 642.533,156.168 2.731,0.274 c 0.02,0.003 0.041,0.007 0.061,0.012 l 2.709,0.799 c 0.017,0.005 0.034,0.012 0.051,0.02 l 2.666,1.289 2.643,1.766 2.549,2.188 2.435,2.572 4.442,6.145 c 0.01,0.013 0.018,0.027 0.026,0.042 l 3.731,7.231 2.894,8.111 1.863,8.672 0.662,8.956 0.655,8.91 1.844,8.584 2.865,8.029 3.713,7.189 -0.026,-0.042 4.414,6.111 2.382,2.515 2.492,2.139 2.571,1.72 -0.082,-0.04 1.689,0.557 -0.209,0.633 -1.688,-0.557 c -0.029,-0.009 -0.056,-0.023 -0.081,-0.04 l -2.634,-1.767 -2.542,-2.187 -2.438,-2.582 -4.415,-6.112 c -0.009,-0.013 -0.018,-0.027 -0.026,-0.042 l -3.748,-7.271 -2.889,-8.113 -1.857,-8.675 -0.655,-8.91 -0.649,-8.865 -1.839,-8.588 -2.859,-8.03 -3.731,-7.23 0.026,0.042 -4.386,-6.077 -2.385,-2.525 -2.485,-2.139 -2.562,-1.72 -2.666,-1.289 0.05,0.02 -2.709,-0.799 0.061,0.012 -2.73,-0.274 z m 51.675,89.853 6.618,6.017 -8.784,1.685 z"
         id="path25" />
      <path
         d="m 700,331.167 c 0,-4.511 3.656,-8.167 8.167,-8.167 h 333.663 c 4.51,0 8.17,3.656 8.17,8.167 v 32.666 c 0,4.511 -3.66,8.167 -8.17,8.167 H 708.167 C 703.656,372 700,368.344 700,363.833 Z"
         fill="#f4f2f8"
         fill-rule="evenodd"
         id="path26" />
      <text
         font-family="Calibri, Calibri_MSFontService, sans-serif"
         font-weight="400"
         font-size="16px"
         transform="translate(704.37,342)"
         id="text26">Size Error</text>
      <text
         fill="#660066"
         font-family="Calibri, Calibri_MSFontService, sans-serif"
         font-weight="400"
         font-size="16px"
         transform="translate(937.03,361)"
         id="text27">Insufficient Size</text>
      <path
         d="m 642.566,156.173 2.73,0.548 c 0.037,0.008 0.072,0.021 0.104,0.04 l 2.709,1.598 c 0.023,0.013 0.043,0.029 0.062,0.047 l 2.667,2.578 c 0.013,0.012 0.024,0.026 0.035,0.04 l 2.603,3.487 2.537,4.358 2.424,5.122 2.29,5.817 2.139,6.443 1.966,7 1.773,7.489 1.558,7.908 1.323,8.257 1.854,17.277 0.656,17.844 0.655,17.82 1.85,17.237 1.318,8.228 1.554,7.884 1.766,7.463 1.959,6.972 2.127,6.412 2.276,5.779 2.401,5.076 2.504,4.301 2.581,3.456 -0.07,-0.07 2.208,1.615 -0.394,0.538 -2.208,-1.615 c -0.026,-0.02 -0.05,-0.043 -0.07,-0.07 l -2.623,-3.519 -2.53,-4.351 -2.419,-5.117 -2.288,-5.814 -2.137,-6.44 -1.965,-6.999 -1.772,-7.488 -1.558,-7.907 -1.323,-8.263 -1.853,-17.284 -0.655,-17.82 -0.653,-17.796 -1.849,-17.244 -1.319,-8.233 -1.553,-7.883 -1.766,-7.462 -1.957,-6.971 -2.126,-6.409 -2.273,-5.776 -2.397,-5.071 -2.496,-4.295 -2.602,-3.487 0.035,0.04 -2.666,-2.577 0.062,0.047 -2.709,-1.598 0.104,0.04 -2.731,-0.548 z m 53.047,184.135 5.213,7.268 -8.942,-0.19 z"
         id="path27" />
      <path
         d="M 700,402.167 C 700,393.791 706.791,387 715.167,387 h 319.663 c 8.38,0 15.17,6.791 15.17,15.167 v 60.666 c 0,8.376 -6.79,15.167 -15.17,15.167 H 715.167 C 706.791,478 700,471.209 700,462.833 Z"
         fill="#dfdaea"
         fill-rule="evenodd"
         id="path28" />
      <text
         font-family="Calibri, Calibri_MSFontService, sans-serif"
         font-weight="400"
         font-size="16px"
         transform="translate(706.42,408)"
         id="text28">Entity Access Final Error</text>
      <text
         fill="#660066"
         font-family="Calibri, Calibri_MSFontService, sans-serif"
         font-weight="400"
         font-size="16px"
         transform="translate(898.48,427)"
         id="text29">Wrong Access Object</text>
      <text
         fill="#660066"
         font-family="Calibri, Calibri_MSFontService, sans-serif"
         font-weight="400"
         font-size="16px"
         transform="translate(910.873,446)"
         id="text30">Wrong Access Type</text>
      <text
         fill="#660066"
         font-family="Calibri, Calibri_MSFontService, sans-serif"
         font-weight="400"
         font-size="16px"
         transform="translate(884.813,466)"
         id="text31">Wrong Access Function</text>
      <path
         d="m 642.548,156.17 1.367,0.2 c 0.029,0.005 0.057,0.013 0.084,0.024 l 1.364,0.592 c 0.022,0.01 0.042,0.021 0.061,0.035 l 1.359,0.971 c 0.014,0.01 0.028,0.022 0.041,0.034 l 1.35,1.338 c 0.014,0.013 0.026,0.028 0.037,0.043 l 2.666,3.724 c 0.009,0.013 0.018,0.027 0.025,0.041 l 2.603,5.039 2.529,6.281 2.418,7.386 2.287,8.392 2.136,9.298 1.963,10.106 1.771,10.813 1.557,11.418 1.322,11.923 1.065,12.327 0.788,12.631 0.655,25.763 0.655,25.751 0.787,12.611 1.063,12.311 1.32,11.907 1.555,11.401 1.768,10.794 1.96,10.085 2.13,9.275 2.279,8.363 2.405,7.348 2.509,6.232 2.589,5.01 -0.048,-0.069 2.665,2.973 -0.496,0.445 -2.665,-2.973 c -0.019,-0.021 -0.035,-0.045 -0.048,-0.07 l -2.615,-5.067 -2.525,-6.274 -2.415,-7.38 -2.285,-8.389 -2.135,-9.297 -1.963,-10.104 -1.771,-10.812 -1.556,-11.418 -1.322,-11.922 -1.065,-12.328 -0.787,-12.635 -0.655,-25.751 -0.655,-25.738 -0.786,-12.615 -1.063,-12.312 -1.32,-11.906 -1.554,-11.401 -1.768,-10.793 -1.959,-10.083 -2.129,-9.273 -2.277,-8.36 -2.403,-7.344 -2.504,-6.224 -2.602,-5.039 0.025,0.041 -2.666,-3.724 0.036,0.043 -1.35,-1.338 0.04,0.034 -1.358,-0.971 0.061,0.035 -1.364,-0.592 0.084,0.024 -1.366,-0.2 z m 54.06,268.558 4.218,7.888 -8.84,-1.359 z"
         id="path31" />
      <text
         font-family="Calibri, Calibri_MSFontService, sans-serif"
         font-weight="400"
         font-size="16px"
         transform="translate(485.254,115)"
         id="text32">Operations</text>
      <rect
         x="408.5"
         y="132.5"
         width="234"
         height="49"
         stroke="#000000"
         stroke-width="0.666667"
         stroke-linejoin="round"
         stroke-miterlimit="10"
         fill="none"
         id="rect32" />
      <text
         fill="#660066"
         font-family="Calibri, Calibri_MSFontService, sans-serif"
         font-weight="400"
         font-size="16px"
         transform="translate(496.541,152)"
         id="text33">Declare</text>
      <text
         fill="#660066"
         font-family="Calibri, Calibri_MSFontService, sans-serif"
         font-weight="400"
         font-size="16px"
         transform="translate(499.921,171)"
         id="text34">Define</text>
      <text
         font-family="Calibri, Calibri_MSFontService, sans-serif"
         font-weight="400"
         font-size="16px"
         transform="translate(489.764,216)"
         id="text35">Operands</text>
      <rect
         x="408.5"
         y="233.5"
         width="234"
         height="48"
         stroke="#000000"
         stroke-width="0.666667"
         stroke-linejoin="round"
         stroke-miterlimit="10"
         fill="none"
         id="rect35" />
      <text
         fill="#660066"
         font-family="Calibri, Calibri_MSFontService, sans-serif"
         font-weight="400"
         font-size="16px"
         transform="translate(501.767,253)"
         id="text36">Name</text>
      <text
         fill="#660066"
         font-family="Calibri, Calibri_MSFontService, sans-serif"
         font-weight="400"
         font-size="16px"
         transform="translate(505.881,272)"
         id="text37">Type</text>
      <text
         fill="#7f7f7f"
         font-family="Calibri, Calibri_MSFontService, sans-serif"
         font-weight="400"
         font-size="13px"
         transform="translate(960.6,497)"
         id="text38">BF, I. Bojanova</text>
      <text
         font-family="Calibri, Calibri_MSFontService, sans-serif"
         font-weight="400"
         font-size="16px"
         transform="translate(488.838,513)"
         id="text39">Attributes</text>
      <text
         font-family="Calibri, Calibri_MSFontService, sans-serif"
         font-weight="400"
         font-size="16px"
         transform="translate(2.09974,550)"
         id="text40">Mechanism</text>
      <text
         fill="#660066"
         font-family="Calibri, Calibri_MSFontService, sans-serif"
         font-weight="400"
         font-size="16px"
         transform="translate(2.09974,569)"
         id="text41">Simple</text>
      <text
         fill="#660066"
         font-family="Calibri, Calibri_MSFontService, sans-serif"
         font-weight="400"
         font-size="16px"
         transform="translate(2.09974,588)"
         id="text42">Generics</text>
      <text
         fill="#660066"
         font-family="Calibri, Calibri_MSFontService, sans-serif"
         font-weight="400"
         font-size="16px"
         transform="translate(2.09974,608)"
         id="text43">Overriding</text>
      <text
         fill="#660066"
         font-family="Calibri, Calibri_MSFontService, sans-serif"
         font-weight="400"
         font-size="16px"
         transform="translate(2.09974,627)"
         id="text44">Overloading</text>
      <text
         font-family="Calibri, Calibri_MSFontService, sans-serif"
         font-weight="400"
         font-size="16px"
         transform="translate(216.273,550)"
         id="text45">Source Code</text>
      <text
         fill="#660066"
         font-family="Calibri, Calibri_MSFontService, sans-serif"
         font-weight="400"
         font-size="16px"
         transform="translate(216.273,569)"
         id="text46">Codebase</text>
      <text
         fill="#660066"
         font-family="Calibri, Calibri_MSFontService, sans-serif"
         font-weight="400"
         font-size="16px"
         transform="translate(216.273,588)"
         id="text47">Third</text>
      <text
         fill="#660066"
         font-family="Calibri, Calibri_MSFontService, sans-serif"
         font-weight="400"
         font-size="16px"
         transform="translate(249.72,588)"
         id="text48">-</text>
      <text
         fill="#660066"
         font-family="Calibri, Calibri_MSFontService, sans-serif"
         font-weight="400"
         font-size="16px"
         transform="translate(254.553,588)"
         id="text49">Party</text>
      <text
         fill="#660066"
         font-family="Calibri, Calibri_MSFontService, sans-serif"
         font-weight="400"
         font-size="16px"
         transform="translate(216.273,608)"
         id="text50">Standard Library</text>
      <text
         fill="#660066"
         font-family="Calibri, Calibri_MSFontService, sans-serif"
         font-weight="400"
         font-size="16px"
         transform="translate(216.273,627)"
         id="text51">Compiler/Interpreter</text>
      <text
         font-family="Calibri, Calibri_MSFontService, sans-serif"
         font-weight="400"
         font-size="16px"
         transform="translate(430.446,550)"
         id="text52">Execution Space</text>
      <text
         fill="#660066"
         font-family="Calibri, Calibri_MSFontService, sans-serif"
         font-weight="400"
         font-size="16px"
         transform="translate(430.446,569)"
         id="text53">Local</text>
      <text
         fill="#660066"
         font-family="Calibri, Calibri_MSFontService, sans-serif"
         font-weight="400"
         font-size="16px"
         transform="translate(430.446,588)"
         id="text54">Admin</text>
      <text
         fill="#660066"
         font-family="Calibri, Calibri_MSFontService, sans-serif"
         font-weight="400"
         font-size="16px"
         transform="translate(430.446,608)"
         id="text55">Bare</text>
      <text
         fill="#660066"
         font-family="Calibri, Calibri_MSFontService, sans-serif"
         font-weight="400"
         font-size="16px"
         transform="translate(460.066,608)"
         id="text56">-</text>
      <text
         fill="#660066"
         font-family="Calibri, Calibri_MSFontService, sans-serif"
         font-weight="400"
         font-size="16px"
         transform="translate(464.9,608)"
         id="text57">Metal</text>
      <text
         font-family="Calibri, Calibri_MSFontService, sans-serif"
         font-weight="400"
         font-size="16px"
         transform="translate(644.619,550)"
         id="text58">Name Kind</text>
      <text
         fill="#660066"
         font-family="Calibri, Calibri_MSFontService, sans-serif"
         font-weight="400"
         font-size="16px"
         transform="translate(644.619,569)"
         id="text59">Object</text>
      <text
         fill="#660066"
         font-family="Calibri, Calibri_MSFontService, sans-serif"
         font-weight="400"
         font-size="16px"
         transform="translate(644.619,588)"
         id="text60">Function</text>
      <text
         fill="#660066"
         font-family="Calibri, Calibri_MSFontService, sans-serif"
         font-weight="400"
         font-size="16px"
         transform="translate(644.619,608)"
         id="text61">Data Type</text>
      <text
         fill="#660066"
         font-family="Calibri, Calibri_MSFontService, sans-serif"
         font-weight="400"
         font-size="16px"
         transform="translate(644.619,627)"
         id="text62">Namespace</text>
      <text
         font-family="Calibri, Calibri_MSFontService, sans-serif"
         font-weight="400"
         font-size="16px"
         transform="translate(858.793,550)"
         id="text63">Type Kind</text>
      <text
         fill="#660066"
         font-family="Calibri, Calibri_MSFontService, sans-serif"
         font-weight="400"
         font-size="16px"
         transform="translate(858.793,569)"
         id="text64">Primitive</text>
      <text
         fill="#660066"
         font-family="Calibri, Calibri_MSFontService, sans-serif"
         font-weight="400"
         font-size="16px"
         transform="translate(858.793,588)"
         id="text65">Structure</text>
      <path
         d="M 0,680.5 C 0,678.015 2.01475,676 4.50007,676 H 37.4999 C 39.9852,676 42,678.015 42,680.5 v 18 c 0,2.485 -2.0148,4.5 -4.5001,4.5 H 4.50007 C 2.01475,703 0,700.985 0,698.5 Z"
         fill="#e8effc"
         fill-rule="evenodd"
         id="path65" />
      <text
         font-family="Calibri, Calibri_MSFontService, sans-serif"
         font-weight="400"
         font-size="16px"
         transform="translate(44.0945,696)"
         id="text66">Bug</text>
      <path
         d="m 262,680.5 c 0,-2.485 2.015,-4.5 4.5,-4.5 h 33 c 2.485,0 4.5,2.015 4.5,4.5 v 18 c 0,2.485 -2.015,4.5 -4.5,4.5 h -33 c -2.485,0 -4.5,-2.015 -4.5,-4.5 z"
         fill="#f4f2f8"
         fill-rule="evenodd"
         id="path66" />
      <text
         font-family="Calibri, Calibri_MSFontService, sans-serif"
         font-weight="400"
         font-size="16px"
         transform="translate(306.562,696)"
         id="text67">Fault/Error</text>
      <path
         d="m 525,680.5 c 0,-2.485 2.015,-4.5 4.5,-4.5 h 33 c 2.485,0 4.5,2.015 4.5,4.5 v 18 c 0,2.485 -2.015,4.5 -4.5,4.5 h -33 c -2.485,0 -4.5,-2.015 -4.5,-4.5 z"
         fill="#dfdaea"
         fill-rule="evenodd"
         id="path67" />
      <text
         font-family="Calibri, Calibri_MSFontService, sans-serif"
         font-weight="400"
         font-size="16px"
         transform="translate(569.029,696)"
         id="text68">Final Error</text>
      <rect
         x="787.5"
         y="676.5"
         width="42"
         height="27"
         stroke="#000000"
         stroke-width="0.666667"
         stroke-linejoin="round"
         stroke-miterlimit="10"
         fill="none"
         id="rect68" />
      <text
         font-family="Calibri, Calibri_MSFontService, sans-serif"
         font-weight="400"
         font-size="16px"
         transform="translate(831.496,696)"
         id="text69">Operation/Operand</text>
    </g>
  </g>
</svg>
