<?xml version="1.0" encoding="UTF-8" standalone="no"?>
<!-- Created with Inkscape (http://www.inkscape.org/) -->

<svg
   width="250.03125mm"
   height="158.01614mm"
   viewBox="0 0 250.03124 158.01614"
   version="1.1"
   id="svg5"
   inkscape:export-filename="DVR.png"
   inkscape:export-xdpi="96"
   inkscape:export-ydpi="96"
   xml:space="preserve"
   inkscape:version="1.2.2 (b0a8486541, 2022-12-01)"
   sodipodi:docname="DCL.svg"
   xmlns:inkscape="http://www.inkscape.org/namespaces/inkscape"
   xmlns:sodipodi="http://sodipodi.sourceforge.net/DTD/sodipodi-0.dtd"
   xmlns="http://www.w3.org/2000/svg"
   xmlns:svg="http://www.w3.org/2000/svg"><sodipodi:namedview
     id="namedview7"
     pagecolor="#ffffff"
     bordercolor="#000000"
     borderopacity="0.25"
     inkscape:showpageshadow="2"
     inkscape:pageopacity="0.0"
     inkscape:pagecheckerboard="0"
     inkscape:deskcolor="#d1d1d1"
     inkscape:document-units="mm"
     showgrid="false"
     inkscape:zoom="0.914906"
     inkscape:cx="272.15911"
     inkscape:cy="36.615783"
     inkscape:window-width="1350"
     inkscape:window-height="1230"
     inkscape:window-x="179"
     inkscape:window-y="914"
     inkscape:window-maximized="0"
     inkscape:current-layer="layer1" /><defs
     id="defs2"><clipPath
       id="clip0"><rect
         x="-25"
         y="0"
         width="785"
         height="1091"
         id="rect9" /></clipPath><clipPath
       id="clip0-8"><rect
         x="-25"
         y="0"
         width="785"
         height="524"
         id="rect520" /></clipPath><clipPath
       id="clip0-3"><rect
         x="-25"
         y="0"
         width="785"
         height="1091"
         id="rect699" /></clipPath><clipPath
       id="clip0-0"><rect
         x="-25"
         y="0"
         width="785"
         height="1091"
         id="rect1109" /></clipPath><clipPath
       id="clip0-4"><rect
         x="-25"
         y="0"
         width="934"
         height="905"
         id="rect1519" /></clipPath><clipPath
       id="clip0-42"><rect
         x="-7"
         y="0"
         width="952"
         height="590"
         id="rect1929" /></clipPath><clipPath
       id="clip0-1"><rect
         x="-25"
         y="0"
         width="785"
         height="1091"
         id="rect2197" /></clipPath><clipPath
       id="clip0-6"><rect
         x="-25"
         y="0"
         width="785"
         height="1091"
         id="rect2806" /></clipPath><clipPath
       id="clip0-66"><rect
         x="11"
         y="-21"
         width="934"
         height="904"
         id="rect3369" /></clipPath><clipPath
       id="clip0-41"><rect
         x="-7"
         y="0"
         width="743"
         height="335"
         id="rect3934" /></clipPath><clipPath
       id="clip0-7"><rect
         x="-7"
         y="0"
         width="743"
         height="335"
         id="rect4109" /></clipPath><clipPath
       id="clip0-9"><rect
         x="-25"
         y="0"
         width="785"
         height="524"
         id="rect4320" /></clipPath><clipPath
       id="clip0-96"><rect
         x="-25"
         y="0"
         width="785"
         height="713"
         id="rect4583" /></clipPath><clipPath
       id="clip0-08"><rect
         x="144"
         y="424"
         width="837"
         height="501"
         id="rect4932" /></clipPath><clipPath
       id="clip0-87"><rect
         x="144"
         y="424"
         width="837"
         height="501"
         id="rect5261" /></clipPath><clipPath
       id="clip0-68"><rect
         x="201"
         y="68"
         width="837"
         height="501"
         id="rect5590" /></clipPath><clipPath
       id="clip0-69"><rect
         x="212"
         y="141"
         width="635"
         height="281"
         id="rect6057" /></clipPath><clipPath
       id="clip0-44"><rect
         x="75"
         y="7"
         width="780"
         height="757"
         id="rect6214" /></clipPath><clipPath
       id="clip0-38"><rect
         x="75"
         y="8"
         width="780"
         height="752"
         id="rect6713" /></clipPath><clipPath
       id="clip0-080"><rect
         x="62"
         y="92"
         width="671"
         height="543"
         id="rect7166" /></clipPath><clipPath
       id="clip0-48"><rect
         x="678"
         y="67"
         width="591"
         height="294"
         id="rect7433" /></clipPath><clipPath
       id="clip0-00"><rect
         x="-7"
         y="0"
         width="952"
         height="574"
         id="rect7818" /></clipPath><clipPath
       id="clip0-2"><rect
         x="-7"
         y="0"
         width="952"
         height="543"
         id="rect8173" /></clipPath><clipPath
       id="clip0-09"><rect
         x="-7"
         y="0"
         width="952"
         height="612"
         id="rect8510" /></clipPath></defs><g
     inkscape:label="Layer 1"
     inkscape:groupmode="layer"
     id="layer1"
     transform="translate(-31.897052,-230.50595)"><g
       clip-path="url(#clip0-09)"
       transform="matrix(0.26458333,0,0,0.26458333,31.897052,228.2287)"
       id="g8675"><text
         fill="#7d3368"
         font-family="Calibri, Calibri_MSFontService, sans-serif"
         font-weight="400"
         font-size="15px"
         transform="translate(384.933,19)"
         id="text8519">Data Type (_DAT) BF Cluster<tspan
   fill="#000000"
   font-size="15px"
   x="6.4133301"
   y="35"
   id="tspan8515">Declaration (DCL) BF Class</tspan><tspan
   fill="#000000"
   font-size="15px"
   x="-251.786"
   y="63"
   id="tspan8517">Causes</tspan></text><path
         d="M 0,111.667 C 0,104.119 6.11887,98 13.6669,98 H 301.333 c 7.548,0 13.667,6.119 13.667,13.667 v 54.666 C 315,173.881 308.881,180 301.333,180 H 13.6669 C 6.11887,180 0,173.881 0,166.333 Z"
         fill="#e8effc"
         fill-rule="evenodd"
         id="path8521" /><text
         fill="#7d3368"
         font-family="Calibri, Calibri_MSFontService, sans-serif"
         font-weight="400"
         font-size="15px"
         transform="translate(6.09722,117)"
         id="text8529">Code Defect Bug<tspan
   fill="#000000"
   font-size="15px"
   x="216.33299"
   y="17"
   id="tspan8523">Missing Code</tspan><tspan
   fill="#000000"
   font-size="15px"
   x="221"
   y="35"
   id="tspan8525">Wrong Code</tspan><tspan
   fill="#000000"
   font-size="15px"
   x="200.16701"
   y="53"
   id="tspan8527">Erroneous Code</tspan></text><path
         d="m 0.012811,-0.333087 4.874999,0.1875 4.78067,0.627602 4.46292,0.941855 4.0305,1.25797 3.3458,1.44988 2.6628,1.58185 c 0.0255,0.01518 0.0488,0.03369 0.0694,0.05505 l 1.6875,1.75 c 0.0354,0.03665 0.0619,0.08091 0.0774,0.12938 l 0.5625,1.75 0.5625,1.75 -0.0816,-0.1337 1.6875,1.6875 -0.0602,-0.0477 2.625,1.625 -0.0428,-0.0224 3.3125,1.4375 3.9622,1.1738 4.4115,0.9309 2.9335,0.3029 -0.0689,0.6631 -3.0024,-0.3138 -4.4635,-0.9441 -4.0378,-1.2012 -3.3125,-1.4375 c -0.0148,-0.0064 -0.0291,-0.0139 -0.0428,-0.0224 l -2.625,-1.625 c -0.0218,-0.0135 -0.042,-0.0295 -0.0602,-0.0477 L 26.5768,11.4857 C 26.5394,11.4483 26.5114,11.4024 26.4952,11.352 l -0.5625,-1.75 -0.5625,-1.75 0.0774,0.12938 -1.6875,-1.75 0.0694,0.05505 L 21.2423,4.74328 17.9631,3.31816 13.9936,2.07613 9.58151,1.14298 4.86219,0.520587 -0.012811,0.333087 Z M 44.7914,14.3502 l 7.702,4.5474 -8.2591,3.4332 z"
         transform="matrix(1,0,0,-1,315.5,139.398)"
         id="path8531" /><path
         d="M 0,211.834 C 0,202.537 7.53673,195 16.8338,195 H 298.166 c 9.297,0 16.834,7.537 16.834,16.834 v 67.332 C 315,288.463 307.463,296 298.166,296 H 16.8338 C 7.53673,296 0,288.463 0,279.166 Z"
         fill="#e8effc"
         fill-rule="evenodd"
         id="path8533" /><text
         fill="#7d3368"
         font-family="Calibri, Calibri_MSFontService, sans-serif"
         font-weight="400"
         font-size="15px"
         transform="translate(7.01974,215)"
         id="text8543">Specification Defect Bug<tspan
   fill="#000000"
   font-size="15px"
   x="193.5"
   y="17"
   id="tspan8535">Missing Modifier</tspan><tspan
   fill="#000000"
   font-size="15px"
   x="198.16701"
   y="35"
   id="tspan8537">Wrong Modifier</tspan><tspan
   fill="#000000"
   font-size="15px"
   x="183.66701"
   y="53"
   id="tspan8539">Anonymous Scope</tspan><tspan
   fill="#000000"
   font-size="15px"
   x="214.16701"
   y="70"
   id="tspan8541">Wrong Scope</tspan></text><path
         d="M 0.0506857,-0.329457 2.48819,0.0455427 C 2.5166,0.0499145 2.54434,0.0579464 2.5707,0.0694347 L 5.00819,1.13193 c 0.01984,0.00865 0.03876,0.01919 0.05655,0.03151 l 2.4375,1.6875 C 7.51869,2.86233 7.53405,2.87514 7.5482,2.8893 l 2.3125,2.3125 2.2746,2.83997 2.2069,3.40193 2.076,3.8352 1.9476,4.2703 3.3242,9.5917 2.6336,10.6542 1.6936,11.406 0.5658,11.783 0.5625,11.75 1.6842,11.342 2.6189,10.594 3.3039,9.5329 1.9258,4.221 2.0524,3.792 2.174,3.353 2.2306,2.785 -0.0521,-0.052 3.4921,2.793 -0.4164,0.52 -3.4921,-2.792 c -0.0192,-0.016 -0.0367,-0.033 -0.0521,-0.052 l -2.2694,-2.84 -2.201,-3.397 -2.0726,-3.833 -1.9492,-4.279 L 30.8014,96.8299 28.1703,86.1739 26.4795,74.7659 25.917,63.0159 25.3578,51.2989 23.6764,39.9549 21.06,29.3591 17.7592,19.8258 15.8318,15.5961 13.7828,11.8063 11.6147,8.45823 9.3893,5.6732 7.0768,3.3607 7.12276,3.39906 4.68526,1.71156 4.7418,1.74307 2.3043,0.680565 2.38681,0.704457 -0.0506857,0.329457 Z M 46.7193,119.154 l 5.7741,6.83 -8.9291,0.521 z"
         transform="matrix(1,0,0,-1,315.5,246.484)"
         id="path8545" /><path
         d="M 0,319.333 C 0,315.283 3.2833,312 7.33346,312 H 307.667 c 4.05,0 7.333,3.283 7.333,7.333 v 29.334 c 0,4.05 -3.283,7.333 -7.333,7.333 H 7.33346 C 3.2833,356 0,352.717 0,348.667 Z"
         fill="#f4f2f8"
         fill-rule="evenodd"
         id="path8547" /><text
         fill="#7d3368"
         font-family="Calibri, Calibri_MSFontService, sans-serif"
         font-weight="400"
         font-size="15px"
         transform="translate(4.25228,329)"
         id="text8551">Type Fault<tspan
   fill="#000000"
   font-size="15px"
   x="169.33299"
   y="17"
   id="tspan8549">Wrong Type Resolved</tspan></text><path
         d="m 0.0827918,-0.322888 2.4374982,0.625 C 2.56041,0.312399 2.59826,0.330071 2.6319,0.354225 L 5.0694,2.10423 c 0.0231,0.01658 0.04397,0.03603 0.06212,0.05791 l 2.4375,2.9375 C 7.58,5.11288 7.58992,5.12691 7.59874,5.14168 l 2.3125,3.875 2.26646,4.90612 2.1959,5.7075 2.0691,6.5189 1.9418,7.2647 1.7533,7.8257 1.5649,8.3868 1.4388,8.8828 1.1891,9.2609 1.689,19.3259 0.5636,20.02 0.5625,20 1.6864,19.292 1.186,9.237 1.4359,8.864 1.5612,8.367 1.7476,7.801 1.934,7.174 2.0584,6.486 2.1809,5.668 2.2416,4.855 2.296,3.844 -0.0664,-0.08 1.783,1.565 -0.4396,0.501 -1.783,-1.564 c -0.0262,-0.023 -0.0486,-0.05 -0.0664,-0.08 l -2.329,-3.906 -2.2584,-4.895 -2.1941,-5.707 -2.0666,-6.514 -1.941,-7.201 -1.7524,-7.824 -1.5638,-8.383 -1.4391,-8.886 -1.189,-9.263 -1.6886,-19.333 -0.5625,-20 L 25.3554,87.154 23.6694,67.8549 22.4835,58.6158 21.0473,49.7486 19.4872,41.3854 17.7405,33.5861 15.8073,26.3508 13.7514,19.8697 11.5723,14.2022 9.33876,9.35832 7.02626,5.48332 7.05598,5.52536 4.61848,2.58786 4.6806,2.64577 2.2431,0.895775 2.35471,0.947888 -0.0827918,0.322888 Z M 48.1063,206.379 l 4.3871,7.794 -8.8678,-1.167 z"
         transform="matrix(1,0,0,-1,315.5,334.673)"
         id="path8553" /><text
         font-family="Calibri, Calibri_MSFontService, sans-serif"
         font-weight="400"
         font-size="15px"
         transform="translate(740.818,82)"
         id="text8555">Consequences</text><path
         d="m 630,108.5 c 0,-5.799 4.701,-10.5 10.5,-10.5 h 294 c 5.799,0 10.5,4.701 10.5,10.5 v 42 c 0,5.799 -4.701,10.5 -10.5,10.5 h -294 c -5.799,0 -10.5,-4.701 -10.5,-10.5 z"
         fill="#f4f2f8"
         fill-rule="evenodd"
         id="path8557" /><text
         fill="#7d3368"
         font-family="Calibri, Calibri_MSFontService, sans-serif"
         font-weight="400"
         font-size="15px"
         transform="translate(635.096,116)"
         id="text8563">Name Error<tspan
   fill="#000000"
   font-size="15px"
   x="126"
   y="17"
   id="tspan8559">Missing Overridden Function</tspan><tspan
   fill="#000000"
   font-size="15px"
   x="124.167"
   y="35"
   id="tspan8561">Missing Overloaded Function</tspan></text><path
         d="m 577.515,120.167 9.625,0.438 4.455,0.438 4.019,0.628 3.329,0.69 2.656,0.821 c 0.019,0.005 0.037,0.013 0.055,0.022 l 1.687,0.875 c 0.052,0.027 0.095,0.067 0.127,0.116 l 0.562,0.875 0.563,0.875 -0.127,-0.116 1.688,0.875 -0.055,-0.022 2.625,0.812 3.281,0.68 3.984,0.622 4.419,0.435 2.938,0.117 -0.027,0.666 -2.977,-0.12 -4.456,-0.44 -4.016,-0.628 -3.344,-0.695 -2.625,-0.813 c -0.018,-0.005 -0.037,-0.013 -0.054,-0.022 l -1.688,-0.875 c -0.052,-0.027 -0.095,-0.067 -0.127,-0.116 l -0.562,-0.875 -0.563,-0.875 0.127,0.116 -1.687,-0.875 0.054,0.022 -2.594,-0.804 -3.296,-0.685 -3.981,-0.622 -4.42,-0.436 -9.625,-0.438 z m 44.645,5.464 7.833,4.318 -8.154,3.676 z"
         id="path8565" /><path
         d="m 630,196 c 0,-11.046 8.954,-20 20,-20 h 275 c 11.046,0 20,8.954 20,20 v 80 c 0,11.046 -8.954,20 -20,20 H 650 c -11.046,0 -20,-8.954 -20,-20 z"
         fill="#f4f2f8"
         fill-rule="evenodd"
         id="path8567" /><text
         fill="#7d3368"
         font-family="Calibri, Calibri_MSFontService, sans-serif"
         font-weight="400"
         font-size="15px"
         transform="translate(637.864,197)"
         id="text8579">Type Error<tspan
   fill="#000000"
   font-size="15px"
   x="219"
   y="17"
   id="tspan8569">Wrong Type</tspan><tspan
   fill="#000000"
   font-size="15px"
   x="192"
   y="35"
   id="tspan8571">Incomplete Type</tspan><tspan
   fill="#000000"
   font-size="15px"
   x="169.33299"
   y="53"
   id="tspan8573">Wrong Generic Type</tspan><tspan
   fill="#000000"
   font-size="15px"
   x="183.66701"
   y="70"
   id="tspan8575">Confused Subtype</tspan><tspan
   fill="#000000"
   font-size="15px"
   x="156"
   y="88"
   id="tspan8577">Wrong Argument Type</tspan></text><path
         d="m 577.542,120.169 2.438,0.313 c 0.029,0.004 0.057,0.011 0.084,0.022 l 2.438,1 c 0.018,0.008 0.036,0.017 0.053,0.028 l 2.437,1.562 c 0.017,0.011 0.032,0.023 0.046,0.036 l 2.313,2.125 2.28,2.719 2.203,3.082 2.08,3.59 1.948,3.957 3.325,8.842 2.635,9.907 1.695,10.533 0.566,10.91 0.562,10.875 1.684,10.465 2.618,9.842 3.303,8.781 1.923,3.843 2.053,3.545 2.172,3.1 2.23,2.6 -0.056,-0.053 3.426,2.504 -0.394,0.538 -3.426,-2.503 c -0.02,-0.016 -0.039,-0.033 -0.056,-0.053 l -2.27,-2.65 -2.203,-3.149 -2.072,-3.581 -1.951,-3.907 -3.323,-8.844 -2.632,-9.908 -1.691,-10.535 -0.563,-10.875 -0.559,-10.84 -1.68,-10.467 -2.615,-9.843 -3.3,-8.783 -1.926,-3.917 -2.046,-3.536 -2.172,-3.042 -2.219,-2.657 -2.313,-2.125 0.046,0.036 -2.438,-1.563 0.054,0.028 -2.438,-1 0.084,0.022 -2.437,-0.312 z m 46.502,110.188 5.949,6.678 -8.912,0.753 z"
         id="path8581" /><path
         d="M 630,325.667 C 630,318.119 636.119,312 643.667,312 h 287.666 c 7.548,0 13.667,6.119 13.667,13.667 v 54.666 C 945,387.881 938.881,394 931.333,394 H 643.667 C 636.119,394 630,387.881 630,380.333 Z"
         fill="#dfdaea"
         fill-rule="evenodd"
         id="path8583" /><text
         fill="#7d3368"
         font-family="Calibri, Calibri_MSFontService, sans-serif"
         font-weight="400"
         font-size="15px"
         transform="translate(636.018,331)"
         id="text8591">Access Final Error<tspan
   fill="#000000"
   font-size="15px"
   x="169.5"
   y="17"
   id="tspan8585">Wrong Access Object</tspan><tspan
   fill="#000000"
   font-size="15px"
   x="179.83299"
   y="35"
   id="tspan8587">Wrong Access Type</tspan><tspan
   fill="#000000"
   font-size="15px"
   x="157"
   y="53"
   id="tspan8589">Wrong Access Function</tspan></text><path
         d="m 577.591,120.179 2.437,0.688 c 0.043,0.012 0.082,0.032 0.117,0.06 l 2.437,1.937 c 0.021,0.017 0.04,0.035 0.056,0.056 l 2.437,3.125 c 0.012,0.014 0.022,0.03 0.03,0.046 l 2.313,4.25 2.264,5.342 2.195,6.206 2.068,7.143 1.941,7.825 1.753,8.513 1.565,9.136 1.438,9.632 1.189,10.073 1.689,21.075 0.563,21.768 0.563,21.75 1.686,21.044 1.187,10.05 1.436,9.615 1.561,9.118 1.748,8.489 1.935,7.8 2.059,7.112 2.181,6.169 2.243,5.294 2.298,4.221 -0.062,-0.082 1.889,1.81 -0.461,0.482 -1.889,-1.81 c -0.025,-0.024 -0.046,-0.051 -0.062,-0.082 l -2.327,-4.279 -2.257,-5.331 -2.194,-6.206 -2.065,-7.138 -1.941,-7.825 -1.752,-8.511 -1.564,-9.132 -1.438,-9.635 -1.189,-10.075 -1.689,-21.081 -0.562,-21.75 -0.562,-21.732 -1.686,-21.05 -1.186,-10.052 -1.436,-9.618 -1.561,-9.114 -1.747,-8.487 -1.934,-7.8 -2.057,-7.107 -2.18,-6.168 -2.236,-5.284 -2.312,-4.25 0.03,0.046 -2.438,-3.125 0.056,0.056 -2.438,-1.938 0.117,0.06 -2.437,-0.687 z m 48.234,225.479 4.168,7.913 -8.832,-1.413 z"
         id="path8593" /><text
         font-family="Calibri, Calibri_MSFontService, sans-serif"
         font-weight="400"
         font-size="15px"
         transform="translate(435.691,82)"
         id="text8595">Operations</text><rect
         x="367.5"
         y="98.500099"
         width="210"
         height="44"
         stroke="#000000"
         stroke-width="0.666667"
         stroke-linejoin="round"
         stroke-miterlimit="10"
         fill="none"
         id="rect8597" /><text
         font-family="Calibri, Calibri_MSFontService, sans-serif"
         font-weight="400"
         font-size="15px"
         transform="translate(446.024,116)"
         id="text8603">Declare<tspan
   font-size="15px"
   x="3.0866699"
   y="17"
   id="tspan8599">Define</tspan><tspan
   font-size="15px"
   x="-6.25003"
   y="60"
   id="tspan8601">Operands</tspan></text><rect
         x="367.5"
         y="192.5"
         width="210"
         height="44"
         stroke="#000000"
         stroke-width="0.666667"
         stroke-linejoin="round"
         stroke-miterlimit="10"
         fill="none"
         id="rect8605" /><text
         font-family="Calibri, Calibri_MSFontService, sans-serif"
         font-weight="400"
         font-size="15px"
         transform="translate(450.941,211)"
         id="text8657">Name<tspan
   font-size="15px"
   x="3.3333099"
   y="17"
   id="tspan8607">Type</tspan><tspan
   font-size="15px"
   x="-12.1667"
   y="217"
   id="tspan8609">Attributes</tspan><tspan
   fill="#7d3368"
   font-size="15px"
   x="-448.841"
   y="252"
   id="tspan8611">Mechanism</tspan><tspan
   font-size="15px"
   x="-427.841"
   y="269"
   id="tspan8613">Simple</tspan><tspan
   font-size="15px"
   x="-427.841"
   y="287"
   id="tspan8615">Generics</tspan><tspan
   font-size="15px"
   x="-427.841"
   y="305"
   id="tspan8617">Overriding</tspan><tspan
   font-size="15px"
   x="-427.841"
   y="322"
   id="tspan8619">Overloading</tspan><tspan
   fill="#7d3368"
   font-size="15px"
   x="-253.565"
   y="252"
   id="tspan8621">Source Code</tspan><tspan
   font-size="15px"
   x="-232.565"
   y="269"
   id="tspan8623">Codebase</tspan><tspan
   font-size="15px"
   x="-232.565"
   y="287"
   id="tspan8625">Third</tspan>-Party<tspan
   font-size="15px"
   x="-232.565"
   y="305"
   id="tspan8627">Standard Library</tspan><tspan
   font-size="15px"
   x="-232.565"
   y="322"
   id="tspan8629">Compiler/Interpreter</tspan><tspan
   fill="#7d3368"
   font-size="15px"
   x="-58.289902"
   y="252"
   id="tspan8631">Execution Space</tspan><tspan
   font-size="15px"
   x="-37.289902"
   y="269"
   id="tspan8633">Local</tspan><tspan
   font-size="15px"
   x="-37.289902"
   y="287"
   id="tspan8635">Admin</tspan><tspan
   font-size="15px"
   x="-37.289902"
   y="305"
   id="tspan8637">Bare</tspan><tspan
   font-size="15px"
   x="-9.7898903"
   y="305"
   id="tspan8639">-</tspan>Metal<tspan
   fill="#7d3368"
   font-size="15px"
   x="136.98599"
   y="252"
   id="tspan8641">Name Kind</tspan><tspan
   font-size="15px"
   x="157.98599"
   y="269"
   id="tspan8643">Object</tspan><tspan
   font-size="15px"
   x="157.98599"
   y="287"
   id="tspan8645">Function</tspan><tspan
   font-size="15px"
   x="157.98599"
   y="305"
   id="tspan8647">Data Type</tspan><tspan
   font-size="15px"
   x="157.98599"
   y="322"
   id="tspan8649">Namespace</tspan><tspan
   fill="#7d3368"
   font-size="15px"
   x="332.26099"
   y="252"
   id="tspan8651">Type Kind</tspan><tspan
   font-size="15px"
   x="353.26099"
   y="269"
   id="tspan8653">Primitive</tspan><tspan
   font-size="15px"
   x="353.26099"
   y="287"
   id="tspan8655">Structure</tspan></text><path
         d="M 0,584.167 C 0,581.866 1.86552,580 4.16675,580 H 37.8333 C 40.1345,580 42,581.866 42,584.167 v 16.666 C 42,603.134 40.1345,605 37.8333,605 H 4.16675 C 1.86552,605 0,603.134 0,600.833 Z"
         fill="#e8effc"
         fill-rule="evenodd"
         id="path8659" /><text
         font-family="Calibri, Calibri_MSFontService, sans-serif"
         font-weight="400"
         font-size="15px"
         transform="translate(44.0945,598)"
         id="text8661">Bug</text><path
         d="m 236,584.167 c 0,-2.301 1.866,-4.167 4.167,-4.167 h 33.666 c 2.301,0 4.167,1.866 4.167,4.167 v 16.666 c 0,2.301 -1.866,4.167 -4.167,4.167 H 240.167 C 237.866,605 236,603.134 236,600.833 Z"
         fill="#f4f2f8"
         fill-rule="evenodd"
         id="path8663" /><text
         font-family="Calibri, Calibri_MSFontService, sans-serif"
         font-weight="400"
         font-size="15px"
         transform="translate(280.315,598)"
         id="text8665">Fault/Error</text><path
         d="m 472,584.167 c 0,-2.301 1.866,-4.167 4.167,-4.167 h 33.666 c 2.301,0 4.167,1.866 4.167,4.167 v 16.666 c 0,2.301 -1.866,4.167 -4.167,4.167 H 476.167 C 473.866,605 472,603.134 472,600.833 Z"
         fill="#dfdaea"
         fill-rule="evenodd"
         id="path8667" /><text
         font-family="Calibri, Calibri_MSFontService, sans-serif"
         font-weight="400"
         font-size="15px"
         transform="translate(516.535,598)"
         id="text8669">Final Error</text><rect
         x="709.5"
         y="580.5"
         width="42"
         height="25"
         stroke="#000000"
         stroke-width="0.666667"
         stroke-linejoin="round"
         stroke-miterlimit="10"
         fill="none"
         id="rect8671" /><text
         font-family="Calibri, Calibri_MSFontService, sans-serif"
         font-weight="400"
         font-size="15px"
         transform="translate(752.756,598)"
         id="text8673">Operation/Operand</text></g></g></svg>
