<?xml version="1.0" encoding="UTF-8" standalone="no"?>
<!-- Created with Inkscape (http://www.inkscape.org/) -->

<svg
   width="250.03125mm"
   height="170.45157mm"
   viewBox="0 0 250.03124 170.45156"
   version="1.1"
   id="svg5"
   inkscape:export-filename="..\_DAT\DCL.png"
   inkscape:export-xdpi="96"
   inkscape:export-ydpi="96"
   xml:space="preserve"
   inkscape:version="1.2.2 (b0a8486541, 2022-12-01)"
   sodipodi:docname="NRS.svg"
   xmlns:inkscape="http://www.inkscape.org/namespaces/inkscape"
   xmlns:sodipodi="http://sodipodi.sourceforge.net/DTD/sodipodi-0.dtd"
   xmlns="http://www.w3.org/2000/svg"
   xmlns:svg="http://www.w3.org/2000/svg"><sodipodi:namedview
     id="namedview7"
     pagecolor="#ffffff"
     bordercolor="#000000"
     borderopacity="0.25"
     inkscape:showpageshadow="2"
     inkscape:pageopacity="0.0"
     inkscape:pagecheckerboard="0"
     inkscape:deskcolor="#d1d1d1"
     inkscape:document-units="mm"
     showgrid="false"
     inkscape:zoom="0.914906"
     inkscape:cx="255.76398"
     inkscape:cy="241.00836"
     inkscape:window-width="1350"
     inkscape:window-height="1230"
     inkscape:window-x="179"
     inkscape:window-y="914"
     inkscape:window-maximized="0"
     inkscape:current-layer="layer1" /><defs
     id="defs2"><clipPath
       id="clip0"><rect
         x="-25"
         y="0"
         width="785"
         height="1091"
         id="rect9" /></clipPath><clipPath
       id="clip0-8"><rect
         x="-25"
         y="0"
         width="785"
         height="524"
         id="rect520" /></clipPath><clipPath
       id="clip0-3"><rect
         x="-25"
         y="0"
         width="785"
         height="1091"
         id="rect699" /></clipPath><clipPath
       id="clip0-0"><rect
         x="-25"
         y="0"
         width="785"
         height="1091"
         id="rect1109" /></clipPath><clipPath
       id="clip0-4"><rect
         x="-25"
         y="0"
         width="934"
         height="905"
         id="rect1519" /></clipPath><clipPath
       id="clip0-42"><rect
         x="-7"
         y="0"
         width="952"
         height="590"
         id="rect1929" /></clipPath><clipPath
       id="clip0-1"><rect
         x="-25"
         y="0"
         width="785"
         height="1091"
         id="rect2197" /></clipPath><clipPath
       id="clip0-6"><rect
         x="-25"
         y="0"
         width="785"
         height="1091"
         id="rect2806" /></clipPath><clipPath
       id="clip0-66"><rect
         x="11"
         y="-21"
         width="934"
         height="904"
         id="rect3369" /></clipPath><clipPath
       id="clip0-41"><rect
         x="-7"
         y="0"
         width="743"
         height="335"
         id="rect3934" /></clipPath><clipPath
       id="clip0-7"><rect
         x="-7"
         y="0"
         width="743"
         height="335"
         id="rect4109" /></clipPath><clipPath
       id="clip0-9"><rect
         x="-25"
         y="0"
         width="785"
         height="524"
         id="rect4320" /></clipPath><clipPath
       id="clip0-96"><rect
         x="-25"
         y="0"
         width="785"
         height="713"
         id="rect4583" /></clipPath><clipPath
       id="clip0-08"><rect
         x="144"
         y="424"
         width="837"
         height="501"
         id="rect4932" /></clipPath><clipPath
       id="clip0-87"><rect
         x="144"
         y="424"
         width="837"
         height="501"
         id="rect5261" /></clipPath><clipPath
       id="clip0-68"><rect
         x="201"
         y="68"
         width="837"
         height="501"
         id="rect5590" /></clipPath><clipPath
       id="clip0-69"><rect
         x="212"
         y="141"
         width="635"
         height="281"
         id="rect6057" /></clipPath><clipPath
       id="clip0-44"><rect
         x="75"
         y="7"
         width="780"
         height="757"
         id="rect6214" /></clipPath><clipPath
       id="clip0-38"><rect
         x="75"
         y="8"
         width="780"
         height="752"
         id="rect6713" /></clipPath><clipPath
       id="clip0-080"><rect
         x="62"
         y="92"
         width="671"
         height="543"
         id="rect7166" /></clipPath><clipPath
       id="clip0-48"><rect
         x="678"
         y="67"
         width="591"
         height="294"
         id="rect7433" /></clipPath><clipPath
       id="clip0-00"><rect
         x="-7"
         y="0"
         width="952"
         height="574"
         id="rect7818" /></clipPath><clipPath
       id="clip0-2"><rect
         x="-7"
         y="0"
         width="952"
         height="543"
         id="rect8173" /></clipPath><clipPath
       id="clip0-09"><rect
         x="-7"
         y="0"
         width="952"
         height="612"
         id="rect8510" /></clipPath><clipPath
       id="clip0-99"><rect
         x="-7"
         y="0"
         width="952"
         height="659"
         id="rect8897" /></clipPath></defs><g
     inkscape:label="Layer 1"
     inkscape:groupmode="layer"
     id="layer1"
     transform="translate(-36.150172,-176.51288)"><g
       clip-path="url(#clip0-99)"
       transform="matrix(0.26458333,0,0,0.26458333,36.150172,174.23563)"
       id="g9060"><text
         fill="#7d3368"
         font-family="Calibri, Calibri_MSFontService, sans-serif"
         font-weight="400"
         font-size="15px"
         transform="translate(384.933,19)"
         id="text8906">Data Type (_DAT) BF Cluster<tspan
   fill="#000000"
   font-size="15px"
   x="-10.92"
   y="35"
   id="tspan8902">Name Resolution (NRS) BF Class</tspan><tspan
   fill="#000000"
   font-size="15px"
   x="-251.786"
   y="63"
   id="tspan8904">Causes</tspan></text><path
         d="M 0,105.334 C 0,101.283 3.2833,98 7.33346,98 H 307.667 c 4.05,0 7.333,3.283 7.333,7.334 v 29.332 c 0,4.051 -3.283,7.334 -7.333,7.334 H 7.33346 C 3.2833,142 0,138.717 0,134.666 Z"
         fill="#e8effc"
         fill-rule="evenodd"
         id="path8908" /><text
         fill="#7d3368"
         font-family="Calibri, Calibri_MSFontService, sans-serif"
         font-weight="400"
         font-size="15px"
         transform="translate(4.25228,115)"
         id="text8912">Code Defect Bug<tspan
   fill="#000000"
   font-size="15px"
   x="203.83299"
   y="17"
   id="tspan8910">Erroneous Code</tspan></text><path
         d="m 315.5,120.167 h 9.625 4.438 4 3.312 2.625 1.688 0.562 0.563 1.687 2.625 3.313 4 4.437 2.952 v 0.666 h -2.952 -4.437 -4 -3.313 -2.625 -1.687 -0.563 -0.562 -1.688 -2.625 -3.312 -4 -4.438 -9.625 z m 44.494,-3.667 7.999,4 -8,4 z"
         id="path8914" /><path
         d="M 0,167.5 C 0,161.701 4.70116,157 10.5003,157 H 304.5 c 5.799,0 10.5,4.701 10.5,10.5 v 42 c 0,5.799 -4.701,10.5 -10.5,10.5 H 10.5003 C 4.70116,220 0,215.299 0,209.5 Z"
         fill="#e8effc"
         fill-rule="evenodd"
         id="path8916" /><text
         fill="#7d3368"
         font-family="Calibri, Calibri_MSFontService, sans-serif"
         font-weight="400"
         font-size="15px"
         transform="translate(5.1748,176)"
         id="text8922">Specification Defect Bug<tspan
   fill="#000000"
   font-size="15px"
   x="197.16701"
   y="17"
   id="tspan8918">Missing Qualifier</tspan><tspan
   fill="#000000"
   font-size="15px"
   x="201.83299"
   y="35"
   id="tspan8920">Wrong Qualifier</tspan></text><path
         d="m 0.0255655,-0.332351 2.4375045,0.1875 c 0.01663,0.001279 0.03313,0.003803 0.04938,0.007554 l 2.4375,0.5625 C 4.97331,0.430594 4.99603,0.43849 5.0177,0.448754 L 9.76769,2.69875 c 0.02179,0.01032 0.04239,0.02297 0.06144,0.03773 l 4.43747,3.4375 c 0.0157,0.01214 0.0302,0.02562 0.0435,0.04034 l 4,4.43748 c 0.0127,0.0141 0.0242,0.0293 0.0343,0.0453 l 3.3125,5.25 2.6469,5.8532 c 0.0074,0.0165 0.0135,0.0336 0.0182,0.0511 l 1.6875,6.3125 c 0.005,0.0187 0.0084,0.0378 0.0101,0.0571 l 0.5625,6.4375 0.5625,6.4375 -0.0103,-0.0579 1.6875,6.25 -0.0175,-0.0491 2.625,5.875 -0.0224,-0.0419 3.3125,5.25 -0.0343,-0.0453 4,4.4375 -0.0458,-0.0421 4.4375,3.375 -0.0804,-0.0451 3.1814,1.2441 -0.2428,0.6209 -3.1814,-1.2442 c -0.0288,-0.0112 -0.0558,-0.0264 -0.0804,-0.0451 l -4.4375,-3.375 c -0.0165,-0.0126 -0.0319,-0.0267 -0.0458,-0.0421 l -4,-4.4375 c -0.0127,-0.0141 -0.0242,-0.0293 -0.0343,-0.0453 l -3.3125,-5.25 c -0.0085,-0.0135 -0.016,-0.0274 -0.0224,-0.0419 l -2.625,-5.875 c -0.0071,-0.0159 -0.013,-0.0323 -0.0175,-0.0491 l -1.6875,-6.25 c -0.0051,-0.019 -0.0086,-0.0383 -0.0103,-0.0579 l -0.5625,-6.4375 -0.5625,-6.4375 0.0101,0.0571 -1.6875,-6.3125 0.0182,0.0511 -2.6031,-5.7718 -3.3125,-5.25 0.0343,0.0453 -4,-4.43752 0.0435,0.04034 -4.43753,-3.4375 0.06143,0.03773 -4.75,-2.25 0.06775,0.02355 -2.4375,-0.562503 0.04938,0.007554 -2.4374955,-0.1875 z M 45.8099,63.3475 l 6.6835,5.9438 -8.7652,1.7806 z"
         transform="matrix(1,0,0,-1,315.5,189.791)"
         id="path8924" /><path
         d="M 0,246.5 C 0,240.701 4.70116,236 10.5003,236 H 304.5 c 5.799,0 10.5,4.701 10.5,10.5 v 42 c 0,5.799 -4.701,10.5 -10.5,10.5 H 10.5003 C 4.70116,299 0,294.299 0,288.5 Z"
         fill="#f4f2f8"
         fill-rule="evenodd"
         id="path8926" /><text
         fill="#7d3368"
         font-family="Calibri, Calibri_MSFontService, sans-serif"
         font-weight="400"
         font-size="15px"
         transform="translate(5.1748,254)"
         id="text8932">Name Fault<tspan
   fill="#000000"
   font-size="15px"
   x="126"
   y="17"
   id="tspan8928">Missing Overridden Function</tspan><tspan
   fill="#000000"
   font-size="15px"
   x="124.167"
   y="35"
   id="tspan8930">Missing Overloaded Function</tspan></text><path
         d="m 0.058888,-0.32809 2.437502,0.4375 c 0.03246,0.005826 0.06387,0.016436 0.09322,0.031484 l 2.4375,1.249996 c 0.02111,0.01083 0.04098,0.02387 0.05933,0.03892 l 2.4375,2 c 0.01488,0.01221 0.02867,0.02568 0.04123,0.04028 l 2.3125,2.6875 2.27463,3.40751 2.2016,3.9605 2.0741,4.523 1.9448,4.9546 1.757,5.4572 1.5671,5.8281 2.6293,12.518 1.692,13.4018 0.5649,13.8406 0.5625,13.8125 1.6851,13.3466 2.6205,12.473 1.558,5.732 1.7456,5.422 1.931,4.982 2.054,4.417 2.1777,3.981 2.2332,3.285 2.2895,2.658 -0.0972,-0.078 1.33,0.702 -0.3111,0.589 -1.3299,-0.701 c -0.037,-0.02 -0.0699,-0.046 -0.0972,-0.078 l -2.3355,-2.717 -2.2668,-3.34 -2.1973,-4.02 -2.071,-4.457 -1.944,-5.018 -1.7544,-5.453 -1.567,-5.769 L 28.1693,101.292 26.4794,87.8886 25.9169,74.0761 25.3568,60.2917 23.6738,46.9435 21.0531,34.4615 19.4952,28.6646 17.7522,23.2468 15.822,18.3264 13.7711,13.8494 11.5976,9.9349 9.37233,6.59241 l -2.3125,-2.6875 0.04123,0.04028 -2.4375,-2 L 4.72289,1.98411 2.28539,0.734106 2.37861,0.76559 -0.058888,0.32809 Z M 47.0952,140.9 l 5.3982,7.131 -8.9441,0.04 z"
         transform="matrix(1,0,0,-1,315.5,268.532)"
         id="path8934" /><path
         d="M 0,331.834 C 0,322.537 7.53673,315 16.8338,315 H 298.166 c 9.297,0 16.834,7.537 16.834,16.834 v 67.332 C 315,408.463 307.463,416 298.166,416 H 16.8338 C 7.53673,416 0,408.463 0,399.166 Z"
         fill="#f4f2f8"
         fill-rule="evenodd"
         id="path8936" /><text
         fill="#7d3368"
         font-family="Calibri, Calibri_MSFontService, sans-serif"
         font-weight="400"
         font-size="15px"
         transform="translate(7.01974,335)"
         id="text8946">Type Fault<tspan
   fill="#000000"
   font-size="15px"
   x="193.83299"
   y="17"
   id="tspan8938">Incomplete Type</tspan><tspan
   fill="#000000"
   font-size="15px"
   x="171.16701"
   y="35"
   id="tspan8940">Wrong Generic Type</tspan><tspan
   fill="#000000"
   font-size="15px"
   x="185.5"
   y="53"
   id="tspan8942">Confused Subtype</tspan><tspan
   fill="#000000"
   font-size="15px"
   x="157.83299"
   y="70"
   id="tspan8944">Wrong Argument Type</tspan></text><path
         d="m 0.0904867,-0.320817 2.4375033,0.6875 c 0.04587,0.01294 0.08844,0.035566 0.12482,0.066355 l 2.4375,2.062502 c 0.01989,0.01682 0.03773,0.03592 0.05317,0.0569 l 2.4375,3.3125 c 0.01052,0.0143 0.01988,0.02941 0.028,0.0452 L 9.92148,10.4101 12.184,16 l 2.1947,6.5821 2.0675,7.4538 1.9408,8.2629 1.7527,9.0126 1.5643,9.6352 1.4385,10.1315 1.1888,10.6349 1.6886,22.1992 0.5633,22.9548 0.5625,22.937 1.6867,22.171 1.1863,10.55 1.4364,10.178 1.5614,9.556 1.7482,8.99 1.9348,8.237 2.0592,7.425 2.1825,6.546 2.2428,5.543 2.3,4.473 -0.0572,-0.08 1.9767,2.039 -0.4786,0.464 -1.9767,-2.039 c -0.0229,-0.024 -0.0422,-0.05 -0.0572,-0.08 l -2.325,-4.527 -2.2572,-5.582 -2.1925,-6.579 -2.0658,-7.45 -1.9402,-8.263 -1.7518,-9.01 -1.5636,-9.569 L 29.3563,178.6 28.1676,168.025 26.4793,145.821 25.9168,122.883 25.3551,99.9628 23.6687,77.787 22.4825,67.1719 21.046,57.0534 19.4853,47.4386 17.738,38.4512 15.8038,30.2141 13.7463,22.7929 11.566,16.25 9.32852,10.7149 7.01602,6.21486 7.04402,6.26006 4.60652,2.94756 4.65969,3.00446 2.22219,0.941962 2.34701,1.00832 -0.0904867,0.320817 Z M 48.5016,237.665 l 3.9918,8.004 -8.7983,-1.609 z"
         transform="matrix(1,0,0,-1,315.5,366.169)"
         id="path8948" /><text
         font-family="Calibri, Calibri_MSFontService, sans-serif"
         font-weight="400"
         font-size="15px"
         transform="translate(740.818,82)"
         id="text8950">Consequences</text><path
         d="M 630,117.834 C 630,106.88 638.88,98 649.834,98 H 925.166 C 936.12,98 945,106.88 945,117.834 v 79.332 C 945,208.12 936.12,217 925.166,217 H 649.834 C 638.88,217 630,208.12 630,197.166 Z"
         fill="#f4f2f8"
         fill-rule="evenodd"
         id="path8952" /><text
         fill="#7d3368"
         font-family="Calibri, Calibri_MSFontService, sans-serif"
         font-weight="400"
         font-size="15px"
         transform="translate(637.864,119)"
         id="text8964">Name Error<tspan
   fill="#000000"
   font-size="15px"
   x="151.66701"
   y="17"
   id="tspan8954">Wrong Object Resolved</tspan><tspan
   fill="#000000"
   font-size="15px"
   x="139.16701"
   y="35"
   id="tspan8956">Wrong Function Resolved</tspan><tspan
   fill="#000000"
   font-size="15px"
   x="104.5"
   y="53"
   id="tspan8958">Wrong Generic Function Bound</tspan><tspan
   fill="#000000"
   font-size="15px"
   x="83.166702"
   y="70"
   id="tspan8960">Wrong Overridden Function Bound</tspan><tspan
   fill="#000000"
   font-size="15px"
   x="81.333298"
   y="88"
   id="tspan8962">Wrong Overloaded Function Bound</tspan></text><path
         d="m 577.53,120.168 4.875,0.438 c 0.017,0.001 0.034,0.004 0.051,0.008 l 4.75,1.188 c 0.017,0.004 0.033,0.009 0.049,0.016 l 4.437,1.875 c 0.015,0.006 0.03,0.014 0.044,0.022 l 4,2.438 c 0.016,0.01 0.031,0.021 0.045,0.033 l 3.313,2.875 c 0.014,0.012 0.027,0.025 0.038,0.04 l 2.625,3.187 c 0.017,0.02 0.031,0.042 0.042,0.065 l 1.688,3.438 c 0.014,0.029 0.024,0.061 0.03,0.094 l 0.562,3.5 0.563,3.5 -0.03,-0.094 1.687,3.437 -0.042,-0.065 2.625,3.188 -0.038,-0.04 3.312,2.875 -0.048,-0.035 4,2.375 4.397,1.855 -0.063,-0.02 3.025,0.623 -0.134,0.653 -3.025,-0.623 c -0.022,-0.004 -0.043,-0.011 -0.063,-0.019 l -4.478,-1.896 -4,-2.375 c -0.017,-0.01 -0.033,-0.022 -0.048,-0.035 l -3.312,-2.875 c -0.014,-0.012 -0.027,-0.025 -0.039,-0.04 l -2.625,-3.187 c -0.017,-0.02 -0.031,-0.042 -0.042,-0.065 l -1.688,-3.438 c -0.014,-0.029 -0.024,-0.061 -0.03,-0.094 l -0.562,-3.5 -0.563,-3.5 0.03,0.094 -1.687,-3.437 0.042,0.065 -2.625,-3.188 0.039,0.04 -3.313,-2.875 0.045,0.033 -4,-2.437 0.044,0.022 -4.438,-1.875 0.049,0.016 -4.75,-1.187 0.051,0.009 -4.875,-0.438 z m 45.142,32.99 7.321,5.137 -8.502,2.775 z"
         id="path8966" /><path
         d="m 630,240.334 c 0,-4.051 3.283,-7.334 7.333,-7.334 h 300.334 c 4.05,0 7.333,3.283 7.333,7.334 v 29.333 c 0,4.05 -3.283,7.333 -7.333,7.333 H 637.333 c -4.05,0 -7.333,-3.283 -7.333,-7.333 z"
         fill="#f4f2f8"
         fill-rule="evenodd"
         id="path8968" /><text
         fill="#7d3368"
         font-family="Calibri, Calibri_MSFontService, sans-serif"
         font-weight="400"
         font-size="15px"
         transform="translate(634.174,250)"
         id="text8972">Type Error<tspan
   fill="#000000"
   font-size="15px"
   x="169.33299"
   y="17"
   id="tspan8970">Wrong Type Resolved</tspan></text><path
         d="m 577.551,120.171 2.437,0.375 c 0.031,0.004 0.061,0.013 0.089,0.026 l 2.438,1.125 c 0.022,0.011 0.044,0.024 0.063,0.039 l 2.438,1.875 c 0.014,0.01 0.026,0.022 0.038,0.035 l 2.313,2.437 2.277,3.095 2.204,3.65 2.075,4.148 1.946,4.581 1.758,4.957 1.568,5.33 2.63,11.456 1.693,12.28 0.565,12.655 0.563,12.625 1.684,12.22 2.62,11.408 1.557,5.293 1.745,4.92 1.93,4.544 2.053,4.042 2.175,3.603 2.234,3.038 2.288,2.471 -0.106,-0.077 1.231,0.561 -0.276,0.607 -1.232,-0.562 c -0.04,-0.018 -0.076,-0.044 -0.106,-0.077 l -2.337,-2.529 -2.266,-3.087 -2.2,-3.647 -2.072,-4.083 -1.945,-4.581 -1.755,-4.955 -1.568,-5.332 -2.63,-11.466 -1.69,-12.281 -0.563,-12.625 -0.56,-12.594 -1.682,-12.221 -2.62,-11.418 -1.557,-5.296 -1.742,-4.918 -1.929,-4.544 -2.05,-4.102 -2.171,-3.6 -2.223,-3.03 -2.312,-2.438 0.038,0.035 -2.437,-1.875 0.063,0.039 -2.437,-1.125 0.089,0.027 -2.438,-0.375 z m 46.801,128.821 5.641,6.941 -8.937,0.349 z"
         id="path8974" /><text
         font-family="Calibri, Calibri_MSFontService, sans-serif"
         font-weight="400"
         font-size="15px"
         transform="translate(435.691,82)"
         id="text8976">Operations</text><rect
         x="367.5"
         y="98.500099"
         width="210"
         height="44"
         stroke="#000000"
         stroke-width="0.666667"
         stroke-linejoin="round"
         stroke-miterlimit="10"
         fill="none"
         id="rect8978" /><text
         font-family="Calibri, Calibri_MSFontService, sans-serif"
         font-weight="400"
         font-size="15px"
         transform="translate(452.524,116)"
         id="text8984">Refer<tspan
   font-size="15px"
   x="5.41998"
   y="17"
   id="tspan8980">Call</tspan><tspan
   font-size="15px"
   x="-12.75"
   y="60"
   id="tspan8982">Operands</tspan></text><rect
         x="367.5"
         y="192.5"
         width="210"
         height="44"
         stroke="#000000"
         stroke-width="0.666667"
         stroke-linejoin="round"
         stroke-miterlimit="10"
         fill="none"
         id="rect8986" /><text
         font-family="Calibri, Calibri_MSFontService, sans-serif"
         font-weight="400"
         font-size="15px"
         transform="translate(450.941,211)"
         id="text9042">Name<tspan
   font-size="15px"
   x="3.3333099"
   y="17"
   id="tspan8988">Type</tspan><tspan
   font-size="15px"
   x="-12.1667"
   y="239"
   id="tspan8990">Attributes</tspan><tspan
   fill="#7d3368"
   font-size="15px"
   x="-448.841"
   y="274"
   id="tspan8992">Mechanism</tspan><tspan
   font-size="15px"
   x="-427.841"
   y="291"
   id="tspan8994">Resolve</tspan><tspan
   font-size="15px"
   x="-427.841"
   y="309"
   id="tspan8996">Bind</tspan><tspan
   font-size="15px"
   x="-427.841"
   y="327"
   id="tspan8998">Early Bind</tspan><tspan
   font-size="15px"
   x="-427.841"
   y="344"
   id="tspan9000">Late Bind</tspan><tspan
   font-size="15px"
   x="-427.841"
   y="362"
   id="tspan9002">Ad</tspan><tspan
   font-size="15px"
   x="-411.67401"
   y="362"
   id="tspan9004">-</tspan>hoc Bind<tspan
   fill="#7d3368"
   font-size="15px"
   x="-253.565"
   y="274"
   id="tspan9006">Source Code</tspan><tspan
   font-size="15px"
   x="-232.565"
   y="291"
   id="tspan9008">Codebase</tspan><tspan
   font-size="15px"
   x="-232.565"
   y="309"
   id="tspan9010">Third</tspan>-Party<tspan
   font-size="15px"
   x="-232.565"
   y="327"
   id="tspan9012">Standard Library</tspan><tspan
   font-size="15px"
   x="-232.565"
   y="344"
   id="tspan9014">Compiler/Interpreter</tspan><tspan
   fill="#7d3368"
   font-size="15px"
   x="-58.289902"
   y="274"
   id="tspan9016">Execution Space</tspan><tspan
   font-size="15px"
   x="-37.289902"
   y="291"
   id="tspan9018">Local</tspan><tspan
   font-size="15px"
   x="-37.289902"
   y="309"
   id="tspan9020">Admin</tspan><tspan
   font-size="15px"
   x="-37.289902"
   y="327"
   id="tspan9022">Bare</tspan><tspan
   font-size="15px"
   x="-9.7898903"
   y="327"
   id="tspan9024">-</tspan>Metal<tspan
   fill="#7d3368"
   font-size="15px"
   x="136.98599"
   y="274"
   id="tspan9026">Name Kind</tspan><tspan
   font-size="15px"
   x="157.98599"
   y="291"
   id="tspan9028">Object</tspan><tspan
   font-size="15px"
   x="157.98599"
   y="309"
   id="tspan9030">Function</tspan><tspan
   font-size="15px"
   x="157.98599"
   y="327"
   id="tspan9032">Data Type</tspan><tspan
   font-size="15px"
   x="157.98599"
   y="344"
   id="tspan9034">Namespace</tspan><tspan
   fill="#7d3368"
   font-size="15px"
   x="332.26099"
   y="274"
   id="tspan9036">Type Kind</tspan><tspan
   font-size="15px"
   x="353.26099"
   y="291"
   id="tspan9038">Primitive</tspan><tspan
   font-size="15px"
   x="353.26099"
   y="309"
   id="tspan9040">Structure</tspan></text><path
         d="M 0,631.167 C 0,628.866 1.86552,627 4.16675,627 H 37.8333 C 40.1345,627 42,628.866 42,631.167 v 16.666 C 42,650.134 40.1345,652 37.8333,652 H 4.16675 C 1.86552,652 0,650.134 0,647.833 Z"
         fill="#e8effc"
         fill-rule="evenodd"
         id="path9044" /><text
         font-family="Calibri, Calibri_MSFontService, sans-serif"
         font-weight="400"
         font-size="15px"
         transform="translate(44.0945,646)"
         id="text9046">Bug</text><path
         d="m 236,631.167 c 0,-2.301 1.866,-4.167 4.167,-4.167 h 33.666 c 2.301,0 4.167,1.866 4.167,4.167 v 16.666 c 0,2.301 -1.866,4.167 -4.167,4.167 H 240.167 C 237.866,652 236,650.134 236,647.833 Z"
         fill="#f4f2f8"
         fill-rule="evenodd"
         id="path9048" /><text
         font-family="Calibri, Calibri_MSFontService, sans-serif"
         font-weight="400"
         font-size="15px"
         transform="translate(280.315,646)"
         id="text9050">Fault/Error</text><path
         d="m 472,631.167 c 0,-2.301 1.866,-4.167 4.167,-4.167 h 33.666 c 2.301,0 4.167,1.866 4.167,4.167 v 16.666 c 0,2.301 -1.866,4.167 -4.167,4.167 H 476.167 C 473.866,652 472,650.134 472,647.833 Z"
         fill="#dfdaea"
         fill-rule="evenodd"
         id="path9052" /><text
         font-family="Calibri, Calibri_MSFontService, sans-serif"
         font-weight="400"
         font-size="15px"
         transform="translate(516.535,646)"
         id="text9054">Final Error</text><rect
         x="709.5"
         y="627.5"
         width="42"
         height="25"
         stroke="#000000"
         stroke-width="0.666667"
         stroke-linejoin="round"
         stroke-miterlimit="10"
         fill="none"
         id="rect9056" /><text
         font-family="Calibri, Calibri_MSFontService, sans-serif"
         font-weight="400"
         font-size="15px"
         transform="translate(752.756,646)"
         id="text9058">Operation/Operand</text></g></g></svg>
