<?xml version="1.0" encoding="UTF-8" standalone="no"?>
<!-- Created with Inkscape (http://www.inkscape.org/) -->

<svg
   width="277.8125mm"
   height="185.73694mm"
   viewBox="0 0 277.8125 185.73694"
   version="1.1"
   id="svg1"
   inkscape:version="1.3.2 (091e20e, 2023-11-25, custom)"
   sodipodi:docname="NRS.svg"
   xmlns:inkscape="http://www.inkscape.org/namespaces/inkscape"
   xmlns:sodipodi="http://sodipodi.sourceforge.net/DTD/sodipodi-0.dtd"
   xmlns="http://www.w3.org/2000/svg"
   xmlns:svg="http://www.w3.org/2000/svg">
  <sodipodi:namedview
     id="namedview1"
     pagecolor="#ffffff"
     bordercolor="#000000"
     borderopacity="0.25"
     inkscape:showpageshadow="2"
     inkscape:pageopacity="0.0"
     inkscape:pagecheckerboard="0"
     inkscape:deskcolor="#d1d1d1"
     inkscape:document-units="mm"
     inkscape:zoom="1.0146815"
     inkscape:cx="158.17771"
     inkscape:cy="-206.46872"
     inkscape:window-width="2560"
     inkscape:window-height="1377"
     inkscape:window-x="-8"
     inkscape:window-y="859"
     inkscape:window-maximized="1"
     inkscape:current-layer="layer1" />
  <defs
     id="defs1" />
  <g
     inkscape:label="Layer 1"
     inkscape:groupmode="layer"
     id="layer1"
     transform="translate(-63.235417,-203.11293)">
    <g
       transform="matrix(0.26458333,0,0,0.26458333,63.235417,200.77522)"
       id="g67">
      <text
         font-family="Calibri, Calibri_MSFontService, sans-serif"
         font-weight="400"
         font-size="19px"
         transform="translate(441.086,22)"
         id="text1">Bugs Framework (BF)</text>
      <text
         font-family="Calibri, Calibri_MSFontService, sans-serif"
         font-weight="400"
         font-size="16px"
         transform="translate(430.32,65)"
         id="text2">Data Type (_DAT) Class Type</text>
      <text
         fill="#660066"
         font-family="Calibri, Calibri_MSFontService, sans-serif"
         font-weight="400"
         font-size="16px"
         transform="translate(427.593,84)"
         id="text3">Name Resolution (NRS) Class</text>
      <text
         font-family="Calibri, Calibri_MSFontService, sans-serif"
         font-weight="400"
         font-size="16px"
         transform="translate(148.645,115)"
         id="text4">Causes</text>
      <path
         d="M 0,140.167 C 0,135.656 3.65634,132 8.16667,132 H 341.833 c 4.511,0 8.167,3.656 8.167,8.167 v 32.666 c 0,4.511 -3.656,8.167 -8.167,8.167 H 8.16667 C 3.65634,181 0,177.344 0,172.833 Z"
         fill="#e8effc"
         fill-rule="evenodd"
         id="path4" />
      <text
         font-family="Calibri, Calibri_MSFontService, sans-serif"
         font-weight="400"
         font-size="16px"
         transform="translate(4.45722,151)"
         id="text5">Code Bug</text>
      <text
         fill="#660066"
         font-family="Calibri, Calibri_MSFontService, sans-serif"
         font-weight="400"
         font-size="16px"
         transform="translate(234.384,170)"
         id="text6">Erroneous Code</text>
      <path
         d="m 350.5,156.167 h 10.708 4.927 4.415 3.73 2.877 1.851 0.655 0.655 1.851 2.877 3.73 4.415 4.927 4.041 v 0.666 h -4.041 -4.927 -4.415 -3.73 -2.877 -1.851 -0.655 -0.655 -1.851 -2.877 -3.73 -4.415 -4.927 -10.708 z m 50.326,-3.667 8,4 -8,4 z"
         id="path6" />
      <path
         d="M 0,207.667 C 0,201.223 5.22334,196 11.6667,196 H 338.333 c 6.444,0 11.667,5.223 11.667,11.667 v 46.666 C 350,260.776 344.777,266 338.333,266 H 11.6667 C 5.22334,266 0,260.776 0,254.333 Z"
         fill="#e8effc"
         fill-rule="evenodd"
         id="path7" />
      <text
         font-family="Calibri, Calibri_MSFontService, sans-serif"
         font-weight="400"
         font-size="16px"
         transform="translate(5.48231,216)"
         id="text7">Specification Bug</text>
      <text
         fill="#660066"
         font-family="Calibri, Calibri_MSFontService, sans-serif"
         font-weight="400"
         font-size="16px"
         transform="translate(227.482,235)"
         id="text8">Missing Qualifier</text>
      <text
         fill="#660066"
         font-family="Calibri, Calibri_MSFontService, sans-serif"
         font-weight="400"
         font-size="16px"
         transform="translate(233.709,254)"
         id="text9">Wrong Qualifier</text>
      <path
         d="M 0.0260246,-0.332316 2.75649,-0.118485 c 0.01641,0.001285 0.03269,0.003781 0.04872,0.00747 L 5.51432,0.51228 8.22358,1.53069 10.8627,2.90751 c 0.0157,0.0082 0.0307,0.01766 0.0449,0.02825 l 4.927,3.67607 c 0.0163,0.01216 0.0314,0.0258 0.0452,0.04071 l 4.4144,4.76796 c 0.0122,0.0133 0.0234,0.0275 0.0334,0.0426 l 3.7308,5.6415 c 0.0096,0.0145 0.018,0.0296 0.0252,0.0454 l 2.8764,6.2966 c 0.0074,0.0162 0.0135,0.033 0.0182,0.0502 l 1.8512,6.7334 c 0.0051,0.0187 0.0086,0.0378 0.0104,0.0571 l 0.6551,6.9518 0.655,6.9518 -0.0105,-0.0571 1.8512,6.7334 -0.0182,-0.0502 2.8764,6.2967 -0.0251,-0.0454 3.7308,5.6415 -0.0335,-0.0426 4.4143,4.768 -0.0452,-0.0407 4.9269,3.6761 -0.0449,-0.0282 2.6023,1.3603 -0.0734,-0.028 1.5972,0.4 -0.1619,0.6467 -1.5973,-0.4 C 50.1135,73.0151 50.0889,73.0057 50.0656,72.9935 L 47.4633,71.6332 C 47.4476,71.625 47.4326,71.6155 47.4184,71.6049 l -4.927,-3.6761 C 42.4751,67.9167 42.46,67.9031 42.4462,67.8881 L 38.0318,63.1202 C 38.0196,63.1069 38.0084,63.0926 37.9984,63.0776 L 34.2676,57.4361 C 34.258,57.4216 34.2496,57.4064 34.2424,57.3907 L 31.366,51.094 C 31.3586,51.0779 31.3525,51.0611 31.3478,51.0439 L 29.4966,44.3105 C 29.4915,44.2918 29.488,44.2727 29.4862,44.2534 l -0.6551,-6.9518 -0.655,-6.9518 0.0105,0.0571 -1.8512,-6.7334 0.0182,0.0501 -2.8764,-6.2966 0.0251,0.0454 -3.7308,-5.6415 0.0335,0.0425 L 15.3906,7.10545 15.4359,7.14616 10.509,3.47008 10.5539,3.49833 7.98836,2.15448 5.36484,1.16197 2.65573,0.538678 2.70445,0.546147 -0.0260246,0.332316 Z M 51.3811,68.9043 l 6.9449,5.6364 -8.676,2.174 z"
         transform="matrix(1,0,0,-1,350.5,231.041)"
         id="path9" />
      <path
         d="M 0,289.167 C 0,284.656 3.65634,281 8.16667,281 H 341.833 c 4.511,0 8.167,3.656 8.167,8.167 v 32.666 c 0,4.511 -3.656,8.167 -8.167,8.167 H 8.16667 C 3.65634,330 0,326.344 0,321.833 Z"
         fill="#f4f2f8"
         fill-rule="evenodd"
         id="path10" />
      <text
         font-family="Calibri, Calibri_MSFontService, sans-serif"
         font-weight="400"
         font-size="16px"
         transform="translate(4.45722,300)"
         id="text10">Name Fault</text>
      <text
         fill="#660066"
         font-family="Calibri, Calibri_MSFontService, sans-serif"
         font-weight="400"
         font-size="16px"
         transform="translate(148.777,319)"
         id="text11">Missing Overloaded Function</text>
      <path
         d="M 0.0515796,-0.329318 2.78206,0.0983441 C 2.8124,0.103095 2.84193,0.112015 2.86982,0.124849 L 5.57894,1.37144 c 0.02172,0.00999 0.04229,0.02229 0.06137,0.03668 l 2.6664,2.01093 c 0.01433,0.0108 0.02777,0.02275 0.04018,0.03572 l 2.60231,2.72066 2.5432,3.40697 2.4279,4.0028 2.2945,4.5449 2.1415,5.0334 1.9684,5.468 1.7747,5.8487 2.8824,12.6159 1.8564,13.4956 0.6578,13.9333 0.655,13.9036 1.8484,13.4374 2.8712,12.564 1.7633,5.81 1.9562,5.435 2.1255,4.996 2.2728,4.502 2.3975,3.954 2.4991,3.349 2.5759,2.69 -0.0805,-0.062 1.9692,1.08 -0.3207,0.585 -1.9692,-1.081 c -0.0298,-0.016 -0.057,-0.037 -0.0805,-0.061 l -2.6287,-2.752 -2.5347,-3.403 -2.4226,-3.998 -2.2911,-4.542 -2.1393,-5.032 -1.9669,-5.466 -1.7752,-5.855 L 31.339,101.956 29.4851,88.46 28.83,74.5564 28.1777,60.6825 26.3318,47.2445 23.4614,34.6737 21.6975,28.8573 19.7428,23.4244 17.6196,18.4305 15.3502,13.9308 12.958,9.98088 10.4674,6.63624 7.86512,3.91558 7.90529,3.95131 5.23889,1.94039 5.30027,1.97707 2.59115,0.730476 2.6789,0.756981 -0.0515796,0.329318 Z M 52.5247,142.274 l 5.8013,6.807 -8.927,0.557 z"
         transform="matrix(1,0,0,-1,350.5,305.581)"
         id="path11" />
      <path
         d="M 0,363.667 C 0,353.358 8.35752,345 18.667,345 h 312.666 c 10.309,0 18.667,8.358 18.667,18.667 v 74.666 C 350,448.642 341.642,457 331.333,457 H 18.667 C 8.35752,457 0,448.642 0,438.333 Z"
         fill="#f4f2f8"
         fill-rule="evenodd"
         id="path12" />
      <text
         font-family="Calibri, Calibri_MSFontService, sans-serif"
         font-weight="400"
         font-size="16px"
         transform="translate(7.53228,367)"
         id="text12">Type Fault</text>
      <text
         fill="#660066"
         font-family="Calibri, Calibri_MSFontService, sans-serif"
         font-weight="400"
         font-size="16px"
         transform="translate(227.152,386)"
         id="text13">Incomplete Type</text>
      <text
         fill="#660066"
         font-family="Calibri, Calibri_MSFontService, sans-serif"
         font-weight="400"
         font-size="16px"
         transform="translate(203.152,405)"
         id="text14">Wrong Generic Type</text>
      <text
         fill="#660066"
         font-family="Calibri, Calibri_MSFontService, sans-serif"
         font-weight="400"
         font-size="16px"
         transform="translate(220.212,425)"
         id="text15">Downcast Pointer</text>
      <text
         fill="#660066"
         font-family="Calibri, Calibri_MSFontService, sans-serif"
         font-weight="400"
         font-size="16px"
         transform="translate(188.852,444)"
         id="text16">Wrong Argument Type</text>
      <path
         d="M 0.0829704,-0.322842 2.81343,0.378886 C 2.85609,0.38985 2.89616,0.409162 2.93132,0.435705 l 2.7091,2.045465 c 0.0217,0.01638 0.04132,0.03536 0.05841,0.05651 L 8.36522,5.8373 c 0.0106,0.01311 0.02023,0.02708 0.02872,0.04163 l 2.60236,4.46417 2.5323,5.5692 2.4193,6.5469 2.2879,7.438 2.1365,8.2409 1.9644,8.9556 1.7715,9.5812 1.5574,10.1177 1.3221,10.5651 1.8526,22.1105 0.656,22.8318 0.655,22.814 1.8502,22.078 1.3193,10.543 1.5544,10.098 1.7676,9.561 1.9593,8.932 2.1295,8.215 2.2778,7.406 2.4042,6.507 2.5076,5.517 2.5868,4.434 -0.0556,-0.071 2.5033,2.433 -0.4648,0.478 -2.5032,-2.433 c -0.0217,-0.021 -0.0404,-0.045 -0.0556,-0.072 l -2.6178,-4.494 -2.5261,-5.561 -2.416,-6.542 -2.286,-7.435 -2.1353,-8.239 -1.9637,-8.954 -1.7709,-9.58 -1.557,-10.118 L 31.3371,167.248 29.485,145.133 28.8299,122.319 28.1759,99.5239 26.3261,77.4405 25.0067,66.894 23.4527,56.7961 21.6855,47.2365 19.7269,38.3054 17.5986,30.0931 15.3226,22.6902 12.9217,16.1881 10.4203,10.6789 7.81798,6.21468 7.8467,6.25631 5.1803,2.9567 5.23871,3.01321 2.52961,0.967751 2.64749,1.02457 -0.0829704,0.322842 Z M 53.7706,236.922 l 4.5554,7.697 -8.8911,-0.974 z"
         transform="matrix(1,0,0,-1,350.5,401.119)"
         id="path16" />
      <text
         font-family="Calibri, Calibri_MSFontService, sans-serif"
         font-weight="400"
         font-size="16px"
         transform="translate(824.224,115)"
         id="text17">Consequences</text>
      <path
         d="M 700,154.167 C 700,141.925 709.924,132 722.167,132 h 305.663 c 12.25,0 22.17,9.925 22.17,22.167 v 88.666 c 0,12.242 -9.92,22.167 -22.17,22.167 H 722.167 C 709.924,265 700,255.075 700,242.833 Z"
         fill="#f4f2f8"
         fill-rule="evenodd"
         id="path17" />
      <text
         font-family="Calibri, Calibri_MSFontService, sans-serif"
         font-weight="400"
         font-size="16px"
         transform="translate(708.47,155)"
         id="text18">Name Error</text>
      <text
         fill="#660066"
         font-family="Calibri, Calibri_MSFontService, sans-serif"
         font-weight="400"
         font-size="16px"
         transform="translate(881.963,174)"
         id="text19">Wrong Object Resolved</text>
      <text
         fill="#660066"
         font-family="Calibri, Calibri_MSFontService, sans-serif"
         font-weight="400"
         font-size="16px"
         transform="translate(868.296,193)"
         id="text20">Wrong Function Resolved</text>
      <text
         fill="#660066"
         font-family="Calibri, Calibri_MSFontService, sans-serif"
         font-weight="400"
         font-size="16px"
         transform="translate(830.196,213)"
         id="text21">Wrong Generic Function Bound</text>
      <text
         fill="#660066"
         font-family="Calibri, Calibri_MSFontService, sans-serif"
         font-weight="400"
         font-size="16px"
         transform="translate(807.35,232)"
         id="text22">Wrong Overridden Function Bound</text>
      <text
         fill="#660066"
         font-family="Calibri, Calibri_MSFontService, sans-serif"
         font-weight="400"
         font-size="16px"
         transform="translate(805.016,251)"
         id="text23">Wrong Overloaded Function Bound</text>
      <path
         d="m 642.529,156.168 5.439,0.472 c 0.018,0.001 0.036,0.004 0.053,0.009 l 5.269,1.332 c 0.016,0.004 0.032,0.01 0.048,0.016 l 4.926,2.071 c 0.016,0.007 0.03,0.014 0.045,0.023 l 4.414,2.686 c 0.015,0.009 0.029,0.02 0.043,0.031 l 3.731,3.178 c 0.015,0.014 0.029,0.028 0.042,0.044 l 2.877,3.548 c 0.016,0.019 0.029,0.041 0.04,0.063 l 1.852,3.794 c 0.014,0.029 0.024,0.059 0.029,0.091 l 0.655,3.916 0.655,3.917 -0.029,-0.091 1.851,3.793 -0.041,-0.064 2.877,3.548 -0.043,-0.044 3.731,3.178 -0.043,-0.031 4.414,2.687 -0.044,-0.023 4.927,2.071 -0.059,-0.018 4.105,0.887 -0.141,0.652 -4.105,-0.888 c -0.02,-0.004 -0.039,-0.01 -0.058,-0.018 l -4.927,-2.071 c -0.016,-0.007 -0.03,-0.014 -0.044,-0.023 l -4.415,-2.686 c -0.015,-0.009 -0.029,-0.02 -0.043,-0.031 l -3.73,-3.178 c -0.016,-0.014 -0.03,-0.028 -0.043,-0.044 l -2.877,-3.548 c -0.016,-0.019 -0.029,-0.041 -0.04,-0.063 l -1.851,-3.794 c -0.014,-0.029 -0.024,-0.059 -0.03,-0.091 l -0.655,-3.917 -0.655,-3.916 0.029,0.091 -1.851,-3.793 0.041,0.063 -2.876,-3.547 0.042,0.044 -3.731,-3.179 0.043,0.031 -4.414,-2.686 0.044,0.023 -4.927,-2.071 0.048,0.016 -5.269,-1.333 0.053,0.009 -5.44,-0.472 z m 50.923,37.265 7.374,5.062 -8.474,2.862 z"
         id="path23" />
      <path
         d="M 700,291.667 C 700,285.223 705.223,280 711.667,280 h 326.663 c 6.45,0 11.67,5.223 11.67,11.667 v 46.666 c 0,6.443 -5.22,11.667 -11.67,11.667 H 711.667 C 705.223,350 700,344.776 700,338.333 Z"
         fill="#f4f2f8"
         fill-rule="evenodd"
         id="path24" />
      <text
         font-family="Calibri, Calibri_MSFontService, sans-serif"
         font-weight="400"
         font-size="16px"
         transform="translate(705.395,300)"
         id="text24">Type Error</text>
      <text
         fill="#660066"
         font-family="Calibri, Calibri_MSFontService, sans-serif"
         font-weight="400"
         font-size="16px"
         transform="translate(850.615,319)"
         id="text25">Wrong Object Type Resolved</text>
      <text
         fill="#660066"
         font-family="Calibri, Calibri_MSFontService, sans-serif"
         font-weight="400"
         font-size="16px"
         transform="translate(897.281,338)"
         id="text26">Wrong Type Resolved</text>
      <path
         d="m 642.555,156.171 2.73,0.455 c 0.032,0.005 0.063,0.015 0.092,0.029 l 2.709,1.326 c 0.022,0.011 0.043,0.024 0.062,0.039 l 2.667,2.139 c 0.014,0.011 0.027,0.023 0.039,0.037 l 2.602,2.893 2.542,3.621 2.427,4.255 2.293,4.831 2.141,5.351 1.968,5.812 1.774,6.218 2.882,13.413 1.856,14.348 0.657,14.812 0.655,14.785 1.849,14.293 2.872,13.364 1.764,6.181 1.956,5.78 2.126,5.315 2.274,4.789 2.399,4.207 2.5,3.563 2.577,2.862 -0.079,-0.065 2.023,1.192 -0.338,0.574 -2.023,-1.191 c -0.029,-0.018 -0.056,-0.039 -0.079,-0.065 l -2.627,-2.924 -2.534,-3.616 -2.421,-4.251 -2.291,-4.828 -2.138,-5.348 -1.966,-5.812 -1.775,-6.223 -2.881,-13.419 -1.854,-14.348 -0.655,-14.785 -0.653,-14.757 -1.846,-14.293 -2.871,-13.37 -1.765,-6.187 -1.955,-5.779 -2.124,-5.312 -2.27,-4.787 -2.394,-4.202 -2.491,-3.558 -2.603,-2.893 0.04,0.037 -2.667,-2.139 0.062,0.04 -2.709,-1.326 0.092,0.03 -2.731,-0.455 z m 52.607,151.937 5.664,6.922 -8.936,0.378 z"
         id="path26" />
      <text
         font-family="Calibri, Calibri_MSFontService, sans-serif"
         font-weight="400"
         font-size="16px"
         transform="translate(485.254,115)"
         id="text27">Operations</text>
      <rect
         x="408.5"
         y="132.5"
         width="234"
         height="49"
         stroke="#000000"
         stroke-width="0.666667"
         stroke-linejoin="round"
         stroke-miterlimit="10"
         fill="none"
         id="rect27" />
      <text
         fill="#660066"
         font-family="Calibri, Calibri_MSFontService, sans-serif"
         font-weight="400"
         font-size="16px"
         transform="translate(504.094,152)"
         id="text28">Refer</text>
      <text
         fill="#660066"
         font-family="Calibri, Calibri_MSFontService, sans-serif"
         font-weight="400"
         font-size="16px"
         transform="translate(509.434,171)"
         id="text29">Call</text>
      <text
         font-family="Calibri, Calibri_MSFontService, sans-serif"
         font-weight="400"
         font-size="16px"
         transform="translate(489.764,216)"
         id="text30">Operands</text>
      <rect
         x="408.5"
         y="233.5"
         width="234"
         height="48"
         stroke="#000000"
         stroke-width="0.666667"
         stroke-linejoin="round"
         stroke-miterlimit="10"
         fill="none"
         id="rect30" />
      <text
         fill="#660066"
         font-family="Calibri, Calibri_MSFontService, sans-serif"
         font-weight="400"
         font-size="16px"
         transform="translate(501.767,253)"
         id="text31">Name</text>
      <text
         fill="#660066"
         font-family="Calibri, Calibri_MSFontService, sans-serif"
         font-weight="400"
         font-size="16px"
         transform="translate(505.881,272)"
         id="text32">Type</text>
      <text
         fill="#7f7f7f"
         font-family="Calibri, Calibri_MSFontService, sans-serif"
         font-weight="400"
         font-size="13px"
         transform="translate(960.564,382)"
         id="text33">BF, I. Bojanova</text>
      <text
         font-family="Calibri, Calibri_MSFontService, sans-serif"
         font-weight="400"
         font-size="16px"
         transform="translate(488.838,492)"
         id="text34">Attributes</text>
      <text
         font-family="Calibri, Calibri_MSFontService, sans-serif"
         font-weight="400"
         font-size="16px"
         transform="translate(2.09974,529)"
         id="text35">Mechanism</text>
      <text
         fill="#660066"
         font-family="Calibri, Calibri_MSFontService, sans-serif"
         font-weight="400"
         font-size="16px"
         transform="translate(2.09974,548)"
         id="text36">Resolve</text>
      <text
         fill="#660066"
         font-family="Calibri, Calibri_MSFontService, sans-serif"
         font-weight="400"
         font-size="16px"
         transform="translate(2.09974,567)"
         id="text37">Bind</text>
      <text
         fill="#660066"
         font-family="Calibri, Calibri_MSFontService, sans-serif"
         font-weight="400"
         font-size="16px"
         transform="translate(2.09974,587)"
         id="text38">Early Bind</text>
      <text
         fill="#660066"
         font-family="Calibri, Calibri_MSFontService, sans-serif"
         font-weight="400"
         font-size="16px"
         transform="translate(2.09974,606)"
         id="text39">Late Bind</text>
      <text
         fill="#660066"
         font-family="Calibri, Calibri_MSFontService, sans-serif"
         font-weight="400"
         font-size="16px"
         transform="translate(2.09974,625)"
         id="text40">Ad</text>
      <text
         fill="#660066"
         font-family="Calibri, Calibri_MSFontService, sans-serif"
         font-weight="400"
         font-size="16px"
         transform="translate(19.7664,625)"
         id="text41">-</text>
      <text
         fill="#660066"
         font-family="Calibri, Calibri_MSFontService, sans-serif"
         font-weight="400"
         font-size="16px"
         transform="translate(24.5997,625)"
         id="text42">hoc Bind</text>
      <text
         font-family="Calibri, Calibri_MSFontService, sans-serif"
         font-weight="400"
         font-size="16px"
         transform="translate(216.273,529)"
         id="text43">Source Code</text>
      <text
         fill="#660066"
         font-family="Calibri, Calibri_MSFontService, sans-serif"
         font-weight="400"
         font-size="16px"
         transform="translate(216.273,548)"
         id="text44">Codebase</text>
      <text
         fill="#660066"
         font-family="Calibri, Calibri_MSFontService, sans-serif"
         font-weight="400"
         font-size="16px"
         transform="translate(216.273,567)"
         id="text45">Third</text>
      <text
         fill="#660066"
         font-family="Calibri, Calibri_MSFontService, sans-serif"
         font-weight="400"
         font-size="16px"
         transform="translate(249.72,567)"
         id="text46">-</text>
      <text
         fill="#660066"
         font-family="Calibri, Calibri_MSFontService, sans-serif"
         font-weight="400"
         font-size="16px"
         transform="translate(254.553,567)"
         id="text47">Party</text>
      <text
         fill="#660066"
         font-family="Calibri, Calibri_MSFontService, sans-serif"
         font-weight="400"
         font-size="16px"
         transform="translate(216.273,587)"
         id="text48">Standard Library</text>
      <text
         fill="#660066"
         font-family="Calibri, Calibri_MSFontService, sans-serif"
         font-weight="400"
         font-size="16px"
         transform="translate(216.273,606)"
         id="text49">Compiler/Interpreter</text>
      <text
         font-family="Calibri, Calibri_MSFontService, sans-serif"
         font-weight="400"
         font-size="16px"
         transform="translate(430.446,529)"
         id="text50">Execution Space</text>
      <text
         fill="#660066"
         font-family="Calibri, Calibri_MSFontService, sans-serif"
         font-weight="400"
         font-size="16px"
         transform="translate(430.446,548)"
         id="text51">Local</text>
      <text
         fill="#660066"
         font-family="Calibri, Calibri_MSFontService, sans-serif"
         font-weight="400"
         font-size="16px"
         transform="translate(430.446,567)"
         id="text52">Admin</text>
      <text
         fill="#660066"
         font-family="Calibri, Calibri_MSFontService, sans-serif"
         font-weight="400"
         font-size="16px"
         transform="translate(430.446,587)"
         id="text53">Bare</text>
      <text
         fill="#660066"
         font-family="Calibri, Calibri_MSFontService, sans-serif"
         font-weight="400"
         font-size="16px"
         transform="translate(460.066,587)"
         id="text54">-</text>
      <text
         fill="#660066"
         font-family="Calibri, Calibri_MSFontService, sans-serif"
         font-weight="400"
         font-size="16px"
         transform="translate(464.9,587)"
         id="text55">Metal</text>
      <text
         font-family="Calibri, Calibri_MSFontService, sans-serif"
         font-weight="400"
         font-size="16px"
         transform="translate(644.619,529)"
         id="text56">Name Kind</text>
      <text
         fill="#660066"
         font-family="Calibri, Calibri_MSFontService, sans-serif"
         font-weight="400"
         font-size="16px"
         transform="translate(644.619,548)"
         id="text57">Object</text>
      <text
         fill="#660066"
         font-family="Calibri, Calibri_MSFontService, sans-serif"
         font-weight="400"
         font-size="16px"
         transform="translate(644.619,567)"
         id="text58">Function</text>
      <text
         fill="#660066"
         font-family="Calibri, Calibri_MSFontService, sans-serif"
         font-weight="400"
         font-size="16px"
         transform="translate(644.619,587)"
         id="text59">Data Type</text>
      <text
         fill="#660066"
         font-family="Calibri, Calibri_MSFontService, sans-serif"
         font-weight="400"
         font-size="16px"
         transform="translate(644.619,606)"
         id="text60">Namespace</text>
      <text
         font-family="Calibri, Calibri_MSFontService, sans-serif"
         font-weight="400"
         font-size="16px"
         transform="translate(858.793,529)"
         id="text61">Type Kind</text>
      <text
         fill="#660066"
         font-family="Calibri, Calibri_MSFontService, sans-serif"
         font-weight="400"
         font-size="16px"
         transform="translate(858.793,548)"
         id="text62">Primitive</text>
      <text
         fill="#660066"
         font-family="Calibri, Calibri_MSFontService, sans-serif"
         font-weight="400"
         font-size="16px"
         transform="translate(858.793,567)"
         id="text63">Structure</text>
      <path
         d="M 0,686.667 C 0,684.089 2.08938,682 4.66676,682 H 37.3332 C 39.9106,682 42,684.089 42,686.667 v 18.666 C 42,707.911 39.9106,710 37.3332,710 H 4.66676 C 2.08938,710 0,707.911 0,705.333 Z"
         fill="#e8effc"
         fill-rule="evenodd"
         id="path63" />
      <text
         font-family="Calibri, Calibri_MSFontService, sans-serif"
         font-weight="400"
         font-size="16px"
         transform="translate(44.0945,702)"
         id="text64">Bug</text>
      <path
         d="m 262,686.667 c 0,-2.578 2.089,-4.667 4.667,-4.667 h 32.666 c 2.578,0 4.667,2.089 4.667,4.667 v 18.666 c 0,2.578 -2.089,4.667 -4.667,4.667 H 266.667 C 264.089,710 262,707.911 262,705.333 Z"
         fill="#f4f2f8"
         fill-rule="evenodd"
         id="path64" />
      <text
         font-family="Calibri, Calibri_MSFontService, sans-serif"
         font-weight="400"
         font-size="16px"
         transform="translate(306.562,702)"
         id="text65">Fault/Error</text>
      <path
         d="m 525,686.667 c 0,-2.578 2.089,-4.667 4.667,-4.667 h 32.666 c 2.578,0 4.667,2.089 4.667,4.667 v 18.666 c 0,2.578 -2.089,4.667 -4.667,4.667 H 529.667 C 527.089,710 525,707.911 525,705.333 Z"
         fill="#dfdaea"
         fill-rule="evenodd"
         id="path65" />
      <text
         font-family="Calibri, Calibri_MSFontService, sans-serif"
         font-weight="400"
         font-size="16px"
         transform="translate(569.029,702)"
         id="text66">Final Error</text>
      <rect
         x="787.5"
         y="682.5"
         width="42"
         height="28"
         stroke="#000000"
         stroke-width="0.666667"
         stroke-linejoin="round"
         stroke-miterlimit="10"
         fill="none"
         id="rect66" />
      <text
         font-family="Calibri, Calibri_MSFontService, sans-serif"
         font-weight="400"
         font-size="16px"
         transform="translate(831.496,702)"
         id="text67">Operation/Operand</text>
    </g>
  </g>
</svg>
