<?xml version="1.0" encoding="UTF-8" standalone="no"?>
<!-- Created with Inkscape (http://www.inkscape.org/) -->

<svg
   width="250.03125mm"
   height="180.50574mm"
   viewBox="0 0 250.03124 180.50573"
   version="1.1"
   id="svg5"
   inkscape:export-filename="..\_DAT\TCV.png"
   inkscape:export-xdpi="96"
   inkscape:export-ydpi="96"
   xml:space="preserve"
   inkscape:version="1.2.2 (b0a8486541, 2022-12-01)"
   sodipodi:docname="TCM.svg"
   xmlns:inkscape="http://www.inkscape.org/namespaces/inkscape"
   xmlns:sodipodi="http://sodipodi.sourceforge.net/DTD/sodipodi-0.dtd"
   xmlns="http://www.w3.org/2000/svg"
   xmlns:svg="http://www.w3.org/2000/svg"><sodipodi:namedview
     id="namedview7"
     pagecolor="#ffffff"
     bordercolor="#000000"
     borderopacity="0.25"
     inkscape:showpageshadow="2"
     inkscape:pageopacity="0.0"
     inkscape:pagecheckerboard="0"
     inkscape:deskcolor="#d1d1d1"
     inkscape:document-units="mm"
     showgrid="false"
     inkscape:zoom="0.914906"
     inkscape:cx="472.17965"
     inkscape:cy="341.56514"
     inkscape:window-width="1350"
     inkscape:window-height="1230"
     inkscape:window-x="179"
     inkscape:window-y="914"
     inkscape:window-maximized="0"
     inkscape:current-layer="layer1" /><defs
     id="defs2"><clipPath
       id="clip0"><rect
         x="-25"
         y="0"
         width="785"
         height="1091"
         id="rect9" /></clipPath><clipPath
       id="clip0-8"><rect
         x="-25"
         y="0"
         width="785"
         height="524"
         id="rect520" /></clipPath><clipPath
       id="clip0-3"><rect
         x="-25"
         y="0"
         width="785"
         height="1091"
         id="rect699" /></clipPath><clipPath
       id="clip0-0"><rect
         x="-25"
         y="0"
         width="785"
         height="1091"
         id="rect1109" /></clipPath><clipPath
       id="clip0-4"><rect
         x="-25"
         y="0"
         width="934"
         height="905"
         id="rect1519" /></clipPath><clipPath
       id="clip0-42"><rect
         x="-7"
         y="0"
         width="952"
         height="590"
         id="rect1929" /></clipPath><clipPath
       id="clip0-1"><rect
         x="-25"
         y="0"
         width="785"
         height="1091"
         id="rect2197" /></clipPath><clipPath
       id="clip0-6"><rect
         x="-25"
         y="0"
         width="785"
         height="1091"
         id="rect2806" /></clipPath><clipPath
       id="clip0-66"><rect
         x="11"
         y="-21"
         width="934"
         height="904"
         id="rect3369" /></clipPath><clipPath
       id="clip0-41"><rect
         x="-7"
         y="0"
         width="743"
         height="335"
         id="rect3934" /></clipPath><clipPath
       id="clip0-7"><rect
         x="-7"
         y="0"
         width="743"
         height="335"
         id="rect4109" /></clipPath><clipPath
       id="clip0-9"><rect
         x="-25"
         y="0"
         width="785"
         height="524"
         id="rect4320" /></clipPath><clipPath
       id="clip0-96"><rect
         x="-25"
         y="0"
         width="785"
         height="713"
         id="rect4583" /></clipPath><clipPath
       id="clip0-08"><rect
         x="144"
         y="424"
         width="837"
         height="501"
         id="rect4932" /></clipPath><clipPath
       id="clip0-87"><rect
         x="144"
         y="424"
         width="837"
         height="501"
         id="rect5261" /></clipPath><clipPath
       id="clip0-68"><rect
         x="201"
         y="68"
         width="837"
         height="501"
         id="rect5590" /></clipPath><clipPath
       id="clip0-69"><rect
         x="212"
         y="141"
         width="635"
         height="281"
         id="rect6057" /></clipPath><clipPath
       id="clip0-44"><rect
         x="75"
         y="7"
         width="780"
         height="757"
         id="rect6214" /></clipPath><clipPath
       id="clip0-38"><rect
         x="75"
         y="8"
         width="780"
         height="752"
         id="rect6713" /></clipPath><clipPath
       id="clip0-080"><rect
         x="62"
         y="92"
         width="671"
         height="543"
         id="rect7166" /></clipPath><clipPath
       id="clip0-48"><rect
         x="678"
         y="67"
         width="591"
         height="294"
         id="rect7433" /></clipPath><clipPath
       id="clip0-00"><rect
         x="-7"
         y="0"
         width="952"
         height="574"
         id="rect7818" /></clipPath><clipPath
       id="clip0-2"><rect
         x="-7"
         y="0"
         width="952"
         height="543"
         id="rect8173" /></clipPath><clipPath
       id="clip0-09"><rect
         x="-7"
         y="0"
         width="952"
         height="612"
         id="rect8510" /></clipPath><clipPath
       id="clip0-99"><rect
         x="-7"
         y="0"
         width="952"
         height="659"
         id="rect8897" /></clipPath><clipPath
       id="clip0-31"><rect
         x="-7"
         y="0"
         width="952"
         height="653"
         id="rect9282" /></clipPath><clipPath
       id="clip0-5"><rect
         x="-7"
         y="0"
         width="952"
         height="697"
         id="rect9673" /></clipPath></defs><g
     inkscape:label="Layer 1"
     inkscape:groupmode="layer"
     id="layer1"
     transform="translate(21.279322,-150.03879)"><g
       clip-path="url(#clip0-5)"
       transform="matrix(0.26458333,0,0,0.26458333,-21.279322,147.76154)"
       id="g9850"><text
         fill="#7d3368"
         font-family="Calibri, Calibri_MSFontService, sans-serif"
         font-weight="400"
         font-size="15px"
         transform="translate(384.933,19)"
         id="text9682">Data Type (_DAT) BF Cluster<tspan
   fill="#000000"
   font-size="15px"
   x="-16.5867"
   y="35"
   id="tspan9678">Type Computation (TCM) BF Class</tspan><tspan
   fill="#000000"
   font-size="15px"
   x="-251.786"
   y="63"
   id="tspan9680">Causes</tspan></text><path
         d="M 0,108.5 C 0,102.701 4.70116,98 10.5003,98 H 304.5 c 5.799,0 10.5,4.701 10.5,10.5 v 42 c 0,5.799 -4.701,10.5 -10.5,10.5 H 10.5003 C 4.70116,161 0,156.299 0,150.5 Z"
         fill="#e8effc"
         fill-rule="evenodd"
         id="path9684" /><text
         fill="#7d3368"
         font-family="Calibri, Calibri_MSFontService, sans-serif"
         font-weight="400"
         font-size="15px"
         transform="translate(5.1748,116)"
         id="text9690">Code Defect Bug<tspan
   fill="#000000"
   font-size="15px"
   x="222.83299"
   y="17"
   id="tspan9686">Wrong Code</tspan><tspan
   fill="#000000"
   font-size="15px"
   x="202"
   y="35"
   id="tspan9688">Erroneous Code</tspan></text><path
         d="m 0.0151359,-0.332989 9.6250041,0.4375 4.45506,0.438764 4.0188,0.627385 3.3287,0.69046 2.6559,0.82045 c 0.0189,0.00586 0.0373,0.01339 0.0548,0.02251 l 1.6875,0.875 c 0.0517,0.02681 0.0955,0.06669 0.127,0.11567 l 0.5625,0.875 0.5625,0.875 -0.127,-0.11567 1.6875,0.875 -0.0548,-0.02251 2.625,0.8125 3.2816,0.67955 3.9838,0.62204 4.4187,0.43511 2.9378,0.11744 L 45.8188,9.51434 42.8423,9.39422 38.386,8.95434 34.3698,8.32638 31.0264,7.63093 28.4014,6.81843 C 28.3825,6.81257 28.3641,6.80504 28.3466,6.79592 l -1.6875,-0.875 C 26.6074,5.89411 26.5636,5.85423 26.5321,5.80525 l -0.5625,-0.875 -0.5625,-0.875 0.127,0.11567 -1.6875,-0.875 0.0548,0.02251 L 21.3073,2.51388 18.011,1.82934 14.0298,1.20673 9.60986,0.770489 -0.0151359,0.332989 Z M 44.6604,5.13098 l 7.833,4.31784 -8.154,3.67568 z"
         transform="matrix(1,0,0,-1,315.5,129.949)"
         id="path9692" /><path
         d="M 0,196 C 0,184.954 8.95444,176 20.0003,176 H 295 c 11.046,0 20,8.954 20,20 v 80 c 0,11.046 -8.954,20 -20,20 H 20.0003 C 8.95444,296 0,287.046 0,276 Z"
         fill="#f4f2f8"
         fill-rule="evenodd"
         id="path9694" /><text
         fill="#7d3368"
         font-family="Calibri, Calibri_MSFontService, sans-serif"
         font-weight="400"
         font-size="15px"
         transform="translate(7.94226,197)"
         id="text9706">Name Fault<tspan
   fill="#000000"
   font-size="15px"
   x="151.66701"
   y="17"
   id="tspan9696">Wrong Object Resolved</tspan><tspan
   fill="#000000"
   font-size="15px"
   x="139.16701"
   y="35"
   id="tspan9698">Wrong Function Resolved</tspan><tspan
   fill="#000000"
   font-size="15px"
   x="104.5"
   y="53"
   id="tspan9700">Wrong Generic Function Bound</tspan><tspan
   fill="#000000"
   font-size="15px"
   x="83.166702"
   y="70"
   id="tspan9702">Wrong Overridden Function Bound</tspan><tspan
   fill="#000000"
   font-size="15px"
   x="81.333298"
   y="88"
   id="tspan9704">Wrong Overloaded Function Bound</tspan></text><path
         d="M 0.0423881,-0.330627 2.47989,-0.0181272 c 0.02889,0.0037042 0.05718,0.01118128 0.08413,0.02223766 L 5.00152,1.00411 c 0.01859,0.00763 0.03645,0.01692 0.05337,0.02776 l 2.4375,1.5625 c 0.0162,0.01039 0.03148,0.02217 0.04565,0.03519 l 2.3125,2.125 2.28006,2.71896 2.2031,3.08278 2.0798,3.5892 1.9481,3.9573 3.3254,8.8424 2.6351,9.9067 1.6945,10.5327 0.5663,10.9107 0.5625,10.875 1.6837,10.4643 2.618,9.8423 3.3024,8.7808 1.9236,3.8433 2.0529,3.544 2.1721,3.101 2.23,2.6 -0.0564,-0.053 3.4259,2.504 -0.3934,0.538 -3.4259,-2.503 c -0.0207,-0.016 -0.0397,-0.033 -0.0564,-0.053 l -2.27,-2.65 -2.2029,-3.149 -2.0721,-3.581 -1.9514,-3.9067 -3.3226,-8.8442 -2.632,-9.9077 L 26.4796,69.2047 25.9171,58.3297 25.3584,47.4904 23.6779,37.0231 21.063,27.1798 17.7634,18.3972 15.8365,14.4795 13.7913,10.9437 11.6194,7.90148 9.39946,5.24544 7.08696,3.12044 7.13261,3.15563 4.69511,1.59313 4.74848,1.62089 2.31098,0.620889 2.39511,0.643127 -0.0423881,0.330627 Z M 46.5438,109.857 l 5.9496,6.678 -8.9125,0.753 z"
         transform="matrix(1,0,0,-1,315.5,237.035)"
         id="path9708" /><path
         d="M 0,322.5 C 0,316.701 4.70116,312 10.5003,312 H 304.5 c 5.799,0 10.5,4.701 10.5,10.5 v 42 c 0,5.799 -4.701,10.5 -10.5,10.5 H 10.5003 C 4.70116,375 0,370.299 0,364.5 Z"
         fill="#f4f2f8"
         fill-rule="evenodd"
         id="path9710" /><text
         fill="#7d3368"
         font-family="Calibri, Calibri_MSFontService, sans-serif"
         font-weight="400"
         font-size="15px"
         transform="translate(5.1748,330)"
         id="text9716">Data Fault<tspan
   fill="#000000"
   font-size="15px"
   x="193.66701"
   y="17"
   id="tspan9712">Wrong Argument</tspan><tspan
   fill="#000000"
   font-size="15px"
   x="174.33299"
   y="35"
   id="tspan9714">Reference vs. Object</tspan></text><path
         d="m 0.0827918,-0.322888 2.4374982,0.625 C 2.564,0.313319 2.60497,0.333281 2.64074,0.360792 L 5.07824,2.23579 C 5.09876,2.25158 5.11738,2.26971 5.1337,2.2898 l 2.4375,3 C 7.58321,5.30458 7.59395,5.32039 7.60326,5.337 l 2.3125,4.125 2.26384,5.0901 2.1957,5.9577 2.0687,6.8311 1.9412,7.5132 1.7533,8.2012 1.5646,8.7611 1.4388,9.2574 1.1889,9.6354 1.6889,20.2005 0.5635,20.8943 0.5625,20.875 1.6865,20.168 1.1862,9.675 1.4359,9.176 1.5613,8.743 1.7479,8.177 1.9342,7.486 2.0588,6.799 2.1813,5.919 2.2418,5.043 2.2987,4.097 -0.0659,-0.083 1.8393,1.681 -0.4498,0.492 -1.8393,-1.681 c -0.0262,-0.024 -0.0485,-0.052 -0.0659,-0.083 l -2.3263,-4.153 -2.2582,-5.082 -2.1937,-5.956 -2.0662,-6.826 -1.9408,-7.514 -1.7521,-8.198 -1.5637,-8.757 -1.4391,-9.199 -1.1888,-9.7 L 26.4793,132.696 25.9168,111.821 25.3553,90.9653 23.6692,70.7908 22.4831,61.1762 21.0469,51.9336 19.4865,43.1947 17.7398,35.0209 15.806,27.5341 13.7497,20.7402 11.5704,14.8229 9.33424,9.788 7.02174,5.663 l 0.03205,0.0472 -2.4375,-3 0.05547,0.05401 -2.4375,-1.875002 0.12045,0.05868 -2.4375018,-0.625 z M 48.2229,215.763 l 4.2705,7.859 -8.8494,-1.299 z"
         transform="matrix(1,0,0,-1,315.5,344.122)"
         id="path9718" /><path
         d="M 0,401.5 C 0,395.701 4.70116,391 10.5003,391 H 304.5 c 5.799,0 10.5,4.701 10.5,10.5 v 42 c 0,5.799 -4.701,10.5 -10.5,10.5 H 10.5003 C 4.70116,454 0,449.299 0,443.5 Z"
         fill="#f4f2f8"
         fill-rule="evenodd"
         id="path9720" /><text
         fill="#7d3368"
         font-family="Calibri, Calibri_MSFontService, sans-serif"
         font-weight="400"
         font-size="15px"
         transform="translate(5.1748,409)"
         id="text9726">Type Fault<tspan
   fill="#000000"
   font-size="15px"
   x="224.5"
   y="17"
   id="tspan9722">Wrong Type</tspan><tspan
   fill="#000000"
   font-size="15px"
   x="125"
   y="35"
   id="tspan9724">Wrong Object Type Resolved</tspan></text><path
         d="m 0.065372,-0.32686 1.249998,0.2499998 c 0.03133,0.0062662 0.0616,0.0170061 0.08988,0.0318875 L 2.59275,0.580027 C 2.6144,0.591423 2.63474,0.605174 2.65338,0.62102 l 1.25,1.0625 c 0.01489,0.01266 0.02866,0.02662 0.04111,0.04169 l 1.1875,1.4375 1.27036,1.90239 1.20494,2.27931 2.32499,5.52639 2.25952,6.9005 2.1924,8.0789 2.0659,9.1388 1.9399,10.1987 1.7517,11.0727 1.5638,11.8209 1.4382,12.5056 1.1883,13.0704 0.938,13.5067 0.7503,13.818 0.563,28.199 0.5625,28.187 0.7495,13.864 0.9372,13.432 1.187,13.056 1.4367,12.492 1.5618,11.807 1.7487,11.054 1.9358,10.177 2.0602,9.177 2.184,8.048 2.2448,6.795 2.3033,5.476 1.175,2.223 -0.0757,-0.095 1.0455,0.911 -0.4381,0.503 -1.0456,-0.912 c -0.0309,-0.027 -0.0566,-0.059 -0.0757,-0.095 l -1.2,-2.277 -2.3217,-5.524 -2.2552,-6.83 -2.191,-8.077 -2.0648,-9.198 L 34.1083,255.177 32.357,244.106 30.7938,232.288 29.3555,219.78 28.1675,206.711 27.2297,193.268 26.4792,179.382 25.9167,151.194 25.3547,123.018 24.605,109.211 23.668,95.7177 22.4813,82.6631 21.0445,70.1687 19.4833,58.3646 17.735,47.3123 15.7999,37.136 13.7408,28.0248 11.5582,19.9787 9.31772,13.1292 7.0177,7.65559 5.84765,5.4349 4.61801,3.58729 3.43051,2.14979 3.47162,2.19148 2.22162,1.12898 2.28225,1.16997 1.09475,0.544973 1.18463,0.57686 -0.065372,0.32686 Z M 49.0014,294.128 l 3.492,8.234 -8.6827,-2.147 z"
         transform="matrix(1,0,0,-1,315.5,422.862)"
         id="path9728" /><text
         font-family="Calibri, Calibri_MSFontService, sans-serif"
         font-weight="400"
         font-size="15px"
         transform="translate(740.818,82)"
         id="text9730">Consequences</text><path
         d="M 630,117.834 C 630,106.88 638.88,98 649.834,98 H 925.166 C 936.12,98 945,106.88 945,117.834 v 79.332 C 945,208.12 936.12,217 925.166,217 H 649.834 C 638.88,217 630,208.12 630,197.166 Z"
         fill="#f4f2f8"
         fill-rule="evenodd"
         id="path9732" /><text
         fill="#7d3368"
         font-family="Calibri, Calibri_MSFontService, sans-serif"
         font-weight="400"
         font-size="15px"
         transform="translate(637.864,119)"
         id="text9744">Data Error<tspan
   fill="#000000"
   font-size="15px"
   x="214.16701"
   y="17"
   id="tspan9734">Under Range</tspan><tspan
   fill="#000000"
   font-size="15px"
   x="222.5"
   y="35"
   id="tspan9736">Over Range</tspan><tspan
   fill="#000000"
   font-size="15px"
   x="220"
   y="53"
   id="tspan9738">Flipped Sign</tspan><tspan
   fill="#000000"
   font-size="15px"
   x="211"
   y="70"
   id="tspan9740">Wrong Result</tspan><tspan
   fill="#000000"
   font-size="15px"
   x="211"
   y="88"
   id="tspan9742">Wrap Around</tspan></text><path
         d="m 577.53,120.168 4.875,0.438 c 0.017,0.001 0.034,0.004 0.051,0.008 l 4.75,1.188 c 0.017,0.004 0.033,0.009 0.049,0.016 l 4.437,1.875 c 0.015,0.006 0.03,0.014 0.044,0.022 l 4,2.438 c 0.016,0.01 0.031,0.021 0.045,0.033 l 3.313,2.875 c 0.014,0.012 0.027,0.025 0.038,0.04 l 2.625,3.187 c 0.017,0.02 0.031,0.042 0.042,0.065 l 1.688,3.438 c 0.014,0.029 0.024,0.061 0.03,0.094 l 0.562,3.5 0.563,3.5 -0.03,-0.094 1.687,3.437 -0.042,-0.065 2.625,3.188 -0.038,-0.04 3.312,2.875 -0.048,-0.035 4,2.375 4.397,1.855 -0.063,-0.02 3.025,0.623 -0.134,0.653 -3.025,-0.623 c -0.022,-0.004 -0.043,-0.011 -0.063,-0.019 l -4.478,-1.896 -4,-2.375 c -0.017,-0.01 -0.033,-0.022 -0.048,-0.035 l -3.312,-2.875 c -0.014,-0.012 -0.027,-0.025 -0.039,-0.04 l -2.625,-3.187 c -0.017,-0.02 -0.031,-0.042 -0.042,-0.065 l -1.688,-3.438 c -0.014,-0.029 -0.024,-0.061 -0.03,-0.094 l -0.562,-3.5 -0.563,-3.5 0.03,0.094 -1.687,-3.437 0.042,0.065 -2.625,-3.188 0.039,0.04 -3.313,-2.875 0.045,0.033 -4,-2.437 0.044,0.022 -4.438,-1.875 0.049,0.016 -4.75,-1.187 0.051,0.009 -4.875,-0.438 z m 45.142,32.99 7.321,5.137 -8.502,2.775 z"
         id="path9746" /><path
         d="m 630,240.334 c 0,-4.051 3.283,-7.334 7.333,-7.334 h 300.334 c 4.05,0 7.333,3.283 7.333,7.334 v 29.333 c 0,4.05 -3.283,7.333 -7.333,7.333 H 637.333 c -4.05,0 -7.333,-3.283 -7.333,-7.333 z"
         fill="#dfdaea"
         fill-rule="evenodd"
         id="path9748" /><text
         fill="#7d3368"
         font-family="Calibri, Calibri_MSFontService, sans-serif"
         font-weight="400"
         font-size="15px"
         transform="translate(634.174,250)"
         id="text9752">Type Compute Final Error<tspan
   fill="#000000"
   font-size="15px"
   x="236.33299"
   y="17"
   id="tspan9750">Undefined</tspan></text><path
         d="m 577.551,120.171 2.437,0.375 c 0.031,0.004 0.061,0.013 0.089,0.026 l 2.438,1.125 c 0.022,0.011 0.044,0.024 0.063,0.039 l 2.438,1.875 c 0.014,0.01 0.026,0.022 0.038,0.035 l 2.313,2.437 2.277,3.095 2.204,3.65 2.075,4.148 1.946,4.581 1.758,4.957 1.568,5.33 2.63,11.456 1.693,12.28 0.565,12.655 0.563,12.625 1.684,12.22 2.62,11.408 1.557,5.293 1.745,4.92 1.93,4.544 2.053,4.042 2.175,3.603 2.234,3.038 2.288,2.471 -0.106,-0.077 1.231,0.561 -0.276,0.607 -1.232,-0.562 c -0.04,-0.018 -0.076,-0.044 -0.106,-0.077 l -2.337,-2.529 -2.266,-3.087 -2.2,-3.647 -2.072,-4.083 -1.945,-4.581 -1.755,-4.955 -1.568,-5.332 -2.63,-11.466 -1.69,-12.281 -0.563,-12.625 -0.56,-12.594 -1.682,-12.221 -2.62,-11.418 -1.557,-5.296 -1.742,-4.918 -1.929,-4.544 -2.05,-4.102 -2.171,-3.6 -2.223,-3.03 -2.312,-2.438 0.038,0.035 -2.437,-1.875 0.063,0.039 -2.437,-1.125 0.089,0.027 -2.438,-0.375 z m 46.801,128.821 5.641,6.941 -8.937,0.349 z"
         id="path9754" /><text
         font-family="Calibri, Calibri_MSFontService, sans-serif"
         font-weight="400"
         font-size="15px"
         transform="translate(435.691,82)"
         id="text9756">Operations</text><rect
         x="367.5"
         y="98.500099"
         width="210"
         height="44"
         stroke="#000000"
         stroke-width="0.666667"
         stroke-linejoin="round"
         stroke-miterlimit="10"
         fill="none"
         id="rect9758" /><text
         font-family="Calibri, Calibri_MSFontService, sans-serif"
         font-weight="400"
         font-size="15px"
         transform="translate(441.441,116)"
         id="text9764">Calculate<tspan
   font-size="15px"
   x="1.74667"
   y="17"
   id="tspan9760">Evaluate</tspan><tspan
   font-size="15px"
   x="-1.66669"
   y="60"
   id="tspan9762">Operands</tspan></text><rect
         x="367.5"
         y="192.5"
         width="210"
         height="63"
         stroke="#000000"
         stroke-width="0.666667"
         stroke-linejoin="round"
         stroke-miterlimit="10"
         fill="none"
         id="rect9766" /><text
         font-family="Calibri, Calibri_MSFontService, sans-serif"
         font-weight="400"
         font-size="15px"
         transform="translate(450.941,211)"
         id="text9832">Name<tspan
   font-size="15px"
   x="3.8333099"
   y="17"
   id="tspan9768">Data</tspan><tspan
   font-size="15px"
   x="3.3333099"
   y="35"
   id="tspan9770">Type</tspan><tspan
   font-size="15px"
   x="-12.1667"
   y="277"
   id="tspan9772">Attributes</tspan><tspan
   fill="#7d3368"
   font-size="15px"
   x="-448.841"
   y="312"
   id="tspan9774">Mechanism</tspan><tspan
   font-size="15px"
   x="-427.841"
   y="329"
   id="tspan9776">Function</tspan><tspan
   font-size="15px"
   x="-427.841"
   y="347"
   id="tspan9778">Operator</tspan><tspan
   font-size="15px"
   x="-427.841"
   y="365"
   id="tspan9780">Method</tspan><tspan
   font-size="15px"
   x="-427.841"
   y="382"
   id="tspan9782">Lambda</tspan><tspan
   font-size="15px"
   x="-427.841"
   y="400"
   id="tspan9784">Expression</tspan><tspan
   font-size="15px"
   x="-427.841"
   y="417"
   id="tspan9786">Procedure</tspan><tspan
   fill="#7d3368"
   font-size="15px"
   x="-286.11099"
   y="312"
   id="tspan9788">Source Code</tspan><tspan
   font-size="15px"
   x="-265.11099"
   y="329"
   id="tspan9790">Codebase</tspan><tspan
   font-size="15px"
   x="-265.11099"
   y="347"
   id="tspan9792">Third</tspan><tspan
   font-size="15px"
   x="-234.11099"
   y="347"
   id="tspan9794">-</tspan>Party<tspan
   font-size="15px"
   x="-265.11099"
   y="365"
   id="tspan9796">Standard Library</tspan><tspan
   font-size="15px"
   x="-265.11099"
   y="382"
   id="tspan9798">Compiler/Interp</tspan><tspan
   font-size="15px"
   x="-265.11099"
   y="400"
   id="tspan9800">reter</tspan><tspan
   fill="#7d3368"
   font-size="15px"
   x="-123.382"
   y="312"
   id="tspan9802">Execution Space</tspan><tspan
   font-size="15px"
   x="-102.382"
   y="329"
   id="tspan9804">Local</tspan><tspan
   font-size="15px"
   x="-102.382"
   y="347"
   id="tspan9806">Admin</tspan><tspan
   font-size="15px"
   x="-102.382"
   y="365"
   id="tspan9808">Bare</tspan>-Metal<tspan
   fill="#7d3368"
   font-size="15px"
   x="39.3479"
   y="312"
   id="tspan9810">Name State</tspan><tspan
   font-size="15px"
   x="60.3479"
   y="329"
   id="tspan9812">Bound</tspan><tspan
   font-size="15px"
   x="60.3479"
   y="347"
   id="tspan9814">Resolved</tspan><tspan
   fill="#7d3368"
   font-size="15px"
   x="202.078"
   y="312"
   id="tspan9816">Data Kind</tspan><tspan
   font-size="15px"
   x="223.078"
   y="329"
   id="tspan9818">Numeric</tspan><tspan
   font-size="15px"
   x="223.078"
   y="347"
   id="tspan9820">Text</tspan><tspan
   font-size="15px"
   x="223.078"
   y="365"
   id="tspan9822">Pointer</tspan><tspan
   font-size="15px"
   x="223.078"
   y="382"
   id="tspan9824">Boolean</tspan><tspan
   fill="#7d3368"
   font-size="15px"
   x="364.80701"
   y="312"
   id="tspan9826">Type Kind</tspan><tspan
   font-size="15px"
   x="385.80701"
   y="329"
   id="tspan9828">Primitive</tspan><tspan
   font-size="15px"
   x="385.80701"
   y="347"
   id="tspan9830">Structure</tspan></text><path
         d="M 0,669.167 C 0,666.866 1.86552,665 4.16675,665 H 37.8333 C 40.1345,665 42,666.866 42,669.167 v 16.666 C 42,688.134 40.1345,690 37.8333,690 H 4.16675 C 1.86552,690 0,688.134 0,685.833 Z"
         fill="#e8effc"
         fill-rule="evenodd"
         id="path9834" /><text
         font-family="Calibri, Calibri_MSFontService, sans-serif"
         font-weight="400"
         font-size="15px"
         transform="translate(44.0945,683)"
         id="text9836">Bug</text><path
         d="m 236,669.167 c 0,-2.301 1.866,-4.167 4.167,-4.167 h 33.666 c 2.301,0 4.167,1.866 4.167,4.167 v 16.666 c 0,2.301 -1.866,4.167 -4.167,4.167 H 240.167 C 237.866,690 236,688.134 236,685.833 Z"
         fill="#f4f2f8"
         fill-rule="evenodd"
         id="path9838" /><text
         font-family="Calibri, Calibri_MSFontService, sans-serif"
         font-weight="400"
         font-size="15px"
         transform="translate(280.315,683)"
         id="text9840">Fault/Error</text><path
         d="m 472,669.167 c 0,-2.301 1.866,-4.167 4.167,-4.167 h 33.666 c 2.301,0 4.167,1.866 4.167,4.167 v 16.666 c 0,2.301 -1.866,4.167 -4.167,4.167 H 476.167 C 473.866,690 472,688.134 472,685.833 Z"
         fill="#dfdaea"
         fill-rule="evenodd"
         id="path9842" /><text
         font-family="Calibri, Calibri_MSFontService, sans-serif"
         font-weight="400"
         font-size="15px"
         transform="translate(516.535,683)"
         id="text9844">Final Error</text><rect
         x="709.5"
         y="665.5"
         width="42"
         height="25"
         stroke="#000000"
         stroke-width="0.666667"
         stroke-linejoin="round"
         stroke-miterlimit="10"
         fill="none"
         id="rect9846" /><text
         font-family="Calibri, Calibri_MSFontService, sans-serif"
         font-weight="400"
         font-size="15px"
         transform="translate(752.756,683)"
         id="text9848">Operation/Operand</text></g></g></svg>
