<?xml version="1.0" encoding="UTF-8" standalone="no"?>
<!-- Created with Inkscape (http://www.inkscape.org/) -->

<svg
   width="250.03125mm"
   height="168.86406mm"
   viewBox="0 0 250.03124 168.86405"
   version="1.1"
   id="svg5"
   inkscape:export-filename="..\_DAT\NRS.png"
   inkscape:export-xdpi="96"
   inkscape:export-ydpi="96"
   xml:space="preserve"
   inkscape:version="1.2.2 (b0a8486541, 2022-12-01)"
   sodipodi:docname="TCV.svg"
   xmlns:inkscape="http://www.inkscape.org/namespaces/inkscape"
   xmlns:sodipodi="http://sodipodi.sourceforge.net/DTD/sodipodi-0.dtd"
   xmlns="http://www.w3.org/2000/svg"
   xmlns:svg="http://www.w3.org/2000/svg"><sodipodi:namedview
     id="namedview7"
     pagecolor="#ffffff"
     bordercolor="#000000"
     borderopacity="0.25"
     inkscape:showpageshadow="2"
     inkscape:pageopacity="0.0"
     inkscape:pagecheckerboard="0"
     inkscape:deskcolor="#d1d1d1"
     inkscape:document-units="mm"
     showgrid="false"
     inkscape:zoom="0.914906"
     inkscape:cx="156.30021"
     inkscape:cy="206.03209"
     inkscape:window-width="1350"
     inkscape:window-height="1230"
     inkscape:window-x="179"
     inkscape:window-y="914"
     inkscape:window-maximized="0"
     inkscape:current-layer="layer1" /><defs
     id="defs2"><clipPath
       id="clip0"><rect
         x="-25"
         y="0"
         width="785"
         height="1091"
         id="rect9" /></clipPath><clipPath
       id="clip0-8"><rect
         x="-25"
         y="0"
         width="785"
         height="524"
         id="rect520" /></clipPath><clipPath
       id="clip0-3"><rect
         x="-25"
         y="0"
         width="785"
         height="1091"
         id="rect699" /></clipPath><clipPath
       id="clip0-0"><rect
         x="-25"
         y="0"
         width="785"
         height="1091"
         id="rect1109" /></clipPath><clipPath
       id="clip0-4"><rect
         x="-25"
         y="0"
         width="934"
         height="905"
         id="rect1519" /></clipPath><clipPath
       id="clip0-42"><rect
         x="-7"
         y="0"
         width="952"
         height="590"
         id="rect1929" /></clipPath><clipPath
       id="clip0-1"><rect
         x="-25"
         y="0"
         width="785"
         height="1091"
         id="rect2197" /></clipPath><clipPath
       id="clip0-6"><rect
         x="-25"
         y="0"
         width="785"
         height="1091"
         id="rect2806" /></clipPath><clipPath
       id="clip0-66"><rect
         x="11"
         y="-21"
         width="934"
         height="904"
         id="rect3369" /></clipPath><clipPath
       id="clip0-41"><rect
         x="-7"
         y="0"
         width="743"
         height="335"
         id="rect3934" /></clipPath><clipPath
       id="clip0-7"><rect
         x="-7"
         y="0"
         width="743"
         height="335"
         id="rect4109" /></clipPath><clipPath
       id="clip0-9"><rect
         x="-25"
         y="0"
         width="785"
         height="524"
         id="rect4320" /></clipPath><clipPath
       id="clip0-96"><rect
         x="-25"
         y="0"
         width="785"
         height="713"
         id="rect4583" /></clipPath><clipPath
       id="clip0-08"><rect
         x="144"
         y="424"
         width="837"
         height="501"
         id="rect4932" /></clipPath><clipPath
       id="clip0-87"><rect
         x="144"
         y="424"
         width="837"
         height="501"
         id="rect5261" /></clipPath><clipPath
       id="clip0-68"><rect
         x="201"
         y="68"
         width="837"
         height="501"
         id="rect5590" /></clipPath><clipPath
       id="clip0-69"><rect
         x="212"
         y="141"
         width="635"
         height="281"
         id="rect6057" /></clipPath><clipPath
       id="clip0-44"><rect
         x="75"
         y="7"
         width="780"
         height="757"
         id="rect6214" /></clipPath><clipPath
       id="clip0-38"><rect
         x="75"
         y="8"
         width="780"
         height="752"
         id="rect6713" /></clipPath><clipPath
       id="clip0-080"><rect
         x="62"
         y="92"
         width="671"
         height="543"
         id="rect7166" /></clipPath><clipPath
       id="clip0-48"><rect
         x="678"
         y="67"
         width="591"
         height="294"
         id="rect7433" /></clipPath><clipPath
       id="clip0-00"><rect
         x="-7"
         y="0"
         width="952"
         height="574"
         id="rect7818" /></clipPath><clipPath
       id="clip0-2"><rect
         x="-7"
         y="0"
         width="952"
         height="543"
         id="rect8173" /></clipPath><clipPath
       id="clip0-09"><rect
         x="-7"
         y="0"
         width="952"
         height="612"
         id="rect8510" /></clipPath><clipPath
       id="clip0-99"><rect
         x="-7"
         y="0"
         width="952"
         height="659"
         id="rect8897" /></clipPath><clipPath
       id="clip0-31"><rect
         x="-7"
         y="0"
         width="952"
         height="653"
         id="rect9282" /></clipPath></defs><g
     inkscape:label="Layer 1"
     inkscape:groupmode="layer"
     id="layer1"
     transform="translate(-62.381871,-185.779)"><g
       clip-path="url(#clip0-31)"
       transform="matrix(0.26458333,0,0,0.26458333,62.381871,183.50175)"
       id="g9447"><text
         fill="#7d3368"
         font-family="Calibri, Calibri_MSFontService, sans-serif"
         font-weight="400"
         font-size="15px"
         transform="translate(384.933,19)"
         id="text9291">Data Type (_DAT) BF Cluster<tspan
   fill="#000000"
   font-size="15px"
   x="-8.91998"
   y="35"
   id="tspan9287">Type Conversion (TCV) BF Class</tspan><tspan
   fill="#000000"
   font-size="15px"
   x="-251.786"
   y="63"
   id="tspan9289">Causes</tspan></text><path
         d="M 0,108.5 C 0,102.701 4.70116,98 10.5003,98 H 304.5 c 5.799,0 10.5,4.701 10.5,10.5 v 42 c 0,5.799 -4.701,10.5 -10.5,10.5 H 10.5003 C 4.70116,161 0,156.299 0,150.5 Z"
         fill="#e8effc"
         fill-rule="evenodd"
         id="path9293" /><text
         fill="#7d3368"
         font-family="Calibri, Calibri_MSFontService, sans-serif"
         font-weight="400"
         font-size="15px"
         transform="translate(5.1748,116)"
         id="text9299">Code Defect Bug<tspan
   fill="#000000"
   font-size="15px"
   x="222.83299"
   y="17"
   id="tspan9295">Wrong Code</tspan><tspan
   fill="#000000"
   font-size="15px"
   x="218.16701"
   y="35"
   id="tspan9297">Missing Code</tspan></text><path
         d="m 0.0151359,-0.332989 9.6250041,0.4375 4.45506,0.438764 4.0188,0.627385 3.3287,0.69046 2.6559,0.82045 c 0.0189,0.00586 0.0373,0.01339 0.0548,0.02251 l 1.6875,0.875 c 0.0517,0.02681 0.0955,0.06669 0.127,0.11567 l 0.5625,0.875 0.5625,0.875 -0.127,-0.11567 1.6875,0.875 -0.0548,-0.02251 2.625,0.8125 3.2816,0.67955 3.9838,0.62204 4.4187,0.43511 2.9378,0.11744 L 45.8188,9.51434 42.8423,9.39422 38.386,8.95434 34.3698,8.32638 31.0264,7.63093 28.4014,6.81843 C 28.3825,6.81257 28.3641,6.80504 28.3466,6.79592 l -1.6875,-0.875 C 26.6074,5.89411 26.5636,5.85423 26.5321,5.80525 l -0.5625,-0.875 -0.5625,-0.875 0.127,0.11567 -1.6875,-0.875 0.0548,0.02251 L 21.3073,2.51388 18.011,1.82934 14.0298,1.20673 9.60986,0.770489 -0.0151359,0.332989 Z M 44.6604,5.13098 l 7.833,4.31784 -8.154,3.67568 z"
         transform="matrix(1,0,0,-1,315.5,129.949)"
         id="path9301" /><path
         d="M 0,189.667 C 0,182.119 6.11887,176 13.6669,176 H 301.333 c 7.548,0 13.667,6.119 13.667,13.667 v 54.666 C 315,251.881 308.881,258 301.333,258 H 13.6669 C 6.11887,258 0,251.881 0,244.333 Z"
         fill="#f4f2f8"
         fill-rule="evenodd"
         id="path9303" /><text
         fill="#7d3368"
         font-family="Calibri, Calibri_MSFontService, sans-serif"
         font-weight="400"
         font-size="15px"
         transform="translate(6.09722,195)"
         id="text9311">Name Fault<tspan
   fill="#000000"
   font-size="15px"
   x="155.33299"
   y="17"
   id="tspan9305">Wrong Object Resolved</tspan><tspan
   fill="#000000"
   font-size="15px"
   x="123.167"
   y="35"
   id="tspan9307">Wrong Object Type Resolved</tspan><tspan
   fill="#000000"
   font-size="15px"
   x="122.333"
   y="53"
   id="tspan9309">Missing Overloaded Function</tspan></text><path
         d="M 0.0340096,-0.331594 2.47151,-0.0815938 c 0.02684,0.0027524 0.05322,0.0087479 0.07861,0.0178623 L 4.98762,0.811268 C 5.00327,0.816885 5.0184,0.823628 5.03303,0.83151 l 2.4375,1.3125 C 7.48561,2.15213 7.5,2.16137 7.51365,2.1717 l 2.3125,1.75 2.28455,2.2801 2.2053,2.58178 4.0273,6.28672 c 0.009,0.0141 0.0169,0.0288 0.0237,0.0441 l 3.3125,7.4375 2.6381,8.2845 1.6973,8.8509 0.5678,9.1672 0.5625,9.125 1.6822,8.7703 2.6152,8.2116 3.299,7.3395 -0.0233,-0.0431 4,6.25 2.1602,2.5258 2.2322,2.2307 -0.0645,-0.0503 3.3101,1.9815 -0.3424,0.572 -3.3101,-1.9815 c -0.0235,-0.0141 -0.0452,-0.031 -0.0645,-0.0503 l -2.2678,-2.2693 -2.2148,-2.5992 -4,-6.25 C 34.1479,82.6034 34.1401,82.589 34.1334,82.5741 l -3.326,-7.4105 -2.6348,-8.2884 -1.6928,-8.8547 -0.5625,-9.125 -0.5572,-9.0828 -1.6777,-8.7741 -2.6119,-8.2155 -3.3125,-7.4375 0.0237,0.0441 L 13.809,9.21642 11.6393,6.6732 9.42385,4.4533 l -2.3125,-1.75 0.04312,0.02769 -2.4375,-1.3125 0.04541,0.02024 -2.4375,-0.874998 0.07861,0.017862 -2.4374996,-0.25 z M 46.2173,91.2652 l 6.2761,6.3726 -8.8637,1.1974 z"
         transform="matrix(1,0,0,-1,315.5,218.138)"
         id="path9313" /><path
         d="M 0,287.667 C 0,280.119 6.11887,274 13.6669,274 H 301.333 c 7.548,0 13.667,6.119 13.667,13.667 v 54.666 C 315,349.881 308.881,356 301.333,356 H 13.6669 C 6.11887,356 0,349.881 0,342.333 Z"
         fill="#f4f2f8"
         fill-rule="evenodd"
         id="path9315" /><text
         fill="#7d3368"
         font-family="Calibri, Calibri_MSFontService, sans-serif"
         font-weight="400"
         font-size="15px"
         transform="translate(6.09722,293)"
         id="text9323">Data Fault<tspan
   fill="#000000"
   font-size="15px"
   x="217.83299"
   y="17"
   id="tspan9317">Under Range</tspan><tspan
   fill="#000000"
   font-size="15px"
   x="226.16701"
   y="35"
   id="tspan9319">Over Range</tspan><tspan
   fill="#000000"
   font-size="15px"
   x="223.66701"
   y="53"
   id="tspan9321">Flipped Sign</tspan></text><path
         d="M 0.0749532,-0.324797 2.51245,0.237703 C 2.55167,0.246752 2.58892,0.262827 2.6224,0.28515 l 2.4375,1.625 c 0.0217,0.01447 0.04162,0.03142 0.05936,0.05053 l 2.4375,2.625 c 0.01306,0.01406 0.02488,0.02923 0.03533,0.04533 l 2.3125,3.5625 2.26771,4.46829 2.1979,5.2725 2.0693,5.8928 1.9429,6.6418 1.7538,7.1391 1.5653,7.6376 1.4392,8.0709 1.1894,8.4495 1.6892,17.7023 0.5639,18.2089 0.5625,18.1878 1.6861,17.666 1.1857,8.36 1.4357,8.05 1.561,7.68 1.747,7.112 1.9335,6.548 2.0577,5.922 2.1797,5.167 2.2402,4.417 2.2948,3.531 -0.0773,-0.083 1.6444,1.256 -0.4046,0.529 -1.6444,-1.255 c -0.0303,-0.023 -0.0565,-0.051 -0.0773,-0.084 l -2.3302,-3.593 -2.2598,-4.458 -2.1953,-5.208 -2.0673,-5.953 -1.9415,-6.577 -1.753,-7.138 -1.564,-7.695 -1.4393,-8.075 -1.1893,-8.39 L 26.4793,115.885 25.9168,97.6978 25.3557,79.5317 23.6699,61.859 22.4843,53.4335 21.0485,45.3794 19.4888,37.767 17.7426,30.6561 15.8105,24.0479 13.7548,18.1907 11.5777,12.9632 9.34541,8.55649 7.03291,4.99399 7.06824,5.03932 4.63074,2.41432 4.6901,2.46485 2.2526,0.83985 2.36255,0.887297 -0.0749532,0.324797 Z M 47.8116,187.655 l 4.6818,7.621 -8.9059,-0.828 z"
         transform="matrix(1,0,0,-1,315.5,315.776)"
         id="path9325" /><path
         d="M 0,382.5 C 0,376.701 4.70116,372 10.5003,372 H 304.5 c 5.799,0 10.5,4.701 10.5,10.5 v 42 c 0,5.799 -4.701,10.5 -10.5,10.5 H 10.5003 C 4.70116,435 0,430.299 0,424.5 Z"
         fill="#f4f2f8"
         fill-rule="evenodd"
         id="path9327" /><text
         fill="#7d3368"
         font-family="Calibri, Calibri_MSFontService, sans-serif"
         font-weight="400"
         font-size="15px"
         transform="translate(5.1748,390)"
         id="text9333">Type Fault<tspan
   fill="#000000"
   font-size="15px"
   x="224.5"
   y="17"
   id="tspan9329">Wrong Type</tspan><tspan
   fill="#000000"
   font-size="15px"
   x="160.16701"
   y="35"
   id="tspan9331">Mismatched Argument</tspan></text><path
         d="m 0.0494468,-0.329645 1.2500032,0.1875 c 0.03696,0.005544 0.07273,0.017265 0.1058,0.034672 l 1.1875,0.625 C 2.61146,0.527378 2.62922,0.538998 2.64573,0.55221 l 1.25,1 c 0.01595,0.01276 0.03069,0.02696 0.04404,0.04242 l 1.1875,1.375 c 0.01045,0.01209 0.01996,0.02485 0.02857,0.03832 l 2.4375,3.8125 c 0.00895,0.014 0.01685,0.02865 0.02361,0.04383 l 2.3125,5.18752 2.26025,6.4632 2.193,7.5799 2.0664,8.577 1.9401,9.5744 1.752,10.3858 1.5639,11.0713 1.4382,11.6934 1.1885,12.2585 0.9381,12.6947 0.7504,12.943 0.563,26.45 0.5625,26.437 0.7495,12.926 0.9371,12.682 1.1869,12.242 1.4365,11.679 1.5618,11.057 1.7486,10.366 1.9355,9.552 2.0599,8.55 2.1836,7.548 2.2445,6.421 2.3023,5.161 -0.0463,-0.075 2.1931,2.687 -0.5165,0.421 -2.193,-2.686 c -0.0187,-0.023 -0.0342,-0.048 -0.0463,-0.075 l -2.3227,-5.214 -2.2555,-6.454 -2.1914,-7.577 -2.0651,-8.575 -1.9395,-9.573 -1.7514,-10.384 -1.5632,-11.068 -1.4385,-11.696 -1.1881,-12.258 -0.9379,-12.693 -0.7505,-12.949 -0.5625,-26.438 -0.562,-26.425 L 24.6051,102.4 23.6682,89.7197 22.4817,77.4782 21.0449,65.7966 19.4838,54.7429 17.7358,44.3787 15.8009,34.8281 13.7423,26.2801 11.5603,18.735 9.32055,12.3232 7.00805,7.13572 l 0.02361,0.04383 -2.4375,-3.8125 0.02857,0.03832 -1.1875,-1.375 0.04404,0.04242 -1.25,-1 0.05298,0.03468 -1.1875,-0.624997 0.1058,0.034672 -1.2499968,-0.1875 z M 48.9249,275.263 l 3.5685,8.202 -8.7023,-2.067 z"
         transform="matrix(1,0,0,-1,315.5,403.965)"
         id="path9335" /><text
         font-family="Calibri, Calibri_MSFontService, sans-serif"
         font-weight="400"
         font-size="15px"
         transform="translate(740.818,82)"
         id="text9337">Consequences</text><path
         d="M 630,105.334 C 630,101.283 633.283,98 637.333,98 h 300.334 c 4.05,0 7.333,3.283 7.333,7.334 v 29.332 c 0,4.051 -3.283,7.334 -7.333,7.334 H 637.333 c -4.05,0 -7.333,-3.283 -7.333,-7.334 z"
         fill="#f4f2f8"
         fill-rule="evenodd"
         id="path9339" /><text
         fill="#7d3368"
         font-family="Calibri, Calibri_MSFontService, sans-serif"
         font-weight="400"
         font-size="15px"
         transform="translate(634.174,115)"
         id="text9343">Type Error<tspan
   fill="#000000"
   font-size="15px"
   x="226.33299"
   y="17"
   id="tspan9341">Wrong Type</tspan></text><path
         d="m 577.5,120.167 h 9.625 4.438 4 3.312 2.625 1.688 0.562 0.563 1.687 2.625 3.313 4 4.437 2.952 v 0.666 h -2.952 -4.437 -4 -3.313 -2.625 -1.687 -0.563 -0.562 -1.688 -2.625 -3.312 -4 -4.438 -9.625 z m 44.494,-3.667 7.999,4 -8,4 z"
         id="path9345" /><path
         d="M 630,173.834 C 630,164.537 637.537,157 646.834,157 h 281.332 c 9.297,0 16.834,7.537 16.834,16.834 v 67.332 C 945,250.463 937.463,258 928.166,258 H 646.834 C 637.537,258 630,250.463 630,241.166 Z"
         fill="#f4f2f8"
         fill-rule="evenodd"
         id="path9347" /><text
         fill="#7d3368"
         font-family="Calibri, Calibri_MSFontService, sans-serif"
         font-weight="400"
         font-size="15px"
         transform="translate(636.941,177)"
         id="text9357">Data Error<tspan
   fill="#000000"
   font-size="15px"
   x="216"
   y="17"
   id="tspan9349">Wrong Value</tspan><tspan
   fill="#000000"
   font-size="15px"
   x="195.66701"
   y="35"
   id="tspan9351">Truncated Value</tspan><tspan
   fill="#000000"
   font-size="15px"
   x="200.83299"
   y="53"
   id="tspan9353">Distorted Value</tspan><tspan
   fill="#000000"
   font-size="15px"
   x="202.66701"
   y="70"
   id="tspan9355">Rounded Value</tspan></text><path
         d="m 577.534,120.168 2.438,0.25 c 0.021,0.003 0.043,0.007 0.064,0.013 l 2.437,0.75 c 0.017,0.006 0.033,0.012 0.048,0.019 l 2.438,1.188 c 0.015,0.008 0.031,0.017 0.045,0.027 l 2.313,1.625 2.279,2.023 2.209,2.333 c 0.011,0.012 0.021,0.024 0.03,0.037 l 4,5.688 c 0.01,0.013 0.018,0.028 0.026,0.042 l 3.312,6.625 2.642,7.539 1.699,7.979 0.569,8.296 0.562,8.25 1.681,7.891 2.613,7.396 3.297,6.651 -0.027,-0.046 4,5.625 2.161,2.343 2.223,1.91 -0.057,-0.039 3.263,1.802 -0.322,0.584 -3.263,-1.802 c -0.02,-0.011 -0.039,-0.024 -0.056,-0.039 l -2.278,-1.965 -2.214,-2.407 -4,-5.625 c -0.01,-0.015 -0.019,-0.03 -0.027,-0.045 l -3.328,-6.725 -2.637,-7.479 -1.694,-7.984 -0.563,-8.25 -0.555,-8.204 -1.677,-7.896 -2.608,-7.461 -3.313,-6.625 0.026,0.042 -4,-5.687 0.03,0.037 -2.166,-2.292 -2.221,-1.977 -2.312,-1.625 0.046,0.027 -2.438,-1.187 0.048,0.019 -2.437,-0.75 0.064,0.013 -2.438,-0.25 z m 46.04,82.293 6.419,6.228 -8.834,1.399 z"
         id="path9359" /><text
         font-family="Calibri, Calibri_MSFontService, sans-serif"
         font-weight="400"
         font-size="15px"
         transform="translate(435.691,82)"
         id="text9361">Operations</text><rect
         x="367.5"
         y="98.500099"
         width="210"
         height="44"
         stroke="#000000"
         stroke-width="0.666667"
         stroke-linejoin="round"
         stroke-miterlimit="10"
         fill="none"
         id="rect9363" /><text
         font-family="Calibri, Calibri_MSFontService, sans-serif"
         font-weight="400"
         font-size="15px"
         transform="translate(456.021,116)"
         id="text9369">Cast<tspan
   font-size="15px"
   x="-8.0799904"
   y="17"
   id="tspan9365">Coerce</tspan><tspan
   font-size="15px"
   x="-16.2467"
   y="60"
   id="tspan9367">Operands</tspan></text><rect
         x="367.5"
         y="192.5"
         width="210"
         height="63"
         stroke="#000000"
         stroke-width="0.666667"
         stroke-linejoin="round"
         stroke-miterlimit="10"
         fill="none"
         id="rect9371" /><text
         font-family="Calibri, Calibri_MSFontService, sans-serif"
         font-weight="400"
         font-size="15px"
         transform="translate(450.941,211)"
         id="text9429">Name<tspan
   font-size="15px"
   x="3.8333099"
   y="17"
   id="tspan9373">Data</tspan><tspan
   font-size="15px"
   x="3.3333099"
   y="35"
   id="tspan9375">Type</tspan><tspan
   font-size="15px"
   x="-12.1667"
   y="258"
   id="tspan9377">Attributes</tspan><tspan
   fill="#7d3368"
   font-size="15px"
   x="-448.841"
   y="293"
   id="tspan9379">Mechanism</tspan><tspan
   font-size="15px"
   x="-427.841"
   y="310"
   id="tspan9381">Pass In</tspan><tspan
   font-size="15px"
   x="-427.841"
   y="328"
   id="tspan9383">Pass Out</tspan><tspan
   fill="#7d3368"
   font-size="15px"
   x="-286.11099"
   y="293"
   id="tspan9385">Source Code</tspan><tspan
   font-size="15px"
   x="-265.11099"
   y="310"
   id="tspan9387">Codebase</tspan><tspan
   font-size="15px"
   x="-265.11099"
   y="328"
   id="tspan9389">Third</tspan><tspan
   font-size="15px"
   x="-234.11099"
   y="328"
   id="tspan9391">-</tspan>Party<tspan
   font-size="15px"
   x="-265.11099"
   y="346"
   id="tspan9393">Standard Library</tspan><tspan
   font-size="15px"
   x="-265.11099"
   y="363"
   id="tspan9395">Compiler/Interp</tspan><tspan
   font-size="15px"
   x="-265.11099"
   y="381"
   id="tspan9397">reter</tspan><tspan
   fill="#7d3368"
   font-size="15px"
   x="-123.382"
   y="293"
   id="tspan9399">Execution Space</tspan><tspan
   font-size="15px"
   x="-102.382"
   y="310"
   id="tspan9401">Local</tspan><tspan
   font-size="15px"
   x="-102.382"
   y="328"
   id="tspan9403">Admin</tspan><tspan
   font-size="15px"
   x="-102.382"
   y="346"
   id="tspan9405">Bare</tspan>-Metal<tspan
   fill="#7d3368"
   font-size="15px"
   x="39.3479"
   y="293"
   id="tspan9407">Name State</tspan><tspan
   font-size="15px"
   x="60.3479"
   y="310"
   id="tspan9409">Bound</tspan><tspan
   font-size="15px"
   x="60.3479"
   y="328"
   id="tspan9411">Resolved</tspan><tspan
   fill="#7d3368"
   font-size="15px"
   x="202.078"
   y="293"
   id="tspan9413">Data Kind</tspan><tspan
   font-size="15px"
   x="223.078"
   y="310"
   id="tspan9415">Numeric</tspan><tspan
   font-size="15px"
   x="223.078"
   y="328"
   id="tspan9417">Text</tspan><tspan
   font-size="15px"
   x="223.078"
   y="346"
   id="tspan9419">Pointer</tspan><tspan
   font-size="15px"
   x="223.078"
   y="363"
   id="tspan9421">Boolean</tspan><tspan
   fill="#7d3368"
   font-size="15px"
   x="364.80701"
   y="293"
   id="tspan9423">Type Kind</tspan><tspan
   font-size="15px"
   x="385.80701"
   y="310"
   id="tspan9425">Primitive</tspan><tspan
   font-size="15px"
   x="385.80701"
   y="328"
   id="tspan9427">Structure</tspan></text><path
         d="M 0,624.333 C 0,621.94 1.94014,620 4.33343,620 H 37.6666 C 40.0599,620 42,621.94 42,624.333 v 17.334 C 42,644.06 40.0599,646 37.6666,646 H 4.33343 C 1.94014,646 0,644.06 0,641.667 Z"
         fill="#e8effc"
         fill-rule="evenodd"
         id="path9431" /><text
         font-family="Calibri, Calibri_MSFontService, sans-serif"
         font-weight="400"
         font-size="15px"
         transform="translate(44.0945,639)"
         id="text9433">Bug</text><path
         d="m 236,624.333 c 0,-2.393 1.94,-4.333 4.333,-4.333 h 33.334 c 2.393,0 4.333,1.94 4.333,4.333 v 17.334 c 0,2.393 -1.94,4.333 -4.333,4.333 H 240.333 C 237.94,646 236,644.06 236,641.667 Z"
         fill="#f4f2f8"
         fill-rule="evenodd"
         id="path9435" /><text
         font-family="Calibri, Calibri_MSFontService, sans-serif"
         font-weight="400"
         font-size="15px"
         transform="translate(280.315,639)"
         id="text9437">Fault/Error</text><path
         d="m 472,624.333 c 0,-2.393 1.94,-4.333 4.333,-4.333 h 33.334 c 2.393,0 4.333,1.94 4.333,4.333 v 17.334 c 0,2.393 -1.94,4.333 -4.333,4.333 H 476.333 C 473.94,646 472,644.06 472,641.667 Z"
         fill="#dfdaea"
         fill-rule="evenodd"
         id="path9439" /><text
         font-family="Calibri, Calibri_MSFontService, sans-serif"
         font-weight="400"
         font-size="15px"
         transform="translate(516.535,639)"
         id="text9441">Final Error</text><rect
         x="709.5"
         y="620.5"
         width="42"
         height="26"
         stroke="#000000"
         stroke-width="0.666667"
         stroke-linejoin="round"
         stroke-miterlimit="10"
         fill="none"
         id="rect9443" /><text
         font-family="Calibri, Calibri_MSFontService, sans-serif"
         font-weight="400"
         font-size="15px"
         transform="translate(752.756,639)"
         id="text9445">Operation/Operand</text></g></g></svg>
