<?xml version="1.0" encoding="UTF-8" standalone="no"?>
<!-- Created with Inkscape (http://www.inkscape.org/) -->

<svg
   width="277.8125mm"
   height="239.71194mm"
   viewBox="0 0 277.8125 239.71194"
   version="1.1"
   id="svg1"
   inkscape:version="1.3.2 (091e20e, 2023-11-25, custom)"
   sodipodi:docname="MAD.svg"
   xmlns:inkscape="http://www.inkscape.org/namespaces/inkscape"
   xmlns:sodipodi="http://sodipodi.sourceforge.net/DTD/sodipodi-0.dtd"
   xmlns="http://www.w3.org/2000/svg"
   xmlns:svg="http://www.w3.org/2000/svg">
  <sodipodi:namedview
     id="namedview1"
     pagecolor="#ffffff"
     bordercolor="#000000"
     borderopacity="0.25"
     inkscape:showpageshadow="2"
     inkscape:pageopacity="0.0"
     inkscape:pagecheckerboard="0"
     inkscape:deskcolor="#d1d1d1"
     inkscape:document-units="mm"
     inkscape:zoom="1.0146815"
     inkscape:cx="177.88833"
     inkscape:cy="562.24537"
     inkscape:window-width="2560"
     inkscape:window-height="1377"
     inkscape:window-x="-8"
     inkscape:window-y="859"
     inkscape:window-maximized="1"
     inkscape:current-layer="layer1" />
  <defs
     id="defs1" />
  <g
     inkscape:label="Layer 1"
     inkscape:groupmode="layer"
     id="layer1"
     transform="translate(-57.94375,-166.60042)">
    <g
       transform="matrix(0.26458333,0,0,0.26458333,57.94375,164.26271)"
       id="g81">
      <text
         font-family="Calibri, Calibri_MSFontService, sans-serif"
         font-weight="400"
         font-size="19px"
         transform="translate(441.086,22)"
         id="text1">Bugs Framework (BF)</text>
      <text
         font-family="Calibri, Calibri_MSFontService, sans-serif"
         font-weight="400"
         font-size="16px"
         transform="translate(356.313,65)"
         id="text2">Memory Corruption/Disclosure (_MEM) Class Type</text>
      <text
         fill="#660066"
         font-family="Calibri, Calibri_MSFontService, sans-serif"
         font-weight="400"
         font-size="16px"
         transform="translate(414.58,84)"
         id="text3">Memory Addressing (MAD) Class</text>
      <text
         font-family="Calibri, Calibri_MSFontService, sans-serif"
         font-weight="400"
         font-size="16px"
         transform="translate(148.645,115)"
         id="text4">Causes</text>
      <path
         d="M 0,143.667 C 0,137.224 5.22352,132 11.667,132 h 326.666 c 6.443,0 11.667,5.224 11.667,11.667 v 46.666 C 350,196.776 344.776,202 338.333,202 H 11.667 C 5.22352,202 0,196.776 0,190.333 Z"
         fill="#e8effc"
         fill-rule="evenodd"
         id="path4" />
      <text
         font-family="Calibri, Calibri_MSFontService, sans-serif"
         font-weight="400"
         font-size="16px"
         transform="translate(5.48231,152)"
         id="text5">Code Bug</text>
      <text
         fill="#660066"
         font-family="Calibri, Calibri_MSFontService, sans-serif"
         font-weight="400"
         font-size="16px"
         transform="translate(250.316,171)"
         id="text6">Missing Code</text>
      <text
         fill="#660066"
         font-family="Calibri, Calibri_MSFontService, sans-serif"
         font-weight="400"
         font-size="16px"
         transform="translate(233.242,190)"
         id="text7">Erroneous Code</text>
      <path
         d="m 350.514,167.167 10.708,0.451 4.948,0.519 4.43,0.674 3.75,0.798 2.905,0.894 c 0.019,0.006 0.037,0.013 0.054,0.022 l 1.851,0.949 c 0.05,0.025 0.094,0.064 0.125,0.111 l 0.655,0.979 0.655,0.979 -0.125,-0.111 1.851,0.948 -0.054,-0.022 2.877,0.887 3.702,0.787 4.395,0.668 4.912,0.516 4.026,0.169 -0.028,0.666 -4.068,-0.172 -4.942,-0.52 -4.434,-0.675 -3.76,-0.802 -2.876,-0.887 c -0.018,-0.005 -0.036,-0.013 -0.054,-0.021 l -1.851,-0.949 c -0.05,-0.026 -0.093,-0.064 -0.125,-0.111 l -0.655,-0.979 -0.655,-0.979 0.125,0.111 -1.851,-0.948 0.054,0.021 -2.848,-0.879 -3.712,-0.791 -4.399,-0.67 -4.906,-0.516 -10.708,-0.451 z m 50.487,6.499 7.825,4.333 -8.161,3.659 z"
         id="path7" />
      <path
         d="M 0,239.167 C 0,226.925 9.92453,217 22.167,217 h 305.666 c 12.242,0 22.167,9.925 22.167,22.167 v 88.666 C 350,340.075 340.075,350 327.833,350 H 22.167 C 9.92453,350 0,340.075 0,327.833 Z"
         fill="#f4f2f8"
         fill-rule="evenodd"
         id="path8" />
      <text
         font-family="Calibri, Calibri_MSFontService, sans-serif"
         font-weight="400"
         font-size="16px"
         transform="translate(8.55727,240)"
         id="text8">Data Fault</text>
      <text
         fill="#660066"
         font-family="Calibri, Calibri_MSFontService, sans-serif"
         font-weight="400"
         font-size="16px"
         transform="translate(249.197,259)"
         id="text9">NULL Pointer</text>
      <text
         fill="#660066"
         font-family="Calibri, Calibri_MSFontService, sans-serif"
         font-weight="400"
         font-size="16px"
         transform="translate(207.124,278)"
         id="text10">Hardcoded Address</text>
      <text
         fill="#660066"
         font-family="Calibri, Calibri_MSFontService, sans-serif"
         font-weight="400"
         font-size="16px"
         transform="translate(189.271,298)"
         id="text11">Single Owned Address</text>
      <text
         fill="#660066"
         font-family="Calibri, Calibri_MSFontService, sans-serif"
         font-weight="400"
         font-size="16px"
         transform="translate(251.524,317)"
         id="text12">Wrong Index</text>
      <text
         fill="#660066"
         font-family="Calibri, Calibri_MSFontService, sans-serif"
         font-weight="400"
         font-size="16px"
         transform="translate(261.977,336)"
         id="text13">Wrong Size</text>
      <path
         d="M 0.0369061,-0.331284 2.76737,-0.0271014 c 0.0227,0.0025283 0.04508,0.0073833 0.06678,0.0144864 l 2.70911,0.88666 C 5.56188,0.880138 5.57988,0.887842 5.59714,0.897102 L 8.26353,2.32741 C 8.27795,2.33514 8.29174,2.3439 8.30487,2.35366 l 2.60233,1.93512 2.548,2.4274 2.4337,2.85324 2.3001,3.23988 2.1467,3.5879 3.747,8.0558 2.8915,8.9958 1.8611,9.6171 0.6604,9.9304 0.655,9.8892 1.8458,9.5373 2.8665,8.9185 3.7157,7.9867 2.1163,3.5355 2.2677,3.1948 2.3919,2.8049 2.4932,2.3758 2.5711,1.909 -0.083,-0.045 1.739,0.645 -0.2319,0.625 -1.7389,-0.645 c -0.0296,-0.011 -0.0576,-0.026 -0.083,-0.045 L 47.3876,101.722 44.8471,99.2956 42.4189,96.444 40.1228,93.2056 37.9742,89.609 34.2283,81.5452 31.342,72.5493 29.4855,62.9296 28.8304,53.0404 28.1807,43.1925 26.3395,33.6526 23.4781,24.734 19.7635,16.7393 17.6453,13.1951 15.3815,10.0018 12.9951,7.19855 10.5094,4.82375 7.90706,2.88863 7.9484,2.91489 5.28201,1.48458 5.33589,1.50764 2.62678,0.62098 2.69356,0.635466 -0.0369061,0.331284 Z M 51.8713,99.8451 l 6.4547,6.1919 -8.8262,1.449 z"
         transform="matrix(1,0,0,-1,350.5,283.537)"
         id="path13" />
      <path
         d="M 0,380.167 C 0,371.791 6.79052,365 15.167,365 h 319.666 c 8.376,0 15.167,6.791 15.167,15.167 v 60.666 C 350,449.209 343.209,456 334.833,456 H 15.167 C 6.79052,456 0,449.209 0,440.833 Z"
         fill="#f4f2f8"
         fill-rule="evenodd"
         id="path14" />
      <text
         font-family="Calibri, Calibri_MSFontService, sans-serif"
         font-weight="400"
         font-size="16px"
         transform="translate(6.5073,386)"
         id="text14">Type Fault</text>
      <text
         fill="#660066"
         font-family="Calibri, Calibri_MSFontService, sans-serif"
         font-weight="400"
         font-size="16px"
         transform="translate(257.494,405)"
         id="text15">Cast Pointer</text>
      <text
         fill="#660066"
         font-family="Calibri, Calibri_MSFontService, sans-serif"
         font-weight="400"
         font-size="16px"
         transform="translate(258.294,424)"
         id="text16">Wrong Type</text>
      <text
         fill="#660066"
         font-family="Calibri, Calibri_MSFontService, sans-serif"
         font-weight="400"
         font-size="16px"
         transform="translate(219.201,444)"
         id="text17">Wrong Index Type</text>
      <path
         d="M 0.0792798,-0.323768 2.80975,0.344831 C 2.85126,0.354996 2.89043,0.37305 2.92513,0.398009 L 5.63424,2.3469 c 0.02202,0.01584 0.04201,0.0343 0.05955,0.05499 l 2.6664,3.14384 c 0.01111,0.0131 0.02116,0.02699 0.03012,0.04164 l 2.60229,4.25343 2.5334,5.3081 2.42,6.2396 2.2884,7.0882 2.1368,7.8531 1.9647,8.5338 1.7717,9.1299 1.5575,9.641 1.3222,10.0672 1.8527,21.0679 0.6562,21.7554 0.655,21.737 1.85,21.035 1.3192,10.043 1.5543,9.621 1.7674,9.108 1.9592,8.51 2.1292,7.825 2.2775,7.055 2.4036,6.199 2.507,5.255 2.5857,4.223 -0.0586,-0.072 2.4415,2.246 -0.4514,0.491 -2.4415,-2.246 c -0.0227,-0.021 -0.0425,-0.045 -0.0586,-0.072 l -2.6189,-4.283 -2.5268,-5.301 -2.4165,-6.235 -2.2863,-7.085 -2.1356,-7.851 -1.9639,-8.532 -1.7712,-9.129 -1.5571,-9.64 -1.3223,-10.072 -1.8523,-21.073 -0.655,-21.737 L 28.1759,94.828 26.3263,73.7885 25.007,63.7408 23.4531,54.1205 21.6862,45.0132 19.7279,36.5048 17.5999,28.6814 15.3244,21.6295 12.9243,15.4359 10.4239,10.1887 7.82163,5.9353 7.85176,5.97694 5.18537,2.8331 5.24492,2.88809 2.53581,0.939189 2.65119,0.992367 -0.0792798,0.323768 Z M 53.6378,225.454 l 4.6882,7.617 -8.9066,-0.82 z"
         transform="matrix(1,0,0,-1,350.5,410.571)"
         id="path17" />
      <path
         d="M 0,496.667 C 0,482.492 11.4915,471 25.667,471 H 324.333 C 338.508,471 350,482.492 350,496.667 V 599.333 C 350,613.508 338.508,625 324.333,625 H 25.667 C 11.4915,625 0,613.508 0,599.333 Z"
         fill="#f4f2f8"
         fill-rule="evenodd"
         id="path18" />
      <text
         font-family="Calibri, Calibri_MSFontService, sans-serif"
         font-weight="400"
         font-size="16px"
         transform="translate(9.58226,495)"
         id="text18">Address Fault</text>
      <text
         fill="#660066"
         font-family="Calibri, Calibri_MSFontService, sans-serif"
         font-weight="400"
         font-size="16px"
         transform="translate(252.222,514)"
         id="text19">Wild Pointer</text>
      <text
         fill="#660066"
         font-family="Calibri, Calibri_MSFontService, sans-serif"
         font-weight="400"
         font-size="16px"
         transform="translate(225.556,533)"
         id="text20">Dangling Pointer</text>
      <text
         fill="#660066"
         font-family="Calibri, Calibri_MSFontService, sans-serif"
         font-weight="400"
         font-size="16px"
         transform="translate(216.722,553)"
         id="text21">Untrusted Pointer</text>
      <text
         fill="#660066"
         font-family="Calibri, Calibri_MSFontService, sans-serif"
         font-weight="400"
         font-size="16px"
         transform="translate(209.042,572)"
         id="text22">Overbound Pointer</text>
      <text
         fill="#660066"
         font-family="Calibri, Calibri_MSFontService, sans-serif"
         font-weight="400"
         font-size="16px"
         transform="translate(199.722,591)"
         id="text23">Underbound Pointer</text>
      <text
         fill="#660066"
         font-family="Calibri, Calibri_MSFontService, sans-serif"
         font-weight="400"
         font-size="16px"
         transform="translate(182.769,610)"
         id="text24">Wrong Position Pointer</text>
      <path
         d="M 0.0642897,-0.327075 1.43085,-0.0584641 c 0.03643,0.0071611 0.07142,0.0203597 0.1035,0.0390491 l 1.36389,0.794522 c 0.0228,0.013282 0.04395,0.02923 0.06299,0.047498 L 4.31979,2.12607 C 4.3327,2.13846 4.34464,2.15192 4.3554,2.16623 l 1.35055,1.79545 1.36055,2.30143 1.33924,2.75219 1.31876,3.188 1.2975,3.6083 1.2744,4.0128 1.2494,4.4009 2.4133,9.8969 2.2848,11.2548 2.1343,12.4736 1.9629,13.5577 1.7703,14.5067 1.5564,15.32 1.3214,15.999 1.0648,16.541 0.7871,16.948 0.6554,34.573 0.655,34.563 0.7864,16.933 1.0641,16.529 1.3203,15.986 1.5551,15.308 1.7685,14.492 1.9606,13.542 2.131,12.455 2.28,11.232 2.4073,9.872 1.2432,4.379 1.2675,3.991 1.2878,3.582 1.3048,3.155 1.3183,2.71 -0.0432,-0.067 1.7267,2.084 -0.5133,0.425 -1.7267,-2.083 c -0.017,-0.021 -0.0315,-0.043 -0.0431,-0.067 l -1.3348,-2.747 -1.3161,-3.184 -1.2958,-3.606 -1.2734,-4.011 -1.2496,-4.403 -2.4129,-9.897 -2.2838,-11.252 -2.1337,-12.472 -1.9625,-13.557 -1.77,-14.506 -1.5563,-15.32 -1.3212,-15.998 -1.0647,-16.541 -0.7871,-16.952 -0.655,-34.563 -0.6547,-34.554 -0.7864,-16.936 -1.064,-16.529 L 25.0046,101.303 23.4496,85.9958 21.6813,71.5039 19.7211,57.963 17.5905,45.5096 15.3114,34.2802 12.9045,24.4074 11.661,20.0261 10.3946,16.0371 9.10842,12.458 7.80617,9.30678 6.49236,6.60193 5.17318,4.36243 3.82263,2.56698 3.85824,2.60713 2.49968,1.30366 2.56267,1.35116 1.19878,0.556637 1.30227,0.595686 -0.0642897,0.327075 Z M 54.8722,362.353 l 3.4538,8.251 -8.6727,-2.188 z"
         transform="matrix(1,0,0,-1,350.5,548.104)"
         id="path24" />
      <path
         d="M 0,648.167 C 0,643.656 3.65634,640 8.16667,640 H 341.833 c 4.511,0 8.167,3.656 8.167,8.167 v 32.666 c 0,4.511 -3.656,8.167 -8.167,8.167 H 8.16667 C 3.65634,689 0,685.344 0,680.833 Z"
         fill="#f4f2f8"
         fill-rule="evenodd"
         id="path25" />
      <text
         font-family="Calibri, Calibri_MSFontService, sans-serif"
         font-weight="400"
         font-size="16px"
         transform="translate(4.45722,659)"
         id="text25">Size Fault</text>
      <text
         fill="#660066"
         font-family="Calibri, Calibri_MSFontService, sans-serif"
         font-weight="400"
         font-size="16px"
         transform="translate(237.117,678)"
         id="text26">Insufficient Size</text>
      <path
         d="M 0.0833825,-0.322736 1.44998,0.0303388 C 1.49322,0.0415117 1.53378,0.061262 1.56924,0.0884162 L 2.93316,1.13277 C 2.95497,1.14947 2.97463,1.1688 2.9917,1.19033 l 1.35858,1.71334 c 0.0104,0.01311 0.01981,0.02702 0.02812,0.04154 l 1.35057,2.36003 1.35466,3.01345 1.33507,3.60741 1.31585,4.1819 1.29535,4.7358 1.273,5.2686 1.2482,5.7798 1.2211,6.2691 1.1914,6.7364 1.1591,7.1816 1.1243,7.6048 1.0868,8.0057 1.0466,8.3844 1.9621,17.8146 1.7698,19.0642 1.5562,20.134 1.321,21.026 1.0647,21.739 0.7869,22.274 0.6552,45.439 0.655,45.431 0.7866,22.263 1.0643,21.73 1.3205,21.016 1.5553,20.124 1.7689,19.054 1.961,17.804 1.0456,8.376 1.0857,7.998 1.1231,7.597 1.1576,7.172 1.1896,6.726 1.2186,6.257 1.2451,5.765 1.2686,5.251 1.2893,4.714 1.307,4.154 1.3212,3.571 -0.0249,-0.052 2.1426,3.665 -0.5755,0.336 -2.1426,-3.665 C 51.249,478.835 51.2407,478.818 51.234,478.8 l -1.3319,-3.603 -1.314,-4.178 -1.2943,-4.733 -1.2723,-5.267 -1.2477,-5.779 -1.2208,-6.268 -1.1912,-6.735 -1.159,-7.182 -1.1242,-7.604 -1.0867,-8.005 -1.0467,-8.386 -1.9621,-17.815 -1.7698,-19.064 -1.556,-20.134 -1.321,-21.025 -1.0646,-21.74 -0.787,-22.276 -0.655,-45.432 L 28.1748,198.15 27.3883,175.885 26.3242,154.155 25.0038,133.139 23.4485,113.015 21.6798,93.9618 19.7189,76.1568 18.6732,67.7794 17.5875,59.7816 16.4646,52.1855 15.3071,45.0138 14.1178,38.2887 12.8995,32.0329 11.6548,26.269 10.3869,21.0197 9.09861,16.308 7.79344,12.1573 6.47545,8.59174 5.15035,5.63636 3.79978,3.27634 3.82791,3.31788 2.46933,1.60454 2.52786,1.66209 1.16394,0.617733 1.28321,0.675811 -0.0833825,0.322736 Z M 55.636,478.609 l 2.69,8.53 -8.4381,-2.966 z"
         transform="matrix(1,0,0,-1,350.5,664.639)"
         id="path26" />
      <text
         font-family="Calibri, Calibri_MSFontService, sans-serif"
         font-weight="400"
         font-size="16px"
         transform="translate(824.224,115)"
         id="text27">Consequences</text>
      <path
         d="M 700,143.667 C 700,137.224 705.224,132 711.667,132 h 326.663 c 6.45,0 11.67,5.224 11.67,11.667 v 46.666 c 0,6.443 -5.22,11.667 -11.67,11.667 H 711.667 C 705.224,202 700,196.776 700,190.333 Z"
         fill="#f4f2f8"
         fill-rule="evenodd"
         id="path27" />
      <text
         font-family="Calibri, Calibri_MSFontService, sans-serif"
         font-weight="400"
         font-size="16px"
         transform="translate(705.395,152)"
         id="text28">Data Error</text>
      <text
         fill="#660066"
         font-family="Calibri, Calibri_MSFontService, sans-serif"
         font-weight="400"
         font-size="16px"
         transform="translate(952.035,171)"
         id="text29">NULL Pointer</text>
      <text
         fill="#660066"
         font-family="Calibri, Calibri_MSFontService, sans-serif"
         font-weight="400"
         font-size="16px"
         transform="translate(914.995,190)"
         id="text30">Forbidden Address</text>
      <path
         d="M 0.0140302,-0.333038 10.7223,0.11808 l 4.9478,0.519291 4.4296,0.673519 3.7501,0.7981 2.9053,0.89434 c 0.0185,0.00572 0.0365,0.01303 0.0537,0.02187 L 28.66,3.97358 c 0.0505,0.02586 0.0935,0.06417 0.1251,0.11132 l 0.655,0.97913 0.655,0.97913 -0.125,-0.11132 1.8511,0.94837 -0.0537,-0.02187 2.8764,0.88686 3.702,0.7871 4.3951,0.66803 4.9116,0.5158 4.0268,0.16898 L 51.6513,10.5512 47.5829,10.3791 42.6407,9.85941 38.2071,9.18434 34.4475,8.38227 31.571,7.49542 C 31.5525,7.48971 31.5345,7.48239 31.5173,7.47355 L 29.6661,6.52517 C 29.6156,6.49931 29.5726,6.461 29.541,6.41385 L 28.886,5.43472 28.231,4.45559 28.356,4.56691 26.5049,3.61854 26.5586,3.64041 23.711,2.76103 19.9995,1.96997 15.6004,1.30039 10.6943,0.784156 -0.0140302,0.333038 Z M 50.5015,6.16557 l 7.8246,4.33323 -8.1613,3.6597 z"
         transform="matrix(1,0,0,-1,642.5,177.999)"
         id="path30" />
      <path
         d="M 700,242.667 C 700,228.492 711.492,217 725.667,217 h 298.663 c 14.18,0 25.67,11.492 25.67,25.667 V 345.333 C 1050,359.508 1038.51,371 1024.33,371 H 725.667 C 711.492,371 700,359.508 700,345.333 Z"
         fill="#f4f2f8"
         fill-rule="evenodd"
         id="path31" />
      <text
         font-family="Calibri, Calibri_MSFontService, sans-serif"
         font-weight="400"
         font-size="16px"
         transform="translate(709.495,241)"
         id="text31">Address Error</text>
      <text
         fill="#660066"
         font-family="Calibri, Calibri_MSFontService, sans-serif"
         font-weight="400"
         font-size="16px"
         transform="translate(952.135,260)"
         id="text32">Wild Pointer</text>
      <text
         fill="#660066"
         font-family="Calibri, Calibri_MSFontService, sans-serif"
         font-weight="400"
         font-size="16px"
         transform="translate(925.468,279)"
         id="text33">Dangling Pointer</text>
      <text
         fill="#660066"
         font-family="Calibri, Calibri_MSFontService, sans-serif"
         font-weight="400"
         font-size="16px"
         transform="translate(916.635,299)"
         id="text34">Untrusted Pointer</text>
      <text
         fill="#660066"
         font-family="Calibri, Calibri_MSFontService, sans-serif"
         font-weight="400"
         font-size="16px"
         transform="translate(908.955,318)"
         id="text35">Overbound Pointer</text>
      <text
         fill="#660066"
         font-family="Calibri, Calibri_MSFontService, sans-serif"
         font-weight="400"
         font-size="16px"
         transform="translate(899.635,337)"
         id="text36">Underbound Pointer</text>
      <text
         fill="#660066"
         font-family="Calibri, Calibri_MSFontService, sans-serif"
         font-weight="400"
         font-size="16px"
         transform="translate(882.681,356)"
         id="text37">Wrong Position Pointer</text>
      <path
         d="m 642.541,177.169 2.73,0.334 c 0.025,0.004 0.049,0.009 0.072,0.018 l 2.709,0.974 c 0.02,0.007 0.039,0.016 0.057,0.027 l 2.666,1.572 c 0.015,0.008 0.029,0.018 0.042,0.029 l 2.602,2.126 2.547,2.667 2.433,3.134 2.298,3.559 2.145,3.94 3.745,8.85 2.89,9.88 1.859,10.563 0.66,10.906 0.655,10.868 1.847,10.489 2.868,9.809 3.718,8.783 2.118,3.89 2.269,3.513 2.393,3.085 2.495,2.613 2.572,2.099 -0.084,-0.05 1.793,0.74 -0.255,0.616 -1.792,-0.74 c -0.03,-0.013 -0.058,-0.029 -0.084,-0.05 l -2.632,-2.155 -2.539,-2.664 -2.427,-3.132 -2.295,-3.557 -2.146,-3.948 -3.744,-8.857 -2.885,-9.879 -1.856,-10.565 -0.655,-10.868 -0.65,-10.831 -1.843,-10.491 -2.863,-9.808 -3.717,-8.79 -2.12,-3.898 -2.265,-3.511 -2.388,-3.083 -2.487,-2.61 -2.602,-2.127 0.042,0.029 -2.667,-1.572 0.057,0.026 -2.709,-0.974 0.072,0.017 -2.73,-0.334 z m 51.993,110.51 6.292,6.356 -8.861,1.22 z"
         id="path37" />
      <path
         d="M 700,404.667 C 700,394.358 708.358,386 718.667,386 h 312.663 c 10.31,0 18.67,8.358 18.67,18.667 v 74.666 c 0,10.309 -8.36,18.667 -18.67,18.667 H 718.667 C 708.358,498 700,489.642 700,479.333 Z"
         fill="#dfdaea"
         fill-rule="evenodd"
         id="path38" />
      <text
         font-family="Calibri, Calibri_MSFontService, sans-serif"
         font-weight="400"
         font-size="16px"
         transform="translate(707.445,408)"
         id="text38">Memory Corruption/Disclosure Final Error</text>
      <text
         fill="#660066"
         font-family="Calibri, Calibri_MSFontService, sans-serif"
         font-weight="400"
         font-size="16px"
         transform="translate(866.551,427)"
         id="text39">NULL Pointer Dereference</text>
      <text
         fill="#660066"
         font-family="Calibri, Calibri_MSFontService, sans-serif"
         font-weight="400"
         font-size="16px"
         transform="translate(835.218,446)"
         id="text40">Untrusted Pointer Dereference</text>
      <text
         fill="#660066"
         font-family="Calibri, Calibri_MSFontService, sans-serif"
         font-weight="400"
         font-size="16px"
         transform="translate(819.911,466)"
         id="text41">Uninitialized Pointer Dereference</text>
      <text
         fill="#660066"
         font-family="Calibri, Calibri_MSFontService, sans-serif"
         font-weight="400"
         font-size="16px"
         transform="translate(945.698,485)"
         id="text42">Memory Leak</text>
      <path
         d="m 642.546,177.17 1.367,0.192 c 0.028,0.004 0.055,0.011 0.082,0.022 l 1.364,0.567 c 0.029,0.013 0.057,0.029 0.082,0.05 l 2.71,2.212 c 0.021,0.017 0.039,0.037 0.056,0.059 l 2.666,3.568 c 0.01,0.014 0.019,0.027 0.027,0.042 l 2.602,4.828 2.531,6.02 2.418,7.078 2.287,8.042 2.136,8.911 1.964,9.684 1.771,10.361 1.557,10.941 1.322,11.425 1.065,11.813 0.788,12.103 0.655,24.687 0.655,24.674 0.787,12.082 1.063,11.795 1.32,11.409 1.555,10.923 1.768,10.342 1.959,9.662 2.13,8.886 2.279,8.012 2.404,7.04 2.509,5.97 2.589,4.799 -0.051,-0.07 2.607,2.771 -0.486,0.456 -2.607,-2.771 c -0.019,-0.021 -0.037,-0.044 -0.05,-0.07 l -2.616,-4.857 -2.525,-6.012 -2.416,-7.074 -2.285,-8.038 -2.135,-8.909 -1.963,-9.683 -1.771,-10.36 -1.557,-10.941 -1.322,-11.425 -1.065,-11.812 -0.787,-12.108 -0.655,-24.674 -0.654,-24.661 -0.787,-12.086 -1.063,-11.796 -1.32,-11.408 -1.554,-10.923 -1.767,-10.341 -1.959,-9.661 -2.129,-8.884 -2.277,-8.009 -2.402,-7.035 -2.503,-5.962 -2.602,-4.828 0.026,0.041 -2.666,-3.568 0.056,0.058 -2.709,-2.212 0.083,0.05 -1.364,-0.567 0.081,0.022 -1.366,-0.192 z m 53.943,257.075 4.337,7.822 -8.86,-1.223 z"
         id="path42" />
      <text
         font-family="Calibri, Calibri_MSFontService, sans-serif"
         font-weight="400"
         font-size="16px"
         transform="translate(485.254,115)"
         id="text43">Operations</text>
      <rect
         x="408.5"
         y="132.5"
         width="234"
         height="91"
         stroke="#000000"
         stroke-width="0.666667"
         stroke-linejoin="round"
         stroke-miterlimit="10"
         fill="none"
         id="rect43" />
      <text
         fill="#660066"
         font-family="Calibri, Calibri_MSFontService, sans-serif"
         font-weight="400"
         font-size="16px"
         transform="translate(468.851,152)"
         id="text44">Initialize Pointer</text>
      <text
         fill="#660066"
         font-family="Calibri, Calibri_MSFontService, sans-serif"
         font-weight="400"
         font-size="16px"
         transform="translate(481.251,171)"
         id="text45">Dereference</text>
      <text
         fill="#660066"
         font-family="Calibri, Calibri_MSFontService, sans-serif"
         font-weight="400"
         font-size="16px"
         transform="translate(486.657,190)"
         id="text46">Reposition</text>
      <text
         fill="#660066"
         font-family="Calibri, Calibri_MSFontService, sans-serif"
         font-weight="400"
         font-size="16px"
         transform="translate(493.077,210)"
         id="text47">Reassign</text>
      <text
         font-family="Calibri, Calibri_MSFontService, sans-serif"
         font-weight="400"
         font-size="16px"
         transform="translate(489.764,258)"
         id="text48">Operands</text>
      <rect
         x="408.5"
         y="275.5"
         width="234"
         height="90"
         stroke="#000000"
         stroke-width="0.666667"
         stroke-linejoin="round"
         stroke-miterlimit="10"
         fill="none"
         id="rect48" />
      <text
         fill="#660066"
         font-family="Calibri, Calibri_MSFontService, sans-serif"
         font-weight="400"
         font-size="16px"
         transform="translate(506.101,295)"
         id="text49">Data</text>
      <text
         fill="#660066"
         font-family="Calibri, Calibri_MSFontService, sans-serif"
         font-weight="400"
         font-size="16px"
         transform="translate(505.881,314)"
         id="text50">Type</text>
      <text
         fill="#660066"
         font-family="Calibri, Calibri_MSFontService, sans-serif"
         font-weight="400"
         font-size="16px"
         transform="translate(495.207,333)"
         id="text51">Address</text>
      <text
         fill="#660066"
         font-family="Calibri, Calibri_MSFontService, sans-serif"
         font-weight="400"
         font-size="16px"
         transform="translate(508.694,353)"
         id="text52">Size</text>
      <text
         fill="#7f7f7f"
         font-family="Calibri, Calibri_MSFontService, sans-serif"
         font-weight="400"
         font-size="13px"
         transform="translate(960.6,528)"
         id="text53">BF, I. Bojanova</text>
      <text
         font-family="Calibri, Calibri_MSFontService, sans-serif"
         font-weight="400"
         font-size="16px"
         transform="translate(488.838,724)"
         id="text54">Attributes</text>
      <text
         font-family="Calibri, Calibri_MSFontService, sans-serif"
         font-weight="400"
         font-size="16px"
         transform="translate(2.09974,761)"
         id="text55">Mechanism</text>
      <text
         fill="#660066"
         font-family="Calibri, Calibri_MSFontService, sans-serif"
         font-weight="400"
         font-size="16px"
         transform="translate(2.09974,780)"
         id="text56">Direct</text>
      <text
         fill="#660066"
         font-family="Calibri, Calibri_MSFontService, sans-serif"
         font-weight="400"
         font-size="16px"
         transform="translate(2.09974,799)"
         id="text57">Sequential</text>
      <text
         font-family="Calibri, Calibri_MSFontService, sans-serif"
         font-weight="400"
         font-size="16px"
         transform="translate(216.273,761)"
         id="text58">Source Code</text>
      <text
         fill="#660066"
         font-family="Calibri, Calibri_MSFontService, sans-serif"
         font-weight="400"
         font-size="16px"
         transform="translate(216.273,780)"
         id="text59">Codebase</text>
      <text
         fill="#660066"
         font-family="Calibri, Calibri_MSFontService, sans-serif"
         font-weight="400"
         font-size="16px"
         transform="translate(216.273,799)"
         id="text60">Third</text>
      <text
         fill="#660066"
         font-family="Calibri, Calibri_MSFontService, sans-serif"
         font-weight="400"
         font-size="16px"
         transform="translate(249.72,799)"
         id="text61">-</text>
      <text
         fill="#660066"
         font-family="Calibri, Calibri_MSFontService, sans-serif"
         font-weight="400"
         font-size="16px"
         transform="translate(254.553,799)"
         id="text62">Party</text>
      <text
         fill="#660066"
         font-family="Calibri, Calibri_MSFontService, sans-serif"
         font-weight="400"
         font-size="16px"
         transform="translate(216.273,819)"
         id="text63">Standard Library</text>
      <text
         fill="#660066"
         font-family="Calibri, Calibri_MSFontService, sans-serif"
         font-weight="400"
         font-size="16px"
         transform="translate(216.273,838)"
         id="text64">Compiler/Interpreter</text>
      <text
         font-family="Calibri, Calibri_MSFontService, sans-serif"
         font-weight="400"
         font-size="16px"
         transform="translate(430.446,761)"
         id="text65">Execution Space</text>
      <text
         fill="#660066"
         font-family="Calibri, Calibri_MSFontService, sans-serif"
         font-weight="400"
         font-size="16px"
         transform="translate(430.446,780)"
         id="text66">Userland</text>
      <text
         fill="#660066"
         font-family="Calibri, Calibri_MSFontService, sans-serif"
         font-weight="400"
         font-size="16px"
         transform="translate(430.446,799)"
         id="text67">Kernel</text>
      <text
         fill="#660066"
         font-family="Calibri, Calibri_MSFontService, sans-serif"
         font-weight="400"
         font-size="16px"
         transform="translate(430.446,819)"
         id="text68">Bare</text>
      <text
         fill="#660066"
         font-family="Calibri, Calibri_MSFontService, sans-serif"
         font-weight="400"
         font-size="16px"
         transform="translate(460.066,819)"
         id="text69">-</text>
      <text
         fill="#660066"
         font-family="Calibri, Calibri_MSFontService, sans-serif"
         font-weight="400"
         font-size="16px"
         transform="translate(464.9,819)"
         id="text70">Metal</text>
      <text
         font-family="Calibri, Calibri_MSFontService, sans-serif"
         font-weight="400"
         font-size="16px"
         transform="translate(644.619,761)"
         id="text71">Address State</text>
      <text
         fill="#660066"
         font-family="Calibri, Calibri_MSFontService, sans-serif"
         font-weight="400"
         font-size="16px"
         transform="translate(644.619,780)"
         id="text72">Stack</text>
      <text
         fill="#660066"
         font-family="Calibri, Calibri_MSFontService, sans-serif"
         font-weight="400"
         font-size="16px"
         transform="translate(644.619,799)"
         id="text73">Heap</text>
      <text
         fill="#660066"
         font-family="Calibri, Calibri_MSFontService, sans-serif"
         font-weight="400"
         font-size="16px"
         transform="translate(644.619,819)"
         id="text74">/other/</text>
      <text
         font-family="Calibri, Calibri_MSFontService, sans-serif"
         font-weight="400"
         font-size="16px"
         transform="translate(858.793,761)"
         id="text75">Size Kind</text>
      <text
         fill="#660066"
         font-family="Calibri, Calibri_MSFontService, sans-serif"
         font-weight="400"
         font-size="16px"
         transform="translate(858.793,780)"
         id="text76">Actual</text>
      <text
         fill="#660066"
         font-family="Calibri, Calibri_MSFontService, sans-serif"
         font-weight="400"
         font-size="16px"
         transform="translate(858.793,799)"
         id="text77">Used</text>
      <path
         d="M 0,891.5 C 0,889.015 2.01475,887 4.50007,887 H 37.4999 C 39.9852,887 42,889.015 42,891.5 v 18 c 0,2.485 -2.0148,4.5 -4.5001,4.5 H 4.50007 C 2.01475,914 0,911.985 0,909.5 Z"
         fill="#e8effc"
         fill-rule="evenodd"
         id="path77" />
      <text
         font-family="Calibri, Calibri_MSFontService, sans-serif"
         font-weight="400"
         font-size="16px"
         transform="translate(44.0945,907)"
         id="text78">Bug</text>
      <path
         d="m 262,891.5 c 0,-2.485 2.015,-4.5 4.5,-4.5 h 33 c 2.485,0 4.5,2.015 4.5,4.5 v 18 c 0,2.485 -2.015,4.5 -4.5,4.5 h -33 c -2.485,0 -4.5,-2.015 -4.5,-4.5 z"
         fill="#f4f2f8"
         fill-rule="evenodd"
         id="path78" />
      <text
         font-family="Calibri, Calibri_MSFontService, sans-serif"
         font-weight="400"
         font-size="16px"
         transform="translate(306.562,907)"
         id="text79">Fault/Error</text>
      <path
         d="m 525,891.5 c 0,-2.485 2.015,-4.5 4.5,-4.5 h 33 c 2.485,0 4.5,2.015 4.5,4.5 v 18 c 0,2.485 -2.015,4.5 -4.5,4.5 h -33 c -2.485,0 -4.5,-2.015 -4.5,-4.5 z"
         fill="#dfdaea"
         fill-rule="evenodd"
         id="path79" />
      <text
         font-family="Calibri, Calibri_MSFontService, sans-serif"
         font-weight="400"
         font-size="16px"
         transform="translate(569.029,907)"
         id="text80">Final Error</text>
      <rect
         x="787.5"
         y="887.5"
         width="42"
         height="27"
         stroke="#000000"
         stroke-width="0.666667"
         stroke-linejoin="round"
         stroke-miterlimit="10"
         fill="none"
         id="rect80" />
      <text
         font-family="Calibri, Calibri_MSFontService, sans-serif"
         font-weight="400"
         font-size="16px"
         transform="translate(831.496,907)"
         id="text81">Operation/Operand</text>
    </g>
  </g>
</svg>
