<?xml version="1.0" encoding="UTF-8" standalone="no"?>
<!-- Created with Inkscape (http://www.inkscape.org/) -->

<svg
   width="250.03125mm"
   height="214.73581mm"
   viewBox="0 0 250.03124 214.7358"
   version="1.1"
   id="svg5"
   inkscape:export-filename="TCM.png"
   inkscape:export-xdpi="96"
   inkscape:export-ydpi="96"
   xml:space="preserve"
   inkscape:version="1.2.2 (b0a8486541, 2022-12-01)"
   sodipodi:docname="MAD.svg"
   xmlns:inkscape="http://www.inkscape.org/namespaces/inkscape"
   xmlns:sodipodi="http://sodipodi.sourceforge.net/DTD/sodipodi-0.dtd"
   xmlns="http://www.w3.org/2000/svg"
   xmlns:svg="http://www.w3.org/2000/svg"><sodipodi:namedview
     id="namedview7"
     pagecolor="#ffffff"
     bordercolor="#000000"
     borderopacity="0.25"
     inkscape:showpageshadow="2"
     inkscape:pageopacity="0.0"
     inkscape:pagecheckerboard="0"
     inkscape:deskcolor="#d1d1d1"
     inkscape:document-units="mm"
     showgrid="false"
     inkscape:zoom="0.914906"
     inkscape:cx="145.37012"
     inkscape:cy="485.84226"
     inkscape:window-width="1350"
     inkscape:window-height="1230"
     inkscape:window-x="179"
     inkscape:window-y="914"
     inkscape:window-maximized="0"
     inkscape:current-layer="layer1" /><defs
     id="defs2"><clipPath
       id="clip0"><rect
         x="-25"
         y="0"
         width="785"
         height="1091"
         id="rect9" /></clipPath><clipPath
       id="clip0-8"><rect
         x="-25"
         y="0"
         width="785"
         height="524"
         id="rect520" /></clipPath><clipPath
       id="clip0-3"><rect
         x="-25"
         y="0"
         width="785"
         height="1091"
         id="rect699" /></clipPath><clipPath
       id="clip0-0"><rect
         x="-25"
         y="0"
         width="785"
         height="1091"
         id="rect1109" /></clipPath><clipPath
       id="clip0-4"><rect
         x="-25"
         y="0"
         width="934"
         height="905"
         id="rect1519" /></clipPath><clipPath
       id="clip0-42"><rect
         x="-7"
         y="0"
         width="952"
         height="590"
         id="rect1929" /></clipPath><clipPath
       id="clip0-1"><rect
         x="-25"
         y="0"
         width="785"
         height="1091"
         id="rect2197" /></clipPath><clipPath
       id="clip0-6"><rect
         x="-25"
         y="0"
         width="785"
         height="1091"
         id="rect2806" /></clipPath><clipPath
       id="clip0-66"><rect
         x="11"
         y="-21"
         width="934"
         height="904"
         id="rect3369" /></clipPath><clipPath
       id="clip0-41"><rect
         x="-7"
         y="0"
         width="743"
         height="335"
         id="rect3934" /></clipPath><clipPath
       id="clip0-7"><rect
         x="-7"
         y="0"
         width="743"
         height="335"
         id="rect4109" /></clipPath><clipPath
       id="clip0-9"><rect
         x="-25"
         y="0"
         width="785"
         height="524"
         id="rect4320" /></clipPath><clipPath
       id="clip0-96"><rect
         x="-25"
         y="0"
         width="785"
         height="713"
         id="rect4583" /></clipPath><clipPath
       id="clip0-08"><rect
         x="144"
         y="424"
         width="837"
         height="501"
         id="rect4932" /></clipPath><clipPath
       id="clip0-87"><rect
         x="144"
         y="424"
         width="837"
         height="501"
         id="rect5261" /></clipPath><clipPath
       id="clip0-68"><rect
         x="201"
         y="68"
         width="837"
         height="501"
         id="rect5590" /></clipPath><clipPath
       id="clip0-69"><rect
         x="212"
         y="141"
         width="635"
         height="281"
         id="rect6057" /></clipPath><clipPath
       id="clip0-44"><rect
         x="75"
         y="7"
         width="780"
         height="757"
         id="rect6214" /></clipPath><clipPath
       id="clip0-38"><rect
         x="75"
         y="8"
         width="780"
         height="752"
         id="rect6713" /></clipPath><clipPath
       id="clip0-080"><rect
         x="62"
         y="92"
         width="671"
         height="543"
         id="rect7166" /></clipPath><clipPath
       id="clip0-48"><rect
         x="678"
         y="67"
         width="591"
         height="294"
         id="rect7433" /></clipPath><clipPath
       id="clip0-00"><rect
         x="-7"
         y="0"
         width="952"
         height="574"
         id="rect7818" /></clipPath><clipPath
       id="clip0-2"><rect
         x="-7"
         y="0"
         width="952"
         height="543"
         id="rect8173" /></clipPath><clipPath
       id="clip0-09"><rect
         x="-7"
         y="0"
         width="952"
         height="612"
         id="rect8510" /></clipPath><clipPath
       id="clip0-99"><rect
         x="-7"
         y="0"
         width="952"
         height="659"
         id="rect8897" /></clipPath><clipPath
       id="clip0-31"><rect
         x="-7"
         y="0"
         width="952"
         height="653"
         id="rect9282" /></clipPath><clipPath
       id="clip0-5"><rect
         x="-7"
         y="0"
         width="952"
         height="697"
         id="rect9673" /></clipPath><clipPath
       id="clip0-24"><rect
         x="-7"
         y="0"
         width="952"
         height="826"
         id="rect10090" /></clipPath></defs><g
     inkscape:label="Layer 1"
     inkscape:groupmode="layer"
     id="layer1"
     transform="translate(-65.104276,-111.78773)"><g
       clip-path="url(#clip0-24)"
       transform="matrix(0.26458333,0,0,0.26458333,65.104276,109.60931)"
       id="g10283"><text
         fill="#7d3368"
         font-family="Calibri, Calibri_MSFontService, sans-serif"
         font-weight="400"
         font-size="15px"
         transform="translate(318.346,19)"
         id="text10099">Memory Corruption/Disclosure (_MEM) BF Cluster<tspan
   fill="#000000"
   font-size="15px"
   x="43.833302"
   y="35"
   id="tspan10095">Memory Addressing (MAD) BF Class</tspan><tspan
   fill="#000000"
   font-size="15px"
   x="-185.2"
   y="63"
   id="tspan10097">Causes</tspan></text><path
         d="M 0,111.667 C 0,104.119 6.11887,98 13.6669,98 H 301.333 c 7.548,0 13.667,6.119 13.667,13.667 v 54.666 C 315,173.881 308.881,180 301.333,180 H 13.6669 C 6.11887,180 0,173.881 0,166.333 Z"
         fill="#e8effc"
         fill-rule="evenodd"
         id="path10101" /><text
         fill="#7d3368"
         font-family="Calibri, Calibri_MSFontService, sans-serif"
         font-weight="400"
         font-size="15px"
         transform="translate(6.09722,117)"
         id="text10109">Code Defect Bug<tspan
   fill="#000000"
   font-size="15px"
   x="216.33299"
   y="17"
   id="tspan10103">Missing Code</tspan><tspan
   fill="#000000"
   font-size="15px"
   x="157.66701"
   y="35"
   id="tspan10105">Mismatched Operation</tspan><tspan
   fill="#000000"
   font-size="15px"
   x="200.16701"
   y="53"
   id="tspan10107">Erroneous Code</tspan></text><path
         d="m 0.0151359,-0.332989 9.6250041,0.4375 4.45506,0.438764 4.0188,0.627385 3.3287,0.69046 2.6559,0.82045 c 0.0189,0.00586 0.0373,0.01339 0.0548,0.02251 l 1.6875,0.875 c 0.0517,0.02681 0.0955,0.06669 0.127,0.11567 l 0.5625,0.875 0.5625,0.875 -0.127,-0.11567 1.6875,0.875 -0.0548,-0.02251 2.625,0.8125 3.2816,0.67955 3.9838,0.62204 4.4187,0.43511 2.9378,0.11744 L 45.8188,9.51434 42.8423,9.39422 38.386,8.95434 34.3698,8.32638 31.0264,7.63093 28.4014,6.81843 C 28.3825,6.81257 28.3641,6.80504 28.3466,6.79592 l -1.6875,-0.875 C 26.6074,5.89411 26.5636,5.85423 26.5321,5.80525 l -0.5625,-0.875 -0.5625,-0.875 0.127,0.11567 -1.6875,-0.875 0.0548,0.02251 L 21.3073,2.51388 18.011,1.82934 14.0298,1.20673 9.60986,0.770489 -0.0151359,0.332989 Z M 44.6604,5.13098 l 7.833,4.31784 -8.154,3.67568 z"
         transform="matrix(1,0,0,-1,315.5,138.949)"
         id="path10111" /><path
         d="M 0,208.667 C 0,201.119 6.11887,195 13.6669,195 H 301.333 c 7.548,0 13.667,6.119 13.667,13.667 v 54.666 C 315,270.881 308.881,277 301.333,277 H 13.6669 C 6.11887,277 0,270.881 0,263.333 Z"
         fill="#f4f2f8"
         fill-rule="evenodd"
         id="path10113" /><text
         fill="#7d3368"
         font-family="Calibri, Calibri_MSFontService, sans-serif"
         font-weight="400"
         font-size="15px"
         transform="translate(6.09722,214)"
         id="text10121">Data Fault<tspan
   fill="#000000"
   font-size="15px"
   x="178.66701"
   y="17"
   id="tspan10115">Hardcoded Address</tspan><tspan
   fill="#000000"
   font-size="15px"
   x="218.83299"
   y="35"
   id="tspan10117">Wrong Index</tspan><tspan
   fill="#000000"
   font-size="15px"
   x="228.33299"
   y="53"
   id="tspan10119">Wrong Size</tspan></text><path
         d="M 0.0423881,-0.330627 2.47989,-0.0181272 c 0.02396,0.0030714 0.0475,0.00873504 0.07023,0.01689565 L 4.98762,0.873768 c 0.0197,0.007073 0.03868,0.015977 0.05671,0.02661 l 2.4375,1.437502 c 0.01726,0.01018 0.03356,0.02189 0.04872,0.035 l 2.3125,2 2.27685,2.46353 2.2057,2.83394 2.0808,3.27605 1.9501,3.6465 3.3272,8.1563 2.6365,9.0956 1.6956,9.6601 0.567,10.0389 0.5625,10 1.6831,9.649 2.6168,9.027 3.3006,8.0285 1.9232,3.5946 2.0499,3.2285 2.1714,2.8518 2.2267,2.3478 -0.0546,-0.047 3.3616,2.286 -0.3748,0.551 -3.3616,-2.285 c -0.0198,-0.014 -0.0381,-0.029 -0.0546,-0.047 l -2.2733,-2.402 -2.2036,-2.8984 -2.0751,-3.2715 -1.9518,-3.6554 -3.3244,-8.0965 -2.6332,-9.098 -1.6919,-9.726 -0.5625,-10 -0.558,-9.9611 -1.6794,-9.5899 -2.6135,-9.0294 -3.2978,-8.0937 -1.9249,-3.6035 -2.0442,-3.224 -2.1693,-2.79101 -2.22315,-2.41147 -2.3125,-2 0.04872,0.035 -2.4375,-1.4375 0.05671,0.02661 -2.4375,-0.874998 0.07023,0.016895 -2.4374981,-0.3125 z M 46.366,100.571 l 6.1274,6.516 -8.889,0.992 z"
         transform="matrix(1,0,0,-1,315.5,236.587)"
         id="path10123" /><path
         d="M 0,303.5 C 0,297.701 4.70116,293 10.5003,293 H 304.5 c 5.799,0 10.5,4.701 10.5,10.5 v 42 c 0,5.799 -4.701,10.5 -10.5,10.5 H 10.5003 C 4.70116,356 0,351.299 0,345.5 Z"
         fill="#f4f2f8"
         fill-rule="evenodd"
         id="path10125" /><text
         fill="#7d3368"
         font-family="Calibri, Calibri_MSFontService, sans-serif"
         font-weight="400"
         font-size="15px"
         transform="translate(5.1748,311)"
         id="text10131">Type Fault<tspan
   fill="#000000"
   font-size="15px"
   x="188.5"
   y="17"
   id="tspan10127">Wrong Index Type</tspan><tspan
   fill="#000000"
   font-size="15px"
   x="209.83299"
   y="35"
   id="tspan10129">Casted Pointer</tspan></text><path
         d="M 0.0749532,-0.324797 2.51245,0.237703 C 2.55167,0.246752 2.58892,0.262827 2.6224,0.28515 l 2.4375,1.625 c 0.0217,0.01447 0.04162,0.03142 0.05936,0.05053 l 2.4375,2.625 c 0.01306,0.01406 0.02488,0.02923 0.03533,0.04533 l 2.3125,3.5625 2.26771,4.46829 2.1979,5.2725 2.0693,5.8928 1.9429,6.6418 1.7538,7.1391 1.5653,7.6376 1.4392,8.0709 1.1894,8.4495 1.6892,17.7023 0.5639,18.2089 0.5625,18.1878 1.6861,17.666 1.1857,8.36 1.4357,8.05 1.561,7.68 1.747,7.112 1.9335,6.548 2.0577,5.922 2.1797,5.167 2.2402,4.417 2.2948,3.531 -0.0773,-0.083 1.6444,1.256 -0.4046,0.529 -1.6444,-1.255 c -0.0303,-0.023 -0.0565,-0.051 -0.0773,-0.084 l -2.3302,-3.593 -2.2598,-4.458 -2.1953,-5.208 -2.0673,-5.953 -1.9415,-6.577 -1.753,-7.138 -1.564,-7.695 -1.4393,-8.075 -1.1893,-8.39 L 26.4793,115.885 25.9168,97.6978 25.3557,79.5317 23.6699,61.859 22.4843,53.4335 21.0485,45.3794 19.4888,37.767 17.7426,30.6561 15.8105,24.0479 13.7548,18.1907 11.5777,12.9632 9.34541,8.55649 7.03291,4.99399 7.06824,5.03932 4.63074,2.41432 4.6901,2.46485 2.2526,0.83985 2.36255,0.887297 -0.0749532,0.324797 Z M 47.8116,187.655 l 4.6818,7.621 -8.9059,-0.828 z"
         transform="matrix(1,0,0,-1,315.5,324.776)"
         id="path10133" /><path
         d="M 0,398.167 C 0,383.716 11.7155,372 26.1673,372 H 288.833 C 303.284,372 315,383.716 315,398.167 V 502.833 C 315,517.284 303.284,529 288.833,529 H 26.1673 C 11.7155,529 0,517.284 0,502.833 Z"
         fill="#f4f2f8"
         fill-rule="evenodd"
         id="path10135" /><text
         fill="#7d3368"
         font-family="Calibri, Calibri_MSFontService, sans-serif"
         font-weight="400"
         font-size="15px"
         transform="translate(9.7873,394)"
         id="text10151">Address Fault<tspan
   fill="#000000"
   font-size="15px"
   x="209.83299"
   y="17"
   id="tspan10137">NULL Pointer</tspan><tspan
   fill="#000000"
   font-size="15px"
   x="213.66701"
   y="35"
   id="tspan10139">Wild Pointer</tspan><tspan
   fill="#000000"
   font-size="15px"
   x="189.33299"
   y="53"
   id="tspan10141">Dangling Pointer</tspan><tspan
   fill="#000000"
   font-size="15px"
   x="180.83299"
   y="70"
   id="tspan10143">Untrusted Pointer</tspan><tspan
   fill="#000000"
   font-size="15px"
   x="164.5"
   y="88"
   id="tspan10145">Over Bounds Pointer</tspan><tspan
   fill="#000000"
   font-size="15px"
   x="156.16701"
   y="105"
   id="tspan10147">Under Bounds Pointer</tspan><tspan
   fill="#000000"
   font-size="15px"
   x="149.66701"
   y="123"
   id="tspan10149">Wrong Position Pointer</tspan></text><path
         d="m 0.065372,-0.32686 1.249998,0.2499998 c 0.03575,0.0071502 0.07009,0.0201174 0.10164,0.0383848 l 1.1875,0.6875004 c 0.02002,0.011587 0.03879,0.025238 0.05598,0.04071 l 1.25,1.125005 c 0.01554,0.01398 0.02975,0.02942 0.0424,0.04607 l 1.1875,1.5625 1.26471,1.95848 1.20554,2.40664 1.19538,2.76697 1.13261,3.1442 2.25477,7.2641 2.1922,8.6419 2.0655,9.7629 1.9395,10.8227 1.7516,11.7597 1.5636,12.5705 1.4381,13.2551 1.1882,13.8825 0.938,14.319 0.7503,14.693 0.5629,30.01 0.5625,29.938 0.7496,14.676 0.9372,14.371 1.187,13.805 1.4368,13.306 1.5619,12.557 1.7489,11.742 1.9359,10.803 2.0605,9.739 2.1844,8.549 2.2454,7.234 1.1202,3.111 1.1799,2.731 1.1796,2.358 -0.0668,-0.091 1.1292,1.088 -0.4625,0.48 -1.1293,-1.088 c -0.0273,-0.026 -0.0499,-0.057 -0.0668,-0.091 l -1.1954,-2.392 -1.1951,-2.769 -1.1298,-3.139 -2.2546,-7.266 -2.1906,-8.577 -2.0645,-9.76 -1.9391,-10.822 -1.7511,-11.758 -1.5631,-12.568 -1.4382,-13.319 -1.188,-13.82 -0.9378,-14.38 -0.7504,-14.698 -0.5625,-29.937 -0.5621,-29.99 -0.7497,-14.682 -0.937,-14.306 L 22.4811,87.8484 21.0442,74.6036 19.4828,62.0491 17.7344,50.3088 15.7989,39.5065 13.7394,29.7694 11.5566,21.1613 9.31137,13.9254 8.19398,10.8196 7.01436,8.08657 5.8449,5.74321 4.60961,3.82669 l -1.1875,-1.5625 0.0424,0.04607 -1.25,-1.125 0.05598,0.04072 -1.1875,-0.687505 0.10164,0.038385 -1.250002,-0.25 z M 49.1595,312.96 l 3.3339,8.3 -8.6401,-2.313 z"
         transform="matrix(1,0,0,-1,315.5,450.76)"
         id="path10153" /><path
         d="M 0,555.5 C 0,549.701 4.70116,545 10.5003,545 H 304.5 c 5.799,0 10.5,4.701 10.5,10.5 v 42 c 0,5.799 -4.701,10.5 -10.5,10.5 H 10.5003 C 4.70116,608 0,603.299 0,597.5 Z"
         fill="#f4f2f8"
         fill-rule="evenodd"
         id="path10155" /><text
         fill="#7d3368"
         font-family="Calibri, Calibri_MSFontService, sans-serif"
         font-weight="400"
         font-size="15px"
         transform="translate(5.1748,563)"
         id="text10161">Size Fault<tspan
   fill="#000000"
   font-size="15px"
   x="230.16701"
   y="17"
   id="tspan10157">Wrong Size</tspan><tspan
   fill="#000000"
   font-size="15px"
   x="113.5"
   y="35"
   id="tspan10159">Not Enough Memory Allocated</tspan></text><path
         d="M 0.0808452,-0.323381 1.33085,-0.0108808 C 1.3801,0.00143164 1.42588,0.0248297 1.46471,0.0575296 L 2.65221,1.05753 c 0.01669,0.01405 0.03195,0.0297 0.04558,0.04674 l 1.25,1.5625 c 0.01147,0.01433 0.02173,0.0296 0.03069,0.04562 l 1.1875,2.125 1.26248,2.77467 1.19782,3.33794 1.19197,3.8259 1.12929,4.3275 1.18886,4.8802 1.0655,5.326 1.1252,5.7514 1.0638,6.132 1.0632,6.6292 1.0008,6.9427 1.9382,15.0676 1.7508,16.3821 1.5631,17.5054 1.4378,18.442 1.1879,19.318 0.9378,19.942 0.7501,20.441 0.5627,41.757 0.5625,41.688 0.7498,20.492 0.9374,19.934 1.1872,19.308 1.4371,18.432 1.5622,17.496 1.7494,16.37 1.9367,15.055 0.9993,6.932 1.0617,6.62 1.0618,6.121 1.1237,5.743 1.0623,5.311 1.1845,4.862 1.1236,4.307 1.1832,3.797 1.1831,3.299 -0.0294,-0.061 1.6886,2.762 -0.5688,0.348 -1.6886,-2.762 c -0.0119,-0.02 -0.0217,-0.04 -0.0294,-0.062 l -1.192,-3.325 -1.1917,-3.828 -1.1264,-4.318 -1.1905,-4.888 -1.0627,-5.314 -1.1263,-5.757 -1.0632,-6.129 -1.0633,-6.63 L 36.0444,392.48 34.1061,377.41 32.3555,361.03 30.7927,343.526 29.3548,325.083 28.167,305.766 27.2294,285.825 26.4792,265.317 25.9167,223.629 25.3544,181.887 24.6045,161.453 23.6673,141.52 22.4802,122.213 21.043,103.78 19.4811,86.2854 17.7319,69.9175 15.7951,54.8601 14.7959,47.9278 13.7341,41.307 12.6729,35.189 11.5481,29.4404 10.4886,24.1414 9.30246,19.2716 8.18175,14.9741 6.99872,11.175 5.82154,7.88793 4.58402,5.16261 l -1.1875,-2.125 0.03069,0.04562 -1.25,-1.5625 0.04558,0.04674 -1.1875,-1 0.13386,0.068411 -1.2499952,-0.3125 z M 50.1668,438.608 l 2.3266,8.636 -8.305,-3.32 z"
         transform="matrix(1,0,0,-1,315.5,576.744)"
         id="path10163" /><text
         font-family="Calibri, Calibri_MSFontService, sans-serif"
         font-weight="400"
         font-size="15px"
         transform="translate(740.818,82)"
         id="text10165">Consequences</text><path
         d="M 630,105.334 C 630,101.283 633.283,98 637.333,98 h 300.334 c 4.05,0 7.333,3.283 7.333,7.334 v 29.332 c 0,4.051 -3.283,7.334 -7.333,7.334 H 637.333 c -4.05,0 -7.333,-3.283 -7.333,-7.334 z"
         fill="#f4f2f8"
         fill-rule="evenodd"
         id="path10167" /><text
         fill="#7d3368"
         font-family="Calibri, Calibri_MSFontService, sans-serif"
         font-weight="400"
         font-size="15px"
         transform="translate(634.174,115)"
         id="text10171">Data Error<tspan
   fill="#000000"
   font-size="15px"
   x="187"
   y="17"
   id="tspan10169">Forbidden Address</tspan></text><path
         d="m 0.0151359,-0.332989 9.6250041,0.4375 4.45506,0.438764 4.0188,0.627385 3.3287,0.69046 2.6559,0.82045 c 0.0189,0.00586 0.0373,0.01339 0.0548,0.02251 l 1.6875,0.875 c 0.0517,0.02681 0.0955,0.06669 0.127,0.11567 l 0.5625,0.875 0.5625,0.875 -0.127,-0.11567 1.6875,0.875 -0.0548,-0.02251 2.625,0.8125 3.2816,0.67955 3.9838,0.62204 4.4187,0.43511 2.9378,0.11744 L 45.8188,9.51434 42.8423,9.39422 38.386,8.95434 34.3698,8.32638 31.0264,7.63093 28.4014,6.81843 C 28.3825,6.81257 28.3641,6.80504 28.3466,6.79592 l -1.6875,-0.875 C 26.6074,5.89411 26.5636,5.85423 26.5321,5.80525 l -0.5625,-0.875 -0.5625,-0.875 0.127,0.11567 -1.6875,-0.875 0.0548,0.02251 L 21.3073,2.51388 18.011,1.82934 14.0298,1.20673 9.60986,0.770489 -0.0151359,0.332989 Z M 44.6604,5.13098 l 7.833,4.31784 -8.154,3.67568 z"
         transform="matrix(1,0,0,-1,577.5,129.949)"
         id="path10173" /><path
         d="m 630,164.5 c 0,-4.142 3.358,-7.5 7.5,-7.5 h 300 c 4.142,0 7.5,3.358 7.5,7.5 v 30 c 0,4.142 -3.358,7.5 -7.5,7.5 h -300 c -4.142,0 -7.5,-3.358 -7.5,-7.5 z"
         fill="#f4f2f8"
         fill-rule="evenodd"
         id="path10175" /><text
         fill="#7d3368"
         font-family="Calibri, Calibri_MSFontService, sans-serif"
         font-weight="400"
         font-size="15px"
         transform="translate(634.174,175)"
         id="text10179">Type Error<tspan
   fill="#000000"
   font-size="15px"
   x="211.66701"
   y="17"
   id="tspan10177">Casted Pointer</tspan></text><path
         d="m 577.538,129.169 4.875,0.562 c 0.024,0.003 0.047,0.008 0.07,0.016 l 4.75,1.625 c 0.019,0.007 0.038,0.015 0.056,0.025 l 4.437,2.5 c 0.016,0.009 0.03,0.019 0.044,0.03 l 4,3.187 c 0.016,0.013 0.031,0.027 0.044,0.042 l 3.313,3.813 c 0.012,0.014 0.023,0.029 0.033,0.045 l 2.625,4.313 c 0.011,0.018 0.02,0.037 0.028,0.057 l 1.687,4.563 c 0.009,0.024 0.015,0.05 0.018,0.076 l 0.563,4.687 0.562,4.688 -0.018,-0.076 1.688,4.562 -0.029,-0.059 2.625,4.25 -0.032,-0.044 3.312,3.813 -0.044,-0.042 4,3.187 -0.044,-0.029 4.438,2.5 -0.074,-0.031 3.076,0.861 -0.18,0.642 -3.076,-0.861 c -0.026,-0.007 -0.05,-0.017 -0.074,-0.031 l -4.437,-2.5 c -0.016,-0.008 -0.03,-0.018 -0.044,-0.029 l -4,-3.188 c -0.016,-0.012 -0.031,-0.027 -0.044,-0.042 l -3.313,-3.812 c -0.011,-0.014 -0.022,-0.028 -0.032,-0.044 l -2.625,-4.25 c -0.011,-0.019 -0.021,-0.039 -0.029,-0.059 L 604,159.553 c -0.009,-0.024 -0.015,-0.05 -0.018,-0.076 l -0.563,-4.687 -0.562,-4.688 0.018,0.076 -1.688,-4.562 0.028,0.057 -2.625,-4.312 0.033,0.045 -3.312,-3.812 0.044,0.042 -4,-3.188 0.044,0.03 -4.438,-2.5 0.056,0.025 -4.75,-1.625 0.07,0.016 -4.875,-0.563 z m 45.374,45.261 7.081,5.464 -8.62,2.386 z"
         id="path10181" /><path
         d="M 630,243.334 C 630,228.79 641.79,217 656.334,217 H 918.666 C 933.21,217 945,228.79 945,243.334 V 348.666 C 945,363.21 933.21,375 918.666,375 H 656.334 C 641.79,375 630,363.21 630,348.666 Z"
         fill="#f4f2f8"
         fill-rule="evenodd"
         id="path10183" /><text
         fill="#7d3368"
         font-family="Calibri, Calibri_MSFontService, sans-serif"
         font-weight="400"
         font-size="15px"
         transform="translate(639.709,240)"
         id="text10199">Address Error<tspan
   fill="#000000"
   font-size="15px"
   x="209.83299"
   y="17"
   id="tspan10185">NULL Pointer</tspan><tspan
   fill="#000000"
   font-size="15px"
   x="213.66701"
   y="35"
   id="tspan10187">Wild Pointer</tspan><tspan
   fill="#000000"
   font-size="15px"
   x="189.33299"
   y="53"
   id="tspan10189">Dangling Pointer</tspan><tspan
   fill="#000000"
   font-size="15px"
   x="180.83299"
   y="70"
   id="tspan10191">Untrusted Pointer</tspan><tspan
   fill="#000000"
   font-size="15px"
   x="164.5"
   y="88"
   id="tspan10193">Over Bounds Pointer</tspan><tspan
   fill="#000000"
   font-size="15px"
   x="156.16701"
   y="105"
   id="tspan10195">Under Bounds Pointer</tspan><tspan
   fill="#000000"
   font-size="15px"
   x="149.66701"
   y="123"
   id="tspan10197">Wrong Position Pointer</tspan></text><path
         d="m 577.567,129.174 2.438,0.5 c 0.034,0.006 0.066,0.019 0.096,0.036 l 2.438,1.375 c 0.022,0.012 0.043,0.028 0.062,0.045 l 2.438,2.25 c 0.014,0.014 0.028,0.028 0.04,0.044 l 2.312,3.063 2.27,3.779 2.201,4.526 2.072,5.082 1.944,5.642 1.755,6.079 1.566,6.578 2.629,14.078 1.691,15.15 0.564,15.587 0.563,15.563 1.685,15.037 2.622,14.101 1.559,6.483 1.746,6.111 1.932,5.608 2.056,5.046 2.178,4.416 2.237,3.726 2.293,3.033 -0.09,-0.082 1.461,0.91 -0.353,0.566 -1.461,-0.911 c -0.034,-0.021 -0.065,-0.049 -0.089,-0.082 l -2.333,-3.091 -2.263,-3.775 -2.197,-4.459 -2.069,-5.079 -1.943,-5.642 -1.754,-6.139 -1.566,-6.517 -2.628,-14.149 -1.69,-15.087 -0.562,-15.563 -0.561,-15.537 -1.684,-15.101 -2.621,-14.047 -1.559,-6.547 -1.745,-6.046 -1.931,-5.608 -2.053,-5.043 -2.174,-4.474 -2.23,-3.721 -2.312,-3.062 0.039,0.044 -2.437,-2.25 0.062,0.045 -2.437,-1.375 0.097,0.037 -2.438,-0.5 z m 47.336,159.901 5.09,7.354 -8.937,-0.34 z"
         id="path10201" /><text
         font-family="Calibri, Calibri_MSFontService, sans-serif"
         font-weight="400"
         font-size="15px"
         transform="translate(435.691,82)"
         id="text10203">Operations</text><rect
         x="367.5"
         y="98.500099"
         width="210"
         height="63"
         stroke="#000000"
         stroke-width="0.666667"
         stroke-linejoin="round"
         stroke-miterlimit="10"
         fill="none"
         id="rect10205" /><text
         font-family="Calibri, Calibri_MSFontService, sans-serif"
         font-weight="400"
         font-size="15px"
         transform="translate(415.857,116)"
         id="text10213">Initialize (pointer)<tspan
   font-size="15px"
   x="21.2533"
   y="17"
   id="tspan10207">Reposition</tspan><tspan
   font-size="15px"
   x="27.0867"
   y="35"
   id="tspan10209">Reassign</tspan><tspan
   font-size="15px"
   x="23.9167"
   y="79"
   id="tspan10211">Operands</tspan></text><rect
         x="367.5"
         y="211.5"
         width="210"
         height="82"
         stroke="#000000"
         stroke-width="0.666667"
         stroke-linejoin="round"
         stroke-miterlimit="10"
         fill="none"
         id="rect10215" /><text
         font-family="Calibri, Calibri_MSFontService, sans-serif"
         font-weight="400"
         font-size="15px"
         transform="translate(454.777,230)"
         id="text10265">Data<tspan
   font-size="15px"
   x="-0.5"
   y="17"
   id="tspan10217">Type</tspan><tspan
   font-size="15px"
   x="-9.9200096"
   y="35"
   id="tspan10219">Address</tspan><tspan
   font-size="15px"
   x="2.3333099"
   y="53"
   id="tspan10221">Size</tspan><tspan
   font-size="15px"
   x="-16.0033"
   y="412"
   id="tspan10223">Attributes</tspan><tspan
   fill="#7d3368"
   font-size="15px"
   x="-452.67801"
   y="447"
   id="tspan10225">Mechanism</tspan><tspan
   font-size="15px"
   x="-431.67801"
   y="464"
   id="tspan10227">Direct</tspan><tspan
   font-size="15px"
   x="-431.67801"
   y="482"
   id="tspan10229">Sequential</tspan><tspan
   fill="#7d3368"
   font-size="15px"
   x="-257.40201"
   y="447"
   id="tspan10231">Source Code</tspan><tspan
   font-size="15px"
   x="-236.40199"
   y="464"
   id="tspan10233">Codebase</tspan><tspan
   font-size="15px"
   x="-236.40199"
   y="482"
   id="tspan10235">Third</tspan>-Party<tspan
   font-size="15px"
   x="-236.40199"
   y="500"
   id="tspan10237">Standard Library</tspan><tspan
   font-size="15px"
   x="-236.40199"
   y="517"
   id="tspan10239">Compiler/Interpreter</tspan><tspan
   fill="#7d3368"
   font-size="15px"
   x="-62.126499"
   y="447"
   id="tspan10241">Execution Space</tspan><tspan
   font-size="15px"
   x="-41.126499"
   y="464"
   id="tspan10243">Userland</tspan><tspan
   font-size="15px"
   x="-41.126499"
   y="482"
   id="tspan10245">Kernel</tspan><tspan
   font-size="15px"
   x="-41.126499"
   y="500"
   id="tspan10247">Bare</tspan><tspan
   font-size="15px"
   x="-13.6265"
   y="500"
   id="tspan10249">-</tspan>Metal<tspan
   fill="#7d3368"
   font-size="15px"
   x="133.149"
   y="447"
   id="tspan10251">Address State</tspan><tspan
   font-size="15px"
   x="154.149"
   y="464"
   id="tspan10253">Stack</tspan><tspan
   font-size="15px"
   x="154.149"
   y="482"
   id="tspan10255">Heap</tspan><tspan
   font-size="15px"
   x="154.149"
   y="500"
   id="tspan10257">/other/</tspan><tspan
   fill="#7d3368"
   font-size="15px"
   x="328.42499"
   y="447"
   id="tspan10259">Size Kind</tspan><tspan
   font-size="15px"
   x="349.42499"
   y="464"
   id="tspan10261">Actual</tspan><tspan
   font-size="15px"
   x="349.42499"
   y="482"
   id="tspan10263">Used</tspan></text><path
         d="M 0,798.167 C 0,795.866 1.86552,794 4.16675,794 H 37.8333 C 40.1345,794 42,795.866 42,798.167 v 16.666 C 42,817.134 40.1345,819 37.8333,819 H 4.16675 C 1.86552,819 0,817.134 0,814.833 Z"
         fill="#e8effc"
         fill-rule="evenodd"
         id="path10267" /><text
         font-family="Calibri, Calibri_MSFontService, sans-serif"
         font-weight="400"
         font-size="15px"
         transform="translate(44.0945,813)"
         id="text10269">Bug</text><path
         d="m 236,798.167 c 0,-2.301 1.866,-4.167 4.167,-4.167 h 33.666 c 2.301,0 4.167,1.866 4.167,4.167 v 16.666 c 0,2.301 -1.866,4.167 -4.167,4.167 H 240.167 C 237.866,819 236,817.134 236,814.833 Z"
         fill="#f4f2f8"
         fill-rule="evenodd"
         id="path10271" /><text
         font-family="Calibri, Calibri_MSFontService, sans-serif"
         font-weight="400"
         font-size="15px"
         transform="translate(280.315,813)"
         id="text10273">Fault/Error</text><path
         d="m 472,798.167 c 0,-2.301 1.866,-4.167 4.167,-4.167 h 33.666 c 2.301,0 4.167,1.866 4.167,4.167 v 16.666 c 0,2.301 -1.866,4.167 -4.167,4.167 H 476.167 C 473.866,819 472,817.134 472,814.833 Z"
         fill="#dfdaea"
         fill-rule="evenodd"
         id="path10275" /><text
         font-family="Calibri, Calibri_MSFontService, sans-serif"
         font-weight="400"
         font-size="15px"
         transform="translate(516.535,813)"
         id="text10277">Final Error</text><rect
         x="709.5"
         y="794.5"
         width="42"
         height="25"
         stroke="#000000"
         stroke-width="0.666667"
         stroke-linejoin="round"
         stroke-miterlimit="10"
         fill="none"
         id="rect10279" /><text
         font-family="Calibri, Calibri_MSFontService, sans-serif"
         font-weight="400"
         font-size="15px"
         transform="translate(752.756,813)"
         id="text10281">Operation/Operand</text></g></g></svg>
