<?xml version="1.0" encoding="UTF-8" standalone="no"?>
<!-- Created with Inkscape (http://www.inkscape.org/) -->

<svg
   width="250.03125mm"
   height="158.11497mm"
   viewBox="0 0 250.03124 158.11497"
   version="1.1"
   id="svg5"
   inkscape:export-filename="MAD.png"
   inkscape:export-xdpi="96"
   inkscape:export-ydpi="96"
   xml:space="preserve"
   inkscape:version="1.2.2 (b0a8486541, 2022-12-01)"
   sodipodi:docname="MAL.svg"
   xmlns:inkscape="http://www.inkscape.org/namespaces/inkscape"
   xmlns:sodipodi="http://sodipodi.sourceforge.net/DTD/sodipodi-0.dtd"
   xmlns="http://www.w3.org/2000/svg"
   xmlns:svg="http://www.w3.org/2000/svg"><sodipodi:namedview
     id="namedview7"
     pagecolor="#ffffff"
     bordercolor="#000000"
     borderopacity="0.25"
     inkscape:showpageshadow="2"
     inkscape:pageopacity="0.0"
     inkscape:pagecheckerboard="0"
     inkscape:deskcolor="#d1d1d1"
     inkscape:document-units="mm"
     showgrid="false"
     inkscape:zoom="0.914906"
     inkscape:cx="368.34385"
     inkscape:cy="314.23993"
     inkscape:window-width="1350"
     inkscape:window-height="1230"
     inkscape:window-x="179"
     inkscape:window-y="914"
     inkscape:window-maximized="0"
     inkscape:current-layer="layer1" /><defs
     id="defs2"><clipPath
       id="clip0"><rect
         x="-25"
         y="0"
         width="785"
         height="1091"
         id="rect9" /></clipPath><clipPath
       id="clip0-8"><rect
         x="-25"
         y="0"
         width="785"
         height="524"
         id="rect520" /></clipPath><clipPath
       id="clip0-3"><rect
         x="-25"
         y="0"
         width="785"
         height="1091"
         id="rect699" /></clipPath><clipPath
       id="clip0-0"><rect
         x="-25"
         y="0"
         width="785"
         height="1091"
         id="rect1109" /></clipPath><clipPath
       id="clip0-4"><rect
         x="-25"
         y="0"
         width="934"
         height="905"
         id="rect1519" /></clipPath><clipPath
       id="clip0-42"><rect
         x="-7"
         y="0"
         width="952"
         height="590"
         id="rect1929" /></clipPath><clipPath
       id="clip0-1"><rect
         x="-25"
         y="0"
         width="785"
         height="1091"
         id="rect2197" /></clipPath><clipPath
       id="clip0-6"><rect
         x="-25"
         y="0"
         width="785"
         height="1091"
         id="rect2806" /></clipPath><clipPath
       id="clip0-66"><rect
         x="11"
         y="-21"
         width="934"
         height="904"
         id="rect3369" /></clipPath><clipPath
       id="clip0-41"><rect
         x="-7"
         y="0"
         width="743"
         height="335"
         id="rect3934" /></clipPath><clipPath
       id="clip0-7"><rect
         x="-7"
         y="0"
         width="743"
         height="335"
         id="rect4109" /></clipPath><clipPath
       id="clip0-9"><rect
         x="-25"
         y="0"
         width="785"
         height="524"
         id="rect4320" /></clipPath><clipPath
       id="clip0-96"><rect
         x="-25"
         y="0"
         width="785"
         height="713"
         id="rect4583" /></clipPath><clipPath
       id="clip0-08"><rect
         x="144"
         y="424"
         width="837"
         height="501"
         id="rect4932" /></clipPath><clipPath
       id="clip0-87"><rect
         x="144"
         y="424"
         width="837"
         height="501"
         id="rect5261" /></clipPath><clipPath
       id="clip0-68"><rect
         x="201"
         y="68"
         width="837"
         height="501"
         id="rect5590" /></clipPath><clipPath
       id="clip0-69"><rect
         x="212"
         y="141"
         width="635"
         height="281"
         id="rect6057" /></clipPath><clipPath
       id="clip0-44"><rect
         x="75"
         y="7"
         width="780"
         height="757"
         id="rect6214" /></clipPath><clipPath
       id="clip0-38"><rect
         x="75"
         y="8"
         width="780"
         height="752"
         id="rect6713" /></clipPath><clipPath
       id="clip0-080"><rect
         x="62"
         y="92"
         width="671"
         height="543"
         id="rect7166" /></clipPath><clipPath
       id="clip0-48"><rect
         x="678"
         y="67"
         width="591"
         height="294"
         id="rect7433" /></clipPath><clipPath
       id="clip0-00"><rect
         x="-7"
         y="0"
         width="952"
         height="574"
         id="rect7818" /></clipPath><clipPath
       id="clip0-2"><rect
         x="-7"
         y="0"
         width="952"
         height="543"
         id="rect8173" /></clipPath><clipPath
       id="clip0-09"><rect
         x="-7"
         y="0"
         width="952"
         height="612"
         id="rect8510" /></clipPath><clipPath
       id="clip0-99"><rect
         x="-7"
         y="0"
         width="952"
         height="659"
         id="rect8897" /></clipPath><clipPath
       id="clip0-31"><rect
         x="-7"
         y="0"
         width="952"
         height="653"
         id="rect9282" /></clipPath><clipPath
       id="clip0-5"><rect
         x="-7"
         y="0"
         width="952"
         height="697"
         id="rect9673" /></clipPath><clipPath
       id="clip0-24"><rect
         x="-7"
         y="0"
         width="952"
         height="826"
         id="rect10090" /></clipPath><clipPath
       id="clip0-46"><rect
         x="-7"
         y="0"
         width="952"
         height="612"
         id="rect10541" /></clipPath></defs><g
     inkscape:label="Layer 1"
     inkscape:groupmode="layer"
     id="layer1"
     transform="translate(-6.0243877,-157.08272)"><g
       clip-path="url(#clip0-46)"
       transform="matrix(0.26458333,0,0,0.26458333,6.0243877,154.9043)"
       id="g10694"><text
         fill="#7d3368"
         font-family="Calibri, Calibri_MSFontService, sans-serif"
         font-weight="400"
         font-size="15px"
         transform="translate(318.346,19)"
         id="text10550">Memory Corruption/Disclosure (_MEM) BF Cluster<tspan
   fill="#000000"
   font-size="15px"
   x="48.2533"
   y="35"
   id="tspan10546">Memory Allocation (MAL) BF Class</tspan><tspan
   fill="#000000"
   font-size="15px"
   x="-185.2"
   y="63"
   id="tspan10548">Causes</tspan></text><path
         d="M 0,111.667 C 0,104.119 6.11887,98 13.6669,98 H 301.333 c 7.548,0 13.667,6.119 13.667,13.667 v 54.666 C 315,173.881 308.881,180 301.333,180 H 13.6669 C 6.11887,180 0,173.881 0,166.333 Z"
         fill="#e8effc"
         fill-rule="evenodd"
         id="path10552" /><text
         fill="#7d3368"
         font-family="Calibri, Calibri_MSFontService, sans-serif"
         font-weight="400"
         font-size="15px"
         transform="translate(6.09722,117)"
         id="text10560">Code Defect Bug<tspan
   fill="#000000"
   font-size="15px"
   x="216.33299"
   y="17"
   id="tspan10554">Missing Code</tspan><tspan
   fill="#000000"
   font-size="15px"
   x="157.66701"
   y="35"
   id="tspan10556">Mismatched Operation</tspan><tspan
   fill="#000000"
   font-size="15px"
   x="200.16701"
   y="53"
   id="tspan10558">Erroneous Code</tspan></text><path
         d="m 0.0151359,-0.332989 9.6250041,0.4375 4.45506,0.438764 4.0188,0.627385 3.3287,0.69046 2.6559,0.82045 c 0.0189,0.00586 0.0373,0.01339 0.0548,0.02251 l 1.6875,0.875 c 0.0517,0.02681 0.0955,0.06669 0.127,0.11567 l 0.5625,0.875 0.5625,0.875 -0.127,-0.11567 1.6875,0.875 -0.0548,-0.02251 2.625,0.8125 3.2816,0.67955 3.9838,0.62204 4.4187,0.43511 2.9378,0.11744 L 45.8188,9.51434 42.8423,9.39422 38.386,8.95434 34.3698,8.32638 31.0264,7.63093 28.4014,6.81843 C 28.3825,6.81257 28.3641,6.80504 28.3466,6.79592 l -1.6875,-0.875 C 26.6074,5.89411 26.5636,5.85423 26.5321,5.80525 l -0.5625,-0.875 -0.5625,-0.875 0.127,0.11567 -1.6875,-0.875 0.0548,0.02251 L 21.3073,2.51388 18.011,1.82934 14.0298,1.20673 9.60986,0.770489 -0.0151359,0.332989 Z M 44.6604,5.13098 l 7.833,4.31784 -8.154,3.67568 z"
         transform="matrix(1,0,0,-1,315.5,138.949)"
         id="path10562" /><path
         d="M 0,211.834 C 0,202.537 7.53673,195 16.8338,195 H 298.166 c 9.297,0 16.834,7.537 16.834,16.834 v 67.332 C 315,288.463 307.463,296 298.166,296 H 16.8338 C 7.53673,296 0,288.463 0,279.166 Z"
         fill="#f4f2f8"
         fill-rule="evenodd"
         id="path10564" /><text
         fill="#7d3368"
         font-family="Calibri, Calibri_MSFontService, sans-serif"
         font-weight="400"
         font-size="15px"
         transform="translate(7.01974,215)"
         id="text10574">Data Fault<tspan
   fill="#000000"
   font-size="15px"
   x="176.83299"
   y="17"
   id="tspan10566">Hardcoded Address</tspan><tspan
   fill="#000000"
   font-size="15px"
   x="181.5"
   y="35"
   id="tspan10568">Forbidden Address</tspan><tspan
   fill="#000000"
   font-size="15px"
   x="161"
   y="53"
   id="tspan10570">Single Owned Address</tspan><tspan
   fill="#000000"
   font-size="15px"
   x="226.5"
   y="70"
   id="tspan10572">Wrong Size</tspan></text><path
         d="M 0.0423881,-0.330627 2.47989,-0.0181272 c 0.02889,0.0037042 0.05718,0.01118128 0.08413,0.02223766 L 5.00152,1.00411 c 0.01859,0.00763 0.03645,0.01692 0.05337,0.02776 l 2.4375,1.5625 c 0.0162,0.01039 0.03148,0.02217 0.04565,0.03519 l 2.3125,2.125 2.28006,2.71896 2.2031,3.08278 2.0798,3.5892 1.9481,3.9573 3.3254,8.8424 2.6351,9.9067 1.6945,10.5327 0.5663,10.9107 0.5625,10.875 1.6837,10.4643 2.618,9.8423 3.3024,8.7808 1.9236,3.8433 2.0529,3.544 2.1721,3.101 2.23,2.6 -0.0564,-0.053 3.4259,2.504 -0.3934,0.538 -3.4259,-2.503 c -0.0207,-0.016 -0.0397,-0.033 -0.0564,-0.053 l -2.27,-2.65 -2.2029,-3.149 -2.0721,-3.581 -1.9514,-3.9067 -3.3226,-8.8442 -2.632,-9.9077 L 26.4796,69.2047 25.9171,58.3297 25.3584,47.4904 23.6779,37.0231 21.063,27.1798 17.7634,18.3972 15.8365,14.4795 13.7913,10.9437 11.6194,7.90148 9.39946,5.24544 7.08696,3.12044 7.13261,3.15563 4.69511,1.59313 4.74848,1.62089 2.31098,0.620889 2.39511,0.643127 -0.0423881,0.330627 Z M 46.5438,109.857 l 5.9496,6.678 -8.9125,0.753 z"
         transform="matrix(1,0,0,-1,315.5,246.035)"
         id="path10576" /><path
         d="M 0,325.667 C 0,318.119 6.11887,312 13.6669,312 H 301.333 c 7.548,0 13.667,6.119 13.667,13.667 v 54.666 C 315,387.881 308.881,394 301.333,394 H 13.6669 C 6.11887,394 0,387.881 0,380.333 Z"
         fill="#f4f2f8"
         fill-rule="evenodd"
         id="path10578" /><text
         fill="#7d3368"
         font-family="Calibri, Calibri_MSFontService, sans-serif"
         font-weight="400"
         font-size="15px"
         transform="translate(6.09722,331)"
         id="text10586">Address Fault<tspan
   fill="#000000"
   font-size="15px"
   x="221"
   y="17"
   id="tspan10580">Wild Pointer</tspan><tspan
   fill="#000000"
   font-size="15px"
   x="196.66701"
   y="35"
   id="tspan10582">Dangling Pointer</tspan><tspan
   fill="#000000"
   font-size="15px"
   x="157"
   y="53"
   id="tspan10584">Wrong Position Pointer</tspan></text><path
         d="m 0.0827918,-0.322888 2.4374982,0.625 C 2.564,0.313319 2.60497,0.333281 2.64074,0.360792 L 5.07824,2.23579 C 5.09876,2.25158 5.11738,2.26971 5.1337,2.2898 l 2.4375,3 C 7.58321,5.30458 7.59395,5.32039 7.60326,5.337 l 2.3125,4.125 2.26384,5.0901 2.1957,5.9577 2.0687,6.8311 1.9412,7.5132 1.7533,8.2012 1.5646,8.7611 1.4388,9.2574 1.1889,9.6354 1.6889,20.2005 0.5635,20.8943 0.5625,20.875 1.6865,20.168 1.1862,9.675 1.4359,9.176 1.5613,8.743 1.7479,8.177 1.9342,7.486 2.0588,6.799 2.1813,5.919 2.2418,5.043 2.2987,4.097 -0.0659,-0.083 1.8393,1.681 -0.4498,0.492 -1.8393,-1.681 c -0.0262,-0.024 -0.0485,-0.052 -0.0659,-0.083 l -2.3263,-4.153 -2.2582,-5.082 -2.1937,-5.956 -2.0662,-6.826 -1.9408,-7.514 -1.7521,-8.198 -1.5637,-8.757 -1.4391,-9.199 -1.1888,-9.7 L 26.4793,132.696 25.9168,111.821 25.3553,90.9653 23.6692,70.7908 22.4831,61.1762 21.0469,51.9336 19.4865,43.1947 17.7398,35.0209 15.806,27.5341 13.7497,20.7402 11.5704,14.8229 9.33424,9.788 7.02174,5.663 l 0.03205,0.0472 -2.4375,-3 0.05547,0.05401 -2.4375,-1.875002 0.12045,0.05868 -2.4375018,-0.625 z M 48.2229,215.763 l 4.2705,7.859 -8.8494,-1.299 z"
         transform="matrix(1,0,0,-1,315.5,353.122)"
         id="path10588" /><text
         font-family="Calibri, Calibri_MSFontService, sans-serif"
         font-weight="400"
         font-size="15px"
         transform="translate(740.818,82)"
         id="text10590">Consequences</text><path
         d="m 630,108.5 c 0,-5.799 4.701,-10.5 10.5,-10.5 h 294 c 5.799,0 10.5,4.701 10.5,10.5 v 42 c 0,5.799 -4.701,10.5 -10.5,10.5 h -294 c -5.799,0 -10.5,-4.701 -10.5,-10.5 z"
         fill="#f4f2f8"
         fill-rule="evenodd"
         id="path10592" /><text
         fill="#7d3368"
         font-family="Calibri, Calibri_MSFontService, sans-serif"
         font-weight="400"
         font-size="15px"
         transform="translate(635.096,116)"
         id="text10598">Address Error<tspan
   fill="#000000"
   font-size="15px"
   x="219"
   y="17"
   id="tspan10594">NULL Pointer</tspan><tspan
   fill="#000000"
   font-size="15px"
   x="222.83299"
   y="35"
   id="tspan10596">Wild Pointer</tspan></text><path
         d="m 577.5,129.167 h 9.625 4.438 4 3.312 2.625 1.688 0.562 0.563 1.687 2.625 3.313 4 4.437 2.952 v 0.666 h -2.952 -4.437 -4 -3.313 -2.625 -1.687 -0.563 -0.562 -1.688 -2.625 -3.312 -4 -4.438 -9.625 z m 44.494,-3.667 7.999,4 -8,4 z"
         id="path10600" /><path
         d="m 630,183.334 c 0,-4.051 3.283,-7.334 7.333,-7.334 h 300.334 c 4.05,0 7.333,3.283 7.333,7.334 v 29.332 c 0,4.051 -3.283,7.334 -7.333,7.334 H 637.333 c -4.05,0 -7.333,-3.283 -7.333,-7.334 z"
         fill="#f4f2f8"
         fill-rule="evenodd"
         id="path10602" /><text
         fill="#7d3368"
         font-family="Calibri, Calibri_MSFontService, sans-serif"
         font-weight="400"
         font-size="15px"
         transform="translate(634.174,194)"
         id="text10606">Size Error<tspan
   fill="#000000"
   font-size="15px"
   x="115.333"
   y="17"
   id="tspan10604">Not Enough Memory Allocated</tspan></text><path
         d="m 577.526,129.168 2.437,0.187 c 0.017,0.001 0.033,0.004 0.05,0.008 l 2.437,0.562 c 0.023,0.006 0.046,0.014 0.068,0.024 l 4.75,2.25 c 0.022,0.01 0.042,0.023 0.061,0.038 l 4.438,3.437 c 0.015,0.012 0.03,0.026 0.043,0.04 l 4,4.438 c 0.013,0.014 0.024,0.029 0.034,0.045 l 3.313,5.25 2.647,5.853 c 0.007,0.017 0.013,0.034 0.018,0.051 l 1.688,6.313 c 0.005,0.019 0.008,0.038 0.01,0.057 l 0.562,6.438 0.563,6.437 -0.011,-0.058 1.688,6.25 -0.018,-0.049 2.625,5.875 -0.022,-0.042 3.312,5.25 -0.034,-0.045 4,4.437 -0.046,-0.042 4.438,3.375 -0.081,-0.045 3.182,1.244 -0.243,0.621 -3.181,-1.244 c -0.029,-0.011 -0.056,-0.026 -0.081,-0.045 l -4.437,-3.375 c -0.017,-0.013 -0.032,-0.027 -0.046,-0.042 l -4,-4.438 c -0.013,-0.014 -0.024,-0.029 -0.034,-0.045 l -3.313,-5.25 c -0.008,-0.014 -0.016,-0.027 -0.022,-0.042 l -2.625,-5.875 c -0.007,-0.016 -0.013,-0.032 -0.018,-0.049 l -1.687,-6.25 c -0.005,-0.019 -0.009,-0.038 -0.011,-0.058 l -0.562,-6.437 -0.563,-6.438 0.011,0.057 -1.688,-6.312 0.018,0.051 -2.603,-5.772 -3.312,-5.25 0.034,0.045 -4,-4.437 0.043,0.04 -4.437,-3.437 0.061,0.037 -4.75,-2.25 0.068,0.024 -2.437,-0.563 0.049,0.008 -2.438,-0.188 z m 45.784,63.68 6.683,5.943 -8.765,1.781 z"
         id="path10608" /><path
         d="M 630,252.834 C 630,243.537 637.537,236 646.834,236 h 281.332 c 9.297,0 16.834,7.537 16.834,16.834 v 67.332 C 945,329.463 937.463,337 928.166,337 H 646.834 C 637.537,337 630,329.463 630,320.166 Z"
         fill="#dfdaea"
         fill-rule="evenodd"
         id="path10610" /><text
         fill="#7d3368"
         font-family="Calibri, Calibri_MSFontService, sans-serif"
         font-weight="400"
         font-size="15px"
         transform="translate(636.941,256)"
         id="text10620">Memory Corruption/Disclosure Final Error<tspan
   fill="#000000"
   font-size="15px"
   x="184.16701"
   y="17"
   id="tspan10612">Memory Overflow</tspan><tspan
   fill="#000000"
   font-size="15px"
   x="211.83299"
   y="35"
   id="tspan10614">Memory Leak</tspan><tspan
   fill="#000000"
   font-size="15px"
   x="220.83299"
   y="53"
   id="tspan10616">Double Free</tspan><tspan
   fill="#000000"
   font-size="15px"
   x="186.16701"
   y="70"
   id="tspan10618">Object Corruption</tspan></text><path
         d="m 577.559,129.172 2.437,0.437 c 0.035,0.007 0.069,0.018 0.1,0.035 l 2.437,1.313 c 0.022,0.011 0.042,0.025 0.061,0.042 l 2.438,2.125 c 0.014,0.013 0.028,0.027 0.04,0.042 l 2.313,2.875 2.272,3.594 2.202,4.275 2.072,4.77 1.945,5.331 1.755,5.767 1.567,6.14 2.629,13.33 1.692,14.275 0.564,14.714 0.563,14.688 1.685,14.223 2.621,13.288 1.559,6.107 1.745,5.735 1.932,5.295 2.055,4.732 2.178,4.23 2.236,3.537 2.29,2.844 -0.094,-0.081 1.386,0.79 -0.33,0.579 -1.386,-0.789 c -0.037,-0.021 -0.069,-0.048 -0.095,-0.081 l -2.335,-2.906 -2.264,-3.588 -2.197,-4.27 -2.07,-4.768 -1.943,-5.33 -1.754,-5.765 -1.567,-6.142 -2.629,-13.338 -1.69,-14.277 -0.562,-14.687 -0.56,-14.661 -1.684,-14.225 -2.621,-13.295 -1.558,-6.11 -1.745,-5.733 -1.93,-5.294 -2.053,-4.73 -2.173,-4.224 -2.228,-3.532 -2.312,-2.875 0.041,0.042 -2.438,-2.125 0.061,0.043 -2.437,-1.313 0.099,0.035 -2.438,-0.438 z m 47.17,150.577 5.264,7.231 -8.943,-0.127 z"
         id="path10622" /><text
         font-family="Calibri, Calibri_MSFontService, sans-serif"
         font-weight="400"
         font-size="15px"
         transform="translate(435.691,82)"
         id="text10624">Operations</text><rect
         x="367.5"
         y="98.500099"
         width="210"
         height="63"
         stroke="#000000"
         stroke-width="0.666667"
         stroke-linejoin="round"
         stroke-miterlimit="10"
         fill="none"
         id="rect10626" /><text
         font-family="Calibri, Calibri_MSFontService, sans-serif"
         font-weight="400"
         font-size="15px"
         transform="translate(444.607,116)"
         id="text10634">Allocate<tspan
   font-size="15px"
   x="3.58002"
   y="17"
   id="tspan10628">Extend</tspan><tspan
   font-size="15px"
   x="-29.6667"
   y="35"
   id="tspan10630">Reallocate</tspan>-Extend<tspan
   font-size="15px"
   x="-4.8333402"
   y="79"
   id="tspan10632">Operands</tspan></text><rect
         x="367.5"
         y="211.5"
         width="210"
         height="44"
         stroke="#000000"
         stroke-width="0.666667"
         stroke-linejoin="round"
         stroke-miterlimit="10"
         fill="none"
         id="rect10636" /><text
         font-family="Calibri, Calibri_MSFontService, sans-serif"
         font-weight="400"
         font-size="15px"
         transform="translate(454.777,230)"
         id="text10676">Data<tspan
   font-size="15px"
   x="-9.9200096"
   y="17"
   id="tspan10638">Address</tspan><tspan
   font-size="15px"
   x="-16.0033"
   y="198"
   id="tspan10640">Attributes</tspan><tspan
   fill="#7d3368"
   font-size="15px"
   x="-452.67801"
   y="233"
   id="tspan10642">Mechanism</tspan><tspan
   font-size="15px"
   x="-431.67801"
   y="250"
   id="tspan10644">Implicit</tspan><tspan
   font-size="15px"
   x="-431.67801"
   y="268"
   id="tspan10646">Explicit</tspan><tspan
   fill="#7d3368"
   font-size="15px"
   x="-208.58299"
   y="233"
   id="tspan10648">Source Code</tspan><tspan
   font-size="15px"
   x="-187.58299"
   y="250"
   id="tspan10650">Codebase</tspan><tspan
   font-size="15px"
   x="-187.58299"
   y="268"
   id="tspan10652">Third</tspan>-Party<tspan
   font-size="15px"
   x="-187.58299"
   y="286"
   id="tspan10654">Standard Library</tspan><tspan
   font-size="15px"
   x="-187.58299"
   y="303"
   id="tspan10656">Compiler/Interpreter</tspan><tspan
   fill="#7d3368"
   font-size="15px"
   x="35.511299"
   y="233"
   id="tspan10658">Execution Space</tspan><tspan
   font-size="15px"
   x="56.511299"
   y="250"
   id="tspan10660">Userland</tspan><tspan
   font-size="15px"
   x="56.511299"
   y="268"
   id="tspan10662">Kernel</tspan><tspan
   font-size="15px"
   x="56.511299"
   y="286"
   id="tspan10664">Bare</tspan><tspan
   font-size="15px"
   x="84.011299"
   y="286"
   id="tspan10666">-</tspan>Metal<tspan
   fill="#7d3368"
   font-size="15px"
   x="279.60599"
   y="233"
   id="tspan10668">Address State</tspan><tspan
   font-size="15px"
   x="300.60599"
   y="250"
   id="tspan10670">Stack</tspan><tspan
   font-size="15px"
   x="300.60599"
   y="268"
   id="tspan10672">Heap</tspan><tspan
   font-size="15px"
   x="300.60599"
   y="286"
   id="tspan10674">/other/</tspan></text><path
         d="M 0,584.167 C 0,581.866 1.86552,580 4.16675,580 H 37.8333 C 40.1345,580 42,581.866 42,584.167 v 16.666 C 42,603.134 40.1345,605 37.8333,605 H 4.16675 C 1.86552,605 0,603.134 0,600.833 Z"
         fill="#e8effc"
         fill-rule="evenodd"
         id="path10678" /><text
         font-family="Calibri, Calibri_MSFontService, sans-serif"
         font-weight="400"
         font-size="15px"
         transform="translate(44.0945,598)"
         id="text10680">Bug</text><path
         d="m 236,584.167 c 0,-2.301 1.866,-4.167 4.167,-4.167 h 33.666 c 2.301,0 4.167,1.866 4.167,4.167 v 16.666 c 0,2.301 -1.866,4.167 -4.167,4.167 H 240.167 C 237.866,605 236,603.134 236,600.833 Z"
         fill="#f4f2f8"
         fill-rule="evenodd"
         id="path10682" /><text
         font-family="Calibri, Calibri_MSFontService, sans-serif"
         font-weight="400"
         font-size="15px"
         transform="translate(280.315,598)"
         id="text10684">Fault/Error</text><path
         d="m 472,584.167 c 0,-2.301 1.866,-4.167 4.167,-4.167 h 33.666 c 2.301,0 4.167,1.866 4.167,4.167 v 16.666 c 0,2.301 -1.866,4.167 -4.167,4.167 H 476.167 C 473.866,605 472,603.134 472,600.833 Z"
         fill="#dfdaea"
         fill-rule="evenodd"
         id="path10686" /><text
         font-family="Calibri, Calibri_MSFontService, sans-serif"
         font-weight="400"
         font-size="15px"
         transform="translate(516.535,598)"
         id="text10688">Final Error</text><rect
         x="709.5"
         y="580.5"
         width="42"
         height="25"
         stroke="#000000"
         stroke-width="0.666667"
         stroke-linejoin="round"
         stroke-miterlimit="10"
         fill="none"
         id="rect10690" /><text
         font-family="Calibri, Calibri_MSFontService, sans-serif"
         font-weight="400"
         font-size="15px"
         transform="translate(752.756,598)"
         id="text10692">Operation/Operand</text></g></g></svg>
