<?xml version="1.0" encoding="UTF-8" standalone="no"?>
<!-- Created with Inkscape (http://www.inkscape.org/) -->

<svg
   width="250.03125mm"
   height="168.96289mm"
   viewBox="0 0 250.03124 168.96289"
   version="1.1"
   id="svg5"
   inkscape:export-filename="MUS.png"
   inkscape:export-xdpi="96"
   inkscape:export-ydpi="96"
   xml:space="preserve"
   inkscape:version="1.2.2 (b0a8486541, 2022-12-01)"
   sodipodi:docname="MDL.svg"
   xmlns:inkscape="http://www.inkscape.org/namespaces/inkscape"
   xmlns:sodipodi="http://sodipodi.sourceforge.net/DTD/sodipodi-0.dtd"
   xmlns="http://www.w3.org/2000/svg"
   xmlns:svg="http://www.w3.org/2000/svg"><sodipodi:namedview
     id="namedview7"
     pagecolor="#ffffff"
     bordercolor="#000000"
     borderopacity="0.25"
     inkscape:showpageshadow="2"
     inkscape:pageopacity="0.0"
     inkscape:pagecheckerboard="0"
     inkscape:deskcolor="#d1d1d1"
     inkscape:document-units="mm"
     showgrid="false"
     inkscape:zoom="0.914906"
     inkscape:cx="463.43559"
     inkscape:cy="456.33103"
     inkscape:window-width="1350"
     inkscape:window-height="1230"
     inkscape:window-x="179"
     inkscape:window-y="914"
     inkscape:window-maximized="0"
     inkscape:current-layer="layer1" /><defs
     id="defs2"><clipPath
       id="clip0"><rect
         x="-25"
         y="0"
         width="785"
         height="1091"
         id="rect9" /></clipPath><clipPath
       id="clip0-8"><rect
         x="-25"
         y="0"
         width="785"
         height="524"
         id="rect520" /></clipPath><clipPath
       id="clip0-3"><rect
         x="-25"
         y="0"
         width="785"
         height="1091"
         id="rect699" /></clipPath><clipPath
       id="clip0-0"><rect
         x="-25"
         y="0"
         width="785"
         height="1091"
         id="rect1109" /></clipPath><clipPath
       id="clip0-4"><rect
         x="-25"
         y="0"
         width="934"
         height="905"
         id="rect1519" /></clipPath><clipPath
       id="clip0-42"><rect
         x="-7"
         y="0"
         width="952"
         height="590"
         id="rect1929" /></clipPath><clipPath
       id="clip0-1"><rect
         x="-25"
         y="0"
         width="785"
         height="1091"
         id="rect2197" /></clipPath><clipPath
       id="clip0-6"><rect
         x="-25"
         y="0"
         width="785"
         height="1091"
         id="rect2806" /></clipPath><clipPath
       id="clip0-66"><rect
         x="11"
         y="-21"
         width="934"
         height="904"
         id="rect3369" /></clipPath><clipPath
       id="clip0-41"><rect
         x="-7"
         y="0"
         width="743"
         height="335"
         id="rect3934" /></clipPath><clipPath
       id="clip0-7"><rect
         x="-7"
         y="0"
         width="743"
         height="335"
         id="rect4109" /></clipPath><clipPath
       id="clip0-9"><rect
         x="-25"
         y="0"
         width="785"
         height="524"
         id="rect4320" /></clipPath><clipPath
       id="clip0-96"><rect
         x="-25"
         y="0"
         width="785"
         height="713"
         id="rect4583" /></clipPath><clipPath
       id="clip0-08"><rect
         x="144"
         y="424"
         width="837"
         height="501"
         id="rect4932" /></clipPath><clipPath
       id="clip0-87"><rect
         x="144"
         y="424"
         width="837"
         height="501"
         id="rect5261" /></clipPath><clipPath
       id="clip0-68"><rect
         x="201"
         y="68"
         width="837"
         height="501"
         id="rect5590" /></clipPath><clipPath
       id="clip0-69"><rect
         x="212"
         y="141"
         width="635"
         height="281"
         id="rect6057" /></clipPath><clipPath
       id="clip0-44"><rect
         x="75"
         y="7"
         width="780"
         height="757"
         id="rect6214" /></clipPath><clipPath
       id="clip0-38"><rect
         x="75"
         y="8"
         width="780"
         height="752"
         id="rect6713" /></clipPath><clipPath
       id="clip0-080"><rect
         x="62"
         y="92"
         width="671"
         height="543"
         id="rect7166" /></clipPath><clipPath
       id="clip0-48"><rect
         x="678"
         y="67"
         width="591"
         height="294"
         id="rect7433" /></clipPath><clipPath
       id="clip0-00"><rect
         x="-7"
         y="0"
         width="952"
         height="574"
         id="rect7818" /></clipPath><clipPath
       id="clip0-2"><rect
         x="-7"
         y="0"
         width="952"
         height="543"
         id="rect8173" /></clipPath><clipPath
       id="clip0-09"><rect
         x="-7"
         y="0"
         width="952"
         height="612"
         id="rect8510" /></clipPath><clipPath
       id="clip0-99"><rect
         x="-7"
         y="0"
         width="952"
         height="659"
         id="rect8897" /></clipPath><clipPath
       id="clip0-31"><rect
         x="-7"
         y="0"
         width="952"
         height="653"
         id="rect9282" /></clipPath><clipPath
       id="clip0-5"><rect
         x="-7"
         y="0"
         width="952"
         height="697"
         id="rect9673" /></clipPath><clipPath
       id="clip0-24"><rect
         x="-7"
         y="0"
         width="952"
         height="826"
         id="rect10090" /></clipPath><clipPath
       id="clip0-46"><rect
         x="-7"
         y="0"
         width="952"
         height="612"
         id="rect10541" /></clipPath><clipPath
       id="clip0-461"><rect
         x="-7"
         y="0"
         width="952"
         height="769"
         id="rect10914" /></clipPath><clipPath
       id="clip0-80"><rect
         x="-7"
         y="0"
         width="952"
         height="653"
         id="rect11389" /></clipPath></defs><g
     inkscape:label="Layer 1"
     inkscape:groupmode="layer"
     id="layer1"
     transform="translate(19.304814,-119.53884)"><g
       clip-path="url(#clip0-80)"
       transform="matrix(0.26458333,0,0,0.26458333,-19.304814,117.36042)"
       id="g11546"><text
         fill="#7d3368"
         font-family="Calibri, Calibri_MSFontService, sans-serif"
         font-weight="400"
         font-size="15px"
         transform="translate(318.346,19)"
         id="text11398">Memory Corruption/Disclosure (_MEM) BF Cluster<tspan
   fill="#000000"
   font-size="15px"
   x="40.5867"
   y="35"
   id="tspan11394">Memory Deallocation (MDL) BF Class</tspan><tspan
   fill="#000000"
   font-size="15px"
   x="-185.2"
   y="63"
   id="tspan11396">Causes</tspan></text><path
         d="M 0,111.667 C 0,104.119 6.11887,98 13.6669,98 H 301.333 c 7.548,0 13.667,6.119 13.667,13.667 v 54.666 C 315,173.881 308.881,180 301.333,180 H 13.6669 C 6.11887,180 0,173.881 0,166.333 Z"
         fill="#e8effc"
         fill-rule="evenodd"
         id="path11400" /><text
         fill="#7d3368"
         font-family="Calibri, Calibri_MSFontService, sans-serif"
         font-weight="400"
         font-size="15px"
         transform="translate(6.09722,117)"
         id="text11408">Code Defect Bug<tspan
   fill="#000000"
   font-size="15px"
   x="216.33299"
   y="17"
   id="tspan11402">Missing Code</tspan><tspan
   fill="#000000"
   font-size="15px"
   x="157.66701"
   y="35"
   id="tspan11404">Mismatched Operation</tspan><tspan
   fill="#000000"
   font-size="15px"
   x="200.16701"
   y="53"
   id="tspan11406">Erroneous Code</tspan></text><path
         d="m 0.0151359,-0.332989 9.6250041,0.4375 4.45506,0.438764 4.0188,0.627385 3.3287,0.69046 2.6559,0.82045 c 0.0189,0.00586 0.0373,0.01339 0.0548,0.02251 l 1.6875,0.875 c 0.0517,0.02681 0.0955,0.06669 0.127,0.11567 l 0.5625,0.875 0.5625,0.875 -0.127,-0.11567 1.6875,0.875 -0.0548,-0.02251 2.625,0.8125 3.2816,0.67955 3.9838,0.62204 4.4187,0.43511 2.9378,0.11744 L 45.8188,9.51434 42.8423,9.39422 38.386,8.95434 34.3698,8.32638 31.0264,7.63093 28.4014,6.81843 C 28.3825,6.81257 28.3641,6.80504 28.3466,6.79592 l -1.6875,-0.875 C 26.6074,5.89411 26.5636,5.85423 26.5321,5.80525 l -0.5625,-0.875 -0.5625,-0.875 0.127,0.11567 -1.6875,-0.875 0.0548,0.02251 L 21.3073,2.51388 18.011,1.82934 14.0298,1.20673 9.60986,0.770489 -0.0151359,0.332989 Z M 44.6604,5.13098 l 7.833,4.31784 -8.154,3.67568 z"
         transform="matrix(1,0,0,-1,315.5,138.949)"
         id="path11410" /><path
         d="M 0,208.667 C 0,201.119 6.11887,195 13.6669,195 H 301.333 c 7.548,0 13.667,6.119 13.667,13.667 v 54.666 C 315,270.881 308.881,277 301.333,277 H 13.6669 C 6.11887,277 0,270.881 0,263.333 Z"
         fill="#f4f2f8"
         fill-rule="evenodd"
         id="path11412" /><text
         fill="#7d3368"
         font-family="Calibri, Calibri_MSFontService, sans-serif"
         font-weight="400"
         font-size="15px"
         transform="translate(6.09722,214)"
         id="text11420">Data Fault<tspan
   fill="#000000"
   font-size="15px"
   x="178.66701"
   y="17"
   id="tspan11414">Hardcoded Address</tspan><tspan
   fill="#000000"
   font-size="15px"
   x="183.33299"
   y="35"
   id="tspan11416">Forbidden Address</tspan><tspan
   fill="#000000"
   font-size="15px"
   x="228.33299"
   y="53"
   id="tspan11418">Wrong Size</tspan></text><path
         d="M 0.0423881,-0.330627 2.47989,-0.0181272 c 0.02396,0.0030714 0.0475,0.00873504 0.07023,0.01689565 L 4.98762,0.873768 c 0.0197,0.007073 0.03868,0.015977 0.05671,0.02661 l 2.4375,1.437502 c 0.01726,0.01018 0.03356,0.02189 0.04872,0.035 l 2.3125,2 2.27685,2.46353 2.2057,2.83394 2.0808,3.27605 1.9501,3.6465 3.3272,8.1563 2.6365,9.0956 1.6956,9.6601 0.567,10.0389 0.5625,10 1.6831,9.649 2.6168,9.027 3.3006,8.0285 1.9232,3.5946 2.0499,3.2285 2.1714,2.8518 2.2267,2.3478 -0.0546,-0.047 3.3616,2.286 -0.3748,0.551 -3.3616,-2.285 c -0.0198,-0.014 -0.0381,-0.029 -0.0546,-0.047 l -2.2733,-2.402 -2.2036,-2.8984 -2.0751,-3.2715 -1.9518,-3.6554 -3.3244,-8.0965 -2.6332,-9.098 -1.6919,-9.726 -0.5625,-10 -0.558,-9.9611 -1.6794,-9.5899 -2.6135,-9.0294 -3.2978,-8.0937 -1.9249,-3.6035 -2.0442,-3.224 -2.1693,-2.79101 -2.22315,-2.41147 -2.3125,-2 0.04872,0.035 -2.4375,-1.4375 0.05671,0.02661 -2.4375,-0.874998 0.07023,0.016895 -2.4374981,-0.3125 z M 46.366,100.571 l 6.1274,6.516 -8.889,0.992 z"
         transform="matrix(1,0,0,-1,315.5,236.587)"
         id="path11422" /><path
         d="M 0,306.667 C 0,299.119 6.11887,293 13.6669,293 H 301.333 c 7.548,0 13.667,6.119 13.667,13.667 v 54.666 C 315,368.881 308.881,375 301.333,375 H 13.6669 C 6.11887,375 0,368.881 0,361.333 Z"
         fill="#f4f2f8"
         fill-rule="evenodd"
         id="path11424" /><text
         fill="#7d3368"
         font-family="Calibri, Calibri_MSFontService, sans-serif"
         font-weight="400"
         font-size="15px"
         transform="translate(6.09722,312)"
         id="text11432">Address Fault<tspan
   fill="#000000"
   font-size="15px"
   x="221"
   y="17"
   id="tspan11426">Wild Pointer</tspan><tspan
   fill="#000000"
   font-size="15px"
   x="196.66701"
   y="35"
   id="tspan11428">Dangling Pointer</tspan><tspan
   fill="#000000"
   font-size="15px"
   x="157"
   y="53"
   id="tspan11430">Wrong Position Pointer</tspan></text><path
         d="m 0.0749532,-0.324797 2.4374968,0.5625 c 0.043,0.009923 0.0836,0.028285 0.11945,0.054022 L 5.0694,2.04173 C 5.08954,2.05619 5.108,2.07284 5.12445,2.0914 l 2.4375,2.75 c 0.01274,0.01437 0.02419,0.02979 0.03427,0.04614 l 2.3125,3.75 2.26598,4.65416 2.197,5.4589 2.0698,6.2699 1.9418,6.8891 1.7538,7.5147 1.5651,8.0118 1.4389,8.4454 1.1893,8.8868 1.689,18.4513 0.5638,19.1454 0.5625,19.125 1.6862,18.417 1.186,8.861 1.4357,8.426 1.5611,7.992 1.7474,7.488 1.9337,6.861 2.0582,6.236 2.1802,5.417 2.2405,4.604 2.2965,3.721 -0.0728,-0.084 1.7169,1.403 -0.4218,0.516 -1.7169,-1.402 c -0.0287,-0.024 -0.0534,-0.052 -0.0728,-0.084 l -2.3285,-3.779 -2.2595,-4.646 -2.1948,-5.458 -2.0668,-6.264 -1.9413,-6.889 -1.7526,-7.512 -1.5639,-8.008 -1.4393,-8.449 -1.189,-8.889 L 26.4793,121.51 25.9168,102.385 25.3556,83.2804 23.6696,64.8567 22.4839,55.9935 21.0478,47.5639 19.4879,39.5757 17.7417,32.0904 15.8085,25.2295 13.7533,18.9994 11.5753,13.5833 9.34128,8.98746 7.02878,5.23746 7.06305,5.2836 4.62555,2.5336 4.6806,2.58327 2.2431,0.833275 2.36255,0.887297 -0.0749532,0.324797 Z M 47.9671,197.01 l 4.5263,7.714 -8.8873,-1.007 z"
         transform="matrix(1,0,0,-1,315.5,334.224)"
         id="path11434" /><path
         d="M 0,398.333 C 0,394.283 3.2833,391 7.33346,391 H 307.667 c 4.05,0 7.333,3.283 7.333,7.333 v 29.334 c 0,4.05 -3.283,7.333 -7.333,7.333 H 7.33346 C 3.2833,435 0,431.717 0,427.667 Z"
         fill="#f4f2f8"
         fill-rule="evenodd"
         id="path11436" /><text
         fill="#7d3368"
         font-family="Calibri, Calibri_MSFontService, sans-serif"
         font-weight="400"
         font-size="15px"
         transform="translate(4.25228,408)"
         id="text11440">Size Fault<tspan
   fill="#000000"
   font-size="15px"
   x="115.333"
   y="17"
   id="tspan11438">Not Enough Memory Allocated</tspan></text><path
         d="m 0.0494468,-0.329645 1.2500032,0.1875 c 0.03696,0.005544 0.07273,0.017265 0.1058,0.034672 l 1.1875,0.625 C 2.61146,0.527378 2.62922,0.538998 2.64573,0.55221 l 1.25,1 c 0.01595,0.01276 0.03069,0.02696 0.04404,0.04242 l 1.1875,1.375 c 0.01045,0.01209 0.01996,0.02485 0.02857,0.03832 l 2.4375,3.8125 c 0.00895,0.014 0.01685,0.02865 0.02361,0.04383 l 2.3125,5.18752 2.26025,6.4632 2.193,7.5799 2.0664,8.577 1.9401,9.5744 1.752,10.3858 1.5639,11.0713 1.4382,11.6934 1.1885,12.2585 0.9381,12.6947 0.7504,12.943 0.563,26.45 0.5625,26.437 0.7495,12.926 0.9371,12.682 1.1869,12.242 1.4365,11.679 1.5618,11.057 1.7486,10.366 1.9355,9.552 2.0599,8.55 2.1836,7.548 2.2445,6.421 2.3023,5.161 -0.0463,-0.075 2.1931,2.687 -0.5165,0.421 -2.193,-2.686 c -0.0187,-0.023 -0.0342,-0.048 -0.0463,-0.075 l -2.3227,-5.214 -2.2555,-6.454 -2.1914,-7.577 -2.0651,-8.575 -1.9395,-9.573 -1.7514,-10.384 -1.5632,-11.068 -1.4385,-11.696 -1.1881,-12.258 -0.9379,-12.693 -0.7505,-12.949 -0.5625,-26.438 -0.562,-26.425 L 24.6051,102.4 23.6682,89.7197 22.4817,77.4782 21.0449,65.7966 19.4838,54.7429 17.7358,44.3787 15.8009,34.8281 13.7423,26.2801 11.5603,18.735 9.32055,12.3232 7.00805,7.13572 l 0.02361,0.04383 -2.4375,-3.8125 0.02857,0.03832 -1.1875,-1.375 0.04404,0.04242 -1.25,-1 0.05298,0.03468 -1.1875,-0.624997 0.1058,0.034672 -1.2499968,-0.1875 z M 48.9249,275.263 l 3.5685,8.202 -8.7023,-2.067 z"
         transform="matrix(1,0,0,-1,315.5,412.965)"
         id="path11442" /><text
         font-family="Calibri, Calibri_MSFontService, sans-serif"
         font-weight="400"
         font-size="15px"
         transform="translate(740.818,82)"
         id="text11444">Consequences</text><path
         d="M 630,105.334 C 630,101.283 633.283,98 637.333,98 h 300.334 c 4.05,0 7.333,3.283 7.333,7.334 v 29.332 c 0,4.051 -3.283,7.334 -7.333,7.334 H 637.333 c -4.05,0 -7.333,-3.283 -7.333,-7.334 z"
         fill="#f4f2f8"
         fill-rule="evenodd"
         id="path11446" /><text
         fill="#7d3368"
         font-family="Calibri, Calibri_MSFontService, sans-serif"
         font-weight="400"
         font-size="15px"
         transform="translate(634.174,115)"
         id="text11450">Address Error<tspan
   fill="#000000"
   font-size="15px"
   x="220.83299"
   y="17"
   id="tspan11448">NULL Pointer</tspan></text><path
         d="m 0.0151359,-0.332989 9.6250041,0.4375 4.45506,0.438764 4.0188,0.627385 3.3287,0.69046 2.6559,0.82045 c 0.0189,0.00586 0.0373,0.01339 0.0548,0.02251 l 1.6875,0.875 c 0.0517,0.02681 0.0955,0.06669 0.127,0.11567 l 0.5625,0.875 0.5625,0.875 -0.127,-0.11567 1.6875,0.875 -0.0548,-0.02251 2.625,0.8125 3.2816,0.67955 3.9838,0.62204 4.4187,0.43511 2.9378,0.11744 L 45.8188,9.51434 42.8423,9.39422 38.386,8.95434 34.3698,8.32638 31.0264,7.63093 28.4014,6.81843 C 28.3825,6.81257 28.3641,6.80504 28.3466,6.79592 l -1.6875,-0.875 C 26.6074,5.89411 26.5636,5.85423 26.5321,5.80525 l -0.5625,-0.875 -0.5625,-0.875 0.127,0.11567 -1.6875,-0.875 0.0548,0.02251 L 21.3073,2.51388 18.011,1.82934 14.0298,1.20673 9.60986,0.770489 -0.0151359,0.332989 Z M 44.6604,5.13098 l 7.833,4.31784 -8.154,3.67568 z"
         transform="matrix(1,0,0,-1,577.5,129.949)"
         id="path11452" /><path
         d="m 630,164.5 c 0,-4.142 3.358,-7.5 7.5,-7.5 h 300 c 4.142,0 7.5,3.358 7.5,7.5 v 30 c 0,4.142 -3.358,7.5 -7.5,7.5 h -300 c -4.142,0 -7.5,-3.358 -7.5,-7.5 z"
         fill="#f4f2f8"
         fill-rule="evenodd"
         id="path11454" /><text
         fill="#7d3368"
         font-family="Calibri, Calibri_MSFontService, sans-serif"
         font-weight="400"
         font-size="15px"
         transform="translate(634.174,175)"
         id="text11458">Size Error<tspan
   fill="#000000"
   font-size="15px"
   x="115.333"
   y="17"
   id="tspan11456">Not Enough Memory Allocated</tspan></text><path
         d="m 577.538,129.169 4.875,0.562 c 0.024,0.003 0.047,0.008 0.07,0.016 l 4.75,1.625 c 0.019,0.007 0.038,0.015 0.056,0.025 l 4.437,2.5 c 0.016,0.009 0.03,0.019 0.044,0.03 l 4,3.187 c 0.016,0.013 0.031,0.027 0.044,0.042 l 3.313,3.813 c 0.012,0.014 0.023,0.029 0.033,0.045 l 2.625,4.313 c 0.011,0.018 0.02,0.037 0.028,0.057 l 1.687,4.563 c 0.009,0.024 0.015,0.05 0.018,0.076 l 0.563,4.687 0.562,4.688 -0.018,-0.076 1.688,4.562 -0.029,-0.059 2.625,4.25 -0.032,-0.044 3.312,3.813 -0.044,-0.042 4,3.187 -0.044,-0.029 4.438,2.5 -0.074,-0.031 3.076,0.861 -0.18,0.642 -3.076,-0.861 c -0.026,-0.007 -0.05,-0.017 -0.074,-0.031 l -4.437,-2.5 c -0.016,-0.008 -0.03,-0.018 -0.044,-0.029 l -4,-3.188 c -0.016,-0.012 -0.031,-0.027 -0.044,-0.042 l -3.313,-3.812 c -0.011,-0.014 -0.022,-0.028 -0.032,-0.044 l -2.625,-4.25 c -0.011,-0.019 -0.021,-0.039 -0.029,-0.059 L 604,159.553 c -0.009,-0.024 -0.015,-0.05 -0.018,-0.076 l -0.563,-4.687 -0.562,-4.688 0.018,0.076 -1.688,-4.562 0.028,0.057 -2.625,-4.312 0.033,0.045 -3.312,-3.812 0.044,0.042 -4,-3.188 0.044,0.03 -4.438,-2.5 0.056,0.025 -4.75,-1.625 0.07,0.016 -4.875,-0.563 z m 45.374,45.261 7.081,5.464 -8.62,2.386 z"
         id="path11460" /><path
         d="M 630,230.667 C 630,223.119 636.119,217 643.667,217 h 287.666 c 7.548,0 13.667,6.119 13.667,13.667 v 54.666 C 945,292.881 938.881,299 931.333,299 H 643.667 C 636.119,299 630,292.881 630,285.333 Z"
         fill="#dfdaea"
         fill-rule="evenodd"
         id="path11462" /><text
         fill="#7d3368"
         font-family="Calibri, Calibri_MSFontService, sans-serif"
         font-weight="400"
         font-size="15px"
         transform="translate(636.018,236)"
         id="text11470">Memory Corruption/Disclosure Final Error<tspan
   fill="#000000"
   font-size="15px"
   x="213.66701"
   y="17"
   id="tspan11464">Memory Leak</tspan><tspan
   fill="#000000"
   font-size="15px"
   x="222.66701"
   y="35"
   id="tspan11466">Double Free</tspan><tspan
   fill="#000000"
   font-size="15px"
   x="188"
   y="53"
   id="tspan11468">Object Corruption</tspan></text><path
         d="m 577.551,129.171 2.437,0.375 c 0.029,0.004 0.056,0.012 0.083,0.023 l 2.437,1.063 c 0.022,0.009 0.042,0.021 0.061,0.035 l 2.438,1.75 c 0.016,0.011 0.031,0.024 0.044,0.038 l 2.313,2.375 2.276,2.967 2.204,3.462 2.076,3.961 1.947,4.331 1.758,4.771 1.569,5.08 2.63,10.895 1.693,11.718 0.566,12.095 0.563,12.062 1.684,11.593 2.619,10.907 1.557,4.979 1.744,4.734 1.93,4.355 2.052,3.853 2.174,3.416 2.234,2.913 -0.054,-0.055 3.499,2.865 -0.423,0.516 -3.498,-2.865 c -0.02,-0.016 -0.038,-0.035 -0.054,-0.055 l -2.266,-2.961 -2.201,-3.46 -2.073,-3.897 -1.945,-4.395 -1.756,-4.766 -1.568,-5.021 -2.631,-10.968 -1.69,-11.657 -0.563,-12.062 -0.559,-12.031 -1.682,-11.657 -2.619,-10.855 -1.557,-5.045 -1.742,-4.729 -1.928,-4.294 -2.049,-3.913 -2.171,-3.414 -2.224,-2.908 -2.312,-2.375 0.044,0.038 -2.437,-1.75 0.061,0.035 -2.438,-1.062 0.083,0.023 -2.438,-0.375 z m 46.685,122.618 5.757,6.845 -8.93,0.499 z"
         id="path11472" /><text
         font-family="Calibri, Calibri_MSFontService, sans-serif"
         font-weight="400"
         font-size="15px"
         transform="translate(435.691,82)"
         id="text11474">Operations</text><rect
         x="367.5"
         y="98.500099"
         width="210"
         height="63"
         stroke="#000000"
         stroke-width="0.666667"
         stroke-linejoin="round"
         stroke-miterlimit="10"
         fill="none"
         id="rect11476" /><text
         font-family="Calibri, Calibri_MSFontService, sans-serif"
         font-weight="400"
         font-size="15px"
         transform="translate(437.191,116)"
         id="text11484">Deallocate<tspan
   font-size="15px"
   x="9.41998"
   y="17"
   id="tspan11478">Reduce</tspan><tspan
   font-size="15px"
   x="-23.8333"
   y="35"
   id="tspan11480">Reallocate</tspan>-Reduce<tspan
   font-size="15px"
   x="2.5832801"
   y="79"
   id="tspan11482">Operands</tspan></text><rect
         x="367.5"
         y="211.5"
         width="210"
         height="63"
         stroke="#000000"
         stroke-width="0.666667"
         stroke-linejoin="round"
         stroke-miterlimit="10"
         fill="none"
         id="rect11486" /><text
         font-family="Calibri, Calibri_MSFontService, sans-serif"
         font-weight="400"
         font-size="15px"
         transform="translate(454.777,230)"
         id="text11528">Data<tspan
   font-size="15px"
   x="-9.9200096"
   y="17"
   id="tspan11488">Address</tspan><tspan
   font-size="15px"
   x="2.3333099"
   y="35"
   id="tspan11490">Size</tspan><tspan
   font-size="15px"
   x="-16.0033"
   y="239"
   id="tspan11492">Attributes</tspan><tspan
   fill="#7d3368"
   font-size="15px"
   x="-452.67801"
   y="274"
   id="tspan11494">Mechanism</tspan><tspan
   font-size="15px"
   x="-431.67801"
   y="291"
   id="tspan11496">Implicit</tspan><tspan
   font-size="15px"
   x="-431.67801"
   y="309"
   id="tspan11498">Explicit</tspan><tspan
   fill="#7d3368"
   font-size="15px"
   x="-208.58299"
   y="274"
   id="tspan11500">Source Code</tspan><tspan
   font-size="15px"
   x="-187.58299"
   y="291"
   id="tspan11502">Codebase</tspan><tspan
   font-size="15px"
   x="-187.58299"
   y="309"
   id="tspan11504">Third</tspan>-Party<tspan
   font-size="15px"
   x="-187.58299"
   y="327"
   id="tspan11506">Standard Library</tspan><tspan
   font-size="15px"
   x="-187.58299"
   y="344"
   id="tspan11508">Compiler/Interpreter</tspan><tspan
   fill="#7d3368"
   font-size="15px"
   x="35.511299"
   y="274"
   id="tspan11510">Execution Space</tspan><tspan
   font-size="15px"
   x="56.511299"
   y="291"
   id="tspan11512">Userland</tspan><tspan
   font-size="15px"
   x="56.511299"
   y="309"
   id="tspan11514">Kernel</tspan><tspan
   font-size="15px"
   x="56.511299"
   y="327"
   id="tspan11516">Bare</tspan><tspan
   font-size="15px"
   x="84.011299"
   y="327"
   id="tspan11518">-</tspan>Metal<tspan
   fill="#7d3368"
   font-size="15px"
   x="279.60599"
   y="274"
   id="tspan11520">Address State</tspan><tspan
   font-size="15px"
   x="300.60599"
   y="291"
   id="tspan11522">Stack</tspan><tspan
   font-size="15px"
   x="300.60599"
   y="309"
   id="tspan11524">Heap</tspan><tspan
   font-size="15px"
   x="300.60599"
   y="327"
   id="tspan11526">/other/</tspan></text><path
         d="M 0,624.333 C 0,621.94 1.94014,620 4.33343,620 H 37.6666 C 40.0599,620 42,621.94 42,624.333 v 17.334 C 42,644.06 40.0599,646 37.6666,646 H 4.33343 C 1.94014,646 0,644.06 0,641.667 Z"
         fill="#e8effc"
         fill-rule="evenodd"
         id="path11530" /><text
         font-family="Calibri, Calibri_MSFontService, sans-serif"
         font-weight="400"
         font-size="15px"
         transform="translate(44.0945,639)"
         id="text11532">Bug</text><path
         d="m 236,624.333 c 0,-2.393 1.94,-4.333 4.333,-4.333 h 33.334 c 2.393,0 4.333,1.94 4.333,4.333 v 17.334 c 0,2.393 -1.94,4.333 -4.333,4.333 H 240.333 C 237.94,646 236,644.06 236,641.667 Z"
         fill="#f4f2f8"
         fill-rule="evenodd"
         id="path11534" /><text
         font-family="Calibri, Calibri_MSFontService, sans-serif"
         font-weight="400"
         font-size="15px"
         transform="translate(280.315,639)"
         id="text11536">Fault/Error</text><path
         d="m 472,624.333 c 0,-2.393 1.94,-4.333 4.333,-4.333 h 33.334 c 2.393,0 4.333,1.94 4.333,4.333 v 17.334 c 0,2.393 -1.94,4.333 -4.333,4.333 H 476.333 C 473.94,646 472,644.06 472,641.667 Z"
         fill="#dfdaea"
         fill-rule="evenodd"
         id="path11538" /><text
         font-family="Calibri, Calibri_MSFontService, sans-serif"
         font-weight="400"
         font-size="15px"
         transform="translate(516.535,639)"
         id="text11540">Final Error</text><rect
         x="709.5"
         y="620.5"
         width="42"
         height="26"
         stroke="#000000"
         stroke-width="0.666667"
         stroke-linejoin="round"
         stroke-miterlimit="10"
         fill="none"
         id="rect11542" /><text
         font-family="Calibri, Calibri_MSFontService, sans-serif"
         font-weight="400"
         font-size="15px"
         transform="translate(752.756,639)"
         id="text11544">Operation/Operand</text></g></g></svg>
