<?xml version="1.0" encoding="UTF-8" standalone="no"?>
<!-- Created with Inkscape (http://www.inkscape.org/) -->

<svg
   width="277.8125mm"
   height="194.99736mm"
   viewBox="0 0 277.8125 194.99736"
   version="1.1"
   id="svg1"
   inkscape:version="1.3.2 (091e20e, 2023-11-25, custom)"
   sodipodi:docname="MMN.svg"
   xmlns:inkscape="http://www.inkscape.org/namespaces/inkscape"
   xmlns:sodipodi="http://sodipodi.sourceforge.net/DTD/sodipodi-0.dtd"
   xmlns="http://www.w3.org/2000/svg"
   xmlns:svg="http://www.w3.org/2000/svg">
  <sodipodi:namedview
     id="namedview1"
     pagecolor="#ffffff"
     bordercolor="#000000"
     borderopacity="0.25"
     inkscape:showpageshadow="2"
     inkscape:pageopacity="0.0"
     inkscape:pagecheckerboard="0"
     inkscape:deskcolor="#d1d1d1"
     inkscape:document-units="mm"
     inkscape:zoom="1.0146815"
     inkscape:cx="524.7952"
     inkscape:cy="368.09579"
     inkscape:window-width="2560"
     inkscape:window-height="1377"
     inkscape:window-x="-8"
     inkscape:window-y="859"
     inkscape:window-maximized="1"
     inkscape:current-layer="layer1" />
  <defs
     id="defs1" />
  <g
     inkscape:label="Layer 1"
     inkscape:groupmode="layer"
     id="layer1"
     transform="translate(33.866666,-217.88604)">
    <g
       transform="matrix(0.26458333,0,0,0.26458333,-33.866666,215.54833)"
       id="g72">
      <text
         font-family="Calibri, Calibri_MSFontService, sans-serif"
         font-weight="400"
         font-size="19px"
         transform="translate(441.086,22)"
         id="text1">Bugs Framework (BF)</text>
      <text
         font-family="Calibri, Calibri_MSFontService, sans-serif"
         font-weight="400"
         font-size="16px"
         transform="translate(356.313,65)"
         id="text2">Memory Corruption/Disclosure (_MEM) Class Type</text>
      <text
         fill="#660066"
         font-family="Calibri, Calibri_MSFontService, sans-serif"
         font-weight="400"
         font-size="16px"
         transform="translate(404.366,84)"
         id="text3">Memory Management (MMN) Class</text>
      <text
         font-family="Calibri, Calibri_MSFontService, sans-serif"
         font-weight="400"
         font-size="16px"
         transform="translate(148.645,115)"
         id="text4">Causes</text>
      <path
         d="M 0,147.167 C 0,138.791 6.79052,132 15.167,132 h 319.666 c 8.376,0 15.167,6.791 15.167,15.167 v 60.666 C 350,216.209 343.209,223 334.833,223 H 15.167 C 6.79052,223 0,216.209 0,207.833 Z"
         fill="#e8effc"
         fill-rule="evenodd"
         id="path4" />
      <text
         font-family="Calibri, Calibri_MSFontService, sans-serif"
         font-weight="400"
         font-size="16px"
         transform="translate(6.5073,153)"
         id="text5">Code Bug</text>
      <text
         fill="#660066"
         font-family="Calibri, Calibri_MSFontService, sans-serif"
         font-weight="400"
         font-size="16px"
         transform="translate(249.341,172)"
         id="text6">Missing Code</text>
      <text
         fill="#660066"
         font-family="Calibri, Calibri_MSFontService, sans-serif"
         font-weight="400"
         font-size="16px"
         transform="translate(185.987,191)"
         id="text7">Mismatched Operation</text>
      <text
         fill="#660066"
         font-family="Calibri, Calibri_MSFontService, sans-serif"
         font-weight="400"
         font-size="16px"
         transform="translate(232.267,211)"
         id="text8">Erroneous Code</text>
      <path
         d="m 350.514,177.167 5.44,0.236 5.296,0.669 4.954,1.04 4.443,1.35 3.764,1.601 c 0.015,0.007 0.03,0.015 0.044,0.023 l 2.877,1.774 c 0.023,0.014 0.044,0.031 0.063,0.051 l 1.852,1.897 c 0.035,0.036 0.061,0.079 0.077,0.127 l 0.655,1.958 0.655,1.958 -0.077,-0.127 1.851,1.897 -0.064,-0.051 2.877,1.774 -0.045,-0.023 3.731,1.589 4.381,1.331 4.898,1.028 4.025,0.433 -0.071,0.662 -4.091,-0.443 -4.955,-1.042 -4.448,-1.356 -3.731,-1.589 c -0.015,-0.006 -0.03,-0.014 -0.044,-0.023 l -2.877,-1.774 c -0.023,-0.014 -0.044,-0.031 -0.063,-0.05 l -1.851,-1.897 c -0.036,-0.036 -0.062,-0.08 -0.078,-0.127 l -0.655,-1.959 -0.655,-1.958 0.077,0.127 -1.851,-1.896 0.064,0.05 -2.877,-1.773 0.045,0.023 -3.697,-1.577 -4.386,-1.336 -4.9,-1.031 -5.242,-0.664 -5.439,-0.236 z m 50.61,16.783 7.702,4.547 -8.259,3.433 z"
         id="path8" />
      <path
         d="M 0,256.667 C 0,246.358 8.35752,238 18.667,238 h 312.666 c 10.309,0 18.667,8.358 18.667,18.667 v 74.666 C 350,341.642 341.642,350 331.333,350 H 18.667 C 8.35752,350 0,341.642 0,331.333 Z"
         fill="#f4f2f8"
         fill-rule="evenodd"
         id="path9" />
      <text
         font-family="Calibri, Calibri_MSFontService, sans-serif"
         font-weight="400"
         font-size="16px"
         transform="translate(7.53228,260)"
         id="text9">Data Fault</text>
      <text
         fill="#660066"
         font-family="Calibri, Calibri_MSFontService, sans-serif"
         font-weight="400"
         font-size="16px"
         transform="translate(208.099,279)"
         id="text10">Hardcoded Address</text>
      <text
         fill="#660066"
         font-family="Calibri, Calibri_MSFontService, sans-serif"
         font-weight="400"
         font-size="16px"
         transform="translate(213.132,298)"
         id="text11">Forbidden Address</text>
      <text
         fill="#660066"
         font-family="Calibri, Calibri_MSFontService, sans-serif"
         font-weight="400"
         font-size="16px"
         transform="translate(190.246,318)"
         id="text12">Single Owned Address</text>
      <text
         fill="#660066"
         font-family="Calibri, Calibri_MSFontService, sans-serif"
         font-weight="400"
         font-size="16px"
         transform="translate(262.952,337)"
         id="text13">Wrong Size</text>
      <path
         d="M 0.0332904,-0.331667 2.76376,-0.0576013 c 0.02067,0.0020753 0.04106,0.0060674 0.06099,0.0119446 L 5.53386,0.753215 c 0.01743,0.005141 0.0344,0.011693 0.05077,0.019603 l 2.66639,1.288692 2.64278,1.76672 2.5486,2.1875 2.435,2.57197 4.4424,6.1449 c 0.0097,0.0135 0.0184,0.0276 0.026,0.0424 l 3.7308,7.2306 2.8942,8.1113 1.8631,8.6722 0.6616,8.9555 0.655,8.91 1.8446,8.5847 2.8645,8.0284 3.7131,7.1897 -0.026,-0.0424 4.4143,6.1111 2.382,2.5144 2.492,2.1396 2.5706,1.7194 -0.0812,-0.0396 1.6883,0.5566 -0.2088,0.6331 -1.6882,-0.5566 C 50.0869,93.4835 50.0596,93.4702 50.0345,93.4534 L 47.4004,91.6857 44.8587,89.4986 42.4206,86.9165 38.0063,80.8054 C 37.9965,80.792 37.9878,80.7778 37.9802,80.7631 l -3.7485,-7.2716 -2.8884,-8.1124 -1.8577,-8.6756 -0.655,-8.91 -0.6485,-8.8646 -1.8392,-8.5882 -2.8587,-8.0294 -3.7309,-7.2306 0.0261,0.0423 L 15.3931,9.04579 13.0079,6.5213 10.5227,4.38208 7.96092,2.66175 5.29453,1.37306 5.3453,1.39266 2.63619,0.593788 2.69718,0.605732 -0.0332904,0.331667 Z M 51.7078,89.5215 l 6.6182,6.0166 -8.7842,1.6845 z"
         transform="matrix(1,0,0,-1,350.5,294.038)"
         id="path13" />
      <path
         d="M 0,380.167 C 0,371.791 6.79052,365 15.167,365 h 319.666 c 8.376,0 15.167,6.791 15.167,15.167 v 60.666 C 350,449.209 343.209,456 334.833,456 H 15.167 C 6.79052,456 0,449.209 0,440.833 Z"
         fill="#f4f2f8"
         fill-rule="evenodd"
         id="path14" />
      <text
         font-family="Calibri, Calibri_MSFontService, sans-serif"
         font-weight="400"
         font-size="16px"
         transform="translate(6.5073,386)"
         id="text14">Address Fault</text>
      <text
         fill="#660066"
         font-family="Calibri, Calibri_MSFontService, sans-serif"
         font-weight="400"
         font-size="16px"
         transform="translate(255.314,405)"
         id="text15">Wild Pointer</text>
      <text
         fill="#660066"
         font-family="Calibri, Calibri_MSFontService, sans-serif"
         font-weight="400"
         font-size="16px"
         transform="translate(228.647,424)"
         id="text16">Dangling Pointer</text>
      <text
         fill="#660066"
         font-family="Calibri, Calibri_MSFontService, sans-serif"
         font-weight="400"
         font-size="16px"
         transform="translate(185.861,444)"
         id="text17">Wrong Position Pointer</text>
      <path
         d="M 0.0724911,-0.325355 2.80296,0.28301 C 2.84215,0.291741 2.87944,0.30748 2.91303,0.329469 L 5.62214,2.10279 c 0.02243,0.01468 0.043,0.03201 0.06128,0.05162 l 2.66639,2.86061 c 0.012,0.01288 0.02295,0.02667 0.03278,0.04128 l 2.60231,3.87024 2.5355,4.83346 2.4215,5.6806 2.2894,6.4523 2.1376,7.1481 1.9653,7.7671 1.7722,8.3094 1.5579,8.7742 1.3224,9.1621 1.8531,19.1725 0.6563,19.7997 0.6551,19.778 1.8498,19.136 1.3188,9.136 1.554,8.752 1.7671,8.286 1.9587,7.741 2.1286,7.119 2.2767,6.417 2.4026,5.637 2.5054,4.778 2.5837,3.839 -0.0644,-0.071 2.3262,1.92 -0.4244,0.514 -2.3262,-1.92 c -0.0248,-0.02 -0.0465,-0.044 -0.0644,-0.071 l -2.6209,-3.901 -2.5283,-4.827 -2.4176,-5.675 -2.2871,-6.449 -2.1362,-7.146 -1.9644,-7.766 -1.7715,-8.308 L 32.66,154.171 31.3374,145.004 29.4849,125.826 28.8298,106.048 28.1762,86.2905 26.3269,67.149 25.0079,58.0083 23.4544,49.2565 21.6879,40.9717 19.7302,33.232 17.603,26.1158 15.3286,19.7019 12.9299,14.0695 10.4317,9.29853 7.82936,5.42829 7.86214,5.46957 5.19575,2.60896 5.25702,2.66058 2.54791,0.887262 2.65798,0.93372 -0.0724911,0.325355 Z M 53.3836,204.619 l 4.9424,7.454 -8.9292,-0.518 z"
         transform="matrix(1,0,0,-1,350.5,410.574)"
         id="path17" />
      <path
         d="M 0,479.167 C 0,474.656 3.65634,471 8.16667,471 H 341.833 c 4.511,0 8.167,3.656 8.167,8.167 v 32.666 c 0,4.511 -3.656,8.167 -8.167,8.167 H 8.16667 C 3.65634,520 0,516.344 0,511.833 Z"
         fill="#f4f2f8"
         fill-rule="evenodd"
         id="path18" />
      <text
         font-family="Calibri, Calibri_MSFontService, sans-serif"
         font-weight="400"
         font-size="16px"
         transform="translate(4.45722,490)"
         id="text18">Size Fault</text>
      <text
         fill="#660066"
         font-family="Calibri, Calibri_MSFontService, sans-serif"
         font-weight="400"
         font-size="16px"
         transform="translate(237.117,509)"
         id="text19">Insufficient Size</text>
      <path
         d="M 0.0518869,-0.32927 1.41845,-0.113925 c 0.03085,0.004861 0.06087,0.0140356 0.08916,0.0272502 L 2.87151,0.550293 C 2.89355,0.560585 2.91441,0.573271 2.93369,0.5881 L 4.29225,1.63309 C 4.30649,1.64404 4.31981,1.65612 4.3321,1.66922 l 1.35055,1.43942 1.36523,1.85071 1.3431,2.21221 2.61782,5.45074 2.5286,6.7553 2.4168,7.9445 2.2861,9.028 2.1353,10.0042 1.9636,10.8728 1.7708,11.6332 1.5569,12.2852 1.3216,12.8287 1.0651,13.2638 0.7873,13.59 0.6555,27.721 0.655,27.709 0.7863,13.571 1.0639,13.249 1.32,12.813 1.5548,12.269 1.7682,11.616 1.96,10.854 2.1303,9.981 2.2791,9.001 2.4058,7.909 2.5102,6.708 2.5906,5.395 1.311,2.159 -0.0655,-0.078 1.3973,1.223 -0.439,0.502 -1.3973,-1.223 c -0.0258,-0.023 -0.0478,-0.049 -0.0656,-0.078 l -1.342,-2.216 -2.6139,-5.45 -2.5236,-6.748 -2.4143,-7.939 -2.2848,-9.025 -2.1344,-10.003 -1.963,-10.871 -1.7704,-11.633 -1.5566,-12.284 -1.3214,-12.829 -1.065,-13.263 -0.7872,-13.594 -0.655,-27.71 L 28.1753,120.866 27.3891,107.291 26.3253,94.0425 25.0055,81.2293 23.4509,68.9606 21.6831,57.3456 19.7236,46.4935 17.5941,36.5137 15.3163,27.5161 12.913,19.6112 10.4078,12.9108 7.82094,7.51725 6.51099,5.35455 5.19648,3.5648 3.84593,2.12538 3.88579,2.16152 2.52723,1.11653 2.58941,1.15433 1.22551,0.517365 1.31468,0.544615 -0.0518869,0.32927 Z M 54.228,289.163 l 4.098,7.95 -8.819,-1.492 z"
         transform="matrix(1,0,0,-1,350.5,495.613)"
         id="path19" />
      <text
         font-family="Calibri, Calibri_MSFontService, sans-serif"
         font-weight="400"
         font-size="16px"
         transform="translate(824.224,115)"
         id="text20">Consequences</text>
      <path
         d="m 700,140.167 c 0,-4.511 3.656,-8.167 8.167,-8.167 h 333.663 c 4.51,0 8.17,3.656 8.17,8.167 v 32.666 c 0,4.511 -3.66,8.167 -8.17,8.167 H 708.167 C 703.656,181 700,177.344 700,172.833 Z"
         fill="#f4f2f8"
         fill-rule="evenodd"
         id="path20" />
      <text
         font-family="Calibri, Calibri_MSFontService, sans-serif"
         font-weight="400"
         font-size="16px"
         transform="translate(704.37,151)"
         id="text21">Data Error</text>
      <text
         fill="#660066"
         font-family="Calibri, Calibri_MSFontService, sans-serif"
         font-weight="400"
         font-size="16px"
         transform="translate(953.176,170)"
         id="text22">NULL Pointer</text>
      <path
         d="M 0.0287925,-0.332087 5.46838,0.139534 C 5.48623,0.141081 5.50397,0.144075 5.52134,0.148468 L 10.7901,1.48131 c 0.0161,0.00409 0.032,0.0094 0.0474,0.01587 l 4.9269,2.07103 c 0.0153,0.00641 0.03,0.01393 0.0441,0.02253 l 4.4144,2.68619 c 0.0151,0.0092 0.0294,0.01955 0.0429,0.03102 l 3.7308,3.17832 c 0.0155,0.01326 0.0298,0.02791 0.0427,0.0438 l 2.8765,3.54743 c 0.0159,0.0196 0.0295,0.041 0.0406,0.0637 l 1.8512,3.7935 c 0.0141,0.0288 0.0239,0.0596 0.0292,0.0912 l 0.655,3.9165 0.655,3.9165 -0.0292,-0.0912 1.8512,3.7935 -0.0406,-0.0638 2.8764,3.5474 -0.0428,-0.0438 3.7309,3.1783 -0.0429,-0.031 4.4143,2.6862 -0.0441,-0.0225 4.927,2.071 -0.0588,-0.0185 4.105,0.8877 -0.1409,0.6516 -4.105,-0.8877 c -0.0201,-0.0044 -0.0397,-0.0106 -0.0587,-0.0185 l -4.9269,-2.0711 c -0.0153,-0.0064 -0.03,-0.0139 -0.0442,-0.0225 l -4.4143,-2.6862 c -0.0151,-0.0092 -0.0294,-0.0195 -0.0429,-0.031 L 34.3295,32.5085 C 34.314,32.4952 34.2996,32.4806 34.2868,32.4647 l -2.8765,-3.5474 c -0.0159,-0.0196 -0.0295,-0.041 -0.0406,-0.0638 l -1.8512,-3.7934 c -0.0141,-0.0289 -0.0239,-0.0596 -0.0292,-0.0912 l -0.655,-3.9165 -0.655,-3.9165 0.0292,0.0912 -1.8512,-3.7935 0.0406,0.0638 -2.8764,-3.54745 0.0427,0.0438 -3.7308,-3.17832 0.0429,0.03102 -4.4143,-2.6862 0.0441,0.02254 -4.927,-2.07104 0.0475,0.01587 L 5.35784,0.794775 5.4108,0.803709 -0.0287925,0.332087 Z M 50.9521,36.9326 l 7.374,5.0622 -8.4741,2.8618 z"
         transform="matrix(1,0,0,-1,642.5,198.495)"
         id="path22" />
      <path
         d="M 700,207.667 C 700,201.224 705.224,196 711.667,196 h 326.663 c 6.45,0 11.67,5.224 11.67,11.667 v 46.666 c 0,6.443 -5.22,11.667 -11.67,11.667 H 711.667 C 705.224,266 700,260.776 700,254.333 Z"
         fill="#f4f2f8"
         fill-rule="evenodd"
         id="path23" />
      <text
         font-family="Calibri, Calibri_MSFontService, sans-serif"
         font-weight="400"
         font-size="16px"
         transform="translate(705.395,216)"
         id="text23">Address Error</text>
      <text
         fill="#660066"
         font-family="Calibri, Calibri_MSFontService, sans-serif"
         font-weight="400"
         font-size="16px"
         transform="translate(956.201,235)"
         id="text24">Wild Pointer</text>
      <text
         fill="#660066"
         font-family="Calibri, Calibri_MSFontService, sans-serif"
         font-weight="400"
         font-size="16px"
         transform="translate(929.535,254)"
         id="text25">Dangling Pointer</text>
      <path
         d="m 642.522,198.167 5.44,0.366 5.311,1.038 4.966,1.616 4.453,2.097 c 0.014,0.007 0.028,0.014 0.041,0.023 l 3.731,2.463 c 0.017,0.011 0.032,0.024 0.047,0.038 l 2.876,2.749 c 0.02,0.019 0.037,0.04 0.052,0.063 l 1.851,2.94 c 0.021,0.033 0.036,0.069 0.044,0.107 l 0.655,3.036 0.655,3.035 -0.044,-0.107 1.851,2.94 -0.051,-0.064 2.876,2.75 -0.047,-0.038 3.731,2.464 -0.041,-0.024 4.414,2.082 4.888,1.59 -0.048,-0.012 4.08,0.683 -0.11,0.657 -4.08,-0.683 c -0.017,-0.002 -0.033,-0.006 -0.048,-0.012 l -4.966,-1.62 -4.415,-2.082 c -0.014,-0.007 -0.028,-0.014 -0.041,-0.023 l -3.731,-2.463 c -0.017,-0.011 -0.032,-0.024 -0.047,-0.038 l -2.876,-2.749 c -0.02,-0.019 -0.037,-0.04 -0.052,-0.063 l -1.851,-2.94 c -0.021,-0.033 -0.036,-0.069 -0.044,-0.107 l -0.655,-3.036 -0.655,-3.035 0.044,0.107 -1.851,-2.94 0.052,0.064 -2.877,-2.749 0.047,0.037 -3.731,-2.463 0.041,0.023 -4.375,-2.067 -4.888,-1.594 -5.227,-1.028 -5.439,-0.365 z m 50.78,28.044 7.524,4.835 -8.383,3.118 z"
         id="path25" />
      <path
         d="m 700,289.167 c 0,-4.511 3.656,-8.167 8.167,-8.167 h 333.663 c 4.51,0 8.17,3.656 8.17,8.167 v 32.666 c 0,4.511 -3.66,8.167 -8.17,8.167 H 708.167 C 703.656,330 700,326.344 700,321.833 Z"
         fill="#f4f2f8"
         fill-rule="evenodd"
         id="path26" />
      <text
         font-family="Calibri, Calibri_MSFontService, sans-serif"
         font-weight="400"
         font-size="16px"
         transform="translate(704.37,300)"
         id="text26">Size Error</text>
      <text
         fill="#660066"
         font-family="Calibri, Calibri_MSFontService, sans-serif"
         font-weight="400"
         font-size="16px"
         transform="translate(937.03,319)"
         id="text27">Insufficient Size</text>
      <path
         d="m 642.537,198.169 2.731,0.307 c 0.023,0.003 0.045,0.008 0.067,0.015 l 2.709,0.895 c 0.019,0.006 0.037,0.014 0.054,0.024 l 2.667,1.444 c 0.014,0.008 0.028,0.017 0.041,0.027 l 2.603,1.954 2.548,2.451 2.433,2.882 2.3,3.271 2.147,3.623 3.746,8.136 2.892,9.084 1.861,9.712 0.66,10.028 0.655,9.987 1.846,9.632 2.866,9.008 3.716,8.066 2.117,3.571 2.268,3.227 2.392,2.832 2.493,2.4 2.571,1.928 -0.083,-0.046 1.744,0.655 -0.234,0.624 -1.744,-0.654 c -0.03,-0.011 -0.058,-0.027 -0.083,-0.046 l -2.633,-1.981 -2.541,-2.45 -2.428,-2.879 -2.296,-3.27 -2.148,-3.632 -3.746,-8.143 -2.886,-9.085 -1.856,-9.714 -0.655,-9.987 -0.65,-9.946 -1.842,-9.635 -2.861,-9.008 -3.715,-8.074 -2.118,-3.579 -2.264,-3.225 -2.387,-2.832 -2.486,-2.398 -2.602,-1.954 0.041,0.026 -2.666,-1.444 0.054,0.023 -2.709,-0.895 0.067,0.014 -2.73,-0.307 z m 51.851,101.209 6.438,6.209 -8.83,1.425 z"
         id="path27" />
      <path
         d="M 700,363.667 C 700,353.358 708.358,345 718.667,345 h 312.663 c 10.31,0 18.67,8.358 18.67,18.667 v 74.666 c 0,10.309 -8.36,18.667 -18.67,18.667 H 718.667 C 708.358,457 700,448.642 700,438.333 Z"
         fill="#dfdaea"
         fill-rule="evenodd"
         id="path28" />
      <text
         font-family="Calibri, Calibri_MSFontService, sans-serif"
         font-weight="400"
         font-size="16px"
         transform="translate(707.445,367)"
         id="text28">Memory Corruption/Disclosure Final Error</text>
      <text
         fill="#660066"
         font-family="Calibri, Calibri_MSFontService, sans-serif"
         font-weight="400"
         font-size="16px"
         transform="translate(915.745,386)"
         id="text29">Memory Overflow</text>
      <text
         fill="#660066"
         font-family="Calibri, Calibri_MSFontService, sans-serif"
         font-weight="400"
         font-size="16px"
         transform="translate(945.698,405)"
         id="text30">Memory Leak</text>
      <text
         fill="#660066"
         font-family="Calibri, Calibri_MSFontService, sans-serif"
         font-weight="400"
         font-size="16px"
         transform="translate(915.731,425)"
         id="text31">Double Deallocate</text>
      <text
         fill="#660066"
         font-family="Calibri, Calibri_MSFontService, sans-serif"
         font-weight="400"
         font-size="16px"
         transform="translate(917.685,444)"
         id="text32">Object Corruption</text>
      <path
         d="m 642.569,198.174 2.731,0.581 c 0.038,0.008 0.074,0.023 0.107,0.044 l 2.709,1.694 c 0.023,0.014 0.044,0.031 0.062,0.05 l 2.667,2.733 c 0.012,0.013 0.023,0.026 0.034,0.041 l 2.602,3.698 2.537,4.62 2.422,5.429 2.29,6.166 2.138,6.831 1.965,7.422 1.773,7.94 1.558,8.384 1.323,8.755 1.853,18.32 0.656,18.919 0.655,18.897 1.85,18.281 1.319,8.728 1.553,8.361 1.767,7.916 1.959,7.395 2.128,6.8 2.276,6.13 2.402,5.385 2.505,4.564 2.583,3.666 -0.067,-0.07 2.273,1.78 -0.411,0.525 -2.273,-1.781 c -0.026,-0.02 -0.049,-0.043 -0.067,-0.07 l -2.622,-3.73 -2.529,-4.612 -2.419,-5.425 -2.287,-6.162 -2.137,-6.829 -1.964,-7.421 -1.772,-7.939 -1.558,-8.384 -1.322,-8.759 -1.853,-18.326 -0.655,-18.897 -0.654,-18.875 -1.849,-18.287 -1.319,-8.733 -1.553,-8.361 -1.766,-7.915 -1.957,-7.393 -2.127,-6.798 -2.274,-6.127 -2.398,-5.38 -2.497,-4.557 -2.603,-3.697 0.034,0.041 -2.666,-2.734 0.062,0.05 -2.709,-1.694 0.107,0.043 -2.73,-0.581 z m 53.195,195.577 5.062,7.374 -8.936,-0.375 z"
         id="path32" />
      <text
         font-family="Calibri, Calibri_MSFontService, sans-serif"
         font-weight="400"
         font-size="16px"
         transform="translate(485.254,115)"
         id="text33">Operations</text>
      <rect
         x="408.5"
         y="132.5"
         width="234"
         height="133"
         stroke="#000000"
         stroke-width="0.666667"
         stroke-linejoin="round"
         stroke-miterlimit="10"
         fill="none"
         id="rect33" />
      <text
         fill="#660066"
         font-family="Calibri, Calibri_MSFontService, sans-serif"
         font-weight="400"
         font-size="16px"
         transform="translate(494.911,152)"
         id="text34">Allocate</text>
      <text
         fill="#660066"
         font-family="Calibri, Calibri_MSFontService, sans-serif"
         font-weight="400"
         font-size="16px"
         transform="translate(498.831,171)"
         id="text35">Extend</text>
      <text
         fill="#660066"
         font-family="Calibri, Calibri_MSFontService, sans-serif"
         font-weight="400"
         font-size="16px"
         transform="translate(462.784,190)"
         id="text36">Reallocate</text>
      <text
         fill="#660066"
         font-family="Calibri, Calibri_MSFontService, sans-serif"
         font-weight="400"
         font-size="16px"
         transform="translate(530.051,190)"
         id="text37">-</text>
      <text
         fill="#660066"
         font-family="Calibri, Calibri_MSFontService, sans-serif"
         font-weight="400"
         font-size="16px"
         transform="translate(534.884,190)"
         id="text38">Extend</text>
      <text
         fill="#660066"
         font-family="Calibri, Calibri_MSFontService, sans-serif"
         font-weight="400"
         font-size="16px"
         transform="translate(461.191,210)"
         id="text39">Reallocate</text>
      <text
         fill="#660066"
         font-family="Calibri, Calibri_MSFontService, sans-serif"
         font-weight="400"
         font-size="16px"
         transform="translate(528.457,210)"
         id="text40">-</text>
      <text
         fill="#660066"
         font-family="Calibri, Calibri_MSFontService, sans-serif"
         font-weight="400"
         font-size="16px"
         transform="translate(533.291,210)"
         id="text41">Reduce</text>
      <text
         fill="#660066"
         font-family="Calibri, Calibri_MSFontService, sans-serif"
         font-weight="400"
         font-size="16px"
         transform="translate(497.244,229)"
         id="text42">Reduce</text>
      <text
         fill="#660066"
         font-family="Calibri, Calibri_MSFontService, sans-serif"
         font-weight="400"
         font-size="16px"
         transform="translate(486.831,248)"
         id="text43">Deallocate</text>
      <text
         font-family="Calibri, Calibri_MSFontService, sans-serif"
         font-weight="400"
         font-size="16px"
         transform="translate(489.764,300)"
         id="text44">Operands</text>
      <rect
         x="408.5"
         y="317.5"
         width="234"
         height="69"
         stroke="#000000"
         stroke-width="0.666667"
         stroke-linejoin="round"
         stroke-miterlimit="10"
         fill="none"
         id="rect44" />
      <text
         fill="#660066"
         font-family="Calibri, Calibri_MSFontService, sans-serif"
         font-weight="400"
         font-size="16px"
         transform="translate(506.101,337)"
         id="text45">Data</text>
      <text
         fill="#660066"
         font-family="Calibri, Calibri_MSFontService, sans-serif"
         font-weight="400"
         font-size="16px"
         transform="translate(495.207,356)"
         id="text46">Address</text>
      <text
         fill="#660066"
         font-family="Calibri, Calibri_MSFontService, sans-serif"
         font-weight="400"
         font-size="16px"
         transform="translate(508.694,375)"
         id="text47">Size</text>
      <text
         fill="#7f7f7f"
         font-family="Calibri, Calibri_MSFontService, sans-serif"
         font-weight="400"
         font-size="13px"
         transform="translate(960.6,491)"
         id="text48">BF, I. Bojanova</text>
      <text
         font-family="Calibri, Calibri_MSFontService, sans-serif"
         font-weight="400"
         font-size="16px"
         transform="translate(488.838,555)"
         id="text49">Attributes</text>
      <text
         font-family="Calibri, Calibri_MSFontService, sans-serif"
         font-weight="400"
         font-size="16px"
         transform="translate(2.09974,592)"
         id="text50">Mechanism</text>
      <text
         fill="#660066"
         font-family="Calibri, Calibri_MSFontService, sans-serif"
         font-weight="400"
         font-size="16px"
         transform="translate(2.09974,611)"
         id="text51">Implicit</text>
      <text
         fill="#660066"
         font-family="Calibri, Calibri_MSFontService, sans-serif"
         font-weight="400"
         font-size="16px"
         transform="translate(2.09974,630)"
         id="text52">Explicit</text>
      <text
         font-family="Calibri, Calibri_MSFontService, sans-serif"
         font-weight="400"
         font-size="16px"
         transform="translate(269.816,592)"
         id="text53">Source Code</text>
      <text
         fill="#660066"
         font-family="Calibri, Calibri_MSFontService, sans-serif"
         font-weight="400"
         font-size="16px"
         transform="translate(269.816,611)"
         id="text54">Codebase</text>
      <text
         fill="#660066"
         font-family="Calibri, Calibri_MSFontService, sans-serif"
         font-weight="400"
         font-size="16px"
         transform="translate(269.816,630)"
         id="text55">Third</text>
      <text
         fill="#660066"
         font-family="Calibri, Calibri_MSFontService, sans-serif"
         font-weight="400"
         font-size="16px"
         transform="translate(303.263,630)"
         id="text56">-</text>
      <text
         fill="#660066"
         font-family="Calibri, Calibri_MSFontService, sans-serif"
         font-weight="400"
         font-size="16px"
         transform="translate(308.096,630)"
         id="text57">Party</text>
      <text
         fill="#660066"
         font-family="Calibri, Calibri_MSFontService, sans-serif"
         font-weight="400"
         font-size="16px"
         transform="translate(269.816,650)"
         id="text58">Standard Library</text>
      <text
         fill="#660066"
         font-family="Calibri, Calibri_MSFontService, sans-serif"
         font-weight="400"
         font-size="16px"
         transform="translate(269.816,669)"
         id="text59">Compiler/Interpreter</text>
      <text
         font-family="Calibri, Calibri_MSFontService, sans-serif"
         font-weight="400"
         font-size="16px"
         transform="translate(537.533,592)"
         id="text60">Execution Space</text>
      <text
         fill="#660066"
         font-family="Calibri, Calibri_MSFontService, sans-serif"
         font-weight="400"
         font-size="16px"
         transform="translate(537.533,611)"
         id="text61">Userland</text>
      <text
         fill="#660066"
         font-family="Calibri, Calibri_MSFontService, sans-serif"
         font-weight="400"
         font-size="16px"
         transform="translate(537.533,630)"
         id="text62">Kernel</text>
      <text
         fill="#660066"
         font-family="Calibri, Calibri_MSFontService, sans-serif"
         font-weight="400"
         font-size="16px"
         transform="translate(537.533,650)"
         id="text63">Bare</text>
      <text
         fill="#660066"
         font-family="Calibri, Calibri_MSFontService, sans-serif"
         font-weight="400"
         font-size="16px"
         transform="translate(567.153,650)"
         id="text64">-</text>
      <text
         fill="#660066"
         font-family="Calibri, Calibri_MSFontService, sans-serif"
         font-weight="400"
         font-size="16px"
         transform="translate(571.986,650)"
         id="text65">Metal</text>
      <text
         font-family="Calibri, Calibri_MSFontService, sans-serif"
         font-weight="400"
         font-size="16px"
         transform="translate(805.249,592)"
         id="text66">Size Kind</text>
      <text
         fill="#660066"
         font-family="Calibri, Calibri_MSFontService, sans-serif"
         font-weight="400"
         font-size="16px"
         transform="translate(805.249,611)"
         id="text67">Actual</text>
      <text
         fill="#660066"
         font-family="Calibri, Calibri_MSFontService, sans-serif"
         font-weight="400"
         font-size="16px"
         transform="translate(805.249,630)"
         id="text68">Used</text>
      <path
         d="M 0,722.5 C 0,720.015 2.01475,718 4.50007,718 H 37.4999 C 39.9852,718 42,720.015 42,722.5 v 18 c 0,2.485 -2.0148,4.5 -4.5001,4.5 H 4.50007 C 2.01475,745 0,742.985 0,740.5 Z"
         fill="#e8effc"
         fill-rule="evenodd"
         id="path68" />
      <text
         font-family="Calibri, Calibri_MSFontService, sans-serif"
         font-weight="400"
         font-size="16px"
         transform="translate(44.0945,738)"
         id="text69">Bug</text>
      <path
         d="m 262,722.5 c 0,-2.485 2.015,-4.5 4.5,-4.5 h 33 c 2.485,0 4.5,2.015 4.5,4.5 v 18 c 0,2.485 -2.015,4.5 -4.5,4.5 h -33 c -2.485,0 -4.5,-2.015 -4.5,-4.5 z"
         fill="#f4f2f8"
         fill-rule="evenodd"
         id="path69" />
      <text
         font-family="Calibri, Calibri_MSFontService, sans-serif"
         font-weight="400"
         font-size="16px"
         transform="translate(306.562,738)"
         id="text70">Fault/Error</text>
      <path
         d="m 525,722.5 c 0,-2.485 2.015,-4.5 4.5,-4.5 h 33 c 2.485,0 4.5,2.015 4.5,4.5 v 18 c 0,2.485 -2.015,4.5 -4.5,4.5 h -33 c -2.485,0 -4.5,-2.015 -4.5,-4.5 z"
         fill="#dfdaea"
         fill-rule="evenodd"
         id="path70" />
      <text
         font-family="Calibri, Calibri_MSFontService, sans-serif"
         font-weight="400"
         font-size="16px"
         transform="translate(569.029,738)"
         id="text71">Final Error</text>
      <rect
         x="787.5"
         y="718.5"
         width="42"
         height="27"
         stroke="#000000"
         stroke-width="0.666667"
         stroke-linejoin="round"
         stroke-miterlimit="10"
         fill="none"
         id="rect71" />
      <text
         font-family="Calibri, Calibri_MSFontService, sans-serif"
         font-weight="400"
         font-size="16px"
         transform="translate(831.496,738)"
         id="text72">Operation/Operand</text>
    </g>
  </g>
</svg>
