<?xml version="1.0" encoding="UTF-8" standalone="no"?>
<!-- Created with Inkscape (http://www.inkscape.org/) -->

<svg
   width="250.03125mm"
   height="199.65456mm"
   viewBox="0 0 250.03124 199.65455"
   version="1.1"
   id="svg5"
   inkscape:export-filename="MAL.png"
   inkscape:export-xdpi="96"
   inkscape:export-ydpi="96"
   xml:space="preserve"
   inkscape:version="1.2.2 (b0a8486541, 2022-12-01)"
   sodipodi:docname="MUS.svg"
   xmlns:inkscape="http://www.inkscape.org/namespaces/inkscape"
   xmlns:sodipodi="http://sodipodi.sourceforge.net/DTD/sodipodi-0.dtd"
   xmlns="http://www.w3.org/2000/svg"
   xmlns:svg="http://www.w3.org/2000/svg"><sodipodi:namedview
     id="namedview7"
     pagecolor="#ffffff"
     bordercolor="#000000"
     borderopacity="0.25"
     inkscape:showpageshadow="2"
     inkscape:pageopacity="0.0"
     inkscape:pagecheckerboard="0"
     inkscape:deskcolor="#d1d1d1"
     inkscape:document-units="mm"
     showgrid="false"
     inkscape:zoom="0.914906"
     inkscape:cx="472.17965"
     inkscape:cy="377.63442"
     inkscape:window-width="1350"
     inkscape:window-height="1230"
     inkscape:window-x="179"
     inkscape:window-y="914"
     inkscape:window-maximized="0"
     inkscape:current-layer="layer1" /><defs
     id="defs2"><clipPath
       id="clip0"><rect
         x="-25"
         y="0"
         width="785"
         height="1091"
         id="rect9" /></clipPath><clipPath
       id="clip0-8"><rect
         x="-25"
         y="0"
         width="785"
         height="524"
         id="rect520" /></clipPath><clipPath
       id="clip0-3"><rect
         x="-25"
         y="0"
         width="785"
         height="1091"
         id="rect699" /></clipPath><clipPath
       id="clip0-0"><rect
         x="-25"
         y="0"
         width="785"
         height="1091"
         id="rect1109" /></clipPath><clipPath
       id="clip0-4"><rect
         x="-25"
         y="0"
         width="934"
         height="905"
         id="rect1519" /></clipPath><clipPath
       id="clip0-42"><rect
         x="-7"
         y="0"
         width="952"
         height="590"
         id="rect1929" /></clipPath><clipPath
       id="clip0-1"><rect
         x="-25"
         y="0"
         width="785"
         height="1091"
         id="rect2197" /></clipPath><clipPath
       id="clip0-6"><rect
         x="-25"
         y="0"
         width="785"
         height="1091"
         id="rect2806" /></clipPath><clipPath
       id="clip0-66"><rect
         x="11"
         y="-21"
         width="934"
         height="904"
         id="rect3369" /></clipPath><clipPath
       id="clip0-41"><rect
         x="-7"
         y="0"
         width="743"
         height="335"
         id="rect3934" /></clipPath><clipPath
       id="clip0-7"><rect
         x="-7"
         y="0"
         width="743"
         height="335"
         id="rect4109" /></clipPath><clipPath
       id="clip0-9"><rect
         x="-25"
         y="0"
         width="785"
         height="524"
         id="rect4320" /></clipPath><clipPath
       id="clip0-96"><rect
         x="-25"
         y="0"
         width="785"
         height="713"
         id="rect4583" /></clipPath><clipPath
       id="clip0-08"><rect
         x="144"
         y="424"
         width="837"
         height="501"
         id="rect4932" /></clipPath><clipPath
       id="clip0-87"><rect
         x="144"
         y="424"
         width="837"
         height="501"
         id="rect5261" /></clipPath><clipPath
       id="clip0-68"><rect
         x="201"
         y="68"
         width="837"
         height="501"
         id="rect5590" /></clipPath><clipPath
       id="clip0-69"><rect
         x="212"
         y="141"
         width="635"
         height="281"
         id="rect6057" /></clipPath><clipPath
       id="clip0-44"><rect
         x="75"
         y="7"
         width="780"
         height="757"
         id="rect6214" /></clipPath><clipPath
       id="clip0-38"><rect
         x="75"
         y="8"
         width="780"
         height="752"
         id="rect6713" /></clipPath><clipPath
       id="clip0-080"><rect
         x="62"
         y="92"
         width="671"
         height="543"
         id="rect7166" /></clipPath><clipPath
       id="clip0-48"><rect
         x="678"
         y="67"
         width="591"
         height="294"
         id="rect7433" /></clipPath><clipPath
       id="clip0-00"><rect
         x="-7"
         y="0"
         width="952"
         height="574"
         id="rect7818" /></clipPath><clipPath
       id="clip0-2"><rect
         x="-7"
         y="0"
         width="952"
         height="543"
         id="rect8173" /></clipPath><clipPath
       id="clip0-09"><rect
         x="-7"
         y="0"
         width="952"
         height="612"
         id="rect8510" /></clipPath><clipPath
       id="clip0-99"><rect
         x="-7"
         y="0"
         width="952"
         height="659"
         id="rect8897" /></clipPath><clipPath
       id="clip0-31"><rect
         x="-7"
         y="0"
         width="952"
         height="653"
         id="rect9282" /></clipPath><clipPath
       id="clip0-5"><rect
         x="-7"
         y="0"
         width="952"
         height="697"
         id="rect9673" /></clipPath><clipPath
       id="clip0-24"><rect
         x="-7"
         y="0"
         width="952"
         height="826"
         id="rect10090" /></clipPath><clipPath
       id="clip0-46"><rect
         x="-7"
         y="0"
         width="952"
         height="612"
         id="rect10541" /></clipPath><clipPath
       id="clip0-461"><rect
         x="-7"
         y="0"
         width="952"
         height="769"
         id="rect10914" /></clipPath></defs><g
     inkscape:label="Layer 1"
     inkscape:groupmode="layer"
     id="layer1"
     transform="translate(21.533592,-140.39809)"><g
       clip-path="url(#clip0-461)"
       transform="matrix(0.26458333,0,0,0.26458333,-21.533592,138.21967)"
       id="g11117"><text
         fill="#7d3368"
         font-family="Calibri, Calibri_MSFontService, sans-serif"
         font-weight="400"
         font-size="15px"
         transform="translate(318.346,19)"
         id="text10923">Memory Corruption/Disclosure (_MEM) BF Cluster<tspan
   fill="#000000"
   font-size="15px"
   x="66.166702"
   y="35"
   id="tspan10919">Memory Use (MUS) BF Class</tspan><tspan
   fill="#000000"
   font-size="15px"
   x="-185.2"
   y="63"
   id="tspan10921">Causes</tspan></text><path
         d="M 0,111.667 C 0,104.119 6.11887,98 13.6669,98 H 301.333 c 7.548,0 13.667,6.119 13.667,13.667 v 54.666 C 315,173.881 308.881,180 301.333,180 H 13.6669 C 6.11887,180 0,173.881 0,166.333 Z"
         fill="#e8effc"
         fill-rule="evenodd"
         id="path10925" /><text
         fill="#7d3368"
         font-family="Calibri, Calibri_MSFontService, sans-serif"
         font-weight="400"
         font-size="15px"
         transform="translate(6.09722,117)"
         id="text10933">Code Defect Bug<tspan
   fill="#000000"
   font-size="15px"
   x="216.33299"
   y="17"
   id="tspan10927">Missing Code</tspan><tspan
   fill="#000000"
   font-size="15px"
   x="157.66701"
   y="35"
   id="tspan10929">Mismatched Operation</tspan><tspan
   fill="#000000"
   font-size="15px"
   x="200.16701"
   y="53"
   id="tspan10931">Erroneous Code</tspan></text><path
         d="m 315.515,139.167 9.625,0.438 4.455,0.438 4.019,0.628 3.329,0.69 2.656,0.821 c 0.019,0.005 0.037,0.013 0.055,0.022 l 1.687,0.875 c 0.052,0.027 0.095,0.067 0.127,0.116 l 0.562,0.875 0.563,0.875 -0.127,-0.116 1.688,0.875 -0.055,-0.022 2.625,0.812 3.281,0.68 3.984,0.622 4.419,0.435 2.938,0.117 -0.027,0.666 -2.977,-0.12 -4.456,-0.44 -4.016,-0.628 -3.344,-0.695 -2.625,-0.813 c -0.018,-0.005 -0.037,-0.013 -0.054,-0.022 l -1.688,-0.875 c -0.052,-0.027 -0.095,-0.067 -0.127,-0.116 l -0.562,-0.875 -0.563,-0.875 0.127,0.116 -1.687,-0.875 0.054,0.022 -2.594,-0.804 -3.296,-0.685 -3.981,-0.622 -4.42,-0.436 -9.625,-0.438 z m 44.645,5.464 7.833,4.318 -8.154,3.676 z"
         id="path10935" /><path
         d="M 0,205.5 C 0,199.701 4.70116,195 10.5003,195 H 304.5 c 5.799,0 10.5,4.701 10.5,10.5 v 42 c 0,5.799 -4.701,10.5 -10.5,10.5 H 10.5003 C 4.70116,258 0,253.299 0,247.5 Z"
         fill="#f4f2f8"
         fill-rule="evenodd"
         id="path10937" /><text
         fill="#7d3368"
         font-family="Calibri, Calibri_MSFontService, sans-serif"
         font-weight="400"
         font-size="15px"
         transform="translate(5.1748,213)"
         id="text10943">Data Fault<tspan
   fill="#000000"
   font-size="15px"
   x="185.16701"
   y="17"
   id="tspan10939">Forbidden Address</tspan><tspan
   fill="#000000"
   font-size="15px"
   x="230.16701"
   y="35"
   id="tspan10941">Wrong Size</tspan></text><path
         d="M 0.0340096,-0.331594 2.47151,-0.0815938 c 0.01646,0.0016886 0.03275,0.0045951 0.04878,0.0087058 l 2.4375,0.625 c 0.01724,0.004419 0.03409,0.010213 0.0504,0.017323 L 7.4457,1.63193 C 7.46048,1.63838 7.47478,1.64589 7.48848,1.6544 l 2.3125,1.4375 c 0.01524,0.00948 0.02975,0.02022 0.04327,0.03202 l 4.43745,3.875 c 0.0155,0.01347 0.0296,0.02836 0.0423,0.04443 l 4,5.06245 c 0.0111,0.014 0.0209,0.0288 0.0296,0.0443 l 3.3125,5.9375 2.6442,6.7281 1.7014,7.1068 c 0.0041,0.0172 0.0068,0.0346 0.0082,0.0521 l 0.5625,7.375 0.5625,7.375 -0.0082,-0.0521 1.6875,7.0625 2.6111,6.6432 3.2933,5.8969 -0.0296,-0.0443 4,5.0625 -0.0423,-0.0444 4.4375,3.875 -0.0736,-0.0488 3.2022,1.555 -0.2912,0.5997 -3.2022,-1.5549 c -0.0266,-0.013 -0.0514,-0.0294 -0.0737,-0.0488 l -4.4375,-3.875 C 38.2028,71.7376 38.1886,71.7227 38.176,71.7066 l -4,-5.0625 C 34.1649,66.6302 34.1551,66.6154 34.1464,66.5999 L 30.8147,60.6218 28.1758,53.89 26.4883,46.8275 c -0.0041,-0.0172 -0.0068,-0.0346 -0.0082,-0.0522 l -0.5625,-7.375 -0.5625,-7.375 0.0082,0.0522 -1.6736,-7.0182 -2.6058,-6.6469 -3.3125,-5.9375 0.0296,0.0443 -4,-5.06255 0.0422,0.04443 -4.43745,-3.875 0.04327,0.03201 -2.3125,-1.4375 0.04278,0.02248 -2.4375,-1.0625 0.05041,0.01732 -2.4375,-0.625002 0.04878,0.008706 -2.4374996,-0.25 z M 45.8801,72.7182 l 6.6133,6.022 -8.7855,1.6774 z"
         transform="matrix(1,0,0,-1,315.5,227.24)"
         id="path10945" /><path
         d="M 0,281.333 C 0,277.283 3.2833,274 7.33346,274 H 307.667 c 4.05,0 7.333,3.283 7.333,7.333 v 29.334 c 0,4.05 -3.283,7.333 -7.333,7.333 H 7.33346 C 3.2833,318 0,314.717 0,310.667 Z"
         fill="#f4f2f8"
         fill-rule="evenodd"
         id="path10947" /><text
         fill="#7d3368"
         font-family="Calibri, Calibri_MSFontService, sans-serif"
         font-weight="400"
         font-size="15px"
         transform="translate(4.25228,291)"
         id="text10951">Type Fault<tspan
   fill="#000000"
   font-size="15px"
   x="211.66701"
   y="17"
   id="tspan10949">Casted Pointer</tspan></text><path
         d="m 0.058888,-0.32809 2.437502,0.4375 c 0.03246,0.005826 0.06387,0.016436 0.09322,0.031484 l 2.4375,1.249996 c 0.02111,0.01083 0.04098,0.02387 0.05933,0.03892 l 2.4375,2 c 0.01488,0.01221 0.02867,0.02568 0.04123,0.04028 l 2.3125,2.6875 2.27463,3.40751 2.2016,3.9605 2.0741,4.523 1.9448,4.9546 1.757,5.4572 1.5671,5.8281 2.6293,12.518 1.692,13.4018 0.5649,13.8406 0.5625,13.8125 1.6851,13.3466 2.6205,12.473 1.558,5.732 1.7456,5.422 1.931,4.982 2.054,4.417 2.1777,3.981 2.2332,3.285 2.2895,2.658 -0.0972,-0.078 1.33,0.702 -0.3111,0.589 -1.3299,-0.701 c -0.037,-0.02 -0.0699,-0.046 -0.0972,-0.078 l -2.3355,-2.717 -2.2668,-3.34 -2.1973,-4.02 -2.071,-4.457 -1.944,-5.018 -1.7544,-5.453 -1.567,-5.769 L 28.1693,101.292 26.4794,87.8886 25.9169,74.0761 25.3568,60.2917 23.6738,46.9435 21.0531,34.4615 19.4952,28.6646 17.7522,23.2468 15.822,18.3264 13.7711,13.8494 11.5976,9.9349 9.37233,6.59241 l -2.3125,-2.6875 0.04123,0.04028 -2.4375,-2 L 4.72289,1.98411 2.28539,0.734106 2.37861,0.76559 -0.058888,0.32809 Z M 47.0952,140.9 l 5.3982,7.131 -8.9441,0.04 z"
         transform="matrix(1,0,0,-1,315.5,296.532)"
         id="path10953" /><path
         d="M 0,360.167 C 0,345.716 11.7155,334 26.1673,334 H 288.833 C 303.284,334 315,345.716 315,360.167 V 464.833 C 315,479.284 303.284,491 288.833,491 H 26.1673 C 11.7155,491 0,479.284 0,464.833 Z"
         fill="#f4f2f8"
         fill-rule="evenodd"
         id="path10955" /><text
         fill="#7d3368"
         font-family="Calibri, Calibri_MSFontService, sans-serif"
         font-weight="400"
         font-size="15px"
         transform="translate(9.7873,357)"
         id="text10971">Address Fault<tspan
   fill="#000000"
   font-size="15px"
   x="209.83299"
   y="17"
   id="tspan10957">NULL Pointer</tspan><tspan
   fill="#000000"
   font-size="15px"
   x="213.66701"
   y="35"
   id="tspan10959">Wild Pointer</tspan><tspan
   fill="#000000"
   font-size="15px"
   x="189.33299"
   y="53"
   id="tspan10961">Dangling Pointer</tspan><tspan
   fill="#000000"
   font-size="15px"
   x="180.83299"
   y="70"
   id="tspan10963">Untrusted Pointer</tspan><tspan
   fill="#000000"
   font-size="15px"
   x="164.5"
   y="88"
   id="tspan10965">Over Bounds Pointer</tspan><tspan
   fill="#000000"
   font-size="15px"
   x="156.16701"
   y="105"
   id="tspan10967">Under Bounds Pointer</tspan><tspan
   fill="#000000"
   font-size="15px"
   x="149.66701"
   y="123"
   id="tspan10969">Wrong Position Pointer</tspan></text><path
         d="m 0.0494468,-0.329645 1.2500032,0.1875 c 0.0323,0.004845 0.06372,0.014415 0.09325,0.028399 l 1.1875,0.5625 c 0.03048,0.014442 0.0586,0.033429 0.08339,0.056312 l 2.4375,2.250004 c 0.01842,0.017 0.03486,0.03602 0.04901,0.0567 l 2.4375,3.5625 c 0.00956,0.01397 0.01802,0.02861 0.02535,0.04386 l 2.3125,4.81247 2.26165,6.0274 2.1938,7.0809 2.0669,8.0154 1.9405,8.9501 1.7522,9.6988 1.5641,10.3219 1.4384,10.944 1.1886,11.4465 0.9382,11.8205 0.7504,12.0679 0.563,24.701 0.5625,24.687 0.7495,12.05 0.9371,11.807 1.1868,11.429 1.4364,10.929 1.5616,10.306 1.7484,9.678 1.9353,8.926 2.0595,7.987 2.1831,7.047 2.2437,5.982 2.3008,4.785 -0.0509,-0.077 2.0876,2.356 -0.499,0.442 -2.0876,-2.355 c -0.0204,-0.024 -0.0376,-0.049 -0.0509,-0.077 l -2.3242,-4.84 -2.2563,-6.018 -2.1919,-7.078 -2.0655,-8.013 -1.9397,-8.949 -1.7516,-9.697 L 30.7945,203.293 29.3559,192.347 28.1677,180.901 27.2298,169.083 26.4793,157.008 25.9168,132.32 25.3548,107.646 24.6052,95.5889 23.6684,83.7844 22.482,72.3559 21.0454,61.4249 19.4845,51.1218 17.7367,41.4456 15.8022,32.5207 13.7441,24.5361 11.5629,17.492 9.32455,11.5194 7.01205,6.70687 7.0374,6.75073 4.5999,3.18823 4.64891,3.24493 2.21141,0.994934 2.2948,1.05125 1.1073,0.488746 1.20055,0.517145 -0.0494468,0.329645 Z M 48.7208,256.457 l 3.7726,8.11 -8.7513,-1.848 z"
         transform="matrix(1,0,0,-1,315.5,413.067)"
         id="path10973" /><path
         d="M 0,514.333 C 0,510.283 3.2833,507 7.33346,507 H 307.667 c 4.05,0 7.333,3.283 7.333,7.333 v 29.334 c 0,4.05 -3.283,7.333 -7.333,7.333 H 7.33346 C 3.2833,551 0,547.717 0,543.667 Z"
         fill="#f4f2f8"
         fill-rule="evenodd"
         id="path10975" /><text
         fill="#7d3368"
         font-family="Calibri, Calibri_MSFontService, sans-serif"
         font-weight="400"
         font-size="15px"
         transform="translate(4.25228,524)"
         id="text10979">Size Fault<tspan
   fill="#000000"
   font-size="15px"
   x="115.333"
   y="17"
   id="tspan10977">Not Enough Memory Allocated</tspan></text><path
         d="m 0.065372,-0.32686 1.249998,0.2499998 c 0.04402,0.0088038 0.08581,0.0264086 0.12286,0.0517578 l 1.1875,0.8125004 c 0.02138,0.014627 0.04099,0.03171 0.05842,0.050878 l 1.25,1.375004 C 3.9471,2.22752 3.95881,2.24289 3.96911,2.25915 l 1.1875,1.875 1.26163,2.33234 1.20134,2.84135 1.19351,3.26526 1.13073,3.7046 1.18898,4.1301 1.0666,4.5156 1.1256,4.94 1.0642,5.258 2.064,11.5701 1.9389,12.8212 1.7511,13.9458 1.5633,14.9443 1.438,15.7542 1.188,16.444 0.9378,17.006 0.7502,17.379 0.5628,35.571 0.5625,35.563 0.7497,17.428 0.9373,16.996 1.1872,16.432 1.437,15.744 1.562,14.87 1.7492,13.931 1.9364,12.804 2.0611,11.554 1.0612,5.306 1.1229,4.865 1.0621,4.498 1.1834,4.11 1.1235,3.682 1.1818,3.233 1.1815,2.797 -0.042,-0.072 1.4241,1.869 -0.5302,0.404 -1.4241,-1.869 c -0.017,-0.022 -0.0311,-0.047 -0.042,-0.072 l -1.1935,-2.828 -1.1932,-3.267 -1.1265,-3.693 -1.1916,-4.14 -1.0629,-4.502 -1.1271,-4.885 -1.0638,-5.319 L 36.0454,334.425 34.1068,321.604 32.356,307.66 30.793,292.78 29.355,277.024 28.1672,260.581 27.2295,243.577 26.4792,226.13 25.9167,190.568 25.3545,155.014 24.6047,137.643 23.6675,120.649 22.4805,104.218 21.0435,88.4722 19.4818,73.5415 17.7329,59.6123 15.7968,46.8085 13.7358,35.2536 12.675,30.0116 11.5506,25.0766 10.4922,20.5922 9.30617,16.4723 8.18691,12.8019 7.00542,9.56716 5.83176,6.78351 4.59339,4.49085 l -1.1875,-1.875 0.03496,0.04587 -1.25,-1.375 0.05842,0.05088 -1.1875,-0.812498 0.12286,0.051758 -1.250002,-0.25 z M 49.7005,372.605 l 2.7929,8.497 -8.4734,-2.863 z"
         transform="matrix(1,0,0,-1,315.5,529.602)"
         id="path10981" /><text
         font-family="Calibri, Calibri_MSFontService, sans-serif"
         font-weight="400"
         font-size="15px"
         transform="translate(740.818,82)"
         id="text10983">Consequences</text><path
         d="M 630,140.001 C 630,116.804 648.804,98 672.001,98 H 902.999 C 926.196,98 945,116.804 945,140.001 V 307.999 C 945,331.196 926.196,350 902.999,350 H 672.001 C 648.804,350 630,331.196 630,307.999 Z"
         fill="#dfdaea"
         fill-rule="evenodd"
         id="path10985" /><text
         fill="#7d3368"
         font-family="Calibri, Calibri_MSFontService, sans-serif"
         font-weight="400"
         font-size="15px"
         transform="translate(644.321,125)"
         id="text11019">Memory Corruption/Disclosure Final Error<tspan
   fill="#000000"
   font-size="15px"
   x="162"
   y="17"
   id="tspan10987">Uninitialized Object</tspan><tspan
   fill="#000000"
   font-size="15px"
   x="165"
   y="35"
   id="tspan10989">Not Cleared Object</tspan><tspan
   fill="#000000"
   font-size="15px"
   x="122.833"
   y="53"
   id="tspan10991">NULL Pointer Dereference</tspan><tspan
   fill="#000000"
   font-size="15px"
   x="93.833298"
   y="70"
   id="tspan10993">Untrusted Pointer Dereference</tspan><tspan
   fill="#000000"
   font-size="15px"
   x="171.33299"
   y="88"
   id="tspan10995">Object Corruption</tspan><tspan
   fill="#000000"
   font-size="15px"
   x="186.66701"
   y="105"
   id="tspan10997">Type Confusion</tspan><tspan
   fill="#000000"
   font-size="15px"
   x="192.66701"
   y="123"
   id="tspan10999">Use After Free</tspan><tspan
   fill="#000000"
   font-size="15px"
   x="183.16701"
   y="141"
   id="tspan11001">Buffer Overflow</tspan><tspan
   fill="#000000"
   font-size="15px"
   x="174.83299"
   y="158"
   id="tspan11003">Buffer Underflow</tspan><tspan
   fill="#000000"
   font-size="15px"
   x="174.66701"
   y="176"
   id="tspan11005">Buffer Over</tspan><tspan
   fill="#000000"
   font-size="15px"
   x="244"
   y="176"
   id="tspan11007">-</tspan><tspan
   fill="#000000"
   font-size="15px"
   x="248.5"
   y="176"
   id="tspan11009">Read</tspan><tspan
   fill="#000000"
   font-size="15px"
   x="166.33299"
   y="193"
   id="tspan11011">Buffer Under</tspan><tspan
   fill="#000000"
   font-size="15px"
   x="244"
   y="193"
   id="tspan11013">-</tspan><tspan
   fill="#000000"
   font-size="15px"
   x="248.5"
   y="193"
   id="tspan11015">Read</tspan><tspan
   fill="#000000"
   font-size="15px"
   x="80"
   y="211"
   id="tspan11017">Uninitialized Pointer Dereference</tspan></text><path
         d="m 577.526,148.168 2.437,0.187 c 0.022,0.002 0.044,0.006 0.065,0.012 l 2.438,0.687 2.473,1.013 c 0.015,0.006 0.03,0.013 0.044,0.022 l 2.312,1.375 c 0.016,0.009 0.031,0.02 0.045,0.031 l 4.438,3.75 c 0.015,0.013 0.028,0.027 0.041,0.042 l 4,4.812 c 0.012,0.015 0.023,0.031 0.032,0.047 l 3.313,5.75 2.644,6.415 c 0.007,0.015 0.012,0.03 0.016,0.046 l 1.687,6.813 c 0.005,0.018 0.007,0.035 0.009,0.054 l 0.562,7.062 0.563,7.063 -0.009,-0.054 1.688,6.812 -0.015,-0.045 2.625,6.437 3.292,5.646 -0.032,-0.046 4,4.813 -0.041,-0.042 4.437,3.75 -0.075,-0.047 3.183,1.475 -0.28,0.605 -3.183,-1.476 c -0.027,-0.012 -0.052,-0.028 -0.075,-0.047 l -4.438,-3.75 c -0.015,-0.013 -0.028,-0.027 -0.041,-0.042 l -4,-4.812 c -0.012,-0.015 -0.022,-0.03 -0.031,-0.046 l -3.334,-5.729 -2.625,-6.438 c -0.006,-0.014 -0.011,-0.03 -0.014,-0.045 l -1.688,-6.813 c -0.004,-0.017 -0.007,-0.035 -0.009,-0.053 l -0.562,-7.063 -0.563,-7.062 0.009,0.053 -1.687,-6.812 0.015,0.046 -2.606,-6.335 -3.312,-5.75 0.032,0.047 -4,-4.813 0.041,0.042 -4.437,-3.75 0.045,0.032 -2.313,-1.375 0.044,0.021 -2.401,-0.987 -2.438,-0.688 0.065,0.012 -2.438,-0.188 z m 45.789,69.973 6.678,5.95 -8.766,1.773 z"
         id="path11021" /><text
         font-family="Calibri, Calibri_MSFontService, sans-serif"
         font-weight="400"
         font-size="15px"
         transform="translate(435.691,82)"
         id="text11023">Operations</text><rect
         x="367.5"
         y="98.500099"
         width="210"
         height="100"
         stroke="#000000"
         stroke-width="0.666667"
         stroke-linejoin="round"
         stroke-miterlimit="10"
         fill="none"
         id="rect11025" /><text
         font-family="Calibri, Calibri_MSFontService, sans-serif"
         font-weight="400"
         font-size="15px"
         transform="translate(419.107,116)"
         id="text11037">Initialize (object)<tspan
   font-size="15px"
   x="12.4133"
   y="17"
   id="tspan11027">Dereference</tspan><tspan
   font-size="15px"
   x="34.580002"
   y="35"
   id="tspan11029">Read</tspan><tspan
   font-size="15px"
   x="32.7467"
   y="53"
   id="tspan11031">Write</tspan><tspan
   font-size="15px"
   x="34.2467"
   y="70"
   id="tspan11033">Clear</tspan><tspan
   font-size="15px"
   x="20.6667"
   y="117"
   id="tspan11035">Operands</tspan></text><rect
         x="367.5"
         y="249.5"
         width="210"
         height="82"
         stroke="#000000"
         stroke-width="0.666667"
         stroke-linejoin="round"
         stroke-miterlimit="10"
         fill="none"
         id="rect11039" /><text
         font-family="Calibri, Calibri_MSFontService, sans-serif"
         font-weight="400"
         font-size="15px"
         transform="translate(454.777,268)"
         id="text11099">Data<tspan
   font-size="15px"
   x="-0.5"
   y="17"
   id="tspan11041">Type</tspan><tspan
   font-size="15px"
   x="-9.9200096"
   y="35"
   id="tspan11043">Address</tspan><tspan
   font-size="15px"
   x="2.3333099"
   y="53"
   id="tspan11045">Size</tspan><tspan
   font-size="15px"
   x="-16.0033"
   y="318"
   id="tspan11047">Attributes</tspan><tspan
   fill="#7d3368"
   font-size="15px"
   x="-452.67801"
   y="352"
   id="tspan11049">Mechanism</tspan><tspan
   font-size="15px"
   x="-431.67801"
   y="369"
   id="tspan11051">Direct</tspan><tspan
   font-size="15px"
   x="-431.67801"
   y="387"
   id="tspan11053">Sequential</tspan><tspan
   fill="#7d3368"
   font-size="15px"
   x="-289.948"
   y="352"
   id="tspan11055">Source Code</tspan><tspan
   font-size="15px"
   x="-268.948"
   y="369"
   id="tspan11057">Codebase</tspan><tspan
   font-size="15px"
   x="-268.948"
   y="387"
   id="tspan11059">Third</tspan><tspan
   font-size="15px"
   x="-237.948"
   y="387"
   id="tspan11061">-</tspan>Party<tspan
   font-size="15px"
   x="-268.948"
   y="405"
   id="tspan11063">Standard Library</tspan><tspan
   font-size="15px"
   x="-268.948"
   y="422"
   id="tspan11065">Compiler/Interp</tspan><tspan
   font-size="15px"
   x="-268.948"
   y="440"
   id="tspan11067">reter</tspan><tspan
   fill="#7d3368"
   font-size="15px"
   x="-127.218"
   y="352"
   id="tspan11069">Execution Space</tspan><tspan
   font-size="15px"
   x="-106.218"
   y="369"
   id="tspan11071">Userland</tspan><tspan
   font-size="15px"
   x="-106.218"
   y="387"
   id="tspan11073">Kernel</tspan><tspan
   font-size="15px"
   x="-106.218"
   y="405"
   id="tspan11075">Bare</tspan>-Metal<tspan
   fill="#7d3368"
   font-size="15px"
   x="35.511299"
   y="352"
   id="tspan11077">Address Kind</tspan><tspan
   font-size="15px"
   x="56.511299"
   y="369"
   id="tspan11079">Huge</tspan><tspan
   font-size="15px"
   x="56.511299"
   y="387"
   id="tspan11081">Moderate</tspan><tspan
   font-size="15px"
   x="56.511299"
   y="405"
   id="tspan11083">Little</tspan><tspan
   fill="#7d3368"
   font-size="15px"
   x="198.241"
   y="352"
   id="tspan11085">Address State</tspan><tspan
   font-size="15px"
   x="219.241"
   y="369"
   id="tspan11087">Stack</tspan><tspan
   font-size="15px"
   x="219.241"
   y="387"
   id="tspan11089">Heap</tspan><tspan
   font-size="15px"
   x="219.241"
   y="405"
   id="tspan11091">/other/</tspan><tspan
   fill="#7d3368"
   font-size="15px"
   x="360.97101"
   y="352"
   id="tspan11093">Size Kind</tspan><tspan
   font-size="15px"
   x="381.97101"
   y="369"
   id="tspan11095">Actual</tspan><tspan
   font-size="15px"
   x="381.97101"
   y="387"
   id="tspan11097">Used</tspan></text><path
         d="M 0,741.167 C 0,738.866 1.86552,737 4.16675,737 H 37.8333 C 40.1345,737 42,738.866 42,741.167 v 16.666 C 42,760.134 40.1345,762 37.8333,762 H 4.16675 C 1.86552,762 0,760.134 0,757.833 Z"
         fill="#e8effc"
         fill-rule="evenodd"
         id="path11101" /><text
         font-family="Calibri, Calibri_MSFontService, sans-serif"
         font-weight="400"
         font-size="15px"
         transform="translate(44.0945,756)"
         id="text11103">Bug</text><path
         d="m 236,741.167 c 0,-2.301 1.866,-4.167 4.167,-4.167 h 33.666 c 2.301,0 4.167,1.866 4.167,4.167 v 16.666 c 0,2.301 -1.866,4.167 -4.167,4.167 H 240.167 C 237.866,762 236,760.134 236,757.833 Z"
         fill="#f4f2f8"
         fill-rule="evenodd"
         id="path11105" /><text
         font-family="Calibri, Calibri_MSFontService, sans-serif"
         font-weight="400"
         font-size="15px"
         transform="translate(280.315,756)"
         id="text11107">Fault/Error</text><path
         d="m 472,741.167 c 0,-2.301 1.866,-4.167 4.167,-4.167 h 33.666 c 2.301,0 4.167,1.866 4.167,4.167 v 16.666 c 0,2.301 -1.866,4.167 -4.167,4.167 H 476.167 C 473.866,762 472,760.134 472,757.833 Z"
         fill="#dfdaea"
         fill-rule="evenodd"
         id="path11109" /><text
         font-family="Calibri, Calibri_MSFontService, sans-serif"
         font-weight="400"
         font-size="15px"
         transform="translate(516.535,756)"
         id="text11111">Final Error</text><rect
         x="709.5"
         y="737.5"
         width="42"
         height="25"
         stroke="#000000"
         stroke-width="0.666667"
         stroke-linejoin="round"
         stroke-miterlimit="10"
         fill="none"
         id="rect11113" /><text
         font-family="Calibri, Calibri_MSFontService, sans-serif"
         font-weight="400"
         font-size="15px"
         transform="translate(752.756,756)"
         id="text11115">Operation/Operand</text></g></g></svg>
