<?xml version="1.0" encoding="UTF-8" standalone="no"?>
<!-- Created with Inkscape (http://www.inkscape.org/) -->

<svg
   width="277.8125mm"
   height="189.4411mm"
   viewBox="0 0 277.81249 189.4411"
   version="1.1"
   id="svg1"
   inkscape:version="1.3.2 (091e20e, 2023-11-25, custom)"
   sodipodi:docname="TCV.svg"
   xmlns:inkscape="http://www.inkscape.org/namespaces/inkscape"
   xmlns:sodipodi="http://sodipodi.sourceforge.net/DTD/sodipodi-0.dtd"
   xmlns="http://www.w3.org/2000/svg"
   xmlns:svg="http://www.w3.org/2000/svg">
  <sodipodi:namedview
     id="namedview1"
     pagecolor="#ffffff"
     bordercolor="#000000"
     borderopacity="0.25"
     inkscape:showpageshadow="2"
     inkscape:pageopacity="0.0"
     inkscape:pagecheckerboard="0"
     inkscape:deskcolor="#d1d1d1"
     inkscape:document-units="mm"
     inkscape:zoom="1"
     inkscape:cx="189.5"
     inkscape:cy="18.5"
     inkscape:window-width="2560"
     inkscape:window-height="1377"
     inkscape:window-x="-8"
     inkscape:window-y="859"
     inkscape:window-maximized="1"
     inkscape:current-layer="layer1" />
  <defs
     id="defs1" />
  <g
     inkscape:label="Layer 1"
     inkscape:groupmode="layer"
     id="layer1"
     transform="translate(-212.84549,-441.8314)">
    <g
       transform="matrix(0.26458333,0,0,0.26458333,212.84549,439.49369)"
       id="g71">
      <text
         font-family="Calibri, Calibri_MSFontService, sans-serif"
         font-weight="400"
         font-size="19px"
         transform="translate(441.086,22)"
         id="text1">Bugs Framework (BF)</text>
      <text
         font-family="Calibri, Calibri_MSFontService, sans-serif"
         font-weight="400"
         font-size="16px"
         transform="translate(430.32,65)"
         id="text2">Data Type (_DAT) Class Type</text>
      <text
         fill="#660066"
         font-family="Calibri, Calibri_MSFontService, sans-serif"
         font-weight="400"
         font-size="16px"
         transform="translate(430.72,84)"
         id="text3">Type Conversion (TCV) Class</text>
      <text
         font-family="Calibri, Calibri_MSFontService, sans-serif"
         font-weight="400"
         font-size="16px"
         transform="translate(148.645,115)"
         id="text4">Causes</text>
      <path
         d="M 0,143.667 C 0,137.224 5.22352,132 11.667,132 h 326.666 c 6.443,0 11.667,5.224 11.667,11.667 v 46.666 C 350,196.776 344.776,202 338.333,202 H 11.667 C 5.22352,202 0,196.776 0,190.333 Z"
         fill="#e8effc"
         fill-rule="evenodd"
         id="path4" />
      <text
         font-family="Calibri, Calibri_MSFontService, sans-serif"
         font-weight="400"
         font-size="16px"
         transform="translate(5.48231,152)"
         id="text5">Code Bug</text>
      <text
         fill="#660066"
         font-family="Calibri, Calibri_MSFontService, sans-serif"
         font-weight="400"
         font-size="16px"
         transform="translate(250.316,171)"
         id="text6">Missing Code</text>
      <text
         fill="#660066"
         font-family="Calibri, Calibri_MSFontService, sans-serif"
         font-weight="400"
         font-size="16px"
         transform="translate(256.542,190)"
         id="text7">Wrong Code</text>
      <path
         d="M 0.0140301,-0.333038 10.7223,0.118078 l 4.9478,0.519287 4.4296,0.673515 3.7501,0.7981 2.9052,0.89433 c 0.0185,0.00572 0.0365,0.01303 0.0538,0.02187 l 1.8511,0.94837 c 0.0505,0.02586 0.0936,0.06418 0.1251,0.11132 L 29.44,5.064 30.0951,6.04312 29.97,5.9318 31.8212,6.88017 31.7674,6.8583 l 2.8764,0.88685 3.7021,0.7871 4.395,0.66802 4.9116,0.51579 4.0268,0.16899 -0.0281,0.66605 -4.0683,-0.172 L 42.6406,9.85936 38.207,9.18429 34.4474,8.38223 31.571,7.49537 C 31.5525,7.48966 31.5345,7.48234 31.5172,7.4735 L 29.666,6.52514 C 29.6156,6.49927 29.5725,6.46096 29.541,6.41382 L 28.8859,5.43469 28.2309,4.45556 28.356,4.56689 26.5048,3.61852 26.5586,3.64039 23.7109,2.76102 19.9994,1.96996 15.6004,1.30038 10.6943,0.784153 -0.0140301,0.333038 Z M 50.5014,6.16551 58.326,10.4987 50.1647,14.1584 Z"
         transform="matrix(1,0,0,-1,350.5,166.999)"
         id="path7" />
      <path
         d="M 0,228.667 C 0,222.224 5.22352,217 11.667,217 h 326.666 c 6.443,0 11.667,5.224 11.667,11.667 v 46.666 C 350,281.776 344.776,287 338.333,287 H 11.667 C 5.22352,287 0,281.776 0,275.333 Z"
         fill="#f4f2f8"
         fill-rule="evenodd"
         id="path8" />
      <text
         font-family="Calibri, Calibri_MSFontService, sans-serif"
         font-weight="400"
         font-size="16px"
         transform="translate(5.48231,237)"
         id="text8">Name Fault</text>
      <text
         fill="#660066"
         font-family="Calibri, Calibri_MSFontService, sans-serif"
         font-weight="400"
         font-size="16px"
         transform="translate(184.976,256)"
         id="text9">Wrong Object Resolved</text>
      <text
         fill="#660066"
         font-family="Calibri, Calibri_MSFontService, sans-serif"
         font-weight="400"
         font-size="16px"
         transform="translate(147.636,275)"
         id="text10">Missing Overloaded Function</text>
      <path
         d="M 0.0332904,-0.331667 2.76376,-0.0576013 c 0.02067,0.0020753 0.04106,0.0060674 0.06099,0.0119446 L 5.53386,0.753215 c 0.01743,0.005141 0.0344,0.011693 0.05077,0.019603 l 2.66639,1.288692 2.64278,1.76672 2.5486,2.1875 2.435,2.57197 4.4424,6.1449 c 0.0097,0.0135 0.0184,0.0276 0.026,0.0424 l 3.7308,7.2306 2.8942,8.1113 1.8631,8.6722 0.6616,8.9555 0.655,8.91 1.8446,8.5847 2.8645,8.0284 3.7131,7.1897 -0.026,-0.0424 4.4143,6.1111 2.382,2.5144 2.492,2.1396 2.5706,1.7194 -0.0812,-0.0396 1.6883,0.5566 -0.2088,0.6331 -1.6882,-0.5566 C 50.0869,93.4835 50.0596,93.4702 50.0345,93.4534 L 47.4004,91.6857 44.8587,89.4986 42.4206,86.9165 38.0063,80.8054 C 37.9965,80.792 37.9878,80.7778 37.9802,80.7631 l -3.7485,-7.2716 -2.8884,-8.1124 -1.8577,-8.6756 -0.655,-8.91 -0.6485,-8.8646 -1.8392,-8.5882 -2.8587,-8.0294 -3.7309,-7.2306 0.0261,0.0423 L 15.3931,9.04579 13.0079,6.5213 10.5227,4.38208 7.96092,2.66175 5.29453,1.37306 5.3453,1.39266 2.63619,0.593788 2.69718,0.605732 -0.0332904,0.331667 Z M 51.7078,89.5215 l 6.6182,6.0166 -8.7842,1.6845 z"
         transform="matrix(1,0,0,-1,350.5,252.038)"
         id="path10" />
      <path
         d="M 0,317.167 C 0,308.791 6.79052,302 15.167,302 h 319.666 c 8.376,0 15.167,6.791 15.167,15.167 v 60.666 C 350,386.209 343.209,393 334.833,393 H 15.167 C 6.79052,393 0,386.209 0,377.833 Z"
         fill="#f4f2f8"
         fill-rule="evenodd"
         id="path11" />
      <text
         font-family="Calibri, Calibri_MSFontService, sans-serif"
         font-weight="400"
         font-size="16px"
         transform="translate(6.5073,323)"
         id="text11">Data Fault</text>
      <text
         fill="#660066"
         font-family="Calibri, Calibri_MSFontService, sans-serif"
         font-weight="400"
         font-size="16px"
         transform="translate(251.641,342)"
         id="text12">Under Range</text>
      <text
         fill="#660066"
         font-family="Calibri, Calibri_MSFontService, sans-serif"
         font-weight="400"
         font-size="16px"
         transform="translate(260.961,361)"
         id="text13">Over Range</text>
      <text
         fill="#660066"
         font-family="Calibri, Calibri_MSFontService, sans-serif"
         font-weight="400"
         font-size="16px"
         transform="translate(257.674,381)"
         id="text14">Flipped Sign</text>
      <path
         d="M 0.0656064,-0.326813 2.79608,0.221318 C 2.83263,0.228656 2.86769,0.242072 2.8998,0.261012 L 5.60891,1.85876 C 5.63149,1.87207 5.6524,1.88799 5.67125,1.90621 l 2.66639,2.57738 c 0.01289,0.01246 0.02475,0.02593 0.03548,0.0403 l 2.60228,3.48705 2.5379,4.35846 2.4233,5.1216 2.2907,5.8166 2.1386,6.4431 1.9661,7.0006 1.7727,7.4889 1.5584,7.9077 1.3228,8.2571 1.8535,17.2774 0.6567,17.8434 0.655,17.8202 1.8495,17.237 1.3185,8.228 1.5536,7.884 1.7666,7.463 1.9581,6.972 2.1278,6.411 2.2757,5.78 2.4013,5.076 2.5036,4.301 2.5814,3.456 -0.0704,-0.07 2.208,1.615 -0.3937,0.538 -2.2079,-1.615 c -0.0268,-0.02 -0.0505,-0.043 -0.0703,-0.07 l -2.6233,-3.519 -2.5301,-4.351 -2.4189,-5.117 -2.2881,-5.814 -2.137,-6.44 -1.965,-7 -1.7719,-7.487 -1.5578,-7.908 -1.323,-8.262 L 29.4849,113.37 28.8299,95.5503 28.1765,77.7535 26.3277,60.5104 25.009,52.2768 23.456,44.3937 21.6902,36.9315 19.7332,29.9606 17.607,23.5518 15.3339,17.776 12.937,12.7046 10.4411,8.40967 7.83883,4.92262 7.8743,4.96292 5.20791,2.38554 5.27025,2.43299 2.56114,0.83525 2.66486,0.874944 -0.0656064,0.326813 Z M 53.113,183.808 l 5.213,7.268 -8.9423,-0.19 z"
         transform="matrix(1,0,0,-1,350.5,347.576)"
         id="path14" />
      <path
         d="M 0,423.167 C 0,414.791 6.79052,408 15.167,408 h 319.666 c 8.376,0 15.167,6.791 15.167,15.167 v 60.666 C 350,492.209 343.209,499 334.833,499 H 15.167 C 6.79052,499 0,492.209 0,483.833 Z"
         fill="#f4f2f8"
         fill-rule="evenodd"
         id="path15" />
      <text
         font-family="Calibri, Calibri_MSFontService, sans-serif"
         font-weight="400"
         font-size="16px"
         transform="translate(6.5073,429)"
         id="text15">Type Fault</text>
      <text
         fill="#660066"
         font-family="Calibri, Calibri_MSFontService, sans-serif"
         font-weight="400"
         font-size="16px"
         transform="translate(258.294,448)"
         id="text16">Wrong Type</text>
      <text
         fill="#660066"
         font-family="Calibri, Calibri_MSFontService, sans-serif"
         font-weight="400"
         font-size="16px"
         transform="translate(149.727,467)"
         id="text17">Wrong Object Type Resolved</text>
      <text
         fill="#660066"
         font-family="Calibri, Calibri_MSFontService, sans-serif"
         font-weight="400"
         font-size="16px"
         transform="translate(186.714,487)"
         id="text18">Mismatched Argument</text>
      <path
         d="M 0.0518869,-0.32927 1.41845,-0.113925 c 0.03085,0.004861 0.06087,0.0140356 0.08916,0.0272502 L 2.87151,0.550293 C 2.89355,0.560585 2.91441,0.573271 2.93369,0.5881 L 4.29225,1.63309 C 4.30649,1.64404 4.31981,1.65612 4.3321,1.66922 l 1.35055,1.43942 1.36523,1.85071 1.3431,2.21221 2.61782,5.45074 2.5286,6.7553 2.4168,7.9445 2.2861,9.028 2.1353,10.0042 1.9636,10.8728 1.7708,11.6332 1.5569,12.2852 1.3216,12.8287 1.0651,13.2638 0.7873,13.59 0.6555,27.721 0.655,27.709 0.7863,13.571 1.0639,13.249 1.32,12.813 1.5548,12.269 1.7682,11.616 1.96,10.854 2.1303,9.981 2.2791,9.001 2.4058,7.909 2.5102,6.708 2.5906,5.395 1.311,2.159 -0.0655,-0.078 1.3973,1.223 -0.439,0.502 -1.3973,-1.223 c -0.0258,-0.023 -0.0478,-0.049 -0.0656,-0.078 l -1.342,-2.216 -2.6139,-5.45 -2.5236,-6.748 -2.4143,-7.939 -2.2848,-9.025 -2.1344,-10.003 -1.963,-10.871 -1.7704,-11.633 -1.5566,-12.284 -1.3214,-12.829 -1.065,-13.263 -0.7872,-13.594 -0.655,-27.71 L 28.1753,120.866 27.3891,107.291 26.3253,94.0425 25.0055,81.2293 23.4509,68.9606 21.6831,57.3456 19.7236,46.4935 17.5941,36.5137 15.3163,27.5161 12.913,19.6112 10.4078,12.9108 7.82094,7.51725 6.51099,5.35455 5.19648,3.5648 3.84593,2.12538 3.88579,2.16152 2.52723,1.11653 2.58941,1.15433 1.22551,0.517365 1.31468,0.544615 -0.0518869,0.32927 Z M 54.228,289.163 l 4.098,7.95 -8.819,-1.492 z"
         transform="matrix(1,0,0,-1,350.5,453.613)"
         id="path18" />
      <text
         font-family="Calibri, Calibri_MSFontService, sans-serif"
         font-weight="400"
         font-size="16px"
         transform="translate(824.224,115)"
         id="text19">Consequences</text>
      <path
         d="M 700,154.167 C 700,141.925 709.924,132 722.167,132 h 305.663 c 12.25,0 22.17,9.925 22.17,22.167 v 88.666 c 0,12.242 -9.92,22.167 -22.17,22.167 H 722.167 C 709.924,265 700,255.075 700,242.833 Z"
         fill="#f4f2f8"
         fill-rule="evenodd"
         id="path19" />
      <text
         font-family="Calibri, Calibri_MSFontService, sans-serif"
         font-weight="400"
         font-size="16px"
         transform="translate(708.47,155)"
         id="text20">Data Error</text>
      <text
         fill="#660066"
         font-family="Calibri, Calibri_MSFontService, sans-serif"
         font-weight="400"
         font-size="16px"
         transform="translate(951.09,174)"
         id="text21">Wrong Value</text>
      <text
         fill="#660066"
         font-family="Calibri, Calibri_MSFontService, sans-serif"
         font-weight="400"
         font-size="16px"
         transform="translate(955.636,193)"
         id="text22">Flipped Sign</text>
      <text
         fill="#660066"
         font-family="Calibri, Calibri_MSFontService, sans-serif"
         font-weight="400"
         font-size="16px"
         transform="translate(929.643,213)"
         id="text23">Truncated Value</text>
      <text
         fill="#660066"
         font-family="Calibri, Calibri_MSFontService, sans-serif"
         font-weight="400"
         font-size="16px"
         transform="translate(934.036,232)"
         id="text24">Distorted Value</text>
      <text
         fill="#660066"
         font-family="Calibri, Calibri_MSFontService, sans-serif"
         font-weight="400"
         font-size="16px"
         transform="translate(936.19,251)"
         id="text25">Rounded Value</text>
      <path
         d="m 642.529,156.168 5.439,0.472 c 0.018,0.001 0.036,0.004 0.053,0.009 l 5.269,1.332 c 0.016,0.004 0.032,0.01 0.048,0.016 l 4.926,2.071 c 0.016,0.007 0.03,0.014 0.045,0.023 l 4.414,2.686 c 0.015,0.009 0.029,0.02 0.043,0.031 l 3.731,3.178 c 0.015,0.014 0.029,0.028 0.042,0.044 l 2.877,3.548 c 0.016,0.019 0.029,0.041 0.04,0.063 l 1.852,3.794 c 0.014,0.029 0.024,0.059 0.029,0.091 l 0.655,3.916 0.655,3.917 -0.029,-0.091 1.851,3.793 -0.041,-0.064 2.877,3.548 -0.043,-0.044 3.731,3.178 -0.043,-0.031 4.414,2.687 -0.044,-0.023 4.927,2.071 -0.059,-0.018 4.105,0.887 -0.141,0.652 -4.105,-0.888 c -0.02,-0.004 -0.039,-0.01 -0.058,-0.018 l -4.927,-2.071 c -0.016,-0.007 -0.03,-0.014 -0.044,-0.023 l -4.415,-2.686 c -0.015,-0.009 -0.029,-0.02 -0.043,-0.031 l -3.73,-3.178 c -0.016,-0.014 -0.03,-0.028 -0.043,-0.044 l -2.877,-3.548 c -0.016,-0.019 -0.029,-0.041 -0.04,-0.063 l -1.851,-3.794 c -0.014,-0.029 -0.024,-0.059 -0.03,-0.091 l -0.655,-3.917 -0.655,-3.916 0.029,0.091 -1.851,-3.793 0.041,0.063 -2.876,-3.547 0.042,0.044 -3.731,-3.179 0.043,0.031 -4.414,-2.686 0.044,0.023 -4.927,-2.071 0.048,0.016 -5.269,-1.333 0.053,0.009 -5.44,-0.472 z m 50.923,37.265 7.374,5.062 -8.474,2.862 z"
         id="path25" />
      <path
         d="M 700,295.167 C 700,286.791 706.791,280 715.167,280 h 319.663 c 8.38,0 15.17,6.791 15.17,15.167 v 60.666 c 0,8.376 -6.79,15.167 -15.17,15.167 H 715.167 C 706.791,371 700,364.209 700,355.833 Z"
         fill="#f4f2f8"
         fill-rule="evenodd"
         id="path26" />
      <text
         font-family="Calibri, Calibri_MSFontService, sans-serif"
         font-weight="400"
         font-size="16px"
         transform="translate(706.42,301)"
         id="text26">Type Error</text>
      <text
         fill="#660066"
         font-family="Calibri, Calibri_MSFontService, sans-serif"
         font-weight="400"
         font-size="16px"
         transform="translate(957.406,320)"
         id="text27">Cast Pointer</text>
      <text
         fill="#660066"
         font-family="Calibri, Calibri_MSFontService, sans-serif"
         font-weight="400"
         font-size="16px"
         transform="translate(921.1,339)"
         id="text28">Downcast Pointer</text>
      <text
         fill="#660066"
         font-family="Calibri, Calibri_MSFontService, sans-serif"
         font-weight="400"
         font-size="16px"
         transform="translate(958.206,359)"
         id="text29">Wrong Type</text>
      <path
         d="m 642.558,156.172 2.731,0.485 c 0.033,0.006 0.066,0.017 0.096,0.032 l 2.709,1.414 c 0.022,0.011 0.043,0.026 0.062,0.042 l 2.667,2.28 c 0.013,0.012 0.026,0.025 0.038,0.038 l 2.602,3.085 2.541,3.859 2.425,4.535 2.293,5.149 2.14,5.703 1.967,6.196 1.773,6.627 2.882,14.299 1.855,15.294 0.657,15.791 0.655,15.764 1.849,15.242 2.872,14.253 1.765,6.592 1.957,6.165 2.127,5.669 2.274,5.109 2.4,4.486 2.501,3.802 2.579,3.053 -0.076,-0.067 2.082,1.322 -0.357,0.563 -2.082,-1.322 c -0.029,-0.018 -0.055,-0.041 -0.077,-0.066 l -2.626,-3.117 -2.532,-3.853 -2.421,-4.53 -2.289,-5.146 -2.138,-5.701 -1.966,-6.194 -1.774,-6.634 -2.881,-14.304 -1.853,-15.295 -0.655,-15.764 -0.653,-15.737 -1.847,-15.243 -2.872,-14.258 -1.765,-6.599 -1.955,-6.163 -2.125,-5.666 -2.272,-5.106 -2.394,-4.482 -2.493,-3.796 -2.603,-3.085 0.038,0.039 -2.666,-2.28 0.062,0.042 -2.709,-1.414 0.096,0.033 -2.73,-0.485 z m 52.754,162.315 5.514,7.042 -8.942,0.186 z"
         id="path29" />
      <path
         d="m 700,394.167 c 0,-4.511 3.656,-8.167 8.167,-8.167 h 333.663 c 4.51,0 8.17,3.656 8.17,8.167 v 32.666 c 0,4.511 -3.66,8.167 -8.17,8.167 H 708.167 C 703.656,435 700,431.344 700,426.833 Z"
         fill="#dfdaea"
         fill-rule="evenodd"
         id="path30" />
      <text
         font-family="Calibri, Calibri_MSFontService, sans-serif"
         font-weight="400"
         font-size="16px"
         transform="translate(704.37,405)"
         id="text30">Type Conversion Final Error</text>
      <text
         fill="#660066"
         font-family="Calibri, Calibri_MSFontService, sans-serif"
         font-weight="400"
         font-size="16px"
         transform="translate(916.203,424)"
         id="text31">Subtype Confusion</text>
      <path
         d="m 642.586,156.178 2.73,0.729 c 0.044,0.011 0.085,0.032 0.12,0.06 l 2.709,2.124 c 0.022,0.017 0.041,0.036 0.058,0.058 l 2.666,3.427 c 0.01,0.013 0.02,0.027 0.028,0.041 l 2.602,4.637 2.532,5.783 2.418,6.798 2.288,7.724 2.136,8.558 1.964,9.301 1.772,9.951 1.557,10.507 1.322,10.973 1.852,22.964 0.656,23.712 0.655,23.695 1.851,22.933 1.319,10.95 1.555,10.489 1.767,9.931 1.96,9.278 2.129,8.533 2.279,7.693 2.404,6.759 2.508,5.732 2.588,4.607 -0.053,-0.071 2.553,2.591 -0.475,0.468 -2.553,-2.591 c -0.021,-0.021 -0.039,-0.045 -0.053,-0.071 l -2.618,-4.666 -2.525,-5.775 -2.416,-6.794 -2.285,-7.721 -2.135,-8.556 -1.964,-9.299 -1.771,-9.95 -1.557,-10.507 -1.322,-10.977 -1.852,-22.968 -0.655,-23.695 -0.654,-23.677 -1.85,-22.937 -1.319,-10.955 -1.555,-10.489 -1.767,-9.929 -1.959,-9.277 -2.128,-8.531 -2.277,-7.69 -2.401,-6.754 -2.502,-5.724 -2.603,-4.636 0.028,0.041 -2.666,-3.427 0.057,0.058 -2.709,-2.125 0.12,0.06 -2.731,-0.729 z m 53.79,246.632 4.45,7.758 -8.877,-1.095 z"
         id="path31" />
      <text
         font-family="Calibri, Calibri_MSFontService, sans-serif"
         font-weight="400"
         font-size="16px"
         transform="translate(485.254,115)"
         id="text32">Operations</text>
      <rect
         x="408.5"
         y="132.5"
         width="234"
         height="49"
         stroke="#000000"
         stroke-width="0.666667"
         stroke-linejoin="round"
         stroke-miterlimit="10"
         fill="none"
         id="rect32" />
      <text
         fill="#660066"
         font-family="Calibri, Calibri_MSFontService, sans-serif"
         font-weight="400"
         font-size="16px"
         transform="translate(507.354,152)"
         id="text33">Cast</text>
      <text
         fill="#660066"
         font-family="Calibri, Calibri_MSFontService, sans-serif"
         font-weight="400"
         font-size="16px"
         transform="translate(498.634,171)"
         id="text34">Coerce</text>
      <text
         font-family="Calibri, Calibri_MSFontService, sans-serif"
         font-weight="400"
         font-size="16px"
         transform="translate(489.764,216)"
         id="text35">Operands</text>
      <rect
         x="408.5"
         y="233.5"
         width="234"
         height="69"
         stroke="#000000"
         stroke-width="0.666667"
         stroke-linejoin="round"
         stroke-miterlimit="10"
         fill="none"
         id="rect35" />
      <text
         fill="#660066"
         font-family="Calibri, Calibri_MSFontService, sans-serif"
         font-weight="400"
         font-size="16px"
         transform="translate(501.767,253)"
         id="text36">Name</text>
      <text
         fill="#660066"
         font-family="Calibri, Calibri_MSFontService, sans-serif"
         font-weight="400"
         font-size="16px"
         transform="translate(506.101,272)"
         id="text37">Data</text>
      <text
         fill="#660066"
         font-family="Calibri, Calibri_MSFontService, sans-serif"
         font-weight="400"
         font-size="16px"
         transform="translate(505.881,291)"
         id="text38">Type</text>
      <text
         fill="#7f7f7f"
         font-family="Calibri, Calibri_MSFontService, sans-serif"
         font-weight="400"
         font-size="13px"
         transform="translate(960.6,460)"
         id="text39">BF, I. Bojanova</text>
      <text
         font-family="Calibri, Calibri_MSFontService, sans-serif"
         font-weight="400"
         font-size="16px"
         transform="translate(488.838,534)"
         id="text40">Attributes</text>
      <text
         font-family="Calibri, Calibri_MSFontService, sans-serif"
         font-weight="400"
         font-size="16px"
         transform="translate(2.09974,571)"
         id="text41">Mechanism</text>
      <text
         fill="#660066"
         font-family="Calibri, Calibri_MSFontService, sans-serif"
         font-weight="400"
         font-size="16px"
         transform="translate(2.09974,590)"
         id="text42">Pass In</text>
      <text
         fill="#660066"
         font-family="Calibri, Calibri_MSFontService, sans-serif"
         font-weight="400"
         font-size="16px"
         transform="translate(2.09974,609)"
         id="text43">Pass Out</text>
      <text
         font-family="Calibri, Calibri_MSFontService, sans-serif"
         font-weight="400"
         font-size="16px"
         transform="translate(180.577,571)"
         id="text44">Source Code</text>
      <text
         fill="#660066"
         font-family="Calibri, Calibri_MSFontService, sans-serif"
         font-weight="400"
         font-size="16px"
         transform="translate(180.577,590)"
         id="text45">Codebase</text>
      <text
         fill="#660066"
         font-family="Calibri, Calibri_MSFontService, sans-serif"
         font-weight="400"
         font-size="16px"
         transform="translate(180.577,609)"
         id="text46">Third</text>
      <text
         fill="#660066"
         font-family="Calibri, Calibri_MSFontService, sans-serif"
         font-weight="400"
         font-size="16px"
         transform="translate(214.024,609)"
         id="text47">-</text>
      <text
         fill="#660066"
         font-family="Calibri, Calibri_MSFontService, sans-serif"
         font-weight="400"
         font-size="16px"
         transform="translate(218.857,609)"
         id="text48">Party</text>
      <text
         fill="#660066"
         font-family="Calibri, Calibri_MSFontService, sans-serif"
         font-weight="400"
         font-size="16px"
         transform="translate(180.577,629)"
         id="text49">Standard Library</text>
      <text
         fill="#660066"
         font-family="Calibri, Calibri_MSFontService, sans-serif"
         font-weight="400"
         font-size="16px"
         transform="translate(180.577,648)"
         id="text50">Compiler/Interpreter</text>
      <text
         font-family="Calibri, Calibri_MSFontService, sans-serif"
         font-weight="400"
         font-size="16px"
         transform="translate(359.055,571)"
         id="text51">Execution Space</text>
      <text
         fill="#660066"
         font-family="Calibri, Calibri_MSFontService, sans-serif"
         font-weight="400"
         font-size="16px"
         transform="translate(359.055,590)"
         id="text52">Local</text>
      <text
         fill="#660066"
         font-family="Calibri, Calibri_MSFontService, sans-serif"
         font-weight="400"
         font-size="16px"
         transform="translate(359.055,609)"
         id="text53">Admin</text>
      <text
         fill="#660066"
         font-family="Calibri, Calibri_MSFontService, sans-serif"
         font-weight="400"
         font-size="16px"
         transform="translate(359.055,629)"
         id="text54">Bare</text>
      <text
         fill="#660066"
         font-family="Calibri, Calibri_MSFontService, sans-serif"
         font-weight="400"
         font-size="16px"
         transform="translate(388.675,629)"
         id="text55">-</text>
      <text
         fill="#660066"
         font-family="Calibri, Calibri_MSFontService, sans-serif"
         font-weight="400"
         font-size="16px"
         transform="translate(393.508,629)"
         id="text56">Metal</text>
      <text
         font-family="Calibri, Calibri_MSFontService, sans-serif"
         font-weight="400"
         font-size="16px"
         transform="translate(537.533,571)"
         id="text57">Name State</text>
      <text
         fill="#660066"
         font-family="Calibri, Calibri_MSFontService, sans-serif"
         font-weight="400"
         font-size="16px"
         transform="translate(537.533,590)"
         id="text58">Resolved</text>
      <text
         fill="#660066"
         font-family="Calibri, Calibri_MSFontService, sans-serif"
         font-weight="400"
         font-size="16px"
         transform="translate(537.533,609)"
         id="text59">Bound</text>
      <text
         font-family="Calibri, Calibri_MSFontService, sans-serif"
         font-weight="400"
         font-size="16px"
         transform="translate(716.01,571)"
         id="text60">Data Kind</text>
      <text
         fill="#660066"
         font-family="Calibri, Calibri_MSFontService, sans-serif"
         font-weight="400"
         font-size="16px"
         transform="translate(716.01,590)"
         id="text61">Numeric</text>
      <text
         fill="#660066"
         font-family="Calibri, Calibri_MSFontService, sans-serif"
         font-weight="400"
         font-size="16px"
         transform="translate(716.01,609)"
         id="text62">Text</text>
      <text
         fill="#660066"
         font-family="Calibri, Calibri_MSFontService, sans-serif"
         font-weight="400"
         font-size="16px"
         transform="translate(716.01,629)"
         id="text63">Pointer</text>
      <text
         fill="#660066"
         font-family="Calibri, Calibri_MSFontService, sans-serif"
         font-weight="400"
         font-size="16px"
         transform="translate(716.01,648)"
         id="text64">Boolean</text>
      <text
         font-family="Calibri, Calibri_MSFontService, sans-serif"
         font-weight="400"
         font-size="16px"
         transform="translate(894.488,571)"
         id="text65">Type Kind</text>
      <text
         fill="#660066"
         font-family="Calibri, Calibri_MSFontService, sans-serif"
         font-weight="400"
         font-size="16px"
         transform="translate(894.488,590)"
         id="text66">Primitive</text>
      <text
         fill="#660066"
         font-family="Calibri, Calibri_MSFontService, sans-serif"
         font-weight="400"
         font-size="16px"
         transform="translate(894.488,609)"
         id="text67">Structure</text>
      <path
         d="M 0,701.5 C 0,699.015 2.01475,697 4.50007,697 H 37.4999 C 39.9852,697 42,699.015 42,701.5 v 18 c 0,2.485 -2.0148,4.5 -4.5001,4.5 H 4.50007 C 2.01475,724 0,721.985 0,719.5 Z"
         fill="#e8effc"
         fill-rule="evenodd"
         id="path67" />
      <text
         font-family="Calibri, Calibri_MSFontService, sans-serif"
         font-weight="400"
         font-size="16px"
         transform="translate(44.0945,717)"
         id="text68">Bug</text>
      <path
         d="m 262,701.5 c 0,-2.485 2.015,-4.5 4.5,-4.5 h 33 c 2.485,0 4.5,2.015 4.5,4.5 v 18 c 0,2.485 -2.015,4.5 -4.5,4.5 h -33 c -2.485,0 -4.5,-2.015 -4.5,-4.5 z"
         fill="#f4f2f8"
         fill-rule="evenodd"
         id="path68" />
      <text
         font-family="Calibri, Calibri_MSFontService, sans-serif"
         font-weight="400"
         font-size="16px"
         transform="translate(306.562,717)"
         id="text69">Fault/Error</text>
      <path
         d="m 525,701.5 c 0,-2.485 2.015,-4.5 4.5,-4.5 h 33 c 2.485,0 4.5,2.015 4.5,4.5 v 18 c 0,2.485 -2.015,4.5 -4.5,4.5 h -33 c -2.485,0 -4.5,-2.015 -4.5,-4.5 z"
         fill="#dfdaea"
         fill-rule="evenodd"
         id="path69" />
      <text
         font-family="Calibri, Calibri_MSFontService, sans-serif"
         font-weight="400"
         font-size="16px"
         transform="translate(569.029,717)"
         id="text70">Final Error</text>
      <rect
         x="787.5"
         y="697.5"
         width="42"
         height="27"
         stroke="#000000"
         stroke-width="0.666667"
         stroke-linejoin="round"
         stroke-miterlimit="10"
         fill="none"
         id="rect70" />
      <text
         font-family="Calibri, Calibri_MSFontService, sans-serif"
         font-weight="400"
         font-size="16px"
         transform="translate(831.496,717)"
         id="text71">Operation/Operand</text>
    </g>
  </g>
</svg>
