<?xml version="1.0" encoding="UTF-8" standalone="no"?>
<!-- Created with Inkscape (http://www.inkscape.org/) -->

<svg
   width="250.03125mm"
   height="182.88698mm"
   viewBox="0 0 250.03124 182.88698"
   version="1.1"
   id="svg5"
   inkscape:export-filename="MDL.png"
   inkscape:export-xdpi="96"
   inkscape:export-ydpi="96"
   xml:space="preserve"
   inkscape:version="1.2.2 (b0a8486541, 2022-12-01)"
   sodipodi:docname="ENC.svg"
   xmlns:inkscape="http://www.inkscape.org/namespaces/inkscape"
   xmlns:sodipodi="http://sodipodi.sourceforge.net/DTD/sodipodi-0.dtd"
   xmlns="http://www.w3.org/2000/svg"
   xmlns:svg="http://www.w3.org/2000/svg"><sodipodi:namedview
     id="namedview7"
     pagecolor="#ffffff"
     bordercolor="#000000"
     borderopacity="0.25"
     inkscape:showpageshadow="2"
     inkscape:pageopacity="0.0"
     inkscape:pagecheckerboard="0"
     inkscape:deskcolor="#d1d1d1"
     inkscape:document-units="mm"
     showgrid="false"
     inkscape:zoom="0.914906"
     inkscape:cx="338.83262"
     inkscape:cy="-70.499045"
     inkscape:window-width="1350"
     inkscape:window-height="1230"
     inkscape:window-x="179"
     inkscape:window-y="914"
     inkscape:window-maximized="0"
     inkscape:current-layer="layer1" /><defs
     id="defs2"><clipPath
       id="clip0"><rect
         x="-25"
         y="0"
         width="785"
         height="1091"
         id="rect9" /></clipPath><clipPath
       id="clip0-8"><rect
         x="-25"
         y="0"
         width="785"
         height="524"
         id="rect520" /></clipPath><clipPath
       id="clip0-3"><rect
         x="-25"
         y="0"
         width="785"
         height="1091"
         id="rect699" /></clipPath><clipPath
       id="clip0-0"><rect
         x="-25"
         y="0"
         width="785"
         height="1091"
         id="rect1109" /></clipPath><clipPath
       id="clip0-4"><rect
         x="-25"
         y="0"
         width="934"
         height="905"
         id="rect1519" /></clipPath><clipPath
       id="clip0-42"><rect
         x="-7"
         y="0"
         width="952"
         height="590"
         id="rect1929" /></clipPath><clipPath
       id="clip0-1"><rect
         x="-25"
         y="0"
         width="785"
         height="1091"
         id="rect2197" /></clipPath><clipPath
       id="clip0-6"><rect
         x="-25"
         y="0"
         width="785"
         height="1091"
         id="rect2806" /></clipPath><clipPath
       id="clip0-66"><rect
         x="11"
         y="-21"
         width="934"
         height="904"
         id="rect3369" /></clipPath><clipPath
       id="clip0-41"><rect
         x="-7"
         y="0"
         width="743"
         height="335"
         id="rect3934" /></clipPath><clipPath
       id="clip0-7"><rect
         x="-7"
         y="0"
         width="743"
         height="335"
         id="rect4109" /></clipPath><clipPath
       id="clip0-9"><rect
         x="-25"
         y="0"
         width="785"
         height="524"
         id="rect4320" /></clipPath><clipPath
       id="clip0-96"><rect
         x="-25"
         y="0"
         width="785"
         height="713"
         id="rect4583" /></clipPath><clipPath
       id="clip0-08"><rect
         x="144"
         y="424"
         width="837"
         height="501"
         id="rect4932" /></clipPath><clipPath
       id="clip0-87"><rect
         x="144"
         y="424"
         width="837"
         height="501"
         id="rect5261" /></clipPath><clipPath
       id="clip0-68"><rect
         x="201"
         y="68"
         width="837"
         height="501"
         id="rect5590" /></clipPath><clipPath
       id="clip0-69"><rect
         x="212"
         y="141"
         width="635"
         height="281"
         id="rect6057" /></clipPath><clipPath
       id="clip0-44"><rect
         x="75"
         y="7"
         width="780"
         height="757"
         id="rect6214" /></clipPath><clipPath
       id="clip0-38"><rect
         x="75"
         y="8"
         width="780"
         height="752"
         id="rect6713" /></clipPath><clipPath
       id="clip0-080"><rect
         x="62"
         y="92"
         width="671"
         height="543"
         id="rect7166" /></clipPath><clipPath
       id="clip0-48"><rect
         x="678"
         y="67"
         width="591"
         height="294"
         id="rect7433" /></clipPath><clipPath
       id="clip0-00"><rect
         x="-7"
         y="0"
         width="952"
         height="574"
         id="rect7818" /></clipPath><clipPath
       id="clip0-2"><rect
         x="-7"
         y="0"
         width="952"
         height="543"
         id="rect8173" /></clipPath><clipPath
       id="clip0-09"><rect
         x="-7"
         y="0"
         width="952"
         height="612"
         id="rect8510" /></clipPath><clipPath
       id="clip0-99"><rect
         x="-7"
         y="0"
         width="952"
         height="659"
         id="rect8897" /></clipPath><clipPath
       id="clip0-31"><rect
         x="-7"
         y="0"
         width="952"
         height="653"
         id="rect9282" /></clipPath><clipPath
       id="clip0-5"><rect
         x="-7"
         y="0"
         width="952"
         height="697"
         id="rect9673" /></clipPath><clipPath
       id="clip0-24"><rect
         x="-7"
         y="0"
         width="952"
         height="826"
         id="rect10090" /></clipPath><clipPath
       id="clip0-46"><rect
         x="-7"
         y="0"
         width="952"
         height="612"
         id="rect10541" /></clipPath><clipPath
       id="clip0-461"><rect
         x="-7"
         y="0"
         width="952"
         height="769"
         id="rect10914" /></clipPath><clipPath
       id="clip0-80"><rect
         x="-7"
         y="0"
         width="952"
         height="653"
         id="rect11389" /></clipPath><clipPath
       id="clip0-14"><rect
         x="-7"
         y="0"
         width="952"
         height="706"
         id="rect11774" /></clipPath></defs><g
     inkscape:label="Layer 1"
     inkscape:groupmode="layer"
     id="layer1"
     transform="translate(-13.578297,-258.87042)"><g
       clip-path="url(#clip0-14)"
       transform="matrix(0.26458333,0,0,0.26458333,13.578297,256.59317)"
       id="g11933"><text
         fill="#7d3368"
         font-family="Calibri, Calibri_MSFontService, sans-serif"
         font-weight="400"
         font-size="15px"
         transform="translate(317.1,19)"
         id="text11783">Cryptographic Store and Transfer (_CRY) BF Cluster<tspan
   fill="#000000"
   font-size="15px"
   x="75.746696"
   y="35"
   id="tspan11779">Encryption (ENC) BF Class</tspan><tspan
   fill="#000000"
   font-size="15px"
   x="-183.953"
   y="63"
   id="tspan11781">Causes</tspan></text><path
         d="M 0,108.5 C 0,102.701 4.70116,98 10.5003,98 H 304.5 c 5.799,0 10.5,4.701 10.5,10.5 v 42 c 0,5.799 -4.701,10.5 -10.5,10.5 H 10.5003 C 4.70116,161 0,156.299 0,150.5 Z"
         fill="#e8effc"
         fill-rule="evenodd"
         id="path11785" /><text
         fill="#7d3368"
         font-family="Calibri, Calibri_MSFontService, sans-serif"
         font-weight="400"
         font-size="15px"
         transform="translate(5.1748,116)"
         id="text11791">Code Defect Bug<tspan
   fill="#000000"
   font-size="15px"
   x="218.16701"
   y="17"
   id="tspan11787">Missing Code</tspan><tspan
   fill="#000000"
   font-size="15px"
   x="202"
   y="35"
   id="tspan11789">Erroneous Code</tspan></text><path
         d="m 0.0151359,-0.332989 9.6250041,0.4375 4.45506,0.438764 4.0188,0.627385 3.3287,0.69046 2.6559,0.82045 c 0.0189,0.00586 0.0373,0.01339 0.0548,0.02251 l 1.6875,0.875 c 0.0517,0.02681 0.0955,0.06669 0.127,0.11567 l 0.5625,0.875 0.5625,0.875 -0.127,-0.11567 1.6875,0.875 -0.0548,-0.02251 2.625,0.8125 3.2816,0.67955 3.9838,0.62204 4.4187,0.43511 2.9378,0.11744 L 45.8188,9.51434 42.8423,9.39422 38.386,8.95434 34.3698,8.32638 31.0264,7.63093 28.4014,6.81843 C 28.3825,6.81257 28.3641,6.80504 28.3466,6.79592 l -1.6875,-0.875 C 26.6074,5.89411 26.5636,5.85423 26.5321,5.80525 l -0.5625,-0.875 -0.5625,-0.875 0.127,0.11567 -1.6875,-0.875 0.0548,0.02251 L 21.3073,2.51388 18.011,1.82934 14.0298,1.20673 9.60986,0.770489 -0.0151359,0.332989 Z M 44.6604,5.13098 l 7.833,4.31784 -8.154,3.67568 z"
         transform="matrix(1,0,0,-1,315.5,129.949)"
         id="path11793" /><path
         d="M 0,196 C 0,184.954 8.95444,176 20.0003,176 H 295 c 11.046,0 20,8.954 20,20 v 80 c 0,11.046 -8.954,20 -20,20 H 20.0003 C 8.95444,296 0,287.046 0,276 Z"
         fill="#e8effc"
         fill-rule="evenodd"
         id="path11795" /><text
         fill="#7d3368"
         font-family="Calibri, Calibri_MSFontService, sans-serif"
         font-weight="400"
         font-size="15px"
         transform="translate(7.94226,197)"
         id="text11807">Specification Defect Bug<tspan
   fill="#000000"
   font-size="15px"
   x="161.33299"
   y="17"
   id="tspan11797">Inadequate Algorithm</tspan><tspan
   fill="#000000"
   font-size="15px"
   x="195.16701"
   y="35"
   id="tspan11799">Weak Algorithm</tspan><tspan
   fill="#000000"
   font-size="15px"
   x="150.66701"
   y="53"
   id="tspan11801">Risky/Broken Algorithm</tspan><tspan
   fill="#000000"
   font-size="15px"
   x="175.16701"
   y="70"
   id="tspan11803">Modified Algorithm</tspan><tspan
   fill="#000000"
   font-size="15px"
   x="204.16701"
   y="88"
   id="tspan11805">Weak Protocol</tspan></text><path
         d="M 0.0423881,-0.330627 2.47989,-0.0181272 c 0.02889,0.0037042 0.05718,0.01118128 0.08413,0.02223766 L 5.00152,1.00411 c 0.01859,0.00763 0.03645,0.01692 0.05337,0.02776 l 2.4375,1.5625 c 0.0162,0.01039 0.03148,0.02217 0.04565,0.03519 l 2.3125,2.125 2.28006,2.71896 2.2031,3.08278 2.0798,3.5892 1.9481,3.9573 3.3254,8.8424 2.6351,9.9067 1.6945,10.5327 0.5663,10.9107 0.5625,10.875 1.6837,10.4643 2.618,9.8423 3.3024,8.7808 1.9236,3.8433 2.0529,3.544 2.1721,3.101 2.23,2.6 -0.0564,-0.053 3.4259,2.504 -0.3934,0.538 -3.4259,-2.503 c -0.0207,-0.016 -0.0397,-0.033 -0.0564,-0.053 l -2.27,-2.65 -2.2029,-3.149 -2.0721,-3.581 -1.9514,-3.9067 -3.3226,-8.8442 -2.632,-9.9077 L 26.4796,69.2047 25.9171,58.3297 25.3584,47.4904 23.6779,37.0231 21.063,27.1798 17.7634,18.3972 15.8365,14.4795 13.7913,10.9437 11.6194,7.90148 9.39946,5.24544 7.08696,3.12044 7.13261,3.15563 4.69511,1.59313 4.74848,1.62089 2.31098,0.620889 2.39511,0.643127 -0.0423881,0.330627 Z M 46.5438,109.857 l 5.9496,6.678 -8.9125,0.753 z"
         transform="matrix(1,0,0,-1,315.5,237.035)"
         id="path11809" /><path
         d="M 0,341.334 C 0,325.133 13.1332,312 29.3339,312 H 285.666 C 301.867,312 315,325.133 315,341.334 V 458.666 C 315,474.867 301.867,488 285.666,488 H 29.3339 C 13.1332,488 0,474.867 0,458.666 Z"
         fill="#f4f2f8"
         fill-rule="evenodd"
         id="path11811" /><text
         fill="#7d3368"
         font-family="Calibri, Calibri_MSFontService, sans-serif"
         font-weight="400"
         font-size="15px"
         transform="translate(10.7098,335)"
         id="text11829">Data Fault<tspan
   fill="#000000"
   font-size="15px"
   x="183"
   y="17"
   id="tspan11813">Weak Cyphertext</tspan><tspan
   fill="#000000"
   font-size="15px"
   x="192.5"
   y="35"
   id="tspan11815">Unverified Data</tspan><tspan
   fill="#000000"
   font-size="15px"
   x="195.5"
   y="53"
   id="tspan11817">Hardcoded Key</tspan><tspan
   fill="#000000"
   font-size="15px"
   x="227"
   y="70"
   id="tspan11819">Weak Key</tspan><tspan
   fill="#000000"
   font-size="15px"
   x="155.33299"
   y="88"
   id="tspan11821">Weak Keying Material</tspan><tspan
   fill="#000000"
   font-size="15px"
   x="211.16701"
   y="105"
   id="tspan11823">Random Bits</tspan><tspan
   fill="#000000"
   font-size="15px"
   x="213.5"
   y="123"
   id="tspan11825">Repeated IV</tspan><tspan
   fill="#000000"
   font-size="15px"
   x="198"
   y="141"
   id="tspan11827">Shared Secrets</tspan></text><path
         d="m 0.0494468,-0.329645 1.2500032,0.1875 c 0.03696,0.005544 0.07273,0.017265 0.1058,0.034672 l 1.1875,0.625 C 2.61146,0.527378 2.62922,0.538998 2.64573,0.55221 l 1.25,1 c 0.01393,0.01114 0.02698,0.02342 0.03895,0.03665 l 1.1875,1.3125 C 5.1346,2.91509 5.14587,2.92985 5.15584,2.94545 l 2.4375,3.8125 C 7.60203,6.77154 7.6097,6.78569 7.61633,6.8004 l 2.3125,5.125 2.26017,6.3377 2.1935,7.5186 2.0664,8.5147 1.9401,9.4491 1.7521,10.2609 1.5639,11.0092 1.4383,11.5683 1.1884,12.0709 0.9382,12.5702 0.7504,12.818 0.563,26.137 0.5625,26.125 0.7495,12.801 0.9371,12.494 1.1868,12.117 1.4366,11.554 1.5617,10.995 1.7486,10.24 1.9354,9.427 2.0599,8.488 2.1836,7.486 2.244,6.294 2.3023,5.099 -0.0465,-0.074 2.1668,2.63 -0.5146,0.424 -2.1668,-2.631 c -0.0188,-0.022 -0.0344,-0.048 -0.0465,-0.074 l -2.3227,-5.151 -2.256,-6.331 -2.1914,-7.514 -2.0651,-8.512 -1.9396,-9.448 -1.7514,-10.26 L 30.7942,215.354 29.3558,203.782 28.1676,191.65 27.2297,179.144 26.4792,166.32 25.9167,140.195 25.3547,114.082 24.6051,101.275 23.6683,88.7202 22.4817,76.6661 21.045,65.1094 19.4839,54.1186 17.736,43.8795 15.8011,34.4536 13.7425,25.9683 11.561,18.4869 9.32116,12.1996 l -2.3125,-5.125 0.023,0.04245 -2.4375,-3.8125 0.03366,0.04409 -1.1875,-1.3125 0.03895,0.03665 -1.25,-1 0.05298,0.03468 -1.1875,-0.624997 0.1058,0.034672 -1.2499968,-0.1875 z M 48.8745,272.136 l 3.6189,8.179 -8.7149,-2.013 z"
         transform="matrix(1,0,0,-1,315.5,400.815)"
         id="path11831" /><text
         font-family="Calibri, Calibri_MSFontService, sans-serif"
         font-weight="400"
         font-size="15px"
         transform="translate(740.818,82)"
         id="text11833">Consequences</text><path
         d="M 630,111.667 C 630,104.119 636.119,98 643.667,98 h 287.666 c 7.548,0 13.667,6.119 13.667,13.667 v 54.666 C 945,173.881 938.881,180 931.333,180 H 643.667 C 636.119,180 630,173.881 630,166.333 Z"
         fill="#f4f2f8"
         fill-rule="evenodd"
         id="path11835" /><text
         fill="#7d3368"
         font-family="Calibri, Calibri_MSFontService, sans-serif"
         font-weight="400"
         font-size="15px"
         transform="translate(636.018,117)"
         id="text11843">Data Error<tspan
   fill="#000000"
   font-size="15px"
   x="203"
   y="17"
   id="tspan11837">Corrupted Data</tspan><tspan
   fill="#000000"
   font-size="15px"
   x="189.66701"
   y="35"
   id="tspan11839">Meaningless Data</tspan><tspan
   fill="#000000"
   font-size="15px"
   x="192.16701"
   y="53"
   id="tspan11841">Weak Cyphertext</tspan></text><path
         d="m 577.513,120.167 4.875,0.187 4.781,0.628 4.462,0.942 4.031,1.258 3.346,1.45 2.663,1.582 c 0.025,0.015 0.048,0.033 0.069,0.055 l 1.687,1.75 c 0.036,0.036 0.062,0.081 0.078,0.129 l 0.562,1.75 0.563,1.75 -0.082,-0.134 1.688,1.688 -0.06,-0.048 2.625,1.625 -0.043,-0.022 3.312,1.437 3.962,1.174 4.412,0.931 2.933,0.303 -0.068,0.663 -3.003,-0.314 -4.463,-0.944 -4.038,-1.201 -3.313,-1.438 c -0.014,-0.006 -0.029,-0.014 -0.042,-0.022 l -2.625,-1.625 c -0.022,-0.014 -0.042,-0.03 -0.061,-0.048 l -1.687,-1.687 c -0.038,-0.038 -0.066,-0.084 -0.082,-0.134 l -0.562,-1.75 -0.563,-1.75 0.078,0.129 -1.688,-1.75 0.07,0.055 -2.588,-1.543 -3.279,-1.425 -3.969,-1.242 -4.412,-0.933 -4.72,-0.622 -4.875,-0.188 z m 44.779,14.683 7.701,4.548 -8.259,3.433 z"
         id="path11845" /><path
         d="m 630,205.5 c 0,-5.799 4.701,-10.5 10.5,-10.5 h 294 c 5.799,0 10.5,4.701 10.5,10.5 v 42 c 0,5.799 -4.701,10.5 -10.5,10.5 h -294 c -5.799,0 -10.5,-4.701 -10.5,-10.5 z"
         fill="#dfdaea"
         fill-rule="evenodd"
         id="path11847" /><text
         fill="#7d3368"
         font-family="Calibri, Calibri_MSFontService, sans-serif"
         font-weight="400"
         font-size="15px"
         transform="translate(635.096,213)"
         id="text11853">Data Security Final Error<tspan
   fill="#000000"
   font-size="15px"
   x="186.83299"
   y="17"
   id="tspan11849">Revealed Plaintext</tspan><tspan
   fill="#000000"
   font-size="15px"
   x="217.33299"
   y="35"
   id="tspan11851">Revealed Key</tspan></text><path
         d="m 577.542,120.169 2.438,0.313 c 0.024,0.003 0.047,0.009 0.07,0.017 l 2.438,0.875 c 0.019,0.007 0.038,0.016 0.056,0.026 l 2.438,1.438 c 0.017,0.01 0.033,0.022 0.049,0.035 l 2.312,2 2.277,2.463 2.206,2.834 2.08,3.276 1.951,3.647 3.327,8.156 2.636,9.096 1.696,9.66 0.567,10.039 0.562,10 1.683,9.649 2.617,9.027 3.301,8.028 1.923,3.595 2.05,3.228 2.171,2.852 2.227,2.348 -0.055,-0.047 3.362,2.286 -0.375,0.551 -3.361,-2.285 c -0.02,-0.014 -0.038,-0.029 -0.055,-0.047 l -2.273,-2.402 -2.204,-2.898 -2.075,-3.272 -1.952,-3.655 -3.324,-8.097 -2.633,-9.098 -1.692,-9.726 -0.563,-10 -0.558,-9.961 -1.679,-9.59 -2.614,-9.029 -3.297,-8.094 -1.925,-3.603 -2.045,-3.224 -2.169,-2.791 -2.223,-2.412 -2.313,-2 0.049,0.035 -2.437,-1.437 0.056,0.026 -2.437,-0.875 0.07,0.017 -2.437,-0.312 z m 46.324,100.902 6.127,6.516 -8.889,0.992 z"
         id="path11855" /><text
         font-family="Calibri, Calibri_MSFontService, sans-serif"
         font-weight="400"
         font-size="15px"
         transform="translate(435.691,82)"
         id="text11857">Operations</text><rect
         x="367.5"
         y="98.500099"
         width="210"
         height="44"
         stroke="#000000"
         stroke-width="0.666667"
         stroke-linejoin="round"
         stroke-miterlimit="10"
         fill="none"
         id="rect11859" /><text
         font-family="Calibri, Calibri_MSFontService, sans-serif"
         font-weight="400"
         font-size="15px"
         transform="translate(446.021,116)"
         id="text11865">Encrypt<tspan
   font-size="15px"
   x="-0.746674"
   y="17"
   id="tspan11861">Decrypt</tspan><tspan
   font-size="15px"
   x="-6.2466698"
   y="60"
   id="tspan11863">Operands</tspan></text><rect
         x="367.5"
         y="192.5"
         width="210"
         height="25"
         stroke="#000000"
         stroke-width="0.666667"
         stroke-linejoin="round"
         stroke-miterlimit="10"
         fill="none"
         id="rect11867" /><text
         font-family="Calibri, Calibri_MSFontService, sans-serif"
         font-weight="400"
         font-size="15px"
         transform="translate(454.774,211)"
         id="text11915">Data<tspan
   font-size="15px"
   x="-16"
   y="312"
   id="tspan11869">Attributes</tspan><tspan
   fill="#7d3368"
   font-size="15px"
   x="-452.67401"
   y="346"
   id="tspan11871">Mechanism</tspan><tspan
   font-size="15px"
   x="-431.67401"
   y="363"
   id="tspan11873">Symmetric Algorithm</tspan><tspan
   font-size="15px"
   x="-431.67401"
   y="381"
   id="tspan11875">Asymmetric</tspan><tspan
   font-size="15px"
   x="-431.67401"
   y="399"
   id="tspan11877">Algorithm</tspan><tspan
   fill="#7d3368"
   font-size="15px"
   x="-257.39899"
   y="346"
   id="tspan11879">Source Code</tspan><tspan
   font-size="15px"
   x="-236.399"
   y="363"
   id="tspan11881">Codebase</tspan><tspan
   font-size="15px"
   x="-236.399"
   y="381"
   id="tspan11883">Third</tspan>-Party<tspan
   font-size="15px"
   x="-236.399"
   y="399"
   id="tspan11885">Standard Library</tspan><tspan
   font-size="15px"
   x="-236.399"
   y="416"
   id="tspan11887">Compiler/Interpreter</tspan><tspan
   fill="#7d3368"
   font-size="15px"
   x="-62.123199"
   y="346"
   id="tspan11889">Execution Space</tspan><tspan
   font-size="15px"
   x="-41.123199"
   y="363"
   id="tspan11891">Userland</tspan><tspan
   font-size="15px"
   x="-41.123199"
   y="381"
   id="tspan11893">Kernel</tspan><tspan
   font-size="15px"
   x="-41.123199"
   y="399"
   id="tspan11895">Bare</tspan><tspan
   font-size="15px"
   x="-13.6232"
   y="399"
   id="tspan11897">-</tspan>Metal<tspan
   fill="#7d3368"
   font-size="15px"
   x="133.15199"
   y="346"
   id="tspan11899">Data Kind</tspan><tspan
   font-size="15px"
   x="154.15199"
   y="363"
   id="tspan11901">Secret</tspan><tspan
   font-size="15px"
   x="154.15199"
   y="381"
   id="tspan11903">Private</tspan><tspan
   font-size="15px"
   x="154.15199"
   y="399"
   id="tspan11905">Public</tspan><tspan
   fill="#7d3368"
   font-size="15px"
   x="328.42801"
   y="346"
   id="tspan11907">Data State</tspan><tspan
   font-size="15px"
   x="349.42801"
   y="363"
   id="tspan11909">Stored</tspan><tspan
   font-size="15px"
   x="349.42801"
   y="381"
   id="tspan11911">Transferred</tspan><tspan
   font-size="15px"
   x="349.42801"
   y="399"
   id="tspan11913">In Use</tspan></text><path
         d="M 0,678.167 C 0,675.866 1.86552,674 4.16675,674 H 37.8333 C 40.1345,674 42,675.866 42,678.167 v 16.666 C 42,697.134 40.1345,699 37.8333,699 H 4.16675 C 1.86552,699 0,697.134 0,694.833 Z"
         fill="#e8effc"
         fill-rule="evenodd"
         id="path11917" /><text
         font-family="Calibri, Calibri_MSFontService, sans-serif"
         font-weight="400"
         font-size="15px"
         transform="translate(44.0945,693)"
         id="text11919">Bug</text><path
         d="m 236,678.167 c 0,-2.301 1.866,-4.167 4.167,-4.167 h 33.666 c 2.301,0 4.167,1.866 4.167,4.167 v 16.666 c 0,2.301 -1.866,4.167 -4.167,4.167 H 240.167 C 237.866,699 236,697.134 236,694.833 Z"
         fill="#f4f2f8"
         fill-rule="evenodd"
         id="path11921" /><text
         font-family="Calibri, Calibri_MSFontService, sans-serif"
         font-weight="400"
         font-size="15px"
         transform="translate(280.315,693)"
         id="text11923">Fault/Error</text><path
         d="m 472,678.167 c 0,-2.301 1.866,-4.167 4.167,-4.167 h 33.666 c 2.301,0 4.167,1.866 4.167,4.167 v 16.666 c 0,2.301 -1.866,4.167 -4.167,4.167 H 476.167 C 473.866,699 472,697.134 472,694.833 Z"
         fill="#dfdaea"
         fill-rule="evenodd"
         id="path11925" /><text
         font-family="Calibri, Calibri_MSFontService, sans-serif"
         font-weight="400"
         font-size="15px"
         transform="translate(516.535,693)"
         id="text11927">Final Error</text><rect
         x="709.5"
         y="674.5"
         width="42"
         height="25"
         stroke="#000000"
         stroke-width="0.666667"
         stroke-linejoin="round"
         stroke-miterlimit="10"
         fill="none"
         id="rect11929" /><text
         font-family="Calibri, Calibri_MSFontService, sans-serif"
         font-weight="400"
         font-size="15px"
         transform="translate(752.756,693)"
         id="text11931">Operation/Operand</text></g></g></svg>
