<?xml version="1.0" encoding="UTF-8" standalone="no"?>
<!-- Created with Inkscape (http://www.inkscape.org/) -->

<svg
   width="250.03125mm"
   height="147.96199mm"
   viewBox="0 0 250.03124 147.96199"
   version="1.1"
   id="svg5"
   inkscape:export-filename="VRF.png"
   inkscape:export-xdpi="96"
   inkscape:export-ydpi="96"
   xml:space="preserve"
   inkscape:version="1.2.2 (b0a8486541, 2022-12-01)"
   sodipodi:docname="KMN.svg"
   xmlns:inkscape="http://www.inkscape.org/namespaces/inkscape"
   xmlns:sodipodi="http://sodipodi.sourceforge.net/DTD/sodipodi-0.dtd"
   xmlns="http://www.w3.org/2000/svg"
   xmlns:svg="http://www.w3.org/2000/svg"><sodipodi:namedview
     id="namedview7"
     pagecolor="#ffffff"
     bordercolor="#000000"
     borderopacity="0.25"
     inkscape:showpageshadow="2"
     inkscape:pageopacity="0.0"
     inkscape:pagecheckerboard="0"
     inkscape:deskcolor="#d1d1d1"
     inkscape:document-units="mm"
     showgrid="false"
     inkscape:zoom="0.914906"
     inkscape:cx="361.7858"
     inkscape:cy="149.19565"
     inkscape:window-width="1350"
     inkscape:window-height="1230"
     inkscape:window-x="179"
     inkscape:window-y="914"
     inkscape:window-maximized="0"
     inkscape:current-layer="layer1" /><defs
     id="defs2"><clipPath
       id="clip0"><rect
         x="-25"
         y="0"
         width="785"
         height="1091"
         id="rect9" /></clipPath><clipPath
       id="clip0-8"><rect
         x="-25"
         y="0"
         width="785"
         height="524"
         id="rect520" /></clipPath><clipPath
       id="clip0-3"><rect
         x="-25"
         y="0"
         width="785"
         height="1091"
         id="rect699" /></clipPath><clipPath
       id="clip0-0"><rect
         x="-25"
         y="0"
         width="785"
         height="1091"
         id="rect1109" /></clipPath><clipPath
       id="clip0-4"><rect
         x="-25"
         y="0"
         width="934"
         height="905"
         id="rect1519" /></clipPath><clipPath
       id="clip0-42"><rect
         x="-7"
         y="0"
         width="952"
         height="590"
         id="rect1929" /></clipPath><clipPath
       id="clip0-1"><rect
         x="-25"
         y="0"
         width="785"
         height="1091"
         id="rect2197" /></clipPath><clipPath
       id="clip0-6"><rect
         x="-25"
         y="0"
         width="785"
         height="1091"
         id="rect2806" /></clipPath><clipPath
       id="clip0-66"><rect
         x="11"
         y="-21"
         width="934"
         height="904"
         id="rect3369" /></clipPath><clipPath
       id="clip0-41"><rect
         x="-7"
         y="0"
         width="743"
         height="335"
         id="rect3934" /></clipPath><clipPath
       id="clip0-7"><rect
         x="-7"
         y="0"
         width="743"
         height="335"
         id="rect4109" /></clipPath><clipPath
       id="clip0-9"><rect
         x="-25"
         y="0"
         width="785"
         height="524"
         id="rect4320" /></clipPath><clipPath
       id="clip0-96"><rect
         x="-25"
         y="0"
         width="785"
         height="713"
         id="rect4583" /></clipPath><clipPath
       id="clip0-08"><rect
         x="144"
         y="424"
         width="837"
         height="501"
         id="rect4932" /></clipPath><clipPath
       id="clip0-87"><rect
         x="144"
         y="424"
         width="837"
         height="501"
         id="rect5261" /></clipPath><clipPath
       id="clip0-68"><rect
         x="201"
         y="68"
         width="837"
         height="501"
         id="rect5590" /></clipPath><clipPath
       id="clip0-69"><rect
         x="212"
         y="141"
         width="635"
         height="281"
         id="rect6057" /></clipPath><clipPath
       id="clip0-44"><rect
         x="75"
         y="7"
         width="780"
         height="757"
         id="rect6214" /></clipPath><clipPath
       id="clip0-38"><rect
         x="75"
         y="8"
         width="780"
         height="752"
         id="rect6713" /></clipPath><clipPath
       id="clip0-080"><rect
         x="62"
         y="92"
         width="671"
         height="543"
         id="rect7166" /></clipPath><clipPath
       id="clip0-48"><rect
         x="678"
         y="67"
         width="591"
         height="294"
         id="rect7433" /></clipPath><clipPath
       id="clip0-00"><rect
         x="-7"
         y="0"
         width="952"
         height="574"
         id="rect7818" /></clipPath><clipPath
       id="clip0-2"><rect
         x="-7"
         y="0"
         width="952"
         height="543"
         id="rect8173" /></clipPath><clipPath
       id="clip0-09"><rect
         x="-7"
         y="0"
         width="952"
         height="612"
         id="rect8510" /></clipPath><clipPath
       id="clip0-99"><rect
         x="-7"
         y="0"
         width="952"
         height="659"
         id="rect8897" /></clipPath><clipPath
       id="clip0-31"><rect
         x="-7"
         y="0"
         width="952"
         height="653"
         id="rect9282" /></clipPath><clipPath
       id="clip0-5"><rect
         x="-7"
         y="0"
         width="952"
         height="697"
         id="rect9673" /></clipPath><clipPath
       id="clip0-24"><rect
         x="-7"
         y="0"
         width="952"
         height="826"
         id="rect10090" /></clipPath><clipPath
       id="clip0-46"><rect
         x="-7"
         y="0"
         width="952"
         height="612"
         id="rect10541" /></clipPath><clipPath
       id="clip0-461"><rect
         x="-7"
         y="0"
         width="952"
         height="769"
         id="rect10914" /></clipPath><clipPath
       id="clip0-80"><rect
         x="-7"
         y="0"
         width="952"
         height="653"
         id="rect11389" /></clipPath><clipPath
       id="clip0-14"><rect
         x="-7"
         y="0"
         width="952"
         height="706"
         id="rect11774" /></clipPath><clipPath
       id="clip0-76"><rect
         x="-7"
         y="0"
         width="952"
         height="502"
         id="rect12165" /></clipPath><clipPath
       id="clip0-93"><rect
         x="-7"
         y="0"
         width="952"
         height="574"
         id="rect12514" /></clipPath></defs><g
     inkscape:label="Layer 1"
     inkscape:groupmode="layer"
     id="layer1"
     transform="translate(-7.335755,-200.67186)"><g
       clip-path="url(#clip0-93)"
       transform="matrix(0.26458333,0,0,0.26458333,7.335755,198.39461)"
       id="g12665"><text
         fill="#7d3368"
         font-family="Calibri, Calibri_MSFontService, sans-serif"
         font-weight="400"
         font-size="15px"
         transform="translate(317.1,19)"
         id="text12523">Cryptographic Store and Transfer (_CRY) BF Cluster<tspan
   fill="#000000"
   font-size="15px"
   x="52.7467"
   y="35"
   id="tspan12519">Key Management (KMN) BF Class</tspan><tspan
   fill="#000000"
   font-size="15px"
   x="-183.953"
   y="63"
   id="tspan12521">Causes</tspan></text><path
         d="M 0,108.5 C 0,102.701 4.70116,98 10.5003,98 H 304.5 c 5.799,0 10.5,4.701 10.5,10.5 v 42 c 0,5.799 -4.701,10.5 -10.5,10.5 H 10.5003 C 4.70116,161 0,156.299 0,150.5 Z"
         fill="#e8effc"
         fill-rule="evenodd"
         id="path12525" /><text
         fill="#7d3368"
         font-family="Calibri, Calibri_MSFontService, sans-serif"
         font-weight="400"
         font-size="15px"
         transform="translate(5.1748,116)"
         id="text12531">Code Defect Bug<tspan
   fill="#000000"
   font-size="15px"
   x="218.16701"
   y="17"
   id="tspan12527">Missing Code</tspan><tspan
   fill="#000000"
   font-size="15px"
   x="202"
   y="35"
   id="tspan12529">Erroneous Code</tspan></text><path
         d="m 315.513,129.167 4.875,0.187 4.781,0.628 4.462,0.942 4.031,1.258 3.346,1.45 2.663,1.582 c 0.025,0.015 0.048,0.033 0.069,0.055 l 1.688,1.75 c 0.035,0.036 0.061,0.081 0.077,0.129 l 0.562,1.75 0.563,1.75 -0.082,-0.134 1.688,1.688 -0.06,-0.048 2.625,1.625 -0.043,-0.022 3.312,1.437 3.962,1.174 4.412,0.931 2.933,0.303 -0.068,0.663 -3.003,-0.314 -4.463,-0.944 -4.038,-1.201 -3.313,-1.438 c -0.014,-0.006 -0.029,-0.014 -0.042,-0.022 l -2.625,-1.625 c -0.022,-0.014 -0.042,-0.03 -0.061,-0.048 l -1.687,-1.687 c -0.038,-0.038 -0.066,-0.084 -0.082,-0.134 l -0.562,-1.75 -0.563,-1.75 0.078,0.129 -1.688,-1.75 0.07,0.055 -2.588,-1.543 -3.279,-1.425 -3.969,-1.242 -4.412,-0.933 -4.72,-0.622 -4.875,-0.188 z m 44.779,14.683 7.701,4.548 -8.259,3.433 z"
         id="path12533" /><path
         d="M 0,192.834 C 0,183.537 7.53673,176 16.8338,176 H 298.166 c 9.297,0 16.834,7.537 16.834,16.834 v 67.332 C 315,269.463 307.463,277 298.166,277 H 16.8338 C 7.53673,277 0,269.463 0,260.166 Z"
         fill="#e8effc"
         fill-rule="evenodd"
         id="path12535" /><text
         fill="#7d3368"
         font-family="Calibri, Calibri_MSFontService, sans-serif"
         font-weight="400"
         font-size="15px"
         transform="translate(7.01974,196)"
         id="text12545">Specification Defect Bug<tspan
   fill="#000000"
   font-size="15px"
   x="177"
   y="17"
   id="tspan12537">Modified Algorithm</tspan><tspan
   fill="#000000"
   font-size="15px"
   x="163.16701"
   y="35"
   id="tspan12539">Inadequate Algorithm</tspan><tspan
   fill="#000000"
   font-size="15px"
   x="197"
   y="53"
   id="tspan12541">Weak Algorithm</tspan><tspan
   fill="#000000"
   font-size="15px"
   x="152.5"
   y="70"
   id="tspan12543">Risky/Broken Algorithm</tspan></text><path
         d="M 0.0340096,-0.331594 2.47151,-0.0815938 c 0.01646,0.0016886 0.03275,0.0045951 0.04878,0.0087058 l 2.4375,0.625 c 0.01724,0.004419 0.03409,0.010213 0.0504,0.017323 L 7.4457,1.63193 C 7.46048,1.63838 7.47478,1.64589 7.48848,1.6544 l 2.3125,1.4375 c 0.01524,0.00948 0.02975,0.02022 0.04327,0.03202 l 4.43745,3.875 c 0.0155,0.01347 0.0296,0.02836 0.0423,0.04443 l 4,5.06245 c 0.0111,0.014 0.0209,0.0288 0.0296,0.0443 l 3.3125,5.9375 2.6442,6.7281 1.7014,7.1068 c 0.0041,0.0172 0.0068,0.0346 0.0082,0.0521 l 0.5625,7.375 0.5625,7.375 -0.0082,-0.0521 1.6875,7.0625 2.6111,6.6432 3.2933,5.8969 -0.0296,-0.0443 4,5.0625 -0.0423,-0.0444 4.4375,3.875 -0.0736,-0.0488 3.2022,1.555 -0.2912,0.5997 -3.2022,-1.5549 c -0.0266,-0.013 -0.0514,-0.0294 -0.0737,-0.0488 l -4.4375,-3.875 C 38.2028,71.7376 38.1886,71.7227 38.176,71.7066 l -4,-5.0625 C 34.1649,66.6302 34.1551,66.6154 34.1464,66.5999 L 30.8147,60.6218 28.1758,53.89 26.4883,46.8275 c -0.0041,-0.0172 -0.0068,-0.0346 -0.0082,-0.0522 l -0.5625,-7.375 -0.5625,-7.375 0.0082,0.0522 -1.6736,-7.0182 -2.6058,-6.6469 -3.3125,-5.9375 0.0296,0.0443 -4,-5.06255 0.0422,0.04443 -4.43745,-3.875 0.04327,0.03201 -2.3125,-1.4375 0.04278,0.02248 -2.4375,-1.0625 0.05041,0.01732 -2.4375,-0.625002 0.04878,0.008706 -2.4374996,-0.25 z M 45.8801,72.7182 l 6.6133,6.022 -8.7855,1.6774 z"
         transform="matrix(1,0,0,-1,315.5,227.24)"
         id="path12547" /><path
         d="M 0,303.5 C 0,297.701 4.70116,293 10.5003,293 H 304.5 c 5.799,0 10.5,4.701 10.5,10.5 v 42 c 0,5.799 -4.701,10.5 -10.5,10.5 H 10.5003 C 4.70116,356 0,351.299 0,345.5 Z"
         fill="#f4f2f8"
         fill-rule="evenodd"
         id="path12549" /><text
         fill="#7d3368"
         font-family="Calibri, Calibri_MSFontService, sans-serif"
         font-weight="400"
         font-size="15px"
         transform="translate(5.1748,311)"
         id="text12555">Data Fault<tspan
   fill="#000000"
   font-size="15px"
   x="238"
   y="17"
   id="tspan12551">Weak Key</tspan><tspan
   fill="#000000"
   font-size="15px"
   x="166.33299"
   y="35"
   id="tspan12553">Weak Keying Material</tspan></text><path
         d="m 0.0669814,-0.326534 2.4374986,0.5 C 2.5426,0.181286 2.57906,0.195718 2.6122,0.216114 L 5.0497,1.71611 c 0.02092,0.01288 0.04033,0.02801 0.05792,0.04515 l 2.4375,2.375 c 0.0136,0.01324 0.02604,0.02763 0.03719,0.043 l 2.3125,3.1875 2.27069,4.03234 2.1998,4.774 2.0704,5.3313 1.9437,5.9547 1.7548,6.4535 1.566,6.9517 1.4393,7.2584 1.1899,7.6385 1.6896,15.9537 0.5641,16.4612 0.5625,16.4379 1.6859,15.913 1.1854,7.609 1.4352,7.3 1.5606,6.928 1.7465,6.424 1.9327,5.921 2.0563,5.295 2.1796,4.732 2.2377,3.976 2.2918,3.155 -0.085,-0.082 1.5163,1.01 -0.3696,0.555 -1.5163,-1.01 c -0.033,-0.022 -0.0618,-0.05 -0.085,-0.082 l -2.3332,-3.22 -2.2623,-4.024 -2.1954,-4.768 -2.0687,-5.33 -1.9423,-5.954 -1.7535,-6.451 -1.5644,-6.947 -1.4398,-7.325 -1.1896,-7.641 -1.6891,-15.962 -0.5625,-16.4371 -0.5609,-16.4138 -1.6854,-15.9213 -1.1851,-7.6115 -1.4357,-7.2416 -1.559,-6.9233 -1.7452,-6.4215 -1.9313,-5.9203 -2.0546,-5.2937 -2.1752,-4.726 -2.22931,-3.96766 -2.3125,-3.1875 0.03719,0.043 -2.4375,-2.375 0.05792,0.04515 -2.4375,-1.500004 0.10772,0.042648 -2.4375014,-0.5 z M 47.529,168.938 l 4.9644,7.44 -8.9307,-0.493 z"
         transform="matrix(1,0,0,-1,315.5,324.878)"
         id="path12557" /><text
         font-family="Calibri, Calibri_MSFontService, sans-serif"
         font-weight="400"
         font-size="15px"
         transform="translate(740.818,82)"
         id="text12559">Consequences</text><path
         d="m 630,108.5 c 0,-5.799 4.701,-10.5 10.5,-10.5 h 294 c 5.799,0 10.5,4.701 10.5,10.5 v 42 c 0,5.799 -4.701,10.5 -10.5,10.5 h -294 c -5.799,0 -10.5,-4.701 -10.5,-10.5 z"
         fill="#f4f2f8"
         fill-rule="evenodd"
         id="path12561" /><text
         fill="#7d3368"
         font-family="Calibri, Calibri_MSFontService, sans-serif"
         font-weight="400"
         font-size="15px"
         transform="translate(635.096,116)"
         id="text12567">Data Error<tspan
   fill="#000000"
   font-size="15px"
   x="238"
   y="17"
   id="tspan12563">Weak Key</tspan><tspan
   fill="#000000"
   font-size="15px"
   x="166.33299"
   y="35"
   id="tspan12565">Weak Keying Material</tspan></text><path
         d="m 0.012811,-0.333087 4.874999,0.1875 4.78067,0.627602 4.46292,0.941855 4.0305,1.25797 3.3458,1.44988 2.6628,1.58185 c 0.0255,0.01518 0.0488,0.03369 0.0694,0.05505 l 1.6875,1.75 c 0.0354,0.03665 0.0619,0.08091 0.0774,0.12938 l 0.5625,1.75 0.5625,1.75 -0.0816,-0.1337 1.6875,1.6875 -0.0602,-0.0477 2.625,1.625 -0.0428,-0.0224 3.3125,1.4375 3.9622,1.1738 4.4115,0.9309 2.9335,0.3029 -0.0689,0.6631 -3.0024,-0.3138 -4.4635,-0.9441 -4.0378,-1.2012 -3.3125,-1.4375 c -0.0148,-0.0064 -0.0291,-0.0139 -0.0428,-0.0224 l -2.625,-1.625 c -0.0218,-0.0135 -0.042,-0.0295 -0.0602,-0.0477 L 26.5768,11.4857 C 26.5394,11.4483 26.5114,11.4024 26.4952,11.352 l -0.5625,-1.75 -0.5625,-1.75 0.0774,0.12938 -1.6875,-1.75 0.0694,0.05505 L 21.2423,4.74328 17.9631,3.31816 13.9936,2.07613 9.58151,1.14298 4.86219,0.520587 -0.012811,0.333087 Z M 44.7914,14.3502 l 7.702,4.5474 -8.2591,3.4332 z"
         transform="matrix(1,0,0,-1,577.5,148.398)"
         id="path12569" /><path
         d="m 630,186.5 c 0,-5.799 4.701,-10.5 10.5,-10.5 h 294 c 5.799,0 10.5,4.701 10.5,10.5 v 42 c 0,5.799 -4.701,10.5 -10.5,10.5 h -294 c -5.799,0 -10.5,-4.701 -10.5,-10.5 z"
         fill="#dfdaea"
         fill-rule="evenodd"
         id="path12571" /><text
         fill="#7d3368"
         font-family="Calibri, Calibri_MSFontService, sans-serif"
         font-weight="400"
         font-size="15px"
         transform="translate(635.096,195)"
         id="text12577">Data Security Final Error<tspan
   fill="#000000"
   font-size="15px"
   x="217.33299"
   y="17"
   id="tspan12573">Revealed Key</tspan><tspan
   fill="#000000"
   font-size="15px"
   x="145.66701"
   y="35"
   id="tspan12575">Revealed Keying Material</tspan></text><path
         d="m 577.547,148.17 4.875,0.687 c 0.026,0.004 0.051,0.011 0.075,0.02 l 4.75,1.875 c 0.023,0.009 0.045,0.021 0.065,0.034 l 4.437,3 c 0.016,0.011 0.03,0.022 0.044,0.035 l 4,3.813 c 0.014,0.013 0.026,0.028 0.038,0.043 l 3.312,4.5 c 0.011,0.014 0.02,0.029 0.028,0.045 l 2.625,5.062 c 0.009,0.018 0.017,0.036 0.022,0.055 l 1.688,5.437 c 0.007,0.022 0.011,0.043 0.013,0.066 l 0.563,5.562 0.562,5.563 -0.013,-0.066 1.687,5.438 -0.022,-0.055 2.625,5.063 -0.026,-0.043 3.312,4.563 -0.039,-0.046 4,3.813 -0.046,-0.037 4.437,2.938 -0.08,-0.039 3.124,1.022 -0.207,0.634 -3.125,-1.023 c -0.028,-0.009 -0.055,-0.022 -0.08,-0.039 l -4.437,-2.937 c -0.017,-0.011 -0.032,-0.023 -0.046,-0.037 l -4,-3.812 c -0.015,-0.014 -0.028,-0.029 -0.04,-0.046 l -3.313,-4.562 c -0.009,-0.014 -0.018,-0.028 -0.026,-0.043 l -2.625,-5.062 c -0.009,-0.018 -0.016,-0.036 -0.022,-0.055 l -1.688,-5.437 c -0.006,-0.021 -0.011,-0.043 -0.013,-0.065 l -0.563,-5.563 -0.562,-5.562 0.013,0.065 -1.687,-5.438 0.022,0.055 -2.625,-5.063 0.028,0.045 -3.313,-4.5 0.039,0.043 -4,-3.812 0.043,0.035 -4.438,-3 0.065,0.034 -4.75,-1.875 0.075,0.02 -4.875,-0.688 z m 45.558,54.467 6.888,5.706 -8.697,2.087 z"
         id="path12579" /><text
         font-family="Calibri, Calibri_MSFontService, sans-serif"
         font-weight="400"
         font-size="15px"
         transform="translate(435.691,82)"
         id="text12581">Operations</text><rect
         x="367.5"
         y="98.500099"
         width="210"
         height="100"
         stroke="#000000"
         stroke-width="0.666667"
         stroke-linejoin="round"
         stroke-miterlimit="10"
         fill="none"
         id="rect12583" /><text
         font-family="Calibri, Calibri_MSFontService, sans-serif"
         font-weight="400"
         font-size="15px"
         transform="translate(420.024,116)"
         id="text12595">Generate/Select<tspan
   font-size="15px"
   x="32.833302"
   y="17"
   id="tspan12585">Store</tspan><tspan
   font-size="15px"
   x="19.253401"
   y="35"
   id="tspan12587">Distribute</tspan><tspan
   font-size="15px"
   x="37.5"
   y="53"
   id="tspan12589">Use</tspan><tspan
   font-size="15px"
   x="25.5"
   y="70"
   id="tspan12591">Destroy</tspan><tspan
   font-size="15px"
   x="19.75"
   y="117"
   id="tspan12593">Operands</tspan></text><rect
         x="367.5"
         y="249.5"
         width="210"
         height="25"
         stroke="#000000"
         stroke-width="0.666667"
         stroke-linejoin="round"
         stroke-miterlimit="10"
         fill="none"
         id="rect12597" /><text
         font-family="Calibri, Calibri_MSFontService, sans-serif"
         font-weight="400"
         font-size="15px"
         transform="translate(454.774,268)"
         id="text12647">Data<tspan
   font-size="15px"
   x="-16"
   y="122"
   id="tspan12599">Attributes</tspan><tspan
   fill="#7d3368"
   font-size="15px"
   x="-452.67401"
   y="157"
   id="tspan12601">Mechanism</tspan><tspan
   font-size="15px"
   x="-431.67401"
   y="174"
   id="tspan12603">Hash + RND</tspan><tspan
   font-size="15px"
   x="-431.67401"
   y="192"
   id="tspan12605">MAC</tspan><tspan
   font-size="15px"
   x="-431.67401"
   y="210"
   id="tspan12607">Digital Signature</tspan><tspan
   fill="#7d3368"
   font-size="15px"
   x="-257.39899"
   y="157"
   id="tspan12609">Source Code</tspan><tspan
   font-size="15px"
   x="-236.399"
   y="174"
   id="tspan12611">Codebase</tspan><tspan
   font-size="15px"
   x="-236.399"
   y="192"
   id="tspan12613">Third</tspan>-Party<tspan
   font-size="15px"
   x="-236.399"
   y="210"
   id="tspan12615">Standard Library</tspan><tspan
   font-size="15px"
   x="-236.399"
   y="227"
   id="tspan12617">Compiler/Interpreter</tspan><tspan
   fill="#7d3368"
   font-size="15px"
   x="-62.123199"
   y="157"
   id="tspan12619">Execution Space</tspan><tspan
   font-size="15px"
   x="-41.123199"
   y="174"
   id="tspan12621">Userland</tspan><tspan
   font-size="15px"
   x="-41.123199"
   y="192"
   id="tspan12623">Kernel</tspan><tspan
   font-size="15px"
   x="-41.123199"
   y="210"
   id="tspan12625">Bare</tspan><tspan
   font-size="15px"
   x="-13.6232"
   y="210"
   id="tspan12627">-</tspan>Metal<tspan
   fill="#7d3368"
   font-size="15px"
   x="133.15199"
   y="157"
   id="tspan12629">Data Kind</tspan><tspan
   font-size="15px"
   x="154.15199"
   y="174"
   id="tspan12631">Hashes</tspan><tspan
   font-size="15px"
   x="154.15199"
   y="192"
   id="tspan12633">Keying Material</tspan><tspan
   font-size="15px"
   x="154.15199"
   y="210"
   id="tspan12635">Digital Certificate</tspan><tspan
   fill="#7d3368"
   font-size="15px"
   x="328.42801"
   y="157"
   id="tspan12637">Data State</tspan><tspan
   font-size="15px"
   x="349.42801"
   y="174"
   id="tspan12639">Entered</tspan><tspan
   font-size="15px"
   x="349.42801"
   y="192"
   id="tspan12641">Stored</tspan><tspan
   font-size="15px"
   x="349.42801"
   y="210"
   id="tspan12643">In Use</tspan><tspan
   font-size="15px"
   x="349.42801"
   y="227"
   id="tspan12645">Transferred</tspan></text><path
         d="M 0,546.167 C 0,543.866 1.86552,542 4.16675,542 H 37.8333 C 40.1345,542 42,543.866 42,546.167 v 16.666 C 42,565.134 40.1345,567 37.8333,567 H 4.16675 C 1.86552,567 0,565.134 0,562.833 Z"
         fill="#e8effc"
         fill-rule="evenodd"
         id="path12649" /><text
         font-family="Calibri, Calibri_MSFontService, sans-serif"
         font-weight="400"
         font-size="15px"
         transform="translate(44.0945,561)"
         id="text12651">Bug</text><path
         d="m 236,546.167 c 0,-2.301 1.866,-4.167 4.167,-4.167 h 33.666 c 2.301,0 4.167,1.866 4.167,4.167 v 16.666 c 0,2.301 -1.866,4.167 -4.167,4.167 H 240.167 C 237.866,567 236,565.134 236,562.833 Z"
         fill="#f4f2f8"
         fill-rule="evenodd"
         id="path12653" /><text
         font-family="Calibri, Calibri_MSFontService, sans-serif"
         font-weight="400"
         font-size="15px"
         transform="translate(280.315,561)"
         id="text12655">Fault/Error</text><path
         d="m 472,546.167 c 0,-2.301 1.866,-4.167 4.167,-4.167 h 33.666 c 2.301,0 4.167,1.866 4.167,4.167 v 16.666 c 0,2.301 -1.866,4.167 -4.167,4.167 H 476.167 C 473.866,567 472,565.134 472,562.833 Z"
         fill="#dfdaea"
         fill-rule="evenodd"
         id="path12657" /><text
         font-family="Calibri, Calibri_MSFontService, sans-serif"
         font-weight="400"
         font-size="15px"
         transform="translate(516.535,561)"
         id="text12659">Final Error</text><rect
         x="709.5"
         y="542.5"
         width="42"
         height="25"
         stroke="#000000"
         stroke-width="0.666667"
         stroke-linejoin="round"
         stroke-miterlimit="10"
         fill="none"
         id="rect12661" /><text
         font-family="Calibri, Calibri_MSFontService, sans-serif"
         font-weight="400"
         font-size="15px"
         transform="translate(752.756,561)"
         id="text12663">Operation/Operand</text></g></g></svg>
