<?xml version="1.0" encoding="UTF-8" standalone="no"?>
<!-- Created with Inkscape (http://www.inkscape.org/) -->

<svg
   width="250.03125mm"
   height="128.6474mm"
   viewBox="0 0 250.03124 128.6474"
   version="1.1"
   id="svg5"
   inkscape:export-filename="ENC.png"
   inkscape:export-xdpi="96"
   inkscape:export-ydpi="96"
   xml:space="preserve"
   inkscape:version="1.2.2 (b0a8486541, 2022-12-01)"
   sodipodi:docname="VRF.svg"
   xmlns:inkscape="http://www.inkscape.org/namespaces/inkscape"
   xmlns:sodipodi="http://sodipodi.sourceforge.net/DTD/sodipodi-0.dtd"
   xmlns="http://www.w3.org/2000/svg"
   xmlns:svg="http://www.w3.org/2000/svg"><sodipodi:namedview
     id="namedview7"
     pagecolor="#ffffff"
     bordercolor="#000000"
     borderopacity="0.25"
     inkscape:showpageshadow="2"
     inkscape:pageopacity="0.0"
     inkscape:pagecheckerboard="0"
     inkscape:deskcolor="#d1d1d1"
     inkscape:document-units="mm"
     showgrid="false"
     inkscape:zoom="0.914906"
     inkscape:cx="81.975634"
     inkscape:cy="79.243113"
     inkscape:window-width="1350"
     inkscape:window-height="1230"
     inkscape:window-x="179"
     inkscape:window-y="914"
     inkscape:window-maximized="0"
     inkscape:current-layer="layer1" /><defs
     id="defs2"><clipPath
       id="clip0"><rect
         x="-25"
         y="0"
         width="785"
         height="1091"
         id="rect9" /></clipPath><clipPath
       id="clip0-8"><rect
         x="-25"
         y="0"
         width="785"
         height="524"
         id="rect520" /></clipPath><clipPath
       id="clip0-3"><rect
         x="-25"
         y="0"
         width="785"
         height="1091"
         id="rect699" /></clipPath><clipPath
       id="clip0-0"><rect
         x="-25"
         y="0"
         width="785"
         height="1091"
         id="rect1109" /></clipPath><clipPath
       id="clip0-4"><rect
         x="-25"
         y="0"
         width="934"
         height="905"
         id="rect1519" /></clipPath><clipPath
       id="clip0-42"><rect
         x="-7"
         y="0"
         width="952"
         height="590"
         id="rect1929" /></clipPath><clipPath
       id="clip0-1"><rect
         x="-25"
         y="0"
         width="785"
         height="1091"
         id="rect2197" /></clipPath><clipPath
       id="clip0-6"><rect
         x="-25"
         y="0"
         width="785"
         height="1091"
         id="rect2806" /></clipPath><clipPath
       id="clip0-66"><rect
         x="11"
         y="-21"
         width="934"
         height="904"
         id="rect3369" /></clipPath><clipPath
       id="clip0-41"><rect
         x="-7"
         y="0"
         width="743"
         height="335"
         id="rect3934" /></clipPath><clipPath
       id="clip0-7"><rect
         x="-7"
         y="0"
         width="743"
         height="335"
         id="rect4109" /></clipPath><clipPath
       id="clip0-9"><rect
         x="-25"
         y="0"
         width="785"
         height="524"
         id="rect4320" /></clipPath><clipPath
       id="clip0-96"><rect
         x="-25"
         y="0"
         width="785"
         height="713"
         id="rect4583" /></clipPath><clipPath
       id="clip0-08"><rect
         x="144"
         y="424"
         width="837"
         height="501"
         id="rect4932" /></clipPath><clipPath
       id="clip0-87"><rect
         x="144"
         y="424"
         width="837"
         height="501"
         id="rect5261" /></clipPath><clipPath
       id="clip0-68"><rect
         x="201"
         y="68"
         width="837"
         height="501"
         id="rect5590" /></clipPath><clipPath
       id="clip0-69"><rect
         x="212"
         y="141"
         width="635"
         height="281"
         id="rect6057" /></clipPath><clipPath
       id="clip0-44"><rect
         x="75"
         y="7"
         width="780"
         height="757"
         id="rect6214" /></clipPath><clipPath
       id="clip0-38"><rect
         x="75"
         y="8"
         width="780"
         height="752"
         id="rect6713" /></clipPath><clipPath
       id="clip0-080"><rect
         x="62"
         y="92"
         width="671"
         height="543"
         id="rect7166" /></clipPath><clipPath
       id="clip0-48"><rect
         x="678"
         y="67"
         width="591"
         height="294"
         id="rect7433" /></clipPath><clipPath
       id="clip0-00"><rect
         x="-7"
         y="0"
         width="952"
         height="574"
         id="rect7818" /></clipPath><clipPath
       id="clip0-2"><rect
         x="-7"
         y="0"
         width="952"
         height="543"
         id="rect8173" /></clipPath><clipPath
       id="clip0-09"><rect
         x="-7"
         y="0"
         width="952"
         height="612"
         id="rect8510" /></clipPath><clipPath
       id="clip0-99"><rect
         x="-7"
         y="0"
         width="952"
         height="659"
         id="rect8897" /></clipPath><clipPath
       id="clip0-31"><rect
         x="-7"
         y="0"
         width="952"
         height="653"
         id="rect9282" /></clipPath><clipPath
       id="clip0-5"><rect
         x="-7"
         y="0"
         width="952"
         height="697"
         id="rect9673" /></clipPath><clipPath
       id="clip0-24"><rect
         x="-7"
         y="0"
         width="952"
         height="826"
         id="rect10090" /></clipPath><clipPath
       id="clip0-46"><rect
         x="-7"
         y="0"
         width="952"
         height="612"
         id="rect10541" /></clipPath><clipPath
       id="clip0-461"><rect
         x="-7"
         y="0"
         width="952"
         height="769"
         id="rect10914" /></clipPath><clipPath
       id="clip0-80"><rect
         x="-7"
         y="0"
         width="952"
         height="653"
         id="rect11389" /></clipPath><clipPath
       id="clip0-14"><rect
         x="-7"
         y="0"
         width="952"
         height="706"
         id="rect11774" /></clipPath><clipPath
       id="clip0-76"><rect
         x="-7"
         y="0"
         width="952"
         height="502"
         id="rect12165" /></clipPath></defs><g
     inkscape:label="Layer 1"
     inkscape:groupmode="layer"
     id="layer1"
     transform="translate(-81.453618,-219.12802)"><g
       clip-path="url(#clip0-76)"
       transform="matrix(0.26458333,0,0,0.26458333,81.453618,216.85077)"
       id="g12302"><text
         fill="#7d3368"
         font-family="Calibri, Calibri_MSFontService, sans-serif"
         font-weight="400"
         font-size="15px"
         transform="translate(317.1,19)"
         id="text12174">Cryptographic Store and Transfer (_CRY) BF Cluster<tspan
   fill="#000000"
   font-size="15px"
   x="74.166702"
   y="35"
   id="tspan12170">Verification (VRF) BF Class</tspan><tspan
   fill="#000000"
   font-size="15px"
   x="-183.953"
   y="63"
   id="tspan12172">Causes</tspan></text><path
         d="M 0,108.5 C 0,102.701 4.70116,98 10.5003,98 H 304.5 c 5.799,0 10.5,4.701 10.5,10.5 v 42 c 0,5.799 -4.701,10.5 -10.5,10.5 H 10.5003 C 4.70116,161 0,156.299 0,150.5 Z"
         fill="#e8effc"
         fill-rule="evenodd"
         id="path12176" /><text
         fill="#7d3368"
         font-family="Calibri, Calibri_MSFontService, sans-serif"
         font-weight="400"
         font-size="15px"
         transform="translate(5.1748,116)"
         id="text12182">Code Defect Bug<tspan
   fill="#000000"
   font-size="15px"
   x="218.16701"
   y="17"
   id="tspan12178">Missing Code</tspan><tspan
   fill="#000000"
   font-size="15px"
   x="202"
   y="35"
   id="tspan12180">Erroneous Code</tspan></text><path
         d="m 0.0151359,-0.332989 9.6250041,0.4375 4.45506,0.438764 4.0188,0.627385 3.3287,0.69046 2.6559,0.82045 c 0.0189,0.00586 0.0373,0.01339 0.0548,0.02251 l 1.6875,0.875 c 0.0517,0.02681 0.0955,0.06669 0.127,0.11567 l 0.5625,0.875 0.5625,0.875 -0.127,-0.11567 1.6875,0.875 -0.0548,-0.02251 2.625,0.8125 3.2816,0.67955 3.9838,0.62204 4.4187,0.43511 2.9378,0.11744 L 45.8188,9.51434 42.8423,9.39422 38.386,8.95434 34.3698,8.32638 31.0264,7.63093 28.4014,6.81843 C 28.3825,6.81257 28.3641,6.80504 28.3466,6.79592 l -1.6875,-0.875 C 26.6074,5.89411 26.5636,5.85423 26.5321,5.80525 l -0.5625,-0.875 -0.5625,-0.875 0.127,0.11567 -1.6875,-0.875 0.0548,0.02251 L 21.3073,2.51388 18.011,1.82934 14.0298,1.20673 9.60986,0.770489 -0.0151359,0.332989 Z M 44.6604,5.13098 l 7.833,4.31784 -8.154,3.67568 z"
         transform="matrix(1,0,0,-1,315.5,129.949)"
         id="path12184" /><path
         d="M 0,189.667 C 0,182.119 6.11887,176 13.6669,176 H 301.333 c 7.548,0 13.667,6.119 13.667,13.667 v 54.666 C 315,251.881 308.881,258 301.333,258 H 13.6669 C 6.11887,258 0,251.881 0,244.333 Z"
         fill="#f4f2f8"
         fill-rule="evenodd"
         id="path12186" /><text
         fill="#7d3368"
         font-family="Calibri, Calibri_MSFontService, sans-serif"
         font-weight="400"
         font-size="15px"
         transform="translate(6.09722,195)"
         id="text12194">Data Fault<tspan
   fill="#000000"
   font-size="15px"
   x="192.16701"
   y="17"
   id="tspan12188">Weak Cyphertext</tspan><tspan
   fill="#000000"
   font-size="15px"
   x="236.16701"
   y="35"
   id="tspan12190">Weak Key</tspan><tspan
   fill="#000000"
   font-size="15px"
   x="164.5"
   y="53"
   id="tspan12192">Weak Keying Material</tspan></text><path
         d="M 0.0340096,-0.331594 2.47151,-0.0815938 c 0.02684,0.0027524 0.05322,0.0087479 0.07861,0.0178623 L 4.98762,0.811268 C 5.00327,0.816885 5.0184,0.823628 5.03303,0.83151 l 2.4375,1.3125 C 7.48561,2.15213 7.5,2.16137 7.51365,2.1717 l 2.3125,1.75 2.28455,2.2801 2.2053,2.58178 4.0273,6.28672 c 0.009,0.0141 0.0169,0.0288 0.0237,0.0441 l 3.3125,7.4375 2.6381,8.2845 1.6973,8.8509 0.5678,9.1672 0.5625,9.125 1.6822,8.7703 2.6152,8.2116 3.299,7.3395 -0.0233,-0.0431 4,6.25 2.1602,2.5258 2.2322,2.2307 -0.0645,-0.0503 3.3101,1.9815 -0.3424,0.572 -3.3101,-1.9815 c -0.0235,-0.0141 -0.0452,-0.031 -0.0645,-0.0503 l -2.2678,-2.2693 -2.2148,-2.5992 -4,-6.25 C 34.1479,82.6034 34.1401,82.589 34.1334,82.5741 l -3.326,-7.4105 -2.6348,-8.2884 -1.6928,-8.8547 -0.5625,-9.125 -0.5572,-9.0828 -1.6777,-8.7741 -2.6119,-8.2155 -3.3125,-7.4375 0.0237,0.0441 L 13.809,9.21642 11.6393,6.6732 9.42385,4.4533 l -2.3125,-1.75 0.04312,0.02769 -2.4375,-1.3125 0.04541,0.02024 -2.4375,-0.874998 0.07861,0.017862 -2.4374996,-0.25 z M 46.2173,91.2652 l 6.2761,6.3726 -8.8637,1.1974 z"
         transform="matrix(1,0,0,-1,315.5,218.138)"
         id="path12196" /><text
         font-family="Calibri, Calibri_MSFontService, sans-serif"
         font-weight="400"
         font-size="15px"
         transform="translate(740.818,82)"
         id="text12198">Consequences</text><path
         d="M 630,114.667 C 630,105.462 637.462,98 646.667,98 h 281.666 c 9.205,0 16.667,7.462 16.667,16.667 v 66.666 C 945,190.538 937.538,198 928.333,198 H 646.667 C 637.462,198 630,190.538 630,181.333 Z"
         fill="#f4f2f8"
         fill-rule="evenodd"
         id="path12200" /><text
         fill="#7d3368"
         font-family="Calibri, Calibri_MSFontService, sans-serif"
         font-weight="400"
         font-size="15px"
         transform="translate(636.941,118)"
         id="text12210">Data Error<tspan
   fill="#000000"
   font-size="15px"
   x="199.83299"
   y="17"
   id="tspan12202">Unverified Data</tspan><tspan
   fill="#000000"
   font-size="15px"
   x="206"
   y="35"
   id="tspan12204">Unverified Key</tspan><tspan
   fill="#000000"
   font-size="15px"
   x="134.33299"
   y="53"
   id="tspan12206">Unverified Keying Material</tspan><tspan
   fill="#000000"
   font-size="15px"
   x="192.16701"
   y="70"
   id="tspan12208">Forged Signature</tspan></text><path
         d="m 577.521,120.167 4.875,0.313 4.794,0.943 4.471,1.384 4.039,1.827 c 0.016,0.007 0.032,0.016 0.046,0.025 l 3.313,2.188 c 0.014,0.009 0.027,0.02 0.04,0.031 l 2.625,2.375 c 0.021,0.019 0.039,0.04 0.054,0.064 l 1.688,2.562 c 0.023,0.035 0.039,0.073 0.047,0.114 l 0.563,2.625 0.562,2.625 -0.045,-0.111 1.687,2.625 -0.056,-0.067 2.625,2.375 -0.044,-0.033 3.313,2.125 -0.043,-0.023 4,1.812 4.403,1.424 -0.054,-0.012 2.99,0.449 -0.099,0.659 -2.989,-0.449 c -0.019,-0.003 -0.036,-0.007 -0.054,-0.012 l -4.472,-1.451 -4,-1.813 c -0.015,-0.006 -0.029,-0.014 -0.042,-0.023 l -3.313,-2.125 c -0.015,-0.01 -0.03,-0.021 -0.044,-0.033 l -2.625,-2.375 c -0.021,-0.02 -0.04,-0.042 -0.056,-0.067 l -1.688,-2.625 c -0.022,-0.034 -0.037,-0.071 -0.045,-0.111 l -0.563,-2.625 -0.562,-2.625 0.047,0.114 -1.687,-2.563 0.054,0.064 -2.625,-2.375 0.04,0.031 -3.312,-2.187 0.046,0.025 -3.961,-1.798 -4.403,-1.366 -4.707,-0.932 -4.875,-0.312 z m 44.944,23.85 7.528,4.83 -8.38,3.124 z"
         id="path12212" /><path
         d="m 630,221.334 c 0,-4.051 3.283,-7.334 7.333,-7.334 h 300.334 c 4.05,0 7.333,3.283 7.333,7.334 v 29.332 c 0,4.051 -3.283,7.334 -7.333,7.334 H 637.333 c -4.05,0 -7.333,-3.283 -7.333,-7.334 z"
         fill="#dfdaea"
         fill-rule="evenodd"
         id="path12214" /><text
         fill="#7d3368"
         font-family="Calibri, Calibri_MSFontService, sans-serif"
         font-weight="400"
         font-size="15px"
         transform="translate(634.174,231)"
         id="text12218">Data Security Final Error<tspan
   fill="#000000"
   font-size="15px"
   x="219.16701"
   y="17"
   id="tspan12216">Revealed Key</tspan></text><path
         d="m 577.542,120.169 2.438,0.313 c 0.029,0.004 0.057,0.011 0.084,0.022 l 2.438,1 c 0.018,0.008 0.036,0.017 0.053,0.028 l 2.437,1.562 c 0.017,0.011 0.032,0.023 0.046,0.036 l 2.313,2.125 2.28,2.719 2.203,3.082 2.08,3.59 1.948,3.957 3.325,8.842 2.635,9.907 1.695,10.533 0.566,10.91 0.562,10.875 1.684,10.465 2.618,9.842 3.303,8.781 1.923,3.843 2.053,3.545 2.172,3.1 2.23,2.6 -0.056,-0.053 3.426,2.504 -0.394,0.538 -3.426,-2.503 c -0.02,-0.016 -0.039,-0.033 -0.056,-0.053 l -2.27,-2.65 -2.203,-3.149 -2.072,-3.581 -1.951,-3.907 -3.323,-8.844 -2.632,-9.908 -1.691,-10.535 -0.563,-10.875 -0.559,-10.84 -1.68,-10.467 -2.615,-9.843 -3.3,-8.783 -1.926,-3.917 -2.046,-3.536 -2.172,-3.042 -2.219,-2.657 -2.313,-2.125 0.046,0.036 -2.438,-1.563 0.054,0.028 -2.438,-1 0.084,0.022 -2.437,-0.312 z m 46.502,110.188 5.949,6.678 -8.912,0.753 z"
         id="path12220" /><text
         font-family="Calibri, Calibri_MSFontService, sans-serif"
         font-weight="400"
         font-size="15px"
         transform="translate(435.691,82)"
         id="text12222">Operations</text><rect
         x="367.5"
         y="98.500099"
         width="210"
         height="44"
         stroke="#000000"
         stroke-width="0.666667"
         stroke-linejoin="round"
         stroke-miterlimit="10"
         fill="none"
         id="rect12224" /><text
         font-family="Calibri, Calibri_MSFontService, sans-serif"
         font-weight="400"
         font-size="15px"
         transform="translate(408.524,116)"
         id="text12230">Crypto Authenticate<tspan
   font-size="15px"
   x="20.92"
   y="17"
   id="tspan12226">Crypto Verify</tspan><tspan
   font-size="15px"
   x="31.25"
   y="60"
   id="tspan12228">Operands</tspan></text><rect
         x="367.5"
         y="192.5"
         width="210"
         height="25"
         stroke="#000000"
         stroke-width="0.666667"
         stroke-linejoin="round"
         stroke-miterlimit="10"
         fill="none"
         id="rect12232" /><text
         font-family="Calibri, Calibri_MSFontService, sans-serif"
         font-weight="400"
         font-size="15px"
         transform="translate(454.774,211)"
         id="text12284">Data<tspan
   font-size="15px"
   x="-16"
   y="82"
   id="tspan12234">Attributes</tspan><tspan
   fill="#7d3368"
   font-size="15px"
   x="-452.67401"
   y="116"
   id="tspan12236">Mechanism</tspan><tspan
   font-size="15px"
   x="-431.67401"
   y="133"
   id="tspan12238">Hash + RND</tspan><tspan
   font-size="15px"
   x="-431.67401"
   y="151"
   id="tspan12240">MAC</tspan><tspan
   font-size="15px"
   x="-431.67401"
   y="169"
   id="tspan12242">Digital Signature</tspan><tspan
   fill="#7d3368"
   font-size="15px"
   x="-257.39899"
   y="116"
   id="tspan12244">Source Code</tspan><tspan
   font-size="15px"
   x="-236.399"
   y="133"
   id="tspan12246">Codebase</tspan><tspan
   font-size="15px"
   x="-236.399"
   y="151"
   id="tspan12248">Third</tspan>-Party<tspan
   font-size="15px"
   x="-236.399"
   y="169"
   id="tspan12250">Standard Library</tspan><tspan
   font-size="15px"
   x="-236.399"
   y="186"
   id="tspan12252">Compiler/Interpreter</tspan><tspan
   fill="#7d3368"
   font-size="15px"
   x="-62.123199"
   y="116"
   id="tspan12254">Execution Space</tspan><tspan
   font-size="15px"
   x="-41.123199"
   y="133"
   id="tspan12256">Userland</tspan><tspan
   font-size="15px"
   x="-41.123199"
   y="151"
   id="tspan12258">Kernel</tspan><tspan
   font-size="15px"
   x="-41.123199"
   y="169"
   id="tspan12260">Bare</tspan><tspan
   font-size="15px"
   x="-13.6232"
   y="169"
   id="tspan12262">-</tspan>Metal<tspan
   fill="#7d3368"
   font-size="15px"
   x="133.15199"
   y="116"
   id="tspan12264">Data Kind</tspan><tspan
   font-size="15px"
   x="154.15199"
   y="133"
   id="tspan12266">Credentials</tspan><tspan
   font-size="15px"
   x="154.15199"
   y="151"
   id="tspan12268">System Data</tspan><tspan
   font-size="15px"
   x="154.15199"
   y="169"
   id="tspan12270">State Data</tspan><tspan
   font-size="15px"
   x="154.15199"
   y="186"
   id="tspan12272">Cryptographic</tspan><tspan
   font-size="15px"
   x="154.15199"
   y="204"
   id="tspan12274">Digital Document</tspan><tspan
   fill="#7d3368"
   font-size="15px"
   x="328.42801"
   y="116"
   id="tspan12276">Data State</tspan><tspan
   font-size="15px"
   x="349.42801"
   y="133"
   id="tspan12278">Stored</tspan><tspan
   font-size="15px"
   x="349.42801"
   y="151"
   id="tspan12280">In Use</tspan><tspan
   font-size="15px"
   x="349.42801"
   y="169"
   id="tspan12282">Transferred</tspan></text><path
         d="M 0,473.167 C 0,470.866 1.86552,469 4.16675,469 H 37.8333 C 40.1345,469 42,470.866 42,473.167 v 16.666 C 42,492.134 40.1345,494 37.8333,494 H 4.16675 C 1.86552,494 0,492.134 0,489.833 Z"
         fill="#e8effc"
         fill-rule="evenodd"
         id="path12286" /><text
         font-family="Calibri, Calibri_MSFontService, sans-serif"
         font-weight="400"
         font-size="15px"
         transform="translate(44.0945,488)"
         id="text12288">Bug</text><path
         d="m 236,473.167 c 0,-2.301 1.866,-4.167 4.167,-4.167 h 33.666 c 2.301,0 4.167,1.866 4.167,4.167 v 16.666 c 0,2.301 -1.866,4.167 -4.167,4.167 H 240.167 C 237.866,494 236,492.134 236,489.833 Z"
         fill="#f4f2f8"
         fill-rule="evenodd"
         id="path12290" /><text
         font-family="Calibri, Calibri_MSFontService, sans-serif"
         font-weight="400"
         font-size="15px"
         transform="translate(280.315,488)"
         id="text12292">Fault/Error</text><path
         d="m 472,473.167 c 0,-2.301 1.866,-4.167 4.167,-4.167 h 33.666 c 2.301,0 4.167,1.866 4.167,4.167 v 16.666 c 0,2.301 -1.866,4.167 -4.167,4.167 H 476.167 C 473.866,494 472,492.134 472,489.833 Z"
         fill="#dfdaea"
         fill-rule="evenodd"
         id="path12294" /><text
         font-family="Calibri, Calibri_MSFontService, sans-serif"
         font-weight="400"
         font-size="15px"
         transform="translate(516.535,488)"
         id="text12296">Final Error</text><rect
         x="709.5"
         y="469.5"
         width="42"
         height="25"
         stroke="#000000"
         stroke-width="0.666667"
         stroke-linejoin="round"
         stroke-miterlimit="10"
         fill="none"
         id="rect12298" /><text
         font-family="Calibri, Calibri_MSFontService, sans-serif"
         font-weight="400"
         font-size="15px"
         transform="translate(752.756,488)"
         id="text12300">Operation/Operand</text></g></g></svg>
